<svg id="Layer_1" data-name="Layer 1" xmlns="http://www.w3.org/2000/svg" xmlns:xlink="http://www.w3.org/1999/xlink" viewBox="0 0 119.87 66.33"><defs><style>.cls-1,.cls-8{fill:none;}.cls-2{fill:#3b9aac;}.cls-3{fill:#296773;}.cls-4{fill:#d4a130;}.cls-5{fill:#f5b82c;}.cls-6{fill:#f6c860;}.cls-7{fill:#57c7df;}.cls-8{stroke:#57c7df;stroke-miterlimit:10;stroke-width:2.32px;}.cls-9{clip-path:url(#clip-path);}</style><clipPath id="clip-path"><path class="cls-1" d="M95.12,62.39H24.75a4.57,4.57,0,0,1-4.34-3.07L2.23,5.95A4.52,4.52,0,0,1,6.56,0H113.3a4.52,4.52,0,0,1,4.34,5.94L99.45,59.31A4.57,4.57,0,0,1,95.12,62.39Z"/></clipPath></defs><title>cart</title><path class="cls-2" d="M59.83,7.53V54.8H100.4L117.28,7.28a4.42,4.42,0,0,1-1.48.26Z"/><path class="cls-3" d="M59.83,7.53H4.06a4.42,4.42,0,0,1-1.48-.26L19.47,54.8H59.83Z"/><path class="cls-4" d="M24.63,60a4.58,4.58,0,0,1-4.35-3l-.81-2.28H19a3.34,3.34,0,0,0-3.5,3.14v1.25A3.34,3.34,0,0,0,19,62.33H59.83V60Z"/><path class="cls-5" d="M95.24,60H59.83v2.29h41a3.34,3.34,0,0,0,3.5-3.14V57.94a3.34,3.34,0,0,0-3.5-3.14h-.42l-.81,2.28A4.58,4.58,0,0,1,95.24,60Z"/><path class="cls-4" d="M24.63,60h35.2V54.8H19.47l.81,2.28A4.58,4.58,0,0,0,24.63,60Z"/><path class="cls-5" d="M59.83,60H95.24a4.58,4.58,0,0,0,4.35-3l.81-2.28H59.83Z"/><path class="cls-5" d="M6.38,0H4.06A3.89,3.89,0,0,0,0,3.65v.23a3.69,3.69,0,0,0,2.59,3.4L2,5.72A4.38,4.38,0,0,1,6.38,0Z"/><path class="cls-6" d="M115.8,0h-2.32a4.38,4.38,0,0,1,4.35,5.72l-.55,1.55a3.69,3.69,0,0,0,2.58-3.4V3.65A3.89,3.89,0,0,0,115.8,0Z"/><path class="cls-5" d="M59.83,7.53V0H6.38A4.38,4.38,0,0,0,2,5.72l.55,1.55a4.42,4.42,0,0,0,1.48.26Z"/><path class="cls-6" d="M113.48,0H59.83V7.53h56a4.42,4.42,0,0,0,1.48-.26l.55-1.55A4.38,4.38,0,0,0,113.48,0Z"/><circle class="cls-7" cx="21.33" cy="54.25" r="12.08"/><circle class="cls-7" cx="98.49" cy="54.25" r="12.08"/><circle class="cls-3" cx="21.33" cy="54.25" r="5.83"/><circle class="cls-3" cx="98.49" cy="54.25" r="5.83"/><path class="cls-8" d="M43.43,34.5s8-7.43,16.4,0"/><path class="cls-8" d="M59.83,34.5s8,7.43,16.4,0"/><g class="cls-9"><path class="cls-8" d="M10.64,34.5s8-7.43,16.4,0"/><path class="cls-8" d="M27,34.5s8,7.43,16.4,0"/><path class="cls-8" d="M76.23,34.5s8-7.43,16.4,0"/><path class="cls-8" d="M92.63,34.5s8,7.43,16.4,0"/></g></svg>