<svg id="Layer_1" data-name="Layer 1" xmlns="http://www.w3.org/2000/svg" xmlns:xlink="http://www.w3.org/1999/xlink" viewBox="0 0 119.87 98.7"><defs><style>.cls-1{fill:none;}.cls-2{clip-path:url(#clip-path);}.cls-3{fill:#57c7df;}.cls-4{fill:#3b9aac;}.cls-5{fill:#296773;}</style><clipPath id="clip-path"><path class="cls-1" d="M97.09,2.55A7.4,7.4,0,0,0,91.5,0H28.37a7.4,7.4,0,0,0-5.59,2.55L1.81,26.7a7.4,7.4,0,0,0,0,9.74L54.37,96.19a7.4,7.4,0,0,0,11.12,0L118,36.44a7.4,7.4,0,0,0,0-9.74Z"/></clipPath></defs><title>cart</title><g class="cls-2"><polygon class="cls-3" points="24.64 0 59.69 31.58 94.51 0 24.64 0"/><polygon class="cls-4" points="24.64 31.58 59.57 102.51 94.51 31.58 24.64 31.58"/><polygon class="cls-5" points="24.64 31.58 24.64 0 59.69 31.58 24.64 31.58"/><polygon class="cls-5" points="94.51 31.58 94.51 0 59.69 31.58 94.51 31.58"/><polygon class="cls-5" points="94.51 31.58 121.94 31.58 59.57 102.51 94.51 31.58"/><polygon class="cls-5" points="-2.79 31.58 24.64 31.58 59.57 102.51 -2.79 31.58"/><polygon class="cls-4" points="-2.79 31.58 24.64 0 24.64 31.58 -2.79 31.58"/><polygon class="cls-4" points="121.94 31.58 94.51 0 94.51 31.58 121.94 31.58"/></g></svg>