<svg id="Layer_1" data-name="Layer 1" xmlns="http://www.w3.org/2000/svg" viewBox="0 0 119.74 119.74"><defs><style>.cls-1{fill:#dd5926;}.cls-2{fill:#b24926;}.cls-3{fill:#808cc5;}.cls-4{fill:#4e5d94;}</style></defs><title>cart</title><path class="cls-1" d="M93.69,22a2.2,2.2,0,0,0-3.12,0L17.39,96.67c-.85.87,0,1.47.83,2.32l1.67,1.63,75.47-77Z"/><path class="cls-2" d="M97,25.25l-1.67-1.63-75.49,77,1.67,1.63c.87.85,1.48,1.62,2.34.75L97.06,28.37A2.2,2.2,0,0,0,97,25.25Z"/><path class="cls-3" d="M118.31,4.28a4.31,4.31,0,0,0-2.84-2.84A28.14,28.14,0,0,0,85.8,9.29L72.26,22.83a2.91,2.91,0,0,0,0,4.12L82.53,37.21,92.72,47.41a3,3,0,0,0,4.27,0l13.46-13.46A28.14,28.14,0,0,0,118.31,4.28Z"/><path class="cls-4" d="M82.53,37.21,92.72,47.41a3,3,0,0,0,4.27,0l13.46-13.46a28.14,28.14,0,0,0,7.85-29.67,4.33,4.33,0,0,0-1.06-1.77"/><path class="cls-2" d="M2.19,100.19,1.1,99.1C10.37,89.83,15,94.46,17.3,96.69l.11.11c2,2,3.31,3.31,3.31,3.31l-1.1,1.08s-1.29-1.31-3.3-3.3l-.12-.11C14,95.62,10.38,92,2.19,100.19Z"/><path class="cls-2" d="M20.64,118.64l-1.09-1.09c8.18-8.18,4.57-11.84,2.4-14l-.11-.12c-2-2-3.3-3.3-3.3-3.3L19.63,99s1.32,1.3,3.31,3.31l.11.11C25.28,104.69,29.91,109.37,20.64,118.64Z"/><rect class="cls-1" x="-2.76" y="104.63" width="27.63" height="8.1" rx="3.78" ry="3.78" transform="translate(80.09 24.01) rotate(45)"/></svg>