<svg id="Layer_1" data-name="Layer 1" xmlns="http://www.w3.org/2000/svg" xmlns:xlink="http://www.w3.org/1999/xlink" viewBox="0 0 119.87 72.34"><defs><style>.cls-1{fill:none;}.cls-2{clip-path:url(#clip-path);}.cls-3{fill:#b91f4a;}.cls-4{fill:#ed2f65;}.cls-5{fill:#891738;}.cls-6{clip-path:url(#clip-path-2);}.cls-7{clip-path:url(#clip-path-3);}.cls-8{clip-path:url(#clip-path-4);}.cls-9{clip-path:url(#clip-path-5);}.cls-10{clip-path:url(#clip-path-6);}.cls-11{clip-path:url(#clip-path-7);}.cls-12{clip-path:url(#clip-path-8);}.cls-13{clip-path:url(#clip-path-9);}.cls-14{clip-path:url(#clip-path-10);}.cls-15{fill:#296773;}.cls-16{fill:#3b9aac;}</style><clipPath id="clip-path"><path class="cls-1" d="M73.12,11.16a2.86,2.86,0,0,0-2.16-1H46.56a2.86,2.86,0,0,0-2.16,1l-8.1,9.33a2.86,2.86,0,0,0,0,3.77l20.3,23.09a2.86,2.86,0,0,0,4.3,0l20.3-23.09a2.86,2.86,0,0,0,0-3.77Z"/></clipPath><clipPath id="clip-path-2"><path class="cls-1" d="M68,.64A2.39,2.39,0,0,0,66.11,0L56,1.1,45.85,2.18a2.39,2.39,0,0,0-1.71,1l-5.9,8.47a2.39,2.39,0,0,0,.34,3.13L57.5,32.16a2.39,2.39,0,0,0,3.57-.38l14.81-21a2.39,2.39,0,0,0-.33-3.13Z"/></clipPath><clipPath id="clip-path-3"><path class="cls-1" d="M52.83,9.14a1.74,1.74,0,0,0-1.38-.44l-7.38.87-7.38.87a1.74,1.74,0,0,0-1.24.75l-4.23,6.22a1.74,1.74,0,0,0,.28,2.28L45.43,32.21A1.74,1.74,0,0,0,48,31.9L58.66,16.48a1.74,1.74,0,0,0-.26-2.28Z"/></clipPath><clipPath id="clip-path-4"><path class="cls-1" d="M44.85,16.07a1.74,1.74,0,0,0-1.38-.44l-7.38.87-7.38.87a1.74,1.74,0,0,0-1.24.75l-4.23,6.22a1.74,1.74,0,0,0,.28,2.28L37.45,39.13a1.74,1.74,0,0,0,2.6-.31L50.68,23.41a1.74,1.74,0,0,0-.26-2.28Z"/></clipPath><clipPath id="clip-path-5"><path class="cls-1" d="M111.1,21.29a2.2,2.2,0,0,0-1.21-1.37l-8.58-3.83-8.58-3.83a2.2,2.2,0,0,0-1.83,0l-8.63,4A2.2,2.2,0,0,0,81.09,19l7,22.61a2.2,2.2,0,0,0,3,1.35L112.68,33a2.2,2.2,0,0,0,1.19-2.65Z"/></clipPath><clipPath id="clip-path-6"><path class="cls-1" d="M91.25,15.25a2.39,2.39,0,0,0-1.59-1.19l-10-2.16-10-2.16a2.39,2.39,0,0,0-1.94.42l-8.26,6.19a2.39,2.39,0,0,0-.66,3.08L71.37,41.87a2.39,2.39,0,0,0,3.51.76L95.54,27.37a2.39,2.39,0,0,0,.68-3.07Z"/></clipPath><clipPath id="clip-path-7"><path class="cls-1" d="M75.47,19.43A1.74,1.74,0,0,0,74.09,19l-7.38.87-7.38.87a1.74,1.74,0,0,0-1.24.75l-4.23,6.22A1.74,1.74,0,0,0,54.14,30L68.07,42.5a1.74,1.74,0,0,0,2.6-.31L81.3,26.77A1.74,1.74,0,0,0,81,24.49Z"/></clipPath><clipPath id="clip-path-8"><path class="cls-1" d="M51.29,15.8a1.74,1.74,0,0,0-1.41.33L44,20.65,38.1,25.18a1.74,1.74,0,0,0-.68,1.28L37,34a1.74,1.74,0,0,0,1.4,1.81L56.74,39.4a1.74,1.74,0,0,0,2.08-1.59l1.24-18.68a1.74,1.74,0,0,0-1.39-1.82Z"/></clipPath><clipPath id="clip-path-9"><path class="cls-1" d="M101.05,27.38a1.74,1.74,0,0,0-.86-1.16L93.7,22.61,87.2,19a1.74,1.74,0,0,0-1.44-.11l-7.07,2.57a1.74,1.74,0,0,0-1.11,2l4,18.29A1.74,1.74,0,0,0,83.86,43l17.63-6.29a1.74,1.74,0,0,0,1.12-2Z"/></clipPath><clipPath id="clip-path-10"><path class="cls-1" d="M20.67,12.44a1.74,1.74,0,0,0-1.41.33l-5.89,4.52L7.48,21.81a1.74,1.74,0,0,0-.68,1.28l-.45,7.51a1.74,1.74,0,0,0,1.4,1.81L26.12,36a1.74,1.74,0,0,0,2.08-1.59l1.24-18.68A1.74,1.74,0,0,0,28,13.94Z"/></clipPath></defs><title>cart</title><g class="cls-2"><polygon class="cls-3" points="72.27 10.18 58.76 10.18 45.26 10.18 34.66 22.38 58.76 49.8 82.86 22.38 72.27 10.18"/><polygon class="cls-4" points="45.26 10.18 58.81 22.38 72.27 10.18 45.26 10.18"/><polygon class="cls-3" points="45.26 22.38 58.76 49.8 72.27 22.38 45.26 22.38"/><polygon class="cls-5" points="45.26 22.38 45.26 10.18 58.81 22.38 45.26 22.38"/><polygon class="cls-5" points="72.27 22.38 72.27 10.18 58.81 22.38 72.27 22.38"/><polygon class="cls-5" points="72.27 22.38 82.86 22.38 58.76 49.8 72.27 22.38"/><polygon class="cls-5" points="34.66 22.38 45.26 22.38 58.76 49.8 34.66 22.38"/><polygon class="cls-3" points="34.66 22.38 45.26 10.18 45.26 22.38 34.66 22.38"/><polygon class="cls-3" points="82.86 22.38 72.27 10.18 72.27 22.38 82.86 22.38"/></g><g class="cls-6"><polygon class="cls-3" points="67.19 -0.1 55.98 1.1 44.77 2.3 37.05 13.38 59.5 34 77.08 9.09 67.19 -0.1"/><polygon class="cls-4" points="44.77 2.3 57.1 11.23 67.19 -0.1 44.77 2.3"/><polygon class="cls-3" points="45.85 12.44 59.5 34 68.28 10.03 45.85 12.44"/><polygon class="cls-5" points="45.85 12.44 44.77 2.3 57.1 11.23 45.85 12.44"/><polygon class="cls-5" points="68.28 10.03 67.19 -0.1 57.1 11.23 68.28 10.03"/><polygon class="cls-5" points="68.28 10.03 77.08 9.09 59.5 34 68.28 10.03"/><polygon class="cls-5" points="37.05 13.38 45.85 12.44 59.5 34 37.05 13.38"/><polygon class="cls-3" points="37.05 13.38 44.77 2.3 45.85 12.44 37.05 13.38"/><polygon class="cls-3" points="77.08 9.09 67.19 -0.1 68.28 10.03 77.08 9.09"/></g><g class="cls-7"><polygon class="cls-3" points="52.24 8.61 44.07 9.57 35.91 10.54 30.37 18.68 46.91 33.53 59.52 15.23 52.24 8.61"/><polygon class="cls-4" points="35.91 10.54 44.97 16.95 52.24 8.61 35.91 10.54"/><polygon class="cls-3" points="36.78 17.92 46.91 33.53 53.11 15.99 36.78 17.92"/><polygon class="cls-5" points="36.78 17.92 35.91 10.54 44.97 16.95 36.78 17.92"/><polygon class="cls-5" points="53.11 15.99 52.24 8.61 44.97 16.95 53.11 15.99"/><polygon class="cls-5" points="53.11 15.99 59.52 15.23 46.91 33.53 53.11 15.99"/><polygon class="cls-5" points="30.37 18.68 36.78 17.92 46.91 33.53 30.37 18.68"/><polygon class="cls-3" points="30.37 18.68 35.91 10.54 36.78 17.92 30.37 18.68"/><polygon class="cls-3" points="59.52 15.23 52.24 8.61 53.11 15.99 59.52 15.23"/></g><g class="cls-8"><polygon class="cls-3" points="44.26 15.53 36.09 16.5 27.93 17.46 22.39 25.6 38.93 40.46 51.54 22.16 44.26 15.53"/><polygon class="cls-4" points="27.93 17.46 37 23.88 44.26 15.53 27.93 17.46"/><polygon class="cls-3" points="28.8 24.84 38.93 40.46 45.13 22.91 28.8 24.84"/><polygon class="cls-5" points="28.8 24.84 27.93 17.46 37 23.88 28.8 24.84"/><polygon class="cls-5" points="45.13 22.91 44.26 15.53 37 23.88 45.13 22.91"/><polygon class="cls-5" points="45.13 22.91 51.54 22.16 38.93 40.46 45.13 22.91"/><polygon class="cls-5" points="22.39 25.6 28.8 24.84 38.93 40.46 22.39 25.6"/><polygon class="cls-3" points="22.39 25.6 27.93 17.46 28.8 24.84 22.39 25.6"/><polygon class="cls-3" points="51.54 22.16 44.26 15.53 45.13 22.91 51.54 22.16"/></g><g class="cls-9"><polygon class="cls-3" points="110.8 20.33 101.3 16.09 91.8 11.85 80.52 17.12 88.88 43.96 114.43 32.24 110.8 20.33"/><polygon class="cls-4" points="91.8 11.85 97.51 24.69 110.8 20.33 91.8 11.85"/><polygon class="cls-3" points="87.97 20.44 88.88 43.96 106.97 28.91 87.97 20.44"/><polygon class="cls-5" points="87.97 20.44 91.8 11.85 97.51 24.69 87.97 20.44"/><polygon class="cls-5" points="106.97 28.91 110.8 20.33 97.51 24.69 106.97 28.91"/><polygon class="cls-5" points="106.97 28.91 114.43 32.24 88.88 43.96 106.97 28.91"/><polygon class="cls-5" points="80.52 17.12 87.97 20.44 88.88 43.96 80.52 17.12"/><polygon class="cls-3" points="80.52 17.12 91.8 11.85 87.97 20.44 80.52 17.12"/><polygon class="cls-3" points="114.43 32.24 110.8 20.33 106.97 28.91 114.43 32.24"/></g><g class="cls-10"><polygon class="cls-3" points="90.72 14.29 79.7 11.91 68.68 9.52 57.87 17.61 72.69 44.24 97.22 26.13 90.72 14.29"/><polygon class="cls-4" points="68.68 9.52 77.58 21.88 90.72 14.29 68.68 9.52"/><polygon class="cls-3" points="66.52 19.48 72.69 44.24 88.56 24.26 66.52 19.48"/><polygon class="cls-5" points="66.52 19.48 68.68 9.52 77.58 21.88 66.52 19.48"/><polygon class="cls-5" points="88.56 24.26 90.72 14.29 77.58 21.88 88.56 24.26"/><polygon class="cls-5" points="88.56 24.26 97.22 26.13 72.69 44.24 88.56 24.26"/><polygon class="cls-5" points="57.87 17.61 66.52 19.48 72.69 44.24 57.87 17.61"/><polygon class="cls-3" points="57.87 17.61 68.68 9.52 66.52 19.48 57.87 17.61"/><polygon class="cls-3" points="97.22 26.13 90.72 14.29 88.56 24.26 97.22 26.13"/></g><g class="cls-11"><polygon class="cls-3" points="74.88 18.89 66.71 19.86 58.55 20.83 53.01 28.97 69.55 43.82 82.16 25.52 74.88 18.89"/><polygon class="cls-4" points="58.55 20.83 67.61 27.24 74.88 18.89 58.55 20.83"/><polygon class="cls-3" points="59.42 28.21 69.55 43.82 75.75 26.28 59.42 28.21"/><polygon class="cls-5" points="59.42 28.21 58.55 20.83 67.61 27.24 59.42 28.21"/><polygon class="cls-5" points="75.75 26.28 74.88 18.89 67.61 27.24 75.75 26.28"/><polygon class="cls-5" points="75.75 26.28 82.16 25.52 69.55 43.82 75.75 26.28"/><polygon class="cls-5" points="53.01 28.97 59.42 28.21 69.55 43.82 53.01 28.97"/><polygon class="cls-3" points="53.01 28.97 58.55 20.83 59.42 28.21 53.01 28.97"/><polygon class="cls-3" points="82.16 25.52 74.88 18.89 75.75 26.28 82.16 25.52"/></g><g class="cls-12"><polygon class="cls-3" points="50.51 15.64 43.99 20.65 37.47 25.66 36.88 35.49 58.69 39.79 60.16 17.61 50.51 15.64"/><polygon class="cls-4" points="37.47 25.66 48.54 26.53 50.51 15.64 37.47 25.66"/><polygon class="cls-3" points="42 31.56 58.69 39.79 55.04 21.54 42 31.56"/><polygon class="cls-5" points="42 31.56 37.47 25.66 48.54 26.53 42 31.56"/><polygon class="cls-5" points="55.04 21.54 50.51 15.64 48.54 26.53 55.04 21.54"/><polygon class="cls-5" points="55.04 21.54 60.16 17.61 58.69 39.79 55.04 21.54"/><polygon class="cls-5" points="36.88 35.49 42 31.56 58.69 39.79 36.88 35.49"/><polygon class="cls-3" points="36.88 35.49 37.47 25.66 42 31.56 36.88 35.49"/><polygon class="cls-3" points="60.16 17.61 50.51 15.64 55.04 21.54 60.16 17.61"/></g><g class="cls-13"><polygon class="cls-3" points="100.89 26.6 93.7 22.61 86.51 18.61 77.26 21.98 81.99 43.7 102.92 36.23 100.89 26.6"/><polygon class="cls-4" points="86.51 18.61 90.12 29.12 100.89 26.6 86.51 18.61"/><polygon class="cls-3" points="82.9 25.11 81.99 43.7 97.28 33.1 82.9 25.11"/><polygon class="cls-5" points="82.9 25.11 86.51 18.61 90.12 29.12 82.9 25.11"/><polygon class="cls-5" points="97.28 33.1 100.89 26.6 90.12 29.12 97.28 33.1"/><polygon class="cls-5" points="97.28 33.1 102.92 36.23 81.99 43.7 97.28 33.1"/><polygon class="cls-5" points="77.26 21.98 82.9 25.11 81.99 43.7 77.26 21.98"/><polygon class="cls-3" points="77.26 21.98 86.51 18.61 82.9 25.11 77.26 21.98"/><polygon class="cls-3" points="102.92 36.23 100.89 26.6 97.28 33.1 102.92 36.23"/></g><g class="cls-14"><polygon class="cls-3" points="19.89 12.28 13.37 17.29 6.85 22.3 6.26 32.13 28.07 36.42 29.54 14.25 19.89 12.28"/><polygon class="cls-4" points="6.85 22.3 17.92 23.17 19.89 12.28 6.85 22.3"/><polygon class="cls-3" points="11.38 28.19 28.07 36.42 24.42 18.18 11.38 28.19"/><polygon class="cls-5" points="11.38 28.19 6.85 22.3 17.92 23.17 11.38 28.19"/><polygon class="cls-5" points="24.42 18.18 19.89 12.28 17.92 23.17 24.42 18.18"/><polygon class="cls-5" points="24.42 18.18 29.54 14.25 28.07 36.42 24.42 18.18"/><polygon class="cls-5" points="6.26 32.13 11.38 28.19 28.07 36.42 6.26 32.13"/><polygon class="cls-3" points="6.26 32.13 6.85 22.3 11.38 28.19 6.26 32.13"/><polygon class="cls-3" points="29.54 14.25 19.89 12.28 24.42 18.18 29.54 14.25"/></g><path class="cls-15" d="M86.78,72.34H35.68a9.15,9.15,0,0,1-7.92-4.43L9.69,37c-3.36-5.75,1-12.81,7.92-12.81h83.86c6.58,0,11,6.47,8.26,12.17L95,67.27A9.1,9.1,0,0,1,86.78,72.34Z"/><rect class="cls-16" y="24.2" width="119.87" height="11.55" rx="5.77" ry="5.77"/></svg>