<svg id="Layer_1" data-name="Layer 1" xmlns="http://www.w3.org/2000/svg" viewBox="0 0 118.44 114.96"><defs><style>.cls-1{fill:#dd5926;}.cls-2{fill:#b24926;}.cls-3{fill:#3b9aac;}.cls-4{fill:#296773;}.cls-5{fill:#57c7df;}</style></defs><title>cart</title><path class="cls-1" d="M89.38,20a2.56,2.56,0,0,0-3.62,0l-85,86.73a2.56,2.56,0,0,0,0,3.62l1.94,1.9L91.32,21.94Z"/><path class="cls-2" d="M93.26,23.84l-1.94-1.9L2.71,112.33l1.94,1.9a2.56,2.56,0,0,0,3.62,0l85-86.73A2.56,2.56,0,0,0,93.26,23.84Z"/><path class="cls-3" d="M89.37,33.08c3.87,1.33,14.3,6.71,25.46,27.81a2.5,2.5,0,0,1,.26.83l1.75-.68a2.53,2.53,0,0,0,1.31-3.54C107,36.4,96.56,31,92.69,29.69a2.51,2.51,0,0,0-2.61.62l-1.25,1.28A2.48,2.48,0,0,0,88.14,33,2.49,2.49,0,0,1,89.37,33.08Z"/><path class="cls-4" d="M89.21,35.43a55.48,55.48,0,0,1,20.36,25.68,2.53,2.53,0,0,0,3.28,1.48l2.24-.87a2.5,2.5,0,0,0-.26-.83C103.67,39.79,93.24,34.4,89.37,33.08A2.49,2.49,0,0,0,88.14,33,2.52,2.52,0,0,0,89.21,35.43Z"/><path class="cls-3" d="M48.07,0A1.1,1.1,0,0,0,46.7.81a1,1,0,0,1,.55.07c14.21,5.33,31.31,24,31.31,24l3.15-3.21S63.44,4.19,48.07,0Z"/><path class="cls-4" d="M47.26.88A1,1,0,0,0,46.7.81a1.09,1.09,0,0,0,.49,1.29c8.55,5.25,25.44,16.53,28.62,25.56l2.76-2.81S61.46,6.21,47.26.88Z"/><path class="cls-5" d="M88.08,18.77a2.54,2.54,0,0,0-3.58,0L74.62,28.88a2.54,2.54,0,0,0,0,3.58l3.24,3.18L91.32,21.94Z"/><path class="cls-3" d="M94.56,25.12l-3.24-3.18L77.9,35.63l3.24,3.18a2.54,2.54,0,0,0,3.58,0L94.59,28.7A2.54,2.54,0,0,0,94.56,25.12Z"/></svg>