<svg id="Layer_1" data-name="Layer 1" xmlns="http://www.w3.org/2000/svg" viewBox="0 0 121.04 112.06"><defs><style>.cls-1{fill:#f4835a;}.cls-2{fill:#b24926;}.cls-3{fill:#1d305e;}.cls-4{fill:#f5b82c;}.cls-5,.cls-8{fill:none;stroke-miterlimit:10;}.cls-5{stroke:#f6c860;stroke-linecap:round;stroke-width:3.28px;}.cls-6{fill:#d4a130;}.cls-7{fill:#f1f9fd;}.cls-8{stroke:#142442;stroke-width:0.35px;}</style></defs><title>cart</title><path class="cls-1" d="M6.62,56c0,30.95,24.15,56,53.93,56V0C30.77,0,6.62,25.09,6.62,56Z"/><path class="cls-1" d="M110.62,75.57A58.35,58.35,0,0,0,114,56C114,25.09,90,0,60.55,0V112.06c20.58,0,38.42-12.21,47.34-30.1Z"/><path class="cls-2" d="M87.26,40.28S71.67,47.6,45.77,57.63A46.7,46.7,0,0,0,16.45,92.3c-2,1.13-28.13-59.48,12.84-82.14C54.62-3.85,87.26,40.28,87.26,40.28Z"/><path class="cls-2" d="M19.5,26.84S47.17,58,73.06,68a46.7,46.7,0,0,1,29.32,34.67s49.55-50.19-12.84-82.14S19.5,26.84,19.5,26.84Z"/><circle class="cls-3" cx="93.19" cy="82.41" r="5.46"/><circle class="cls-3" cx="29.5" cy="82.41" r="5.46"/><path class="cls-4" d="M60.59,0V52.41h58.49C119.08,23.46,92.89,0,60.59,0Z"/><path class="cls-4" d="M2.09,52.41H60.59V0C28.28,0,2.09,23.46,2.09,52.41Z"/><line class="cls-5" x1="1.64" y1="52.41" x2="119.08" y2="52.41"/><path class="cls-6" d="M60.59,13.75V48.57H87.73C87.73,29.34,75.58,13.75,60.59,13.75Z"/><path class="cls-6" d="M33.44,48.57H60.59V13.75C45.59,13.75,33.44,29.34,33.44,48.57Z"/><ellipse class="cls-4" cx="60.59" cy="35.11" rx="15" ry="18.46"/><ellipse class="cls-7" cx="60.59" cy="35.11" rx="10.93" ry="13.46"/><path class="cls-8" d="M61,85.11h4.44a2.23,2.23,0,0,1,2.36,2.07h0a2.23,2.23,0,0,1-2.36,2.07H61"/></svg>