<svg id="Layer_1" data-name="Layer 1" xmlns="http://www.w3.org/2000/svg" xmlns:xlink="http://www.w3.org/1999/xlink" viewBox="0 0 298.14 205.78"><defs><style>.cls-1{fill:none;}.cls-2{clip-path:url(#clip-path);}.cls-3{fill:#b91f4a;}.cls-4{fill:#ed2f65;}.cls-5{fill:#891738;}.cls-6{clip-path:url(#clip-path-2);}.cls-7{clip-path:url(#clip-path-3);}.cls-8{fill:#f6c860;}.cls-9{fill:#f5b82c;}.cls-10{fill:#d4a130;}.cls-11{clip-path:url(#clip-path-4);}.cls-12{clip-path:url(#clip-path-5);}.cls-13{clip-path:url(#clip-path-6);}.cls-14{clip-path:url(#clip-path-7);}.cls-15{clip-path:url(#clip-path-8);}.cls-16{clip-path:url(#clip-path-9);}.cls-17{clip-path:url(#clip-path-10);}.cls-18{clip-path:url(#clip-path-11);}.cls-19{clip-path:url(#clip-path-12);}.cls-20{clip-path:url(#clip-path-13);}.cls-21{clip-path:url(#clip-path-14);}.cls-22{clip-path:url(#clip-path-15);}.cls-23{clip-path:url(#clip-path-16);}.cls-24{fill:#296773;}.cls-25{clip-path:url(#clip-path-17);}.cls-26{clip-path:url(#clip-path-18);}.cls-27{fill:#3b9aac;}</style><clipPath id="clip-path"><path class="cls-1" d="M187.13,52.29a6.61,6.61,0,0,0-5-2.23H125.18a6.61,6.61,0,0,0-5,2.23L101.23,74a6.65,6.65,0,0,0,0,8.77l47.36,53.86a6.68,6.68,0,0,0,10,0L206,82.78A6.63,6.63,0,0,0,206,74Z"/></clipPath><clipPath id="clip-path-2"><path class="cls-1" d="M164.44,1.49A5.58,5.58,0,0,0,160,0L136.42,2.56,112.78,5.09a5.58,5.58,0,0,0-4,2.36L95,27.21a5.58,5.58,0,0,0,.8,7.29L140,75a5.58,5.58,0,0,0,8.33-.89l34.54-48.94a5.58,5.58,0,0,0-.76-7.3Z"/></clipPath><clipPath id="clip-path-3"><path class="cls-1" d="M126.53,8.3a3.66,3.66,0,0,0-3-.06l-14.31,6.17L94.87,20.58a3.66,3.66,0,0,0-2,2.25l-4.79,15A3.66,3.66,0,0,0,90,42.29l35.5,16.82a3.66,3.66,0,0,0,5-2.17l12.14-37.36a3.66,3.66,0,0,0-1.89-4.42Z"/></clipPath><clipPath id="clip-path-4"><path class="cls-1" d="M114.62,29.24a4.06,4.06,0,0,0-3.21-1l-17.21,2L77,32.28A4.06,4.06,0,0,0,74.11,34L64.23,48.55a4.06,4.06,0,0,0,.64,5.31L97.37,83a4.06,4.06,0,0,0,6.06-.72l24.79-36a4.06,4.06,0,0,0-.61-5.31Z"/></clipPath><clipPath id="clip-path-5"><path class="cls-1" d="M175.14,22.85a5.58,5.58,0,0,0-4.39-1.46l-23.63,2.53-23.63,2.53a5.58,5.58,0,0,0-4,2.36L105.74,48.57a5.58,5.58,0,0,0,.8,7.29l44.12,40.52a5.58,5.58,0,0,0,8.33-.89l34.54-48.94a5.58,5.58,0,0,0-.76-7.3Z"/></clipPath><clipPath id="clip-path-6"><path class="cls-1" d="M139.76,42.69a4.06,4.06,0,0,0-3.21-1l-17.21,2-17.21,2a4.06,4.06,0,0,0-2.88,1.75L89.37,62A4.06,4.06,0,0,0,90,67.31l32.49,29.19a4.06,4.06,0,0,0,6.06-.72l24.79-36a4.06,4.06,0,0,0-.61-5.31Z"/></clipPath><clipPath id="clip-path-7"><path class="cls-1" d="M229.74,32.7A5.58,5.58,0,0,0,226,29.93l-23.23-5-23.23-5a5.58,5.58,0,0,0-4.52,1L155.77,35.28a5.58,5.58,0,0,0-1.53,7.18L183.38,94.8a5.58,5.58,0,0,0,8.18,1.77L239.74,61a5.58,5.58,0,0,0,1.58-7.17Z"/></clipPath><clipPath id="clip-path-8"><path class="cls-1" d="M176.91,40.42A2.72,2.72,0,0,0,175,39.19l-11.46-1.68L152.1,35.84a2.72,2.72,0,0,0-2.16.63L141,44.12a2.72,2.72,0,0,0-.51,3.54l15.89,24.48a2.72,2.72,0,0,0,4,.59l22.24-18.9a2.72,2.72,0,0,0,.53-3.54Z"/></clipPath><clipPath id="clip-path-9"><path class="cls-1" d="M121.16,53.71a4.06,4.06,0,0,0-3.21-1l-17.21,2-17.21,2a4.06,4.06,0,0,0-2.88,1.75L70.77,73a4.06,4.06,0,0,0,.64,5.31l32.49,29.19a4.06,4.06,0,0,0,6.06-.72l24.79-36a4.06,4.06,0,0,0-.61-5.31Z"/></clipPath><clipPath id="clip-path-10"><path class="cls-1" d="M275.7,71a5.14,5.14,0,0,0-2.82-3.2l-20-8.93-20-8.93a5.14,5.14,0,0,0-4.27,0l-20.13,9.39a5.14,5.14,0,0,0-2.74,6.19l16.42,52.75a5.14,5.14,0,0,0,7.05,3.14l50.21-23a5.14,5.14,0,0,0,2.77-6.17Z"/></clipPath><clipPath id="clip-path-11"><path class="cls-1" d="M229.39,56.93a5.58,5.58,0,0,0-3.71-2.77l-23.23-5-23.23-5a5.58,5.58,0,0,0-4.52,1L155.42,59.52a5.58,5.58,0,0,0-1.53,7.18L183,119a5.58,5.58,0,0,0,8.18,1.77l48.18-35.59A5.58,5.58,0,0,0,241,78Z"/></clipPath><clipPath id="clip-path-12"><path class="cls-1" d="M192.58,66.69a4.06,4.06,0,0,0-3.21-1l-17.21,2-17.21,2a4.06,4.06,0,0,0-2.88,1.75L142.19,86a4.06,4.06,0,0,0,.64,5.31l32.49,29.19a4.06,4.06,0,0,0,6.06-.72l24.79-36a4.06,4.06,0,0,0-.61-5.31Z"/></clipPath><clipPath id="clip-path-13"><path class="cls-1" d="M94.72,65.86a3.66,3.66,0,0,0-3-.06L77.37,72,63.06,78.14a3.66,3.66,0,0,0-2,2.25l-4.79,15a3.66,3.66,0,0,0,1.92,4.41l35.5,16.82a3.66,3.66,0,0,0,5-2.17l12.14-37.36a3.66,3.66,0,0,0-1.89-4.42Z"/></clipPath><clipPath id="clip-path-14"><path class="cls-1" d="M136.19,58.23a4.06,4.06,0,0,0-3.29.76L119.16,69.54,105.41,80.1a4.06,4.06,0,0,0-1.58,3l-1.05,17.53a4.06,4.06,0,0,0,3.27,4.23l42.85,8.45a4.06,4.06,0,0,0,4.84-3.72L156.64,66a4.06,4.06,0,0,0-3.24-4.25Z"/></clipPath><clipPath id="clip-path-15"><path class="cls-1" d="M266.26,76.08A2.36,2.36,0,0,0,265,74.55L256,70l-9-4.55a2.36,2.36,0,0,0-2-.08l-9.45,3.86a2.36,2.36,0,0,0-1.4,2.78l6.35,24.59a2.36,2.36,0,0,0,3.17,1.6l23.57-9.45A2.36,2.36,0,0,0,268.75,86Z"/></clipPath><clipPath id="clip-path-16"><path class="cls-1" d="M252.27,85.22a4.06,4.06,0,0,0-2-2.71L235.11,74.1,220,65.69a4.06,4.06,0,0,0-3.36-.27l-16.5,6a4.06,4.06,0,0,0-2.58,4.68l9.3,42.68a4.06,4.06,0,0,0,5.34,3l41.13-14.68a4.06,4.06,0,0,0,2.61-4.67Z"/></clipPath><clipPath id="clip-path-17"><path class="cls-1" d="M60,52.14a4.5,4.5,0,0,0-3.64.84L41.13,64.68,25.91,76.37a4.5,4.5,0,0,0-1.75,3.3L23,99.08a4.5,4.5,0,0,0,3.62,4.69l47.46,9.36A4.5,4.5,0,0,0,79.44,109l3.21-48.27A4.5,4.5,0,0,0,79.05,56Z"/></clipPath><clipPath id="clip-path-18"><path class="cls-1" d="M212.39,84.77a2.36,2.36,0,0,0-1.22-1.53l-9-4.55-9-4.55a2.36,2.36,0,0,0-2-.08l-9.45,3.86a2.36,2.36,0,0,0-1.4,2.78l6.35,24.59a2.36,2.36,0,0,0,3.17,1.6l23.57-9.45a2.36,2.36,0,0,0,1.41-2.77Z"/></clipPath></defs><title>registration</title><g class="cls-2"><polygon class="cls-3" points="185.14 50.06 153.64 50.06 122.13 50.06 97.41 78.46 153.64 142.38 209.86 78.48 185.14 50.06"/><polygon class="cls-4" points="122.13 50.06 153.74 78.53 185.14 50.06 122.13 50.06"/><polygon class="cls-3" points="122.13 78.23 153.64 142.18 185.14 78.23 122.13 78.23"/><polygon class="cls-5" points="122.07 78.23 122.07 49.92 153.74 78.23 122.07 78.23"/><polygon class="cls-5" points="185.46 78.23 185.46 49.92 153.74 78.23 185.46 78.23"/><polygon class="cls-5" points="185.14 78.23 209.86 78.23 153.64 142.18 185.14 78.23"/><polygon class="cls-5" points="97.41 78.23 122.13 78.23 153.64 142.18 97.41 78.23"/><polygon class="cls-3" points="97.41 78.23 122.07 49.92 122.07 78.23 97.41 78.23"/><polygon class="cls-3" points="209.86 78.23 185.46 49.92 185.46 78.23 209.86 78.23"/></g><g class="cls-6"><polygon class="cls-3" points="162.57 -0.24 136.41 2.56 110.25 5.36 92.25 31.21 144.63 79.31 185.64 21.21 162.57 -0.24"/><polygon class="cls-4" points="110.25 5.36 139.03 26.2 162.57 -0.24 110.25 5.36"/><polygon class="cls-3" points="112.79 29.01 144.63 79.31 165.11 23.41 112.79 29.01"/><polygon class="cls-5" points="112.79 29.01 110.25 5.36 139.03 26.2 112.79 29.01"/><polygon class="cls-5" points="165.11 23.41 162.57 -0.24 139.03 26.2 165.11 23.41"/><polygon class="cls-5" points="165.11 23.41 185.64 21.21 144.63 79.31 165.11 23.41"/><polygon class="cls-5" points="92.25 31.21 112.79 29.01 144.63 79.31 92.25 31.21"/><polygon class="cls-3" points="92.25 31.21 110.25 5.36 112.79 29.01 92.25 31.21"/><polygon class="cls-3" points="185.64 21.21 162.57 -0.24 165.11 23.41 185.64 21.21"/></g><g class="cls-7"><polygon class="cls-3" points="125.03 7.58 109.19 14.41 93.34 21.24 87.08 40.92 129.23 60.89 143.64 16.54 125.03 7.58"/><polygon class="cls-8" points="93.34 21.24 115.41 28.71 125.03 7.58 93.34 21.24"/><polygon class="cls-9" points="99.52 35.56 129.23 60.89 131.2 21.9 99.52 35.56"/><polygon class="cls-10" points="99.52 35.56 93.34 21.24 115.41 28.71 99.52 35.56"/><polygon class="cls-10" points="131.2 21.9 125.03 7.58 115.41 28.71 131.2 21.9"/><polygon class="cls-10" points="131.2 21.9 143.64 16.54 129.23 60.89 131.2 21.9"/><polygon class="cls-10" points="87.08 40.92 99.52 35.56 129.23 60.89 87.08 40.92"/><polygon class="cls-9" points="87.08 40.92 93.34 21.24 99.52 35.56 87.08 40.92"/><polygon class="cls-9" points="143.64 16.54 125.03 7.58 131.2 21.9 143.64 16.54"/></g><g class="cls-11"><polygon class="cls-3" points="113.25 27.99 94.2 30.25 75.15 32.5 62.24 51.49 100.81 86.14 130.24 43.44 113.25 27.99"/><polygon class="cls-4" points="75.15 32.5 96.3 47.46 113.25 27.99 75.15 32.5"/><polygon class="cls-3" points="77.19 49.72 100.81 86.14 115.29 45.21 77.19 49.72"/><polygon class="cls-5" points="77.19 49.72 75.15 32.5 96.3 47.46 77.19 49.72"/><polygon class="cls-5" points="115.29 45.21 113.25 27.99 96.3 47.46 115.29 45.21"/><polygon class="cls-5" points="115.29 45.21 130.24 43.44 100.81 86.14 115.29 45.21"/><polygon class="cls-5" points="62.24 51.49 77.19 49.72 100.81 86.14 62.24 51.49"/><polygon class="cls-3" points="62.24 51.49 75.15 32.5 77.19 49.72 62.24 51.49"/><polygon class="cls-3" points="130.24 43.44 113.25 27.99 115.29 45.21 130.24 43.44"/></g><g class="cls-12"><polygon class="cls-3" points="173.28 21.12 147.12 23.92 120.96 26.72 102.96 52.57 155.34 100.67 196.34 42.57 173.28 21.12"/><polygon class="cls-4" points="120.96 26.72 149.74 47.56 173.28 21.12 120.96 26.72"/><polygon class="cls-3" points="123.49 50.37 155.34 100.67 175.81 44.77 123.49 50.37"/><polygon class="cls-5" points="123.49 50.37 120.96 26.72 149.74 47.56 123.49 50.37"/><polygon class="cls-5" points="175.81 44.77 173.28 21.12 149.74 47.56 175.81 44.77"/><polygon class="cls-5" points="175.81 44.77 196.34 42.57 155.34 100.67 175.81 44.77"/><polygon class="cls-5" points="102.96 52.57 123.49 50.37 155.34 100.67 102.96 52.57"/><polygon class="cls-3" points="102.96 52.57 120.96 26.72 123.49 50.37 102.96 52.57"/><polygon class="cls-3" points="196.34 42.57 173.28 21.12 175.81 44.77 196.34 42.57"/></g><g class="cls-13"><polygon class="cls-3" points="138.39 41.44 119.34 43.69 100.29 45.95 87.38 64.93 125.95 99.58 155.38 56.89 138.39 41.44"/><polygon class="cls-4" points="100.29 45.95 121.44 60.91 138.39 41.44 100.29 45.95"/><polygon class="cls-3" points="102.33 63.16 125.95 99.58 140.43 58.66 102.33 63.16"/><polygon class="cls-5" points="102.33 63.16 100.29 45.95 121.44 60.91 102.33 63.16"/><polygon class="cls-5" points="140.43 58.66 138.39 41.44 121.44 60.91 140.43 58.66"/><polygon class="cls-5" points="140.43 58.66 155.38 56.89 125.95 99.58 140.43 58.66"/><polygon class="cls-5" points="87.38 64.93 102.33 63.16 125.95 99.58 87.38 64.93"/><polygon class="cls-3" points="87.38 64.93 100.29 45.95 102.33 63.16 87.38 64.93"/><polygon class="cls-3" points="155.38 56.89 138.39 41.44 140.43 58.66 155.38 56.89"/></g><g class="cls-14"><polygon class="cls-3" points="228.51 30.47 202.8 24.9 177.09 19.33 151.87 38.2 186.46 100.34 243.66 58.08 228.51 30.47"/><polygon class="cls-4" points="177.09 19.33 197.85 48.16 228.51 30.47 177.09 19.33"/><polygon class="cls-3" points="172.06 42.57 186.46 100.34 223.48 53.71 172.06 42.57"/><polygon class="cls-5" points="172.06 42.57 177.09 19.33 197.85 48.16 172.06 42.57"/><polygon class="cls-5" points="223.48 53.71 228.51 30.47 197.85 48.16 223.48 53.71"/><polygon class="cls-5" points="223.48 53.71 243.66 58.08 186.46 100.34 223.48 53.71"/><polygon class="cls-5" points="151.87 38.2 172.06 42.57 186.46 100.34 151.87 38.2"/><polygon class="cls-3" points="151.87 38.2 177.09 19.33 172.06 42.57 151.87 38.2"/><polygon class="cls-3" points="243.66 58.08 228.51 30.47 223.48 53.71 243.66 58.08"/></g><g class="cls-15"><polygon class="cls-3" points="176.24 39.37 163.56 37.52 150.87 35.66 139.24 45.67 158.11 74.73 184.51 52.29 176.24 39.37"/><polygon class="cls-8" points="150.87 35.66 161.92 48.99 176.24 39.37 150.87 35.66"/><polygon class="cls-9" points="149.2 47.13 158.11 74.73 174.56 50.84 149.2 47.13"/><polygon class="cls-10" points="149.2 47.13 150.87 35.66 161.92 48.99 149.2 47.13"/><polygon class="cls-10" points="174.56 50.84 176.24 39.37 161.92 48.99 174.56 50.84"/><polygon class="cls-10" points="174.56 50.84 184.51 52.29 158.11 74.73 174.56 50.84"/><polygon class="cls-10" points="139.24 45.67 149.2 47.13 158.11 74.73 139.24 45.67"/><polygon class="cls-9" points="139.24 45.67 150.87 35.66 149.2 47.13 139.24 45.67"/><polygon class="cls-9" points="184.51 52.29 176.24 39.37 174.56 50.84 184.51 52.29"/></g><g class="cls-16"><polygon class="cls-3" points="119.78 52.46 100.74 54.72 81.69 56.97 68.77 75.96 107.35 110.61 136.77 67.92 119.78 52.46"/><polygon class="cls-4" points="81.69 56.97 102.84 71.93 119.78 52.46 81.69 56.97"/><polygon class="cls-3" points="83.72 74.19 107.35 110.61 121.82 69.68 83.72 74.19"/><polygon class="cls-5" points="83.72 74.19 81.69 56.97 102.84 71.93 83.72 74.19"/><polygon class="cls-5" points="121.82 69.68 119.78 52.46 102.84 71.93 121.82 69.68"/><polygon class="cls-5" points="121.82 69.68 136.77 67.92 107.35 110.61 121.82 69.68"/><polygon class="cls-5" points="68.77 75.96 83.72 74.19 107.35 110.61 68.77 75.96"/><polygon class="cls-3" points="68.77 75.96 81.69 56.97 83.72 74.19 68.77 75.96"/><polygon class="cls-3" points="136.77 67.92 119.78 52.46 121.82 69.68 136.77 67.92"/></g><g class="cls-17"><polygon class="cls-3" points="275.01 68.78 252.85 58.9 230.69 49.02 204.37 61.29 223.86 123.92 283.47 96.56 275.01 68.78"/><polygon class="cls-4" points="230.69 49.02 243.99 78.96 275.01 68.78 230.69 49.02"/><polygon class="cls-3" points="221.76 69.05 223.86 123.92 266.08 88.81 221.76 69.05"/><polygon class="cls-5" points="221.76 69.05 230.69 49.02 243.99 78.96 221.76 69.05"/><polygon class="cls-5" points="266.08 88.81 275.01 68.78 243.99 78.96 266.08 88.81"/><polygon class="cls-5" points="266.08 88.81 283.47 96.56 223.86 123.92 266.08 88.81"/><polygon class="cls-5" points="204.37 61.29 221.76 69.05 223.86 123.92 204.37 61.29"/><polygon class="cls-3" points="204.37 61.29 230.69 49.02 221.76 69.05 204.37 61.29"/><polygon class="cls-3" points="283.47 96.56 275.01 68.78 266.08 88.81 283.47 96.56"/></g><g class="cls-18"><polygon class="cls-3" points="228.17 54.7 202.45 49.13 176.74 43.57 151.52 62.44 186.11 124.58 243.31 82.32 228.17 54.7"/><polygon class="cls-4" points="176.74 43.57 197.5 72.4 228.17 54.7 176.74 43.57"/><polygon class="cls-3" points="171.71 66.81 186.11 124.58 223.13 77.95 171.71 66.81"/><polygon class="cls-5" points="171.71 66.81 176.74 43.57 197.5 72.4 171.71 66.81"/><polygon class="cls-5" points="223.13 77.95 228.17 54.7 197.5 72.4 223.13 77.95"/><polygon class="cls-5" points="223.13 77.95 243.31 82.32 186.11 124.58 223.13 77.95"/><polygon class="cls-5" points="151.52 62.44 171.71 66.81 186.11 124.58 151.52 62.44"/><polygon class="cls-3" points="151.52 62.44 176.74 43.57 171.71 66.81 151.52 62.44"/><polygon class="cls-3" points="243.31 82.32 228.17 54.7 223.13 77.95 243.31 82.32"/></g><g class="cls-19"><polygon class="cls-3" points="191.21 65.44 172.16 67.69 153.11 69.94 140.2 88.93 178.77 123.58 208.2 80.89 191.21 65.44"/><polygon class="cls-4" points="153.11 69.94 174.26 84.9 191.21 65.44 153.11 69.94"/><polygon class="cls-3" points="155.15 87.16 178.77 123.58 193.25 82.66 155.15 87.16"/><polygon class="cls-5" points="155.15 87.16 153.11 69.94 174.26 84.9 155.15 87.16"/><polygon class="cls-5" points="193.25 82.66 191.21 65.44 174.26 84.9 193.25 82.66"/><polygon class="cls-5" points="193.25 82.66 208.2 80.89 178.77 123.58 193.25 82.66"/><polygon class="cls-5" points="140.2 88.93 155.15 87.16 178.77 123.58 140.2 88.93"/><polygon class="cls-3" points="140.2 88.93 153.11 69.94 155.15 87.16 140.2 88.93"/><polygon class="cls-3" points="208.2 80.89 191.21 65.44 193.25 82.66 208.2 80.89"/></g><g class="cls-20"><polygon class="cls-3" points="93.22 65.14 77.37 71.97 61.53 78.8 55.27 98.48 97.42 118.45 111.83 74.1 93.22 65.14"/><polygon class="cls-8" points="61.53 78.8 83.6 86.27 93.22 65.14 61.53 78.8"/><polygon class="cls-9" points="67.7 93.12 97.42 118.45 99.39 79.46 67.7 93.12"/><polygon class="cls-10" points="67.7 93.12 61.53 78.8 83.6 86.27 67.7 93.12"/><polygon class="cls-10" points="99.39 79.46 93.22 65.14 83.6 86.27 99.39 79.46"/><polygon class="cls-10" points="99.39 79.46 111.83 74.1 97.42 118.45 99.39 79.46"/><polygon class="cls-10" points="55.27 98.48 67.7 93.12 97.42 118.45 55.27 98.48"/><polygon class="cls-9" points="55.27 98.48 61.53 78.8 67.7 93.12 55.27 98.48"/><polygon class="cls-9" points="111.83 74.1 93.22 65.14 99.39 79.46 111.83 74.1"/></g><g class="cls-21"><polygon class="cls-3" points="134.37 57.86 119.16 69.54 103.94 81.22 102.56 104.15 153.44 114.17 156.87 62.44 134.37 57.86"/><polygon class="cls-4" points="103.94 81.22 129.77 83.25 134.37 57.86 103.94 81.22"/><polygon class="cls-3" points="114.5 94.98 153.44 114.17 144.93 71.61 114.5 94.98"/><polygon class="cls-5" points="114.5 94.98 103.94 81.22 129.77 83.25 114.5 94.98"/><polygon class="cls-5" points="144.93 71.61 134.37 57.86 129.77 83.25 144.93 71.61"/><polygon class="cls-5" points="144.93 71.61 156.87 62.44 153.44 114.17 144.93 71.61"/><polygon class="cls-5" points="102.56 104.15 114.5 94.98 153.44 114.17 102.56 104.15"/><polygon class="cls-3" points="102.56 104.15 103.94 81.22 114.5 94.98 102.56 104.15"/><polygon class="cls-3" points="156.87 62.44 134.37 57.86 144.93 71.61 156.87 62.44"/></g><g class="cls-22"><polygon class="cls-3" points="266 75.03 256.04 70 246.09 64.97 233.73 70.01 241.27 99.2 269.25 87.98 266 75.03"/><polygon class="cls-8" points="246.09 64.97 251.53 79.01 266 75.03 246.09 64.97"/><polygon class="cls-9" points="241.54 73.96 241.27 99.2 261.44 84.03 241.54 73.96"/><polygon class="cls-10" points="241.54 73.96 246.09 64.97 251.53 79.01 241.54 73.96"/><polygon class="cls-10" points="261.44 84.03 266 75.03 251.53 79.01 261.44 84.03"/><polygon class="cls-10" points="261.44 84.03 269.25 87.98 241.27 99.2 261.44 84.03"/><polygon class="cls-10" points="233.73 70.01 241.54 73.96 241.27 99.2 233.73 70.01"/><polygon class="cls-9" points="233.73 70.01 246.09 64.97 241.54 73.96 233.73 70.01"/><polygon class="cls-9" points="269.25 87.98 266 75.03 261.44 84.03 269.25 87.98"/></g><g class="cls-23"><polygon class="cls-3" points="251.88 83.41 235.11 74.1 218.34 64.79 196.76 72.64 207.8 123.3 256.63 105.87 251.88 83.41"/><polygon class="cls-4" points="218.34 64.79 226.75 89.29 251.88 83.41 218.34 64.79"/><polygon class="cls-3" points="209.92 79.95 207.8 123.3 243.47 98.57 209.92 79.95"/><polygon class="cls-5" points="209.92 79.95 218.34 64.79 226.75 89.29 209.92 79.95"/><polygon class="cls-5" points="243.47 98.57 251.88 83.41 226.75 89.29 243.47 98.57"/><polygon class="cls-5" points="243.47 98.57 256.63 105.87 207.8 123.3 243.47 98.57"/><polygon class="cls-5" points="196.76 72.64 209.92 79.95 207.8 123.3 196.76 72.64"/><polygon class="cls-3" points="196.76 72.64 218.34 64.79 209.92 79.95 196.76 72.64"/><polygon class="cls-3" points="256.63 105.87 251.88 83.41 243.47 98.57 256.63 105.87"/></g><path class="cls-24" d="M215.83,205.78H88.73A22.9,22.9,0,0,1,69,194.59L24.1,117.83c-8.35-14.29,2.51-31.78,19.7-31.78H252.37c16.38,0,27.29,15.92,20.54,30.11l-36.54,76.92A22.71,22.71,0,0,1,215.83,205.78Z"/><g class="cls-25"><polygon class="cls-3" points="57.98 51.73 41.13 64.67 24.28 77.62 22.75 103 79.1 114.11 82.91 56.81 57.98 51.73"/><polygon class="cls-4" points="24.28 77.62 52.89 79.86 57.98 51.73 24.28 77.62"/><polygon class="cls-3" points="35.98 92.85 79.1 114.11 69.68 66.97 35.98 92.85"/><polygon class="cls-5" points="35.98 92.85 24.28 77.62 52.89 79.86 35.98 92.85"/><polygon class="cls-5" points="69.68 66.97 57.98 51.73 52.89 79.86 69.68 66.97"/><polygon class="cls-5" points="69.68 66.97 82.91 56.81 79.1 114.11 69.68 66.97"/><polygon class="cls-5" points="22.75 103 35.98 92.85 79.1 114.11 22.75 103"/><polygon class="cls-3" points="22.75 103 24.28 77.62 35.98 92.85 22.75 103"/><polygon class="cls-3" points="82.91 56.81 57.98 51.73 69.68 66.97 82.91 56.81"/></g><g class="cls-26"><polygon class="cls-3" points="212.13 83.73 202.18 78.69 192.23 73.66 179.86 78.7 187.41 107.89 215.39 96.67 212.13 83.73"/><polygon class="cls-8" points="192.23 73.66 197.66 87.7 212.13 83.73 192.23 73.66"/><polygon class="cls-9" points="187.68 82.65 187.41 107.89 207.58 92.72 187.68 82.65"/><polygon class="cls-10" points="187.68 82.65 192.23 73.66 197.66 87.7 187.68 82.65"/><polygon class="cls-10" points="207.58 92.72 212.13 83.73 197.66 87.7 207.58 92.72"/><polygon class="cls-10" points="207.58 92.72 215.39 96.67 187.41 107.89 207.58 92.72"/><polygon class="cls-10" points="179.86 78.7 187.68 82.65 187.41 107.89 179.86 78.7"/><polygon class="cls-9" points="179.86 78.7 192.23 73.66 187.68 82.65 179.86 78.7"/><polygon class="cls-9" points="215.39 96.67 212.13 83.73 207.58 92.72 215.39 96.67"/></g><rect class="cls-27" y="86.05" width="298.14" height="28.95" rx="14.36" ry="14.36"/></svg>