<svg xmlns="http://www.w3.org/2000/svg" viewBox="0 0 1280 1257.05"><defs><style>.cls-1,.cls-32,.cls-5,.cls-6{fill:#142442;}.cls-2,.cls-50{fill:#f2fafe;}.cls-3{fill:#231f20;opacity:0.05;}.cls-4{fill:#296773;}.cls-32,.cls-5,.cls-50{font-size:30.55px;}.cls-32,.cls-5,.cls-50,.cls-55,.cls-67{font-family:BrandonGrotesque-Bold, Brandon Grotesque;font-weight:700;}.cls-34,.cls-5,.cls-50{letter-spacing:0.12em;}.cls-6{font-size:19.09px;font-family:BrandonGrotesque-Medium, Brandon Grotesque;}.cls-7{letter-spacing:-0.01em;}.cls-8{letter-spacing:0em;}.cls-9{letter-spacing:0em;}.cls-10{fill:#f6c960;}.cls-11{letter-spacing:0.07em;}.cls-12{letter-spacing:0.07em;}.cls-13{letter-spacing:0.12em;}.cls-14{letter-spacing:-0.02em;}.cls-15{letter-spacing:-0.01em;}.cls-16{letter-spacing:-0.03em;}.cls-17{letter-spacing:-0.03em;}.cls-18{letter-spacing:-0.1em;}.cls-19{letter-spacing:-0.03em;}.cls-20{letter-spacing:-0.03em;}.cls-21{letter-spacing:-0.01em;}.cls-22{letter-spacing:-0.05em;}.cls-23{letter-spacing:-0.01em;}.cls-24{letter-spacing:-0.02em;}.cls-25{letter-spacing:-0.02em;}.cls-26{letter-spacing:-0.02em;}.cls-27{letter-spacing:-0.01em;}.cls-28{letter-spacing:-0.01em;}.cls-29{letter-spacing:-0.02em;}.cls-30{fill:#8a1838;}.cls-31{fill:#3b9bad;}.cls-32{letter-spacing:0.12em;}.cls-33{letter-spacing:0.12em;}.cls-35{letter-spacing:-0.02em;}.cls-36{letter-spacing:0.15em;}.cls-37{letter-spacing:-0.01em;}.cls-38{letter-spacing:0.01em;}.cls-39{letter-spacing:-0.02em;}.cls-40{letter-spacing:-0.01em;}.cls-41{letter-spacing:-0.08em;}.cls-42{fill:#57c8e0;}.cls-43{fill:#ee3065;}.cls-44{letter-spacing:0.12em;}.cls-45{letter-spacing:-0.01em;}.cls-46{letter-spacing:-0.02em;}.cls-47{letter-spacing:-0.01em;}.cls-48{letter-spacing:0em;}.cls-49{fill:#808dc6;}.cls-51{letter-spacing:0.08em;}.cls-52{letter-spacing:-0.15em;}.cls-53{letter-spacing:0.89em;}.cls-54{letter-spacing:1.13em;}.cls-55{font-size:42.58px;fill:#fff;}.cls-56{letter-spacing:-0.02em;}.cls-57{letter-spacing:0em;}.cls-58{letter-spacing:0em;}.cls-59,.cls-67{font-size:36.76px;fill:#b8bde0;}.cls-60{letter-spacing:-0.02em;}.cls-61{letter-spacing:0em;}.cls-62{letter-spacing:-0.02em;}.cls-63{letter-spacing:-0.01em;}.cls-64{letter-spacing:0em;}.cls-65{letter-spacing:0em;}.cls-66{letter-spacing:0em;}.cls-68{letter-spacing:-0.01em;}.cls-69{letter-spacing:-0.02em;}.cls-70{letter-spacing:-0.02em;}.cls-71{letter-spacing:0em;}.cls-72{letter-spacing:-0.01em;}</style></defs><title>project_artboard_svg</title><g id="Layer_2" data-name="Layer 2"><rect class="cls-1" width="1281.99" height="1257.05"/></g><g id="Layer_1" data-name="Layer 1"><rect class="cls-2" x="223.91" y="212.5" width="818.16" height="819.03"/><rect class="cls-3" x="271.48" y="240.82" width="350.73" height="387.17"/><rect class="cls-3" x="645.47" y="240.42" width="349.97" height="111.87"/><rect class="cls-3" x="645.47" y="377.29" width="349.97" height="181.14"/><rect class="cls-3" x="269.49" y="856.25" width="349.97" height="147.79"/><rect class="cls-3" x="269.49" y="652.99" width="349.97" height="178.25"/><rect class="cls-3" x="645.47" y="573.92" width="349.97" height="281.75"/><rect class="cls-4" x="663.28" y="321.58" width="13.25" height="13.25"/><rect class="cls-4" x="836.38" y="321.58" width="13.25" height="13.25"/><rect class="cls-4" x="664.16" y="290.5" width="312.59" height="9.55"/><text class="cls-5" transform="translate(678.74 282.42)">ANDROID</text><text class="cls-6" transform="translate(686.08 334.95)">Lineag<tspan class="cls-7" x="49" y="0">e</tspan><tspan x="57.42" y="0">OS</tspan></text><text class="cls-6" transform="translate(859.18 334.95)"><tspan class="cls-8">A</tspan><tspan x="12.58" y="0">nd</tspan><tspan class="cls-9" x="31.64" y="0">r</tspan><tspan x="38" y="0">oid OS</tspan></text><rect class="cls-10" x="289.82" y="289.76" width="314.06" height="9.55"/><text class="cls-5" transform="translate(304.56 281.68)">J<tspan class="cls-11" x="16.44" y="0">A</tspan><tspan class="cls-12" x="38.86" y="0">V</tspan><tspan class="cls-13" x="61.26" y="0">ASCRIPT</tspan></text><text class="cls-6" transform="translate(312.93 335.06)"><tspan class="cls-14">N</tspan><tspan x="14.4" y="0">ode</tspan><tspan class="cls-15" x="0" y="34.37">E</tspan><tspan x="11.04" y="34.37">lect</tspan><tspan class="cls-8" x="38.84" y="34.37">r</tspan><tspan x="45.2" y="34.37">on</tspan><tspan class="cls-7" x="0" y="68.74">E</tspan><tspan x="11.06" y="68.74">xp</tspan><tspan class="cls-9" x="28.62" y="68.74">r</tspan><tspan x="34.98" y="68.74">ess.js</tspan><tspan class="cls-8" x="0" y="103.11">A</tspan><tspan x="12.58" y="103.11">ngula</tspan><tspan class="cls-16" x="52.85" y="103.11">r</tspan><tspan x="58.77" y="103.11">.js</tspan><tspan class="cls-17" x="0" y="137.48">F</tspan><tspan x="10.16" y="137.48">ritz</tspan><tspan class="cls-18" x="0" y="171.85">Y</tspan><tspan x="9.13" y="171.85">a</tspan><tspan class="cls-7" x="17.2" y="171.85">r</tspan><tspan x="23.43" y="171.85">gs</tspan><tspan class="cls-19" x="0" y="206.22">K</tspan><tspan x="11.57" y="206.22">oa.js</tspan><tspan class="cls-14" x="0" y="240.6">N</tspan><tspan x="14.4" y="240.6">oble</tspan><tspan class="cls-20" x="0" y="274.97">P</tspan><tspan x="10.79" y="274.97">arsle</tspan><tspan class="cls-21" x="45.02" y="274.97">y</tspan><tspan x="53.58" y="274.97">.js</tspan></text><text class="cls-6" transform="translate(486.03 335.06)"><tspan class="cls-15">M</tspan><tspan x="16.38" y="0">eteor</tspan><tspan class="cls-22" x="0" y="34.37">V</tspan><tspan x="11.72" y="34.37">ue.js</tspan><tspan class="cls-23" x="0" y="68.74">G</tspan><tspan x="13.56" y="68.74">ulp</tspan><tspan class="cls-23" x="0" y="103.11">G</tspan><tspan x="13.56" y="103.11">rap</tspan><tspan class="cls-24" x="37.41" y="103.11">h</tspan><tspan x="46.76" y="103.11">QL </tspan><tspan class="cls-9" x="76" y="103.11">A</tspan><tspan x="88.58" y="103.11">pollo</tspan><tspan class="cls-25" x="0" y="137.48">P</tspan><tspan x="10.88" y="137.48">rari</tspan><tspan class="cls-14" x="36.09" y="137.48">e</tspan><tspan x="44.3" y="137.48">Learn</tspan><tspan class="cls-26" x="0" y="171.85">I</tspan><tspan x="5.31" y="171.85">stanbul</tspan><tspan x="0" y="206.22">Let</tspan><tspan class="cls-27" x="24.75" y="206.22">s</tspan><tspan class="cls-28" x="31.31" y="206.22">G</tspan><tspan x="44.95" y="206.22">o</tspan><tspan class="cls-14" x="0" y="240.6">N</tspan><tspan x="14.4" y="240.6">ode </tspan><tspan class="cls-29" x="45.62" y="240.6">N</tspan><tspan x="60.01" y="240.6">anomsg</tspan></text><rect class="cls-30" x="289.82" y="765.28" width="13.25" height="13.25"/><rect class="cls-30" x="289.82" y="799.49" width="13.25" height="13.25"/><rect class="cls-30" x="289.82" y="730.64" width="13.25" height="13.25"/><rect class="cls-30" x="462.92" y="765.28" width="13.25" height="13.25"/><rect class="cls-30" x="462.92" y="730.64" width="13.25" height="13.25"/><rect class="cls-31" x="663.28" y="458.24" width="13.25" height="13.25"/><rect class="cls-31" x="663.28" y="492.45" width="13.25" height="13.25"/><rect class="cls-31" x="664.28" y="526.67" width="13.25" height="13.25"/><rect class="cls-31" x="836.38" y="458.24" width="13.25" height="13.25"/><rect class="cls-31" x="836.38" y="492.45" width="13.25" height="13.25"/><rect class="cls-31" x="836.38" y="526.88" width="13.25" height="13.25"/><rect class="cls-30" x="289.82" y="702" width="314.06" height="9.55"/><text class="cls-32" transform="translate(304.56 693.92)">RU<tspan class="cls-33" x="49.65" y="0">B</tspan><tspan class="cls-34" x="72.07" y="0">Y</tspan></text><text class="cls-6" transform="translate(312.62 744.01)"><tspan class="cls-21">B</tspan><tspan x="11.59" y="0">undler</tspan><tspan class="cls-35" x="0" y="34.37">R</tspan><tspan x="12.28" y="34.37">ails</tspan><tspan class="cls-19" x="0" y="68.74">R</tspan><tspan x="12.13" y="68.74">uby </tspan><tspan class="cls-28" x="43.94" y="68.74">G</tspan><tspan x="57.57" y="68.74">ems</tspan></text><text class="cls-6" transform="translate(485.72 744.01)">J<tspan class="cls-19" x="7.87" y="0">R</tspan><tspan x="19.99" y="0">uby</tspan><tspan class="cls-19" x="0" y="34.37">R</tspan><tspan x="12.13" y="34.37">uby</tspan></text><rect class="cls-31" x="662.8" y="426.06" width="312.59" height="9.55"/><text class="cls-5" transform="translate(677.54 417.98)">P<tspan class="cls-36" x="21.75" y="0">Y</tspan><tspan x="44.24" y="0">THON</tspan></text><text class="cls-6" transform="translate(686.08 471.6)"><tspan class="cls-20">P</tspan><tspan x="10.79" y="0">andas</tspan><tspan class="cls-37" x="0" y="34.37">C</tspan><tspan x="13.12" y="34.37">her</tspan><tspan class="cls-38" x="37.85" y="34.37">r</tspan><tspan class="cls-39" x="44.51" y="34.37">y</tspan><tspan x="52.99" y="34.37">Py</tspan><tspan class="cls-40" x="0" y="68.74">J</tspan><tspan x="7.77" y="68.74">upyter</tspan></text><text class="cls-6" transform="translate(859.18 471.6)">Setup tools<tspan class="cls-41" x="0" y="34.37">V</tspan><tspan x="11.13" y="34.37">elociraptor</tspan><tspan class="cls-7" x="0" y="68.74">S</tspan><tspan x="10.06" y="68.74">pack</tspan></text><rect class="cls-42" x="838.89" y="686.21" width="13.25" height="13.25"/><rect class="cls-42" x="838.89" y="720.42" width="13.25" height="13.25"/><rect class="cls-42" x="838.89" y="754.64" width="13.25" height="13.25"/><rect class="cls-42" x="838.89" y="651.57" width="13.25" height="13.25"/><rect class="cls-42" x="838.89" y="789.28" width="13.25" height="13.25"/><rect class="cls-43" x="287.3" y="972.28" width="13.25" height="13.25"/><rect class="cls-43" x="287.3" y="937.65" width="13.25" height="13.25"/><rect class="cls-43" x="460.4" y="937.84" width="13.25" height="13.25"/><rect class="cls-42" x="665.79" y="686.21" width="13.25" height="13.25"/><rect class="cls-42" x="665.79" y="720.42" width="13.25" height="13.25"/><rect class="cls-42" x="665.79" y="754.64" width="13.25" height="13.25"/><rect class="cls-42" x="665.79" y="651.57" width="13.25" height="13.25"/><rect class="cls-42" x="665.79" y="823.91" width="13.25" height="13.25"/><rect class="cls-42" x="665.79" y="789.28" width="13.25" height="13.25"/><rect class="cls-10" x="289.82" y="356.41" width="13.25" height="13.25"/><rect class="cls-10" x="289.82" y="390.63" width="13.25" height="13.25"/><rect class="cls-10" x="289.82" y="424.85" width="13.25" height="13.25"/><rect class="cls-10" x="289.82" y="321.78" width="13.25" height="13.25"/><rect class="cls-10" x="289.82" y="494.12" width="13.25" height="13.25"/><rect class="cls-10" x="289.82" y="528.34" width="13.25" height="13.25"/><rect class="cls-10" x="289.82" y="562.55" width="13.25" height="13.25"/><rect class="cls-10" x="289.82" y="459.48" width="13.25" height="13.25"/><rect class="cls-10" x="289.82" y="596.65" width="13.25" height="13.25"/><rect class="cls-10" x="462.92" y="356.41" width="13.25" height="13.25"/><rect class="cls-10" x="462.92" y="390.63" width="13.25" height="13.25"/><rect class="cls-10" x="462.92" y="424.85" width="13.25" height="13.25"/><rect class="cls-10" x="462.92" y="321.78" width="13.25" height="13.25"/><rect class="cls-10" x="462.92" y="494.12" width="13.25" height="13.25"/><rect class="cls-10" x="462.92" y="528.34" width="13.25" height="13.25"/><rect class="cls-10" x="462.92" y="562.55" width="13.25" height="13.25"/><rect class="cls-10" x="462.92" y="459.48" width="13.25" height="13.25"/><rect class="cls-42" x="665.79" y="622" width="314.06" height="9.55"/><text class="cls-5" transform="translate(680.53 613.92)">LIN<tspan class="cls-44" x="59.61" y="0">U</tspan><tspan x="85.15" y="0">X</tspan></text><text class="cls-6" transform="translate(688.59 664.94)"><tspan class="cls-45">D</tspan><tspan x="13.94" y="0">ebian</tspan><tspan class="cls-8" x="0" y="34.37">A</tspan><tspan x="12.58" y="34.37">pache TS</tspan><tspan class="cls-19" x="0" y="68.74">R</tspan><tspan x="12.13" y="68.74">ust</tspan><tspan x="0" y="103.11">GRPC</tspan><tspan class="cls-23" x="0" y="137.48">G</tspan><tspan x="13.56" y="137.48">uava</tspan><tspan class="cls-46" x="0" y="171.85">O</tspan><tspan x="15.18" y="171.85">ak</tspan></text><text class="cls-6" transform="translate(861.7 664.94)"><tspan class="cls-8">A</tspan><tspan x="12.58" y="0">pache A</tspan><tspan class="cls-27" x="73.46" y="0">I</tspan><tspan class="cls-38" x="78.88" y="0">r</tspan><tspan x="85.54" y="0">vata</tspan><tspan class="cls-27" x="0" y="34.37">N</tspan><tspan x="14.53" y="34.37">i</tspan><tspan class="cls-7" x="18.83" y="34.37">x</tspan><tspan x="26.85" y="34.37">OS</tspan><tspan class="cls-14" x="0" y="68.74">H</tspan><tspan x="14.26" y="68.74">as</tspan><tspan class="cls-47" x="29.18" y="68.74">k</tspan><tspan x="37.96" y="68.74">ell</tspan><tspan class="cls-28" x="0" y="103.11">G</tspan><tspan x="13.63" y="103.11">o</tspan><tspan class="cls-28" x="0" y="137.48">G</tspan><tspan x="13.63" y="137.48">errit</tspan></text><rect class="cls-43" x="287.01" y="905.58" width="312.59" height="9.55"/><text class="cls-32" transform="translate(301.72 897.5)">EMBEDDED</text><text class="cls-6" transform="translate(310.1 950.65)"><tspan class="cls-14">P</tspan><tspan x="10.94" y="0">uc</tspan><tspan class="cls-48" x="28.64" y="0">k</tspan><tspan x="37.46" y="0">t</tspan><tspan class="cls-9" x="44.07" y="0">r</tspan><tspan x="50.43" y="0">on</tspan><tspan class="cls-8" x="0" y="34.37">Ar</tspan><tspan x="18.94" y="34.37">duino-based</tspan></text><text class="cls-6" transform="translate(483.2 950.64)"><tspan class="cls-14">N</tspan><tspan x="14.4" y="0">oble</tspan></text><rect class="cls-49" x="113.32" y="214.71" width="43.76" height="682.54"/><rect class="cls-49" x="645.47" y="880.67" width="349.97" height="123.37"/><text class="cls-50" transform="translate(679.78 949.47)">CRE<tspan class="cls-51" x="70.21" y="0">A</tspan><tspan x="93" y="0">TE</tspan><tspan class="cls-52" x="133.6" y="0">	</tspan><tspan class="cls-53" x="135.71" y="0" xml:space="preserve">			</tspan><tspan class="cls-54" x="237.49" y="0">	</tspan><tspan x="278.83" y="0">+</tspan></text></g><g id="Layer_3" data-name="Layer 3"><text class="cls-55" transform="translate(505.66 91.45)">PR<tspan class="cls-56" x="53.56" y="0">O</tspan><tspan x="86.94" y="0">J</tspan><tspan class="cls-57" x="104.74" y="0">E</tspan><tspan class="cls-58" x="129.65" y="0">CTS</tspan><tspan class="cls-59"><tspan class="cls-60" x="-303.51" y="61.26">H</tspan><tspan class="cls-61" x="-276.12" y="61.26">ac</tspan><tspan class="cls-62" x="-244.77" y="61.26">k</tspan><tspan class="cls-63" x="-227.6" y="61.26">I</tspan><tspan x="-216.58" y="61.26">llinois 2017 has open sou</tspan><tspan class="cls-64" x="142.32" y="61.26">r</tspan><tspan class="cls-65" x="154.7" y="61.26">ce co</tspan><tspan class="cls-66" x="227.7" y="61.26">r</tspan><tspan x="240.13" y="61.26">e developers f</tspan><tspan class="cls-66" x="438.58" y="61.26">r</tspan><tspan x="451" y="61.26">om:</tspan></tspan></text><text class="cls-67" transform="translate(250.66 1137.98)"><tspan class="cls-68">Q</tspan><tspan class="cls-65" x="28.93" y="0">uestion</tspan><tspan class="cls-69" x="134.97" y="0">s</tspan><tspan class="cls-61" x="147.73" y="0">? </tspan><tspan class="cls-70" x="172.35" y="0">E</tspan><tspan x="193.3" y="0">mail us at co</tspan><tspan class="cls-71" x="372.86" y="0">n</tspan><tspan x="391.83" y="0">tact@hackillinois.o</tspan><tspan class="cls-68" x="673.09" y="0">r</tspan><tspan class="cls-72" x="685.11" y="0">g</tspan><tspan x="701.8" y="0">!</tspan></text></g></svg>