<svg id="Layer_1" data-name="Layer 1" xmlns="http://www.w3.org/2000/svg" viewBox="0 0 1175.62 193.57"><defs><style>.cls-1{fill:#1d305e;}.cls-2{fill:#4e5d95;}</style></defs><title>bridge</title><path class="cls-1" d="M1202.95,318.23V298.9H27.33V492.47H1202.95V481.1h-.33V318.23Zm-96.91,53,76.13,36-76.13,36Zm-96.58-45.64L1086.62,362l-77.15,36.46Zm-96.58,45.63,77.17,36.47L912.89,444.1Zm0-52.94H984l-71.08,33.59Zm-96.58,7.3,76.11,36-76.11,36Zm-96.58,46.64,75.05,35.47L719.73,443.1Zm0-53.94h71l-71,33.56Zm-96.58,8.3,75,35.45-75,35.45Zm-23.51-8.3-73.2,34.59V318.23h73.2Zm-73.2,53,76.13,36-76.13,36Zm-96.58-45.64L507,362l-77.15,36.46Zm-96.58,45.63,77.17,36.47L333.29,444.1Zm0-52.94h71.08l-71.08,33.59Zm-96.58,7.3,76.11,36-76.11,36Zm-96.58,46.64,75.05,35.47L140.13,443.1Zm0-53.94h71.11l-71.11,33.61Zm-96.58,8.3L118.62,362,43.55,397.47Zm0,154.58V416.84l76.08,36L59.72,481.1Zm80.36,0H82.66l41.25-19.5Zm0-37.12L46,407.15l77.91-36.82Zm-75-125.75h75v35.43Zm91.2,162.87V462.48l39.4,18.62Zm80.36,0h-18l-59.91-28.31L220.49,416Zm0-81.8L141.55,362l78.94-37.3Zm16.22,81.8V417.8l76.11,36L255,481.1Zm80.36,0H277.93l39.14-18.5Zm0-36.16-79-37.31,79-37.31ZM244.2,318.23h72.87v34.44ZM333.29,481.1V463.44l37.35,17.65Zm80.36,0H393.58l-57.82-27.33L413.65,417Zm0-82.8-77.89-36.81,77.89-36.81Zm16.22,82.8V416.8l76.14,36L446.1,481.1Zm80.36,0H469l41.19-19.46Zm0-37.16-76.84-36.31,76.84-36.31Zm-72.9-125.72h72.9v34.45ZM526.45,481.1V462.45l39.47,18.65Zm80.36,0h-18l-59.91-28.31L606.81,416Zm0-82.78L530,362l76.85-36.32Zm32.51,82.78H623.15V416.88l76,35.93Zm64.19,0H662.26l41.25-19.5Zm0-37.08-78-36.86,78-36.86ZM630.82,318.23h72.69v34.35ZM719.73,481.1V462.52L759,481.1Zm80.36,0H782l-59.86-28.29,78-36.85Zm0-82.88-77.84-36.78,77.84-36.78Zm16.22,82.88V417.8l76.11,36L834.59,481.1Zm80.36,0H857.53l39.14-18.5Zm0-37.24-77.81-36.77,77.81-36.77ZM823.8,318.23h72.87v34.44ZM912.89,481.1V463.44l37.35,17.65Zm80.36,0H975.47l-59-27.87L993.25,417Zm0-82.8-77.89-36.81,77.89-36.81Zm16.22,82.8V416.8l76.14,36L1025.7,481.1Zm80.36,0h-41.19l41.19-19.46Zm0-37.16L1013,407.63l76.84-36.31Zm-72.9-125.72h72.9v34.45ZM1106,481.1V462.45l39.47,18.65Zm80.36,0h-18l-59.91-28.31L1186.4,416Zm0-82.78L1109.55,362l76.85-36.32ZM1106,352.82V318.23h73.2Z" transform="translate(-27.33 -298.9)"/><rect class="cls-2" x="14.03" y="15.85" width="18.92" height="3.52" rx="0.5" ry="0.5"/><rect class="cls-2" x="46.13" y="15.85" width="18.92" height="3.52" rx="0.5" ry="0.5"/><rect class="cls-2" x="78.24" y="15.85" width="18.92" height="3.52" rx="0.5" ry="0.5"/><rect class="cls-2" x="110.34" y="15.85" width="18.92" height="3.52" rx="0.5" ry="0.5"/><rect class="cls-2" x="142.45" y="15.85" width="18.92" height="3.52" rx="0.5" ry="0.5"/><rect class="cls-2" x="174.55" y="15.85" width="18.92" height="3.52" rx="0.5" ry="0.5"/><rect class="cls-2" x="206.66" y="15.85" width="18.92" height="3.52" rx="0.5" ry="0.5"/><rect class="cls-2" x="238.76" y="15.85" width="18.92" height="3.52" rx="0.5" ry="0.5"/><rect class="cls-2" x="270.87" y="15.85" width="18.92" height="3.52" rx="0.5" ry="0.5"/><rect class="cls-2" x="302.97" y="15.85" width="18.92" height="3.52" rx="0.5" ry="0.5"/><rect class="cls-2" x="335.08" y="15.85" width="18.92" height="3.52" rx="0.5" ry="0.5"/><rect class="cls-2" x="367.18" y="15.85" width="18.92" height="3.52" rx="0.5" ry="0.5"/><rect class="cls-2" x="399.29" y="15.85" width="18.92" height="3.52" rx="0.5" ry="0.5"/><rect class="cls-2" x="431.39" y="15.85" width="18.92" height="3.52" rx="0.5" ry="0.5"/><rect class="cls-2" x="463.5" y="15.85" width="18.92" height="3.52" rx="0.5" ry="0.5"/><rect class="cls-2" x="495.6" y="15.85" width="18.92" height="3.52" rx="0.5" ry="0.5"/><rect class="cls-2" x="527.71" y="15.85" width="18.92" height="3.52" rx="0.5" ry="0.5"/><rect class="cls-2" x="559.81" y="15.85" width="18.92" height="3.52" rx="0.5" ry="0.5"/><rect class="cls-2" x="591.92" y="15.85" width="18.92" height="3.52" rx="0.5" ry="0.5"/><rect class="cls-2" x="561.52" y="15.85" width="18.92" height="3.52" rx="0.5" ry="0.5"/><rect class="cls-2" x="593.63" y="15.85" width="18.92" height="3.52" rx="0.5" ry="0.5"/><rect class="cls-2" x="625.73" y="15.85" width="18.92" height="3.52" rx="0.5" ry="0.5"/><rect class="cls-2" x="657.84" y="15.85" width="18.92" height="3.52" rx="0.5" ry="0.5"/><rect class="cls-2" x="689.94" y="15.85" width="18.92" height="3.52" rx="0.5" ry="0.5"/><rect class="cls-2" x="722.05" y="15.85" width="18.92" height="3.52" rx="0.5" ry="0.5"/><rect class="cls-2" x="754.15" y="15.85" width="18.92" height="3.52" rx="0.5" ry="0.5"/><rect class="cls-2" x="786.26" y="15.85" width="18.92" height="3.52" rx="0.5" ry="0.5"/><rect class="cls-2" x="818.36" y="15.85" width="18.92" height="3.52" rx="0.5" ry="0.5"/><rect class="cls-2" x="850.47" y="15.85" width="18.92" height="3.52" rx="0.5" ry="0.5"/><rect class="cls-2" x="882.57" y="15.85" width="18.92" height="3.52" rx="0.5" ry="0.5"/><rect class="cls-2" x="914.68" y="15.85" width="18.92" height="3.52" rx="0.5" ry="0.5"/><rect class="cls-2" x="946.78" y="15.85" width="18.92" height="3.52" rx="0.5" ry="0.5"/><rect class="cls-2" x="978.89" y="15.85" width="18.92" height="3.52" rx="0.5" ry="0.5"/><rect class="cls-2" x="1010.99" y="15.85" width="18.92" height="3.52" rx="0.5" ry="0.5"/><rect class="cls-2" x="1043.1" y="15.85" width="18.92" height="3.52" rx="0.5" ry="0.5"/><rect class="cls-2" x="1075.2" y="15.85" width="18.92" height="3.52" rx="0.5" ry="0.5"/><rect class="cls-2" x="1107.31" y="15.85" width="18.92" height="3.52" rx="0.5" ry="0.5"/><rect class="cls-2" x="1139.41" y="15.85" width="18.92" height="3.52" rx="0.5" ry="0.5"/></svg>