<svg id="Layer_1" data-name="Layer 1" xmlns="http://www.w3.org/2000/svg" viewBox="0 0 326.66 167.01"><defs><style>.cls-1{fill:#3b9bad;}.cls-2{fill:#57c8e0;}.cls-3{fill:#f6b92c;}.cls-4{fill:#296773;}.cls-5{fill:#d4a131;}.cls-6{fill:none;stroke:#296773;stroke-miterlimit:10;stroke-width:6.2px;}</style></defs><title>guy</title><polygon class="cls-1" points="21.84 6.82 21.84 70.07 56.96 126.96 163.98 126.96 163.98 6.82 21.84 6.82"/><polygon class="cls-2" points="163.98 6.82 163.98 126.96 260.48 126.96 301.35 70.07 301.35 6.82 163.98 6.82"/><path class="cls-3" d="M323.32,136.25v4.42a8.06,8.06,0,0,1,3.26,7.69c-.7,5.12-5.7,3.94-5.71,0a6,6,0,0,1,.39-2.59s0,4.39,2.47,4.18c2.29-.2,1.82-7-1.38-7.8-.95-.22-.78-1.59-.78-1.59v-4.31Z"/><path class="cls-3" d="M319.7,134.06c0-2.4,1.34-4.29,3.05-4.29s3.05,1.88,3.05,4.29-1.34,4.29-3.05,4.29S319.7,136.46,319.7,134.06Zm1.56,0c0,1.61.79,2.73,1.49,2.73s1.49-1.12,1.49-2.73-.79-2.73-1.49-2.73S321.26,132.45,321.26,134.06Z"/><rect class="cls-4" x="5.11" y="127.02" width="312.96" height="12.94"/><circle class="cls-3" cx="63.64" cy="144.5" r="8.8"/><path class="cls-1" d="M57,129.81l3.17,6.62,3.51-.73,3.51.73,3.17-6.62C63.23,123.54,57,129.81,57,129.81Z"/><path class="cls-1" d="M47.6,146.31l7.28-1,.39-3.56,1.78-3.11-5.32-5.06C43.58,138.42,47.6,146.31,47.6,146.31Z"/><path class="cls-1" d="M60.41,160.31l1.33-7.22-3.27-1.47L56.06,149l-6.45,3.5C51.65,161.71,60.41,160.31,60.41,160.31Z"/><path class="cls-1" d="M77.68,152.46,71.22,149l-2.41,2.65-3.27,1.47,1.33,7.22C76.3,161.22,77.68,152.46,77.68,152.46Z"/><path class="cls-1" d="M75.55,133.61l-5.32,5.06L72,141.78l.39,3.56,7.28,1C83.45,137.63,75.55,133.61,75.55,133.61Z"/><path class="cls-5" d="M63.64,122A22.51,22.51,0,1,0,86.15,144.5,22.51,22.51,0,0,0,63.64,122Zm0,38.65A16.14,16.14,0,1,1,79.78,144.5,16.14,16.14,0,0,1,63.64,160.64Z"/><circle class="cls-3" cx="253.8" cy="144.5" r="8.8"/><path class="cls-1" d="M247.12,129.81l3.17,6.62,3.51-.73,3.51.73,3.17-6.62C253.38,123.54,247.12,129.81,247.12,129.81Z"/><path class="cls-1" d="M237.76,146.31l7.28-1,.39-3.56,1.78-3.11-5.32-5.06C233.73,138.42,237.76,146.31,237.76,146.31Z"/><path class="cls-1" d="M250.56,160.31l1.33-7.22-3.27-1.47L246.21,149l-6.45,3.5C241.81,161.71,250.56,160.31,250.56,160.31Z"/><path class="cls-1" d="M267.84,152.46l-6.45-3.5L259,151.62l-3.27,1.47,1.33,7.22C266.45,161.22,267.84,152.46,267.84,152.46Z"/><path class="cls-1" d="M265.71,133.61l-5.32,5.06,1.78,3.11.39,3.56,7.28,1C273.61,137.63,265.71,133.61,265.71,133.61Z"/><path class="cls-5" d="M253.8,122a22.51,22.51,0,1,0,22.51,22.51A22.51,22.51,0,0,0,253.8,122Zm0,38.65a16.14,16.14,0,1,1,16.14-16.14A16.14,16.14,0,0,1,253.8,160.64Z"/><rect class="cls-4" y="131.73" width="10.23" height="3.97" rx="1.99" ry="1.99"/><path class="cls-6" d="M301.35,33.12H303c3.59,0,6.5,4.46,6.5,10V127"/><path class="cls-6" d="M21.83,33.12H20.18c-3.59,0-6.5,4.46-6.5,10V127"/><rect class="cls-4" x="13.68" width="295.82" height="13.63"/><circle class="cls-3" cx="21.21" cy="6.58" r="2.7"/><circle class="cls-3" cx="38.72" cy="6.58" r="2.7"/><circle class="cls-3" cx="56.23" cy="6.58" r="2.7"/><circle class="cls-3" cx="73.74" cy="6.58" r="2.7"/><circle class="cls-3" cx="91.25" cy="6.58" r="2.7"/><circle class="cls-3" cx="108.76" cy="6.58" r="2.7"/><circle class="cls-3" cx="126.26" cy="6.58" r="2.7"/><circle class="cls-3" cx="143.77" cy="6.58" r="2.7"/><circle class="cls-3" cx="161.28" cy="6.58" r="2.7"/><circle class="cls-3" cx="178.79" cy="6.58" r="2.7"/><circle class="cls-3" cx="196.3" cy="6.58" r="2.7"/><circle class="cls-3" cx="213.8" cy="6.58" r="2.7"/><circle class="cls-3" cx="231.31" cy="6.58" r="2.7"/><circle class="cls-3" cx="248.82" cy="6.58" r="2.7"/><circle class="cls-3" cx="266.33" cy="6.58" r="2.7"/><circle class="cls-3" cx="283.84" cy="6.58" r="2.7"/><circle class="cls-3" cx="301.35" cy="6.58" r="2.7"/><rect class="cls-4" x="19.57" y="62.48" width="284.03" height="13.63"/><ellipse class="cls-3" cx="28.95" cy="69.06" rx="2.55" ry="2.7"/><ellipse class="cls-3" cx="45.49" cy="69.06" rx="2.55" ry="2.7"/><ellipse class="cls-3" cx="62.04" cy="69.06" rx="2.55" ry="2.7"/><ellipse class="cls-3" cx="78.58" cy="69.06" rx="2.55" ry="2.7"/><ellipse class="cls-3" cx="95.12" cy="69.06" rx="2.55" ry="2.7"/><ellipse class="cls-3" cx="111.67" cy="69.06" rx="2.55" ry="2.7"/><ellipse class="cls-3" cx="128.21" cy="69.06" rx="2.55" ry="2.7"/><ellipse class="cls-3" cx="144.75" cy="69.06" rx="2.55" ry="2.7"/><ellipse class="cls-3" cx="161.3" cy="69.06" rx="2.55" ry="2.7"/><ellipse class="cls-3" cx="177.84" cy="69.06" rx="2.55" ry="2.7"/><ellipse class="cls-3" cx="194.38" cy="69.06" rx="2.55" ry="2.7"/><ellipse class="cls-3" cx="210.93" cy="69.06" rx="2.55" ry="2.7"/><ellipse class="cls-3" cx="227.47" cy="69.06" rx="2.55" ry="2.7"/><ellipse class="cls-3" cx="244.01" cy="69.06" rx="2.55" ry="2.7"/><ellipse class="cls-3" cx="260.56" cy="69.06" rx="2.55" ry="2.7"/><ellipse class="cls-3" cx="277.1" cy="69.06" rx="2.55" ry="2.7"/><ellipse class="cls-3" cx="293.65" cy="69.06" rx="2.55" ry="2.7"/><rect class="cls-4" x="312.96" y="131.73" width="10.23" height="3.97" rx="1.99" ry="1.99"/></svg>