<?xml version="1.0" encoding="utf-8"?>
<!-- Generator: Adobe Illustrator 19.0.0, SVG Export Plug-In . SVG Version: 6.00 Build 0)  -->
<svg version="1.1" id="Layer_1" xmlns="http://www.w3.org/2000/svg" xmlns:xlink="http://www.w3.org/1999/xlink" x="0px" y="0px"
	 viewBox="320 164 1600 234" style="enable-background:new 320 164 1600 234;" xml:space="preserve">
<style type="text/css">
	.st0{clip-path:url(#SVGID_2_);}
	.st1{fill:#142442;}
	.st2{fill:#4E5D94;}
	.st3{fill:#F1F9FD;}
	.st4{fill:#808CC5;}
	.st5{fill:#B7BCDF;}
	.st6{fill:#1D305E;}
	.st7{opacity:0.36;fill:#142442;enable-background:new    ;}
	.st8{opacity:0.33;fill:#142442;enable-background:new    ;}
	.st9{opacity:0.22;fill:#142442;enable-background:new    ;}
	.st10{fill:none;}
</style>
<title>email-header</title>
<g>
	<g>
		<defs>
			<rect id="SVGID_1_" x="320" y="165" width="1600" height="234"/>
		</defs>
		<clipPath id="SVGID_2_">
			<use xlink:href="#SVGID_1_"  style="overflow:visible;"/>
		</clipPath>
		<g class="st0">
			<rect x="320" y="164.3" class="st1" width="1600" height="234"/>
			<polygon class="st2" points="1271,190.9 1271,255 1263.9,300.1 1271,338.2 1271,368.8 1309.9,366.3 1320.6,217.9 1320.6,191.9 
							"/>
			<polygon class="st3" points="1339.8,190.9 1354.1,195 1339.8,197 1306.3,195 1271,190.9 1302.3,186.8 			"/>
			<polygon class="st4" points="1339.8,197 1306.3,195 1295.6,256 1297.8,371.6 1332.2,371.6 1345.6,248.1 			"/>
			<path class="st5" d="M1354.1,195c0,0,0.6,107.4,6.3,130.1s6.2,39.5,6.2,39.5v17.6h-35.9l9.2-185.3L1354.1,195z"/>
			<polygon class="st2" points="1248.4,251.8 1248.4,315.9 1241.2,360.9 1248.4,399 1248.4,429.6 1287.2,427.1 1297.9,278.7 
				1297.9,252.7 			"/>
			<polygon class="st3" points="1317.2,251.8 1331.4,255.9 1317.2,257.8 1283.7,255.9 1248.4,251.8 1279.6,247.6 			"/>
			<polygon class="st4" points="1317.2,257.8 1283.7,255.9 1272.9,316.8 1275.2,432.4 1309.6,432.4 1323,308.9 			"/>
			<path class="st5" d="M1331.4,255.9c0,0,0.6,107.4,6.3,130.1c5.7,22.8,6.2,39.5,6.2,39.5v17.6H1308l9.2-185.3L1331.4,255.9z"/>
			<path class="st2" d="M1334.2,249l-11.1-1.9c0,0,3.3,87.3,0,106.4s-4.7,40.9-4.7,40.9l-3.3,21.8l16.5-3.3l13.2-120.3l-7-29.7
				L1334.2,249z"/>
			<path class="st4" d="M1357.5,253.1l-23.3-4.1c0,0-3.7,35.7-5.6,53.8s0,73.4,0,86.4s1.4,44.6,1.4,44.6l30.2-6l7-117.5l-5.6-45.5
				L1357.5,253.1z"/>
			<path class="st5" d="M1373.3,250.3c0,0,0.5,30.4,4.4,57.1s7.2,51.5,7.2,51.5l7,43.2v35.8l-34.3-3.7c0,0-7.2-87.8-4.8-114.3
				s4.8-50.2,4.8-50.2V253L1373.3,250.3z"/>
			<polygon class="st3" points="1373.3,250.3 1357.5,253.1 1323.6,247.1 1352.7,247.1 			"/>
			<polygon class="st5" points="1327.8,355.3 1335.7,397.7 1335.7,450.2 1343.1,479.9 1343.1,530.5 1300.4,530.5 1289.7,406.6 
				1301.3,368.5 1312.9,357.8 			"/>
			<polygon class="st4" points="1278.5,355.3 1312.9,357.8 1307.3,376.8 1305.5,403.3 1301.8,411.7 1300.4,530.5 1251.6,530.5 
				1243.7,434.4 1262.7,394.5 1268.8,364.8 			"/>
			<polygon class="st2" points="1234.4,442.3 1258.1,390.8 1263.7,350.4 1278.5,355.3 1267.9,404.7 1258.6,414.9 1251.1,447.6 
				1256.5,530.5 1234.4,530.5 			"/>
			<polygon class="st3" points="1327.8,355.3 1308.7,360.1 1273.9,355.3 1263.7,350.4 1305,350.4 			"/>
			<polygon class="st5" points="1378.3,342.5 1411.2,336.9 1416.4,432.4 1416.4,502.7 1424.3,550.7 1416.4,564.2 1393.6,564.2 
				1358.9,429.6 1363,355.7 			"/>
			<polygon class="st2" points="1328.3,333.4 1317.2,389.6 1317.2,504.8 1311.6,533.4 1310,553.5 1333.9,553.5 1340.7,385 
				1340.7,333.4 			"/>
			<polygon class="st4" points="1340.7,333.4 1378.3,342.5 1378.3,419.8 1393.6,450.9 1390.1,532.7 1393.6,564.2 1333.9,553.5 
				1332.3,377 			"/>
			<polygon class="st3" points="1411.2,336.9 1378.3,342.5 1339.5,339.7 1328.3,333.4 1384.3,329.8 			"/>
			<polygon class="st2" points="1292.6,404.8 1292.6,468.9 1285.4,514 1292.6,552.1 1292.6,582.7 1331.4,580.1 1342.2,431.8 
				1342.2,405.8 			"/>
			<polygon class="st3" points="1361.4,404.8 1375.7,408.9 1361.4,410.9 1327.9,408.9 1292.6,404.8 1323.9,400.7 			"/>
			<polygon class="st4" points="1361.4,410.9 1327.9,408.9 1317.2,469.9 1319.4,585.5 1353.8,585.5 1367.2,462 			"/>
			<path class="st5" d="M1375.6,408.9c0,0,0.6,107.4,6.3,130.1c5.7,22.8,6.2,39.5,6.2,39.5v17.7h-36l9.2-185.3L1375.6,408.9z"/>
			<path class="st2" d="M1247.9,420.6l-11.1-1.9c0,0,3.3,87.3,0,106.3c-3.3,19-4.7,40.9-4.7,40.9l-3.3,21.8l16.5-3.3l13.2-120.3
				l-7-29.7L1247.9,420.6z"/>
			<path class="st4" d="M1271.1,424.7l-23.3-4.1c0,0-3.7,35.7-5.6,53.8s0,73.4,0,86.4s1.4,44.6,1.4,44.6l30.2-6l7-117.5l-5.6-45.5
				L1271.1,424.7z"/>
			<path class="st5" d="M1286.9,421.9c0,0,0.5,30.4,4.4,57.1s7.2,51.5,7.2,51.5l7,43.2v35.8l-34.3-3.7c0,0-7.2-87.8-4.8-114.3
				c2.4-26.5,4.8-50.2,4.8-50.2v-16.7L1286.9,421.9z"/>
			<polygon class="st3" points="1286.9,421.9 1271.1,424.7 1237.2,418.7 1266.4,418.7 			"/>
			<polygon class="st2" points="1271.1,537.1 1248.8,537.1 1245.6,629.5 1245.6,669.2 1265.5,669.2 1288.8,590.5 1285.5,547.8 			
				"/>
			<polygon class="st4" points="1312.4,537.1 1271.1,537.1 1271.1,613.3 1268,635.1 1263.3,653.7 1259.5,669.2 1324.5,669.2 
				1322.5,599.6 1327.3,558.5 			"/>
			<polygon class="st6" points="1230.7,530.1 1230.7,592.9 1226.5,619.8 1228.6,635.6 1228.6,661.1 1230.7,669.2 1245.6,669.2 
				1257.2,550.6 1257.2,537.1 			"/>
			<polygon class="st5" points="1340.3,530.1 1343.1,614.7 1340.3,638.4 1327.3,645.8 1324.5,659.7 1324.5,669.2 1302,667.1 
				1316.2,613.8 1312.4,537.1 			"/>
			<polygon class="st3" points="1340.3,530.1 1312.4,537.1 1248.8,537.1 1230.7,530.1 1248.3,526.4 1321.7,526.4 			"/>
			<polygon class="st5" points="1372.1,500.2 1360.4,500.2 1353.5,567.1 1343,612.2 1343,650 1343,668.8 1366.7,668.8 1382,557.3 
							"/>
			<polygon class="st3" points="1420.3,492.5 1409.2,500.2 1360.4,500.2 1323.9,492.5 1391.7,488.4 			"/>
			<polygon class="st5" points="1420.3,492.5 1426.6,586.6 1426.6,599.1 1426.6,668.8 1414,668.8 1409.2,500.2 			"/>
			<polygon class="st4" points="1409.2,500.2 1372.1,500.2 1365.3,565 1369.4,580.6 1359.7,626.3 1366.7,668.8 1398,668.8 
				1412,597.8 			"/>
			<polygon class="st2" points="1412,597.8 1398,668.8 1414,668.8 			"/>
			<polygon class="st4" points="1332.2,494.3 1360.4,500.2 1353.5,580.6 1343,668.8 1323.9,668.8 1333.2,580.6 1331.8,511.3 			"/>
			<polygon class="st2" points="1323.9,492.5 1323.9,576.8 1329,590.8 1314.4,668.8 1323.9,668.8 1343,560.3 1342.1,507.2 
				1342.1,496.4 			"/>
			<polygon class="st2" points="946.4,209.2 946.4,273.3 953.5,318.4 946.4,356.5 946.4,387.1 907.5,384.6 896.8,236.2 896.8,210.2 
							"/>
			<polygon class="st3" points="877.6,209.2 863.3,213.3 877.6,215.3 911.1,213.3 946.4,209.2 915.1,205.1 			"/>
			<polygon class="st4" points="877.6,215.3 911.1,213.3 921.8,274.3 919.6,389.9 885.2,389.9 871.8,266.4 			"/>
			<path class="st5" d="M863.3,213.3c0,0-0.6,107.4-6.3,130.1c-5.7,22.8-6.2,39.5-6.2,39.5v17.7h35.9l-9.1-185.3L863.3,213.3z"/>
			<polygon class="st2" points="969,270.1 969,334.2 976.1,379.2 969,417.3 969,447.9 930.1,445.4 919.4,297 919.4,271 			"/>
			<polygon class="st3" points="900.2,270.1 885.9,274.2 900.2,276.1 933.7,274.2 969,270.1 937.7,265.9 			"/>
			<polygon class="st4" points="900.2,276.1 933.7,274.2 944.4,335.1 942.2,450.7 907.8,450.7 894.4,327.2 			"/>
			<path class="st5" d="M885.9,274.2c0,0-0.6,107.4-6.3,130.1c-5.7,22.8-6.2,39.5-6.2,39.5v17.6h35.9l-9.2-185.3L885.9,274.2z"/>
			<path class="st2" d="M883.1,267.3l11.1-1.9c0,0-3.3,87.3,0,106.4c3.3,19,4.7,40.9,4.7,40.9l3.3,21.8l-16.5-3.3l-13.2-120.3
				l7-29.7L883.1,267.3z"/>
			<path class="st4" d="M859.9,271.4l23.3-4.1c0,0,3.7,35.7,5.6,53.8c1.9,18.1,0,73.4,0,86.4s-1.4,44.6-1.4,44.6l-30.2-6l-7-117.5
				l5.6-45.5L859.9,271.4z"/>
			<path class="st5" d="M844.1,268.6c0,0-0.5,30.4-4.4,57.1s-7.2,51.6-7.2,51.6l-7,43.2v35.8l34.3-3.7c0,0,7.2-87.8,4.8-114.3
				s-4.8-50.2-4.8-50.2v-16.7L844.1,268.6z"/>
			<polygon class="st3" points="844.1,268.6 859.9,271.4 893.8,265.4 864.6,265.4 			"/>
			<polygon class="st5" points="889.6,373.6 881.7,416 881.7,468.5 874.3,498.2 874.3,548.8 917,548.8 927.7,424.8 916.1,386.8 
				904.5,376.1 			"/>
			<polygon class="st4" points="938.8,373.6 904.5,376.1 910,395.1 911.9,421.6 915.6,430 917,548.8 965.8,548.8 973.7,452.7 
				954.6,412.8 948.6,383.1 			"/>
			<polygon class="st2" points="983,460.6 959.3,409.1 953.7,368.7 938.8,373.6 949.5,423 958.8,433.2 966.2,465.9 960.9,548.8 
				983,548.8 			"/>
			<polygon class="st3" points="889.6,373.6 908.6,378.4 943.5,373.6 953.7,368.7 912.4,368.7 			"/>
			<polygon class="st5" points="839.1,360.8 806.2,355.2 801,450.6 801,521 793.1,569 801,582.5 823.7,582.5 858.4,447.9 854.4,374 
							"/>
			<polygon class="st2" points="889.1,351.7 900.2,407.9 900.2,523.1 905.8,551.7 907.3,571.8 883.5,571.8 876.7,403.3 876.7,351.7 
							"/>
			<polygon class="st4" points="876.7,351.7 839.1,360.8 839.1,438.1 823.7,469.2 827.2,551 823.7,582.5 883.5,571.8 885,395.3 			
				"/>
			<polygon class="st3" points="806.2,355.2 839.1,360.8 877.9,358 889.1,351.7 833,348.1 			"/>
			<polygon class="st2" points="924.8,423.1 924.8,487.2 931.9,532.3 924.8,570.4 924.8,601 885.9,598.4 875.2,450.1 875.2,424.1 
							"/>
			<polygon class="st3" points="856,423.1 841.7,427.2 856,429.2 889.5,427.2 924.8,423.1 893.5,419 			"/>
			<polygon class="st4" points="856,429.2 889.5,427.2 900.2,488.1 898,603.8 863.6,603.8 850.2,480.3 			"/>
			<path class="st5" d="M841.7,427.2c0,0-0.6,107.4-6.3,130.1c-5.7,22.8-6.2,39.5-6.2,39.5v17.6h35.9L856,429.1L841.7,427.2z"/>
			<path class="st2" d="M969.5,438.8l11.1-1.9c0,0-3.3,87.3,0,106.4c3.3,19,4.7,40.9,4.7,40.9l3.3,21.9l-16.5-3.3l-13.2-120.3
				l7-29.7L969.5,438.8z"/>
			<path class="st4" d="M946.2,443l23.3-4.1c0,0,3.7,35.7,5.6,53.8s0,73.4,0,86.4s-1.4,44.6-1.4,44.6l-30.2-6l-7-117.5l5.6-45.5
				L946.2,443z"/>
			<path class="st5" d="M930.5,440.2c0,0-0.5,30.4-4.4,57.1c-3.9,26.7-7.2,51.5-7.2,51.5l-7,43.2v35.8l34.3-3.7
				c0,0,7.2-87.8,4.8-114.2c-2.4-26.5-4.8-50.2-4.8-50.2V443L930.5,440.2z"/>
			<polygon class="st3" points="930.5,440.2 946.2,443 980.1,437 951,437 			"/>
			<polygon class="st2" points="946.3,555.4 968.6,555.4 971.8,647.8 971.8,687.5 951.9,687.5 928.6,608.8 931.9,566.1 			"/>
			<polygon class="st4" points="904.9,555.4 946.3,555.4 946.3,631.6 949.3,653.4 954.1,672 957.9,687.5 892.9,687.5 894.8,618 
				890,576.8 			"/>
			<polygon class="st6" points="986.7,548.5 986.7,611.1 990.9,638.1 988.8,653.9 988.8,679.4 986.7,687.5 971.8,687.5 960.2,568.9 
				960.2,555.4 			"/>
			<polygon class="st5" points="877.1,548.5 874.3,633 877.1,656.7 890,664.1 892.9,678 892.9,687.5 915.4,685.5 901.2,632 
				904.9,555.4 			"/>
			<polygon class="st3" points="877.1,548.5 904.9,555.4 968.6,555.4 986.7,548.5 969,544.7 895.6,544.7 			"/>
			<polygon class="st5" points="845.3,518.5 857,518.5 863.9,585.4 874.4,630.5 874.4,668.3 874.4,687.1 850.7,687.1 835.4,575.6 
							"/>
			<polygon class="st3" points="797.1,510.8 808.2,518.5 857,518.5 893.5,510.8 825.6,506.6 			"/>
			<polygon class="st5" points="797.1,510.8 790.8,604.9 790.8,617.4 790.8,687.1 803.3,687.1 808.2,518.5 			"/>
			<polygon class="st4" points="808.2,518.5 845.3,518.5 852.1,583.3 847.9,599 857.7,644.6 850.7,687.1 819.4,687.1 805.4,616.1 
							"/>
			<polygon class="st2" points="805.4,616.1 819.4,687.1 803.3,687.1 			"/>
			<polygon class="st4" points="885.2,512.6 857,518.5 863.9,599 874.4,687.1 893.5,687.1 884.1,599 885.5,529.6 			"/>
			<polygon class="st2" points="893.5,510.8 893.5,595.1 888.3,609.1 902.9,687.1 893.5,687.1 874.4,578.6 875.2,525.5 875.2,514.7 
							"/>
			<rect x="320" y="153.4" class="st7" width="1600" height="254.9"/>
			<polygon class="st2" points="764.6,34.1 764.6,98.1 773.1,143.2 764.6,181.3 764.6,211.9 718.4,209.4 705.7,61 705.7,35 			"/>
			<polygon class="st3" points="682.9,34.1 665.9,38.2 682.9,40.1 722.7,38.2 764.6,34.1 727.5,29.9 			"/>
			<polygon class="st4" points="682.9,40.1 722.7,38.2 735.4,99.1 732.8,214.7 691.9,214.7 676,91.2 			"/>
			<path class="st5" d="M665.9,38.1c0,0-0.7,107.4-7.5,130.1c-6.8,22.8-7.3,39.5-7.3,39.5v17.6h42.7L682.9,40.1L665.9,38.1z"/>
			<polygon class="st2" points="791.5,94.9 791.5,159 800,204.1 791.5,242.1 791.5,272.8 745.3,270.2 732.6,121.8 732.6,95.8 			"/>
			<polygon class="st3" points="709.8,94.9 692.8,99 709.8,100.9 749.6,99 791.5,94.9 754.3,90.7 			"/>
			<polygon class="st4" points="709.8,100.9 749.6,99 762.3,159.9 759.6,275.6 718.8,275.6 702.9,152 			"/>
			<path class="st5" d="M692.8,99c0,0-0.7,107.4-7.5,130.1c-6.8,22.8-7.3,39.5-7.3,39.5v17.7h42.7l-10.9-185.4L692.8,99z"/>
			<path class="st2" d="M689.5,92l13.2-1.9c0,0-3.9,87.3,0,106.3c2.6,13.5,4.4,27.2,5.5,40.9l3.9,21.8l-19.6-3.3l-15.7-120.2
				l8.3-29.7L689.5,92z"/>
			<path class="st4" d="M661.8,96.2l27.7-4.2c0,0,4.4,35.7,6.6,53.8s0,73.4,0,86.4s-1.7,44.6-1.7,44.6l-35.9-6l-8.3-117.5l6.6-45.5
				L661.8,96.2z"/>
			<path class="st5" d="M643.1,93.4c0,0-0.6,30.4-5.2,57.1s-8.5,51.6-8.5,51.6l-8.3,43.2v35.8l40.8-3.7c0,0,8.6-87.8,5.7-114.3
				s-5.7-50.1-5.7-50.1V96.2L643.1,93.4z"/>
			<polygon class="st3" points="643.1,93.4 661.8,96.2 702.1,90.2 667.5,90.2 			"/>
			<polygon class="st5" points="697.2,198.4 687.8,240.8 687.8,293.3 678.9,323 678.9,373.7 729.7,373.7 742.4,249.7 728.6,211.6 
				714.8,200.9 			"/>
			<polygon class="st4" points="755.7,198.4 714.8,200.9 721.4,219.9 723.7,246.4 728.1,254.8 729.7,373.7 787.7,373.7 797.1,277.5 
				774.4,237.6 767.3,207.9 			"/>
			<polygon class="st2" points="808.1,285.4 779.9,233.9 773.3,193.5 755.7,198.4 768.4,247.8 779.4,258 788.2,290.8 781.9,373.7 
				808.1,373.7 			"/>
			<polygon class="st3" points="697.2,198.4 719.8,203.2 761.2,198.4 773.3,193.5 724.2,193.5 			"/>
			<polygon class="st5" points="637.1,185.6 598,180 591.8,275.5 591.8,345.8 582.5,393.9 591.8,407.3 618.9,407.3 660.1,272.7 
				655.3,198.8 			"/>
			<polygon class="st2" points="696.5,176.6 709.8,232.7 709.8,347.9 716.4,376.5 718.2,396.6 689.9,396.6 681.8,228.1 681.8,176.6 
							"/>
			<polygon class="st4" points="681.8,176.6 637.1,185.6 637.1,262.9 618.9,294 623,375.8 618.9,407.3 689.9,396.6 691.7,220.1 			
				"/>
			<polygon class="st3" points="598,180 637.1,185.6 683.2,182.8 696.5,176.6 629.9,172.9 			"/>
			<polygon class="st2" points="739,248 739,312 747.4,357.1 739,395.2 739,425.8 692.8,423.3 680.1,274.9 680.1,248.9 			"/>
			<polygon class="st3" points="657.2,248 640.3,252 657.2,254 697,252 739,248 701.8,243.8 			"/>
			<polygon class="st4" points="657.2,254 697,252 709.8,313 707.1,428.6 666.3,428.6 650.3,305.1 			"/>
			<path class="st5" d="M640.3,252c0,0-0.7,107.4-7.5,130.1s-7.3,39.5-7.3,39.5v17.6h42.6l-10.9-185.3L640.3,252z"/>
			<path class="st2" d="M792.1,263.7l13.2-1.9c0,0-3.9,87.3,0,106.3c2.6,13.5,4.4,27.2,5.6,40.9l3.9,21.8l-19.7-3.2l-15.7-120.3
				l8.3-29.7L792.1,263.7z"/>
			<path class="st4" d="M764.4,267.8l27.7-4.1c0,0,4.4,35.7,6.6,53.8s0,73.4,0,86.4s-1.7,44.6-1.7,44.6l-35.9-6L752.8,325l6.6-45.5
				L764.4,267.8z"/>
			<path class="st5" d="M745.7,265c0,0-0.6,30.4-5.2,57.1s-8.5,51.6-8.5,51.6l-8.3,43.2v35.8l40.8-3.7c0,0,8.6-87.8,5.7-114.3
				s-5.7-50.2-5.7-50.2v-16.7L745.7,265z"/>
			<polygon class="st3" points="745.7,265 764.4,267.8 804.8,261.8 770.1,261.8 			"/>
			<polygon class="st2" points="764.5,380.2 791,380.2 794.9,472.6 794.9,512.3 771.1,512.3 743.5,433.6 747.4,390.9 			"/>
			<polygon class="st4" points="715.4,380.2 764.5,380.2 764.5,456.4 768.1,478.2 773.8,496.8 778.3,512.3 701,512.3 703.4,442.8 
				697.7,401.6 			"/>
			<polygon class="st6" points="812.5,373.3 812.5,436 817.5,462.9 815,478.7 815,504.2 812.5,512.3 794.9,512.3 781.1,393.7 
				781.1,380.2 			"/>
			<polygon class="st5" points="682.3,373.3 678.9,457.8 682.3,481.5 697.7,488.9 701,502.8 701,512.3 727.8,510.3 711,456.9 
				715.4,380.2 			"/>
			<polygon class="st3" points="682.3,373.3 715.4,380.2 791,380.2 812.5,373.3 791.5,369.6 704.3,369.6 			"/>
			<polygon class="st5" points="644.5,343.3 658.4,343.3 666.6,410.2 679.1,455.3 679.1,493.1 679.1,511.9 650.9,511.9 632.7,400.4 
							"/>
			<polygon class="st3" points="587.2,335.7 600.4,343.3 658.4,343.3 701.8,335.7 621.1,331.5 			"/>
			<polygon class="st5" points="587.2,335.7 579.7,429.7 579.7,442.2 579.7,511.9 594.6,511.9 600.4,343.3 			"/>
			<polygon class="st4" points="600.4,343.3 644.5,343.3 652.6,408.1 647.6,423.8 659.2,469.4 650.9,511.9 613.7,511.9 597.1,440.9 
							"/>
			<polygon class="st2" points="597.1,440.9 613.7,511.9 594.6,511.9 			"/>
			<polygon class="st4" points="691.9,337.4 658.4,343.3 666.6,423.8 679.1,511.9 701.8,511.9 690.7,423.8 692.3,354.5 			"/>
			<polygon class="st2" points="701.8,335.7 701.8,419.9 695.6,433.9 713,511.9 701.8,511.9 679.1,403.4 680.1,350.3 680.1,339.5 
							"/>
			<polygon class="st2" points="1445.9,62.1 1445.9,126.2 1437.4,171.3 1445.9,209.3 1445.9,240 1492,237.4 1504.8,89 1504.8,63 			
				"/>
			<polygon class="st3" points="1527.6,62.1 1544.5,66.2 1527.6,68.1 1487.8,66.2 1445.9,62.1 1483,57.9 			"/>
			<polygon class="st4" points="1527.6,68.1 1487.8,66.2 1475,127.1 1477.7,242.8 1518.5,242.8 1534.5,119.2 			"/>
			<path class="st5" d="M1544.6,66.2c0,0,0.7,107.4,7.5,130.1s7.3,39.5,7.3,39.5v17.6h-42.7l10.9-185.3L1544.6,66.2z"/>
			<polygon class="st2" points="1419,122.9 1419,187 1410.5,232.1 1419,270.2 1419,300.8 1465.1,298.3 1477.9,149.9 1477.9,123.9 
							"/>
			<polygon class="st3" points="1500.7,122.9 1517.7,127 1500.7,129 1460.9,127 1419,122.9 1456.1,118.8 			"/>
			<polygon class="st4" points="1500.7,129 1460.9,127 1448.2,188 1450.8,303.6 1491.7,303.6 1507.6,180.1 			"/>
			<path class="st5" d="M1517.7,127c0,0,0.7,107.4,7.5,130.1s7.3,39.5,7.3,39.5v17.6h-42.7l10.9-185.3L1517.7,127z"/>
			<path class="st2" d="M1521,120.1l-13.2-1.9c0,0,3.9,87.3,0,106.3c-2.6,13.5-4.4,27.2-5.5,40.9l-3.9,21.8l19.6-3.2l15.7-120.3
				l-8.3-29.7L1521,120.1z"/>
			<path class="st4" d="M1548.7,124.3l-27.7-4.1c0,0-4.4,35.7-6.6,53.8s0,73.4,0,86.4s1.7,44.6,1.7,44.6l35.9-6l8.3-117.5l-6.6-45.5
				L1548.7,124.3z"/>
			<path class="st5" d="M1567.4,121.5c0,0,0.6,30.4,5.2,57.1s8.6,51.5,8.6,51.5l8.3,43.2v35.8l-40.8-3.7c0,0-8.6-87.8-5.7-114.3
				s5.7-50.2,5.7-50.2v-16.6L1567.4,121.5z"/>
			<polygon class="st3" points="1567.4,121.5 1548.7,124.3 1508.3,118.2 1543,118.2 			"/>
			<polygon class="st5" points="1513.3,226.4 1522.7,268.9 1522.7,321.4 1531.5,351.1 1531.5,401.7 1480.7,401.7 1468,277.7 
				1481.8,239.6 1495.6,229 			"/>
			<polygon class="st4" points="1454.8,226.4 1495.6,229 1489,248 1486.8,274.5 1482.4,282.8 1480.7,401.7 1422.8,401.7 
				1413.4,305.6 1436,265.6 1443.2,235.9 			"/>
			<polygon class="st2" points="1402.4,313.5 1430.5,261.9 1437.1,221.5 1454.8,226.4 1442.1,275.9 1431.1,286.1 1422.2,318.8 
				1428.6,401.7 1402.4,401.7 			"/>
			<polygon class="st3" points="1513.3,226.4 1490.7,231.3 1449.3,226.4 1437.1,221.5 1486.3,221.5 			"/>
			<polygon class="st5" points="1573.4,213.7 1612.5,208.1 1618.6,303.5 1618.6,373.9 1628,421.9 1618.6,435.4 1591.6,435.4 
				1550.4,300.7 1555.2,226.8 			"/>
			<polygon class="st2" points="1513.9,204.6 1500.7,260.8 1500.7,376 1494.1,404.5 1492.2,424.7 1520.5,424.7 1528.7,256.2 
				1528.7,204.6 			"/>
			<polygon class="st4" points="1528.7,204.6 1573.4,213.7 1573.4,291 1591.6,322.1 1587.4,403.8 1591.6,435.4 1520.5,424.7 
				1518.7,248.1 			"/>
			<polygon class="st3" points="1612.5,208.1 1573.4,213.7 1527.2,210.9 1513.9,204.6 1580.5,200.9 			"/>
			<polygon class="st2" points="1471.5,276 1471.5,340.1 1463,385.2 1471.5,423.2 1471.5,453.9 1517.7,451.3 1530.4,302.9 
				1530.4,276.9 			"/>
			<polygon class="st3" points="1553.2,276 1570.2,280.1 1553.2,282 1513.4,280.1 1471.5,276 1508.7,271.8 			"/>
			<polygon class="st4" points="1553.2,282 1513.4,280.1 1500.7,341 1503.4,456.6 1544.2,456.6 1560.1,333.1 			"/>
			<path class="st5" d="M1570.2,280.1c0,0,0.7,107.4,7.5,130.1s7.3,39.5,7.3,39.5v17.6h-42.7l10.9-185.3L1570.2,280.1z"/>
			<path class="st2" d="M1418.4,291.7l-13.2-1.9c0,0,3.9,87.3,0,106.4c-2.6,13.5-4.4,27.2-5.6,40.9l-3.9,21.8l19.6-3.3l15.7-120.3
				l-8.3-29.7L1418.4,291.7z"/>
			<path class="st4" d="M1446,295.9l-27.7-4.1c0,0-4.4,35.7-6.6,53.8s0,73.4,0,86.4s1.7,44.6,1.7,44.6l35.9-6l8.3-117.5l-6.6-45.5
				L1446,295.9z"/>
			<path class="st5" d="M1464.7,293c0,0,0.6,30.4,5.2,57.1s8.6,51.6,8.6,51.6l8.3,43.2v35.8L1446,477c0,0-8.6-87.8-5.7-114.3
				s5.7-50.2,5.7-50.2v-16.7L1464.7,293z"/>
			<polygon class="st3" points="1464.7,293.1 1446,295.9 1405.7,289.8 1440.3,289.8 			"/>
			<polygon class="st2" points="1446,408.3 1419.5,408.3 1415.6,500.7 1415.6,540.3 1439.3,540.3 1466.9,461.7 1463.1,419 			"/>
			<polygon class="st4" points="1495.1,408.3 1446,408.3 1446,484.5 1442.3,506.3 1436.7,524.9 1432.2,540.3 1509.4,540.3 
				1507.1,470.8 1512.8,429.6 			"/>
			<polygon class="st6" points="1397.9,401.3 1397.9,464 1393,491 1395.5,506.7 1395.5,532.3 1397.9,540.3 1415.6,540.3 
				1429.4,421.8 1429.4,408.3 			"/>
			<polygon class="st5" points="1528.2,401.3 1531.5,485.8 1528.2,509.5 1512.8,517 1509.4,530.9 1509.4,540.3 1482.7,538.3 
				1499.5,484.9 1495.1,408.3 			"/>
			<polygon class="st3" points="1528.2,401.3 1495.1,408.3 1419.5,408.3 1397.9,401.3 1418.9,397.6 1506.1,397.6 			"/>
			<polygon class="st5" points="1566,371.4 1552.1,371.4 1543.9,438.2 1531.4,483.3 1531.4,521.1 1531.4,539.9 1559.5,539.9 
				1577.8,428.5 			"/>
			<polygon class="st3" points="1623.3,363.7 1610,371.4 1552.1,371.4 1508.7,363.7 1589.3,359.5 			"/>
			<polygon class="st5" points="1623.3,363.7 1630.7,457.7 1630.7,470.3 1630.7,539.9 1615.8,539.9 1610,371.4 			"/>
			<polygon class="st4" points="1610,371.4 1566,371.4 1557.9,436.1 1562.9,451.8 1551.3,497.4 1559.5,539.9 1596.8,539.9 
				1613.4,469 			"/>
			<polygon class="st2" points="1613.4,469 1596.8,539.9 1615.8,539.9 			"/>
			<polygon class="st4" points="1518.5,365.4 1552.1,371.4 1543.9,451.8 1531.4,539.9 1508.7,539.9 1519.8,451.8 1518.2,382.5 			
				"/>
			<polygon class="st2" points="1508.7,363.7 1508.7,448 1514.8,461.9 1497.4,539.9 1508.7,539.9 1531.4,431.5 1530.4,378.3 
				1530.4,367.5 			"/>
			<rect x="320" y="154.7" class="st8" width="1600" height="264.1"/>
			<polygon class="st2" points="573.5,-78.4 573.5,-14.3 579.8,30.8 573.5,68.8 573.5,99.5 539.6,96.9 530.2,-51.4 530.2,-77.5 			
				"/>
			<polygon class="st3" points="513.4,-78.4 500.9,-74.3 513.4,-72.3 542.7,-74.3 573.5,-78.4 546.2,-82.6 			"/>
			<polygon class="st4" points="513.4,-72.3 542.7,-74.3 552.1,-13.4 550.1,102.3 520.1,102.3 508.4,-21.3 			"/>
			<path class="st5" d="M500.9-74.3c0,0-0.5,107.4-5.5,130.1c-2.9,13-4.7,26.2-5.4,39.5V113h31.4l-8-185.3L500.9-74.3z"/>
			<polygon class="st2" points="593.3,-17.5 593.3,46.5 599.6,91.6 593.3,129.7 593.3,160.3 559.4,157.8 550,9.4 550,-16.6 			"/>
			<polygon class="st3" points="533.2,-17.5 520.7,-13.5 533.2,-11.5 562.5,-13.5 593.3,-17.5 566,-21.7 			"/>
			<polygon class="st4" points="533.2,-11.5 562.5,-13.5 571.8,47.5 569.9,163.1 539.8,163.1 528.1,39.6 			"/>
			<path class="st5" d="M520.7-13.5c0,0-0.5,107.4-5.5,130.1c-2.9,13-4.8,26.2-5.4,39.5v17.6h31.4l-8-185.3L520.7-13.5z"/>
			<path class="st2" d="M518.3-20.4l9.7-1.9c0,0-2.9,87.3,0,106.3s4,40.9,4,40.9l2.8,21.8l-14.4-3.3L508.9,23.2L515-6.5L518.3-20.4z
				"/>
			<path class="st4" d="M497.9-16.2l20.3-4.1c0,0,3.2,35.7,4.9,53.8c1.6,18.1,0,73.4,0,86.4s-1.2,44.6-1.2,44.6l-26.4-6L489.4,41
				l4.9-45.5L497.9-16.2z"/>
			<path class="st5" d="M484.1-19c0,0-0.5,30.4-3.9,57.1s-6.3,51.5-6.3,51.5l-6.1,43.2v35.8l30-3.7c0,0,6.3-87.8,4.2-114.3
				s-4.2-50.2-4.2-50.2v-16.7L484.1-19z"/>
			<polygon class="st3" points="484.1,-19 497.9,-16.2 527.6,-22.3 502.1,-22.3 			"/>
			<polygon class="st5" points="523.9,86 517,128.4 517,180.9 510.5,210.6 510.5,261.2 547.9,261.2 557.2,137.2 547.1,99.1 
				536.9,88.5 			"/>
			<polygon class="st4" points="567,86 536.9,88.5 541.8,107.5 543.4,134 546.7,142.3 547.9,261.2 590.5,261.2 597.4,165.1 
				580.8,125.2 575.5,95.4 			"/>
			<polygon class="st2" points="605.5,173 584.8,121.4 579.9,81 567,86 576.3,135.4 584.4,145.6 590.9,178.3 586.2,261.2 
				605.5,261.2 			"/>
			<polygon class="st3" points="523.9,86 540.6,90.8 571,86 579.9,81 543.8,81 			"/>
			<polygon class="st5" points="479.7,73.2 451,67.6 446.4,163 446.4,233.4 439.5,281.4 446.4,294.9 466.3,294.9 496.6,160.2 
				493.1,86.3 			"/>
			<polygon class="st2" points="523.4,64.1 533.2,120.3 533.2,235.5 538.1,264 539.4,284.2 518.6,284.2 512.6,115.7 512.6,64.1 			
				"/>
			<polygon class="st4" points="512.6,64.1 479.7,73.2 479.7,150.5 466.3,181.6 469.4,263.3 466.3,294.9 518.6,284.2 519.9,107.6 
							"/>
			<polygon class="st3" points="451,67.6 479.7,73.2 513.7,70.4 523.4,64.1 474.4,60.4 			"/>
			<polygon class="st2" points="554.7,135.5 554.7,199.6 560.9,244.7 554.7,282.7 554.7,313.4 520.7,310.8 511.3,162.4 511.3,136.4 
							"/>
			<polygon class="st3" points="494.6,135.5 482.1,139.6 494.6,141.5 523.8,139.6 554.7,135.5 527.3,131.3 			"/>
			<polygon class="st4" points="494.6,141.5 523.8,139.6 533.2,200.5 531.2,316.2 501.2,316.2 489.5,192.6 			"/>
			<path class="st5" d="M482,139.6c0,0-0.5,107.4-5.5,130.1c-2.9,13-4.8,26.2-5.4,39.5v17.6h31.4l-8-185.3L482,139.6z"/>
			<path class="st2" d="M593.8,151.2l9.7-1.9c0,0-2.9,87.3,0,106.3s4.1,40.9,4.1,40.9l2.8,21.8L596,315l-11.6-120.3l6.1-29.7
				L593.8,151.2z"/>
			<path class="st4" d="M573.4,155.4l20.3-4.1c0,0,3.2,35.7,4.9,53.8s0,73.4,0,86.4s-1.2,44.6-1.2,44.6l-26.4-6l-6.1-117.5l4.9-45.6
				L573.4,155.4z"/>
			<path class="st5" d="M559.6,152.6c0,0-0.5,30.5-3.9,57.1c-3.4,26.7-6.3,51.6-6.3,51.6l-6.1,43.2v35.8l30-3.7
				c0,0,6.3-87.8,4.2-114.2s-4.2-50.2-4.2-50.2v-16.7L559.6,152.6z"/>
			<polygon class="st3" points="559.6,152.6 573.4,155.4 603.1,149.3 577.6,149.3 			"/>
			<polygon class="st2" points="573.5,267.8 592.9,267.8 595.8,360.2 595.8,399.8 578.3,399.8 558,321.2 560.9,278.5 			"/>
			<polygon class="st4" points="537.3,267.8 573.5,267.8 573.5,344 576.1,365.8 580.3,384.4 583.6,399.8 526.8,399.8 528.5,330.3 
				524.3,289.2 			"/>
			<polygon class="st6" points="608.8,260.8 608.8,323.5 612.4,350.5 610.6,366.3 610.6,391.8 608.8,399.8 595.8,399.8 585.6,281.3 
				585.6,267.8 			"/>
			<polygon class="st5" points="513,260.8 510.5,345.4 513,369 524.3,376.5 526.8,390.4 526.8,399.8 546.4,397.8 534.1,344.4 
				537.3,267.8 			"/>
			<polygon class="st3" points="513,260.8 537.3,267.8 592.9,267.8 608.8,260.8 593.4,257.1 529.2,257.1 			"/>
			<polygon class="st5" points="485.2,230.9 495.4,230.9 501.4,297.7 510.6,342.8 510.6,380.6 510.6,399.4 489.9,399.4 476.5,288 
							"/>
			<polygon class="st3" points="443,223.2 452.7,230.9 495.4,230.9 527.3,223.2 468,219 			"/>
			<polygon class="st5" points="443,223.2 437.5,317.2 437.5,329.8 437.5,399.4 448.5,399.4 452.7,230.9 			"/>
			<polygon class="st4" points="452.7,230.9 485.2,230.9 491.1,295.7 487.5,311.3 496,357 489.9,399.4 462.5,399.4 450.3,328.5 			
				"/>
			<polygon class="st2" points="450.3,328.5 462.5,399.4 448.5,399.4 			"/>
			<polygon class="st4" points="520.1,225 495.4,230.9 501.4,311.3 510.6,399.4 527.3,399.4 519.1,311.3 520.4,242 			"/>
			<polygon class="st2" points="527.3,223.2 527.3,307.5 522.8,321.4 535.6,399.4 527.3,399.4 510.6,291 511.4,237.8 511.4,227 			
				"/>
			<polygon class="st2" points="1639.2,213.4 1639.2,277.5 1628.4,322.5 1639.2,360.6 1639.2,391.3 1698,388.7 1714.2,240.3 
				1714.2,214.3 			"/>
			<polygon class="st3" points="1743.3,213.4 1764.9,217.5 1743.3,219.4 1692.6,217.5 1639.2,213.4 1686.5,209.2 			"/>
			<polygon class="st4" points="1743.3,219.4 1692.6,217.5 1676.4,278.4 1679.8,394 1731.8,394 1752,270.5 			"/>
			<path class="st5" d="M1764.9,217.5c0,0,0.9,107.4,9.6,130.1s9.3,39.5,9.3,39.5v17.6h-54.4l13.8-185.3L1764.9,217.5z"/>
			<polygon class="st2" points="1605,274.2 1605,338.3 1594.2,383.4 1605,421.4 1605,452.1 1663.8,449.5 1680,301.2 1680,275.1 			
				"/>
			<polygon class="st3" points="1709,274.2 1730.7,278.3 1709,280.3 1658.4,278.3 1605,274.2 1652.3,270 			"/>
			<polygon class="st4" points="1709,280.3 1658.4,278.3 1642.2,339.2 1645.5,454.9 1697.6,454.9 1717.8,331.3 			"/>
			<path class="st5" d="M1730.7,278.3c0,0,0.9,107.4,9.6,130.1s9.3,39.5,9.3,39.5v17.7h-54.4l13.8-185.3L1730.7,278.3z"/>
			<path class="st2" d="M1734.9,271.4l-16.8-1.9c0,0,4.9,87.3,0,106.4s-7.1,40.9-7.1,40.9l-4.9,21.8l25-3.3l20-120.3l-10.5-29.7
				L1734.9,271.4z"/>
			<path class="st4" d="M1770.1,275.5l-35.2-4.1c0,0-5.6,35.7-8.4,53.8s0,73.4,0,86.4s2.1,44.6,2.1,44.6l45.7-6l10.5-117.5
				l-8.4-45.5L1770.1,275.5z"/>
			<path class="st5" d="M1793.9,272.7c0,0,0.8,30.4,6.7,57.1s10.9,51.5,10.9,51.5l10.5,43.2v35.8l-51.9-3.7c0,0-10.9-87.8-7.2-114.3
				s7.2-50.2,7.2-50.2v-16.7L1793.9,272.7z"/>
			<polygon class="st3" points="1793.9,272.8 1770.1,275.5 1718.8,269.5 1762.9,269.5 			"/>
			<polygon class="st5" points="1725.1,377.7 1737,420.2 1737,472.6 1748.3,502.4 1748.3,553 1683.6,553 1667.5,429 1685,390.9 
				1702.6,380.2 			"/>
			<polygon class="st4" points="1650.6,377.7 1702.6,380.2 1694.2,399.3 1691.4,425.7 1685.8,434.1 1683.6,553 1609.9,553 
				1597.9,456.9 1626.7,416.9 1635.9,387.2 			"/>
			<polygon class="st2" points="1583.9,464.8 1619.7,413.2 1628.2,372.8 1650.6,377.7 1634.5,427.1 1620.4,437.3 1609.2,470.1 
				1617.3,553 1583.9,553 			"/>
			<polygon class="st3" points="1725.1,377.7 1696.3,382.5 1643.6,377.7 1628.2,372.8 1690.7,372.8 			"/>
			<polygon class="st5" points="1801.5,364.9 1851.3,359.4 1859.1,454.8 1859.1,525.1 1871.1,573.2 1859.1,586.6 1824.7,586.6 
				1772.3,452 1778.4,378.1 			"/>
			<polygon class="st2" points="1725.9,355.9 1709,412.1 1709,527.2 1700.6,555.8 1698.3,576 1734.3,576 1744.6,407.4 1744.6,355.9 
							"/>
			<polygon class="st4" points="1744.6,355.9 1801.5,364.9 1801.5,442.3 1824.7,473.3 1819.4,555.1 1824.7,586.6 1734.3,576 
				1732,399.4 			"/>
			<polygon class="st3" points="1851.3,359.4 1801.5,364.9 1742.8,362.2 1725.9,355.9 1810.7,352.2 			"/>
			<polygon class="st2" points="1671.9,427.3 1671.9,491.4 1661.1,536.4 1671.9,574.5 1671.9,605.1 1730.7,602.6 1746.9,454.2 
				1746.9,428.2 			"/>
			<polygon class="st3" points="1775.9,427.3 1797.5,431.4 1775.9,433.3 1725.3,431.4 1671.9,427.3 1719.2,423.1 			"/>
			<polygon class="st4" points="1775.9,433.3 1725.3,431.4 1709,492.3 1712.4,607.9 1764.4,607.9 1784.7,484.4 			"/>
			<path class="st5" d="M1797.5,431.4c0,0,0.9,107.4,9.6,130.1c8.7,22.7,9.3,39.5,9.3,39.5v17.6H1762l13.8-185.3L1797.5,431.4z"/>
			<path class="st2" d="M1604.3,443l-16.8-1.9c0,0,4.9,87.3,0,106.3s-7.1,40.9-7.1,40.9l-4.9,21.8l25-3.3l20-120.3l-10.5-29.7
				L1604.3,443z"/>
			<path class="st4" d="M1639.4,447.1l-35.2-4.1c0,0-5.6,35.7-8.4,53.8s0,73.4,0,86.4s2.1,44.6,2.1,44.6l45.7-6l10.5-117.5
				l-8.4-45.5L1639.4,447.1z"/>
			<path class="st5" d="M1663.3,444.3c0,0,0.8,30.4,6.7,57.1s10.9,51.6,10.9,51.6l10.5,43.2V632l-51.9-3.7c0,0-10.9-87.8-7.2-114.3
				c3.7-26.5,7.2-50.2,7.2-50.2v-16.7L1663.3,444.3z"/>
			<polygon class="st3" points="1663.3,444.3 1639.4,447.1 1588.1,441.1 1632.2,441.1 			"/>
			<polygon class="st2" points="1639.4,559.6 1605.7,559.6 1600.8,652 1600.8,691.6 1630.9,691.6 1666.1,613 1661.2,570.2 			"/>
			<polygon class="st4" points="1701.9,559.6 1639.4,559.6 1639.4,635.7 1634.8,657.6 1627.6,676.1 1621.8,691.6 1720.2,691.6 
				1717.2,622.1 1724.4,580.9 			"/>
			<polygon class="st6" points="1578.3,552.6 1578.3,615.3 1571.9,642.2 1575.1,658 1575.1,683.6 1578.3,691.6 1600.8,691.6 
				1618.3,573 1618.3,559.6 			"/>
			<polygon class="st5" points="1744,552.6 1748.3,637.1 1744,660.8 1724.4,668.2 1720.2,682.2 1720.2,691.6 1686.2,689.6 
				1707.5,636.2 1701.9,559.6 			"/>
			<polygon class="st3" points="1744,552.6 1701.9,559.6 1605.7,559.6 1578.3,552.6 1605,548.9 1715.9,548.9 			"/>
			<polygon class="st5" points="1792.1,522.6 1774.4,522.6 1764,589.5 1748.1,634.6 1748.1,672.4 1748.1,691.2 1783.9,691.2 
				1807.1,579.8 			"/>
			<polygon class="st3" points="1865.1,515 1848.2,522.6 1774.4,522.6 1719.2,515 1821.9,510.8 			"/>
			<polygon class="st5" points="1865.1,515 1874.5,609 1874.5,621.6 1874.5,691.2 1855.6,691.2 1848.2,522.6 			"/>
			<polygon class="st4" points="1848.2,522.6 1792.1,522.6 1781.8,587.4 1788.2,603.1 1773.4,648.7 1783.9,691.2 1831.3,691.2 
				1852.5,620.2 			"/>
			<polygon class="st2" points="1852.5,620.2 1831.3,691.2 1855.6,691.2 			"/>
			<polygon class="st4" points="1731.8,516.7 1774.4,522.6 1764,603.1 1748.1,691.2 1719.2,691.2 1733.4,603.1 1731.3,533.8 			"/>
			<polygon class="st2" points="1719.2,515 1719.2,599.3 1727,613.2 1704.9,691.2 1719.2,691.2 1748.1,582.7 1746.8,529.6 
				1746.8,518.8 			"/>
			<rect x="320" y="164.8" class="st9" width="1600" height="234.3"/>
			
				<image style="overflow:visible;enable-background:new    ;" width="500" height="504" xlink:href="4CD1B80E.png"  transform="matrix(0.38 0 0 0.38 1025.09 179.14)">
			</image>
			<rect x="320" y="164.8" class="st10" width="1600" height="234"/>
			<polygon class="st2" points="413.1,210.2 413.1,274.3 419.4,319.3 413.1,357.4 413.1,388.1 379.1,385.5 369.8,237.1 369.8,211.1 
							"/>
			<polygon class="st3" points="353,210.2 340.5,214.3 353,216.2 382.3,214.3 413.1,210.2 385.8,206 			"/>
			<polygon class="st4" points="353,216.2 382.3,214.3 391.6,275.2 389.7,390.8 359.6,390.8 347.9,267.3 			"/>
			<path class="st5" d="M340.5,214.3c0,0-0.5,107.4-5.5,130.1c-2.9,13-4.8,26.2-5.4,39.5v17.6H361l-8-185.3L340.5,214.3z"/>
			<polygon class="st2" points="432.9,271 432.9,335.1 439.1,380.2 432.9,418.2 432.9,448.9 398.9,446.3 389.5,298 389.5,272 			"/>
			<polygon class="st3" points="372.8,271 360.3,275.1 372.8,277.1 402,275.1 432.9,271 405.6,266.8 			"/>
			<polygon class="st4" points="372.8,277.1 402,275.1 411.4,336 409.5,451.7 379.4,451.7 367.7,328.1 			"/>
			<path class="st5" d="M360.3,275.1c0,0-0.5,107.4-5.5,130.1c-2.9,13-4.8,26.2-5.4,39.5v17.6h31.4l-8-185.3L360.3,275.1z"/>
			<path class="st2" d="M357.8,268.2l9.7-1.9c0,0-2.9,87.3,0,106.4c2.9,19,4.1,40.9,4.1,40.9l2.8,21.8l-14.5-3.2l-11.5-120.3
				l6.1-29.7L357.8,268.2z"/>
			<path class="st4" d="M337.5,272.3l20.3-4.1c0,0,3.2,35.7,4.9,53.8c1.7,18.1,0,73.4,0,86.4s-1.2,44.6-1.2,44.6l-26.4-6L329,329.4
				l4.9-45.5L337.5,272.3z"/>
			<path class="st5" d="M323.7,269.6c0,0-0.4,30.4-3.9,57.1s-6.3,51.5-6.3,51.5l-6.1,43.2v35.8l30-3.7c0,0,6.3-87.8,4.2-114.3
				s-4.2-50.2-4.2-50.2v-16.7L323.7,269.6z"/>
			<polygon class="st3" points="323.7,269.6 337.5,272.3 367.1,266.3 341.7,266.3 			"/>
			<polygon class="st5" points="363.5,374.5 356.6,417 356.6,469.5 350.1,499.2 350.1,549.8 387.4,549.8 396.8,425.8 386.6,387.7 
				376.5,377 			"/>
			<polygon class="st4" points="406.5,374.5 376.5,377 381.4,396.1 383,422.6 386.2,430.9 387.4,549.8 430.1,549.8 437,453.7 
				420.3,413.7 415.1,384 			"/>
			<polygon class="st2" points="445.1,461.6 424.4,410 419.5,369.6 406.5,374.5 415.9,423.9 424,434.2 430.5,466.9 425.8,549.8 
				445.1,549.8 			"/>
			<polygon class="st3" points="363.5,374.5 380.1,379.4 410.6,374.5 419.5,369.6 383.4,369.6 			"/>
			<polygon class="st5" points="319.3,361.7 290.5,356.2 286,451.6 286,522 279.1,570 286,583.5 305.9,583.5 336.2,448.8 
				332.7,374.9 			"/>
			<polygon class="st2" points="363,352.7 372.8,408.9 372.8,524.1 377.6,552.6 379,572.8 358.2,572.8 352.2,404.2 352.2,352.7 			
				"/>
			<polygon class="st4" points="352.2,352.7 319.3,361.7 319.3,439.1 305.9,470.1 309,551.9 305.9,583.5 358.2,572.8 359.5,396.2 
							"/>
			<polygon class="st3" points="290.5,356.2 319.3,361.7 353.2,359 363,352.7 314,349 			"/>
			<polygon class="st2" points="394.2,424.1 394.2,488.2 400.5,533.2 394.2,571.3 394.2,602 360.3,599.4 350.9,451 350.9,425 			"/>
			<polygon class="st3" points="334.1,424.1 321.6,428.2 334.1,430.1 363.4,428.2 394.2,424.1 366.9,419.9 			"/>
			<polygon class="st4" points="334.1,430.1 363.4,428.2 372.8,489.1 370.8,604.7 340.8,604.7 329,481.2 			"/>
			<path class="st5" d="M321.6,428.2c0,0-0.5,107.4-5.5,130.1c-2.9,13-4.8,26.2-5.4,39.5v17.6h31.4l-8-185.3L321.6,428.2z"/>
			<path class="st2" d="M433.3,439.8l9.7-1.9c0,0-2.9,87.3,0,106.4c2.9,19,4.1,40.9,4.1,40.9L450,607l-14.4-3.3L424,483.4l6.1-29.7
				L433.3,439.8z"/>
			<path class="st4" d="M413,443.9l20.3-4.1c0,0,3.2,35.7,4.9,53.8s0,73.4,0,86.4s-1.2,44.6-1.2,44.6l-26.4-6L404.5,501l4.9-45.5
				L413,443.9z"/>
			<path class="st5" d="M399.2,441.2c0,0-0.5,30.4-3.9,57.1c-3.4,26.7-6.3,51.5-6.3,51.5l-6.1,43.2v35.8l30-3.8
				c0,0,6.3-87.8,4.2-114.3c-2.1-26.5-4.2-50.1-4.2-50.1v-16.7L399.2,441.2z"/>
			<polygon class="st3" points="399.2,441.1 413,443.9 442.6,437.9 417.2,437.9 			"/>
			<polygon class="st2" points="413,556.4 432.5,556.4 435.4,648.8 435.4,688.4 417.9,688.4 397.6,609.8 400.4,567.1 			"/>
			<polygon class="st4" points="376.9,556.4 413,556.4 413,632.5 415.7,654.4 419.8,672.9 423.2,688.4 366.3,688.4 368,618.9 
				363.9,577.7 			"/>
			<polygon class="st6" points="448.4,549.4 448.4,612.1 452,639 450.2,654.8 450.2,680.4 448.4,688.4 435.4,688.4 425.2,569.8 
				425.2,556.4 			"/>
			<polygon class="st5" points="352.5,549.4 350.1,633.9 352.5,657.6 363.9,665 366.3,679 366.3,688.4 386,686.4 373.6,633 
				376.9,556.4 			"/>
			<polygon class="st3" points="352.5,549.4 376.9,556.4 432.5,556.4 448.4,549.4 432.9,545.7 368.8,545.7 			"/>
			<polygon class="st5" points="324.7,519.4 335,519.4 341,586.3 350.2,631.4 350.2,669.2 350.2,688 329.5,688 316.1,576.6 			"/>
			<polygon class="st3" points="282.6,511.8 292.3,519.4 335,519.4 366.9,511.8 307.5,507.6 			"/>
			<polygon class="st5" points="282.6,511.8 277.1,605.8 277.1,618.4 277.1,688 288.1,688 292.3,519.4 			"/>
			<polygon class="st4" points="292.3,519.4 324.7,519.4 330.7,584.2 327,599.9 335.6,645.5 329.5,688 302.1,688 289.9,617.1 			"/>
			<polygon class="st2" points="289.9,617.1 302.1,688 288.1,688 			"/>
			<polygon class="st4" points="359.6,513.5 335,519.4 341,599.9 350.2,688 366.9,688 358.7,599.9 359.9,530.6 			"/>
			<polygon class="st2" points="366.9,511.8 366.9,596.1 362.4,610 375.1,688 366.9,688 350.2,579.6 350.9,526.4 350.9,515.6 			"/>
			<polygon class="st2" points="1838.4,91.3 1838.4,155.4 1831.3,200.5 1838.4,238.5 1838.4,269.2 1877.2,266.6 1887.9,118.2 
				1887.9,92.2 			"/>
			<polygon class="st3" points="1907.2,91.3 1921.4,95.4 1907.2,97.3 1873.7,95.4 1838.4,91.3 1869.7,87.1 			"/>
			<polygon class="st4" points="1907.2,97.3 1873.7,95.4 1862.9,156.3 1865.2,272 1899.6,272 1913,148.4 			"/>
			<path class="st5" d="M1921.4,95.4c0,0,0.6,107.4,6.3,130.1s6.2,39.5,6.2,39.5v17.7H1898l9.2-185.3L1921.4,95.4z"/>
			<polygon class="st2" points="1815.8,152.1 1815.8,216.2 1808.6,261.3 1815.8,299.4 1815.8,330 1854.6,327.5 1865.3,179.1 
				1865.3,153.1 			"/>
			<polygon class="st3" points="1884.5,152.1 1898.8,156.2 1884.5,158.2 1851,156.2 1815.8,152.1 1847,148 			"/>
			<polygon class="st4" points="1884.5,158.2 1851,156.2 1840.3,217.2 1842.6,332.8 1876.9,332.8 1890.3,209.3 			"/>
			<path class="st5" d="M1898.8,156.2c0,0,0.6,107.4,6.3,130.1c5.7,22.8,6.2,39.5,6.2,39.5v17.6h-35.9l9.2-185.3L1898.8,156.2z"/>
			<path class="st2" d="M1901.6,149.3l-11.1-1.9c0,0,3.3,87.3,0,106.3s-4.7,40.9-4.7,40.9l-3.3,21.8l16.5-3.3l13.2-120.3l-7-29.7
				L1901.6,149.3z"/>
			<path class="st4" d="M1924.9,153.5l-23.3-4.1c0,0-3.7,35.7-5.6,53.8s0,73.4,0,86.4s1.4,44.6,1.4,44.6l30.2-6l7-117.5l-5.6-45.6
				L1924.9,153.5z"/>
			<path class="st5" d="M1940.6,150.7c0,0,0.5,30.4,4.4,57.1s7.2,51.6,7.2,51.6l7,43.2v35.8l-34.3-3.7c0,0-7.2-87.8-4.8-114.3
				s4.8-50.2,4.8-50.2v-16.7L1940.6,150.7z"/>
			<polygon class="st3" points="1940.7,150.7 1924.9,153.5 1891,147.4 1920.1,147.4 			"/>
			<polygon class="st5" points="1895.2,255.6 1903,298.1 1903,350.6 1910.5,380.3 1910.5,430.9 1867.8,430.9 1857.1,306.9 
				1868.7,268.8 1880.3,258.2 			"/>
			<polygon class="st4" points="1845.9,255.6 1880.3,258.2 1874.7,277.2 1872.9,303.7 1869.1,312 1867.8,430.9 1819,430.9 
				1811.1,334.8 1830.1,294.8 1836.2,265.1 			"/>
			<polygon class="st2" points="1801.8,342.7 1825.5,291.1 1831.1,250.7 1845.9,255.6 1835.2,305.1 1825.9,315.3 1818.5,348 
				1823.9,430.9 1801.8,430.9 			"/>
			<polygon class="st3" points="1895.2,255.6 1876.1,260.5 1841.3,255.6 1831.1,250.7 1872.4,250.7 			"/>
			<polygon class="st5" points="1945.7,242.9 1978.6,237.3 1983.8,332.7 1983.8,403.1 1991.7,451.1 1983.8,464.6 1961,464.6 
				1926.3,329.9 1930.4,256 			"/>
			<polygon class="st2" points="1895.7,233.8 1884.5,290 1884.5,405.2 1879,433.7 1877.4,453.9 1901.2,453.9 1908.1,285.4 
				1908.1,233.8 			"/>
			<polygon class="st4" points="1908.1,233.8 1945.7,242.9 1945.7,320.2 1961,351.3 1957.5,433 1961,464.6 1901.2,453.9 
				1899.7,277.3 			"/>
			<polygon class="st3" points="1978.6,237.3 1945.7,242.9 1906.9,240.1 1895.7,233.8 1951.7,230.1 			"/>
			<polygon class="st2" points="1860,305.2 1860,369.3 1852.8,414.4 1860,452.4 1860,483.1 1898.8,480.5 1909.5,332.1 1909.5,306.1 
							"/>
			<polygon class="st3" points="1928.8,305.2 1943,309.3 1928.8,311.2 1895.3,309.3 1860,305.2 1891.2,301 			"/>
			<polygon class="st4" points="1928.8,311.2 1895.3,309.3 1884.5,370.2 1886.8,485.9 1921.2,485.9 1934.5,362.3 			"/>
			<path class="st5" d="M1943,309.3c0,0,0.6,107.4,6.3,130.1s6.2,39.5,6.2,39.5v17.6h-35.9l9.2-185.3L1943,309.3z"/>
			<path class="st2" d="M1815.3,320.9l-11.1-1.9c0,0,3.3,87.3,0,106.3s-4.7,40.9-4.7,40.9l-3.3,21.8l16.5-3.3l13.2-120.3l-7-29.7
				L1815.3,320.9z"/>
			<path class="st4" d="M1838.5,325l-23.3-4.1c0,0-3.7,35.7-5.6,53.8s0,73.4,0,86.4s1.4,44.6,1.4,44.6l30.2-6l7-117.5l-5.6-45.5
				L1838.5,325z"/>
			<path class="st5" d="M1854.3,322.3c0,0,0.5,30.4,4.4,57.1s7.2,51.5,7.2,51.5l7,43.2v35.8l-34.3-3.7c0,0-7.2-87.8-4.8-114.3
				s4.8-50.2,4.8-50.2V325L1854.3,322.3z"/>
			<polygon class="st3" points="1854.3,322.3 1838.5,325.1 1804.6,319 1833.7,319 			"/>
			<polygon class="st2" points="1838.5,437.5 1816.2,437.5 1812.9,529.9 1812.9,569.5 1832.9,569.5 1856.1,490.9 1852.9,448.2 			
				"/>
			<polygon class="st4" points="1879.8,437.5 1838.5,437.5 1838.5,513.6 1835.4,535.5 1830.7,554.1 1826.9,569.5 1891.9,569.5 
				1889.9,500 1894.7,458.9 			"/>
			<polygon class="st6" points="1798.1,430.5 1798.1,493.2 1793.9,520.1 1796,535.9 1796,561.5 1798.1,569.5 1812.9,569.5 
				1824.6,451 1824.6,437.5 			"/>
			<polygon class="st5" points="1907.7,430.5 1910.5,515.1 1907.7,538.7 1894.7,546.2 1891.9,560.1 1891.9,569.5 1869.4,567.5 
				1883.5,514.1 1879.8,437.5 			"/>
			<polygon class="st3" points="1907.7,430.5 1879.8,437.5 1816.2,437.5 1798.1,430.5 1815.7,426.8 1889.1,426.8 			"/>
			<polygon class="st5" points="1939.5,400.6 1927.8,400.6 1920.9,467.4 1910.4,512.5 1910.4,550.3 1910.4,569.1 1934,569.1 
				1949.4,457.7 			"/>
			<polygon class="st3" points="1987.7,392.9 1976.5,400.6 1927.8,400.6 1891.3,392.9 1959.1,388.7 			"/>
			<polygon class="st5" points="1987.7,392.9 1994,486.9 1994,499.5 1994,569.1 1981.4,569.1 1976.5,400.6 			"/>
			<polygon class="st4" points="1976.5,400.6 1939.5,400.6 1932.7,465.4 1936.8,481 1927.1,526.6 1934,569.1 1965.4,569.1 
				1979.4,498.2 			"/>
			<polygon class="st2" points="1979.4,498.2 1965.4,569.1 1981.4,569.1 			"/>
			<polygon class="st4" points="1899.6,394.6 1927.8,400.6 1920.9,481 1910.4,569.1 1891.3,569.1 1900.6,481 1899.2,411.7 			"/>
			<polygon class="st2" points="1891.3,392.9 1891.3,477.2 1896.4,491.1 1881.8,569.1 1891.3,569.1 1910.4,460.7 1909.5,407.5 
				1909.5,396.7 			"/>
			<rect x="320" y="165" class="st10" width="1600" height="234"/>
		</g>
	</g>
</g>
</svg>
