<svg id="Layer_1" data-name="Layer 1" xmlns="http://www.w3.org/2000/svg" viewBox="0 0 120 121.08"><defs><style>.cls-1{fill:#de5926;}.cls-2{fill:#f7f7fa;}</style></defs><title>logo</title><g id="logo"><polygon class="cls-1" points="51.87 19.8 66.21 19.8 66.21 10.82 75.77 10.82 75.77 0 48.62 0 42.31 10.82 51.87 10.82 51.87 19.8"/><polygon class="cls-1" points="66.21 29.36 51.87 29.36 51.87 38.33 42.31 38.31 42.31 49.16 69.56 49.16 75.77 38.33 66.21 38.33 66.21 29.36"/></g><g id="logotext"><path class="cls-2" d="M20.56,69.32h5.31V76.5h6.81V69.32H38V88.48H32.69V81.2H25.87v7.28H20.56V69.32Z"/><path class="cls-2" d="M48,69.19h5.12l8.16,19.3H55.61l-1.39-3.42H46.82l-1.37,3.42H39.87Zm4.65,11.74-2.13-5.45-2.16,5.45h4.29Z"/><path class="cls-2" d="M61.28,79V78.9a9.84,9.84,0,0,1,10.1-10,9.38,9.38,0,0,1,8.13,4l-4,3.09a5.12,5.12,0,0,0-4.19-2.25c-2.68,0-4.57,2.27-4.57,5.06V78.9c0,2.87,1.89,5.12,4.57,5.12a5.23,5.23,0,0,0,4.32-2.33l4,2.85A10.09,10.09,0,0,1,61.28,79Z"/><path class="cls-2" d="M81.92,69.32h5.31V77.1l6.6-7.77h6.3l-7.26,8.24,7.5,10.92H94l-4.82-7.12-1.94,2.16v5H81.92V69.32Z"/><path class="cls-2" d="M0,101.54H5.34V120.7H0V101.54Z"/><path class="cls-2" d="M8.85,101.54h5.31V116h9.28v4.65H8.85V101.54Z"/><path class="cls-2" d="M25.71,101.54H31V116H40.3v4.65H25.71V101.54Z"/><path class="cls-2" d="M42.69,101.54H48V120.7H42.69V101.54Z"/><path class="cls-2" d="M51.53,101.54h5l7.88,10.13V101.54h5.26V120.7H65l-8.18-10.51V120.7H51.53V101.54Z"/><path class="cls-2" d="M72.36,111.17v-0.06A10.33,10.33,0,0,1,93,111.06v0.05A10.33,10.33,0,0,1,72.36,111.17Zm15.22,0v-0.06a5,5,0,0,0-4.93-5.17,4.88,4.88,0,0,0-4.84,5.12v0.05a5,5,0,0,0,4.9,5.17A4.89,4.89,0,0,0,87.58,111.17Z"/><path class="cls-2" d="M95.89,101.54h5.34V120.7H95.89V101.54Z"/><path class="cls-2" d="M103.27,117.85l3-3.53a9.86,9.86,0,0,0,6.21,2.3c1.43,0,2.19-.49,2.19-1.31v-0.05c0-.8-0.63-1.23-3.23-1.83-4.08-.93-7.23-2.08-7.23-6v-0.05c0-3.56,2.82-6.13,7.42-6.13a12.05,12.05,0,0,1,7.88,2.55l-2.66,3.75a9.6,9.6,0,0,0-5.36-1.89c-1.29,0-1.92.55-1.92,1.23v0.05c0,0.88.66,1.26,3.32,1.86,4.41,1,7.14,2.38,7.14,6v0.05c0,3.91-3.09,6.24-7.75,6.24A13.39,13.39,0,0,1,103.27,117.85Z"/></g></svg>