<?xml version="1.0" encoding="UTF-8" standalone="no"?>
<svg width="1920px" height="1080px" viewBox="0 0 1920 1080" version="1.1" xmlns="http://www.w3.org/2000/svg" xmlns:xlink="http://www.w3.org/1999/xlink">
    <!-- Generator: Sketch 42 (36781) - http://www.bohemiancoding.com/sketch -->
    <title>Artboard 2 Copy 4</title>
    <desc>Created with Sketch.</desc>
    <defs>
        <polygon id="path-1" points="0.207155157 78.5719973 48.4852158 78.5719973 48.4852158 0.0697551395 0.207155157 0.0697551395 0.207155157 78.5719973"></polygon>
        <polygon id="path-3" points="0.196797399 73.7118737 46.060955 73.7118737 46.060955 0.0654403886 0.196797399 0.0654403886 0.196797399 73.7118737"></polygon>
        <polygon id="path-5" points="0 0.265209243 0 341.828689 119.799102 341.828689 119.799102 0.265209243 4.4324722e-20 0.265209243"></polygon>
        <polygon id="path-7" points="0.207155157 78.5719973 48.4852158 78.5719973 48.4852158 0.0697551395 0.207155157 0.0697551395 0.207155157 78.5719973"></polygon>
        <polygon id="path-9" points="0.196797399 73.7118737 46.060955 73.7118737 46.060955 0.0654403886 0.196797399 0.0654403886 0.196797399 73.7118737"></polygon>
        <polygon id="path-11" points="0.207155157 78.5719973 48.4852158 78.5719973 48.4852158 0.0697551395 0.207155157 0.0697551395 0.207155157 78.5719973"></polygon>
        <polygon id="path-13" points="0.196797399 73.7118737 46.060955 73.7118737 46.060955 0.0654403886 0.196797399 0.0654403886 0.196797399 73.7118737"></polygon>
        <polygon id="path-15" points="0 0.265209243 0 341.828689 119.799102 341.828689 119.799102 0.265209243 4.4324722e-20 0.265209243"></polygon>
        <polygon id="path-17" points="0.207155157 78.5719973 48.4852158 78.5719973 48.4852158 0.0697551395 0.207155157 0.0697551395 0.207155157 78.5719973"></polygon>
        <polygon id="path-19" points="0.196797399 73.7118737 46.060955 73.7118737 46.060955 0.0654403886 0.196797399 0.0654403886 0.196797399 73.7118737"></polygon>
    </defs>
    <g id="Page-1" stroke="none" stroke-width="1" fill="none" fill-rule="evenodd">
        <g id="Artboard-2-Copy-4">
            <rect id="Rectangle" fill="#142442" x="-89.8231527" y="-23.6870281" width="2113.13547" height="1154.27934"></rect>
            <g id="Group-6" transform="translate(-50.000000, -362.000000)">
                <g id="Group-5">
                    <path d="M0.404848665,328.897156 L32.0887314,424.742575 C32.8358049,427.001889 35.6289058,426.911324 36.2643778,424.606946 L48.7055372,379.519973 C49.3103735,377.329349 51.9152837,377.101842 52.797592,379.163401 L110.439544,513.828863 C111.344611,515.943799 114.035301,515.63404 114.561359,513.354162 L131.249503,441.026351 C131.265258,440.958974 131.283202,440.892035 131.303334,440.826408 L146.258809,392.380215 C146.96912,390.079337 149.799859,390.129213 150.449336,392.453717 L162.297476,434.863551 C162.91019,437.057238 165.525166,437.267244 166.39522,435.192997 L196.689992,362.960127 C197.605125,360.778689 200.388597,361.155388 201.919069,394.010386 L233.89793,560.864516 C233.417387,533.487611 237.416222,532.786716 237.187329,529.610813 L239.913907,467.75705 C239.708648,464.914094 234.650256,446.770452 235.696684,449.354401 L235.696684,449.354401 C236.699784,451.830722 246.867337,457.556885 246.867337,454.822432 L239.913907,402.448689 C239.913907,402.127993 239.965988,401.810359 240.067523,401.512413 L253.912673,360.857879 C254.564338,358.943325 256.806872,358.657191 257.804721,360.361302 L281.241034,400.379693 C281.423098,400.690764 281.54389,401.044274 281.59422,401.415722 L289.674606,460.859666 C290.020789,463.405551 293.040594,463.827751 293.902333,461.450308 L318.561886,393.405307 C319.234121,391.550691 321.411007,391.276808 322.412794,392.92098 L351.763112,441.087603 C352.557014,442.390515 354.177643,442.546269 355.147044,441.412675 L447.21565,333.743481 C448.111963,332.695202 448.057694,330.990653 447.097484,330.021125 L335.369947,217.236974 C334.805812,216.667333 334.030291,216.466514 333.309039,216.703209 L1.86704705,325.525685 C0.617985634,325.935634 -0.0586257707,327.495366 0.404848665,328.897156" id="Fill-1" fill="#1D305E"></path>
                    <path d="M288.845792,313.194979 L316.429407,396.636873 C317.079801,398.603805 319.511441,398.52496 320.064676,396.518796 L330.895803,357.266608 C331.422366,355.359476 333.69017,355.161411 334.458298,356.95618 L384.640703,474.194348 C385.428643,476.035585 387.771126,475.765913 388.229107,473.781078 L402.757608,410.813337 C402.771325,410.75468 402.786946,410.696403 402.804473,410.639269 L415.824534,368.462583 C416.442922,366.459466 418.90733,366.502888 419.472757,368.526573 L429.787608,405.448075 C430.32103,407.357874 432.597597,407.540703 433.355056,405.734888 L459.729328,342.8498 C460.526032,340.950667 462.94929,341.278616 464.281701,369.881791 L492.122121,515.143034 C491.703766,491.309022 495.185105,490.698831 494.985834,487.933927 L497.35956,434.084769 C497.180864,431.609725 492.777087,415.814084 493.688095,418.063639 L493.688095,418.063639 C494.561382,420.219495 503.413134,425.204625 503.413134,422.824043 L497.35956,377.228079 C497.35956,376.948884 497.404901,376.672355 497.493297,376.412967 L509.546721,341.019608 C510.114053,339.35282 512.066377,339.103716 512.935092,340.587295 L533.338471,375.426835 C533.496973,375.69765 533.602133,376.005411 533.64595,376.32879 L540.680639,428.079988 C540.982022,430.296406 543.611029,430.663967 544.361249,428.594194 L565.829566,369.355016 C566.414805,367.74041 568.309976,367.50197 569.182121,368.933367 L594.734162,410.866662 C595.425324,412.000962 596.836224,412.13656 597.680174,411.149666 L677.834019,317.414133 C678.614338,316.501513 678.567092,315.017553 677.731144,314.173493 L580.462465,215.984938 C579.971336,215.489015 579.296177,215.314185 578.668263,215.520248 L290.118764,310.259816 C289.031346,310.616713 288.442296,311.974597 288.845792,313.194979" id="Fill-1-Copy-7" fill="#1D305E"></path>
                    <polygon id="Fill-1-Copy" fill="#1D305E" transform="translate(1026.460519, 397.554770) rotate(180.000000) translate(-1026.460519, -397.554770) " points="1219.6942 364.558882 1187.8021 330.028882 1113.26735 412.03352 1050.24788 291.791016 998.115731 432.569059 979.301268 380.141352 963.234901 417.748691 937.644948 286.98696 900.890957 395.562129 853.331307 355.692659 833.226841 508.122581 1218.20518 492.902337"></polygon>
                    <polygon id="Fill-1-Copy-8" fill="#1D305E" transform="translate(767.981002, 376.494235) rotate(180.000000) translate(-767.981002, -376.494235) " points="961.21468 343.498347 929.322582 308.968347 854.787831 390.972985 791.76836 270.730481 739.636215 411.508524 720.821752 359.080817 704.755385 396.688156 679.165432 265.926424 642.411441 374.501593 594.85179 334.632124 574.747324 487.062045 959.725666 471.841801"></polygon>
                    <polygon id="Fill-1-Copy-2" fill="#4E5D94" transform="translate(356.939993, 354.950842) scale(-1, 1) rotate(180.000000) translate(-356.939993, -354.950842) " points="626.763438 334.185456 582.230643 312.454602 478.153426 364.062791 390.155666 288.390268 317.360514 376.986475 291.088783 343.992012 268.654378 367.659535 232.921636 285.366918 181.599897 353.696808 115.189585 328.605653 87.1165474 424.534767 624.684241 414.956171"></polygon>
                    <polygon id="Fill-1-Copy-9" fill="#4E5D94" transform="translate(833.226841, 354.950842) scale(-1, 1) rotate(180.000000) translate(-833.226841, -354.950842) " points="1103.05029 334.185456 1058.51749 312.454602 954.440274 364.062791 866.442515 288.390268 793.647362 376.986475 767.375632 343.992012 744.941227 367.659535 709.208484 285.366918 657.886745 353.696808 591.476433 328.605653 563.403396 424.534767 1100.97109 414.956171"></polygon>
                    <g id="Page-1-Copy-2" transform="translate(1079.392516, 410.233013) scale(1, -1) translate(-1079.392516, -410.233013) translate(1038.885876, 295.333013)">
                        <path d="M2.72848411e-13,216.689046 L2.72848411e-13,182.30155 L8.24728404,174.401437 L10.0796208,104.697231 L17.4107365,101.444384 L33.4206904,1.45103035 C33.7207739,-0.422346423 36.3472411,-0.506657347 36.7634669,1.34339938 L46.7334305,45.6807803 L56.8136408,54.9747143 L66.8932616,148.378661 L74.2237877,150.973763 L80.6381455,212.506985 L40.3190727,229.235827 L2.72848411e-13,216.689046 Z" id="Fill-1" fill="#7F8CC5"></path>
                        <polygon id="Fill-3" fill="#B7BDDF" points="44.9857984 101.504185 51.5709088 50.2212766 56.6074903 54.8158674 66.7668148 147.964115 74.1559005 150.55271 60.7384854 183.874674 46.9205682 172.780869 48.5784331 115.094156"></polygon>
                        <g id="Group-7" transform="translate(32.021309, 150.663830)">
                            <mask id="mask-2" fill="white">
                                <use xlink:href="#path-1"></use>
                            </mask>
                            <g id="Clip-6"></g>
                            <polygon id="Fill-5" fill="#4D5C94" mask="url(#mask-2)" points="2.02113009 29.4560681 -0.39294322 58.297989 7.46318754 77.9721772 48.6650991 61.1913578 42.1102906 -0.53024486 28.5072556 32.9858102 14.4969549 21.8279868"></polygon>
                        </g>
                        <polygon id="Fill-8" fill="#B7BDDF" points="14.7952333 221.44325 14.7952333 186.555755 24.0039819 164.089978 28.4944945 171.278572 40.1807054 142.822001 42.8655693 96.3924502 45.213331 101.779859 48.8270192 115.40775 47.1588413 173.25856 34.7816903 180.86456 32.3867104 209.620731 40.1807054 229.235827"></polygon>
                        <polygon id="Fill-10" fill="#4D5C94" points="17.2260752 101.192104 24.2793989 163.738442 28.773859 170.914345 40.4681884 142.508014 43.1550549 96.1604358 34.2809784 83.1887729 33.6918057 -3.41060513e-14"></polygon>
                    </g>
                    <g id="Page-1-Copy-4" transform="translate(540.310398, 231.260879) scale(1, -1) translate(-540.310398, -231.260879) translate(458.066916, 0.000000)">
                        <path d="M0,437.20652 L0,367.823976 L16.8229405,351.884172 L20.56057,211.244237 L35.5146957,204.681072 L68.1720531,2.92769728 C68.7841681,-0.852154797 74.1416775,-1.02226624 74.9907015,2.71053374 L95.3275909,92.1686415 L115.889364,110.920713 L136.449934,299.378853 L151.402857,304.614908 L164.486965,428.76851 L82.2434825,462.521757 L0,437.20652 Z" id="Fill-1" fill="#7F8CC5"></path>
                        <polygon id="Fill-10" fill="#4D5C94" points="35.6523471 204.302541 49.7589945 330.58093 58.7479148 345.068771 82.1365735 287.717603 87.5103065 194.143818 69.7621535 167.954584 68.5838082 0"></polygon>
                    </g>
                    <g id="Page-1-Copy" transform="translate(791.706093, 286.744406) scale(-1, -1) translate(-791.706093, -286.744406) translate(729.719626, 113.400000)">
                        <path d="M0,326.947783 L0,275.062763 L12.6793591,263.142804 L15.4963902,157.970734 L26.7672337,153.062728 L51.380907,2.18936381 C51.8422548,-0.63725061 55.8801806,-0.764461792 56.5200854,2.02696656 L71.8478887,68.9247109 L87.3451853,82.9477137 L102.841576,223.878757 L114.111513,227.794336 L123.972934,320.637748 L61.9864671,345.878792 L0,326.947783 Z" id="Fill-1" fill="#7F8CC5"></path>
                        <polygon id="Fill-3" fill="#B7BDDF" points="69.684133 153.843312 79.7447184 76.1419355 87.4394957 83.1034367 102.960686 224.237146 114.249567 228.159258 93.7507383 278.647083 72.6400314 261.838288 75.1728805 174.434177"></polygon>
                        <polygon id="Fill-10" fill="#4D5C94" points="26.7392603 152.987114 37.3192459 247.547692 44.0609361 258.396568 61.6024301 215.450505 65.6327299 145.379995 52.3216151 125.768808 51.4378562 0"></polygon>
                    </g>
                    <g id="Page-1-Copy-7" transform="translate(266.443679, 318.000000) scale(-1, -1) translate(-266.443679, -318.000000) translate(217.235612, 180.600000)">
                        <path d="M0,259.192192 L0,218.059654 L10.0041565,208.609948 L12.2268256,125.233395 L21.1196476,121.342508 L40.5401118,1.7356472 C40.9041204,-0.505188873 44.0900892,-0.606037225 44.5949812,1.60690463 L56.6887899,54.6409787 L68.9163307,65.7579003 L81.1431564,177.482854 L90.0352632,180.586981 L97.8160354,254.189827 L48.9080177,274.2 L0,259.192192 Z" id="Fill-1" fill="#7F8CC5"></path>
                        <polygon id="Fill-3" fill="#B7BDDF" points="55.2090507 121.69908 63.2018623 60 69.3151154 65.5278072 81.6462019 177.595578 90.6148549 180.709946 74.3291947 220.8 57.5574169 207.452911 59.569684 138.049337"></polygon>
                        <polygon id="Fill-10" fill="#4D5C94" points="21.0034432 121.491381 29.3287647 196.584602 34.6337567 205.2 48.4370438 171.095321 51.6084604 115.450353 41.1340311 99.8765565 40.4386069 0"></polygon>
                    </g>
                    <g id="Page-1" transform="translate(69.611412, 426.575498) scale(1, -1) translate(-69.611412, -426.575498) translate(30.605017, 318.275498)">
                        <path d="M0.120020133,204.618075 L0.120020133,172.174748 L7.94965353,164.721285 L9.68919893,98.9579527 L16.6490596,95.8890122 L31.8482536,1.54899284 C32.1331405,-0.218468638 34.6266009,-0.298012866 35.0217486,1.44744702 L44.4868233,43.2781209 L54.0565618,52.0466028 L63.6257406,140.169761 L70.5850416,142.618144 L76.6745699,200.672455 L38.397295,216.455497 L0.120020133,204.618075 Z" id="Fill-1" fill="#7F8CC5"></path>
                        <polygon id="Fill-3" fill="#B7BDDF" points="42.9448727 96.276874 49.1641436 47.7912148 53.9209151 52.1351916 63.5158326 140.202626 70.4944136 142.650024 57.8224105 174.154427 44.7721553 163.665739 46.3379165 109.125574"></polygon>
                        <g id="Group-7" transform="translate(31.390762, 141.753603)">
                            <mask id="mask-4" fill="white">
                                <use xlink:href="#path-3"></use>
                            </mask>
                            <g id="Clip-6"></g>
                            <polygon id="Fill-5" fill="#4D5C94" mask="url(#mask-4)" points="1.8552361 28.7969299 -0.401681979 55.8548144 6.94301773 74.3120425 45.4627009 58.569212 39.3346079 0.665440389 26.6171252 32.1083374 13.5188896 21.6406886"></polygon>
                        </g>
                        <polygon id="Fill-8" fill="#B7BDDF" points="15.1851495 208.148057 15.1851495 175.387848 23.7361303 154.291936 27.905892 161.042201 38.7573735 134.320787 41.2504615 90.7223061 43.4305259 95.7812146 46.7860935 108.578136 45.2370711 162.901458 33.7440024 170.043678 31.5200925 197.046423 38.7573735 215.465477"></polygon>
                        <polygon id="Fill-10" fill="#4D5C94" points="16.8057107 95.4371027 23.4182017 154.426303 27.6317581 161.194097 38.5951918 134.403293 41.1141292 90.6915959 32.7946824 78.4576578 32.2423331 -6.82121026e-14"></polygon>
                    </g>
                </g>
                <g id="Group-5-Copy" transform="translate(787.000000, 0.000000)">
                    <path d="M0.404848665,328.897156 L32.0887314,424.742575 C32.8358049,427.001889 35.6289058,426.911324 36.2643778,424.606946 L48.7055372,379.519973 C49.3103735,377.329349 51.9152837,377.101842 52.797592,379.163401 L110.439544,513.828863 C111.344611,515.943799 114.035301,515.63404 114.561359,513.354162 L131.249503,441.026351 C131.265258,440.958974 131.283202,440.892035 131.303334,440.826408 L146.258809,392.380215 C146.96912,390.079337 149.799859,390.129213 150.449336,392.453717 L162.297476,434.863551 C162.91019,437.057238 165.525166,437.267244 166.39522,435.192997 L196.689992,362.960127 C197.605125,360.778689 200.388597,361.155388 201.919069,394.010386 L233.89793,560.864516 C233.417387,533.487611 237.416222,532.786716 237.187329,529.610813 L239.913907,467.75705 C239.708648,464.914094 234.650256,446.770452 235.696684,449.354401 L235.696684,449.354401 C236.699784,451.830722 246.867337,457.556885 246.867337,454.822432 L239.913907,402.448689 C239.913907,402.127993 239.965988,401.810359 240.067523,401.512413 L253.912673,360.857879 C254.564338,358.943325 256.806872,358.657191 257.804721,360.361302 L281.241034,400.379693 C281.423098,400.690764 281.54389,401.044274 281.59422,401.415722 L289.674606,460.859666 C290.020789,463.405551 293.040594,463.827751 293.902333,461.450308 L318.561886,393.405307 C319.234121,391.550691 321.411007,391.276808 322.412794,392.92098 L351.763112,441.087603 C352.557014,442.390515 354.177643,442.546269 355.147044,441.412675 L447.21565,333.743481 C448.111963,332.695202 448.057694,330.990653 447.097484,330.021125 L335.369947,217.236974 C334.805812,216.667333 334.030291,216.466514 333.309039,216.703209 L1.86704705,325.525685 C0.617985634,325.935634 -0.0586257707,327.495366 0.404848665,328.897156" id="Fill-1" fill="#1D305E"></path>
                    <path d="M288.845792,313.194979 L316.429407,396.636873 C317.079801,398.603805 319.511441,398.52496 320.064676,396.518796 L330.895803,357.266608 C331.422366,355.359476 333.69017,355.161411 334.458298,356.95618 L384.640703,474.194348 C385.428643,476.035585 387.771126,475.765913 388.229107,473.781078 L402.757608,410.813337 C402.771325,410.75468 402.786946,410.696403 402.804473,410.639269 L415.824534,368.462583 C416.442922,366.459466 418.90733,366.502888 419.472757,368.526573 L429.787608,405.448075 C430.32103,407.357874 432.597597,407.540703 433.355056,405.734888 L459.729328,342.8498 C460.526032,340.950667 462.94929,341.278616 464.281701,369.881791 L492.122121,515.143034 C491.703766,491.309022 495.185105,490.698831 494.985834,487.933927 L497.35956,434.084769 C497.180864,431.609725 492.777087,415.814084 493.688095,418.063639 L493.688095,418.063639 C494.561382,420.219495 503.413134,425.204625 503.413134,422.824043 L497.35956,377.228079 C497.35956,376.948884 497.404901,376.672355 497.493297,376.412967 L509.546721,341.019608 C510.114053,339.35282 512.066377,339.103716 512.935092,340.587295 L533.338471,375.426835 C533.496973,375.69765 533.602133,376.005411 533.64595,376.32879 L540.680639,428.079988 C540.982022,430.296406 543.611029,430.663967 544.361249,428.594194 L565.829566,369.355016 C566.414805,367.74041 568.309976,367.50197 569.182121,368.933367 L594.734162,410.866662 C595.425324,412.000962 596.836224,412.13656 597.680174,411.149666 L677.834019,317.414133 C678.614338,316.501513 678.567092,315.017553 677.731144,314.173493 L580.462465,215.984938 C579.971336,215.489015 579.296177,215.314185 578.668263,215.520248 L290.118764,310.259816 C289.031346,310.616713 288.442296,311.974597 288.845792,313.194979" id="Fill-1-Copy-7" fill="#1D305E"></path>
                    <polygon id="Fill-1-Copy" fill="#1D305E" transform="translate(1026.460519, 397.554770) rotate(180.000000) translate(-1026.460519, -397.554770) " points="1219.6942 364.558882 1187.8021 330.028882 1113.26735 412.03352 1050.24788 291.791016 998.115731 432.569059 979.301268 380.141352 963.234901 417.748691 937.644948 286.98696 900.890957 395.562129 853.331307 355.692659 833.226841 508.122581 1218.20518 492.902337"></polygon>
                    <polygon id="Fill-1-Copy-8" fill="#1D305E" transform="translate(767.981002, 376.494235) rotate(180.000000) translate(-767.981002, -376.494235) " points="961.21468 343.498347 929.322582 308.968347 854.787831 390.972985 791.76836 270.730481 739.636215 411.508524 720.821752 359.080817 704.755385 396.688156 679.165432 265.926424 642.411441 374.501593 594.85179 334.632124 574.747324 487.062045 959.725666 471.841801"></polygon>
                    <polygon id="Fill-1-Copy-2" fill="#4E5D94" transform="translate(356.939993, 354.950842) scale(-1, 1) rotate(180.000000) translate(-356.939993, -354.950842) " points="626.763438 334.185456 582.230643 312.454602 478.153426 364.062791 390.155666 288.390268 317.360514 376.986475 291.088783 343.992012 268.654378 367.659535 232.921636 285.366918 181.599897 353.696808 115.189585 328.605653 87.1165474 424.534767 624.684241 414.956171"></polygon>
                    <polygon id="Fill-1-Copy-9" fill="#4E5D94" transform="translate(833.226841, 354.950842) scale(-1, 1) rotate(180.000000) translate(-833.226841, -354.950842) " points="1103.05029 334.185456 1058.51749 312.454602 954.440274 364.062791 866.442515 288.390268 793.647362 376.986475 767.375632 343.992012 744.941227 367.659535 709.208484 285.366918 657.886745 353.696808 591.476433 328.605653 563.403396 424.534767 1100.97109 414.956171"></polygon>
                    <g id="Page-1-Copy-5" transform="translate(1157.676975, 410.834454) scale(-1, -1) translate(-1157.676975, -410.834454) translate(1097.667138, 239.834454)">
                        <g id="Group-3" transform="translate(0.000000, -0.000000)">
                            <mask id="mask-6" fill="white">
                                <use xlink:href="#path-5"></use>
                            </mask>
                            <g id="Clip-2"></g>
                            <path d="M47.8876109,2.96030177 L36.4252929,67.819574 L28.3371308,75.3909706 L23.4737676,79.9436062 L19.426961,214.927836 L6.47543563,224.627498 L-0.000327058722,310.305661 L70.4219568,341.829016 L119.799102,314.346642 L119.799102,266.658274 L103.609695,254.534242 L97.1339328,143.798076 L84.1834976,145.414686 L72.8509129,72.6694046 L64.7562096,58.1199127 L54.3143148,2.92219984 C53.6405738,-0.641962987 48.5188343,-0.611481448 47.8876109,2.96030177" id="Fill-1" fill="#4D5C94" mask="url(#mask-6)"></path>
                        </g>
                        <path d="M43.4945956,137.7035 L32.1989288,101.651156 L28.3598216,74.7923719 L36.4616918,67.2412561 L48.1329709,1.48706095 C48.5096751,-0.635197716 51.6379579,-0.424600181 51.7242177,1.728054 L56.7196431,126.182513 L43.4945956,137.7035 Z" id="Fill-4" fill="#7F8CC5"></path>
                        <polygon id="Fill-6" fill="#4D5C94" points="10.533648 221.505268 25.3410216 269.736857 42.134592 253.592155 39.2249593 145.169617 38.6600975 124.127501 31.9065959 102.270963 28.1091688 75.3319149 23.2921822 79.8852695 19.2819869 214.890818"></polygon>
                        <path d="M52.7062353,204.658025 L62.4133658,220.789585 L75.7617547,244.836239 L83.2188521,139.656337 L72.7613491,72.2066805 L64.7111104,57.6657554 L54.2427639,2.06317258 C53.9499885,0.505177457 51.6522439,0.767381943 51.7151364,2.35148871 L56.6500282,126.432962 L43.5163413,137.979751 L52.7062353,204.658025 Z" id="Fill-8" fill="#B7BDDF"></path>
                        <polygon id="Fill-10" fill="#7F8CC5" points="42.3832686 252.428292 64.5973899 263.28737 64.5973899 290.194044 78.8331237 335.558545 104.526199 321.221999 96.160659 296.1382 94.5979491 267.041689 76.5438243 230.665621 75.5797375 244.226984 52.5219046 204.134597 43.3310884 137.595869 38.8934696 123.33315"></polygon>
                    </g>
                    <g id="Page-1-Copy-2" transform="translate(1079.392516, 410.233013) scale(1, -1) translate(-1079.392516, -410.233013) translate(1038.885876, 295.333013)">
                        <path d="M2.72848411e-13,216.689046 L2.72848411e-13,182.30155 L8.24728404,174.401437 L10.0796208,104.697231 L17.4107365,101.444384 L33.4206904,1.45103035 C33.7207739,-0.422346423 36.3472411,-0.506657347 36.7634669,1.34339938 L46.7334305,45.6807803 L56.8136408,54.9747143 L66.8932616,148.378661 L74.2237877,150.973763 L80.6381455,212.506985 L40.3190727,229.235827 L2.72848411e-13,216.689046 Z" id="Fill-1" fill="#7F8CC5"></path>
                        <polygon id="Fill-3" fill="#B7BDDF" points="44.9857984 101.504185 51.5709088 50.2212766 56.6074903 54.8158674 66.7668148 147.964115 74.1559005 150.55271 60.7384854 183.874674 46.9205682 172.780869 48.5784331 115.094156"></polygon>
                        <g id="Group-7" transform="translate(32.021309, 150.663830)">
                            <mask id="mask-8" fill="white">
                                <use xlink:href="#path-7"></use>
                            </mask>
                            <g id="Clip-6"></g>
                            <polygon id="Fill-5" fill="#4D5C94" mask="url(#mask-8)" points="2.02113009 29.4560681 -0.39294322 58.297989 7.46318754 77.9721772 48.6650991 61.1913578 42.1102906 -0.53024486 28.5072556 32.9858102 14.4969549 21.8279868"></polygon>
                        </g>
                        <polygon id="Fill-8" fill="#B7BDDF" points="14.7952333 221.44325 14.7952333 186.555755 24.0039819 164.089978 28.4944945 171.278572 40.1807054 142.822001 42.8655693 96.3924502 45.213331 101.779859 48.8270192 115.40775 47.1588413 173.25856 34.7816903 180.86456 32.3867104 209.620731 40.1807054 229.235827"></polygon>
                        <polygon id="Fill-10" fill="#4D5C94" points="17.2260752 101.192104 24.2793989 163.738442 28.773859 170.914345 40.4681884 142.508014 43.1550549 96.1604358 34.2809784 83.1887729 33.6918057 -3.41060513e-14"></polygon>
                    </g>
                    <g id="Page-1-Copy-4" transform="translate(540.310398, 231.260879) scale(1, -1) translate(-540.310398, -231.260879) translate(458.066916, 0.000000)">
                        <path d="M0,437.20652 L0,367.823976 L16.8229405,351.884172 L20.56057,211.244237 L35.5146957,204.681072 L68.1720531,2.92769728 C68.7841681,-0.852154797 74.1416775,-1.02226624 74.9907015,2.71053374 L95.3275909,92.1686415 L115.889364,110.920713 L136.449934,299.378853 L151.402857,304.614908 L164.486965,428.76851 L82.2434825,462.521757 L0,437.20652 Z" id="Fill-1" fill="#7F8CC5"></path>
                        <polygon id="Fill-10" fill="#4D5C94" points="35.6523471 204.302541 49.7589945 330.58093 58.7479148 345.068771 82.1365735 287.717603 87.5103065 194.143818 69.7621535 167.954584 68.5838082 0"></polygon>
                    </g>
                    <g id="Page-1-Copy" transform="translate(791.706093, 286.744406) scale(-1, -1) translate(-791.706093, -286.744406) translate(729.719626, 113.400000)">
                        <path d="M0,326.947783 L0,275.062763 L12.6793591,263.142804 L15.4963902,157.970734 L26.7672337,153.062728 L51.380907,2.18936381 C51.8422548,-0.63725061 55.8801806,-0.764461792 56.5200854,2.02696656 L71.8478887,68.9247109 L87.3451853,82.9477137 L102.841576,223.878757 L114.111513,227.794336 L123.972934,320.637748 L61.9864671,345.878792 L0,326.947783 Z" id="Fill-1" fill="#7F8CC5"></path>
                        <polygon id="Fill-3" fill="#B7BDDF" points="69.684133 153.843312 79.7447184 76.1419355 87.4394957 83.1034367 102.960686 224.237146 114.249567 228.159258 93.7507383 278.647083 72.6400314 261.838288 75.1728805 174.434177"></polygon>
                        <polygon id="Fill-10" fill="#4D5C94" points="26.7392603 152.987114 37.3192459 247.547692 44.0609361 258.396568 61.6024301 215.450505 65.6327299 145.379995 52.3216151 125.768808 51.4378562 0"></polygon>
                    </g>
                    <g id="Page-1-Copy-7" transform="translate(266.443679, 318.000000) scale(-1, -1) translate(-266.443679, -318.000000) translate(217.235612, 180.600000)">
                        <path d="M0,259.192192 L0,218.059654 L10.0041565,208.609948 L12.2268256,125.233395 L21.1196476,121.342508 L40.5401118,1.7356472 C40.9041204,-0.505188873 44.0900892,-0.606037225 44.5949812,1.60690463 L56.6887899,54.6409787 L68.9163307,65.7579003 L81.1431564,177.482854 L90.0352632,180.586981 L97.8160354,254.189827 L48.9080177,274.2 L0,259.192192 Z" id="Fill-1" fill="#7F8CC5"></path>
                        <polygon id="Fill-3" fill="#B7BDDF" points="55.2090507 121.69908 63.2018623 60 69.3151154 65.5278072 81.6462019 177.595578 90.6148549 180.709946 74.3291947 220.8 57.5574169 207.452911 59.569684 138.049337"></polygon>
                        <polygon id="Fill-10" fill="#4D5C94" points="21.0034432 121.491381 29.3287647 196.584602 34.6337567 205.2 48.4370438 171.095321 51.6084604 115.450353 41.1340311 99.8765565 40.4386069 0"></polygon>
                    </g>
                    <g id="Page-1" transform="translate(69.611412, 426.575498) scale(1, -1) translate(-69.611412, -426.575498) translate(30.605017, 318.275498)">
                        <path d="M0.120020133,204.618075 L0.120020133,172.174748 L7.94965353,164.721285 L9.68919893,98.9579527 L16.6490596,95.8890122 L31.8482536,1.54899284 C32.1331405,-0.218468638 34.6266009,-0.298012866 35.0217486,1.44744702 L44.4868233,43.2781209 L54.0565618,52.0466028 L63.6257406,140.169761 L70.5850416,142.618144 L76.6745699,200.672455 L38.397295,216.455497 L0.120020133,204.618075 Z" id="Fill-1" fill="#7F8CC5"></path>
                        <polygon id="Fill-3" fill="#B7BDDF" points="42.9448727 96.276874 49.1641436 47.7912148 53.9209151 52.1351916 63.5158326 140.202626 70.4944136 142.650024 57.8224105 174.154427 44.7721553 163.665739 46.3379165 109.125574"></polygon>
                        <g id="Group-7" transform="translate(31.390762, 141.753603)">
                            <mask id="mask-10" fill="white">
                                <use xlink:href="#path-9"></use>
                            </mask>
                            <g id="Clip-6"></g>
                            <polygon id="Fill-5" fill="#4D5C94" mask="url(#mask-10)" points="1.8552361 28.7969299 -0.401681979 55.8548144 6.94301773 74.3120425 45.4627009 58.569212 39.3346079 0.665440389 26.6171252 32.1083374 13.5188896 21.6406886"></polygon>
                        </g>
                        <polygon id="Fill-8" fill="#B7BDDF" points="15.1851495 208.148057 15.1851495 175.387848 23.7361303 154.291936 27.905892 161.042201 38.7573735 134.320787 41.2504615 90.7223061 43.4305259 95.7812146 46.7860935 108.578136 45.2370711 162.901458 33.7440024 170.043678 31.5200925 197.046423 38.7573735 215.465477"></polygon>
                        <polygon id="Fill-10" fill="#4D5C94" points="16.8057107 95.4371027 23.4182017 154.426303 27.6317581 161.194097 38.5951918 134.403293 41.1141292 90.6915959 32.7946824 78.4576578 32.2423331 -6.82121026e-14"></polygon>
                    </g>
                </g>
            </g>
            <g id="Group-6" transform="translate(968.500000, 1151.000000) scale(-1, -1) translate(-968.500000, -1151.000000) translate(-35.000000, 860.000000)">
                <g id="Group-5">
                    <path d="M0.404848665,328.897156 L32.0887314,424.742575 C32.8358049,427.001889 35.6289058,426.911324 36.2643778,424.606946 L48.7055372,379.519973 C49.3103735,377.329349 51.9152837,377.101842 52.797592,379.163401 L110.439544,513.828863 C111.344611,515.943799 114.035301,515.63404 114.561359,513.354162 L131.249503,441.026351 C131.265258,440.958974 131.283202,440.892035 131.303334,440.826408 L146.258809,392.380215 C146.96912,390.079337 149.799859,390.129213 150.449336,392.453717 L162.297476,434.863551 C162.91019,437.057238 165.525166,437.267244 166.39522,435.192997 L196.689992,362.960127 C197.605125,360.778689 200.388597,361.155388 201.919069,394.010386 L233.89793,560.864516 C233.417387,533.487611 237.416222,532.786716 237.187329,529.610813 L239.913907,467.75705 C239.708648,464.914094 234.650256,446.770452 235.696684,449.354401 L235.696684,449.354401 C236.699784,451.830722 246.867337,457.556885 246.867337,454.822432 L239.913907,402.448689 C239.913907,402.127993 239.965988,401.810359 240.067523,401.512413 L253.912673,360.857879 C254.564338,358.943325 256.806872,358.657191 257.804721,360.361302 L281.241034,400.379693 C281.423098,400.690764 281.54389,401.044274 281.59422,401.415722 L289.674606,460.859666 C290.020789,463.405551 293.040594,463.827751 293.902333,461.450308 L318.561886,393.405307 C319.234121,391.550691 321.411007,391.276808 322.412794,392.92098 L351.763112,441.087603 C352.557014,442.390515 354.177643,442.546269 355.147044,441.412675 L447.21565,333.743481 C448.111963,332.695202 448.057694,330.990653 447.097484,330.021125 L335.369947,217.236974 C334.805812,216.667333 334.030291,216.466514 333.309039,216.703209 L1.86704705,325.525685 C0.617985634,325.935634 -0.0586257707,327.495366 0.404848665,328.897156" id="Fill-1" fill="#1D305E"></path>
                    <path d="M288.845792,313.194979 L316.429407,396.636873 C317.079801,398.603805 319.511441,398.52496 320.064676,396.518796 L330.895803,357.266608 C331.422366,355.359476 333.69017,355.161411 334.458298,356.95618 L384.640703,474.194348 C385.428643,476.035585 387.771126,475.765913 388.229107,473.781078 L402.757608,410.813337 C402.771325,410.75468 402.786946,410.696403 402.804473,410.639269 L415.824534,368.462583 C416.442922,366.459466 418.90733,366.502888 419.472757,368.526573 L429.787608,405.448075 C430.32103,407.357874 432.597597,407.540703 433.355056,405.734888 L459.729328,342.8498 C460.526032,340.950667 462.94929,341.278616 464.281701,369.881791 L492.122121,515.143034 C491.703766,491.309022 495.185105,490.698831 494.985834,487.933927 L497.35956,434.084769 C497.180864,431.609725 492.777087,415.814084 493.688095,418.063639 L493.688095,418.063639 C494.561382,420.219495 503.413134,425.204625 503.413134,422.824043 L497.35956,377.228079 C497.35956,376.948884 497.404901,376.672355 497.493297,376.412967 L509.546721,341.019608 C510.114053,339.35282 512.066377,339.103716 512.935092,340.587295 L533.338471,375.426835 C533.496973,375.69765 533.602133,376.005411 533.64595,376.32879 L540.680639,428.079988 C540.982022,430.296406 543.611029,430.663967 544.361249,428.594194 L565.829566,369.355016 C566.414805,367.74041 568.309976,367.50197 569.182121,368.933367 L594.734162,410.866662 C595.425324,412.000962 596.836224,412.13656 597.680174,411.149666 L677.834019,317.414133 C678.614338,316.501513 678.567092,315.017553 677.731144,314.173493 L580.462465,215.984938 C579.971336,215.489015 579.296177,215.314185 578.668263,215.520248 L290.118764,310.259816 C289.031346,310.616713 288.442296,311.974597 288.845792,313.194979" id="Fill-1-Copy-7" fill="#1D305E"></path>
                    <polygon id="Fill-1-Copy" fill="#1D305E" transform="translate(1026.460519, 397.554770) rotate(180.000000) translate(-1026.460519, -397.554770) " points="1219.6942 364.558882 1187.8021 330.028882 1113.26735 412.03352 1050.24788 291.791016 998.115731 432.569059 979.301268 380.141352 963.234901 417.748691 937.644948 286.98696 900.890957 395.562129 853.331307 355.692659 833.226841 508.122581 1218.20518 492.902337"></polygon>
                    <polygon id="Fill-1-Copy-8" fill="#1D305E" transform="translate(767.981002, 376.494235) rotate(180.000000) translate(-767.981002, -376.494235) " points="961.21468 343.498347 929.322582 308.968347 854.787831 390.972985 791.76836 270.730481 739.636215 411.508524 720.821752 359.080817 704.755385 396.688156 679.165432 265.926424 642.411441 374.501593 594.85179 334.632124 574.747324 487.062045 959.725666 471.841801"></polygon>
                    <polygon id="Fill-1-Copy-2" fill="#4E5D94" transform="translate(356.939993, 354.950842) scale(-1, 1) rotate(180.000000) translate(-356.939993, -354.950842) " points="626.763438 334.185456 582.230643 312.454602 478.153426 364.062791 390.155666 288.390268 317.360514 376.986475 291.088783 343.992012 268.654378 367.659535 232.921636 285.366918 181.599897 353.696808 115.189585 328.605653 87.1165474 424.534767 624.684241 414.956171"></polygon>
                    <polygon id="Fill-1-Copy-9" fill="#4E5D94" transform="translate(833.226841, 354.950842) scale(-1, 1) rotate(180.000000) translate(-833.226841, -354.950842) " points="1103.05029 334.185456 1058.51749 312.454602 954.440274 364.062791 866.442515 288.390268 793.647362 376.986475 767.375632 343.992012 744.941227 367.659535 709.208484 285.366918 657.886745 353.696808 591.476433 328.605653 563.403396 424.534767 1100.97109 414.956171"></polygon>
                    <g id="Page-1-Copy-2" transform="translate(1079.392516, 410.233013) scale(1, -1) translate(-1079.392516, -410.233013) translate(1038.885876, 295.333013)">
                        <path d="M2.72848411e-13,216.689046 L2.72848411e-13,182.30155 L8.24728404,174.401437 L10.0796208,104.697231 L17.4107365,101.444384 L33.4206904,1.45103035 C33.7207739,-0.422346423 36.3472411,-0.506657347 36.7634669,1.34339938 L46.7334305,45.6807803 L56.8136408,54.9747143 L66.8932616,148.378661 L74.2237877,150.973763 L80.6381455,212.506985 L40.3190727,229.235827 L2.72848411e-13,216.689046 Z" id="Fill-1" fill="#7F8CC5"></path>
                        <polygon id="Fill-3" fill="#B7BDDF" points="44.9857984 101.504185 51.5709088 50.2212766 56.6074903 54.8158674 66.7668148 147.964115 74.1559005 150.55271 60.7384854 183.874674 46.9205682 172.780869 48.5784331 115.094156"></polygon>
                        <g id="Group-7" transform="translate(32.021309, 150.663830)">
                            <mask id="mask-12" fill="white">
                                <use xlink:href="#path-11"></use>
                            </mask>
                            <g id="Clip-6"></g>
                            <polygon id="Fill-5" fill="#4D5C94" mask="url(#mask-12)" points="2.02113009 29.4560681 -0.39294322 58.297989 7.46318754 77.9721772 48.6650991 61.1913578 42.1102906 -0.53024486 28.5072556 32.9858102 14.4969549 21.8279868"></polygon>
                        </g>
                        <polygon id="Fill-8" fill="#B7BDDF" points="14.7952333 221.44325 14.7952333 186.555755 24.0039819 164.089978 28.4944945 171.278572 40.1807054 142.822001 42.8655693 96.3924502 45.213331 101.779859 48.8270192 115.40775 47.1588413 173.25856 34.7816903 180.86456 32.3867104 209.620731 40.1807054 229.235827"></polygon>
                        <polygon id="Fill-10" fill="#4D5C94" points="17.2260752 101.192104 24.2793989 163.738442 28.773859 170.914345 40.4681884 142.508014 43.1550549 96.1604358 34.2809784 83.1887729 33.6918057 -3.41060513e-14"></polygon>
                    </g>
                    <g id="Page-1-Copy-4" transform="translate(540.310398, 231.260879) scale(1, -1) translate(-540.310398, -231.260879) translate(458.066916, 0.000000)">
                        <path d="M0,437.20652 L0,367.823976 L16.8229405,351.884172 L20.56057,211.244237 L35.5146957,204.681072 L68.1720531,2.92769728 C68.7841681,-0.852154797 74.1416775,-1.02226624 74.9907015,2.71053374 L95.3275909,92.1686415 L115.889364,110.920713 L136.449934,299.378853 L151.402857,304.614908 L164.486965,428.76851 L82.2434825,462.521757 L0,437.20652 Z" id="Fill-1" fill="#7F8CC5"></path>
                        <polygon id="Fill-10" fill="#4D5C94" points="35.6523471 204.302541 49.7589945 330.58093 58.7479148 345.068771 82.1365735 287.717603 87.5103065 194.143818 69.7621535 167.954584 68.5838082 0"></polygon>
                    </g>
                    <g id="Page-1-Copy" transform="translate(791.706093, 286.744406) scale(-1, -1) translate(-791.706093, -286.744406) translate(729.719626, 113.400000)">
                        <path d="M0,326.947783 L0,275.062763 L12.6793591,263.142804 L15.4963902,157.970734 L26.7672337,153.062728 L51.380907,2.18936381 C51.8422548,-0.63725061 55.8801806,-0.764461792 56.5200854,2.02696656 L71.8478887,68.9247109 L87.3451853,82.9477137 L102.841576,223.878757 L114.111513,227.794336 L123.972934,320.637748 L61.9864671,345.878792 L0,326.947783 Z" id="Fill-1" fill="#7F8CC5"></path>
                        <polygon id="Fill-3" fill="#B7BDDF" points="69.684133 153.843312 79.7447184 76.1419355 87.4394957 83.1034367 102.960686 224.237146 114.249567 228.159258 93.7507383 278.647083 72.6400314 261.838288 75.1728805 174.434177"></polygon>
                        <polygon id="Fill-10" fill="#4D5C94" points="26.7392603 152.987114 37.3192459 247.547692 44.0609361 258.396568 61.6024301 215.450505 65.6327299 145.379995 52.3216151 125.768808 51.4378562 0"></polygon>
                    </g>
                    <g id="Page-1-Copy-7" transform="translate(266.443679, 318.000000) scale(-1, -1) translate(-266.443679, -318.000000) translate(217.235612, 180.600000)">
                        <path d="M0,259.192192 L0,218.059654 L10.0041565,208.609948 L12.2268256,125.233395 L21.1196476,121.342508 L40.5401118,1.7356472 C40.9041204,-0.505188873 44.0900892,-0.606037225 44.5949812,1.60690463 L56.6887899,54.6409787 L68.9163307,65.7579003 L81.1431564,177.482854 L90.0352632,180.586981 L97.8160354,254.189827 L48.9080177,274.2 L0,259.192192 Z" id="Fill-1" fill="#7F8CC5"></path>
                        <polygon id="Fill-3" fill="#B7BDDF" points="55.2090507 121.69908 63.2018623 60 69.3151154 65.5278072 81.6462019 177.595578 90.6148549 180.709946 74.3291947 220.8 57.5574169 207.452911 59.569684 138.049337"></polygon>
                        <polygon id="Fill-10" fill="#4D5C94" points="21.0034432 121.491381 29.3287647 196.584602 34.6337567 205.2 48.4370438 171.095321 51.6084604 115.450353 41.1340311 99.8765565 40.4386069 0"></polygon>
                    </g>
                    <g id="Page-1" transform="translate(69.611412, 426.575498) scale(1, -1) translate(-69.611412, -426.575498) translate(30.605017, 318.275498)">
                        <path d="M0.120020133,204.618075 L0.120020133,172.174748 L7.94965353,164.721285 L9.68919893,98.9579527 L16.6490596,95.8890122 L31.8482536,1.54899284 C32.1331405,-0.218468638 34.6266009,-0.298012866 35.0217486,1.44744702 L44.4868233,43.2781209 L54.0565618,52.0466028 L63.6257406,140.169761 L70.5850416,142.618144 L76.6745699,200.672455 L38.397295,216.455497 L0.120020133,204.618075 Z" id="Fill-1" fill="#7F8CC5"></path>
                        <polygon id="Fill-3" fill="#B7BDDF" points="42.9448727 96.276874 49.1641436 47.7912148 53.9209151 52.1351916 63.5158326 140.202626 70.4944136 142.650024 57.8224105 174.154427 44.7721553 163.665739 46.3379165 109.125574"></polygon>
                        <g id="Group-7" transform="translate(31.390762, 141.753603)">
                            <mask id="mask-14" fill="white">
                                <use xlink:href="#path-13"></use>
                            </mask>
                            <g id="Clip-6"></g>
                            <polygon id="Fill-5" fill="#4D5C94" mask="url(#mask-14)" points="1.8552361 28.7969299 -0.401681979 55.8548144 6.94301773 74.3120425 45.4627009 58.569212 39.3346079 0.665440389 26.6171252 32.1083374 13.5188896 21.6406886"></polygon>
                        </g>
                        <polygon id="Fill-8" fill="#B7BDDF" points="15.1851495 208.148057 15.1851495 175.387848 23.7361303 154.291936 27.905892 161.042201 38.7573735 134.320787 41.2504615 90.7223061 43.4305259 95.7812146 46.7860935 108.578136 45.2370711 162.901458 33.7440024 170.043678 31.5200925 197.046423 38.7573735 215.465477"></polygon>
                        <polygon id="Fill-10" fill="#4D5C94" points="16.8057107 95.4371027 23.4182017 154.426303 27.6317581 161.194097 38.5951918 134.403293 41.1141292 90.6915959 32.7946824 78.4576578 32.2423331 -6.82121026e-14"></polygon>
                    </g>
                </g>
                <g id="Group-5-Copy" transform="translate(787.000000, 0.000000)">
                    <path d="M0.404848665,328.897156 L32.0887314,424.742575 C32.8358049,427.001889 35.6289058,426.911324 36.2643778,424.606946 L48.7055372,379.519973 C49.3103735,377.329349 51.9152837,377.101842 52.797592,379.163401 L110.439544,513.828863 C111.344611,515.943799 114.035301,515.63404 114.561359,513.354162 L131.249503,441.026351 C131.265258,440.958974 131.283202,440.892035 131.303334,440.826408 L146.258809,392.380215 C146.96912,390.079337 149.799859,390.129213 150.449336,392.453717 L162.297476,434.863551 C162.91019,437.057238 165.525166,437.267244 166.39522,435.192997 L196.689992,362.960127 C197.605125,360.778689 200.388597,361.155388 201.919069,394.010386 L233.89793,560.864516 C233.417387,533.487611 237.416222,532.786716 237.187329,529.610813 L239.913907,467.75705 C239.708648,464.914094 234.650256,446.770452 235.696684,449.354401 L235.696684,449.354401 C236.699784,451.830722 246.867337,457.556885 246.867337,454.822432 L239.913907,402.448689 C239.913907,402.127993 239.965988,401.810359 240.067523,401.512413 L253.912673,360.857879 C254.564338,358.943325 256.806872,358.657191 257.804721,360.361302 L281.241034,400.379693 C281.423098,400.690764 281.54389,401.044274 281.59422,401.415722 L289.674606,460.859666 C290.020789,463.405551 293.040594,463.827751 293.902333,461.450308 L318.561886,393.405307 C319.234121,391.550691 321.411007,391.276808 322.412794,392.92098 L351.763112,441.087603 C352.557014,442.390515 354.177643,442.546269 355.147044,441.412675 L447.21565,333.743481 C448.111963,332.695202 448.057694,330.990653 447.097484,330.021125 L335.369947,217.236974 C334.805812,216.667333 334.030291,216.466514 333.309039,216.703209 L1.86704705,325.525685 C0.617985634,325.935634 -0.0586257707,327.495366 0.404848665,328.897156" id="Fill-1" fill="#1D305E"></path>
                    <path d="M288.845792,313.194979 L316.429407,396.636873 C317.079801,398.603805 319.511441,398.52496 320.064676,396.518796 L330.895803,357.266608 C331.422366,355.359476 333.69017,355.161411 334.458298,356.95618 L384.640703,474.194348 C385.428643,476.035585 387.771126,475.765913 388.229107,473.781078 L402.757608,410.813337 C402.771325,410.75468 402.786946,410.696403 402.804473,410.639269 L415.824534,368.462583 C416.442922,366.459466 418.90733,366.502888 419.472757,368.526573 L429.787608,405.448075 C430.32103,407.357874 432.597597,407.540703 433.355056,405.734888 L459.729328,342.8498 C460.526032,340.950667 462.94929,341.278616 464.281701,369.881791 L492.122121,515.143034 C491.703766,491.309022 495.185105,490.698831 494.985834,487.933927 L497.35956,434.084769 C497.180864,431.609725 492.777087,415.814084 493.688095,418.063639 L493.688095,418.063639 C494.561382,420.219495 503.413134,425.204625 503.413134,422.824043 L497.35956,377.228079 C497.35956,376.948884 497.404901,376.672355 497.493297,376.412967 L509.546721,341.019608 C510.114053,339.35282 512.066377,339.103716 512.935092,340.587295 L533.338471,375.426835 C533.496973,375.69765 533.602133,376.005411 533.64595,376.32879 L540.680639,428.079988 C540.982022,430.296406 543.611029,430.663967 544.361249,428.594194 L565.829566,369.355016 C566.414805,367.74041 568.309976,367.50197 569.182121,368.933367 L594.734162,410.866662 C595.425324,412.000962 596.836224,412.13656 597.680174,411.149666 L677.834019,317.414133 C678.614338,316.501513 678.567092,315.017553 677.731144,314.173493 L580.462465,215.984938 C579.971336,215.489015 579.296177,215.314185 578.668263,215.520248 L290.118764,310.259816 C289.031346,310.616713 288.442296,311.974597 288.845792,313.194979" id="Fill-1-Copy-7" fill="#1D305E"></path>
                    <polygon id="Fill-1-Copy" fill="#1D305E" transform="translate(1026.460519, 397.554770) rotate(180.000000) translate(-1026.460519, -397.554770) " points="1219.6942 364.558882 1187.8021 330.028882 1113.26735 412.03352 1050.24788 291.791016 998.115731 432.569059 979.301268 380.141352 963.234901 417.748691 937.644948 286.98696 900.890957 395.562129 853.331307 355.692659 833.226841 508.122581 1218.20518 492.902337"></polygon>
                    <polygon id="Fill-1-Copy-8" fill="#1D305E" transform="translate(767.981002, 376.494235) rotate(180.000000) translate(-767.981002, -376.494235) " points="961.21468 343.498347 929.322582 308.968347 854.787831 390.972985 791.76836 270.730481 739.636215 411.508524 720.821752 359.080817 704.755385 396.688156 679.165432 265.926424 642.411441 374.501593 594.85179 334.632124 574.747324 487.062045 959.725666 471.841801"></polygon>
                    <polygon id="Fill-1-Copy-2" fill="#4E5D94" transform="translate(356.939993, 354.950842) scale(-1, 1) rotate(180.000000) translate(-356.939993, -354.950842) " points="626.763438 334.185456 582.230643 312.454602 478.153426 364.062791 390.155666 288.390268 317.360514 376.986475 291.088783 343.992012 268.654378 367.659535 232.921636 285.366918 181.599897 353.696808 115.189585 328.605653 87.1165474 424.534767 624.684241 414.956171"></polygon>
                    <polygon id="Fill-1-Copy-9" fill="#4E5D94" transform="translate(833.226841, 354.950842) scale(-1, 1) rotate(180.000000) translate(-833.226841, -354.950842) " points="1103.05029 334.185456 1058.51749 312.454602 954.440274 364.062791 866.442515 288.390268 793.647362 376.986475 767.375632 343.992012 744.941227 367.659535 709.208484 285.366918 657.886745 353.696808 591.476433 328.605653 563.403396 424.534767 1100.97109 414.956171"></polygon>
                    <g id="Page-1-Copy-5" transform="translate(1157.676975, 410.834454) scale(-1, -1) translate(-1157.676975, -410.834454) translate(1097.667138, 239.834454)">
                        <g id="Group-3" transform="translate(0.000000, -0.000000)">
                            <mask id="mask-16" fill="white">
                                <use xlink:href="#path-15"></use>
                            </mask>
                            <g id="Clip-2"></g>
                            <path d="M47.8876109,2.96030177 L36.4252929,67.819574 L28.3371308,75.3909706 L23.4737676,79.9436062 L19.426961,214.927836 L6.47543563,224.627498 L-0.000327058722,310.305661 L70.4219568,341.829016 L119.799102,314.346642 L119.799102,266.658274 L103.609695,254.534242 L97.1339328,143.798076 L84.1834976,145.414686 L72.8509129,72.6694046 L64.7562096,58.1199127 L54.3143148,2.92219984 C53.6405738,-0.641962987 48.5188343,-0.611481448 47.8876109,2.96030177" id="Fill-1" fill="#4D5C94" mask="url(#mask-16)"></path>
                        </g>
                        <path d="M43.4945956,137.7035 L32.1989288,101.651156 L28.3598216,74.7923719 L36.4616918,67.2412561 L48.1329709,1.48706095 C48.5096751,-0.635197716 51.6379579,-0.424600181 51.7242177,1.728054 L56.7196431,126.182513 L43.4945956,137.7035 Z" id="Fill-4" fill="#7F8CC5"></path>
                        <polygon id="Fill-6" fill="#4D5C94" points="10.533648 221.505268 25.3410216 269.736857 42.134592 253.592155 39.2249593 145.169617 38.6600975 124.127501 31.9065959 102.270963 28.1091688 75.3319149 23.2921822 79.8852695 19.2819869 214.890818"></polygon>
                        <path d="M52.7062353,204.658025 L62.4133658,220.789585 L75.7617547,244.836239 L83.2188521,139.656337 L72.7613491,72.2066805 L64.7111104,57.6657554 L54.2427639,2.06317258 C53.9499885,0.505177457 51.6522439,0.767381943 51.7151364,2.35148871 L56.6500282,126.432962 L43.5163413,137.979751 L52.7062353,204.658025 Z" id="Fill-8" fill="#B7BDDF"></path>
                        <polygon id="Fill-10" fill="#7F8CC5" points="42.3832686 252.428292 64.5973899 263.28737 64.5973899 290.194044 78.8331237 335.558545 104.526199 321.221999 96.160659 296.1382 94.5979491 267.041689 76.5438243 230.665621 75.5797375 244.226984 52.5219046 204.134597 43.3310884 137.595869 38.8934696 123.33315"></polygon>
                    </g>
                    <g id="Page-1-Copy-2" transform="translate(1079.392516, 410.233013) scale(1, -1) translate(-1079.392516, -410.233013) translate(1038.885876, 295.333013)">
                        <path d="M2.72848411e-13,216.689046 L2.72848411e-13,182.30155 L8.24728404,174.401437 L10.0796208,104.697231 L17.4107365,101.444384 L33.4206904,1.45103035 C33.7207739,-0.422346423 36.3472411,-0.506657347 36.7634669,1.34339938 L46.7334305,45.6807803 L56.8136408,54.9747143 L66.8932616,148.378661 L74.2237877,150.973763 L80.6381455,212.506985 L40.3190727,229.235827 L2.72848411e-13,216.689046 Z" id="Fill-1" fill="#7F8CC5"></path>
                        <polygon id="Fill-3" fill="#B7BDDF" points="44.9857984 101.504185 51.5709088 50.2212766 56.6074903 54.8158674 66.7668148 147.964115 74.1559005 150.55271 60.7384854 183.874674 46.9205682 172.780869 48.5784331 115.094156"></polygon>
                        <g id="Group-7" transform="translate(32.021309, 150.663830)">
                            <mask id="mask-18" fill="white">
                                <use xlink:href="#path-17"></use>
                            </mask>
                            <g id="Clip-6"></g>
                            <polygon id="Fill-5" fill="#4D5C94" mask="url(#mask-18)" points="2.02113009 29.4560681 -0.39294322 58.297989 7.46318754 77.9721772 48.6650991 61.1913578 42.1102906 -0.53024486 28.5072556 32.9858102 14.4969549 21.8279868"></polygon>
                        </g>
                        <polygon id="Fill-8" fill="#B7BDDF" points="14.7952333 221.44325 14.7952333 186.555755 24.0039819 164.089978 28.4944945 171.278572 40.1807054 142.822001 42.8655693 96.3924502 45.213331 101.779859 48.8270192 115.40775 47.1588413 173.25856 34.7816903 180.86456 32.3867104 209.620731 40.1807054 229.235827"></polygon>
                        <polygon id="Fill-10" fill="#4D5C94" points="17.2260752 101.192104 24.2793989 163.738442 28.773859 170.914345 40.4681884 142.508014 43.1550549 96.1604358 34.2809784 83.1887729 33.6918057 -3.41060513e-14"></polygon>
                    </g>
                    <g id="Page-1-Copy-4" transform="translate(540.310398, 231.260879) scale(1, -1) translate(-540.310398, -231.260879) translate(458.066916, 0.000000)">
                        <path d="M0,437.20652 L0,367.823976 L16.8229405,351.884172 L20.56057,211.244237 L35.5146957,204.681072 L68.1720531,2.92769728 C68.7841681,-0.852154797 74.1416775,-1.02226624 74.9907015,2.71053374 L95.3275909,92.1686415 L115.889364,110.920713 L136.449934,299.378853 L151.402857,304.614908 L164.486965,428.76851 L82.2434825,462.521757 L0,437.20652 Z" id="Fill-1" fill="#7F8CC5"></path>
                        <polygon id="Fill-10" fill="#4D5C94" points="35.6523471 204.302541 49.7589945 330.58093 58.7479148 345.068771 82.1365735 287.717603 87.5103065 194.143818 69.7621535 167.954584 68.5838082 0"></polygon>
                    </g>
                    <g id="Page-1-Copy" transform="translate(791.706093, 286.744406) scale(-1, -1) translate(-791.706093, -286.744406) translate(729.719626, 113.400000)">
                        <path d="M0,326.947783 L0,275.062763 L12.6793591,263.142804 L15.4963902,157.970734 L26.7672337,153.062728 L51.380907,2.18936381 C51.8422548,-0.63725061 55.8801806,-0.764461792 56.5200854,2.02696656 L71.8478887,68.9247109 L87.3451853,82.9477137 L102.841576,223.878757 L114.111513,227.794336 L123.972934,320.637748 L61.9864671,345.878792 L0,326.947783 Z" id="Fill-1" fill="#7F8CC5"></path>
                        <polygon id="Fill-3" fill="#B7BDDF" points="69.684133 153.843312 79.7447184 76.1419355 87.4394957 83.1034367 102.960686 224.237146 114.249567 228.159258 93.7507383 278.647083 72.6400314 261.838288 75.1728805 174.434177"></polygon>
                        <polygon id="Fill-10" fill="#4D5C94" points="26.7392603 152.987114 37.3192459 247.547692 44.0609361 258.396568 61.6024301 215.450505 65.6327299 145.379995 52.3216151 125.768808 51.4378562 0"></polygon>
                    </g>
                    <g id="Page-1-Copy-7" transform="translate(266.443679, 318.000000) scale(-1, -1) translate(-266.443679, -318.000000) translate(217.235612, 180.600000)">
                        <path d="M0,259.192192 L0,218.059654 L10.0041565,208.609948 L12.2268256,125.233395 L21.1196476,121.342508 L40.5401118,1.7356472 C40.9041204,-0.505188873 44.0900892,-0.606037225 44.5949812,1.60690463 L56.6887899,54.6409787 L68.9163307,65.7579003 L81.1431564,177.482854 L90.0352632,180.586981 L97.8160354,254.189827 L48.9080177,274.2 L0,259.192192 Z" id="Fill-1" fill="#7F8CC5"></path>
                        <polygon id="Fill-3" fill="#B7BDDF" points="55.2090507 121.69908 63.2018623 60 69.3151154 65.5278072 81.6462019 177.595578 90.6148549 180.709946 74.3291947 220.8 57.5574169 207.452911 59.569684 138.049337"></polygon>
                        <polygon id="Fill-10" fill="#4D5C94" points="21.0034432 121.491381 29.3287647 196.584602 34.6337567 205.2 48.4370438 171.095321 51.6084604 115.450353 41.1340311 99.8765565 40.4386069 0"></polygon>
                    </g>
                    <g id="Page-1" transform="translate(69.611412, 426.575498) scale(1, -1) translate(-69.611412, -426.575498) translate(30.605017, 318.275498)">
                        <path d="M0.120020133,204.618075 L0.120020133,172.174748 L7.94965353,164.721285 L9.68919893,98.9579527 L16.6490596,95.8890122 L31.8482536,1.54899284 C32.1331405,-0.218468638 34.6266009,-0.298012866 35.0217486,1.44744702 L44.4868233,43.2781209 L54.0565618,52.0466028 L63.6257406,140.169761 L70.5850416,142.618144 L76.6745699,200.672455 L38.397295,216.455497 L0.120020133,204.618075 Z" id="Fill-1" fill="#7F8CC5"></path>
                        <polygon id="Fill-3" fill="#B7BDDF" points="42.9448727 96.276874 49.1641436 47.7912148 53.9209151 52.1351916 63.5158326 140.202626 70.4944136 142.650024 57.8224105 174.154427 44.7721553 163.665739 46.3379165 109.125574"></polygon>
                        <g id="Group-7" transform="translate(31.390762, 141.753603)">
                            <mask id="mask-20" fill="white">
                                <use xlink:href="#path-19"></use>
                            </mask>
                            <g id="Clip-6"></g>
                            <polygon id="Fill-5" fill="#4D5C94" mask="url(#mask-20)" points="1.8552361 28.7969299 -0.401681979 55.8548144 6.94301773 74.3120425 45.4627009 58.569212 39.3346079 0.665440389 26.6171252 32.1083374 13.5188896 21.6406886"></polygon>
                        </g>
                        <polygon id="Fill-8" fill="#B7BDDF" points="15.1851495 208.148057 15.1851495 175.387848 23.7361303 154.291936 27.905892 161.042201 38.7573735 134.320787 41.2504615 90.7223061 43.4305259 95.7812146 46.7860935 108.578136 45.2370711 162.901458 33.7440024 170.043678 31.5200925 197.046423 38.7573735 215.465477"></polygon>
                        <polygon id="Fill-10" fill="#4D5C94" points="16.8057107 95.4371027 23.4182017 154.426303 27.6317581 161.194097 38.5951918 134.403293 41.1141292 90.6915959 32.7946824 78.4576578 32.2423331 -6.82121026e-14"></polygon>
                    </g>
                </g>
            </g>
        </g>
    </g>
</svg>