<svg id="Layer_1" data-name="Layer 1" xmlns="http://www.w3.org/2000/svg" viewBox="0 0 869.71 561.1"><defs><style>.cls-1{fill:#4e5d95;}</style></defs><title>splash-page-draft</title><path class="cls-1" d="M320.43,311.27c2.58,0,2.58-4,0-4s-2.58,4,0,4h0Z"/><path class="cls-1" d="M294.13,293c2.58,0,2.58-4,0-4s-2.58,4,0,4h0Z"/><path class="cls-1" d="M317,272.38c2.58,0,2.58-4,0-4s-2.58,4,0,4h0Z"/><path class="cls-1" d="M300.42,262.66c2.58,0,2.58-4,0-4s-2.58,4,0,4h0Z"/><path class="cls-1" d="M315.29,235.21c2.58,0,2.58-4,0-4s-2.58,4,0,4h0Z"/><path class="cls-1" d="M293,242.65c2.58,0,2.58-4,0-4s-2.58,4,0,4h0Z"/><path class="cls-1" d="M383.34,168.88c2.58,0,2.58-4,0-4s-2.58,4,0,4h0Z"/><path class="cls-1" d="M406.21,171.16c2.58,0,2.58-4,0-4s-2.58,4,0,4h0Z"/><path class="cls-1" d="M352.46,177.45c2.58,0,2.58-4,0-4s-2.58,4,0,4h0Z"/><path class="cls-1" d="M384.48,201.47c2.58,0,2.58-4,0-4s-2.58,4,0,4h0Z"/><path class="cls-1" d="M380.48,216.91c2.58,0,2.58-4,0-4s-2.58,4,0,4h0Z"/><path class="cls-1" d="M355.32,244.36c2.58,0,2.58-4,0-4s-2.58,4,0,4h0Z"/><path class="cls-1" d="M376.48,246.65c2.58,0,2.58-4,0-4s-2.58,4,0,4h0Z"/><path class="cls-1" d="M391.92,281.53c2.58,0,2.58-4,0-4s-2.58,4,0,4h0Z"/><path class="cls-1" d="M340.45,336.43c2.58,0,2.58-4,0-4s-2.58,4,0,4h0Z"/><path class="cls-1" d="M230.88,355.81c0.54,0-1.58-2.73-2.76-2.73-0.54,0,1.58,2.73,2.76,2.73h0Z"/><path class="cls-1" d="M147.42,235c2.41,0,3.22-3.54.62-3.54-2.41,0-3.22,3.54-.62,3.54h0Z"/><path class="cls-1" d="M195.68,197.83c2.52,0,1.18-3.58-1-3.58-2.52,0-1.18,3.58,1,3.58h0Z"/><path class="cls-1" d="M141.53,295.06c2.47,0,2.23-2.46-.18-2.46s-2.23,2.46.18,2.46h0Z"/><path class="cls-1" d="M151.94,352.09c2.6,0,1.71-3.3-.42-3.3-2.6,0-1.71,3.3.42,3.3h0Z"/><path class="cls-1" d="M2.43,197.64c0.9,0-1-3.21-2.19-3.21-0.9,0,1,3.21,2.19,3.21h0Z"/><path class="cls-1" d="M36.24,161.36h0.57a2.72,2.72,0,0,0,2.38-1.43c0.35-.9-0.56-1.26-1.29-1.26H37.33A2.72,2.72,0,0,0,35,160.09c-0.35.9,0.56,1.26,1.29,1.26h0Z"/><path class="cls-1" d="M119.46,149.26c0.12,0-1.82-2.52-2.93-2.52-0.12,0,1.82,2.52,2.93,2.52h0Z"/><path class="cls-1" d="M135.68,162.53c2.46,0,2.57-2.75.08-2.75s-2.57,2.75-.08,2.75h0Z"/><path class="cls-1" d="M243,246.73c2.63,0,1.55-3-.7-3-2.63,0-1.55,3,.7,3h0Z"/><path class="cls-1" d="M271.33,300.6c2.53,0,2.35-3.25-.16-3.25s-2.35,3.25.16,3.25h0Z"/><path class="cls-1" d="M219,314.71c0.56,0,4.33-.58,2.79-0.58-0.56,0-4.33.58-2.79,0.58h0Z"/><path class="cls-1" d="M157.81,312.3c2.42,0,1.42-3.79-.72-3.79-2.42,0-1.42,3.79.72,3.79h0Z"/><path class="cls-1" d="M98.48,310.94c2.47,0,.85-3.34-1-3.34-2.47,0-.85,3.34,1,3.34h0Z"/><path class="cls-1" d="M97.81,310.92c2.48,0,2.87-3.3.33-3.3s-2.87,3.3-.33,3.3h0Z"/><path class="cls-1" d="M6,240.76c1.65,0,.16-3.67-1.36-3.67S4.49,240.76,6,240.76H6Z"/><path class="cls-1" d="M64.39,267.62c2.52,0,1.81-3.63-.3-3.63-2.52,0-1.81,3.63.3,3.63h0Z"/><path class="cls-1" d="M112.85,224.78c2.34,0,2.36-1.44,0-1.44s-2.36,1.44,0,1.44h0Z"/><path class="cls-1" d="M28.55,203.42c0.91,0,3.83-2.18,2.75-2.18-0.91,0-3.83,2.18-2.75,2.18h0Z"/><path class="cls-1" d="M65.09,232.8c0.12,0-1.76-2.61-2.86-2.61-0.12,0,1.76,2.61,2.86,2.61h0Z"/><path class="cls-1" d="M66.39,206.83c2.61,0,1.26-3.28-.88-3.28-2.61,0-1.26,3.28.88,3.28h0Z"/><path class="cls-1" d="M88.16,232.31c2.62,0,.84-2.78-0.95-2.78-2.62,0-.84,2.78.95,2.78h0Z"/><path class="cls-1" d="M109.3,265.06c1.65,0,3.79-3.08,1.38-3.08-1.65,0-3.79,3.08-1.38,3.08h0Z"/><path class="cls-1" d="M193.91,291.63c2.22,0,.85-3.62-0.87-3.62-2.22,0-.85,3.62.87,3.62h0Z"/><path class="cls-1" d="M201.09,334.3c2.59,0-.17-2-1.49-2-2.59,0,.17,2,1.49,2h0Z"/><path class="cls-1" d="M270.84,335.1c1.5,0,0-3.62-1.46-3.62s0,3.62,1.46,3.62h0Z"/><path class="cls-1" d="M252.68,143.77l-0.21.86a1.77,1.77,0,0,0,1.43,2.12,2.08,2.08,0,0,0,2.44-1.25l0.21-.86a1.77,1.77,0,0,0-1.43-2.12,2.08,2.08,0,0,0-2.44,1.25h0Z"/><path class="cls-1" d="M351.75,139.81l-0.36,4.5c-0.1,1.26-.54,3-0.21,4.22,0.5,1.92,3.07,2,4.61,1.51a4.37,4.37,0,0,0,3.08-4.11c0.13-2.53-1.55-4.63-3.08-6.45-0.88-1-4.69-.3-3.83.72a14.74,14.74,0,0,1,2.5,3.6c0.68,1.6.24,2.41-.05,4q-1.11,1.15.71,0l0-.56a11.56,11.56,0,0,0,.22-2.77l0.39-4.85c0.1-1.29-3.88-1.26-4,.2h0Z"/><path class="cls-1" d="M385.23,197.49a10.79,10.79,0,0,0-4.94.67c-0.48.23-1.16,0.6-1,1.24a2.1,2.1,0,0,0,.87,1,4.47,4.47,0,0,0,3.24.31,6.52,6.52,0,0,0,3.53-1.67c0.54-.61-0.53-0.54-0.9-0.49a4.7,4.7,0,0,0-2.57,1,2,2,0,0,1-.26.27,3.91,3.91,0,0,1,1.44-.46c-0.17-.07-0.36-0.07-0.53-0.14s-1.32-.83-1-1.08l-2.1.88q-0.93.09-.19,0.07h1.9a5.41,5.41,0,0,0,2.71-.81c0.61-.38.52-0.72-0.22-0.72h0Z"/><path class="cls-1" d="M378,213.54a4.32,4.32,0,0,0-.1,4.22c0.74,1.28,3.23,2.67,4.66,1.76,1-.65,1.22-3,1-4a4.66,4.66,0,0,0-3.61-3.16c-0.49-.12-1.72-0.38-1.7.45s1.49,1.38,2,1.51q-1.08-.85-0.63-0.26a1.48,1.48,0,0,1,.18.54,3.39,3.39,0,0,1,0,1.21c-0.07.47-.19,1.75-0.73,1.82l1.26,0.09c1.46,0.38,1.12,1,.89,0a3.33,3.33,0,0,1-.08-0.81,3.74,3.74,0,0,1,.55-1.78c0.56-1-3-2.68-3.7-1.54h0Z"/><path class="cls-1" d="M349.3,172.55c-0.35,1.25-.33,2.4.85,3.14a13.45,13.45,0,0,0,3.13,1.4,1.59,1.59,0,0,0,1.53-.08c0.75-.64.23-1.79-0.39-2.28a11.14,11.14,0,0,0-2.82-1.46,14.2,14.2,0,0,0-2.37-.72c-0.77-.16.44,0.5,0.54,0.56a10.57,10.57,0,0,0,2.54,1l0.45,0.1,0.14,0-1.92-.87a2.7,2.7,0,0,1,.44.64,1.32,1.32,0,0,1-.18,1.28,1.3,1.3,0,0,1-.66.29l2.62,1.14-0.1-.11a2,2,0,0,1-.23-0.39,3.34,3.34,0,0,1,.1-2.08c0.08-.27-1.55-0.92-1.75-1a6.27,6.27,0,0,0-1.92-.61h0Z"/><path class="cls-1" d="M384.37,164.64c-1.15-.94-3.86-1.18-4.67.36-0.72,1.36.79,2.54,1.86,3.07a3.11,3.11,0,0,0,2.76.07c0.77-.5,0-1.18-0.5-1.46-0.24-.12,0,0,0,0s-0.16-.12-0.09-0.06l0,0a0.57,0.57,0,0,1-.22-0.39,0.5,0.5,0,0,0,0-.2l0.12-.16s0,0,0,0q1.08-.62-2.27-0.24a3.28,3.28,0,0,0,2.8.43c0.81-.27.83-0.88,0.22-1.39h0Z"/><path class="cls-1" d="M279.48,188.68c2.89,0,.63-1.3-1-1.3-2.89,0-.63,1.3,1,1.3h0Z"/><path class="cls-1" d="M201.89,252.05c1.43,0,3.09-2.23.9-2.23-1.43,0-3.09,2.23-.9,2.23h0Z"/><path class="cls-1" d="M196.86,215.41c2.39,0,1.36-2.15-.48-2.15-2.39,0-1.36,2.15.48,2.15h0Z"/><path class="cls-1" d="M218.24,215.57c1.34,0,3.37-2.46,1.38-2.46-1.34,0-3.37,2.46-1.38,2.46h0Z"/><path class="cls-1" d="M207.86,175.16c1.85,0,2.49-2.85.4-2.85-1.85,0-2.49,2.85-.4,2.85h0Z"/><path class="cls-1" d="M117.19,180.87c1.82,0,3.73-2.83,1-2.83-1.82,0-3.73,2.83-1,2.83h0Z"/><path class="cls-1" d="M65.71,139.28c1.55,0,.2-3.15-1.24-3.15s-0.2,3.15,1.24,3.15h0Z"/><path class="cls-1" d="M82.28,164.94c0.5,0,3.54-.71,2.23-0.71-0.5,0-3.54.71-2.23,0.71h0Z"/><path class="cls-1" d="M116.15,214.86c0.34,0-1.5-3.34-2.62-3.34-0.34,0,1.5,3.34,2.62,3.34h0Z"/><path class="cls-1" d="M95.89,196.45a2.14,2.14,0,1,0,.17-4.26,2.14,2.14,0,1,0-.17,4.26h0Z"/><path class="cls-1" d="M147.71,190.11c-0.24,0-.87-3-1.68-3,0.24,0,.87,3,1.68,3h0Z"/><path class="cls-1" d="M168.52,205.76c2.9,0,1.07-2.29-1-2.29-2.9,0-1.07,2.29,1,2.29h0Z"/><path class="cls-1" d="M182.47,150.43l1.72-1.13a2.14,2.14,0,0,0,.34-3,2.16,2.16,0,0,0-2.89-.71l-1.72,1.13a2.14,2.14,0,0,0-.34,3,2.16,2.16,0,0,0,2.89.71h0Z"/><path class="cls-1" d="M253.32,211.45c2.44,0,.16-2.23-1.32-2.23-2.44,0-.16,2.23,1.32,2.23h0Z"/><path class="cls-1" d="M300.94,200.74l1.71-.58a1.81,1.81,0,0,0,.89-2.48A2.16,2.16,0,0,0,301,196.4l-1.71.58a1.81,1.81,0,0,0-.89,2.48,2.16,2.16,0,0,0,2.53,1.28h0Z"/><path class="cls-1" d="M336.3,212.52c1,0-1.24-3.23-2.57-3.23-1,0,1.24,3.23,2.57,3.23h0Z"/><path class="cls-1" d="M356.78,283.59a1.78,1.78,0,1,0-.06-3.55,1.78,1.78,0,1,0,.06,3.55h0Z"/><path class="cls-1" d="M397.86,330.3c0.94,0-1.39-2-2.16-2-0.94,0,1.39,2,2.16,2h0Z"/><path class="cls-1" d="M344.56,318.65c3,0,1.51-2.76-.78-2.76-3,0-1.51,2.76.78,2.76h0Z"/><path class="cls-1" d="M288.48,372.32c3,0-.12-2.59-1.86-2.59-3,0,.12,2.59,1.86,2.59h0Z"/><path class="cls-1" d="M231.64,343.34c1.49,0,4.56-2.95,2-2.95-1.49,0-4.56,2.95-2,2.95h0Z"/><path class="cls-1" d="M254.39,294.27c2.18,0,.19-2-1.16-2-2.18,0-.19,2,1.16,2h0Z"/><path class="cls-1" d="M229.16,269.77c2,0,.54-3.35-1-3.35-2,0-.54,3.35,1,3.35h0Z"/><path class="cls-1" d="M277.61,278.62c1.37,0,3.85-2.75,1.58-2.75-1.37,0-3.85,2.75-1.58,2.75h0Z"/><path class="cls-1" d="M450.64,254.29c2.73,0,2.22-3.27-.21-3.27-2.73,0-2.22,3.27.21,3.27h0Z"/><path class="cls-1" d="M500.71,175.14c2.58,0,2.58-4,0-4s-2.58,4,0,4h0Z"/><path class="cls-1" d="M474.41,156.84c2.58,0,2.58-4,0-4s-2.58,4,0,4h0Z"/><path class="cls-1" d="M497.28,136.25c2.58,0,2.58-4,0-4s-2.58,4,0,4h0Z"/><path class="cls-1" d="M480.7,126.53c2.58,0,2.58-4,0-4s-2.58,4,0,4h0Z"/><path class="cls-1" d="M495.57,99.08c2.58,0,2.58-4,0-4s-2.58,4,0,4h0Z"/><path class="cls-1" d="M473.26,106.52c2.58,0,2.58-4,0-4s-2.58,4,0,4h0Z"/><path class="cls-1" d="M563.62,32.74c2.58,0,2.58-4,0-4s-2.58,4,0,4h0Z"/><path class="cls-1" d="M586.49,35c2.58,0,2.58-4,0-4s-2.58,4,0,4h0Z"/><path class="cls-1" d="M532.74,41.32c2.58,0,2.58-4,0-4s-2.58,4,0,4h0Z"/><path class="cls-1" d="M564.76,65.34c2.58,0,2.58-4,0-4s-2.58,4,0,4h0Z"/><path class="cls-1" d="M560.76,80.78c2.58,0,2.58-4,0-4s-2.58,4,0,4h0Z"/><path class="cls-1" d="M535.6,108.23c2.58,0,2.58-4,0-4s-2.58,4,0,4h0Z"/><path class="cls-1" d="M556.76,110.52c2.58,0,2.58-4,0-4s-2.58,4,0,4h0Z"/><path class="cls-1" d="M572.2,145.4c2.58,0,2.58-4,0-4s-2.58,4,0,4h0Z"/><path class="cls-1" d="M520.73,200.3c2.58,0,2.58-4,0-4s-2.58,4,0,4h0Z"/><path class="cls-1" d="M411.17,219.68c0.54,0-1.58-2.73-2.76-2.73-0.54,0,1.58,2.73,2.76,2.73h0Z"/><path class="cls-1" d="M327.7,98.85c2.41,0,3.22-3.54.62-3.54-2.41,0-3.22,3.54-.62,3.54h0Z"/><path class="cls-1" d="M376,61.69c2.52,0,1.18-3.58-1-3.58-2.52,0-1.18,3.58,1,3.58h0Z"/><path class="cls-1" d="M321.81,158.93c2.47,0,2.23-2.46-.18-2.46s-2.23,2.46.18,2.46h0Z"/><path class="cls-1" d="M332.22,216c2.6,0,1.71-3.3-.42-3.3-2.6,0-1.71,3.3.42,3.3h0Z"/><path class="cls-1" d="M182.71,61.51c0.9,0-1-3.21-2.19-3.21-0.9,0,1,3.21,2.19,3.21h0Z"/><path class="cls-1" d="M216.52,25.23h0.57a2.72,2.72,0,0,0,2.38-1.43c0.35-.9-0.56-1.26-1.29-1.26h-0.57A2.72,2.72,0,0,0,215.24,24c-0.35.9,0.56,1.26,1.29,1.26h0Z"/><path class="cls-1" d="M299.74,13.13c0.12,0-1.82-2.52-2.93-2.52-0.12,0,1.82,2.52,2.93,2.52h0Z"/><path class="cls-1" d="M316,26.4c2.46,0,2.57-2.75.08-2.75s-2.57,2.75-.08,2.75h0Z"/><path class="cls-1" d="M423.29,110.6c2.63,0,1.55-3-.7-3-2.63,0-1.55,3,.7,3h0Z"/><path class="cls-1" d="M451.61,164.47c2.53,0,2.35-3.25-.16-3.25s-2.35,3.25.16,3.25h0Z"/><path class="cls-1" d="M399.24,178.58c0.56,0,4.33-.58,2.79-0.58-0.56,0-4.33.58-2.79,0.58h0Z"/><path class="cls-1" d="M338.09,176.17c2.42,0,1.42-3.79-.72-3.79-2.42,0-1.42,3.79.72,3.79h0Z"/><path class="cls-1" d="M278.76,174.81c2.47,0,.85-3.34-1-3.34-2.47,0-.85,3.34,1,3.34h0Z"/><path class="cls-1" d="M278.09,174.79c2.48,0,2.87-3.3.33-3.3s-2.87,3.3-.33,3.3h0Z"/><path class="cls-1" d="M186.3,104.63c1.65,0,.16-3.67-1.36-3.67s-0.16,3.67,1.36,3.67h0Z"/><path class="cls-1" d="M244.67,131.49c2.52,0,1.81-3.63-.3-3.63-2.52,0-1.81,3.63.3,3.63h0Z"/><path class="cls-1" d="M293.13,88.65c2.34,0,2.36-1.44,0-1.44s-2.36,1.44,0,1.44h0Z"/><path class="cls-1" d="M208.83,67.29c0.91,0,3.83-2.18,2.75-2.18-0.91,0-3.83,2.18-2.75,2.18h0Z"/><path class="cls-1" d="M245.37,96.67c0.12,0-1.76-2.61-2.86-2.61-0.12,0,1.76,2.61,2.86,2.61h0Z"/><path class="cls-1" d="M246.67,70.7c2.61,0,1.26-3.28-.88-3.28-2.61,0-1.26,3.28.88,3.28h0Z"/><path class="cls-1" d="M268.44,96.18c2.62,0,.84-2.78-0.95-2.78-2.62,0-.84,2.78.95,2.78h0Z"/><path class="cls-1" d="M289.58,128.93c1.65,0,3.79-3.08,1.38-3.08-1.65,0-3.79,3.08-1.38,3.08h0Z"/><path class="cls-1" d="M374.19,155.5c2.22,0,.85-3.62-0.87-3.62-2.22,0-.85,3.62.87,3.62h0Z"/><path class="cls-1" d="M381.37,198.17c2.59,0-.17-2-1.49-2-2.59,0,.17,2,1.49,2h0Z"/><path class="cls-1" d="M451.12,199c1.5,0,0-3.62-1.46-3.62s0,3.62,1.46,3.62h0Z"/><path class="cls-1" d="M433,7.64l-0.21.86a1.77,1.77,0,0,0,1.43,2.12,2.08,2.08,0,0,0,2.44-1.25l0.21-.86a1.77,1.77,0,0,0-1.43-2.12A2.08,2.08,0,0,0,433,7.64h0Z"/><path class="cls-1" d="M532,3.68l-0.36,4.5c-0.1,1.26-.54,3-0.21,4.22,0.5,1.92,3.07,2,4.61,1.51a4.37,4.37,0,0,0,3.08-4.11c0.13-2.53-1.55-4.63-3.08-6.45-0.88-1-4.69-.3-3.83.72a14.74,14.74,0,0,1,2.5,3.6c0.68,1.6.24,2.41-.05,4q-1.11,1.15.71,0l0-.56a11.56,11.56,0,0,0,.22-2.77L536,3.48c0.1-1.29-3.88-1.26-4,.2h0Z"/><path class="cls-1" d="M565.51,61.36a10.79,10.79,0,0,0-4.94.67c-0.48.23-1.16,0.6-1,1.24a2.1,2.1,0,0,0,.87,1,4.47,4.47,0,0,0,3.24.31,6.52,6.52,0,0,0,3.53-1.67c0.54-.61-0.53-0.54-0.9-0.49a4.7,4.7,0,0,0-2.57,1,2,2,0,0,1-.26.27,3.91,3.91,0,0,1,1.44-.46c-0.17-.07-0.36-0.07-0.53-0.14s-1.32-.83-1-1.08l-2.1.88q-0.93.09-.19,0.07H563a5.41,5.41,0,0,0,2.71-.81c0.61-.38.52-0.72-0.22-0.72h0Z"/><path class="cls-1" d="M558.31,77.41a4.32,4.32,0,0,0-.1,4.22c0.74,1.28,3.23,2.67,4.66,1.76,1-.65,1.22-3,1-4a4.66,4.66,0,0,0-3.61-3.16c-0.49-.12-1.72-0.38-1.7.45s1.49,1.38,2,1.51q-1.08-.85-0.63-0.26a1.48,1.48,0,0,1,.18.54,3.39,3.39,0,0,1,0,1.21c-0.07.47-.19,1.75-0.73,1.82l1.26,0.09c1.46,0.38,1.12,1,.89,0a3.33,3.33,0,0,1-.08-0.81A3.74,3.74,0,0,1,562,79c0.56-1-3-2.68-3.7-1.54h0Z"/><path class="cls-1" d="M529.58,36.42c-0.35,1.25-.33,2.4.85,3.14a13.45,13.45,0,0,0,3.13,1.4,1.59,1.59,0,0,0,1.53-.08c0.75-.64.23-1.79-0.39-2.28a11.14,11.14,0,0,0-2.82-1.46,14.2,14.2,0,0,0-2.37-.72c-0.77-.16.44,0.5,0.54,0.56a10.57,10.57,0,0,0,2.54,1L533,38.1l0.14,0-1.92-.87a2.7,2.7,0,0,1,.44.64,1.32,1.32,0,0,1-.18,1.28,1.3,1.3,0,0,1-.66.29l2.62,1.14-0.1-.11a2,2,0,0,1-.23-0.39,3.34,3.34,0,0,1,.1-2.08c0.08-.27-1.55-0.92-1.75-1a6.27,6.27,0,0,0-1.92-.61h0Z"/><path class="cls-1" d="M564.65,28.51c-1.15-.94-3.86-1.18-4.67.36-0.72,1.36.79,2.54,1.86,3.07a3.11,3.11,0,0,0,2.76.07c0.77-.5,0-1.18-0.5-1.46-0.24-.12,0,0,0,0s-0.16-.12-0.09-0.06l0,0a0.57,0.57,0,0,1-.22-0.39,0.5,0.5,0,0,0,0-.2l0.12-.16s0,0,0,0q1.08-.62-2.27-0.24a3.28,3.28,0,0,0,2.8.43c0.81-.27.83-0.88,0.22-1.39h0Z"/><path class="cls-1" d="M459.76,52.55c2.89,0,.63-1.3-1-1.3-2.89,0-.63,1.3,1,1.3h0Z"/><path class="cls-1" d="M382.17,115.92c1.43,0,3.09-2.23.9-2.23-1.43,0-3.09,2.23-.9,2.23h0Z"/><path class="cls-1" d="M377.14,79.28c2.39,0,1.36-2.15-.48-2.15-2.39,0-1.36,2.15.48,2.15h0Z"/><path class="cls-1" d="M398.52,79.44c1.34,0,3.37-2.46,1.38-2.46-1.34,0-3.37,2.46-1.38,2.46h0Z"/><path class="cls-1" d="M388.14,39c1.85,0,2.49-2.85.4-2.85-1.85,0-2.49,2.85-.4,2.85h0Z"/><path class="cls-1" d="M297.47,44.74c1.82,0,3.73-2.83,1-2.83-1.82,0-3.73,2.83-1,2.83h0Z"/><path class="cls-1" d="M246,3.15c1.55,0,.2-3.15-1.24-3.15s-0.2,3.15,1.24,3.15h0Z"/><path class="cls-1" d="M262.56,28.81c0.5,0,3.54-.71,2.23-0.71-0.5,0-3.54.71-2.23,0.71h0Z"/><path class="cls-1" d="M296.44,78.73c0.34,0-1.5-3.34-2.62-3.34-0.34,0,1.5,3.34,2.62,3.34h0Z"/><path class="cls-1" d="M276.17,60.32a2.14,2.14,0,1,0,.17-4.26,2.14,2.14,0,1,0-.17,4.26h0Z"/><path class="cls-1" d="M328,54c-0.24,0-.87-3-1.68-3,0.24,0,.87,3,1.68,3h0Z"/><path class="cls-1" d="M348.8,69.63c2.9,0,1.07-2.29-1-2.29-2.9,0-1.07,2.29,1,2.29h0Z"/><path class="cls-1" d="M362.76,14.3l1.72-1.13a2.14,2.14,0,0,0,.34-3,2.16,2.16,0,0,0-2.89-.71l-1.72,1.13a2.14,2.14,0,0,0-.34,3,2.16,2.16,0,0,0,2.89.71h0Z"/><path class="cls-1" d="M433.61,75.32c2.44,0,.16-2.23-1.32-2.23-2.44,0-.16,2.23,1.32,2.23h0Z"/><path class="cls-1" d="M481.22,64.61l1.71-.58a1.81,1.81,0,0,0,.89-2.48,2.16,2.16,0,0,0-2.53-1.28l-1.71.58a1.81,1.81,0,0,0-.89,2.48,2.16,2.16,0,0,0,2.53,1.28h0Z"/><path class="cls-1" d="M516.58,76.39c1,0-1.24-3.23-2.57-3.23-1,0,1.24,3.23,2.57,3.23h0Z"/><path class="cls-1" d="M537.06,147.46a1.78,1.78,0,1,0-.06-3.55,1.78,1.78,0,1,0,.06,3.55h0Z"/><path class="cls-1" d="M578.14,194.17c0.94,0-1.39-2-2.16-2-0.94,0,1.39,2,2.16,2h0Z"/><path class="cls-1" d="M524.84,182.52c3,0,1.51-2.76-.78-2.76-3,0-1.51,2.76.78,2.76h0Z"/><path class="cls-1" d="M468.76,236.19c3,0-.12-2.59-1.86-2.59-3,0,.12,2.59,1.86,2.59h0Z"/><path class="cls-1" d="M411.92,207.21c1.49,0,4.56-2.95,2-2.95-1.49,0-4.56,2.95-2,2.95h0Z"/><path class="cls-1" d="M434.67,158.14c2.18,0,.19-2-1.16-2-2.18,0-.19,2,1.16,2h0Z"/><path class="cls-1" d="M409.44,133.64c2,0,.54-3.35-1-3.35-2,0-.54,3.35,1,3.35h0Z"/><path class="cls-1" d="M457.89,142.49c1.37,0,3.85-2.75,1.58-2.75-1.37,0-3.85,2.75-1.58,2.75h0Z"/><path class="cls-1" d="M630.92,118.16c2.73,0,2.22-3.27-.21-3.27-2.73,0-2.22,3.27.21,3.27h0Z"/><path class="cls-1" d="M456,500.05c2.58,0,2.58-4,0-4s-2.58,4,0,4h0Z"/><path class="cls-1" d="M429.67,481.75c2.58,0,2.58-4,0-4s-2.58,4,0,4h0Z"/><path class="cls-1" d="M452.55,461.17c2.58,0,2.58-4,0-4s-2.58,4,0,4h0Z"/><path class="cls-1" d="M436,451.44c2.58,0,2.58-4,0-4s-2.58,4,0,4h0Z"/><path class="cls-1" d="M450.83,424c2.58,0,2.58-4,0-4s-2.58,4,0,4h0Z"/><path class="cls-1" d="M428.53,431.43c2.58,0,2.58-4,0-4s-2.58,4,0,4h0Z"/><path class="cls-1" d="M518.89,357.66c2.58,0,2.58-4,0-4s-2.58,4,0,4h0Z"/><path class="cls-1" d="M541.76,359.94c2.58,0,2.58-4,0-4s-2.58,4,0,4h0Z"/><path class="cls-1" d="M488,366.24c2.58,0,2.58-4,0-4s-2.58,4,0,4h0Z"/><path class="cls-1" d="M520,390.25c2.58,0,2.58-4,0-4s-2.58,4,0,4h0Z"/><path class="cls-1" d="M516,405.69c2.58,0,2.58-4,0-4s-2.58,4,0,4h0Z"/><path class="cls-1" d="M490.86,433.14c2.58,0,2.58-4,0-4s-2.58,4,0,4h0Z"/><path class="cls-1" d="M512,435.43c2.58,0,2.58-4,0-4s-2.58,4,0,4h0Z"/><path class="cls-1" d="M527.46,470.32c2.58,0,2.58-4,0-4s-2.58,4,0,4h0Z"/><path class="cls-1" d="M476,525.21c2.58,0,2.58-4,0-4s-2.58,4,0,4h0Z"/><path class="cls-1" d="M366.43,544.59c0.54,0-1.58-2.73-2.76-2.73-0.54,0,1.58,2.73,2.76,2.73h0Z"/><path class="cls-1" d="M283,423.76c2.41,0,3.22-3.54.62-3.54-2.41,0-3.22,3.54-.62,3.54h0Z"/><path class="cls-1" d="M331.22,386.61c2.52,0,1.18-3.58-1-3.58-2.52,0-1.18,3.58,1,3.58h0Z"/><path class="cls-1" d="M277.08,483.84c2.47,0,2.23-2.46-.18-2.46s-2.23,2.46.18,2.46h0Z"/><path class="cls-1" d="M287.49,540.88c2.6,0,1.71-3.3-.42-3.3-2.6,0-1.71,3.3.42,3.3h0Z"/><path class="cls-1" d="M138,386.42c0.9,0-1-3.21-2.19-3.21-0.9,0,1,3.21,2.19,3.21h0Z"/><path class="cls-1" d="M171.79,350.14h0.57a2.72,2.72,0,0,0,2.38-1.43c0.35-.9-0.56-1.26-1.29-1.26h-0.57a2.72,2.72,0,0,0-2.38,1.43c-0.35.9,0.56,1.26,1.29,1.26h0Z"/><path class="cls-1" d="M255,338c0.12,0-1.82-2.52-2.93-2.52-0.12,0,1.82,2.52,2.93,2.52h0Z"/><path class="cls-1" d="M271.23,351.31c2.46,0,2.57-2.75.08-2.75s-2.57,2.75-.08,2.75h0Z"/><path class="cls-1" d="M378.55,435.51c2.63,0,1.55-3-.7-3-2.63,0-1.55,3,.7,3h0Z"/><path class="cls-1" d="M406.88,489.38c2.53,0,2.35-3.25-.16-3.25s-2.35,3.25.16,3.25h0Z"/><path class="cls-1" d="M354.51,503.49c0.56,0,4.33-.58,2.79-0.58-0.56,0-4.33.58-2.79,0.58h0Z"/><path class="cls-1" d="M293.36,501.09c2.42,0,1.42-3.79-.72-3.79-2.42,0-1.42,3.79.72,3.79h0Z"/><path class="cls-1" d="M234,499.72c2.47,0,.85-3.34-1-3.34-2.47,0-.85,3.34,1,3.34h0Z"/><path class="cls-1" d="M233.36,499.7c2.48,0,2.87-3.3.33-3.3s-2.87,3.3-.33,3.3h0Z"/><path class="cls-1" d="M141.56,429.54c1.65,0,.16-3.67-1.36-3.67s-0.16,3.67,1.36,3.67h0Z"/><path class="cls-1" d="M199.93,456.4c2.52,0,1.81-3.63-.3-3.63-2.52,0-1.81,3.63.3,3.63h0Z"/><path class="cls-1" d="M248.4,413.56c2.34,0,2.36-1.44,0-1.44s-2.36,1.44,0,1.44h0Z"/><path class="cls-1" d="M164.1,392.2c0.91,0,3.83-2.18,2.75-2.18-0.91,0-3.83,2.18-2.75,2.18h0Z"/><path class="cls-1" d="M200.64,421.58c0.12,0-1.76-2.61-2.86-2.61-0.12,0,1.76,2.61,2.86,2.61h0Z"/><path class="cls-1" d="M201.94,395.61c2.61,0,1.26-3.28-.88-3.28-2.61,0-1.26,3.28.88,3.28h0Z"/><path class="cls-1" d="M223.7,421.09c2.62,0,.84-2.78-0.95-2.78-2.62,0-.84,2.78.95,2.78h0Z"/><path class="cls-1" d="M244.84,453.84c1.65,0,3.79-3.08,1.38-3.08-1.65,0-3.79,3.08-1.38,3.08h0Z"/><path class="cls-1" d="M329.46,480.42c2.22,0,.85-3.62-0.87-3.62-2.22,0-.85,3.62.87,3.62h0Z"/><path class="cls-1" d="M336.63,523.08c2.59,0-.17-2-1.49-2-2.59,0,.17,2,1.49,2h0Z"/><path class="cls-1" d="M406.38,523.88c1.5,0,0-3.62-1.46-3.62s0,3.62,1.46,3.62h0Z"/><path class="cls-1" d="M388.22,332.55l-0.21.86a1.77,1.77,0,0,0,1.43,2.12,2.08,2.08,0,0,0,2.44-1.25l0.21-.86a1.77,1.77,0,0,0-1.43-2.12,2.08,2.08,0,0,0-2.44,1.25h0Z"/><path class="cls-1" d="M487.3,328.59l-0.36,4.5c-0.1,1.26-.54,3-0.21,4.22,0.5,1.92,3.07,2,4.61,1.51a4.37,4.37,0,0,0,3.08-4.11c0.13-2.53-1.55-4.63-3.08-6.45-0.88-1-4.69-.3-3.83.72a14.74,14.74,0,0,1,2.5,3.6c0.68,1.6.24,2.41-.05,4q-1.11,1.15.71,0l0-.56a11.56,11.56,0,0,0,.22-2.77l0.39-4.85c0.1-1.29-3.88-1.26-4,.2h0Z"/><path class="cls-1" d="M520.78,386.27a10.79,10.79,0,0,0-4.94.67c-0.48.23-1.16,0.6-1,1.24a2.1,2.1,0,0,0,.87,1,4.47,4.47,0,0,0,3.24.31,6.52,6.52,0,0,0,3.53-1.67c0.54-.61-0.53-0.54-0.9-0.49a4.7,4.7,0,0,0-2.57,1,2,2,0,0,1-.26.27,3.91,3.91,0,0,1,1.44-.46c-0.17-.07-0.36-0.07-0.53-0.14s-1.32-.83-1-1.08l-2.1.88q-0.93.09-.19,0.07h1.9A5.41,5.41,0,0,0,521,387c0.61-.38.52-0.72-0.22-0.72h0Z"/><path class="cls-1" d="M513.57,402.32a4.32,4.32,0,0,0-.1,4.22c0.74,1.28,3.23,2.67,4.66,1.76,1-.65,1.22-3,1-4a4.66,4.66,0,0,0-3.61-3.16c-0.49-.12-1.72-0.38-1.7.45s1.49,1.38,2,1.51q-1.08-.85-0.63-0.26a1.48,1.48,0,0,1,.18.54,3.39,3.39,0,0,1,0,1.21c-0.07.47-.19,1.75-0.73,1.82l1.26,0.09c1.46,0.38,1.12,1,.89,0a3.33,3.33,0,0,1-.08-0.81,3.74,3.74,0,0,1,.55-1.78c0.56-1-3-2.68-3.7-1.54h0Z"/><path class="cls-1" d="M484.85,361.33c-0.35,1.25-.33,2.4.85,3.14a13.45,13.45,0,0,0,3.13,1.4,1.59,1.59,0,0,0,1.53-.08c0.75-.64.23-1.79-0.39-2.28a11.14,11.14,0,0,0-2.82-1.46,14.2,14.2,0,0,0-2.37-.72c-0.77-.16.44,0.5,0.54,0.56a10.57,10.57,0,0,0,2.54,1l0.45,0.1,0.14,0-1.92-.87a2.7,2.7,0,0,1,.44.64,1.32,1.32,0,0,1-.18,1.28,1.3,1.3,0,0,1-.66.29l2.62,1.14-0.1-.11a2,2,0,0,1-.23-0.39,3.34,3.34,0,0,1,.1-2.08c0.08-.27-1.55-0.92-1.75-1a6.27,6.27,0,0,0-1.92-.61h0Z"/><path class="cls-1" d="M519.92,353.42c-1.15-.94-3.86-1.18-4.67.36-0.72,1.36.79,2.54,1.86,3.07a3.11,3.11,0,0,0,2.76.07c0.77-.5,0-1.18-0.5-1.46-0.24-.12,0,0,0,0s-0.16-.12-0.09-0.06l0,0A0.57,0.57,0,0,1,519,355a0.5,0.5,0,0,0,0-.2l0.12-.16s0,0,0,0q1.08-.62-2.27-0.24a3.28,3.28,0,0,0,2.8.43c0.81-.27.83-0.88,0.22-1.39h0Z"/><path class="cls-1" d="M415,377.46c2.89,0,.63-1.3-1-1.3-2.89,0-.63,1.3,1,1.3h0Z"/><path class="cls-1" d="M337.44,440.83c1.43,0,3.09-2.23.9-2.23-1.43,0-3.09,2.23-.9,2.23h0Z"/><path class="cls-1" d="M332.41,404.2c2.39,0,1.36-2.15-.48-2.15-2.39,0-1.36,2.15.48,2.15h0Z"/><path class="cls-1" d="M353.78,404.35c1.34,0,3.37-2.46,1.38-2.46-1.34,0-3.37,2.46-1.38,2.46h0Z"/><path class="cls-1" d="M343.41,363.94c1.85,0,2.49-2.85.4-2.85-1.85,0-2.49,2.85-.4,2.85h0Z"/><path class="cls-1" d="M252.73,369.65c1.82,0,3.73-2.83,1-2.83-1.82,0-3.73,2.83-1,2.83h0Z"/><path class="cls-1" d="M201.26,328.07c1.55,0,.2-3.15-1.24-3.15s-0.2,3.15,1.24,3.15h0Z"/><path class="cls-1" d="M217.83,353.72c0.5,0,3.54-.71,2.23-0.71-0.5,0-3.54.71-2.23,0.71h0Z"/><path class="cls-1" d="M251.7,403.64c0.34,0-1.5-3.34-2.62-3.34-0.34,0,1.5,3.34,2.62,3.34h0Z"/><path class="cls-1" d="M231.44,385.23a2.14,2.14,0,1,0,.17-4.26,2.14,2.14,0,1,0-.17,4.26h0Z"/><path class="cls-1" d="M283.26,378.89c-0.24,0-.87-3-1.68-3,0.24,0,.87,3,1.68,3h0Z"/><path class="cls-1" d="M304.07,394.54c2.9,0,1.07-2.29-1-2.29-2.9,0-1.07,2.29,1,2.29h0Z"/><path class="cls-1" d="M318,339.21l1.72-1.13a2.14,2.14,0,0,0,.34-3,2.16,2.16,0,0,0-2.89-.71l-1.72,1.13a2.14,2.14,0,0,0-.34,3,2.16,2.16,0,0,0,2.89.71h0Z"/><path class="cls-1" d="M388.87,400.23c2.44,0,.16-2.23-1.32-2.23-2.44,0-.16,2.23,1.32,2.23h0Z"/><path class="cls-1" d="M436.49,389.53l1.71-.58a1.81,1.81,0,0,0,.89-2.48,2.16,2.16,0,0,0-2.53-1.28l-1.71.58a1.81,1.81,0,0,0-.89,2.48,2.16,2.16,0,0,0,2.53,1.28h0Z"/><path class="cls-1" d="M471.85,401.31c1,0-1.24-3.23-2.57-3.23-1,0,1.24,3.23,2.57,3.23h0Z"/><path class="cls-1" d="M492.33,472.38a1.78,1.78,0,1,0-.06-3.55,1.78,1.78,0,1,0,.06,3.55h0Z"/><path class="cls-1" d="M533.41,519.09c0.94,0-1.39-2-2.16-2-0.94,0,1.39,2,2.16,2h0Z"/><path class="cls-1" d="M480.1,507.44c3,0,1.51-2.76-.78-2.76-3,0-1.51,2.76.78,2.76h0Z"/><path class="cls-1" d="M424,561.1c3,0-.12-2.59-1.86-2.59-3,0,.12,2.59,1.86,2.59h0Z"/><path class="cls-1" d="M367.18,532.12c1.49,0,4.56-2.95,2-2.95-1.49,0-4.56,2.95-2,2.95h0Z"/><path class="cls-1" d="M389.93,483.06c2.18,0,.19-2-1.16-2-2.18,0-.19,2,1.16,2h0Z"/><path class="cls-1" d="M364.71,458.55c2,0,.54-3.35-1-3.35-2,0-.54,3.35,1,3.35h0Z"/><path class="cls-1" d="M413.16,467.4c1.37,0,3.85-2.75,1.58-2.75-1.37,0-3.85,2.75-1.58,2.75h0Z"/><path class="cls-1" d="M586.18,443.07c2.73,0,2.22-3.27-.21-3.27-2.73,0-2.22,3.27.21,3.27h0Z"/><path class="cls-1" d="M737.67,215.2c2.58,0,2.58-4,0-4s-2.58,4,0,4h0Z"/><path class="cls-1" d="M711.36,233.5c2.58,0,2.58-4,0-4s-2.58,4,0,4h0Z"/><path class="cls-1" d="M734.24,254.08c2.58,0,2.58-4,0-4s-2.58,4,0,4h0Z"/><path class="cls-1" d="M717.65,263.81c2.58,0,2.58-4,0-4s-2.58,4,0,4h0Z"/><path class="cls-1" d="M732.52,291.25c2.58,0,2.58-4,0-4s-2.58,4,0,4h0Z"/><path class="cls-1" d="M710.22,283.82c2.58,0,2.58-4,0-4s-2.58,4,0,4h0Z"/><path class="cls-1" d="M800.57,357.59c2.58,0,2.58-4,0-4s-2.58,4,0,4h0Z"/><path class="cls-1" d="M823.45,355.3c2.58,0,2.58-4,0-4s-2.58,4,0,4h0Z"/><path class="cls-1" d="M769.69,349c2.58,0,2.58-4,0-4s-2.58,4,0,4h0Z"/><path class="cls-1" d="M801.72,325c2.58,0,2.58-4,0-4s-2.58,4,0,4h0Z"/><path class="cls-1" d="M797.71,309.55c2.58,0,2.58-4,0-4s-2.58,4,0,4h0Z"/><path class="cls-1" d="M772.55,282.1c2.58,0,2.58-4,0-4s-2.58,4,0,4h0Z"/><path class="cls-1" d="M793.71,279.82c2.58,0,2.58-4,0-4s-2.58,4,0,4h0Z"/><path class="cls-1" d="M809.15,244.93c2.58,0,2.58-4,0-4s-2.58,4,0,4h0Z"/><path class="cls-1" d="M757.68,190c2.58,0,2.58-4,0-4s-2.58,4,0,4h0Z"/><path class="cls-1" d="M648.12,169.38c0.54,0-1.58-2.73-2.76-2.73-0.54,0,1.58,2.73,2.76,2.73h0Z"/><path class="cls-1" d="M564.65,291c2.41,0,3.22-3.54.62-3.54-2.41,0-3.22,3.54-.62,3.54h0Z"/><path class="cls-1" d="M612.91,328.21c2.52,0,1.18-3.58-1-3.58-2.52,0-1.18,3.58,1,3.58h0Z"/><path class="cls-1" d="M558.76,229.86c2.47,0,2.23-2.46-.18-2.46s-2.23,2.46.18,2.46h0Z"/><path class="cls-1" d="M569.18,173.67c2.6,0,1.71-3.3-.42-3.3-2.6,0-1.71,3.3.42,3.3h0Z"/><path class="cls-1" d="M419.66,328c0.9,0-1-3.21-2.19-3.21-0.9,0,1,3.21,2.19,3.21h0Z"/><path class="cls-1" d="M453.48,363.8H454a2.72,2.72,0,0,0,2.38-1.43c0.35-.9-0.56-1.26-1.29-1.26h-0.57a2.72,2.72,0,0,0-2.38,1.43c-0.35.9,0.56,1.26,1.29,1.26h0Z"/><path class="cls-1" d="M536.69,375.72c0.12,0-1.82-2.52-2.93-2.52-0.12,0,1.82,2.52,2.93,2.52h0Z"/><path class="cls-1" d="M552.91,362.68c2.46,0,2.57-2.75.08-2.75s-2.57,2.75-.08,2.75h0Z"/><path class="cls-1" d="M660.24,278.76c2.63,0,1.55-3-.7-3-2.63,0-1.55,3,.7,3h0Z"/><path class="cls-1" d="M688.57,225.11c2.53,0,2.35-3.25-.16-3.25s-2.35,3.25.16,3.25h0Z"/><path class="cls-1" d="M636.19,208.34c0.56,0,4.33-.58,2.79-0.58-0.56,0-4.33.58-2.79,0.58h0Z"/><path class="cls-1" d="M575,213.94c2.42,0,1.42-3.79-.72-3.79-2.42,0-1.42,3.79.72,3.79h0Z"/><path class="cls-1" d="M515.72,214.86c2.47,0,.85-3.34-1-3.34-2.47,0-.85,3.34,1,3.34h0Z"/><path class="cls-1" d="M515,214.85c2.48,0,2.87-3.3.33-3.3s-2.87,3.3-.33,3.3h0Z"/><path class="cls-1" d="M423.25,285.37c1.65,0,.16-3.67-1.36-3.67s-0.16,3.67,1.36,3.67h0Z"/><path class="cls-1" d="M481.62,258.47c2.52,0,1.81-3.63-.3-3.63-2.52,0-1.81,3.63.3,3.63h0Z"/><path class="cls-1" d="M530.08,299.12c2.34,0,2.36-1.44,0-1.44s-2.36,1.44,0,1.44h0Z"/><path class="cls-1" d="M445.78,321.22c0.91,0,3.83-2.18,2.75-2.18-0.91,0-3.83,2.18-2.75,2.18h0Z"/><path class="cls-1" d="M482.33,292.27c0.12,0-1.76-2.61-2.86-2.61-0.12,0,1.76,2.61,2.86,2.61h0Z"/><path class="cls-1" d="M483.63,318.92c2.61,0,1.26-3.28-.88-3.28-2.61,0-1.26,3.28.88,3.28h0Z"/><path class="cls-1" d="M505.39,292.93c2.62,0,.84-2.78-0.95-2.78-2.62,0-.84,2.78.95,2.78h0Z"/><path class="cls-1" d="M526.53,260.48c1.65,0,3.79-3.08,1.38-3.08-1.65,0-3.79,3.08-1.38,3.08h0Z"/><path class="cls-1" d="M611.15,234.45c2.22,0,.85-3.62-0.87-3.62-2.22,0-.85,3.62.87,3.62h0Z"/><path class="cls-1" d="M618.32,190.19c2.59,0-.17-2-1.49-2-2.59,0,.17,2,1.49,2h0Z"/><path class="cls-1" d="M688.07,191c1.5,0,0-3.62-1.46-3.62s0,3.62,1.46,3.62h0Z"/><path class="cls-1" d="M673.77,377.77l-0.21-.86a2.05,2.05,0,0,0-2.48-1.18,1.78,1.78,0,0,0-1.36,2.16l0.21,0.86a2.05,2.05,0,0,0,2.48,1.18,1.78,1.78,0,0,0,1.36-2.16h0Z"/><path class="cls-1" d="M773,382.65l-0.39-4.85c-0.06-.69-0.12-1.39-0.17-2.08q-0.06-.62-0.08-1.25-1.35-.39-0.82.21c0.05,0.57.54,1.18,0.58,1.84a4.82,4.82,0,0,1-.22,1.73,12,12,0,0,1-2.53,3.94c-1.17,1.39,2.69,1.8,3.5.83,1.51-1.8,3.13-3.74,3.25-6.19a4.3,4.3,0,0,0-2.93-4.46c-1.63-.5-4.29-0.22-4.77,1.74a13.07,13.07,0,0,0,.18,3.88l0.39,4.85c0.11,1.4,4.11,1.17,4-.2h0Z"/><path class="cls-1" d="M802.47,323.44h-1.74c-0.63,0-.27-0.33-0.07-0.66,0.3-.51-1,0.61-1.32.39q-0.23,0,.1,0l0.18,0a2,2,0,0,1,.91.57c0.42,0.47,1.56.08,2.07-.07,0.15,0,2.05-.76,1.77-1.08-1.51-1.69-4.32-1-6.09-.09-0.56.28-2.16,1.21-1.71,2.06a1.36,1.36,0,0,0,1.19.35c0.74,0,1.48,0,2.22,0a5.45,5.45,0,0,0,2.71-.81c0.6-.38.53-0.72-0.22-0.72h0Z"/><path class="cls-1" d="M798.87,308.41a3.44,3.44,0,0,1-.47-1.92,2.86,2.86,0,0,1,.25-1c0.16-.33.59-0.47,0-0.55l-1.46-.51q-0.66-.69-0.4-0.09,0.09,0.36.17,0.72a5,5,0,0,1,.14,1.33,1.76,1.76,0,0,1-1.19,1.73c-0.88.21-.2,1.06,0.21,1.37a3.53,3.53,0,0,0,2.65.77c3-.72,2.53-5.52.27-6.85-1.23-.72-3.1-1.19-4,0.28a4.36,4.36,0,0,0,.26,4.22,3.45,3.45,0,0,0,2.41,1.34c0.53,0.08,1.57,0,1.12-.82h0Z"/><path class="cls-1" d="M770.21,349.91a3.27,3.27,0,0,1-.07-2.18,1.54,1.54,0,0,1,.46-0.59,1.44,1.44,0,0,1,.39-0.22c0.09,0,.47,0,0.23-0.11l-2.24-.95c-0.77-.4-0.37-0.26-0.27.13a1.35,1.35,0,0,1,0,.4,1.63,1.63,0,0,1-.3.85,3.4,3.4,0,0,1-2.18,1c-0.28.06,1.07,0.75,1.17,0.8,0.47,0.22.94,0.43,1.42,0.6a2.14,2.14,0,0,0,.89.25c0.87-.18,2-0.4,2.46-1.26s-0.08-1.71-.93-2.18a11.76,11.76,0,0,0-3-1.24,1.58,1.58,0,0,0-1.19.15c-1,.6-0.85,1.91-0.58,2.89a1.1,1.1,0,0,0,.48.37,12.09,12.09,0,0,0,1.27.63,13.12,13.12,0,0,0,1.32.51,2,2,0,0,0,.6.1h0Z"/><path class="cls-1" d="M798.47,356.58c-0.74.6,1.69,0.31,2.27,0.34q0.09,0.09,0,0t0,0c0,0.13,0-.17,0,0a1.32,1.32,0,0,1,.06-0.34,1.43,1.43,0,0,1,.79-0.68c0.83-.41,0-1.24-0.5-1.46a3.32,3.32,0,0,0-2.76-.07c-1,.5-2,1.65-1.3,2.79a3.08,3.08,0,0,0,1.83,1.25,3.43,3.43,0,0,0,2.91-.26c0.66-.54.14-1.17-0.5-1.46a3.7,3.7,0,0,0-1.51-.34,2.11,2.11,0,0,0-1.25.27h0Z"/><path class="cls-1" d="M696.71,335.08c2.89,0,.63-1.3-1-1.3-2.89,0-.63,1.3,1,1.3h0Z"/><path class="cls-1" d="M619.13,272.64c1.43,0,3.09-2.23.9-2.23-1.43,0-3.09,2.23-.9,2.23h0Z"/><path class="cls-1" d="M614.1,309.2c2.39,0,1.36-2.15-.48-2.15-2.39,0-1.36,2.15.48,2.15h0Z"/><path class="cls-1" d="M635.47,309.36c1.34,0,3.37-2.46,1.38-2.46-1.34,0-3.37,2.46-1.38,2.46h0Z"/><path class="cls-1" d="M625.09,350.15c1.85,0,2.49-2.85.4-2.85-1.85,0-2.49,2.85-.4,2.85h0Z"/><path class="cls-1" d="M534.42,344.42c1.82,0,3.73-2.83,1-2.83-1.82,0-3.73,2.83-1,2.83h0Z"/><path class="cls-1" d="M482.95,386.33c1.55,0,.2-3.15-1.24-3.15s-0.2,3.15,1.24,3.15h0Z"/><path class="cls-1" d="M499.51,358.23c0.5,0,3.54-.71,2.23-0.71-0.5,0-3.54.71-2.23,0.71h0Z"/><path class="cls-1" d="M533.39,310.94c0.34,0-1.5-3.34-2.62-3.34-0.34,0,1.5,3.34,2.62,3.34h0Z"/><path class="cls-1" d="M513.13,330.27a2.14,2.14,0,1,0,.17-4.26,2.14,2.14,0,1,0-.17,4.26h0Z"/><path class="cls-1" d="M564.95,335.37c-0.24,0-.87-3-1.68-3,0.24,0,.87,3,1.68,3h0Z"/><path class="cls-1" d="M585.76,319c2.9,0,1.07-2.29-1-2.29-2.9,0-1.07,2.29,1,2.29h0Z"/><path class="cls-1" d="M597.68,375.76l1.72,1.13a1.87,1.87,0,0,0,2.67-.88,2.47,2.47,0,0,0-1.17-2.91L599.18,372a1.87,1.87,0,0,0-2.67.88,2.47,2.47,0,0,0,1.17,2.91h0Z"/><path class="cls-1" d="M670.56,313.24c2.44,0,.16-2.23-1.32-2.23-2.44,0-.16,2.23,1.32,2.23h0Z"/><path class="cls-1" d="M717.23,325.53l1.71,0.58a1.65,1.65,0,0,0,2-1.52,2.37,2.37,0,0,0-1.76-2.34l-1.71-.58a1.65,1.65,0,0,0-2,1.52,2.37,2.37,0,0,0,1.76,2.34h0Z"/><path class="cls-1" d="M753.54,313.17c1,0-1.24-3.23-2.57-3.23-1,0,1.24,3.23,2.57,3.23h0Z"/><path class="cls-1" d="M774,242.42a1.78,1.78,0,1,0-.06-3.55,1.78,1.78,0,1,0,.06,3.55h0Z"/><path class="cls-1" d="M815.09,194.2c0.94,0-1.39-2-2.16-2-0.94,0,1.39,2,2.16,2h0Z"/><path class="cls-1" d="M761.79,206.57c3,0,1.51-2.76-.78-2.76-3,0-1.51,2.76.78,2.76h0Z"/><path class="cls-1" d="M705.71,152.72c3,0-.12-2.59-1.86-2.59-3,0,.12,2.59,1.86,2.59h0Z"/><path class="cls-1" d="M648.87,182.07c1.49,0,4.56-2.95,2-2.95-1.49,0-4.56,2.95-2,2.95h0Z"/><path class="cls-1" d="M671.62,230.22c2.18,0,.19-2-1.16-2-2.18,0-.19,2,1.16,2h0Z"/><path class="cls-1" d="M646.39,256c2,0,.54-3.35-1-3.35-2,0-.54,3.35,1,3.35h0Z"/><path class="cls-1" d="M694.84,246.59c1.37,0,3.85-2.75,1.58-2.75-1.37,0-3.85,2.75-1.58,2.75h0Z"/><path class="cls-1" d="M867.87,271.44c2.73,0,2.22-3.27-.21-3.27-2.73,0-2.22,3.27.21,3.27h0Z"/></svg>