<svg xmlns="http://www.w3.org/2000/svg" viewBox="0 0 1282.44 936.9"><defs><style>.cls-1{fill:#4e5d95;}.cls-2{fill:#f2fafe;}.cls-3{fill:#808dc6;}.cls-4{fill:#b8bde0;}.cls-5{fill:#1d305e;}.cls-6{fill:#142442;opacity:0.8;}</style></defs><title>background-rocks</title><g id="Layer_2" data-name="Layer 2"><g id="Layer_1-2" data-name="Layer 1"><polygon class="cls-1" points="1166.17 7.55 1166.17 123.3 1184.84 204.7 1166.17 273.45 1166.17 328.81 1064.65 324.2 1036.64 56.2 1036.64 9.23 1166.17 7.55"/><polygon class="cls-2" points="986.46 7.55 949.11 14.94 986.46 18.45 1073.98 14.94 1166.17 7.55 1084.48 0 986.46 7.55"/><polygon class="cls-3" points="986.46 18.45 1073.98 14.94 1101.99 124.98 1096.15 333.84 1006.3 333.84 971.29 110.72 986.46 18.45"/><path class="cls-4" d="M949.11,14.94s-1.56,193.95-16.54,235-16.14,71.28-16.14,71.28v31.87h93.94L986.45,18.45Z"/><polygon class="cls-1" points="1225.27 117.43 1225.27 233.18 1243.94 314.58 1225.27 383.33 1225.27 438.69 1123.75 434.08 1095.74 166.08 1095.74 119.11 1225.27 117.43"/><polygon class="cls-2" points="1045.56 117.43 1008.21 124.82 1045.56 128.33 1133.08 124.82 1225.27 117.43 1143.58 109.88 1045.56 117.43"/><polygon class="cls-3" points="1045.56 128.33 1133.08 124.82 1161.09 234.86 1155.26 443.72 1065.4 443.72 1030.39 220.6 1045.56 128.33"/><path class="cls-4" d="M1008.21,124.82s-1.56,193.95-16.54,235-16.14,71.28-16.14,71.28V463h93.94l-23.92-334.68Z"/><path class="cls-1" d="M1000.89,112.33l29.06-3.43s-8.55,157.7,0,192.09,12.19,73.81,12.19,73.81l8.5,39.42-43.18-5.87L973,191.11l18.21-53.68Z"/><path class="cls-3" d="M940.08,119.81l60.81-7.48s9.69,64.52,14.55,97.23,0,132.53,0,156-3.64,80.53-3.64,80.53l-78.89-10.9L914.7,223l14.56-82.2Z"/><path class="cls-4" d="M898.92,114.78S897.58,169.71,887.39,218s-18.81,93.1-18.81,93.1l-18.21,78v64.59l89.71-6.71s18.83-158.53,12.5-206.35S940.08,150,940.08,150v-30.2Z"/><polygon class="cls-2" points="898.92 114.78 940.09 119.81 1028.74 108.91 952.58 108.91 898.92 114.78"/><polygon class="cls-4" points="1017.84 304.37 997.21 381.04 997.21 475.82 977.79 529.5 977.79 620.93 1089.45 620.93 1117.37 396.97 1087.02 328.19 1056.68 308.9 1017.84 304.37"/><polygon class="cls-3" points="1146.5 304.37 1056.68 308.9 1071.24 343.29 1076.1 391.1 1085.81 406.2 1089.45 620.93 1216.89 620.93 1237.53 447.3 1187.76 375.17 1171.98 321.48 1146.5 304.37"/><polygon class="cls-1" points="1261.8 461.56 1199.9 368.45 1185.34 295.48 1146.5 304.37 1174.41 393.62 1198.69 412.07 1218.11 471.21 1204.15 620.93 1261.8 620.93 1261.8 461.56"/><polygon class="cls-2" points="1017.84 304.37 1067.6 313.09 1158.63 304.37 1185.34 295.48 1077.31 295.48 1017.84 304.37"/><polygon class="cls-4" points="885.73 281.28 799.78 271.22 786.21 443.58 786.21 570.66 765.57 657.41 786.21 681.74 845.68 681.74 936.32 438.55 925.79 305.08 885.73 281.28"/><polygon class="cls-1" points="1016.43 264.93 1045.56 366.42 1045.56 574.43 1060.12 626.02 1064.15 662.44 1001.91 662.44 984.05 358.03 984.05 264.93 1016.43 264.93"/><polygon class="cls-3" points="984.05 264.93 885.73 281.28 885.73 420.94 845.68 477.07 854.8 624.75 845.68 681.74 1001.91 662.44 1005.89 343.54 984.05 264.93"/><polygon class="cls-2" points="799.78 271.22 885.73 281.28 987.19 276.25 1016.43 264.93 869.96 258.29 799.78 271.22"/><polygon class="cls-1" points="1109.74 393.88 1109.74 509.63 1128.42 591.03 1109.74 659.78 1109.74 715.14 1008.22 710.52 980.21 442.53 980.21 395.55 1109.74 393.88"/><polygon class="cls-2" points="930.03 393.88 892.69 401.27 930.03 404.78 1017.55 401.27 1109.74 393.88 1028.05 386.33 930.03 393.88"/><polygon class="cls-3" points="930.03 404.78 1017.55 401.27 1045.56 511.31 1039.73 720.17 949.87 720.17 914.86 497.05 930.03 404.78"/><path class="cls-4" d="M892.69,401.27s-1.56,193.95-16.54,235S860,707.59,860,707.59v31.87H954L930,404.78Z"/><path class="cls-1" d="M1226.62,422.27l29.06-3.43s-8.55,157.7,0,192.09,12.19,73.81,12.19,73.81l8.5,39.42-43.18-5.87L1198.69,501l18.21-53.68Z"/><path class="cls-3" d="M1165.81,429.75l60.81-7.48s9.69,64.52,14.55,97.23,0,132.53,0,156-3.64,80.53-3.64,80.53l-78.89-10.9-18.21-212.22,14.56-82.2Z"/><path class="cls-4" d="M1124.65,424.71s-1.35,54.93-11.53,103.18S1094.3,621,1094.3,621l-18.21,78v64.59l89.71-6.71s18.83-158.53,12.5-206.35-12.5-90.59-12.5-90.59v-30.2Z"/><polygon class="cls-2" points="1124.65 424.71 1165.81 429.75 1254.47 418.84 1178.31 418.84 1124.65 424.71"/><polygon class="cls-1" points="1165.92 632.81 1224.18 632.81 1232.67 799.73 1232.67 871.29 1180.52 871.29 1119.79 729.27 1128.29 652.1 1165.92 632.81"/><polygon class="cls-3" points="1057.89 632.81 1165.92 632.81 1165.92 770.37 1173.93 809.79 1186.29 843.35 1196.26 871.29 1026.34 871.29 1031.45 745.76 1018.95 671.39 1057.89 632.81"/><polygon class="cls-5" points="1271.51 620.23 1271.51 733.46 1282.43 782.11 1276.97 810.63 1276.97 856.77 1271.51 871.29 1232.67 871.29 1202.33 657.13 1202.33 632.81 1271.51 620.23"/><polygon class="cls-4" points="985.07 620.23 977.79 772.89 985.07 815.67 1018.95 829.09 1026.34 854.25 1026.34 871.29 1085.11 867.67 1048.18 771.21 1057.89 632.81 985.07 620.23"/><polygon class="cls-2" points="985.07 620.23 1057.89 632.81 1224.18 632.81 1271.51 620.23 1225.39 613.51 1033.62 613.51 985.07 620.23"/><polygon class="cls-4" points="901.98 566.12 932.54 566.12 950.51 686.9 978.05 768.34 978.05 836.62 978.05 870.59 916.15 870.59 876.1 669.28 901.98 566.12"/><polygon class="cls-2" points="775.97 552.28 805.1 566.12 932.54 566.12 1027.99 552.28 850.61 544.73 775.97 552.28"/><polygon class="cls-4" points="775.97 552.28 759.59 722.13 759.59 744.77 759.59 870.59 792.36 870.59 805.1 566.12 775.97 552.28"/><polygon class="cls-3" points="805.1 566.12 901.98 566.12 919.79 683.13 908.87 711.43 934.36 793.84 916.15 870.59 834.23 870.59 797.72 742.4 805.1 566.12"/><polygon class="cls-1" points="797.72 742.4 834.23 870.59 792.36 870.59 797.72 742.4"/><polygon class="cls-3" points="1006.3 555.42 932.54 566.12 950.51 711.43 978.05 870.59 1027.99 870.59 1003.54 711.43 1007.18 586.25 1006.3 555.42"/><polygon class="cls-1" points="1027.99 552.28 1027.99 704.51 1014.46 729.68 1052.69 870.59 1027.99 870.59 978.05 674.68 980.27 578.7 980.27 559.2 1027.99 552.28"/><path class="cls-6" d="M1271.51,733.46v-10l4.86.66-4.86-22.53V620.22l-9.71-1.41V461.56l-7.58-11.41c.78-18.77,1.46-31.31,1.46-31.31L1235,421.28l0,0,19.47-2.4H1233.4l-8.13-12.23V383.33l18.68-68.75-18.68-81.4V117.43l-59.1-5.46V7.55L1084.48,0l-98,7.55-37.34,7.39s-.35,44-2.35,94.6l-47.84,5.23S897.58,169.71,887.39,218c-3,14.23-5.87,28.16-8.42,40.73l-9-.41-70.17,12.93L786.21,443.58V551.24l-10.23,1L766,655.59l-.43,1.82.23.27-6.22,64.44V870.59h32.77l7.9-188.85h0l-2.54,60.66-5.37,128.19h234v.7h245.18l5.46-14.52V810.63l5.46-28.52ZM946.37,119h0l-6.29.77Z"/><polygon class="cls-1" points="795.6 7.55 795.6 123.3 808.5 204.7 795.6 273.45 795.6 328.81 725.44 324.2 706.08 56.2 706.08 9.23 795.6 7.55"/><polygon class="cls-2" points="671.4 7.55 645.59 14.94 671.4 18.45 731.88 14.94 795.6 7.55 739.14 0 671.4 7.55"/><polygon class="cls-3" points="671.4 18.45 731.88 14.94 751.24 124.98 747.21 333.84 685.11 333.84 660.92 110.72 671.4 18.45"/><path class="cls-4" d="M645.59,14.94s-1.08,193.95-11.43,235S623,321.26,623,321.26v31.87h64.92L671.4,18.45Z"/><polygon class="cls-1" points="836.44 117.43 836.44 233.18 849.35 314.58 836.44 383.33 836.44 438.69 766.28 434.08 746.92 166.08 746.92 119.11 836.44 117.43"/><polygon class="cls-2" points="712.24 117.43 686.43 124.82 712.24 128.33 772.73 124.82 836.44 117.43 779.99 109.88 712.24 117.43"/><polygon class="cls-3" points="712.24 128.33 772.73 124.82 792.09 234.86 788.05 443.72 725.96 443.72 701.76 220.6 712.24 128.33"/><path class="cls-4" d="M686.44,124.82s-1.08,193.95-11.43,235-11.15,71.28-11.15,71.28V463h64.92L712.24,128.33Z"/><path class="cls-1" d="M681.38,112.33l20.08-3.43s-5.91,157.7,0,192.09,8.42,73.81,8.42,73.81l5.87,39.42-29.84-5.87L662.07,191.11l12.58-53.68Z"/><path class="cls-3" d="M639.35,119.81l42-7.48s6.7,64.52,10.05,97.23,0,132.53,0,156-2.52,80.53-2.52,80.53l-54.52-10.9L621.81,223l10.07-82.2Z"/><path class="cls-4" d="M610.91,114.78s-.93,54.93-8,103.18-13,93.1-13,93.1l-12.58,78v64.59l62-6.71s13-158.53,8.64-206.35S639.35,150,639.35,150v-30.2Z"/><polygon class="cls-2" points="610.9 114.78 639.35 119.81 700.62 108.91 647.99 108.91 610.9 114.78"/><polygon class="cls-4" points="693.09 304.37 678.83 381.04 678.83 475.82 665.41 529.5 665.41 620.93 742.58 620.93 761.87 396.97 740.9 328.19 719.93 308.9 693.09 304.37"/><polygon class="cls-3" points="782 304.37 719.93 308.9 730 343.29 733.35 391.1 740.06 406.2 742.58 620.93 830.65 620.93 844.91 447.3 810.52 375.17 799.62 321.48 782 304.37"/><polygon class="cls-1" points="861.69 461.56 818.91 368.45 808.84 295.48 782 304.37 801.29 393.62 818.07 412.07 831.49 471.21 821.85 620.93 861.69 620.93 861.69 461.56"/><polygon class="cls-2" points="693.09 304.37 727.48 313.09 790.39 304.37 808.84 295.48 734.19 295.48 693.09 304.37"/><polygon class="cls-4" points="601.79 281.28 542.39 271.22 533.01 443.58 533.01 570.66 518.75 657.41 533.01 681.74 574.11 681.74 636.75 438.55 629.47 305.08 601.79 281.28"/><polygon class="cls-1" points="692.11 264.93 712.24 366.42 712.24 574.43 722.31 626.02 725.1 662.44 682.08 662.44 669.74 358.03 669.74 264.93 692.11 264.93"/><polygon class="cls-3" points="669.74 264.93 601.79 281.28 601.79 420.94 574.11 477.07 580.42 624.75 574.11 681.74 682.08 662.44 684.83 343.54 669.74 264.93"/><polygon class="cls-2" points="542.39 271.22 601.79 281.28 671.91 276.25 692.11 264.93 590.89 258.29 542.39 271.22"/><polygon class="cls-1" points="756.6 393.88 756.6 509.63 769.51 591.03 756.6 659.78 756.6 715.14 686.44 710.52 667.09 442.53 667.09 395.55 756.6 393.88"/><polygon class="cls-2" points="632.4 393.88 606.6 401.27 632.4 404.78 692.89 401.27 756.6 393.88 700.15 386.33 632.4 393.88"/><polygon class="cls-3" points="632.4 404.78 692.89 401.27 712.25 511.31 708.22 720.17 646.12 720.17 621.92 497.05 632.4 404.78"/><path class="cls-4" d="M606.6,401.27s-1.08,193.95-11.43,235S584,707.59,584,707.59v31.87h64.92L632.4,404.78Z"/><path class="cls-1" d="M837.37,422.27l20.08-3.43s-5.91,157.7,0,192.09,8.42,73.81,8.42,73.81l5.87,39.42-29.84-5.87L818.07,501l12.58-53.68Z"/><path class="cls-3" d="M795.35,429.75l42-7.48s6.7,64.52,10.05,97.23,0,132.53,0,156S844.91,756,844.91,756l-54.52-10.9L777.81,532.92l10.07-82.2Z"/><path class="cls-4" d="M766.9,424.71s-.93,54.93-8,103.18-13,93.1-13,93.1l-12.58,78v64.59l62-6.71s13-158.53,8.64-206.35-8.64-90.59-8.64-90.59v-30.2Z"/><polygon class="cls-2" points="766.9 424.71 795.35 429.75 856.62 418.84 803.99 418.84 766.9 424.71"/><polygon class="cls-1" points="795.42 632.81 835.68 632.81 841.56 799.73 841.56 871.29 805.52 871.29 763.55 729.27 769.42 652.1 795.42 632.81"/><polygon class="cls-3" points="720.77 632.81 795.42 632.81 795.42 770.37 800.96 809.79 809.5 843.35 816.39 871.29 698.96 871.29 702.49 745.76 693.86 671.39 720.77 632.81"/><polygon class="cls-5" points="868.4 620.23 868.4 733.46 875.95 782.11 872.17 810.63 872.17 856.77 868.4 871.29 841.56 871.29 820.59 657.13 820.59 632.81 868.4 620.23"/><polygon class="cls-4" points="670.44 620.23 665.41 772.89 670.44 815.67 693.86 829.09 698.96 854.25 698.96 871.29 739.58 867.67 714.06 771.21 720.77 632.81 670.44 620.23"/><polygon class="cls-2" points="670.44 620.23 720.77 632.81 835.68 632.81 868.4 620.23 836.52 613.51 703.99 613.51 670.44 620.23"/><polygon class="cls-4" points="613.02 566.12 634.14 566.12 646.55 686.9 665.59 768.34 665.59 836.62 665.59 870.59 622.81 870.59 595.13 669.28 613.02 566.12"/><polygon class="cls-2" points="525.94 552.28 546.07 566.12 634.14 566.12 700.11 552.28 577.52 544.73 525.94 552.28"/><polygon class="cls-4" points="525.94 552.28 514.61 722.13 514.61 744.77 514.61 870.59 537.26 870.59 546.07 566.12 525.94 552.28"/><polygon class="cls-3" points="546.07 566.12 613.02 566.12 625.33 683.13 617.78 711.43 635.39 793.84 622.81 870.59 566.2 870.59 540.97 742.4 546.07 566.12"/><polygon class="cls-1" points="540.97 742.4 566.2 870.59 537.26 870.59 540.97 742.4"/><polygon class="cls-3" points="685.11 555.42 634.14 566.12 646.55 711.43 665.59 870.59 700.11 870.59 683.21 711.43 685.72 586.25 685.11 555.42"/><polygon class="cls-1" points="700.11 552.28 700.11 704.51 690.75 729.68 717.17 870.59 700.11 870.59 665.59 674.68 667.12 578.7 667.12 559.2 700.11 552.28"/><path class="cls-6" d="M868.4,733.46v-10l3.36.66-3.36-22.53V620.22l-6.71-1.41V461.56l-5.24-11.41c.54-18.77,1-31.31,1-31.31l-14.28,2.44,0,0,13.46-2.4H842.06l-5.62-12.23V383.33l12.91-68.75-12.91-81.4V117.43L795.6,112V7.55L739.14,0,671.4,7.55l-25.81,7.39s-.25,44-1.62,94.6l-33.06,5.23s-.93,54.93-8,103.18c-2.08,14.23-4.06,28.16-5.82,40.73l-6.23-.41-48.49,12.93L533,443.58V551.24l-7.07,1L519,655.59l-.3,1.82.16.27-4.3,64.44V870.59h22.65l5.46-188.85h0L541,742.4l-3.71,128.19H699v.7H868.4l3.77-14.52V810.63l3.77-28.52ZM643.7,119h0l-4.35.77Z"/><polygon class="cls-1" points="496.28 146.18 496.28 237.25 506.43 301.3 496.28 355.38 496.28 398.94 441.08 395.31 425.85 184.46 425.85 147.5 496.28 146.18"/><polygon class="cls-2" points="398.56 146.18 378.26 152 398.56 154.76 446.15 152 496.28 146.18 451.86 140.24 398.56 146.18"/><polygon class="cls-3" points="398.56 154.76 446.15 152 461.38 238.57 458.21 402.9 409.35 402.9 390.32 227.35 398.56 154.76"/><path class="cls-4" d="M378.26,152s-.85,152.59-9,184.92S360.49,393,360.49,393v25.08h51.08l-13-263.32Z"/><polygon class="cls-1" points="528.41 232.63 528.41 323.7 538.57 387.75 528.41 441.83 528.41 485.39 473.21 481.76 457.98 270.91 457.98 233.95 528.41 232.63"/><polygon class="cls-2" points="430.7 232.63 410.39 238.45 430.7 241.21 478.29 238.45 528.41 232.63 484 226.69 430.7 232.63"/><polygon class="cls-3" points="430.7 241.21 478.29 238.45 493.51 325.02 490.34 489.35 441.49 489.35 422.45 313.8 430.7 241.21"/><path class="cls-4" d="M410.39,238.45s-.85,152.59-9,184.92-8.78,56.08-8.78,56.08v25.08H443.7l-13-263.32Z"/><path class="cls-1" d="M406.41,228.62l15.8-2.69s-4.65,124.07,0,151.13,6.63,58.08,6.63,58.08l4.62,31L410,461.53,391.22,290.6l9.9-42.24Z"/><path class="cls-3" d="M373.35,234.51l33.06-5.88s5.27,50.76,7.91,76.5,0,104.27,0,122.75-2,63.35-2,63.35l-42.9-8.58-9.9-167L367.47,251Z"/><path class="cls-4" d="M351,230.55s-.73,43.22-6.27,81.18S334.47,385,334.47,385l-9.9,61.37v50.82l48.78-5.28s10.24-124.73,6.8-162.35-6.8-71.27-6.8-71.27V234.51Z"/><polygon class="cls-2" points="350.97 230.55 373.35 234.51 421.55 225.93 380.14 225.93 350.97 230.55"/><polygon class="cls-4" points="415.63 379.71 404.41 440.03 404.41 514.6 393.85 556.84 393.85 628.77 454.56 628.77 469.74 452.57 453.24 398.45 436.74 383.27 415.63 379.71"/><polygon class="cls-3" points="485.58 379.71 436.74 383.27 444.66 410.33 447.3 447.95 452.58 459.83 454.56 628.77 523.86 628.77 535.08 492.17 508.02 435.41 499.44 393.17 485.58 379.71"/><polygon class="cls-1" points="548.27 503.38 514.62 430.13 506.7 372.71 485.58 379.71 500.76 449.93 513.96 464.45 524.52 510.97 516.93 628.77 548.27 628.77 548.27 503.38"/><polygon class="cls-2" points="415.63 379.71 442.68 386.57 492.18 379.71 506.7 372.71 447.96 372.71 415.63 379.71"/><polygon class="cls-4" points="343.8 361.55 297.06 353.63 289.68 489.24 289.68 589.22 278.46 657.47 289.68 676.61 322.02 676.61 371.3 485.28 365.57 380.27 343.8 361.55"/><polygon class="cls-1" points="414.86 348.68 430.7 428.53 430.7 592.19 438.62 632.77 440.81 661.43 406.96 661.43 397.25 421.93 397.25 348.68 414.86 348.68"/><polygon class="cls-3" points="397.25 348.68 343.8 361.55 343.8 471.42 322.02 515.58 326.98 631.78 322.02 676.61 406.96 661.43 409.13 410.53 397.25 348.68"/><polygon class="cls-2" points="297.06 353.63 343.8 361.55 398.96 357.59 414.86 348.68 335.22 343.45 297.06 353.63"/><polygon class="cls-1" points="465.6 450.13 465.6 541.2 475.75 605.25 465.6 659.33 465.6 702.89 410.4 699.26 395.17 488.41 395.17 451.45 465.6 450.13"/><polygon class="cls-2" points="367.88 450.13 347.58 455.95 367.88 458.71 415.47 455.95 465.6 450.13 421.18 444.19 367.88 450.13"/><polygon class="cls-3" points="367.88 458.71 415.47 455.95 430.7 542.52 427.53 706.85 378.67 706.85 359.63 531.3 367.88 458.71"/><path class="cls-4" d="M347.58,455.95s-.85,152.59-9,184.92S329.81,697,329.81,697V722h51.08l-13-263.32Z"/><path class="cls-1" d="M529.15,472.47l15.8-2.69s-4.65,124.07,0,151.13S551.57,679,551.57,679l4.62,31-23.48-4.62L514,534.45l9.9-42.24Z"/><path class="cls-3" d="M496.08,478.35l33.06-5.88s5.27,50.76,7.91,76.5,0,104.27,0,122.75-2,63.35-2,63.35l-42.9-8.58-9.9-167,7.92-64.67Z"/><path class="cls-4" d="M473.7,474.39s-.73,43.22-6.27,81.18-10.23,73.25-10.23,73.25l-9.9,61.37V741l48.78-5.28s10.24-124.73,6.8-162.35-6.8-71.27-6.8-71.27V478.35Z"/><polygon class="cls-2" points="473.7 474.39 496.08 478.35 544.29 469.77 502.88 469.77 473.7 474.39"/><polygon class="cls-1" points="496.14 638.11 527.82 638.11 532.44 769.44 532.44 825.74 504.08 825.74 471.06 714.01 475.68 653.29 496.14 638.11"/><polygon class="cls-3" points="437.4 638.11 496.14 638.11 496.14 746.35 500.5 777.36 507.22 803.76 512.64 825.74 420.25 825.74 423.03 726.98 416.23 668.47 437.4 638.11"/><polygon class="cls-5" points="553.55 628.22 553.55 717.31 559.49 755.58 556.52 778.02 556.52 814.32 553.55 825.74 532.44 825.74 515.94 657.25 515.94 638.11 553.55 628.22"/><polygon class="cls-4" points="397.81 628.22 393.85 748.33 397.81 781.98 416.23 792.54 420.25 812.34 420.25 825.74 452.2 822.9 432.13 747 437.4 638.11 397.81 628.22"/><polygon class="cls-2" points="397.81 628.22 437.4 638.11 527.82 638.11 553.55 628.22 528.48 622.94 424.2 622.94 397.81 628.22"/><polygon class="cls-4" points="352.63 585.64 369.25 585.64 379.01 680.67 393.99 744.75 393.99 798.47 393.99 825.19 360.34 825.19 338.56 666.81 352.63 585.64"/><polygon class="cls-2" points="284.12 574.76 299.95 585.64 369.25 585.64 421.15 574.76 324.7 568.82 284.12 574.76"/><polygon class="cls-4" points="284.12 574.76 275.21 708.39 275.21 726.21 275.21 825.19 293.02 825.19 299.95 585.64 284.12 574.76"/><polygon class="cls-3" points="299.95 585.64 352.63 585.64 362.32 677.7 356.38 699.98 370.24 764.81 360.34 825.19 315.79 825.19 295.94 724.34 299.95 585.64"/><polygon class="cls-1" points="295.94 724.34 315.79 825.19 293.02 825.19 295.94 724.34"/><polygon class="cls-3" points="409.35 577.23 369.25 585.64 379.01 699.98 393.99 825.19 421.15 825.19 407.85 699.98 409.83 601.48 409.35 577.23"/><polygon class="cls-1" points="421.15 574.76 421.15 694.53 413.79 714.33 434.58 825.19 421.15 825.19 393.99 671.06 395.2 595.54 395.2 580.2 421.15 574.76"/><path class="cls-6" d="M553.18,717.31v-7.83l2.64.52-2.64-17.73V628.22l-5.28-1.11V503.38l-4.12-9c.43-14.77.8-24.64.8-24.64l-11.23,1.92v0l10.59-1.88H532.45L528,460.15V441.83l10.15-54.09L528,323.7V232.63l-32.13-4.3V146.18l-44.42-5.94-53.3,5.94L377.88,152s-.19,34.66-1.28,74.43l-26,4.12s-.73,43.22-6.27,81.18c-1.63,11.2-3.19,22.15-4.58,32l-4.9-.32-38.15,10.17L289.3,489.24v84.7l-5.56.81L278.32,656l-.24,1.43.13.21-3.38,50.7v116.8h17.82l4.3-148.58h0l-1.38,47.73-2.92,100.85H419.87v.55H553.18l3-11.42V778l3-22.44ZM376.39,233.9h0l-3.42.61Z"/><polygon class="cls-1" points="221.45 257.34 221.45 348.41 231.6 412.45 221.45 466.54 221.45 510.1 166.25 506.47 151.02 295.62 151.02 258.66 221.45 257.34"/><polygon class="cls-2" points="123.73 257.34 103.43 263.16 123.73 265.92 171.32 263.16 221.45 257.34 177.03 251.4 123.73 257.34"/><polygon class="cls-3" points="123.73 265.92 171.32 263.16 186.55 349.73 183.38 514.06 134.52 514.06 115.49 338.51 123.73 265.92"/><path class="cls-4" d="M103.43,263.16s-.85,152.59-9,184.92-8.78,56.08-8.78,56.08v25.08h51.08l-13-263.32Z"/><polygon class="cls-1" points="253.58 343.79 253.58 434.86 263.74 498.9 253.58 552.99 253.58 596.55 198.38 592.92 183.15 382.07 183.15 345.11 253.58 343.79"/><polygon class="cls-2" points="155.87 343.79 135.56 349.61 155.87 352.37 203.46 349.61 253.58 343.79 209.17 337.85 155.87 343.79"/><polygon class="cls-3" points="155.87 352.37 203.46 349.61 218.69 436.18 215.51 600.51 166.66 600.51 147.62 424.96 155.87 352.37"/><path class="cls-4" d="M135.56,349.61s-.85,152.59-9,184.92-8.78,56.08-8.78,56.08v25.08h51.08l-13-263.32Z"/><path class="cls-1" d="M131.58,339.78l15.8-2.69s-4.65,124.07,0,151.13S154,546.29,154,546.29l4.62,31-23.48-4.62L116.39,401.76l9.9-42.24Z"/><path class="cls-3" d="M98.52,345.67l33.06-5.88s5.27,50.76,7.91,76.5,0,104.27,0,122.75-2,63.35-2,63.35l-42.9-8.58-9.9-167,7.92-64.67Z"/><path class="cls-4" d="M76.14,341.71s-.73,43.22-6.27,81.18-10.23,73.25-10.23,73.25l-9.9,61.37v50.82L98.52,603s10.24-124.73,6.8-162.35-6.8-71.27-6.8-71.27V345.67Z"/><polygon class="cls-2" points="76.14 341.71 98.52 345.67 146.72 337.09 105.32 337.09 76.14 341.71"/><polygon class="cls-4" points="140.8 490.87 129.58 551.19 129.58 625.76 119.02 668 119.02 739.93 179.73 739.93 194.91 563.73 178.41 509.61 161.91 494.43 140.8 490.87"/><polygon class="cls-3" points="210.75 490.87 161.91 494.43 169.83 521.49 172.47 559.11 177.75 570.99 179.73 739.93 249.03 739.93 260.25 603.33 233.19 546.57 224.61 504.33 210.75 490.87"/><polygon class="cls-1" points="273.44 614.54 239.79 541.29 231.87 483.88 210.75 490.87 225.93 561.09 239.13 575.61 249.69 622.13 242.1 739.93 273.44 739.93 273.44 614.54"/><polygon class="cls-2" points="140.8 490.87 167.85 497.73 217.35 490.87 231.87 483.88 173.13 483.88 140.8 490.87"/><polygon class="cls-4" points="68.97 472.71 22.23 464.79 14.85 600.4 14.85 700.38 3.63 768.63 14.85 787.77 47.19 787.77 96.47 596.44 90.75 491.43 68.97 472.71"/><polygon class="cls-1" points="140.03 459.84 155.87 539.69 155.87 703.35 163.78 743.93 165.98 772.59 132.13 772.59 122.42 533.09 122.42 459.84 140.03 459.84"/><polygon class="cls-3" points="122.42 459.84 68.97 472.71 68.97 582.58 47.19 626.74 52.15 742.94 47.19 787.77 132.13 772.59 134.3 521.69 122.42 459.84"/><polygon class="cls-2" points="22.23 464.79 68.97 472.71 124.13 468.75 140.03 459.84 60.39 454.61 22.23 464.79"/><polygon class="cls-1" points="190.77 561.29 190.77 652.36 200.92 716.4 190.77 770.49 190.77 814.05 135.57 810.42 120.34 599.57 120.34 562.61 190.77 561.29"/><polygon class="cls-2" points="93.05 561.29 72.75 567.11 93.05 569.87 140.64 567.11 190.77 561.29 146.35 555.35 93.05 561.29"/><polygon class="cls-3" points="93.05 569.87 140.64 567.11 155.87 653.68 152.7 818.01 103.84 818.01 84.81 642.46 93.05 569.87"/><path class="cls-4" d="M72.75,567.11S71.9,719.7,63.76,752,55,808.11,55,808.11v25.08h51.08l-13-263.32Z"/><path class="cls-1" d="M254.32,583.63l15.8-2.69s-4.65,124.07,0,151.13,6.63,58.08,6.63,58.08l4.62,31-23.48-4.62L239.13,645.61l9.9-42.24Z"/><path class="cls-3" d="M221.25,589.51l33.06-5.88s5.27,50.76,7.91,76.5,0,104.27,0,122.75-2,63.35-2,63.35l-42.9-8.58-9.9-167L215.37,606Z"/><path class="cls-4" d="M198.87,585.55s-.73,43.22-6.27,81.18S182.37,740,182.37,740l-9.9,61.37v50.82l48.78-5.28s10.24-124.73,6.8-162.35-6.8-71.27-6.8-71.27V589.51Z"/><polygon class="cls-2" points="198.87 585.55 221.25 589.51 269.46 580.93 228.05 580.93 198.87 585.55"/><polygon class="cls-1" points="221.31 749.27 252.99 749.27 257.61 880.6 257.61 936.9 229.25 936.9 196.23 825.17 200.85 764.45 221.31 749.27"/><polygon class="cls-3" points="162.57 749.27 221.31 749.27 221.31 857.5 225.66 888.52 232.39 914.92 237.81 936.9 145.42 936.9 148.2 838.14 141.4 779.63 162.57 749.27"/><polygon class="cls-5" points="278.73 739.38 278.73 828.47 284.66 866.74 281.69 889.18 281.69 925.48 278.73 936.9 257.61 936.9 241.11 768.41 241.11 749.27 278.73 739.38"/><polygon class="cls-4" points="122.98 739.38 119.02 859.49 122.98 893.14 141.4 903.7 145.42 923.5 145.42 936.9 177.37 934.06 157.29 858.16 162.57 749.27 122.98 739.38"/><polygon class="cls-2" points="122.98 739.38 162.57 749.27 252.99 749.27 278.73 739.38 253.65 734.1 149.38 734.1 122.98 739.38"/><polygon class="cls-4" points="77.8 696.8 94.42 696.8 104.19 791.83 119.16 855.9 119.16 909.63 119.16 936.35 85.51 936.35 63.73 777.97 77.8 696.8"/><polygon class="cls-2" points="9.29 685.92 25.13 696.8 94.42 696.8 146.32 685.92 49.87 679.98 9.29 685.92"/><polygon class="cls-4" points="9.29 685.92 0.38 819.55 0.38 837.37 0.38 936.35 18.2 936.35 25.13 696.8 9.29 685.92"/><polygon class="cls-3" points="25.13 696.8 77.8 696.8 87.49 788.86 81.55 811.13 95.41 875.97 85.51 936.35 40.96 936.35 21.11 835.5 25.13 696.8"/><polygon class="cls-1" points="21.11 835.5 40.96 936.35 18.2 936.35 21.11 835.5"/><polygon class="cls-3" points="134.52 688.39 94.42 696.8 104.19 811.13 119.16 936.35 146.32 936.35 133.02 811.13 135 712.64 134.52 688.39"/><polygon class="cls-1" points="146.32 685.92 146.32 805.69 138.96 825.49 159.75 936.35 146.32 936.35 119.16 782.22 120.37 706.7 120.37 691.36 146.32 685.92"/><path class="cls-6" d="M278.35,828.47v-7.83l2.64.52-2.64-17.73V739.37l-5.28-1.11V614.54l-4.12-9c.43-14.77.8-24.64.8-24.64l-11.23,1.92v0l10.59-1.88H257.62l-4.42-9.62V553l10.15-54.09-10.15-64V343.79l-32.13-4.3V257.34l-44.42-5.94-53.3,5.94L103,263.16s-.19,34.66-1.28,74.43l-26,4.12s-.73,43.22-6.27,81.18c-1.63,11.2-3.19,22.15-4.58,32l-4.9-.32L21.86,464.79,14.47,600.4v84.7l-5.56.81L3.49,767.2l-.24,1.43.13.21L0,819.55v116.8H17.82l4.3-148.58h0L20.73,835.5,17.82,936.35H145v.55H278.35l3-11.42v-36.3l3-22.44ZM101.56,345.06h0l-3.42.61Z"/></g></g></svg>