<svg id="Layer_1" data-name="Layer 1" xmlns="http://www.w3.org/2000/svg" viewBox="0 0 30.54 24.77"><defs><style>.cls-1{fill:#399bad;}</style></defs><title>dayof-icon</title><path class="cls-1" d="M30.54,3A12.83,12.83,0,0,1,26.9,4,6.35,6.35,0,0,0,29.63.46a12.53,12.53,0,0,1-4,1.52,6.06,6.06,0,0,0-4.56-2,6.16,6.16,0,0,0-6.23,6.23A4.21,4.21,0,0,0,15,7.6,16.9,16.9,0,0,1,2.28,1.22a5.62,5.62,0,0,0-.91,3.19A6.14,6.14,0,0,0,4.1,9.57a6.19,6.19,0,0,1-2.74-.76V9a6.19,6.19,0,0,0,5,6.08,5.7,5.7,0,0,1-1.67.15A3.35,3.35,0,0,1,3.49,15a6.4,6.4,0,0,0,5.77,4.41,12.65,12.65,0,0,1-7.75,2.74A5.17,5.17,0,0,1,0,22a17.2,17.2,0,0,0,9.57,2.74C21,24.77,27.35,15.2,27.35,7V6.23A12.73,12.73,0,0,0,30.54,3Z"/></svg>