<svg id="Layer_1" data-name="Layer 1" xmlns="http://www.w3.org/2000/svg" viewBox="0 0 23.41 23.36"><defs><style>.cls-1{fill:#399bad;}</style></defs><title>dayof-icon</title><path class="cls-1" d="M21,16.16c-2.09-2.09-2.84-2.63-5.11-.36-1,1-1.45,1.7-1.47,2.36a18.81,18.81,0,0,1-5.34-3.9A18.9,18.9,0,0,1,5.23,9C5.89,9,6.6,8.51,7.61,7.5c2.27-2.27,1.73-3-.36-5.11s-3.71-3.5-6-1.23A3.24,3.24,0,0,0,.12,3.42C-.56,6.81,1.74,12,6.54,16.82s9.82,7,13.21,6.46a3.06,3.06,0,0,0,2.5-1.15C24.52,19.87,23.11,18.25,21,16.16Z"/></svg>