<?xml version="1.0" encoding="UTF-8"?>
<!DOCTYPE svg PUBLIC "-//W3C//DTD SVG 1.1//EN" "http://www.w3.org/Graphics/SVG/1.1/DTD/svg11.dtd">
<svg
		xmlns="http://www.w3.org/2000/svg"
		xmlns:xlink="http://www.w3.org/1999/xlink"
		version="1.1"
		width="145.42"
		height="96.681"
		xml:space="preserve">
	<defs>
		<radialGradient
				cx="10.648"
				cy="46.591"
				r="27.149"
				id="b"
				gradientUnits="userSpaceOnUse"
				gradientTransform="matrix(-0.047808,-1.3249,-1.3581,0.049012,139.59,42.092)">
			<stop
				style="stop-color:#5aad35;stop-opacity:1"
				offset="0" />
			<stop
				style="stop-color:#438e2f;stop-opacity:1"
				offset="0.67532003" />
			<stop
				style="stop-color:#2c702a;stop-opacity:1"
				offset="1" />
		</radialGradient>
	</defs>
	<path
		d="m 74.219,0 c 11.311,0 22.835,2.4362 33.664,7.6738 3.8212,9.1562 5.5675,18.582 5.5675,27.781 0,9.1725 -1.7238,18.492 -5.5475,27.734 -10.871,5.263 -22.356,7.676 -33.681,7.676 -11.319,0 -22.799,-2.413 -33.682,-7.676 -3.824,-9.241 -5.543,-18.561 -5.543,-27.734 0,-9.1988 1.7412,-18.625 5.565,-27.781 C 51.393,2.436 62.92,-2e-4 74.222,-2e-4"
		style="fill:#247218" />
	<path
		d="m 42.911,60.984 c -3.1612,-7.9238 -4.8925,-16.536 -4.8925,-25.529 0,-9.0138 1.7338,-17.636 4.91,-25.579 9.4088,-4.4088 20.119,-6.8812 31.29,-6.8812 11.175,0 21.892,2.4725 31.294,6.8812 3.175,7.9425 4.9112,16.565 4.9112,25.579 0,8.9925 -1.7262,17.605 -4.8912,25.529 -9.4075,4.415 -20.129,6.8888 -31.314,6.8888 -11.179,0 -21.9,-2.4738 -31.308,-6.8888"
		style="fill:#fcdf17" />
	<path
		d="m 103.74,59.329 c -1.9775,-3.255 -4.6338,-5.8838 -4.6625,-5.9088 -0.0325,-0.01625 -0.5525,-0.1775 -0.5525,-0.1775 -5.6375,-1.7325 -9.3325,-3.035 -10.966,-3.8812 -2.2475,-1.1675 -4.6088,-4.0012 -4.8688,-4.32 -2.635,-0.19875 -4.815,-0.15625 -6.9125,0.0975 l -1.3362,0.17375 c -2.5475,0.32875 -5.1775,0.67625 -7.755,0.2625 -1.7162,-0.28125 -3.3825,-0.8275 -5.1488,-1.4025 -2.7212,-0.89125 -5.5088,-1.8062 -8.6938,-1.8012 h -0.1275 l 0.055,0.1125 c 0.72375,1.4075 3.5825,5.6788 7.1625,6.8525 0.79,0.19 1.3612,0.4 1.6088,0.59375 0,0.0087 1.37,2.7962 1.7438,3.55 -2.2275,-1.0112 -9.1175,-4.515 -14.676,-11.279 v -0.01 c 0,-0.09 -0.14375,-1.4062 -0.17375,-1.6938 3.31,-1.235 10.764,-1.9512 11.604,-2.0312 l 0.06125,-0.005 0.02625,-0.0675 c 0.445,-3.9212 1.3738,-7.0588 3.1138,-10.495 0.05,-0.10375 0.08,-0.19875 0.08,-0.28125 0,-0.06 -0.0175,-0.12125 -0.0425,-0.17 -0.0975,-0.185 -0.33625,-0.22125 -0.34625,-0.22125 0,0 -4.8125,-0.84 -5.0725,-0.885 -0.0275,-0.085 -0.50625,-1.5538 -0.5475,-1.6762 3.6562,-1.36 8.1638,-2.6325 10.744,-3.1925 0.43625,-0.69625 0.55875,-1.075 0.55875,-1.53 0,-0.38625 -0.18625,-0.715 -0.55875,-0.9675 -1.8288,-1.24 -7.5888,-0.49375 -13.416,1.7412 -0.0125,-0.02375 -0.0125,-0.02875 -0.03,-0.05375 1.21,-0.905 3.3725,-2.25 4.9762,-2.995 l 0.0625,-0.035 -0.01875,-0.06 c -0.435,-1.4738 -3.2812,-2.6012 -3.6012,-2.7162 0.0062,-0.05 0.01125,-0.08375 0.01625,-0.1225 2.8938,-0.1975 4.8138,1.1562 5.4,2.1212 l 0.03,0.0475 0.0575,-0.01875 c 0.37125,-0.12 1.6788,-0.535 3.0938,-0.7025 l 0.0825,-0.0038 -0.0225,-0.08625 c -0.465,-2.4788 -2.8312,-4.1338 -3.6375,-4.6325 0.0225,-0.04 0.03,-0.055 0.0525,-0.08375 2.7938,0.21625 5.375,2.6225 5.9562,4.6562 l 0.01625,0.055 0.0575,0.005 c 0.75,0.02625 1.66,0.11 2.2688,0.2125 l 0.0625,0.01 0.0225,-0.0525 c 0.2275,-0.53375 0.33875,-1.1038 0.33875,-1.69 0,-1.8312 -1.035,-3.795 -2.3075,-5.0362 0.025,-0.035 0.03625,-0.0675 0.06875,-0.0975 3.67,1.3925 4.6038,4.0375 4.6038,6.5 0,1.7238 -0.4575,3.365 -0.7525,4.4112 l -0.12375,0.43375 c 0,0 5.405,-0.6525 5.77,-0.69625 -0.55,0.69625 -1.735,1.9362 -4.1012,3.2425 0,-0.0125 -2.4388,-0.31125 -2.4388,-0.31125 l -0.06375,-0.01 -0.02125,0.0625 c -0.16375,0.50375 -1.5912,5.0138 -1.5988,8.3288 0,1.2288 0.3475,2.1825 1.0338,2.84 1.2225,1.1762 3.2475,1.2412 4.6625,1.1862 6.0162,-0.22 10.711,0.15 13.969,1.1138 l 0.1925,0.0525 0.03,-0.045 c 0.2025,-0.31125 0.36125,-0.88875 0.36125,-1.6538 0,-1.4525 -0.58125,-3.6175 -2.5362,-6.0662 0.02125,-0.0175 0.02125,-0.03 0.04625,-0.04875 0.32375,0.17875 5.6012,3.1762 6.3062,7.7012 -0.12375,0.0475 -2.5288,1.0288 -2.5288,1.0288 l 0.0775,0.07875 c 2.23,2.335 3,5.1562 3.6175,7.415 0.49125,1.79 1.0775,2.9338 1.855,3.605 0.90125,0.7775 4.3163,2.4075 5.3412,2.8862 0.8525,1.2112 2.3175,3.4812 3.38,5.2388 v -0.0037 c 2.3075,-6.8475 3.4875,-13.985 3.4875,-21.272 0,-8.2362 -1.5025,-16.278 -4.44,-23.926 -9.0937,-4.1062 -19.275,-6.2888 -29.499,-6.2888 -10.225,0 -20.395,2.1825 -29.491,6.2888 -2.9412,7.6488 -4.4425,15.69 -4.4425,23.926 0,8.2162 1.4988,16.24 4.425,23.885 9.0975,4.1125 19.279,6.285 29.509,6.285 10.235,0 20.416,-2.1725 29.512,-6.285 l 0.0125,-0.01125 z"
        style="fill:url(#b)" />
		
	<g style="fill:#247218">
		<path
			d="m 0,93.154 c 0,0 1.7821,0.63656 3.7775,0.63656 2.1236,0 3.4499,-0.29037 4.1908,-1.0379 0.61396,-0.61529 0.85915,-1.6445 0.82526,-3.1615 v -10.095 h 3.1436 v 10.532 c -0.046,4.663 -2.3136,6.653 -7.5888,6.653 -2.5615,0 -4.3482,-0.404 -4.3482,-0.404 v -3.123 z" />
		<path
			d="m 21.845,93.92 c -1.8339,0 -4.9197,-0.56745 -4.9197,-4.3542 0,-2.7157 1.794,-4.2745 4.9197,-4.2745 3.1256,0 4.9144,1.5588 4.9144,4.2745 0,3.7868 -3.0765,4.3542 -4.9144,4.3542 m -8.052,-4.21 c 0,3.214 2.1097,6.9702 8.052,6.9702 5.9449,0 8.0553,-3.7562 8.0553,-6.9702 0,-4.4977 -3.0113,-7.1862 -8.0553,-7.1862 -5.0406,0 -8.052,2.6884 -8.052,7.1862" />
		<path
			d="m 43.061,82.845 v 5.3782 H 34.8968 V 82.845 h -3.1376 v 13.52 h 3.1376 v -5.3775 h 8.1642 v 5.3775 h 3.1356 V 82.845 H 43.061 z" />
		<path
			d="m 91.051,93.598 v -2.61 h 7.238 v -2.7648 h -7.238 v -2.61 h 9.357 V 82.8451 H 87.915 v 13.52 h 12.493 v -2.7675 h -9.357 z"
			id="a"
			style="fill:#247218" />
		<path
			d="m 76.705,79.48 c 6.0101,0 9.6035,3.2074 9.6035,8.5643 0,3.8426 -2.5163,8.3211 -9.6035,8.3211 h -3.9569 -3.63 v -16.885 h 3.63 3.9569 m -4.4373,2.7921 v 11.308 h 4.4373 c 2.4073,0 6.4459,-0.7422 6.4459,-5.7071 0,-3.5628 -2.3489,-5.6008 -6.4459,-5.6008 h -4.4373 z" />
		<path
			d="m 126.13,88.659 c 0.65051,0 1.7362,-0.20532 1.7362,-1.5422 0,-0.95816 -0.6319,-1.5037 -1.7362,-1.5037 h -5.7323 v 3.0386 l 5.7323,0.0072 z m 5.3582,7.7064 h -3.7934 l -3.7828,-4.9482 h -3.6844 v 4.9482 H 117.09 v -13.52 h 8.8699 c 3.0539,0 4.8732,1.6233 4.8732,4.3389 0,1.6279 -0.90831,3.4572 -3.2884,4.028 l 3.9436,5.1536 z" />
		<path
			d="m 60.047,96.365 -8.1603,-9.2161 v 9.2161 h -3.1356 v -13.52 h 3.111 l 8.1848,9.1244 V 82.845 h 3.1409 v 13.52 h -3.1409 z" />
	</g>
	<use
		transform="translate(14.589,2.3717e-7)"
		x="0"
		y="0"
		width="368.50375"
		height="70.864998"
		xlink:href="#a" />
	<use
		transform="translate(45.009,2.3717e-7)"
		x="0"
		y="0"
		width="368.50375"
		height="70.864998"
		xlink:href="#a" />
</svg>