<svg id="Layer_1" data-name="Layer 1" xmlns="http://www.w3.org/2000/svg" viewBox="0 0 207.7 108.68"><defs><style>.cls-1{fill:#f2fafe;}.cls-2{fill:#b5121b;fill-rule:evenodd;}.cls-3{fill:#231f20;}</style></defs><title>3red</title><polygon class="cls-1" points="23.52 50.26 10.5 9.84 97.47 0 173.65 3.2 207.7 42.54 152.89 102.25 63.73 108.68 0 83.59 23.52 50.26"/><path class="cls-2" d="M109.4,32.23H80.09v12.9h23l12,20.78h14.89l-13-22.55a16.84,16.84,0,0,0-7.53-31.9H74.34v12.9H109.4a3.94,3.94,0,1,1,0,7.88h0ZM98.87,53l7.45,12.9h-32V53H98.87Z"/><path class="cls-2" d="M126.24,28.29A16.84,16.84,0,0,0,109.4,11.45H74.34v12.9H109.4a3.94,3.94,0,0,1,3.94,3.94h12.9Z"/><path class="cls-2" d="M109.4,32.23H80.09v12.9h23l2.25,3.9H120.2l-3.27-5.67a16.84,16.84,0,0,0,9.31-15.06h-12.9A3.94,3.94,0,0,1,109.4,32.23Z"/><polygon class="cls-2" points="98.87 53.01 74.34 53.01 74.34 65.91 106.32 65.91 98.87 53.01"/><polygon class="cls-2" points="105.31 49.03 115.06 65.91 129.95 65.91 120.2 49.03 120.2 49.03 105.31 49.03"/><path class="cls-2" d="M109.4,32.23H80.09v12.9h23l2.25,3.9H120.2l-3.27-5.67a16.84,16.84,0,0,0,9.31-15.06h-12.9A3.94,3.94,0,0,1,109.4,32.23Z"/><path class="cls-3" d="M126.4,72.21h3.55V91h-2.74l-0.78-1.5a4,4,0,0,1-1.77,1.29,5.93,5.93,0,0,1-2.15.43,5.07,5.07,0,0,1-3.81-1.32,5.2,5.2,0,0,1-1.27-3.76v-4a5.16,5.16,0,0,1,1.27-3.71,5,5,0,0,1,3.81-1.33,5.71,5.71,0,0,1,2.15.4,4.56,4.56,0,0,1,1.75,1.26V72.21h0Zm0,10.13a1.82,1.82,0,0,0-.79-1.65,3.59,3.59,0,0,0-2-.51,3.12,3.12,0,0,0-1.82.54,1.74,1.74,0,0,0-.78,1.51v4a1.67,1.67,0,0,0,.75,1.61,4.09,4.09,0,0,0,2,.42,3.43,3.43,0,0,0,1.83-.49,1.66,1.66,0,0,0,.79-1.54V82.34Z"/><path class="cls-3" d="M110.94,88.27a6.07,6.07,0,0,0,1.14-.11,7.87,7.87,0,0,0,1.16-.3,6.13,6.13,0,0,0,1.05-.47,4.64,4.64,0,0,0,.84-0.58l1.56,2.44a7.44,7.44,0,0,1-2.77,1.62,10.67,10.67,0,0,1-3.21.46,10.46,10.46,0,0,1-2.64-.32,6.24,6.24,0,0,1-2.14-1,4.59,4.59,0,0,1-1.41-1.68A5.26,5.26,0,0,1,104,86V82.25a4.53,4.53,0,0,1,1.82-3.77,6,6,0,0,1,2-1,8.77,8.77,0,0,1,2.45-.33,7.21,7.21,0,0,1,2.25.35,5.93,5.93,0,0,1,1.88,1,4.67,4.67,0,0,1,1.29,1.57,4.45,4.45,0,0,1,.48,2.06v2.3l-8.58,1.19V86a1.66,1.66,0,0,0,.3,1,2.58,2.58,0,0,0,.78.72,4,4,0,0,0,1.08.44,4.85,4.85,0,0,0,1.18.15h0Zm-0.75-8.09a3.41,3.41,0,0,0-1,.14,2.7,2.7,0,0,0-.82.4,2,2,0,0,0-.58.65,1.81,1.81,0,0,0-.21.89v1.11l4.88-.66V82a1.5,1.5,0,0,0-.62-1.38A3.11,3.11,0,0,0,110.19,80.18Z"/><path class="cls-3" d="M103.25,78.65a4,4,0,0,1-1,2.83A5.53,5.53,0,0,1,99.55,83l4.62,8h-4l-4.36-7.65H93.34V91H89.76V72.2h7.51a7.15,7.15,0,0,1,4.35,1.21,4.42,4.42,0,0,1,1.63,3.81v1.44h0Zm-9.9,1.69h3.93a3.33,3.33,0,0,0,1.66-.42,1.39,1.39,0,0,0,.74-1.3V77.24a1.72,1.72,0,0,0-.69-1.5,2.89,2.89,0,0,0-1.73-.5h-3.9v5.1Z"/><path class="cls-3" d="M87.73,77.9a3.14,3.14,0,0,1-.22,1.2,3,3,0,0,1-.58.92,3.9,3.9,0,0,1-.86.69,6,6,0,0,1-1,.49,8.24,8.24,0,0,1,1.08.53,5,5,0,0,1,.93.7,3.06,3.06,0,0,1,.66.92,2.87,2.87,0,0,1,.25,1.23v1.9a4.48,4.48,0,0,1-.52,2.22A4.43,4.43,0,0,1,86,90.24a6.35,6.35,0,0,1-2.1.88,10.92,10.92,0,0,1-2.51.28,11.17,11.17,0,0,1-2.27-.22,7.56,7.56,0,0,1-2-.7,5.51,5.51,0,0,1-1.57-1.23,5.1,5.1,0,0,1-1-1.82l3-1.23a2.88,2.88,0,0,0,.6.84,4.77,4.77,0,0,0,.87.68,4,4,0,0,0,1,.45,4,4,0,0,0,1.08.15,7.76,7.76,0,0,0,1.12-.08,3.88,3.88,0,0,0,1-.29A2,2,0,0,0,84,87.38a1.4,1.4,0,0,0,.29-0.89v-1.9A1.2,1.2,0,0,0,84,83.74a2.44,2.44,0,0,0-.79-0.56,4.54,4.54,0,0,0-1-.34c-0.37-.08-0.73-0.13-1.08-0.17H78.87v-3h2.07a7.81,7.81,0,0,0,1.12-.08,3.74,3.74,0,0,0,1-.29,2.14,2.14,0,0,0,.74-0.56,1.33,1.33,0,0,0,.29-0.88V76.75a1.5,1.5,0,0,0-.25-0.87,1.75,1.75,0,0,0-.65-0.57A3.33,3.33,0,0,0,82.28,75a5.68,5.68,0,0,0-1-.1,3.92,3.92,0,0,0-1.94.48A3.07,3.07,0,0,0,78,76.75l-2.74-1.37a4.55,4.55,0,0,1,1-1.6,5.66,5.66,0,0,1,1.52-1.1A7.55,7.55,0,0,1,79.63,72a9.81,9.81,0,0,1,2-.21,9.65,9.65,0,0,1,2.43.29A5.45,5.45,0,0,1,86,73a4.12,4.12,0,0,1,1.25,1.54,5,5,0,0,1,.45,2.19V77.9Z"/></svg>