<svg id="Layer_1" data-name="Layer 1" xmlns="http://www.w3.org/2000/svg" viewBox="0 0 195.3 99.43"><defs><style>.cls-1{fill:#f2fafe;}.cls-2{fill:#666364;}.cls-3{fill:#ee2f29;}</style></defs><title>aarp</title><polygon class="cls-1" points="5.58 21.2 24.29 6.92 84.15 0 148.85 6.92 195.3 57.57 152.97 99.43 55.5 90.76 16.11 85.35 0 58.41 5.58 21.2"/><g id="g10"><g id="g12"><path id="path14" class="cls-2" d="M69,55.24a19.09,19.09,0,1,1-38.18,0V51.37l6.36,2.9,6.36-2.9,6.36,2.9,6.36-2.9,6.36,2.9L69,51.37v3.87"/><path id="path16" class="cls-3" d="M33,45.44H32.93l-1.4,3.35L31.91,49l5.26,2.4,2.77-1.26,2-5.53-0.08,0v0a49.59,49.59,0,0,1-8.9.88"/><path id="path18" class="cls-3" d="M48.44,27.15l3.61,10a28.32,28.32,0,0,0-5.22-.46c-0.69,0-1.33,0-1.93,0ZM47.63,43a28.24,28.24,0,0,1,14.19,3.65l-0.5,1.23A24,24,0,0,0,55,45.24l1.18,3.26,0.1,0,1.1,0.5,5.26,2.4L67.89,49l0.41-.19-11-30.43H44.11L36.21,37.65a32.59,32.59,0,0,1-3.29.16c-7.29,0-13.62-4.09-14.28-4.52l-2.53,6.18a30.27,30.27,0,0,0,16.43,4.87C38.4,44.35,42,43,47.63,43"/><path id="path20" class="cls-2" d="M82.45,21.61H78v-3H90.27v3H85.86V34.07H82.45V21.61"/><path id="path22" class="cls-2" d="M93.31,18.59h3.41v5.77h6.62V18.59h3.41V34.07h-3.41V27.38H96.72v6.69H93.31V18.59"/><path id="path24" class="cls-2" d="M109.6,18.59h10.51v3.15H113v2.89h6.71v3.15H113v3.15h7.5v3.15H109.6V18.59"/><path id="path26" class="cls-2" d="M82.45,41.68H78v-3H90.27v3H85.86V54.14H82.45V41.68"/><path id="path28" class="cls-2" d="M93,38.66h10.51v3.15h-7.1V44.7h6.71v3.15H96.42V51h7.5v3.15H93V38.66"/><path id="path30" class="cls-2" d="M117.21,42.69a3.35,3.35,0,0,0-1.24-.94,4.11,4.11,0,0,0-1.69-.33,4.24,4.24,0,0,0-3.2,1.41,4.84,4.84,0,0,0-.94,1.58,6,6,0,0,0,0,4,5,5,0,0,0,.93,1.57,4.2,4.2,0,0,0,1.39,1,4,4,0,0,0,1.72.37,3.84,3.84,0,0,0,1.86-.44,3.7,3.7,0,0,0,1.33-1.22l2.84,2.12a5.92,5.92,0,0,1-2.49,2,7.71,7.71,0,0,1-3.1.66,9.53,9.53,0,0,1-3.34-.57,7.65,7.65,0,0,1-2.65-1.63,7.38,7.38,0,0,1-1.74-2.57,9.4,9.4,0,0,1,0-6.73,7.38,7.38,0,0,1,1.74-2.57,7.66,7.66,0,0,1,2.65-1.63,9.53,9.53,0,0,1,3.34-.57,8.21,8.21,0,0,1,1.37.12,7.42,7.42,0,0,1,1.4.38,6.24,6.24,0,0,1,1.32.7,5.27,5.27,0,0,1,1.14,1.07l-2.62,2.14"/><path id="path32" class="cls-2" d="M122.93,38.66h3.41v5.77H133V38.66h3.41V54.14H133V47.45h-6.62v6.69h-3.41V38.66"/><path id="path34" class="cls-2" d="M78.06,58.34h4.75l6.75,11h0v-11h3.5V74.21H88.53L81.6,62.91h0v11.3h-3.5V58.34"/><path id="path36" class="cls-2" d="M96,58.34H106.8v3.23H99.52v3h6.88v3.23H99.52V71h7.69v3.23H96V58.34"/><path id="path38" class="cls-2" d="M118.75,62.22a2.49,2.49,0,0,0-1.15-.8,4.15,4.15,0,0,0-1.38-.26,3.63,3.63,0,0,0-.78.09,3,3,0,0,0-.76.28,1.66,1.66,0,0,0-.58.5,1.28,1.28,0,0,0-.22.76,1.26,1.26,0,0,0,.54,1.1,5.09,5.09,0,0,0,1.36.65q0.82,0.27,1.76.54a7.26,7.26,0,0,1,1.76.76,4.17,4.17,0,0,1,1.36,1.32,4,4,0,0,1,.54,2.22,5.11,5.11,0,0,1-.49,2.31,4.69,4.69,0,0,1-1.33,1.64,5.66,5.66,0,0,1-2,1,8.94,8.94,0,0,1-5.21-.16,7.18,7.18,0,0,1-2.47-1.52l2.49-2.74A3.63,3.63,0,0,0,113.56,71a3.87,3.87,0,0,0,1.69.39,3.83,3.83,0,0,0,.86-0.1,2.82,2.82,0,0,0,.78-0.3,1.69,1.69,0,0,0,.56-0.52,1.28,1.28,0,0,0,.21-0.74,1.34,1.34,0,0,0-.55-1.13,5.07,5.07,0,0,0-1.38-.71q-0.83-.29-1.79-0.58a8,8,0,0,1-1.79-.78,4.32,4.32,0,0,1-1.38-1.3,3.72,3.72,0,0,1-.55-2.13,4.77,4.77,0,0,1,.5-2.24,4.88,4.88,0,0,1,1.35-1.61,5.85,5.85,0,0,1,1.94-1,8,8,0,0,1,2.26-.33,8.91,8.91,0,0,1,2.6.38,6,6,0,0,1,2.26,1.28l-2.4,2.62"/><path id="path40" class="cls-2" d="M128.19,61.43h-4.53V58.34h12.56v3.09h-4.53V74.21h-3.5V61.43"/><path id="path42" class="cls-3" d="M141.7,77l-0.92,2.24c0.35,0,.73-0.11,1-0.13L142.56,77H141.7"/><path id="path44" class="cls-3" d="M155.61,77.08H155.5V77.2h0.06a0.07,0.07,0,0,0,.09-0.07,0.06,0.06,0,0,0,0-.05m0,0.36-0.09-.17H155.5v0.17h-0.09V77h0.23a0.13,0.13,0,0,1,.08.13,0.13,0.13,0,0,1-.08.12l0.1,0.18h-0.1"/><path id="path46" class="cls-3" d="M155.56,77.56a0.32,0.32,0,1,1,.32-0.32,0.32,0.32,0,0,1-.32.32m0-.71a0.39,0.39,0,1,0,.39.39,0.39,0.39,0,0,0-.39-0.39"/><path id="path48" class="cls-3" d="M140.45,80a4.67,4.67,0,0,0,1-.1l-0.25.69h-1l0.24-.59"/><path id="path50" class="cls-3" d="M153,78.93V77.57h0.27a0.68,0.68,0,0,1,0,1.36H153Zm-3.87,0V77.57h0.19a0.68,0.68,0,1,1,0,1.36H149.1Zm-3.62-1,0.41,1.08a3.45,3.45,0,0,0-.41,0c-0.17,0-.4,0-0.42,0Zm-1.84,2.32a2.78,2.78,0,0,0-.71-0.29l0.22,0.61h1.36l0.3-.81a4.17,4.17,0,0,1,.68-0.06,4,4,0,0,1,.66.06l0.29,0.81h2.66V79.14l1.11,1.47H153V79.53h0.61a1.32,1.32,0,1,0,0-2.56h-1.93v3.49l-1-1.13a1.17,1.17,0,0,0,.73-1.08c0-.73-0.59-1.28-1.8-1.28h-1.77v3.36L146.48,77H145l-0.93,2.28L143.18,77h-1.35l0.76,2.12A3,3,0,0,0,142,79c-0.73,0-1,.13-1.57.13a3.23,3.23,0,0,1-1.61-.51l-0.29.7a3.42,3.42,0,0,0,1.85.55c0.66,0,1.06-.16,1.7-0.16a3.18,3.18,0,0,1,1.6.41l-0.06.14"/><path id="path52" class="cls-3" d="M97,79.05a0.5,0.5,0,0,0,.53-0.54,0.49,0.49,0,0,0-.24-0.46A0.82,0.82,0,0,0,96.9,78H96.41v1.07H97Zm-1-1.44h0.92a1.51,1.51,0,0,1,.56.07,0.89,0.89,0,0,1,0,1.62h0a0.85,0.85,0,0,1,.09.14l0.64,1.16H97.68l-0.63-1.19H96.41v1.19H96v-3"/><path id="path54" class="cls-3" d="M100,79.29a0.51,0.51,0,0,0-.52-0.55,0.61,0.61,0,0,0-.63.55H100Zm-0.51-.87a0.91,0.91,0,0,1,.93,1c0,0.06,0,.18,0,0.18H98.86a0.7,0.7,0,0,0,.74.71,1,1,0,0,0,.64-0.25l0.17,0.3a1.28,1.28,0,0,1-.83.31,1.09,1.09,0,0,1-1.14-1.12,1.05,1.05,0,0,1,1.07-1.12"/><path id="path56" class="cls-3" d="M101.54,80.33a0.65,0.65,0,0,0,.57-0.68V79.58H102c-0.31,0-.87,0-0.87.41A0.36,0.36,0,0,0,101.54,80.33ZM102,79.27h0.09v0a0.42,0.42,0,0,0-.47-0.47,1.09,1.09,0,0,0-.6.21l-0.17-.3a1.35,1.35,0,0,1,.8-0.25,0.76,0.76,0,0,1,.85.84v1.36h-0.38v-0.2a1.6,1.6,0,0,1,0-.17h0a0.74,0.74,0,0,1-.69.42,0.67,0.67,0,0,1-.73-0.65c0-.71.93-0.74,1.29-0.74"/><path id="path58" class="cls-3" d="M103.06,77.62h0.41V80c0,0.26.1,0.31,0.23,0.31h0.07v0.36h-0.14a0.52,0.52,0,0,1-.58-0.6V77.62"/><path id="path60" class="cls-3" d="M106.33,79.14a0.54,0.54,0,0,0,.58-0.58,0.53,0.53,0,0,0-.58-0.57h-0.61v1.16h0.61Zm-1-1.52h1.09a0.89,0.89,0,0,1,.94.94,0.9,0.9,0,0,1-.94.95h-0.67v1.11H105.3v-3"/><path id="path62" class="cls-3" d="M108.75,80.3a0.77,0.77,0,1,0-.74-0.77A0.74,0.74,0,0,0,108.75,80.3Zm0-1.89a1.12,1.12,0,1,1-1.16,1.12,1.12,1.12,0,0,1,1.16-1.12"/><path id="path64" class="cls-3" d="M110.38,80.05a0.92,0.92,0,0,0,.61.25,0.31,0.31,0,0,0,.36-0.27c0-.39-1.1-0.31-1.1-1a0.67,0.67,0,0,1,.78-0.61,1,1,0,0,1,.69.24l-0.17.31a0.79,0.79,0,0,0-.53-0.19,0.3,0.3,0,0,0-.35.26c0,0.39,1.1.3,1.1,1a0.68,0.68,0,0,1-.78.62,1.15,1.15,0,0,1-.81-0.31l0.2-.29"/><path id="path66" class="cls-3" d="M112.23,80.05a0.92,0.92,0,0,0,.61.25A0.31,0.31,0,0,0,113.2,80c0-.39-1.1-0.31-1.1-1a0.67,0.67,0,0,1,.78-0.61,1,1,0,0,1,.69.24L113.4,79a0.78,0.78,0,0,0-.53-0.19,0.3,0.3,0,0,0-.35.26c0,0.39,1.1.3,1.1,1a0.68,0.68,0,0,1-.78.62,1.15,1.15,0,0,1-.81-0.31l0.2-.29"/><path id="path68" class="cls-3" d="M114.06,78.47h0.41v2.14h-0.41V78.47Zm0-.85h0.42V78h-0.42V77.62"/><path id="path70" class="cls-3" d="M116.08,80.31a0.79,0.79,0,0,0,0-1.53,0.65,0.65,0,0,0-.62.77A0.67,0.67,0,0,0,116.08,80.31Zm-1-2.69h0.41v1c0,0.11,0,.18,0,0.18h0a0.76,0.76,0,0,1,.69-0.36,1,1,0,0,1,.94,1.12,1,1,0,0,1-1,1.12,0.77,0.77,0,0,1-.67-0.37h0a1.43,1.43,0,0,1,0,.16v0.16h-0.39v-3"/><path id="path72" class="cls-3" d="M117.58,78.47H118v2.14h-0.41V78.47Zm0-.85H118V78h-0.42V77.62"/><path id="path74" class="cls-3" d="M118.56,77.62H119V80c0,0.26.1,0.31,0.23,0.31h0.07v0.36h-0.14a0.52,0.52,0,0,1-.58-0.6V77.62"/><path id="path76" class="cls-3" d="M119.67,78.47h0.41v2.14h-0.41V78.47Zm0-.85h0.42V78h-0.42V77.62"/><path id="path78" class="cls-3" d="M120.77,78.83h-0.28V78.5h0.29V77.88h0.4V78.5h0.52v0.33h-0.52v1a0.43,0.43,0,0,0,.46.48h0.1v0.36h-0.14a0.74,0.74,0,0,1-.82-0.8v-1"/><path id="path80" class="cls-3" d="M122.16,78.47h0.41v2.14h-0.41V78.47Zm0-.85h0.42V78h-0.42V77.62"/><path id="path82" class="cls-3" d="M124.6,79.29a0.51,0.51,0,0,0-.52-0.55,0.61,0.61,0,0,0-.63.55h1.14Zm-0.51-.87a0.91,0.91,0,0,1,.93,1c0,0.06,0,.18,0,0.18h-1.56a0.7,0.7,0,0,0,.74.71,1,1,0,0,0,.64-0.25l0.17,0.3a1.28,1.28,0,0,1-.83.31A1.09,1.09,0,0,1,123,79.54a1.05,1.05,0,0,1,1.07-1.12"/><path id="path84" class="cls-3" d="M125.51,80.05a0.92,0.92,0,0,0,.61.25,0.31,0.31,0,0,0,.36-0.27c0-.39-1.1-0.31-1.1-1a0.67,0.67,0,0,1,.78-0.61,1,1,0,0,1,.69.24l-0.17.31a0.79,0.79,0,0,0-.53-0.19,0.3,0.3,0,0,0-.35.26c0,0.39,1.1.3,1.1,1a0.68,0.68,0,0,1-.78.62,1.15,1.15,0,0,1-.81-0.31l0.2-.29"/><path id="path86" class="cls-3" d="M128.5,78.83h-0.27V78.5h0.27v-0.1a0.73,0.73,0,0,1,.81-0.8h0.16V78h-0.11a0.41,0.41,0,0,0-.45.45V78.5h0.51v0.33h-0.51v1.78H128.5V78.83"/><path id="path88" class="cls-3" d="M129.77,78.47h0.4v0.37a1.53,1.53,0,0,1,0,.16h0a0.73,0.73,0,0,1,.68-0.56h0.11v0.41h-0.12a0.65,0.65,0,0,0-.6.5,1.3,1.3,0,0,0-.05.39v0.88h-0.41V78.47"/><path id="path90" class="cls-3" d="M132.3,80.3a0.77,0.77,0,1,0-.74-0.77A0.74,0.74,0,0,0,132.3,80.3Zm0-1.89a1.12,1.12,0,1,1-1.16,1.12,1.12,1.12,0,0,1,1.16-1.12"/><path id="path92" class="cls-3" d="M133.9,78.47h0.4v0.28a1.49,1.49,0,0,1,0,.16h0a0.84,0.84,0,0,1,.74-0.49,0.59,0.59,0,0,1,.64.49h0a0.86,0.86,0,0,1,.76-0.49,0.68,0.68,0,0,1,.71.82v1.37h-0.41V79.33c0-.3-0.06-0.54-0.38-0.54a0.67,0.67,0,0,0-.6.55,1.27,1.27,0,0,0,0,.3v1h-0.41V79.33c0-.28,0-0.54-0.37-0.54a0.68,0.68,0,0,0-.61.56,1.19,1.19,0,0,0,0,.28v1H133.9V78.47"/></g></g></svg>