<svg id="Layer_1" data-name="Layer 1" xmlns="http://www.w3.org/2000/svg" viewBox="0 0 225.08 77.86"><defs><style>.cls-1{fill:#f2fafe;}.cls-2{fill:#0072bc;}</style></defs><title>amadeus</title><polygon class="cls-1" points="0 13.11 137.18 0 225.08 36.73 160.39 71.88 82.28 77.86 26.45 54.5 0 13.11"/><path class="cls-2" d="M115,26.4a24.75,24.75,0,0,0-7.26,1.07V44.2a39.47,39.47,0,0,0,6.59.53c7,0,9.75-2.75,9.75-9.29,0-5.65-3.46-9-9.09-9h0Zm-3.31,3.41a17.43,17.43,0,0,1,3.13-.31c2.85,0,5.09,1.6,5.09,5.93s-1.1,6.19-5.45,6.19a21.65,21.65,0,0,1-2.78-.2V29.81ZM166.81,44.1a25.62,25.62,0,0,0,5.86.64c3.23,0,7.31-1.09,7.31-5.47,0-2.85-2.11-4.07-5.55-5.32-1.86-.69-3.44-1.3-3.44-2.57,0-.61.46-1.81,2.83-1.81a12.68,12.68,0,0,1,4.48,1l1-2.93a13.61,13.61,0,0,0-5.83-1.25c-3.26,0-6.44,1.73-6.44,5.22s3.26,4.68,5.8,5.53c1.73,0.59,3.18,1.2,3.18,2.34s-0.61,2.09-3.54,2.09a27.89,27.89,0,0,1-4.94-.53ZM158.2,40a12.37,12.37,0,0,1-4.84,1.22c-2.7,0-3.16-1.22-3.16-4V26.55h-0.59a28.36,28.36,0,0,0-3.36.25V37.7c0,4.76,1.17,7,6,7a13.05,13.05,0,0,0,6-1.43,8.34,8.34,0,0,0,3.87.79V26.81a30.76,30.76,0,0,0-3.16-.25H158.2V40ZM95.75,26.4a18.08,18.08,0,0,0-7.33,1.4l0.84,3a18.29,18.29,0,0,1,5.35-1c2.27,0,3.44.64,3.44,2.88v1.27H94.6c-5.83,0-7.56,2.67-7.56,5.63,0,3.92,3.06,5.17,5.83,5.17a11.81,11.81,0,0,0,5.35-1.35,7.14,7.14,0,0,0,3.79.71V31.62c0-3.74-2.32-5.22-6.26-5.22h0Zm2.34,14.23a14.28,14.28,0,0,1-4.38,1c-1.63,0-2.85-.56-2.85-2.34,0-1.55.84-2.44,3.08-2.52l4.15-.15v4ZM50.84,26.4a18.08,18.08,0,0,0-7.33,1.4l0.84,3a18.29,18.29,0,0,1,5.35-1c2.27,0,3.44.64,3.44,2.88v1.27H49.69c-5.83,0-7.56,2.67-7.56,5.63,0,3.92,3.06,5.17,5.83,5.17a11.81,11.81,0,0,0,5.35-1.35,7.14,7.14,0,0,0,3.79.71V31.62c0-3.74-2.32-5.22-6.26-5.22h0Zm2.34,14.23a14.28,14.28,0,0,1-4.38,1c-1.63,0-2.85-.56-2.85-2.34,0-1.55.84-2.44,3.08-2.52l4.15-.15v4Zm19.76-3.69c-0.1.25-.23,0.74-0.31,1-0.08-.28-0.2-0.76-0.31-1l-3.46-8.89c-0.59-1.48-1.5-1.66-3.18-1.66-0.59,0-1.78.08-1.78,0.08l-1.78,18h3.95l0.87-12.07,3.74,9.14c0.28,0.71.84,1,2,1s1.68-.28,2-1l3.74-9.14L79.2,44.48h3.95l-1.78-18s-1.2-.08-1.78-0.08c-1.68,0-2.6.18-3.18,1.66Zm55.86,7a28.63,28.63,0,0,0,6.9.84,29,29,0,0,0,6-.46V41.22a28.15,28.15,0,0,1-4.94.41,21.52,21.52,0,0,1-4.07-.33V37h7.82V33.91h-7.82V29.79a23.36,23.36,0,0,1,3.82-.28,31.84,31.84,0,0,1,4.89.41V26.83a28.34,28.34,0,0,0-5.35-.43,30.21,30.21,0,0,0-7.28.79v16.7Z"/></svg>