<svg id="Layer_1" data-name="Layer 1" xmlns="http://www.w3.org/2000/svg" viewBox="0 0 204.08 111.78"><defs><style>.cls-1{fill:#f2fafe;}.cls-2{fill:#010101;}.cls-3{fill:#089eda;}</style></defs><title>at&amp;amp;t</title><polygon class="cls-1" points="204.08 28.31 170.69 23.78 143.81 0 75.5 3.34 15.73 23.36 0 58.76 58.65 104.06 129.47 111.78 180.1 81.66 204.08 28.31"/><path class="cls-2" d="M137,73.64a0.55,0.55,0,0,1,.58.58v2.34a0.55,0.55,0,0,1-.58.58h-5.76v17a0.55,0.55,0,0,1-.58.58H128a0.55,0.55,0,0,1-.58-0.58v-17h-5.76a0.55,0.55,0,0,1-.58-0.58V74.22a0.55,0.55,0,0,1,.58-0.58H137M83.91,86.2l-3-8.67-3,8.67h6.07ZM90.62,94a0.48,0.48,0,0,1-.45.68H87.43a0.74,0.74,0,0,1-.76-0.55l-1.55-4.47H76.63l-1.55,4.47a0.74,0.74,0,0,1-.76.55H71.74A0.49,0.49,0,0,1,71.3,94l7.12-19.82a0.72,0.72,0,0,1,.76-0.53H82.7a0.75,0.75,0,0,1,.79.53ZM111,91.83a4.25,4.25,0,0,0,3.73-2.21L110.5,85c-1.63.92-2.68,1.84-2.68,3.68a3.11,3.11,0,0,0,3.21,3.1m1.18-15.4a2,2,0,0,0-2.15,2c0,0.89.47,1.68,1.55,2.84,1.87-1.08,2.66-1.73,2.66-2.89a1.88,1.88,0,0,0-2.05-2m11.64,17.51a0.4,0.4,0,0,1-.29.74h-3.34a1.09,1.09,0,0,1-1-.45l-2-2.21A7.34,7.34,0,0,1,111,95.14c-3.84,0-6.86-2.31-6.86-6.28,0-3,1.63-4.68,4.1-6a6.48,6.48,0,0,1-1.76-4.15c0-3.26,2.29-5.49,5.73-5.49s5.68,2.08,5.68,5.15c0,2.63-1.89,4.1-3.89,5.2l2.94,3.18,1.66-2.89a0.89,0.89,0,0,1,.87-0.47H122a0.44,0.44,0,0,1,.4.74l-2.94,5ZM104.54,76.56V74.22a0.55,0.55,0,0,0-.58-0.58H88.64a0.55,0.55,0,0,0-.58.58v2.34a0.55,0.55,0,0,0,.58.58h5.75v17a0.55,0.55,0,0,0,.58.58h2.66a0.55,0.55,0,0,0,.58-0.58v-17H104a0.55,0.55,0,0,0,.58-0.58"/><path class="cls-3" d="M88.3,57.68a26.27,26.27,0,0,0,33.43-1c0.05,0,0-.08,0,0-2.07,1.39-8,4.41-17.29,4.41-8.09,0-13.2-1.81-16.08-3.42-0.05,0-.08,0,0,0M106.2,59c6.47,0,13.58-1.76,17.83-5.26a14.21,14.21,0,0,0,3.26-3.92,25,25,0,0,0,1.58-3.29c0-.06,0-0.08-0.05,0-4,5.82-15.4,9.45-27.22,9.45-8.35,0-17.34-2.67-20.86-7.78,0,0-.07,0,0,0C84,55.21,93.91,59,106.2,59M99.13,47.46c-13.45,0-19.79-6.27-20.94-10.55,0-.06-0.05,0-0.05,0a26.08,26.08,0,0,0,.39,4.53,5.26,5.26,0,0,0,1.32,2.29c3.26,3.4,11.38,8.16,25.44,8.16,19.16,0,23.54-6.38,24.44-8.48a19.23,19.23,0,0,0,1-6.5c0-.55,0-1,0-1.43,0-.07,0-0.08-0.05,0-1,5.14-17.33,12-31.48,12M80.67,25.65a26.06,26.06,0,0,0-1.88,5.45,1.74,1.74,0,0,0,.14,1.27c1.61,3.42,9.77,8.9,28.79,8.9,11.61,0,20.62-2.85,22.08-8.06a6.17,6.17,0,0,0-.06-3.33A25.41,25.41,0,0,0,128,25.33s-0.06,0,0,0c0.23,6.83-18.8,11.23-28.41,11.23-10.4,0-19.08-4.15-19.08-9.38a6.33,6.33,0,0,1,.23-1.53s0-.06,0,0m41.11-8.38a1.06,1.06,0,0,1,.17.61c0,2.92-8.93,8.09-23.16,8.09-10.45,0-12.4-3.88-12.4-6.34a4.26,4.26,0,0,1,1.08-2.7c0-.05,0-0.08,0,0a26.45,26.45,0,0,0-3.7,3.84,3.35,3.35,0,0,0-.85,1.6c0,5.11,12.81,8.82,24.79,8.82,12.76,0,18.46-4.17,18.46-7.83,0-1.31-.51-2.07-1.81-3.55a30.59,30.59,0,0,0-2.49-2.52s-0.07,0,0,0m-3.91-2.92a26.25,26.25,0,0,0-27.08.11c-1.19.73-1.85,1.32-1.85,2.07,0,2.22,5.18,4.6,14.37,4.6s16.15-2.61,16.15-5.12c0-.6-0.52-1-1.58-1.65"/></svg>