<svg id="Layer_1" data-name="Layer 1" xmlns="http://www.w3.org/2000/svg" viewBox="0 0 239.34 77.86"><defs><style>.cls-1{fill:#f2fafe;}.cls-2{fill:#d03228;}.cls-3{fill:#074a77;}</style></defs><title>capitalone</title><polygon class="cls-1" points="0 13.11 145.87 0 239.34 36.73 170.56 71.88 87.5 77.86 28.13 54.5 0 13.11"/><path id="Icon" class="cls-2" d="M132.13,48.67h0c-5.35,3.78-11.68,7.76-18.49,11.93l-0.27.16a0.2,0.2,0,0,0,0,.28,0.2,0.2,0,0,0,.28,0l0.23-.12c5.78-3,12.42-6.6,19.1-10.27l0.11-.06A8.34,8.34,0,0,1,132.13,48.67Zm35.1-28.41c-8.43-9.3-62.66-.93-85.73,4.1L81,24.48a0.2,0.2,0,1,0,.07.4l0.53-.1c19.11-3.4,58.84-8.12,67.4.36,2.61,2.59,2,5.92-1,9.85a7.8,7.8,0,0,1,3.31,4.76C163,31.89,171,24.4,167.23,20.26Z"/><g id="Wordmark"><path class="cls-3" d="M135.54,46.23c0.11,3.27,2.18,6,4.88,6,5.23,0,7.46-6.42,7.3-10.71-0.11-3.28-2.23-6-4.93-6C138.29,35.51,135.39,41.91,135.54,46.23Zm-2.76-.17c-0.19-5.58,4.18-11.29,10.53-11.29,4.25,0,7,2.83,7.19,7.17,0.2,5.89-3.88,11.29-10.53,11.29C135.71,53.22,132.93,50.39,132.78,46.05Z"/><path class="cls-3" d="M72.6,44.58a6.13,6.13,0,0,1-.88.25q-0.54.12-2,.35a3.45,3.45,0,0,0-1.38.43,1,1,0,0,0-.44.68,0.66,0.66,0,0,0,.29.7,2.32,2.32,0,0,0,1.28.27A4.36,4.36,0,0,0,70.79,47a3.21,3.21,0,0,0,1.08-.57,1.72,1.72,0,0,0,.46-0.68A8.92,8.92,0,0,0,72.6,44.58Zm5.52-3.43a13.64,13.64,0,0,1-.25,1.75l-0.93,5.24a1,1,0,0,0,.53,1.08l0,0.2H72.08l0-1.33a10.65,10.65,0,0,1-2.57,1.1,9.38,9.38,0,0,1-2.56.31c-1.73,0-2.72-.18-3.4-0.78a2.14,2.14,0,0,1-1-1.88,2.9,2.9,0,0,1,.65-1.56,3.94,3.94,0,0,1,1.42-1,7.58,7.58,0,0,1,2.15-.6c0.95-.15,2.26-0.31,4-0.45a5.83,5.83,0,0,0,1.76-.4,0.73,0.73,0,0,0,.57-0.6c0.1-.54-0.07-0.85-0.79-1-1.93-.38-5.54.24-7.4,0.71l1-2.73a48.92,48.92,0,0,1,7.18-.59C76.93,38.63,78.16,39.73,78.12,41.14Z"/><path class="cls-3" d="M93.63,49.42l1.86-10.48h5.12L98.75,49.42H93.63Zm2.14-12.9c0.15-.86,1.51-1.56,3-1.56s2.63,0.7,2.48,1.56-1.52,1.56-3,1.56S95.61,37.38,95.77,36.51Z"/><path class="cls-3" d="M118.8,44.6c-0.23.08-.53,0.16-0.89,0.25s-1,.19-2,0.35a3.38,3.38,0,0,0-1.38.43,1.07,1.07,0,0,0-.44.67,0.66,0.66,0,0,0,.29.7,2.35,2.35,0,0,0,1.29.26,4.34,4.34,0,0,0,1.31-.2,3.24,3.24,0,0,0,1.08-.57,1.77,1.77,0,0,0,.46-0.68A9.18,9.18,0,0,0,118.8,44.6Zm5.52-3.44a12.74,12.74,0,0,1-.25,1.74l-0.93,5.25a1,1,0,0,0,.52,1.08l0,0.18h-5.35l0-1.34a10.49,10.49,0,0,1-2.57,1.1,9.2,9.2,0,0,1-2.57.32c-1.73,0-2.71-.17-3.39-0.78a2.12,2.12,0,0,1-1-1.87,2.8,2.8,0,0,1,.64-1.56,3.9,3.9,0,0,1,1.43-1,8,8,0,0,1,2.14-.61c1-.15,2.27-0.31,4-0.45a6,6,0,0,0,1.75-.39,0.75,0.75,0,0,0,.58-0.61,0.77,0.77,0,0,0-.79-1c-1.94-.38-5.54.25-7.4,0.71l1-2.73a48.77,48.77,0,0,1,7.18-.59C123.12,38.65,124.35,39.75,124.32,41.16Z"/><path class="cls-3" d="M61.8,45.65a18.76,18.76,0,0,1-4.25.46c-2.45,0-4.39-1.22-4.29-3.44,0.08-1.48,1.83-4.61,6.3-4.61a7.29,7.29,0,0,1,4,1.09l0.65-3.64a12.3,12.3,0,0,0-5.06-.85c-5.85.06-11.47,2.72-12.17,8.13s6,6.88,9,6.87c1.72,0,3.51-.08,5.18-0.25Z"/><path class="cls-3" d="M103.43,38.88l0.37-2.13,5.36-1.17-0.57,3.3h2.62L110.71,41h-2.55l-1.55,8.43s-5.16,0-5.18,0L103,41H101l0.4-2.12h2Z"/><polygon class="cls-3" points="129.52 49.41 124.3 49.42 126.93 34.8 132.01 34.94 129.52 49.41"/><path class="cls-3" d="M86.85,41.4A2.94,2.94,0,0,0,85,42a2.74,2.74,0,0,0-1,1.79,2.31,2.31,0,0,0,.3,2,2,2,0,0,0,1.58.6,3.08,3.08,0,0,0,1.3-.26,2.57,2.57,0,0,0,1-.86,3.45,3.45,0,0,0,.56-1.38A2.07,2.07,0,0,0,88.41,42,2,2,0,0,0,86.85,41.4ZM77.53,53L80,39h4.5l-0.35,1.79A4.28,4.28,0,0,1,86,39.45a7.66,7.66,0,0,1,2.91-.62,5.38,5.38,0,0,1,2.78.52,3.71,3.71,0,0,1,1.81,2,5.21,5.21,0,0,1,.22,2.85,6.19,6.19,0,0,1-2.53,4.1,7.95,7.95,0,0,1-6,1.1,3.62,3.62,0,0,1-1-.41,4.75,4.75,0,0,1-.84-0.76L82.58,53H77.53Z"/><path class="cls-3" d="M170.52,42.68a1.27,1.27,0,0,0-1.33-1.41c-2.1,0-4.34,4.11-4.72,5.77C167.92,47,170.6,45,170.52,42.68ZM171,49.13l0.41,0.27a6.43,6.43,0,0,1-5.56,3.77,3.64,3.64,0,0,1-3.74-3.84c-0.16-4.49,4-8.66,7.49-8.66,1.48,0,2.85.65,2.91,2.24,0.13,3.57-4.89,4.66-8.19,4.74a4,4,0,0,0-.13,1.32,2.63,2.63,0,0,0,2.8,2.73A5.32,5.32,0,0,0,171,49.13Z"/><path class="cls-3" d="M150.42,42.57c0.36,0,.93-0.11,1.18-0.11s0.73,0.07.75,0.44c0,0.22-.39,1.81-0.48,2.18l-0.8,3.52c-0.32,1.44-.67,3-1,4.14h2.05l1.15-5.58c3.52-3.67,4.88-4.86,5.71-4.86a0.6,0.6,0,0,1,.65.64,11,11,0,0,1-.52,2.53L158,49.55a8.46,8.46,0,0,0-.45,2.33,1.23,1.23,0,0,0,1.38,1.29c1.5,0,2.59-1.56,3.54-3.1l-0.28-.5c-0.39.62-1.27,2-2,2a0.45,0.45,0,0,1-.44-0.52,6.08,6.08,0,0,1,.32-1.66l1.31-4.77a11.82,11.82,0,0,0,.51-2.61,1.22,1.22,0,0,0-1.35-1.31c-1.35,0-3.14,1-6.94,5.36h-0.05L154,43.89c0.26-1.17.51-2.38,0.76-3.22a34.31,34.31,0,0,1-4.36,1.23Z"/></g><path id="Trademark" class="cls-3" d="M172.79,38.77a1.85,1.85,0,1,1,1.85,1.83A1.82,1.82,0,0,1,172.79,38.77Zm1.85,1.53a1.52,1.52,0,1,0-1.49-1.53A1.47,1.47,0,0,0,174.64,40.3Zm-0.39-.47h-0.32v-2.1h0.8a0.59,0.59,0,0,1,.74.6,0.55,0.55,0,0,1-.55.58l0.6,0.93h-0.36l-0.55-.91h-0.36v0.91Zm0.38-1.18c0.27,0,.51,0,0.51-0.35S174.91,38,174.69,38h-0.43v0.65h0.38Z"/></svg>