<svg id="Layer_1" data-name="Layer 1" xmlns="http://www.w3.org/2000/svg" viewBox="0 0 231.8 77.86"><defs><style>.cls-1{fill:#f2fafe;}.cls-2{fill:#00427c;}</style></defs><title>citadel</title><polygon class="cls-1" points="0 43.16 9.44 15.75 55.52 7.44 138.33 0 200.22 7.75 231.8 36.73 163.02 71.88 79.96 77.86 20.59 54.5 0 43.16"/><rect class="cls-2" x="26.5" y="39.23" width="37.78" height="5.44"/><rect class="cls-2" x="26.5" y="25.78" width="7.56" height="5.44"/><rect class="cls-2" x="41.61" y="25.78" width="7.56" height="5.44"/><rect class="cls-2" x="56.72" y="25.78" width="7.56" height="5.44"/><rect class="cls-2" x="26.5" y="32.51" width="18.24" height="5.43"/><rect class="cls-2" x="46.04" y="32.51" width="18.24" height="5.43"/><path class="cls-2" d="M92.85,44c2.5-.08,3.05-0.55,3.05-1.58V28.09c0-1-.56-1.52-3.05-1.61V25.87h8.74v0.61c-2.5.08-3.05,0.58-3.05,1.61V42.45c0,1,.56,1.5,3.05,1.58v0.64H92.85V44Z"/><path class="cls-2" d="M107.46,44c2.47-.08,3.22-0.55,3.22-1.58V26.65h-1.39c-2.33,0-3.52,0-4.88,3.43L103.8,30,104,25.87h16L120.19,30l-0.61.06c-1.25-3.19-2.47-3.43-4.88-3.43h-1.41V42.45c0,1,.75,1.5,3.22,1.58v0.64h-9V44Z"/><path class="cls-2" d="M157.25,44c2.41-.08,3-0.55,3-1.58V28.09c0-1-.61-1.52-3-1.61V25.87H172.5L172.58,30,172,30c-1.16-3.35-2.11-3.36-5.27-3.36h-3.8v7.85h1.69c2.19,0,3.16-.5,3.88-3.47H169v7.71h-0.55c-0.72-3-1.69-3.44-3.88-3.44h-1.69v8.39h3.8c3.72,0,5,.1,6.18-3.45l0.61,0-0.14,4.38H157.25V44Z"/><path class="cls-2" d="M176.33,44c2.41-.08,3-0.55,3-1.58V28.09c0-1-.61-1.52-3-1.61V25.87h8.54v0.61C182.4,26.56,182,27,182,28.09V43.72h2.77c3.66,0,5-1.1,6.3-5.14l0.61,0-0.22,6.07H176.33V44Z"/><path class="cls-2" d="M145.48,43.75h-2.05V26.65h2c5,0,7.54,2.19,7.54,8.46s-1.61,8.64-7.52,8.64m0.28-17.87h-7.53v0.64c2,0.13,2.56.63,2.56,1.58V42.45c0,1-.55,1.42-2.56,1.55v0.67H146c7,0,10-4.69,10-9.73,0-5.27-3.47-9.07-10.26-9.07"/><path class="cls-2" d="M124.35,36.74l3.05-7.85h0.11l2.72,7.85h-5.88Zm10.4,4.77-5.88-16.08h-0.94l-5.77,14.45c-1.11,2.75-1.89,3.77-3.74,4.22v0.58h6.24V44.09c-2.47-.42-2.75-1-1.58-4l1-2.52h6.46l1.5,4.33c0.56,1.55.17,2.11-2.36,2.25v0.58h7.81V44c-1.67-.31-2.13-0.93-2.71-2.5"/><path class="cls-2" d="M84.2,26.18c-3.27,0-6.32,2.88-6.32,9.21,0,6,3.66,8.51,6.85,8.51a5.93,5.93,0,0,0,2.78-.73,6.34,6.34,0,0,0,2.2-1.93,7.85,7.85,0,0,0,.92-1.85l0.61,0.19a9.16,9.16,0,0,1-1.38,2.82,6.72,6.72,0,0,1-3.09,2.29,7.09,7.09,0,0,1-.92.26,9,9,0,0,1-1.87.2c-5.35,0-9.12-3.86-9.12-9.65a9.75,9.75,0,0,1,14.36-8.9h1l0.2,1.81,0.38,3.16H90.19c-1.28-3.44-3.19-5.38-6-5.38"/></svg>