<svg id="Layer_1" data-name="Layer 1" xmlns="http://www.w3.org/2000/svg" viewBox="0 0 211.21 80.56"><defs><style>.cls-1{fill:#f2fafe;}.cls-2{fill:#005884;}</style></defs><title>cloudera</title><polygon class="cls-1" points="0 15.8 46.46 0 128.73 2.69 186.91 16.43 211.22 39.42 150.51 74.57 77.22 80.56 9.81 59.67 0 15.8"/><path class="cls-2" d="M153.4,28.57a15.58,15.58,0,0,0-4.15.56,10.76,10.76,0,0,0-1.79.66,3.11,3.11,0,0,0-.38-0.47,2.69,2.69,0,0,0-1.9-.75h-2.84V49.78h5.53v-11c0-2.14.37-3,1.11-3.71a4.61,4.61,0,0,1,3.39-1.11h2.38V28.57H153.4"/><path class="cls-2" d="M52.42,22.31H49.57V47.17A2.48,2.48,0,0,0,50.36,49a2.66,2.66,0,0,0,1.9.75h2.84V24.92a2.47,2.47,0,0,0-.79-1.86,2.66,2.66,0,0,0-1.9-.75"/><path class="cls-2" d="M66.9,45.47c3.29,0,4.33-3.45,4.33-6.37s-1-6.41-4.33-6.41-4.29,3.49-4.29,6.41S63.61,45.47,66.9,45.47Zm0-17.41c6.24,0,9.7,4.12,9.7,11S73.15,50,66.9,50,57.25,45.87,57.25,39,60.54,28.06,66.9,28.06Z"/><path class="cls-2" d="M38.3,45.47C35,45.47,34,42,34,39.1s1-6.41,4.29-6.41A3.73,3.73,0,0,1,41.78,35h5.75c-1.15-4.38-4.33-6.9-9.21-6.9-6.36,0-9.67,4.12-9.67,11S31.95,50,38.31,50c4.88,0,8.05-2.52,9.2-6.87H43.75a2.76,2.76,0,0,0-1.59.57A4.85,4.85,0,0,1,38.3,45.47Z"/><path class="cls-2" d="M96.29,29.34a2.56,2.56,0,0,0-1.94-.79H91.59V41.83a3.26,3.26,0,0,1-1.15,2.77,4.27,4.27,0,0,1-5.16,0,3.26,3.26,0,0,1-1.15-2.77V31.24a2.66,2.66,0,0,0-.75-1.89,2.55,2.55,0,0,0-1.94-.79H78.69V40.88c0,3.74,1.05,6.06,2.93,7.35a12.11,12.11,0,0,0,12.5,0C96,46.94,97,44.62,97,40.88V31.24A2.66,2.66,0,0,0,96.29,29.34Z"/><path class="cls-2" d="M118.13,23.06a2.66,2.66,0,0,0-1.9-.75h-2.78v7.86a7.71,7.71,0,0,0-5.29-2.11c-5.65,0-8.92,4.12-8.92,11S102.6,50,109.06,50c6.31,0,9.83-4.07,9.85-10.85h0V24.92A2.47,2.47,0,0,0,118.13,23.06Zm-9.07,22.41c-3.34,0-4.36-3.45-4.36-6.37s1-6.41,4.36-6.41,4.38,3.45,4.39,6.36v0.07h0C113.45,42,112.39,45.47,109.06,45.47Z"/><path class="cls-2" d="M140.29,37.8a2.64,2.64,0,0,1-.75,1.89,2.46,2.46,0,0,1-1.86.79H126.45c0.15,2.53,1.43,5,4.21,5a4.85,4.85,0,0,0,3.85-1.81,2.76,2.76,0,0,1,1.59-.57h3.77c-1.15,4.36-4.33,6.87-9.21,6.87C124.3,50,121,45.87,121,39s3.3-11,9.66-11c4.88,0,8.06,2.51,9.22,6.9a15.39,15.39,0,0,1,.41,2.52V37.8Zm-9.64-5.11a3.92,3.92,0,0,0-4,3.71h8A3.88,3.88,0,0,0,130.66,32.69Z"/><path class="cls-2" d="M173.25,33.93A5,5,0,0,0,171,29.55q-2.21-1.48-6.64-1.49a9.2,9.2,0,0,0-6.09,1.8A6.27,6.27,0,0,0,156,33.95h5.3a2.14,2.14,0,0,1,1.3-1.27,5.83,5.83,0,0,1,2-.31,6.49,6.49,0,0,1,2.25.35A1.53,1.53,0,0,1,168,34.25c0,0.84-1.16,1.62-3.48,1.92-2.79.36-5,.66-7,2.14a5.86,5.86,0,0,0-2.1,4.87c0,2.35.73,4,2.13,5.05S160.88,50,164.17,50a11.87,11.87,0,0,0,6.64-1.64,5,5,0,0,0,2.44-4.45V33.93Zm-5.94,10.31a4.77,4.77,0,0,1-3.48,1.23,4.42,4.42,0,0,1-2.52-.68,2,2,0,0,1-.72-1.62,2.14,2.14,0,0,1,.56-1.47c0.77-.82,1.63-0.94,3.48-1.35a15.32,15.32,0,0,0,3.48-1.15V40.8C168.12,42.24,168.15,43.42,167.31,44.24Z"/></svg>