<svg id="Layer_1" data-name="Layer 1" xmlns="http://www.w3.org/2000/svg" viewBox="0 0 239.34 77.86"><defs><style>.cls-1{fill:#f2fafe;}.cls-2{fill:#4967a9;}</style></defs><title>facebook</title><polygon class="cls-1" points="0 13.11 145.87 0 239.34 36.73 170.56 71.88 87.5 77.86 28.13 54.5 0 13.11"/><path class="cls-2" d="M58.64,26c-1.62,0-2.08.72-2.08,2.3V30.9h4.31l-0.43,4.24H56.56V48H51.39V35.14H47.91V30.9h3.48V28.35c0-4.27,1.72-6.53,6.53-6.53a24.32,24.32,0,0,1,3,.18v4h-2.3Z"/><path class="cls-2" d="M61.22,38.9c0-4.77,2.26-8.36,7-8.36a5.08,5.08,0,0,1,4.92,3V30.9h5V48h-5V45.4a5,5,0,0,1-4.92,2.94c-4.74,0-7-3.59-7-8.36V38.9Zm5.17,1.15c0,2.55.93,4.24,3.34,4.24,2.12,0,3.19-1.54,3.19-4V38.58c0-2.44-1.08-4-3.19-4-2.4,0-3.34,1.69-3.34,4.24v1.22Z"/><path class="cls-2" d="M88.86,30.54a9.44,9.44,0,0,1,5,1.15l-1.15,3.66a8.13,8.13,0,0,0-3.45-.79c-2.8,0-4,1.62-4,4.38v1c0,2.76,1.22,4.38,4,4.38a8.13,8.13,0,0,0,3.45-.79l1.15,3.66a9.44,9.44,0,0,1-5,1.15c-6.07,0-8.83-3.27-8.83-8.51V39C80,33.81,82.79,30.54,88.86,30.54Z"/><path class="cls-2" d="M94.49,40.09V38.58c0-4.85,2.76-8,8.4-8,5.31,0,7.65,3.23,7.65,8v2.73H99.66c0.11,2.33,1.15,3.37,4,3.37a14.68,14.68,0,0,0,5.49-1l0.93,3.55a16.67,16.67,0,0,1-6.64,1.26C96.93,48.38,94.49,45.11,94.49,40.09Zm5.17-2.23h6.25V37.43c0-1.87-.75-3.34-3-3.34S99.66,35.57,99.66,37.86Z"/><path class="cls-2" d="M129.7,40c0,4.77-2.3,8.36-7,8.36a5.29,5.29,0,0,1-5.1-2.94V48h-4.88V22.32l5.17-.47V33.27a5.16,5.16,0,0,1,4.81-2.73c4.74,0,7,3.59,7,8.36V40Zm-5.17-1.18c0-2.4-.93-4.2-3.41-4.2-2.12,0-3.27,1.51-3.27,3.95v1.79c0,2.44,1.15,3.95,3.27,3.95,2.48,0,3.41-1.79,3.41-4.2V38.8Z"/><path class="cls-2" d="M131.42,39.87V39c0-4.92,2.8-8.47,8.51-8.47s8.51,3.55,8.51,8.47v0.86c0,4.92-2.8,8.47-8.51,8.47S131.42,44.79,131.42,39.87Zm11.84-1.22c0-2.26-.93-4.06-3.34-4.06s-3.34,1.79-3.34,4.06v1.58c0,2.26.93,4.06,3.34,4.06s3.34-1.79,3.34-4.06V38.65Z"/><path class="cls-2" d="M150.15,39.87V39c0-4.92,2.8-8.47,8.51-8.47s8.51,3.55,8.51,8.47v0.86c0,4.92-2.8,8.47-8.51,8.47S150.15,44.79,150.15,39.87ZM162,38.65c0-2.26-.93-4.06-3.34-4.06s-3.34,1.79-3.34,4.06v1.58c0,2.26.93,4.06,3.34,4.06S162,42.49,162,40.23V38.65Z"/><path class="cls-2" d="M174.27,39l5.1-8.15h5.49l-5.35,8.43L185.08,48h-5.49l-5.31-8.36V48H169.1V22.32l5.17-.47V39Z"/></svg>