<svg id="Layer_1" data-name="Layer 1" xmlns="http://www.w3.org/2000/svg" viewBox="0 0 622.46 172.14"><defs><style>.cls-1{fill:#f2fafe;}.cls-2{fill:#1d305e;}</style></defs><title>fulcrum</title><polygon class="cls-1" points="152.22 0 16.99 63.4 0 102.06 60.93 152.37 193 172.14 376.74 151.19 478.86 171.31 589.43 141.94 622.46 58.5 441.15 12.62 344.69 32.45 152.22 0"/><path class="cls-2" d="M127.29,64.07l-1,3.6h-8l-6,23.83q-4,15.76-8,24.38Q98.6,128,92,132.68a17.31,17.31,0,0,1-10,3.54,8.26,8.26,0,0,1-5.56-2,4.34,4.34,0,0,1-1.69-3.54,4,4,0,0,1,1.39-3,4.84,4.84,0,0,1,3.41-1.28,3.53,3.53,0,0,1,2.48.93,2.82,2.82,0,0,1,1,2.13,3,3,0,0,1-1.14,2.24,2.13,2.13,0,0,0-.87,1.14,0.89,0.89,0,0,0,.38.76,2.49,2.49,0,0,0,1.53.38,10,10,0,0,0,4.94-1.47,14.2,14.2,0,0,0,4.61-4.39,33.4,33.4,0,0,0,3.82-8.43q0.76-2.29,4.09-15.11l9.49-36.92h-9.49l0.76-3.6a21.75,21.75,0,0,0,6.33-.63,7.66,7.66,0,0,0,3.3-2.4,36.14,36.14,0,0,0,3.9-6.63,53.82,53.82,0,0,1,6.16-10.14A29.8,29.8,0,0,1,129.28,37a17.57,17.57,0,0,1,8.37-2.43,10,10,0,0,1,6.65,2.1,6,6,0,0,1,2.51,4.55,4.47,4.47,0,0,1-1.25,3.22,4.26,4.26,0,0,1-3.22,1.31,3.9,3.9,0,0,1-2.75-1,3.08,3.08,0,0,1-1.06-2.34,4.7,4.7,0,0,1,.71-2.15,4.82,4.82,0,0,0,.71-1.72,1.36,1.36,0,0,0-.49-1.14,3.36,3.36,0,0,0-2.07-.55A9.61,9.61,0,0,0,131.22,39q-3.65,2.89-6.54,9.05-1.47,3.22-5.4,16h8Z"/><path class="cls-2" d="M180,64.07l-9.49,32.5q-2.13,7.25-2.13,9.16a2.38,2.38,0,0,0,.35,1.45,1.14,1.14,0,0,0,1,.46,3.5,3.5,0,0,0,2-.85q1.12-.85,5.64-6.73l1.64,1.25a35.15,35.15,0,0,1-8.83,10,10.23,10.23,0,0,1-5.78,2.07,4.5,4.5,0,0,1-3.33-1.2,4.2,4.2,0,0,1-1.2-3.11,22.88,22.88,0,0,1,.71-4.91q0.87-4,5-17.56-9.27,15.21-15.51,21t-11.59,5.78a5.79,5.79,0,0,1-4.25-1.74,6,6,0,0,1-1.75-4.42q0-4.09,2.4-12.54l4.74-16.85a40.53,40.53,0,0,0,1.75-7.53,1.53,1.53,0,0,0-.46-1.12,1.41,1.41,0,0,0-1-.46,3.92,3.92,0,0,0-2.29.82q-1.14.82-5.18,6.05l-1.69-1.2a31,31,0,0,1,8.67-9.32,11.78,11.78,0,0,1,6.44-2.35,4.39,4.39,0,0,1,4.58,4.58q0,2.95-2.18,10.53L143.1,95.49q-2.13,7.2-2.13,9.11a2.15,2.15,0,0,0,.68,1.66,2.59,2.59,0,0,0,1.83.63,9.69,9.69,0,0,0,4.69-1.8q2.89-1.8,7.72-8a102.8,102.8,0,0,0,8-11.62q3.14-5.43,6.68-17.26l1.2-4.15H180Z"/><path class="cls-2" d="M216.5,34.57L197.85,99.47a34.16,34.16,0,0,0-1.36,5.94,1.9,1.9,0,0,0,.52,1.36,1.7,1.7,0,0,0,1.28.55,3.75,3.75,0,0,0,2.24-.93,29.74,29.74,0,0,0,5.94-6.93l1.64,1.69q-5.18,7.31-9.54,10.2a11.38,11.38,0,0,1-6.11,2.07A4.65,4.65,0,0,1,189,112a4.54,4.54,0,0,1-1.39-3.27,38.25,38.25,0,0,1,1.75-8.07l14.78-51.15a52.43,52.43,0,0,0,1.8-7.2,2.66,2.66,0,0,0-1-2.15,5,5,0,0,0-3.22-.85,28.7,28.7,0,0,0-3.82.38v-2Z"/><path class="cls-2" d="M253.1,100.23a41.39,41.39,0,0,1-11.45,10,24.92,24.92,0,0,1-12.22,3.19q-7.74,0-12.08-4.36T213,97.34a32.47,32.47,0,0,1,4.66-16.41,37.84,37.84,0,0,1,12.54-13.12q7.88-5,15.46-5,5.94,0,8.89,2.48a7.66,7.66,0,0,1,2.94,6.08,8.55,8.55,0,0,1-2.07,5.78A4.7,4.7,0,0,1,251.68,79a3.86,3.86,0,0,1-2.81-1.09,3.65,3.65,0,0,1-1.12-2.73,4.44,4.44,0,0,1,.41-1.91,7.82,7.82,0,0,1,1.69-2.1,8.5,8.5,0,0,0,1.55-1.77,2.53,2.53,0,0,0,.27-1.14,2.29,2.29,0,0,0-1-1.91,7.82,7.82,0,0,0-4.47-1.09A18,18,0,0,0,235.6,69a30.66,30.66,0,0,0-8.94,10.69,35.46,35.46,0,0,0-4.47,16.8q0,5.56,3.16,8.81a11.48,11.48,0,0,0,8.62,3.24,18.14,18.14,0,0,0,8.32-2.1q4.12-2.1,9.24-7.61Z"/><path class="cls-2" d="M265.37,65.82l18.81-3.05-7.85,26.5q9.54-16.3,17.34-22.79,4.42-3.71,7.2-3.71a3.78,3.78,0,0,1,2.84,1.06,4.24,4.24,0,0,1,1,3.08,13.75,13.75,0,0,1-1.85,6.87,4.09,4.09,0,0,1-3.76,2.45,3.09,3.09,0,0,1-2.15-.82,3.94,3.94,0,0,1-1.12-2.51,2.11,2.11,0,0,0-.49-1.36,1.42,1.42,0,0,0-1-.44,3.66,3.66,0,0,0-1.75.44,19.17,19.17,0,0,0-4.31,4.25,118.72,118.72,0,0,0-9.82,13.85,41.11,41.11,0,0,0-3.93,8.13q-2.29,6.22-2.62,7.47l-1.74,6.87h-8.34l10.09-33.86a34.53,34.53,0,0,0,1.75-8.4,2,2,0,0,0-.82-1.64,4.49,4.49,0,0,0-2.89-.87,31.86,31.86,0,0,0-4.2.49Z"/><path class="cls-2" d="M355.57,64.07l-9.49,32.5q-2.13,7.25-2.13,9.16a2.37,2.37,0,0,0,.35,1.45,1.14,1.14,0,0,0,1,.46,3.5,3.5,0,0,0,2-.85q1.12-.85,5.64-6.73l1.64,1.25a35.16,35.16,0,0,1-8.83,10,10.23,10.23,0,0,1-5.78,2.07,4.5,4.5,0,0,1-3.33-1.2,4.2,4.2,0,0,1-1.2-3.11,22.86,22.86,0,0,1,.71-4.91q0.87-4,5-17.56-9.27,15.21-15.51,21T314,113.43a5.79,5.79,0,0,1-4.25-1.74,6,6,0,0,1-1.75-4.42q0-4.09,2.4-12.54l4.74-16.85a40.53,40.53,0,0,0,1.75-7.53,1.53,1.53,0,0,0-.46-1.12,1.41,1.41,0,0,0-1-.46,3.93,3.93,0,0,0-2.29.82Q312,70.4,308,75.64l-1.69-1.2a31,31,0,0,1,8.67-9.32,11.78,11.78,0,0,1,6.44-2.35A4.39,4.39,0,0,1,326,67.35q0,2.95-2.18,10.53l-5.13,17.61q-2.13,7.2-2.13,9.11a2.15,2.15,0,0,0,.68,1.66,2.59,2.59,0,0,0,1.83.63,9.69,9.69,0,0,0,4.69-1.8q2.89-1.8,7.72-8a102.82,102.82,0,0,0,8-11.62q3.13-5.43,6.68-17.26l1.2-4.15h8.29Z"/><path class="cls-2" d="M385.29,62.77L378.2,87.36a108.34,108.34,0,0,1,8.07-13,40,40,0,0,1,10.09-9.82,11.54,11.54,0,0,1,6.05-1.75,6.24,6.24,0,0,1,4.53,1.75,6,6,0,0,1,1.8,4.47,26.25,26.25,0,0,1-1.25,7l-3.87,13.85q8.89-16.63,16.85-23.34,4.42-3.71,8.72-3.71a5.39,5.39,0,0,1,4.12,1.72q1.61,1.72,1.61,5.32a25.17,25.17,0,0,1-1,6.71l-6,21.21a69.71,69.71,0,0,0-2,7.69,1.89,1.89,0,0,0,.49,1.31,1.09,1.09,0,0,0,.87.38,4.26,4.26,0,0,0,1.91-1,28.25,28.25,0,0,0,5.84-6.33l1.8,1.14a47.35,47.35,0,0,1-4.83,6,25.73,25.73,0,0,1-5.92,5.18,9.45,9.45,0,0,1-4.53,1.36,4.28,4.28,0,0,1-3.19-1.31,4.42,4.42,0,0,1-1.28-3.22q0-2.62,2.24-10.53l5-17.5q1.69-6.05,1.8-6.71a12.93,12.93,0,0,0,.16-2,3.37,3.37,0,0,0-.6-2.13,1.92,1.92,0,0,0-1.47-.76,7.44,7.44,0,0,0-4.85,2.34Q411.84,78.53,405.3,91a117.19,117.19,0,0,0-8.07,21.1H389l9.32-33A33.16,33.16,0,0,0,399.85,72a3.33,3.33,0,0,0-.6-2.18,1.86,1.86,0,0,0-1.47-.71A7.08,7.08,0,0,0,394,70.4q-3.27,2.13-8.43,9.11a72.14,72.14,0,0,0-8,13.36q-1.36,3-6.49,19.25H363l10.09-35.34,1.31-4.58a5.06,5.06,0,0,0,.38-1.53,2.82,2.82,0,0,0-1.09-2.15,4.07,4.07,0,0,0-2.78-1,30.34,30.34,0,0,0-3.93.66l-0.49-2Z"/><path class="cls-2" d="M479.32,93V87.25l20.68,0v18.11a36.53,36.53,0,0,1-9.82,5.71A29.13,29.13,0,0,1,479.79,113a27.71,27.71,0,0,1-13.07-3.08,20.35,20.35,0,0,1-8.87-8.91,28,28,0,0,1-3-13,30.2,30.2,0,0,1,3-13.3,19.81,19.81,0,0,1,8.57-9.17,26.86,26.86,0,0,1,12.88-3,25.53,25.53,0,0,1,9.57,1.72A15.88,15.88,0,0,1,495.57,69a21.22,21.22,0,0,1,3.7,8l-5.83,1.6a18,18,0,0,0-2.73-5.86A11.21,11.21,0,0,0,486,69.29,17.11,17.11,0,0,0,479.32,68a19.8,19.8,0,0,0-7.66,1.35,14.29,14.29,0,0,0-5.21,3.55,17,17,0,0,0-3.08,4.83,25.56,25.56,0,0,0-1.86,9.82,23.84,23.84,0,0,0,2.25,10.92A14.38,14.38,0,0,0,470.3,105a20.25,20.25,0,0,0,9.12,2.13,21.66,21.66,0,0,0,8.19-1.62,21.14,21.14,0,0,0,6.06-3.45V93H479.32Z"/><path class="cls-2" d="M518.19,112.12v-43H502.1V63.31h38.69v5.76H524.64v43h-6.46Z"/><path class="cls-2" d="M547.57,72.32V64.65h-2.92V63.32H552v1.34h-2.94v7.67h-1.5Zm5.45,0v-9h2.21l2.28,7.19,2.2-7.19h2.17v9h-1.37V64.76l-2.32,7.56h-1.36l-2.42-7.67v7.67H553Z"/></svg>