<svg id="Layer_1" data-name="Layer 1" xmlns="http://www.w3.org/2000/svg" viewBox="0 0 211.21 102.48"><defs><style>.cls-1{fill:#f2fafe;}.cls-2{fill:#100e0f;}</style></defs><title>github</title><polygon class="cls-1" points="0 37.72 30.13 0 128.73 24.62 186.91 38.35 211.22 61.34 150.51 96.49 77.22 102.48 9.81 81.59 0 37.72"/><path class="cls-2" d="M60.17,58.88H49.52a0.5,0.5,0,0,0-.5.5v5.2a0.5,0.5,0,0,0,.5.5h4.15v6.47a12.58,12.58,0,0,1-3.51.32c-3,0-7.29-1.11-7.29-10.45s4.42-10.57,8.58-10.57a16.84,16.84,0,0,1,6.13.94,0.5,0.5,0,0,0,.6-0.49l1.19-5a0.46,0.46,0,0,0-.19-0.39c-0.4-.29-2.84-1.65-9-1.65-7.11,0-14.4,3-14.4,17.56s8.35,16.7,15.38,16.7A17.32,17.32,0,0,0,60.5,76a0.43,0.43,0,0,0,.16-0.38V59.38A0.5,0.5,0,0,0,60.17,58.88Z"/><path class="cls-2" d="M115,46a0.5,0.5,0,0,0-.49-0.5h-6a0.5,0.5,0,0,0-.5.5V57.54H98.7V46a0.5,0.5,0,0,0-.49-0.5h-6a0.5,0.5,0,0,0-.5.5V77.32a0.5,0.5,0,0,0,.5.5h6a0.5,0.5,0,0,0,.49-0.5V63.91H108l0,13.42a0.5,0.5,0,0,0,.5.5h6a0.5,0.5,0,0,0,.49-0.5V46Z"/><ellipse class="cls-2" cx="67.61" cy="50.07" rx="3.86" ry="3.9"/><path class="cls-2" d="M71,70.71V56.23a0.5,0.5,0,0,0-.5-0.5h-6a0.57,0.57,0,0,0-.52.56V77a0.74,0.74,0,0,0,.87.79h5.38A0.65,0.65,0,0,0,71,77V70.71Z"/><path class="cls-2" d="M137.81,55.77h-5.95a0.5,0.5,0,0,0-.49.5V71.66a6.72,6.72,0,0,1-3.66,1.11c-2.14,0-2.71-1-2.71-3.07V56.28a0.5,0.5,0,0,0-.49-0.5h-6a0.5,0.5,0,0,0-.5.5V70.7c0,6.24,3.48,7.76,8.26,7.76a13.94,13.94,0,0,0,7.09-2.17,12.59,12.59,0,0,0,.22,1.28,0.52,0.52,0,0,0,.44.27l3.84,0a0.5,0.5,0,0,0,.5-0.5V56.28A0.5,0.5,0,0,0,137.81,55.77Z"/><path class="cls-2" d="M154.07,55.07a11.18,11.18,0,0,0-5.68,1.51V46a0.5,0.5,0,0,0-.49-0.5h-6a0.5,0.5,0,0,0-.5.5V77.32a0.5,0.5,0,0,0,.5.5h4.17a0.5,0.5,0,0,0,.44-0.27,9.78,9.78,0,0,0,.25-1.45,10.75,10.75,0,0,0,7.11,2.33c5.46,0,8.6-2.77,8.6-12.44S157.45,55.07,154.07,55.07Zm-2.35,17.67a7.13,7.13,0,0,1-3.46-1V61.81a7.93,7.93,0,0,1,3.07-1c2.14-.19,4.21.46,4.21,5.56C155.54,71.77,154.61,72.83,151.72,72.74Z"/><path class="cls-2" d="M88.28,55.72h-4.5V49.78a0.31,0.31,0,0,0-.38-0.34H77.27a0.31,0.31,0,0,0-.37.33v6.14l-3.28.8a0.5,0.5,0,0,0-.36.48v3.86a0.5,0.5,0,0,0,.5.5h3.14v9.28c0,6.89,4.83,7.57,8.1,7.57a13.68,13.68,0,0,0,3.57-.59,0.46,0.46,0,0,0,.28-0.45V73.13a0.51,0.51,0,0,0-.5-0.5c-0.26,0-.93.11-1.62,0.11-2.21,0-3-1-3-2.36s0-8.82,0-8.82h4.5a0.5,0.5,0,0,0,.5-0.5V56.22A0.5,0.5,0,0,0,88.28,55.72Z"/></svg>