<svg id="Layer_1" data-name="Layer 1" xmlns="http://www.w3.org/2000/svg" viewBox="0 0 211.21 106.35"><defs><style>.cls-1{fill:#f2fafe;}.cls-2{fill:#4ca94f;}.cls-3{fill:#ffcb39;}.cls-4{fill:#ef482f;}.cls-5{fill:#1986c8;}.cls-6{fill:#949497;}</style></defs><title>google</title><polygon class="cls-1" points="0 26.72 128.73 13.62 195.41 0 201.84 20.48 211.22 50.34 150.51 85.49 52.9 106.35 9.81 70.59 0 26.72"/><rect id="_Path_" data-name="&lt;Path&gt;" class="cls-2" x="142.96" y="29.53" width="4.93" height="32.96"/><path id="_Compound_Path_" data-name="&lt;Compound Path&gt;" class="cls-3" d="M104.76,40.74A11.21,11.21,0,1,0,116,52,11.05,11.05,0,0,0,104.76,40.74Zm0,18A6.49,6.49,0,0,1,98.43,52a6.34,6.34,0,1,1,12.66,0A6.49,6.49,0,0,1,104.76,58.75Z"/><path id="_Compound_Path_2" data-name="&lt;Compound Path&gt;" class="cls-4" d="M80.21,40.74A11.21,11.21,0,1,0,91.46,52,11.05,11.05,0,0,0,80.21,40.74Zm0,18A6.49,6.49,0,0,1,73.88,52a6.34,6.34,0,1,1,12.66,0A6.49,6.49,0,0,1,80.21,58.75Z"/><path id="_Compound_Path_3" data-name="&lt;Compound Path&gt;" class="cls-4" d="M161.4,58.75a5.7,5.7,0,0,1-5.44-3.4l15-6.2-0.51-1.27c-0.93-2.51-3.78-7.13-9.6-7.13S150.27,45.29,150.27,52A11,11,0,0,0,161.4,63.17a11.15,11.15,0,0,0,9.34-5l-3.82-2.55A6.4,6.4,0,0,1,161.4,58.75ZM161,45.08a4.34,4.34,0,0,1,4.16,2.38l-10,4.16A6.15,6.15,0,0,1,161,45.08Z"/><path id="_Path_2" data-name="&lt;Path&gt;" class="cls-5" d="M33.34,45.76A17.66,17.66,0,0,1,51,28.34a16.59,16.59,0,0,1,11.93,4.8L59.58,36.5A12.13,12.13,0,0,0,51,33.1a12.66,12.66,0,0,0,0,25.31,11.65,11.65,0,0,0,8.79-3.48,9.93,9.93,0,0,0,2.59-6H51V44.18H67a15.5,15.5,0,0,1,.25,3c0,3.57-1,8-4.12,11.13A15.92,15.92,0,0,1,51,63.17,17.66,17.66,0,0,1,33.34,45.76Z"/><path id="_Compound_Path_4" data-name="&lt;Compound Path&gt;" class="cls-5" d="M134.89,41.42v1.83h-0.17a7.77,7.77,0,0,0-5.9-2.51c-5.61,0-10.74,4.93-10.74,11.25a11.1,11.1,0,0,0,10.74,11.17,7.64,7.64,0,0,0,5.9-2.55h0.17v1.61c0,4.29-2.29,6.58-6,6.58a6.2,6.2,0,0,1-5.65-4L119,66.61a10.68,10.68,0,0,0,9.94,6.63c5.78,0,10.66-3.4,10.66-11.68V41.42h-4.67Zm-5.65,17.33A6.43,6.43,0,0,1,123,52c0-3.95,2.85-6.84,6.24-6.84s6,2.89,6,6.84S132.6,58.75,129.25,58.75Z"/><path class="cls-6" d="M172.19,43.24V41.08h-0.81V40.59h2.13v0.49h-0.78v2.16h-0.54Zm4.18,0V41.86l0-.52h0l-0.78,1.9h-0.38l-0.78-1.9h0l0,0.52v1.39h-0.52V40.59h0.73l0.74,1.9h0l0.74-1.9h0.73v2.65h-0.52Z"/></svg>