<svg id="Layer_1" data-name="Layer 1" xmlns="http://www.w3.org/2000/svg" viewBox="0 0 277.72 151.24"><defs><style>.cls-1{fill:#f2fafe;}.cls-2{fill:#1d305e;}</style></defs><title>imo</title><polygon class="cls-1" points="0 70.6 79.09 10.25 217.52 0 277.72 59.43 254.55 136.21 138.86 151.24 35.93 139.19 0 70.6"/><path class="cls-2" d="M75.12,114.62v-9.87h1.63v9.87H75.12Z"/><path class="cls-2" d="M83.63,114.62H82.08V111A7.6,7.6,0,0,0,82,109.5a1,1,0,0,0-.32-0.56,0.86,0.86,0,0,0-.55-0.19,1.1,1.1,0,0,0-.7.25,1.32,1.32,0,0,0-.45.7,7.4,7.4,0,0,0-.13,1.68v3.24H78.29v-7.15h1.44v1a2.79,2.79,0,0,1,.87-0.91,2,2,0,0,1,1.07-.3,1.83,1.83,0,0,1,1.14.36,1.75,1.75,0,0,1,.65.91,5.44,5.44,0,0,1,.18,1.6v4.45Z"/><path class="cls-2" d="M87.88,107.47V109H86.83v2.89a6.62,6.62,0,0,0,.05,1.08,0.37,0.37,0,0,0,.38.27,1.63,1.63,0,0,0,.62-0.18L88,114.5a2.58,2.58,0,0,1-1.22.28,1.44,1.44,0,0,1-.95-0.28,1.35,1.35,0,0,1-.48-0.81,8.44,8.44,0,0,1-.09-1.59V109H84.56v-1.51h0.72v-1.42l1.55-1.1v2.52h1.06Z"/><path class="cls-2" d="M92.37,112.35l1.54,0.32a3,3,0,0,1-1,1.6,2.48,2.48,0,0,1-1.59.52,2.43,2.43,0,0,1-2-.87,4.34,4.34,0,0,1-.84-2.83,4.57,4.57,0,0,1,.84-2.87,2.24,2.24,0,0,1,1.85-.91,2.34,2.34,0,0,1,2,.93,5,5,0,0,1,.82,3.14v0.22H90.11a2.16,2.16,0,0,0,.38,1.31A1,1,0,0,0,92.37,112.35Zm0.08-1.92a2.1,2.1,0,0,0-.36-1.25,1,1,0,0,0-.8-0.42,1,1,0,0,0-.83.44,2,2,0,0,0-.34,1.24h2.32Z"/><path class="cls-2" d="M95.26,114.62v-9.87h1.55v9.87H95.26Z"/><path class="cls-2" d="M98.39,114.62v-9.87h1.56v9.87H98.39Z"/><path class="cls-2" d="M101.54,106.5v-1.75h1.55v1.75h-1.55Zm0,8.12v-7.15h1.55v7.15h-1.55Z"/><path class="cls-2" d="M104.53,115.09l1.78,0.26a0.76,0.76,0,0,0,.24.56,1.05,1.05,0,0,0,.65.16,1.77,1.77,0,0,0,.83-0.17,0.83,0.83,0,0,0,.34-0.4,2.86,2.86,0,0,0,.12-1v-1a2.56,2.56,0,0,1-.78.87,1.73,1.73,0,0,1-1,.29,2,2,0,0,1-1.64-.88,5.44,5.44,0,0,1,0-5.5,2.15,2.15,0,0,1,1.75-.93,1.77,1.77,0,0,1,1,.29,2.61,2.61,0,0,1,.8.88v-1H110v6.42a6.5,6.5,0,0,1-.28,2.23,2.09,2.09,0,0,1-.88,1,3.12,3.12,0,0,1-1.63.36,4,4,0,0,1-1.54-.25,1.92,1.92,0,0,1-.88-0.77,2.25,2.25,0,0,1-.3-1.17v-0.24Zm1.38-4.19a2.93,2.93,0,0,0,.37,1.67,1.06,1.06,0,0,0,.88.53,1.17,1.17,0,0,0,1-.53,2.72,2.72,0,0,0,.4-1.62,2.88,2.88,0,0,0-.38-1.65,1.13,1.13,0,0,0-.94-0.54,1.08,1.08,0,0,0-.92.53A2.79,2.79,0,0,0,105.92,110.89Z"/><path class="cls-2" d="M115,112.35l1.54,0.32a3,3,0,0,1-1,1.6,2.48,2.48,0,0,1-1.59.52,2.44,2.44,0,0,1-2-.87,4.31,4.31,0,0,1-.83-2.83,4.54,4.54,0,0,1,.84-2.87,2.24,2.24,0,0,1,1.85-.91,2.34,2.34,0,0,1,2,.93,5.06,5.06,0,0,1,.82,3.14v0.22h-3.88a2.16,2.16,0,0,0,.38,1.31,1.1,1.1,0,0,0,.89.47A1.07,1.07,0,0,0,115,112.35Zm0.08-1.92a2.08,2.08,0,0,0-.36-1.25,1,1,0,0,0-.8-0.42,1,1,0,0,0-.83.44,2,2,0,0,0-.34,1.24h2.32Z"/><path class="cls-2" d="M123.2,114.62h-1.55V111a7.43,7.43,0,0,0-.09-1.46,1,1,0,0,0-.32-0.56,0.86,0.86,0,0,0-.54-0.19,1.12,1.12,0,0,0-.71.25,1.34,1.34,0,0,0-.44.7,6.79,6.79,0,0,0-.13,1.68v3.24h-1.55v-7.15h1.44v1a2.75,2.75,0,0,1,.87-0.91,1.92,1.92,0,0,1,1.06-.3,1.85,1.85,0,0,1,1.15.36,1.8,1.8,0,0,1,.64.91,5.29,5.29,0,0,1,.18,1.6v4.45Z"/><path class="cls-2" d="M127.45,107.47V109h-1.05v2.89a7.3,7.3,0,0,0,0,1.08,0.39,0.39,0,0,0,.39.27,1.69,1.69,0,0,0,.62-0.18l0.13,1.47a2.58,2.58,0,0,1-1.22.28,1.44,1.44,0,0,1-.94-0.28,1.39,1.39,0,0,1-.48-0.81,8.6,8.6,0,0,1-.09-1.59V109h-0.71v-1.51h0.71v-1.42l1.56-1.1v2.52h1.05Z"/><path class="cls-2" d="M131.66,114.62v-9.87h2.44l1.47,6.74,1.46-6.74h2.45v9.87H138v-7.77l-1.61,7.77h-1.57l-1.6-7.77v7.77h-1.52Z"/><path class="cls-2" d="M144.49,112.35l1.53,0.32a3,3,0,0,1-1,1.6,2.48,2.48,0,0,1-1.59.52,2.43,2.43,0,0,1-2-.87,4.31,4.31,0,0,1-.84-2.83,4.52,4.52,0,0,1,.84-2.87,2.23,2.23,0,0,1,1.85-.91,2.35,2.35,0,0,1,2,.93,5.07,5.07,0,0,1,.82,3.14v0.22h-3.88a2.09,2.09,0,0,0,.38,1.31A1,1,0,0,0,144.49,112.35Zm0.08-1.92a2.06,2.06,0,0,0-.36-1.25,1,1,0,0,0-.8-0.42,1,1,0,0,0-.83.44,2,2,0,0,0-.33,1.24h2.32Z"/><path class="cls-2" d="M152.74,114.62h-1.45v-1.05a2.57,2.57,0,0,1-.83.91,1.86,1.86,0,0,1-1,.31,2.11,2.11,0,0,1-1.71-1A4.66,4.66,0,0,1,147,111a4.52,4.52,0,0,1,.71-2.77,2.14,2.14,0,0,1,1.76-.94,1.8,1.8,0,0,1,.91.25,2.62,2.62,0,0,1,.78.75v-3.55h1.56v9.87Zm-4.14-3.74a4.75,4.75,0,0,0,.17,1.45,1.58,1.58,0,0,0,.47.72,1,1,0,0,0,1.57-.31,3,3,0,0,0,.38-1.67,3.29,3.29,0,0,0-.37-1.78,1.06,1.06,0,0,0-1.84,0A2.8,2.8,0,0,0,148.6,110.88Z"/><path class="cls-2" d="M154.27,106.5v-1.75h1.55v1.75h-1.55Zm0,8.12v-7.15h1.55v7.15h-1.55Z"/><path class="cls-2" d="M162.53,109.57l-1.53.34a1.08,1.08,0,0,0-2-.64,2.91,2.91,0,0,0-.35,1.64,3.43,3.43,0,0,0,.35,1.8,1.07,1.07,0,0,0,.94.53,1,1,0,0,0,.73-0.3,2,2,0,0,0,.39-1.06l1.53,0.32c-0.31,1.72-1.22,2.58-2.71,2.58a2.34,2.34,0,0,1-2.12-1.09,4.85,4.85,0,0,1-.7-2.63,4.34,4.34,0,0,1,.79-2.8,2.76,2.76,0,0,1,3.74-.42A3.17,3.17,0,0,1,162.53,109.57Z"/><path class="cls-2" d="M164.86,109.64l-1.41-.31a2.75,2.75,0,0,1,.85-1.56,2.67,2.67,0,0,1,1.7-.48,3.24,3.24,0,0,1,1.49.28,1.59,1.59,0,0,1,.74.75,4.47,4.47,0,0,1,.22,1.73v2.21a9.55,9.55,0,0,0,.07,1.38,4.6,4.6,0,0,0,.28,1h-1.54l-0.2-.78a3.06,3.06,0,0,1-.85.71,2.1,2.1,0,0,1-1,.24,1.85,1.85,0,0,1-1.41-.58,2.13,2.13,0,0,1-.54-1.53,2.35,2.35,0,0,1,.22-1.06,1.8,1.8,0,0,1,.63-0.72,4,4,0,0,1,1.29-.48,7,7,0,0,0,1.5-.46,2.54,2.54,0,0,0-.08-0.78,0.74,0.74,0,0,0-.32-0.31,1.43,1.43,0,0,0-.63-0.12,1,1,0,0,0-.66.19A1.36,1.36,0,0,0,164.86,109.64Zm2.07,1.54a7.56,7.56,0,0,1-.92.28,2.14,2.14,0,0,0-.95.42,0.82,0.82,0,0,0-.22.59,1,1,0,0,0,.24.69,0.79,0.79,0,0,0,.62.28,1.12,1.12,0,0,0,.65-0.22,1.26,1.26,0,0,0,.45-0.54,3.46,3.46,0,0,0,.12-1.13v-0.38Z"/><path class="cls-2" d="M170,114.62v-9.87h1.56v9.87H170Z"/><path class="cls-2" d="M175.94,109.74a7,7,0,0,1,.52-2.91,4,4,0,0,1,1.37-1.7,3.6,3.6,0,0,1,2-.56,3.51,3.51,0,0,1,2.83,1.33,5.79,5.79,0,0,1,1.1,3.78,5.87,5.87,0,0,1-1.16,3.86,3.4,3.4,0,0,1-2.76,1.23,3.43,3.43,0,0,1-2.77-1.22A5.84,5.84,0,0,1,175.94,109.74Zm1.69-.07a4.2,4.2,0,0,0,.64,2.55,1.94,1.94,0,0,0,3.2,0,4.33,4.33,0,0,0,.63-2.59,4.26,4.26,0,0,0-.61-2.54,2,2,0,0,0-3.23,0A4.19,4.19,0,0,0,177.63,109.68Z"/><path class="cls-2" d="M185,114.62v-9.87h1.56v3.55a2.61,2.61,0,0,1,.78-0.75,1.82,1.82,0,0,1,.91-0.25,2.15,2.15,0,0,1,1.76.94,4.46,4.46,0,0,1,.71,2.76,4.61,4.61,0,0,1-.74,2.8,2.11,2.11,0,0,1-1.71,1,1.84,1.84,0,0,1-1-.31,2.66,2.66,0,0,1-.83-0.9v1.05H185Zm1.54-3.74a4.62,4.62,0,0,0,.17,1.42,1.66,1.66,0,0,0,.5.74,1.09,1.09,0,0,0,.68.25,1,1,0,0,0,.87-0.54,3.11,3.11,0,0,0,.36-1.7,3.3,3.3,0,0,0-.36-1.77,1.07,1.07,0,0,0-1.85,0A2.76,2.76,0,0,0,186.53,110.88Z"/><path class="cls-2" d="M193.48,107.47v6.93a8,8,0,0,1-.16,2,1.51,1.51,0,0,1-.58.83,1.77,1.77,0,0,1-1,.29,3.54,3.54,0,0,1-1.08-.2l0.27-1.61a1.34,1.34,0,0,0,.39.06,0.56,0.56,0,0,0,.56-0.33,4.15,4.15,0,0,0,.08-1.15v-6.82h1.55Zm-1.55-1v-1.75h1.55v1.75h-1.55Z"/><path class="cls-2" d="M198.51,112.35l1.55,0.32a3,3,0,0,1-1,1.6,2.49,2.49,0,0,1-1.59.52,2.43,2.43,0,0,1-2-.87,4.33,4.33,0,0,1-.84-2.83,4.57,4.57,0,0,1,.84-2.87,2.24,2.24,0,0,1,1.85-.91,2.35,2.35,0,0,1,2,.93,5.12,5.12,0,0,1,.82,3.14v0.22h-3.88a2.06,2.06,0,0,0,.37,1.31A1,1,0,0,0,198.51,112.35Zm0.08-1.92a2.07,2.07,0,0,0-.35-1.25,1,1,0,0,0-.8-0.42,1,1,0,0,0-.83.44,2,2,0,0,0-.33,1.24h2.32Z"/><path class="cls-2" d="M206.5,109.57l-1.52.34a1.08,1.08,0,0,0-1.07-1.13,1.1,1.1,0,0,0-.93.49,2.88,2.88,0,0,0-.35,1.64,3.42,3.42,0,0,0,.35,1.8,1.08,1.08,0,0,0,.94.53,1,1,0,0,0,.73-0.3,2,2,0,0,0,.4-1.06l1.53,0.32c-0.31,1.72-1.22,2.58-2.71,2.58a2.35,2.35,0,0,1-2.13-1.09,4.85,4.85,0,0,1-.69-2.63,4.33,4.33,0,0,1,.79-2.8,2.76,2.76,0,0,1,3.74-.42A3.13,3.13,0,0,1,206.5,109.57Z"/><path class="cls-2" d="M210.35,107.47V109h-1.06v2.89a6.89,6.89,0,0,0,0,1.08,0.37,0.37,0,0,0,.38.27,1.68,1.68,0,0,0,.63-0.18l0.14,1.47a2.63,2.63,0,0,1-1.22.28,1.46,1.46,0,0,1-.95-0.28,1.36,1.36,0,0,1-.47-0.81,8.14,8.14,0,0,1-.1-1.59V109H207v-1.51h0.71v-1.42l1.55-1.1v2.52h1.06Z"/><path class="cls-2" d="M210.89,112.58l1.55-.29a1.18,1.18,0,0,0,1.25,1.12,1.36,1.36,0,0,0,.83-0.21,0.68,0.68,0,0,0,.27-0.56,0.57,0.57,0,0,0-.12-0.37,1.17,1.17,0,0,0-.51-0.24,6.86,6.86,0,0,1-2.43-1,2,2,0,0,1-.65-1.57,2.1,2.1,0,0,1,.63-1.6,2.56,2.56,0,0,1,1.84-.6,2.86,2.86,0,0,1,1.75.45,2.4,2.4,0,0,1,.84,1.44l-1.45.34a1,1,0,0,0-1.11-.87,1.53,1.53,0,0,0-.81.16,0.52,0.52,0,0,0-.24.43,0.47,0.47,0,0,0,.22.39,6.3,6.3,0,0,0,1.38.49,3.77,3.77,0,0,1,1.76.89,2,2,0,0,1,.46,1.38,2.27,2.27,0,0,1-.71,1.71,2.75,2.75,0,0,1-2,.67,2.92,2.92,0,0,1-1.85-.56A2.64,2.64,0,0,1,210.89,112.58Z"/><path class="cls-2" d="M75.12,102.37V43.91H86.91v58.46H75.12Zm21,0V43.91H113.8l10.48,39.88,10.36-39.88h17.74v58.46H141.47l0-46-11.53,46H118.51L107,56.35l0,46H96.09ZM159.81,73.5a37.18,37.18,0,0,1,2.67-15,27.43,27.43,0,0,1,5.45-8,22.67,22.67,0,0,1,7.55-5.25,32.1,32.1,0,0,1,12.6-2.31q12.92,0,20.67,8t7.76,22.26q0,14.14-7.7,22.12t-20.57,8q-13,0-20.73-7.95T159.81,73.5ZM172,73.1q0,9.91,4.58,15a15.77,15.77,0,0,0,23.21,0q4.52-5.06,4.52-15.22t-4.4-15a16.33,16.33,0,0,0-23.45.06Q172,63,172,73.1Z"/><path class="cls-2" d="M213.13,43.91a3.41,3.41,0,0,1,1.67.44A3.13,3.13,0,0,1,216,45.59a3.4,3.4,0,0,1,0,3.39,3.18,3.18,0,0,1-1.25,1.25,3.38,3.38,0,0,1-1.68.45,3.42,3.42,0,0,1-1.69-.45A3.18,3.18,0,0,1,210.19,49a3.43,3.43,0,0,1-.45-1.69,3.39,3.39,0,0,1,.46-1.7,3.08,3.08,0,0,1,1.25-1.25A3.44,3.44,0,0,1,213.13,43.91Zm0,0.66a2.77,2.77,0,0,0-1.34.35,2.52,2.52,0,0,0-1,1,2.74,2.74,0,0,0,0,2.73,2.61,2.61,0,0,0,1,1,2.7,2.7,0,0,0,2.71,0,2.57,2.57,0,0,0,1-1,2.71,2.71,0,0,0,0-2.73,2.52,2.52,0,0,0-1-1A2.8,2.8,0,0,0,213.13,44.57ZM211.6,49.1V45.51h1.88a1.46,1.46,0,0,1,.56.14,0.92,0.92,0,0,1,.33.35,1,1,0,0,1,.14.51,0.93,0.93,0,0,1-.26.66,1.13,1.13,0,0,1-.71.34,0.85,0.85,0,0,1,.25.13,2,2,0,0,1,.25.27l0.26,0.44,0.42,0.72h-0.9l-0.3-.58a2.5,2.5,0,0,0-.5-0.74,0.81,0.81,0,0,0-.5-0.15h-0.19V49.1H211.6Zm0.73-2h0.29a3.47,3.47,0,0,0,.78,0,0.47,0.47,0,0,0,.25-0.17,0.45,0.45,0,0,0,.08-0.27,0.43,0.43,0,0,0-.08-0.27,0.48,0.48,0,0,0-.25-0.17,3.48,3.48,0,0,0-.78-0.05h-0.29v1Z"/></svg>