<svg id="Layer_1" data-name="Layer 1" xmlns="http://www.w3.org/2000/svg" viewBox="0 0 227.74 79.72"><defs><style>.cls-1{fill:#f2fafe;}.cls-2{fill:#1d305e;}</style></defs><title>lawrencelivermore</title><polygon class="cls-1" points="14.91 39.75 54.96 0 157.82 0 227.74 61.27 139.54 79.72 79.75 66.56 15.97 70.5 0 61.27 14.91 39.75"/><rect class="cls-2" x="44.34" y="26.93" width="10.33" height="10.33"/><path class="cls-2" d="M49.5,32.09"/><polygon class="cls-2" points="67.55 35.99 62.43 35.99 62.43 27.61 60.39 27.61 60.39 37.7 67.55 37.7 67.55 35.99"/><path class="cls-2" d="M71.48,37.65a3.48,3.48,0,0,0,1.05-.73l0.07,0.22c0.07,0.25.13,0.43,0.18,0.56h2a4.29,4.29,0,0,1-.34-1,8.08,8.08,0,0,1-.09-1.44l0-2.28a4.06,4.06,0,0,0-.26-1.75,1.94,1.94,0,0,0-.9-0.79,4.62,4.62,0,0,0-1.94-.31,3.75,3.75,0,0,0-2.16.51,2.76,2.76,0,0,0-1,1.58l1.74,0.33a1.43,1.43,0,0,1,.47-0.72,1.4,1.4,0,0,1,.81-0.21,1.65,1.65,0,0,1,1,.24,1,1,0,0,1,.28.81v0.2a10.42,10.42,0,0,1-1.88.48,6.36,6.36,0,0,0-1.54.46,1.94,1.94,0,0,0-.83.75,2.13,2.13,0,0,0-.3,1.12,2.08,2.08,0,0,0,.65,1.57,2.45,2.45,0,0,0,1.77.62A3,3,0,0,0,71.48,37.65Zm-1.66-2.14a0.83,0.83,0,0,1,.37-0.7,3.44,3.44,0,0,1,1-.35,11.51,11.51,0,0,0,1.16-.3v0.39a4,4,0,0,1-.08,1,1.23,1.23,0,0,1-.46.65,1.62,1.62,0,0,1-1,.35,1,1,0,0,1-.76-0.3A1,1,0,0,1,69.82,35.51Z"/><polygon class="cls-2" points="83.75 30.33 82.34 35.16 81.12 30.33 79.24 30.33 77.97 35.16 76.58 30.33 74.69 30.33 77.02 37.7 78.92 37.7 80.17 32.96 81.44 37.7 83.31 37.7 85.67 30.33 83.75 30.33"/><path class="cls-2" d="M87.9,35.41a11.73,11.73,0,0,1,.16-2.48,1.55,1.55,0,0,1,.45-0.82,1.08,1.08,0,0,1,.69-0.23,1.71,1.71,0,0,1,.91.32l0.61-1.69a2.48,2.48,0,0,0-1.28-.37,1.49,1.49,0,0,0-.84.25,3.34,3.34,0,0,0-.84,1v-1H85.94V37.7h2V35.41Z"/><path class="cls-2" d="M91.09,36.63a3.24,3.24,0,0,0,2.82,1.26,3.44,3.44,0,0,0,2-.56,3.17,3.17,0,0,0,1.17-1.62l-1.93-.33a1.46,1.46,0,0,1-.47.77,1.2,1.2,0,0,1-.76.24,1.45,1.45,0,0,1-1.11-.48,2,2,0,0,1-.47-1.34h4.87a4.85,4.85,0,0,0-.9-3.34,3.24,3.24,0,0,0-2.58-1.09,3.12,3.12,0,0,0-2.41,1,4.12,4.12,0,0,0-1,2.89A4.29,4.29,0,0,0,91.09,36.63Zm1.71-4.52a1.39,1.39,0,0,1,2.06,0,1.9,1.9,0,0,1,.43,1.3h-2.9A1.83,1.83,0,0,1,92.8,32.11Z"/><path class="cls-2" d="M100.82,31.92a1.52,1.52,0,0,1,.89-0.28,1.13,1.13,0,0,1,.67.19,1.09,1.09,0,0,1,.4.55,5.92,5.92,0,0,1,.12,1.55V37.7h2V33.11a6.24,6.24,0,0,0-.11-1.32,2.18,2.18,0,0,0-.38-0.82,2,2,0,0,0-.8-0.59,2.86,2.86,0,0,0-1.17-.23A2.9,2.9,0,0,0,100,31.41V30.33H98.18V37.7h2V34.35a6.52,6.52,0,0,1,.15-1.7A1.4,1.4,0,0,1,100.82,31.92Z"/><path class="cls-2" d="M110.34,36a1.32,1.32,0,0,1-.91.32,1.45,1.45,0,0,1-1.19-.55,3.05,3.05,0,0,1-.44-1.88,2.66,2.66,0,0,1,.43-1.71,1.43,1.43,0,0,1,1.15-.51,1.33,1.33,0,0,1,.89.29,1.37,1.37,0,0,1,.44.85l1.93-.35a3.16,3.16,0,0,0-1.14-1.74,3.57,3.57,0,0,0-2.13-.57,3.39,3.39,0,0,0-2.6,1,4,4,0,0,0-1,2.86,4,4,0,0,0,1,2.84,3.35,3.35,0,0,0,2.57,1,3.53,3.53,0,0,0,2.26-.67,3.4,3.4,0,0,0,1.14-2l-1.9-.33A1.92,1.92,0,0,1,110.34,36Z"/><path class="cls-2" d="M118.48,37.34a3.18,3.18,0,0,0,1.17-1.62l-1.93-.33a1.46,1.46,0,0,1-.47.77,1.2,1.2,0,0,1-.76.24,1.45,1.45,0,0,1-1.11-.48,2,2,0,0,1-.47-1.34h4.87a4.86,4.86,0,0,0-.9-3.34,3.24,3.24,0,0,0-2.58-1.09,3.12,3.12,0,0,0-2.41,1,4.12,4.12,0,0,0-1,2.89,4.29,4.29,0,0,0,.72,2.56,3.24,3.24,0,0,0,2.82,1.26A3.44,3.44,0,0,0,118.48,37.34Zm-3.12-5.23a1.39,1.39,0,0,1,2.06,0,1.91,1.91,0,0,1,.44,1.3H115A1.83,1.83,0,0,1,115.36,32.11Z"/><polygon class="cls-2" points="131.28 35.99 126.17 35.99 126.17 27.61 124.13 27.61 124.13 37.7 131.28 37.7 131.28 35.99"/><rect class="cls-2" x="132.09" y="30.33" width="1.96" height="7.37"/><rect class="cls-2" x="132.09" y="27.53" width="1.96" height="1.79"/><path class="cls-2" d="M139.19,37.7l2.92-7.37h-2l-1.39,3.76q-0.11.31-.21,0.62,0,0.15-.2.63l-0.4-1.26-1.39-3.76h-2l3,7.37h1.75Z"/><path class="cls-2" d="M148.83,35.72l-1.93-.33a1.46,1.46,0,0,1-.47.77,1.2,1.2,0,0,1-.76.24,1.45,1.45,0,0,1-1.11-.48,2,2,0,0,1-.47-1.34H149a4.85,4.85,0,0,0-.9-3.34,3.24,3.24,0,0,0-2.58-1.09,3.12,3.12,0,0,0-2.41,1,4.12,4.12,0,0,0-1,2.89,4.29,4.29,0,0,0,.72,2.56,3.24,3.24,0,0,0,2.82,1.26,3.44,3.44,0,0,0,2-.56A3.17,3.17,0,0,0,148.83,35.72Zm-4.29-3.61a1.34,1.34,0,0,1,1.05-.47,1.33,1.33,0,0,1,1,.44,1.9,1.9,0,0,1,.44,1.3h-2.9A1.83,1.83,0,0,1,144.54,32.11Z"/><path class="cls-2" d="M151.79,35.41a11.73,11.73,0,0,1,.16-2.48,1.55,1.55,0,0,1,.45-0.82,1.08,1.08,0,0,1,.69-0.23,1.71,1.71,0,0,1,.91.32l0.61-1.69a2.48,2.48,0,0,0-1.28-.37,1.49,1.49,0,0,0-.84.25,3.34,3.34,0,0,0-.84,1v-1h-1.82V37.7h2V35.41Z"/><path class="cls-2" d="M158.7,31.79a0.89,0.89,0,0,1,.32.47,5.65,5.65,0,0,1,.1,1.39V37.7h2V34.15a5.32,5.32,0,0,1,.16-1.53,1.39,1.39,0,0,1,.52-0.73,1.32,1.32,0,0,1,.77-0.25,0.92,0.92,0,0,1,.83.42,3.17,3.17,0,0,1,.2,1.42V37.7h2V33a4.22,4.22,0,0,0-.2-1.53,2,2,0,0,0-.84-1,2.67,2.67,0,0,0-1.37-.33,2.56,2.56,0,0,0-1.2.29,3.39,3.39,0,0,0-1,.88,2.24,2.24,0,0,0-.86-0.88,2.48,2.48,0,0,0-1.23-.29,2.89,2.89,0,0,0-2.3,1.2v-1h-1.79V37.7h2V34.11a5.25,5.25,0,0,1,.16-1.52,1.33,1.33,0,0,1,.52-0.7,1.41,1.41,0,0,1,.81-0.24A1,1,0,0,1,158.7,31.79Z"/><path class="cls-2" d="M168.22,37.43a4.27,4.27,0,0,0,1.93.46,3.64,3.64,0,0,0,2.72-1.11A3.83,3.83,0,0,0,174,34a3.78,3.78,0,0,0-1.07-2.76,3.67,3.67,0,0,0-2.74-1.09,4,4,0,0,0-2,.48,3.3,3.3,0,0,0-1.36,1.4,4,4,0,0,0-.48,1.89,4.53,4.53,0,0,0,.48,2.17A3.15,3.15,0,0,0,168.22,37.43Zm0.63-5.12a1.69,1.69,0,0,1,2.57,0,2.48,2.48,0,0,1,.52,1.69,2.53,2.53,0,0,1-.52,1.72,1.7,1.7,0,0,1-2.57,0A3,3,0,0,1,168.84,32.31Z"/><path class="cls-2" d="M176.71,35.41a11.75,11.75,0,0,1,.16-2.48,1.56,1.56,0,0,1,.45-0.82,1.08,1.08,0,0,1,.69-0.23,1.71,1.71,0,0,1,.91.32l0.61-1.69a2.48,2.48,0,0,0-1.28-.37,1.49,1.49,0,0,0-.84.25,3.35,3.35,0,0,0-.84,1v-1h-1.82V37.7h2V35.41Z"/><path class="cls-2" d="M183.5,36.16a1.2,1.2,0,0,1-.76.24,1.45,1.45,0,0,1-1.11-.48,2,2,0,0,1-.47-1.34H186a4.85,4.85,0,0,0-.9-3.34,3.24,3.24,0,0,0-2.58-1.09,3.12,3.12,0,0,0-2.41,1,4.12,4.12,0,0,0-1,2.89,4.29,4.29,0,0,0,.72,2.56,3.25,3.25,0,0,0,2.82,1.26,3.44,3.44,0,0,0,2-.56,3.17,3.17,0,0,0,1.17-1.62L184,35.39A1.46,1.46,0,0,1,183.5,36.16Zm-1.89-4.05a1.39,1.39,0,0,1,2.06,0,1.9,1.9,0,0,1,.44,1.3h-2.9A1.83,1.83,0,0,1,181.61,32.11Z"/><polygon class="cls-2" points="66.51 46.52 62.33 39.71 60.34 39.71 60.34 49.88 62.24 49.88 62.24 43.22 66.36 49.88 68.42 49.88 68.42 39.71 66.51 39.71 66.51 46.52"/><path class="cls-2" d="M75.89,47.45l0-2.28a4.06,4.06,0,0,0-.26-1.75,1.94,1.94,0,0,0-.9-0.79,4.65,4.65,0,0,0-1.94-.31,3.75,3.75,0,0,0-2.16.51,2.75,2.75,0,0,0-1,1.58l1.74,0.33A1.41,1.41,0,0,1,71.85,44a1.39,1.39,0,0,1,.81-0.21,1.65,1.65,0,0,1,1,.24,1,1,0,0,1,.28.81v0.2a10.35,10.35,0,0,1-1.88.48,6.49,6.49,0,0,0-1.54.46,2,2,0,0,0-.83.75,2.13,2.13,0,0,0-.3,1.12,2.09,2.09,0,0,0,.65,1.57,2.45,2.45,0,0,0,1.77.62,3,3,0,0,0,1.2-.24,3.47,3.47,0,0,0,1.05-.73l0.07,0.22c0.07,0.25.14,0.43,0.19,0.56h2a4.25,4.25,0,0,1-.34-1A8.16,8.16,0,0,1,75.89,47.45ZM74,46.74a4.1,4.1,0,0,1-.07,1,1.25,1.25,0,0,1-.46.66,1.63,1.63,0,0,1-1,.35,1,1,0,0,1-.76-0.3,1,1,0,0,1-.3-0.72,0.83,0.83,0,0,1,.37-0.7,3.43,3.43,0,0,1,1-.34,11.45,11.45,0,0,0,1.17-.3v0.39Z"/><path class="cls-2" d="M79.83,48.46a0.53,0.53,0,0,1-.33-0.1,0.43,0.43,0,0,1-.17-0.25,7.54,7.54,0,0,1,0-1.06v-3h1.33V42.51H79.29V39.9l-2,1.14v1.47h-0.9v1.55h0.9v3.23a9.55,9.55,0,0,0,.06,1.38,1.83,1.83,0,0,0,.27.76,1.37,1.37,0,0,0,.62.46,2.41,2.41,0,0,0,.94.18,3.87,3.87,0,0,0,1.53-.29l-0.15-1.5A2.52,2.52,0,0,1,79.83,48.46Z"/><rect class="cls-2" x="81.29" y="42.51" width="1.96" height="7.37"/><rect class="cls-2" x="81.29" y="39.71" width="1.96" height="1.79"/><path class="cls-2" d="M87.93,42.32a4,4,0,0,0-2,.48,3.3,3.3,0,0,0-1.36,1.4,4,4,0,0,0-.48,1.89,4.52,4.52,0,0,0,.48,2.17A3.16,3.16,0,0,0,86,49.61a4.27,4.27,0,0,0,1.93.46A3.64,3.64,0,0,0,90.67,49a3.83,3.83,0,0,0,1.08-2.79,3.79,3.79,0,0,0-1.07-2.76A3.68,3.68,0,0,0,87.93,42.32Zm1.28,5.58a1.7,1.7,0,0,1-2.57,0,3,3,0,0,1,0-3.41,1.7,1.7,0,0,1,2.57,0,2.49,2.49,0,0,1,.52,1.69A2.54,2.54,0,0,1,89.21,47.9Z"/><path class="cls-2" d="M98.84,43.15a2,2,0,0,0-.8-0.6,3,3,0,0,0-3.58,1V42.51H92.63v7.37h2V46.53a6.51,6.51,0,0,1,.15-1.7,1.4,1.4,0,0,1,.54-0.74,1.52,1.52,0,0,1,.89-0.28,1.12,1.12,0,0,1,.67.2,1.08,1.08,0,0,1,.4.55,6,6,0,0,1,.12,1.55v3.77h2V45.28A6.14,6.14,0,0,0,99.22,44,2.17,2.17,0,0,0,98.84,43.15Z"/><path class="cls-2" d="M106.63,47.45l0-2.28a4.06,4.06,0,0,0-.26-1.75,1.94,1.94,0,0,0-.9-0.79,4.65,4.65,0,0,0-1.94-.31,3.75,3.75,0,0,0-2.16.51,2.75,2.75,0,0,0-1,1.58l1.74,0.33a1.42,1.42,0,0,1,.47-0.72,1.39,1.39,0,0,1,.81-0.21,1.65,1.65,0,0,1,1,.24,1,1,0,0,1,.28.81v0.2a10.32,10.32,0,0,1-1.88.48,6.5,6.5,0,0,0-1.54.46,2,2,0,0,0-.83.75,2.13,2.13,0,0,0-.3,1.12,2.09,2.09,0,0,0,.65,1.57,2.46,2.46,0,0,0,1.77.62,3,3,0,0,0,1.2-.24,3.46,3.46,0,0,0,1.05-.73l0.07,0.22c0.07,0.25.13,0.43,0.18,0.56h2a4.31,4.31,0,0,1-.34-1A8.17,8.17,0,0,1,106.63,47.45Zm-1.9-.71a4,4,0,0,1-.07,1,1.25,1.25,0,0,1-.46.66,1.63,1.63,0,0,1-1,.35,1,1,0,0,1-.76-0.3,1,1,0,0,1-.3-0.72,0.83,0.83,0,0,1,.37-0.7,3.45,3.45,0,0,1,1-.34,11.5,11.5,0,0,0,1.16-.3v0.39Z"/><rect class="cls-2" x="107.93" y="39.71" width="1.96" height="10.17"/><polygon class="cls-2" points="116.67 39.79 114.63 39.79 114.63 49.88 121.78 49.88 121.78 48.16 116.67 48.16 116.67 39.79"/><path class="cls-2" d="M128.54,47.45l0-2.28a4.07,4.07,0,0,0-.26-1.75,2,2,0,0,0-.9-0.79,4.65,4.65,0,0,0-1.94-.31,3.75,3.75,0,0,0-2.16.51,2.76,2.76,0,0,0-1,1.58L124,44.74A1.42,1.42,0,0,1,124.5,44a1.39,1.39,0,0,1,.81-0.21,1.65,1.65,0,0,1,1,.24,1,1,0,0,1,.28.81v0.2a10.32,10.32,0,0,1-1.88.48,6.5,6.5,0,0,0-1.54.46,2,2,0,0,0-.83.75,2.13,2.13,0,0,0-.3,1.12,2.09,2.09,0,0,0,.65,1.57,2.45,2.45,0,0,0,1.77.62,3,3,0,0,0,1.2-.24,3.47,3.47,0,0,0,1.05-.73l0.07,0.22c0.07,0.25.13,0.43,0.18,0.56h2a4.25,4.25,0,0,1-.34-1A8.1,8.1,0,0,1,128.54,47.45Zm-1.9-.71a4,4,0,0,1-.08,1,1.24,1.24,0,0,1-.46.66,1.63,1.63,0,0,1-1,.35,1,1,0,0,1-.76-0.3,1,1,0,0,1-.3-0.72,0.83,0.83,0,0,1,.37-0.7,3.45,3.45,0,0,1,1-.34,11.51,11.51,0,0,0,1.17-.3v0.39Z"/><path class="cls-2" d="M133.88,42.32a2.78,2.78,0,0,0-2.15,1V39.71h-2V49.88h1.82V48.8a3.11,3.11,0,0,0,1.06.94,2.65,2.65,0,0,0,1.25.33,2.81,2.81,0,0,0,2.19-1,4.28,4.28,0,0,0,.9-2.93,4.07,4.07,0,0,0-.89-2.82A2.89,2.89,0,0,0,133.88,42.32ZM134.55,48a1.41,1.41,0,0,1-1.12.56,1.57,1.57,0,0,1-1.37-.78,3.12,3.12,0,0,1-.37-1.7,2.5,2.5,0,0,1,.47-1.67,1.5,1.5,0,0,1,1.19-.55,1.48,1.48,0,0,1,1.19.56,2.88,2.88,0,0,1,.47,1.84A2.71,2.71,0,0,1,134.55,48Z"/><path class="cls-2" d="M141.23,42.32a4,4,0,0,0-2,.48,3.3,3.3,0,0,0-1.36,1.4,4,4,0,0,0-.48,1.89,4.52,4.52,0,0,0,.48,2.17,3.16,3.16,0,0,0,1.4,1.35,4.27,4.27,0,0,0,1.94.46A3.64,3.64,0,0,0,144,49,3.83,3.83,0,0,0,145,46.17,3.79,3.79,0,0,0,144,43.41,3.68,3.68,0,0,0,141.23,42.32Zm1.28,5.58a1.7,1.7,0,0,1-2.57,0,3,3,0,0,1,0-3.41,1.7,1.7,0,0,1,2.57,0,2.49,2.49,0,0,1,.52,1.69A2.54,2.54,0,0,1,142.51,47.9Z"/><path class="cls-2" d="M149.35,42.32a1.49,1.49,0,0,0-.84.25,3.32,3.32,0,0,0-.84,1v-1h-1.82v7.37h2V47.59a11.72,11.72,0,0,1,.16-2.48,1.55,1.55,0,0,1,.45-0.82,1.07,1.07,0,0,1,.69-0.23,1.71,1.71,0,0,1,.91.32l0.61-1.69A2.49,2.49,0,0,0,149.35,42.32Z"/><path class="cls-2" d="M156.77,47.45l0-2.28a4.07,4.07,0,0,0-.26-1.75,2,2,0,0,0-.9-0.79,4.65,4.65,0,0,0-1.94-.31,3.75,3.75,0,0,0-2.16.51,2.75,2.75,0,0,0-1,1.58l1.74,0.33a1.41,1.41,0,0,1,.47-0.72,1.38,1.38,0,0,1,.81-0.21,1.65,1.65,0,0,1,1,.24,1,1,0,0,1,.28.81v0.2a10.31,10.31,0,0,1-1.88.48,6.48,6.48,0,0,0-1.54.46,2,2,0,0,0-.83.75,2.13,2.13,0,0,0-.3,1.12,2.09,2.09,0,0,0,.65,1.57,2.45,2.45,0,0,0,1.77.62,3,3,0,0,0,1.2-.24A3.47,3.47,0,0,0,155,49.1l0.07,0.22c0.07,0.25.13,0.43,0.18,0.56h2a4.28,4.28,0,0,1-.34-1A8.1,8.1,0,0,1,156.77,47.45Zm-1.9-.71a4,4,0,0,1-.07,1,1.25,1.25,0,0,1-.46.66,1.63,1.63,0,0,1-1,.35,1,1,0,0,1-.76-0.3,1,1,0,0,1-.3-0.72,0.83,0.83,0,0,1,.37-0.7,3.44,3.44,0,0,1,1-.34,11.49,11.49,0,0,0,1.16-.3v0.39Z"/><path class="cls-2" d="M160.71,48.46a0.53,0.53,0,0,1-.33-0.1,0.43,0.43,0,0,1-.17-0.25,7.54,7.54,0,0,1,0-1.06v-3h1.33V42.51h-1.33V39.9l-2,1.14v1.47h-0.9v1.55h0.9v3.23a9.54,9.54,0,0,0,.06,1.38,1.83,1.83,0,0,0,.27.76,1.38,1.38,0,0,0,.62.46,2.42,2.42,0,0,0,.94.18,3.88,3.88,0,0,0,1.53-.29l-0.15-1.5A2.52,2.52,0,0,1,160.71,48.46Z"/><path class="cls-2" d="M165.51,42.32a4,4,0,0,0-2,.48,3.3,3.3,0,0,0-1.36,1.4,4,4,0,0,0-.48,1.89,4.52,4.52,0,0,0,.48,2.17,3.16,3.16,0,0,0,1.4,1.35,4.27,4.27,0,0,0,1.93.46A3.64,3.64,0,0,0,168.24,49a3.83,3.83,0,0,0,1.08-2.79,3.79,3.79,0,0,0-1.07-2.76A3.68,3.68,0,0,0,165.51,42.32Zm1.28,5.58a1.7,1.7,0,0,1-2.57,0,3,3,0,0,1,0-3.41,1.7,1.7,0,0,1,2.57,0,2.49,2.49,0,0,1,.52,1.69A2.54,2.54,0,0,1,166.79,47.9Z"/><path class="cls-2" d="M178,47.75l-1.75-5.24h-1.66a2.4,2.4,0,0,0-.93-0.19,1.49,1.49,0,0,0-.84.25,3.33,3.33,0,0,0-.84,1v-1h-1.82v7.37h2V47.59a11.71,11.71,0,0,1,.16-2.48,1.55,1.55,0,0,1,.45-0.82,1.08,1.08,0,0,1,.69-0.23,1.71,1.71,0,0,1,.91.32l0.28-.78,2.36,6.31a2.9,2.9,0,0,1-.48,1,1.16,1.16,0,0,1-1,.41,4,4,0,0,1-.8-0.09l0.14,1.52a5.05,5.05,0,0,0,1.09.12,3.72,3.72,0,0,0,1-.12,2.29,2.29,0,0,0,.73-0.33,2.13,2.13,0,0,0,.53-0.55,5.32,5.32,0,0,0,.48-1l0.48-1.32,2.56-7.08h-2Z"/><path class="cls-2" d="M42.39,40.38a1.12,1.12,0,0,1-1.13-1.07V26.93H40.85v12.4a1.53,1.53,0,0,0,1.53,1.46h9.37l-3,3.14H41.55a4.28,4.28,0,0,1-3.81-4.32V26.93H37.33V39.6a4.7,4.7,0,0,0,4.2,4.74h6.79l-2.85,3H41.35a7.26,7.26,0,0,1-7-7.37v-13H32.59v23H54.66V37.77l-2.52,2.61H42.39Z"/></svg>