<svg id="Layer_1" data-name="Layer 1" xmlns="http://www.w3.org/2000/svg" viewBox="0 0 217.3 123.12"><defs><style>.cls-1{fill:#f2fafe;}.cls-2{fill:#fff;}.cls-3{fill:#48b2e8;}.cls-4{fill:#019cdb;}.cls-5{fill:#288dc1;}.cls-6{fill:#228cc4;}.cls-7{fill:#47afe3;}</style></defs><title>makeschool</title><polygon class="cls-1" points="0 77.41 45.61 21.95 121.19 0 202.55 48.23 217.3 77.41 147.53 123.12 67 110.59 0 77.41"/><path class="cls-2" d="M75.68,46.6A2.15,2.15,0,0,0,74.15,46h-25a2.15,2.15,0,0,0-1.53.63L36.1,58.12a2.17,2.17,0,0,0,0,3.06l24,24a2.16,2.16,0,0,0,3.06,0l24-24a2.16,2.16,0,0,0,0-3.06Z"/><path class="cls-3" d="M61.65,64.63V82.38a0.58,0.58,0,0,1-.41-0.17l-8.49-8.49a0.34,0.34,0,0,1-.06-0.09v0Z"/><path class="cls-4" d="M61.66,64.63l-9,9a0.35,0.35,0,0,1,0-.11V56.41a0.32,0.32,0,0,1,.55-0.23Z"/><path class="cls-5" d="M70.63,73.6v0a0.34,0.34,0,0,1-.07.09l-8.47,8.47,0,0a0.58,0.58,0,0,1-.39.15V64.63Z"/><path class="cls-4" d="M70.1,49.47l-8.22,8.22a0.32,0.32,0,0,1-.23.09V48.92h8.22A0.32,0.32,0,0,1,70.1,49.47Z"/><path class="cls-3" d="M61.65,48.92v8.86h0a0.32,0.32,0,0,1-.23-0.09L53.2,49.46a0.32,0.32,0,0,1,.24-0.54h8.22Z"/><path class="cls-3" d="M47.89,51.34V68a0.33,0.33,0,0,1-.56.23l-8.12-8.12,0,0A0.57,0.57,0,0,1,39,59.65a0.59,0.59,0,0,1,.13-0.37l0.08-.08,8.09-8.1A0.33,0.33,0,0,1,47.89,51.34Z"/><path class="cls-5" d="M75.47,51.34V68a0.33,0.33,0,0,0,.56.23l8.12-8.12,0,0a0.57,0.57,0,0,0,.15-0.39,0.59,0.59,0,0,0-.13-0.37l-0.08-.08L76,51.11A0.33,0.33,0,0,0,75.47,51.34Z"/><path class="cls-3" d="M70.65,56.41V73.49a0.31,0.31,0,0,1,0,.11l-9-9,8.45-8.45A0.32,0.32,0,0,1,70.65,56.41Z"/><path class="cls-6" d="M108.75,63.62l-4.9-6.83V66a1,1,0,0,1-1,1.12h-1.48a1,1,0,0,1-1-1.12V51.28a1,1,0,0,1,1-1.12h1.2a1.48,1.48,0,0,1,1.39.8l5.94,8.23,6-8.23a1.48,1.48,0,0,1,1.39-.8h1.21a1,1,0,0,1,1,1.12V66a1,1,0,0,1-1,1.12H117A1,1,0,0,1,116,66V56.78l-4.9,6.83a1.35,1.35,0,0,1-1.14.66A1.38,1.38,0,0,1,108.75,63.62Z"/><path class="cls-6" d="M132.85,50.16a1.14,1.14,0,0,1,1.14.69l6.9,14.74a1.32,1.32,0,0,1,.15.59,0.88,0.88,0,0,1-.94.94h-1.64a1.14,1.14,0,0,1-1.14-.69l-1.16-2.63h-8.52l-1.16,2.63a1.14,1.14,0,0,1-1.14.69h-1.64a0.88,0.88,0,0,1-.93-0.94,1.32,1.32,0,0,1,.15-0.59l6.9-14.74a1.14,1.14,0,0,1,1.14-.69h1.91Zm-3.7,10.22h5.46l-2.72-6.15Z"/><path class="cls-6" d="M151,59.12l-3.2,2.61V66a1,1,0,0,1-1,1.12h-1.48a1,1,0,0,1-1-1.12V51.28a1,1,0,0,1,1-1.12h1.48a1,1,0,0,1,1,1.12v6.15l8.12-6.74a1.72,1.72,0,0,1,1.21-.55h2.83a0.66,0.66,0,0,1,.75.64,0.83,0.83,0,0,1-.33.69L153.71,57l7,8.82a1,1,0,0,1,.29.69,0.66,0.66,0,0,1-.75.64h-2.45a1.4,1.4,0,0,1-1.21-.55Z"/><path class="cls-6" d="M164.64,66V51.28a1,1,0,0,1,1-1.12h13.46a1,1,0,0,1,1,1.12v1.19a1,1,0,0,1-1,1.12h-11v3.25h7.79A1,1,0,0,1,177,58v1.19a1,1,0,0,1-1,1.12h-7.79v3.43h11a1,1,0,0,1,1,1.12V66a1,1,0,0,1-1,1.12H165.65A1,1,0,0,1,164.64,66Z"/><path class="cls-7" d="M104.27,80.07c1,0,2-.31,2-1s-0.65-.76-2.1-0.87c-2.31-.17-3.6-0.74-3.6-2.21s1.38-2.57,3.54-2.57a5.12,5.12,0,0,1,3.16,1,0.71,0.71,0,0,1,.3.58,0.79,0.79,0,0,1-.17.47l-0.25.32a0.41,0.41,0,0,1-.34.18,0.64,0.64,0,0,1-.35-0.13,4.11,4.11,0,0,0-2.36-.78c-0.92,0-1.87.33-1.87,0.88s0.85,0.64,1.95.73c2.25,0.17,3.76.61,3.76,2.33s-1.5,2.71-3.7,2.71a5.52,5.52,0,0,1-3.63-1.19,0.68,0.68,0,0,1-.27-0.52,0.77,0.77,0,0,1,.18-0.5l0.25-.32a0.41,0.41,0,0,1,.33-0.18,0.65,0.65,0,0,1,.36.13A4.49,4.49,0,0,0,104.27,80.07Z"/><path class="cls-7" d="M117.78,80a3.55,3.55,0,0,0,2.66-1.4,0.46,0.46,0,0,1,.36-0.18,0.38,0.38,0,0,1,.28.13l0.26,0.28a0.94,0.94,0,0,1,.3.64,0.83,0.83,0,0,1-.2.5,4.85,4.85,0,0,1-3.69,1.69,4.12,4.12,0,1,1,0-8.25,4.82,4.82,0,0,1,3.67,1.68,0.79,0.79,0,0,1,.2.5,1,1,0,0,1-.29.65l-0.26.28a0.38,0.38,0,0,1-.28.13,0.46,0.46,0,0,1-.36-0.18,3.55,3.55,0,0,0-2.66-1.4A2.46,2.46,0,1,0,117.78,80Z"/><path class="cls-7" d="M134.42,81V78.3h-4.17V81a0.47,0.47,0,0,1-.48.52h-0.69a0.47,0.47,0,0,1-.48-0.52V74.1a0.48,0.48,0,0,1,.48-0.52h0.69a0.47,0.47,0,0,1,.48.52v2.6h4.17V74.1a0.48,0.48,0,0,1,.48-0.52h0.69a0.47,0.47,0,0,1,.48.52V81a0.47,0.47,0,0,1-.48.52h-0.69A0.47,0.47,0,0,1,134.42,81Z"/><path class="cls-7" d="M151.4,77.54a4.27,4.27,0,1,1-4.26-4.12A4.1,4.1,0,0,1,151.4,77.54Zm-6.81,0a2.55,2.55,0,1,0,2.55-2.46A2.46,2.46,0,0,0,144.59,77.54Z"/><path class="cls-7" d="M166.16,77.54a4.27,4.27,0,1,1-4.26-4.12A4.1,4.1,0,0,1,166.16,77.54Zm-6.81,0a2.55,2.55,0,1,0,2.55-2.46A2.46,2.46,0,0,0,159.34,77.54Z"/><path class="cls-7" d="M173,81V74.1a0.48,0.48,0,0,1,.48-0.52h0.69a0.47,0.47,0,0,1,.48.52v5.81h5a0.47,0.47,0,0,1,.48.52V81a0.47,0.47,0,0,1-.48.52h-6.21A0.47,0.47,0,0,1,173,81Z"/></svg>