<svg id="Layer_1" data-name="Layer 1" xmlns="http://www.w3.org/2000/svg" viewBox="0 0 200.82 109.99"><defs><style>.cls-1{fill:#f2fafe;}.cls-2{fill:#3b3b3c;}.cls-3{fill:#d14f53;}</style></defs><title>onenorth</title><polygon class="cls-1" points="200.81 27.86 167.96 23.4 141.51 0 74.29 3.29 15.47 22.99 0 57.82 57.71 102.39 127.4 109.99 177.22 80.35 200.81 27.86"/><rect class="cls-2" x="41.05" y="47.67" width="127.55" height="0.6"/><path class="cls-3" d="M43.5,40.36a12.42,12.42,0,0,1-3.67-9.13A12.55,12.55,0,0,1,52.64,18.42,12.55,12.55,0,0,1,65.45,31.23,12.55,12.55,0,0,1,52.64,44,12.39,12.39,0,0,1,43.5,40.36Zm9.16-1.1A7.2,7.2,0,0,0,58.19,37a8.11,8.11,0,0,0,2.14-5.72,8.11,8.11,0,0,0-2.14-5.72,7.84,7.84,0,0,0-11.11,0,8.1,8.1,0,0,0-2.14,5.72A8.1,8.1,0,0,0,47.08,37,7.24,7.24,0,0,0,52.66,39.26Z"/><path class="cls-3" d="M69.26,44V18.42H71L87,34.48V18.42h5.13V44H90.28L74.39,28.16V44H69.26Z"/><path class="cls-3" d="M97.41,44V18.43l18.83,0V23.2h-13.7v5.47H112.8v4.77H102.53v5.83H116.2V44H97.41Z"/><path class="cls-3" d="M41.12,77.44V51.81h1.71L58.89,67.87V51.81H64V77.44H62.14L46.25,61.55V77.44H41.12Z"/><path class="cls-3" d="M71.5,73.76a13.2,13.2,0,0,1,0-18.27,12.82,12.82,0,0,1,22,9.14A12.92,12.92,0,0,1,71.5,73.76Zm9.16-1.1a7.2,7.2,0,0,0,5.54-2.31,8.74,8.74,0,0,0,0-11.45,7.84,7.84,0,0,0-11.11,0,8.74,8.74,0,0,0,0,11.45A7.24,7.24,0,0,0,80.66,72.66Z"/><path class="cls-3" d="M112.7,66.27l6.39,11.17h-5.88l-6.13-10.59h-4.68V77.44H97.27V51.81h11.17q9,0,9,7.38Q117.41,64.75,112.7,66.27Zm-10.3-4.2h7.18q3.09-.05,3.18-2.82-0.09-2.53-3.13-2.63h-7.23v5.45Z"/><path class="cls-3" d="M142.67,51.81V56.6h-8.54V77.44H129V56.6h-8.54V51.81h22.21Z"/><path class="cls-3" d="M146.48,77.44V51.81h5.13V62.06h11.94V51.79h5.13V77.42l-5.13,0V66.85H151.6V77.44h-5.13Z"/></svg>