<svg id="Layer_1" data-name="Layer 1" xmlns="http://www.w3.org/2000/svg" viewBox="0 0 211.21 80.56"><defs><style>.cls-1{fill:#f2fafe;}.cls-2{fill:#ed1c24;}</style></defs><title>qualtrics</title><polygon class="cls-1" points="0 15.8 46.46 0 128.73 2.69 186.91 16.43 211.22 39.42 150.51 74.57 77.22 80.56 9.81 59.67 0 15.8"/><path class="cls-2" d="M105.59,15.61h-3.07l-0.24,7.06H98.6V25.4h3.68V41.5c0,3.79,1.91,5.32,4.5,5.32a7.12,7.12,0,0,0,3.48-1V43a4.2,4.2,0,0,1-2.59,1c-1.47,0-2.08-1.06-2.08-2.59v-16h4.91V22.67h-4.91V15.61Z"/><rect class="cls-2" x="91.02" y="11.45" width="3.27" height="34.93"/><path class="cls-2" d="M117.9,25.84h-0.07l-0.2-3.17h-3.1V46.41h3.27V29.22c1.54-3.14,3.51-3.92,5.9-3.92h0.68V22.23h-0.82C121,22.23,119.64,23.18,117.9,25.84Z"/><path class="cls-2" d="M85.05,41.81V29c0-4.2-2.35-6.82-6.45-6.82-4.84,0-7,3.65-7.06,7.4h3c0-2.46,1.5-4.67,3.92-4.67,2.15,0,3.31,1.74,3.31,4.33v1.3l-4,1.91c-4.23,2-7.3,3.62-7.3,8.05,0,4,2.49,6.31,5.9,6.31a7.2,7.2,0,0,0,5.61-3,3.59,3.59,0,0,0,3.7,3,5.25,5.25,0,0,0,2-.41V43.65a2.23,2.23,0,0,1-1.23.34C85.19,44,85.05,43,85.05,41.81Zm-3.27-.48c-1.09,1.43-2.56,2.8-4.64,2.8a3.27,3.27,0,0,1-3.41-3.58c0-2.8,2.18-4.43,4.91-5.7l3.14-1.47h0v7.95Z"/><path class="cls-2" d="M43.69,25.58a5.07,5.07,0,0,0-4.79-3.35c-3.51,0-7.37,3.21-7.37,12.31S35,46.86,38.39,46.86a5.87,5.87,0,0,0,4.91-2.93V58h3.24V22.67H43.81ZM43.3,41.19c-0.78,1.43-1.94,2.87-4,2.87-2.59,0-4.5-2.39-4.5-9.55s2.25-9.59,4.67-9.59A4.16,4.16,0,0,1,43.3,28v13.2Z"/><path class="cls-2" d="M62.95,40.92c-1.33,1.94-2.93,3.17-4.57,3.17-1.88,0-2.8-1.71-2.8-3.85V22.67H52.31V40.41c0,4.37,2,6.41,5,6.41a7.13,7.13,0,0,0,5.8-3.31l0.07,2.87h3V22.67H62.95V40.92Z"/><rect class="cls-2" x="128.31" y="12.98" width="3.24" height="4.13"/><path class="cls-2" d="M161.26,32.39c-2.12-1.09-3.92-2.11-3.92-4.3A3,3,0,0,1,160.58,25c2.56,0,3.72,2.22,3.48,4.61h3c0.2-4.26-2.32-7.33-6.45-7.33-3.79,0-6.41,2.49-6.41,6.07,0,3.85,3,5.53,5.46,6.82s4.61,2.52,4.61,5.08a3.76,3.76,0,0,1-3.79,3.89c-2.42,0-4.09-2.15-4.16-4.95h-3c0.1,4.61,2.76,7.71,7.2,7.71A6.51,6.51,0,0,0,167.4,40C167.4,35.63,164.16,33.93,161.26,32.39Z"/><polygon class="cls-2" points="164.06 29.56 164.06 29.56 164.06 29.56 164.06 29.56"/><path class="cls-2" d="M147.11,30.55s0,0,0,0h0v0Z"/><rect class="cls-2" x="128.27" y="22.67" width="3.27" height="23.71"/><path class="cls-2" d="M143.66,44.09c-2.29,0-4.37-2.18-4.37-9.55s2.15-9.59,4.4-9.59c2.41,0,3.5,2.54,3.41,5.56h3.07c0.2-5-2-8.32-6.34-8.32-4.84,0-7.81,4-7.81,12.31s2.9,12.31,7.57,12.31,6.69-4,6.72-8.8h-3C147.41,41.29,146.25,44.09,143.66,44.09Z"/><path class="cls-2" d="M170,45.48a0.92,0.92,0,0,0-.21-0.31,0.94,0.94,0,0,0-.31-0.2,1.08,1.08,0,0,0-.77,0,1,1,0,0,0-.31.2,0.92,0.92,0,0,0-.21.31,1,1,0,0,0-.08.4,1,1,0,0,0,.08.4,0.92,0.92,0,0,0,.52.51,1.08,1.08,0,0,0,.77,0,0.93,0.93,0,0,0,.31-0.2,0.94,0.94,0,0,0,.21-0.31,1,1,0,0,0,.08-0.4A1,1,0,0,0,170,45.48Zm-0.19.72a0.78,0.78,0,0,1-.16.25,0.71,0.71,0,0,1-.25.16,0.8,0.8,0,0,1-.3.06,0.81,0.81,0,0,1-.3-0.06,0.71,0.71,0,0,1-.25-0.16,0.78,0.78,0,0,1-.16-0.25,0.83,0.83,0,0,1-.06-0.32,0.83,0.83,0,0,1,.06-0.32,0.78,0.78,0,0,1,.16-0.25,0.7,0.7,0,0,1,.25-0.16,0.81,0.81,0,0,1,.3-0.06,0.8,0.8,0,0,1,.3.06,0.7,0.7,0,0,1,.25.16,0.78,0.78,0,0,1,.16.25,0.82,0.82,0,0,1,.06.32A0.83,0.83,0,0,1,169.84,46.2Z"/><path class="cls-2" d="M169.57,45.87a0.4,0.4,0,0,0,0-.2,0.33,0.33,0,0,0-.1-0.25,0.4,0.4,0,0,0-.29-0.09h-0.55v1.1H169V46h0.21l0.18,0.39h0.31L169.42,46A0.29,0.29,0,0,0,169.57,45.87Zm-0.27-.09a0.31,0.31,0,0,1-.15,0H169V45.53h0.19a0.27,0.27,0,0,1,.15,0,0.13,0.13,0,0,1,.05.11A0.11,0.11,0,0,1,169.29,45.79Z"/></svg>