<svg id="Layer_1" data-name="Layer 1" xmlns="http://www.w3.org/2000/svg" viewBox="0 0 180.08 102.75"><defs><style>.cls-1{fill:#f2fafe;}.cls-2{fill:#cb2026;}.cls-3{fill:#010101;}</style></defs><title>quikorder</title><polygon class="cls-1" points="0 23.73 55.77 0 109.52 3.08 159.36 24.4 180.08 48.92 128.92 99.27 65.83 102.75 9.88 78.95 0 23.73"/><g id="Layer_2" data-name="Layer 2"><g id="Layer_1-2" data-name="Layer 1-2"><path class="cls-2" d="M87.83,55.41A24,24,0,0,1,84,42.24V42h9.28v0.22a14.51,14.51,0,0,0,1.77,7A14.59,14.59,0,1,0,87.83,55.41Zm19.85-37.67A23.88,23.88,0,1,1,95.26,62a24.09,24.09,0,0,0,7-6.82,14.6,14.6,0,1,0-.12-27,24.12,24.12,0,0,0-7.07-6.76A23.71,23.71,0,0,1,107.68,17.74Zm-62.82,0H83.15V18H82.49A23.92,23.92,0,0,0,58.61,41.84v2.9a1.07,1.07,0,0,0,0,.29l0,0.28,0,0.29,0,0.28a0.57,0.57,0,0,0,.05.29l0.05,0.28a0.45,0.45,0,0,0,.06.27L59,47,59,47.26l0.07,0.29,0.07,0.26,0.07,0.28c0,0.17.1,0.34,0.14,0.5l0.08,0.28,0.09,0.27,0.09,0.26,0.1,0.27,0.09,0.26,0.1,0.26L60,50.45l0.1,0.26L60.24,51l0.11,0.26,0.11,0.24,0.12,0.26L60.69,52,61,52.29l0.11,0.23,0.13,0.26L61.4,53l0.15,0.27,0.11,0.2,0.12,0.29,0.06,0.1q0.21,0.35.43,0.69l0.07,0.11L62.52,55l0.12,0.18,0.19,0.27L63,55.58l0.2,0.27L63.27,56l0.2,0.26,0.13,0.17,0.21,0.26,0.13,0.16,0.21,0.26,0.13,0.15,0.23,0.26,0.12,0.14L64.89,58,65,58.09l0.27,0.29,0.06,0.06c0.46,0.48.95,0.94,1.47,1.38l0.35,0.29,0.07,0.06,0.33,0.26,0.1,0.07L68,60.77l0.1,0.07,0.33,0.27,0.1,0.07,0.35,0.25,0.08,0.06,0.37,0.25,0.07,0L69.74,62A23.91,23.91,0,0,0,73,63.77L73.46,64l0.46,0.18,0.47,0.18,0.49,0.17a23.71,23.71,0,0,0,4.37,1H44.87V17.74Z"/><path class="cls-3" d="M45.33,77.5c0-3.89,2.18-6.09,6.06-6.09s6.06,2.21,6.06,6.09-2.21,6.09-6.06,6.09S45.33,81.36,45.33,77.5Zm6.06-3.82c-2.21,0-2.66,2-2.66,3.87s0.46,3.78,2.66,3.78,2.66-2,2.66-3.78S53.59,73.68,51.39,73.68Zm13.16,8.76A3.11,3.11,0,0,1,62,83.57a2.85,2.85,0,0,1-3-2.94V75.22H62V80c0,0.79.23,1.65,1.18,1.65,1.52,0,1.33-1.67,1.33-1.76V75.22h3.1v6a19.65,19.65,0,0,0,.1,2.09H64.6Zm5.32-8.61V71.62H73v2.21H69.86Zm0,9.56V75.22h3.08v8.14ZM75.08,71.2H78v7.26l2.43-3.55h3.19l-2.94,3.87,3.18,4.57H80.36L78,79.18v4.18H75.09V71.2Zm9.69,6.3c0-3.86,2.21-6.09,6.06-6.09s6.06,2.21,6.06,6.09-2.21,6.09-6.06,6.09S84.77,81.36,84.77,77.5Zm6.06-3.82c-2.21,0-2.66,2-2.66,3.87s0.46,3.78,2.66,3.78,2.66-2,2.66-3.78S93,73.68,90.83,73.68Zm10.57,3.07A2.38,2.38,0,0,1,104.12,75v2.6h-0.65c-1.6,0-2.15,1-2.11,2.53v3.26h-3V77.29a19.65,19.65,0,0,0-.1-2.09h3.12Zm9.93,5.41h-0.07a2.8,2.8,0,0,1-2.71,1.47c-2.32,0-3.4-2.25-3.4-4.28s1.09-4.35,3.5-4.35a3.15,3.15,0,0,1,2.64,1.2V71.66h3.08v11.7h-3Zm-3-2.87c0,1.07.24,2.53,1.51,2.53s1.47-1.47,1.47-2.53-0.16-2.53-1.47-2.53S108.31,78.2,108.31,79.29Zm10.48,0.62c0,1.05.26,2,1.41,2a1.34,1.34,0,0,0,1.5-1.15v0h2.85A2.94,2.94,0,0,1,123,83a4.79,4.79,0,0,1-2.57.63c-3.26,0-4.55-1.4-4.55-4.59,0-2.57,1.93-4,4.41-4,3.31,0,4.36,1.9,4.36,4.93h-5.88Zm2.94-1.65a2.11,2.11,0,0,0-.37-1.21,1.16,1.16,0,0,0-1.07-.52c-1.07.05-1.33,0.81-1.41,1.74h2.85Zm7.37-1.51c0.35-1.35,1.36-1.8,2.72-1.76v2.6h-0.65c-1.6,0-2.15,1-2.11,2.53v3.26H126V77.29a19.65,19.65,0,0,0-.1-2.09H129Z"/><path class="cls-3" d="M50.91,79.94l1.79-1.79,5.07,5.07L56,85ZM133,72.63a1.1,1.1,0,1,1,1.1,1.1h0A1.1,1.1,0,0,1,133,72.63Zm1.9,0a0.8,0.8,0,1,0-.8.8h0A0.74,0.74,0,0,0,134.92,72.63Zm-0.26.6h-0.3l-0.26-.5h-0.17v0.5h-0.26V72h0.57c0.31,0,.46.08,0.46,0.36s-0.11.31-.32,0.32Zm-0.42-.74c0.1,0,.18,0,0.18-0.15s-0.15-.12-0.24-0.12h-0.26v0.27h0.32Z"/></g></g></svg>