<svg id="Layer_1" data-name="Layer 1" xmlns="http://www.w3.org/2000/svg" viewBox="0 0 239.34 77.86"><defs><style>.cls-1{fill:#f2fafe;}</style></defs><title>technpoint</title><polygon class="cls-1" points="0 13.11 145.87 0 239.34 36.73 170.56 71.88 87.5 77.86 27.6 71.88 0 13.11"/><g id="pLRhBD.tif"><path d="M41.43,20.91a18,18,0,1,1-17.94,18A18.21,18.21,0,0,1,41.43,20.91ZM41.36,54.26A15.11,15.11,0,0,0,56.83,39.09a15.32,15.32,0,1,0-30.64-.31A15.14,15.14,0,0,0,41.36,54.26Z"/><path d="M156.1,33.39h3.3a2.07,2.07,0,0,1,2.33,2.2c0.06,1.76.06,3.52,0,5.27a2.17,2.17,0,0,1-2.43,2.3q-3.3,0-6.59,0a2.12,2.12,0,0,1-2.37-2.33c0-1.76,0-3.52,0-5.27a1.94,1.94,0,0,1,2.14-2.16C153.68,33.38,154.89,33.39,156.1,33.39Zm-0.16,8.23c3.85,0,3.63.29,3.61-3.65,0-.6,0-1.2,0-1.8a1.15,1.15,0,0,0-1.25-1.22q-2.37,0-4.75,0a1.21,1.21,0,0,0-1.32,1.33c0,0.55,0,1.09,0,1.64C152.17,41.91,152,41.63,155.93,41.62Z"/><path d="M87.49,33.39c1,0,2,0,3,0,0.56,0,1.36-.15,1.31.79s-0.84.7-1.39,0.72c-1.43,0-2.85,0-4.28,0-1,0-1.79.17-1.79,1.39,0,1.38,1.06,1,1.8,1,1.2,0.05,2.41,0,3.62,0,0.49,0,1,0,1.05.73s-0.51.76-1,.77c-1.32,0-2.63,0-4,0-0.81,0-1.57,0-1.53,1.15a1.39,1.39,0,0,0,1.49,1.57c1.54,0,3.07,0,4.61,0,0.55,0,1.35-.18,1.37.74s-0.77.77-1.33,0.78c-1.92,0-3.84,0-5.76,0A2,2,0,0,1,82.43,41c0-1.81,0-3.62,0-5.43a1.86,1.86,0,0,1,2.11-2.13h3Z"/><path d="M132.85,38.29c0-4.91,0-4.91,4.88-4.91h3.62a1.51,1.51,0,0,1,1.56.72,7.23,7.23,0,0,1,0,5.12c-0.49,1.39-1.85,1.33-3.08,1.31s-2.63,0-3.95,0c-1,0-1.62.15-1.55,1.33,0,0.51.1,1.21-.72,1.22s-0.77-.76-0.79-1.32C132.83,40.59,132.85,39.44,132.85,38.29Zm5.09-3.36a16.72,16.72,0,0,1-2,0c-1.4-.17-1.65.58-1.61,1.76s-0.12,2.13,1.53,2a36.78,36.78,0,0,1,3.76,0c1.3,0,2.05-.4,2.1-1.86s-0.72-1.91-2-1.87C139.14,34.94,138.54,34.93,137.94,34.93Z"/><path d="M182.39,33.39c1.21,0,2.41,0,3.62,0a1.6,1.6,0,0,1,1.75,1.75c0,2.3,0,4.61,0,6.91a0.87,0.87,0,0,1-.94,1.06,0.88,0.88,0,0,1-.9-1.1c0-1.76,0-3.51,0-5.27,0-1.28-.47-1.84-1.86-1.86-4.84,0-4.84-.08-4.84,4.79q0,1.23,0,2.47a0.82,0.82,0,0,1-.87,1,0.8,0.8,0,0,1-.95-0.87q0-4,0-7.9c0-.83.57-1,1.23-1h3.79Z"/><path d="M103.81,43.15c-1,0-2.09.06-3.13,0a2.39,2.39,0,0,1-2.42-2.57c0-1.53,0-3.07,0-4.61s0.73-2.47,2.37-2.54c2.08-.08,4.17,0,6.25,0,0.49,0,1,0,1,.74s-0.52.76-1,.77c-1.59,0-3.18,0-4.77,0-0.71,0-1.42.13-1.55,0.91a13.84,13.84,0,0,0,0,4.74,1.39,1.39,0,0,0,1.64,1c1.43,0,2.85,0,4.28,0,0.55,0,1.34-.19,1.39.72s-0.75.77-1.31,0.79c-0.93,0-1.87,0-2.8,0v0Z"/><path d="M125.82,38.29c0,1.21,0,2.42,0,3.62,0,0.65-.09,1.23-1,1.2S124,42.6,124,42c-0.33-3.13-.34-3.13-3.53-3.13H120.1c-3.16,0-3.16,0-3.52,3.14-0.06.49,0,1-.75,1s-0.76-.52-0.76-1q0-3.79,0-7.58c0-.52.09-1,0.8-1s0.66,0.59.71,1.08c0.29,2.78.29,2.78,3.06,2.78h1.48c2.63,0,2.63,0,2.83-2.67,0-.63.06-1.24,0.93-1.24s0.92,0.61.93,1.24C125.82,35.87,125.82,37.08,125.82,38.29Z"/><path d="M198.87,33.4c1.32,0,2.63,0,3.95,0,0.5,0,1,.05,1,0.76s-0.55.71-1,.74a8.54,8.54,0,0,1-1.15,0,1.1,1.1,0,0,0-1.34,1.36c0,1.81,0,3.62,0,5.43,0,0.75,0,1.43-1.09,1.44s-1.11-.66-1.11-1.42c0-1.7-.07-3.4,0-5.1,0.06-1.26-.33-1.88-1.67-1.71a6.7,6.7,0,0,1-1.31,0c-0.52,0-1.19.08-1.22-.73s0.63-.77,1.16-0.78c1.26,0,2.52,0,3.78,0h0Z"/><path d="M76,34.31c-0.07.67-.69,0.57-1.22,0.61-2.3.17-2.3,0.17-2.31,2.53,0,1.48,0,3,0,4.44,0,0.63-.06,1.24-0.93,1.23s-0.92-.62-0.92-1.24c0-1.81-.06-3.62,0-5.43,0-1.13-.35-1.63-1.51-1.53a14.6,14.6,0,0,1-2,0,0.67,0.67,0,0,1-.72-0.71,0.65,0.65,0,0,1,.7-0.73q4.11,0,8.22,0A0.68,0.68,0,0,1,76,34.31Z"/><path d="M170.31,38.3c0,1.26,0,2.52,0,3.78a1,1,0,0,1-1.06,1.14c-0.81,0-.79-0.61-0.8-1.16q0-3.7,0-7.4c0-.64.07-1.24,0.94-1.23s0.91,0.62.92,1.25C170.32,35.89,170.31,37.09,170.31,38.3Z"/><path d="M40.23,44.33c0-1.86,0-3.73,0-5.59,0-.92-0.3-1.21-1.18-0.81-1.35.61-2.72,1.17-4.06,1.79-0.9.42-1.53,0.37-2-.64a1.24,1.24,0,0,1,.71-1.95c2.27-1,4.52-2,6.77-3a2.4,2.4,0,0,1,2.06,0c2.2,1,4.4,2,6.61,2.94A1.26,1.26,0,0,1,50,39c-0.49,1.13-1.18,1.07-2.11.62-1.13-.56-2.32-1-3.43-1.58s-1.4-.18-1.39.95c0,3.51,0,7,0,10.52,0,1.11-.31,1.81-1.55,1.79a1.17,1.17,0,0,1-1.33-1.42c0.05-1.86,0-3.73,0-5.59h0Z"/><path d="M43.72,28.92a2.3,2.3,0,0,1-2.24,2.33,2.26,2.26,0,0,1-2.2-2.19A2.22,2.22,0,0,1,43.72,28.92Z"/></g></svg>