<svg id="Layer_1" data-name="Layer 1" xmlns="http://www.w3.org/2000/svg" viewBox="0 0 211.21 77.86"><defs><style>.cls-1{fill:#f2fafe;}.cls-2{fill:#ee3449;}</style></defs><title>twilio</title><polygon class="cls-1" points="0 13.11 128.73 0 186.91 13.73 211.22 36.73 150.51 71.88 77.22 77.86 9.81 56.98 0 13.11"/><g id="_Group_" data-name="&lt;Group&gt;"><g id="_Group_2" data-name="&lt;Group&gt;"><path id="_Path_" data-name="&lt;Path&gt;" class="cls-2" d="M130,21.89h-7.95a0.4,0.4,0,0,0-.4.4v4.6a0.4,0.4,0,0,0,.4.4H130a0.4,0.4,0,0,0,.4-0.4v-4.6A0.4,0.4,0,0,0,130,21.89Z"/><path id="_Path_2" data-name="&lt;Path&gt;" class="cls-2" d="M129.89,28.73H114.65a0.53,0.53,0,0,0-.49.38l-2,7.5h0l-0.11.38L109.72,29a0.58,0.58,0,0,0-.52-0.38h-5.93a0.58,0.58,0,0,0-.52.38l-2.22,7.5h0l-0.11.38-0.09-.38h0l-0.94-3.7-0.94-3.7A0.53,0.53,0,0,0,98,28.75H86V22.31A0.41,0.41,0,0,0,85.45,22l-7.52,2.36a0.45,0.45,0,0,0-.4.4v4.06h-2a0.4,0.4,0,0,0-.4.4V34.9a0.4,0.4,0,0,0,.4.4h2v7c0,5,2.67,7.25,7.68,7.25a12.27,12.27,0,0,0,5.39-1.14v-6a0.3,0.3,0,0,0-.43-0.31,5.19,5.19,0,0,1-2.15.43,1.78,1.78,0,0,1-2-2.09V35.31h4.29a0.4,0.4,0,0,0,.4-0.4V30.08l5.63,18.79a0.58,0.58,0,0,0,.52.38H103a0.58,0.58,0,0,0,.52-0.38l2.67-8.33,1.37,4.35,1.23,4a0.58,0.58,0,0,0,.52.38h6.26a0.58,0.58,0,0,0,.52-0.38L121.86,30V48.84a0.4,0.4,0,0,0,.4.4h7.65a0.4,0.4,0,0,0,.4-0.4V29.16A0.46,0.46,0,0,0,129.89,28.73Z"/><path id="_Path_3" data-name="&lt;Path&gt;" class="cls-2" d="M140,21.89H132.3a0.4,0.4,0,0,0-.4.4V48.82a0.4,0.4,0,0,0,.4.4H140a0.4,0.4,0,0,0,.4-0.4V22.29A0.4,0.4,0,0,0,140,21.89Z"/><path id="_Path_4" data-name="&lt;Path&gt;" class="cls-2" d="M150.16,21.89h-7.95a0.4,0.4,0,0,0-.4.4v4.6a0.4,0.4,0,0,0,.4.4h7.95a0.4,0.4,0,0,0,.4-0.4v-4.6A0.4,0.4,0,0,0,150.16,21.89Z"/><path id="_Path_5" data-name="&lt;Path&gt;" class="cls-2" d="M150,28.73h-7.65a0.4,0.4,0,0,0-.4.4V48.82a0.4,0.4,0,0,0,.4.4H150a0.4,0.4,0,0,0,.4-0.4V29.14A0.42,0.42,0,0,0,150,28.73Z"/><path id="_Compound_Path_" data-name="&lt;Compound Path&gt;" class="cls-2" d="M162.67,28.26c-6.69,0-11.47,4.92-11.47,10.64V39c0,5.72,4.74,10.57,11.38,10.57S174,44.62,174,38.9V38.83C174,33.09,169.33,28.26,162.67,28.26ZM165.94,39a3.37,3.37,0,0,1-3.28,3.55,3.46,3.46,0,0,1-3.34-3.61V38.83a3.37,3.37,0,0,1,3.28-3.55,3.46,3.46,0,0,1,3.34,3.61V39Z"/></g><g id="_Group_3" data-name="&lt;Group&gt;"><path id="_Compound_Path_2" data-name="&lt;Compound Path&gt;" class="cls-2" d="M47.31,13.11A22.45,22.45,0,1,0,69.76,35.56,22.45,22.45,0,0,0,47.31,13.11Zm0,39A16.52,16.52,0,1,1,63.83,35.56,16.52,16.52,0,0,1,47.31,52.08Z"/><circle id="_Path_6" data-name="&lt;Path&gt;" class="cls-2" cx="52.9" cy="29.97" r="4.67"/><circle id="_Path_7" data-name="&lt;Path&gt;" class="cls-2" cx="52.9" cy="41.14" r="4.67"/><circle id="_Path_8" data-name="&lt;Path&gt;" class="cls-2" cx="41.73" cy="41.14" r="4.67"/><circle id="_Path_9" data-name="&lt;Path&gt;" class="cls-2" cx="41.73" cy="29.97" r="4.67"/></g></g></svg>