<svg id="Layer_1" data-name="Layer 1" xmlns="http://www.w3.org/2000/svg" viewBox="0 0 239.34 77.86"><defs><style>.cls-1{fill:#f2fafe;}.cls-2{fill:#0033a0;}.cls-3{fill:#231f20;}.cls-4{fill:#d1d3d4;}.cls-5{fill:#58595b;}.cls-6{fill:#939598;}</style></defs><title>united</title><polygon class="cls-1" points="0 13.11 145.87 0 239.34 36.73 170.56 71.88 87.5 77.86 27.6 71.88 0 13.11"/><polygon class="cls-2" points="71.17 21.95 71.17 29.12 64.22 21.95 61.27 21.95 61.27 33.9 64.45 33.9 64.45 26.42 71.79 33.9 74.33 33.9 74.33 21.95 71.17 21.95"/><path class="cls-2" d="M81.87,24.69V22h3.46v12H81.87V24.69Z"/><path class="cls-2" d="M112.82,29.12V31.3h7.83v2.6H109.43V22H120.6v2.62h-7.78v2.12h6.59v2.43h-6.59Z"/><path class="cls-2" d="M99.13,24.66V33.9h-3.4V24.66H91.35V22h12.17v2.71H99.13Z"/><path class="cls-2" d="M130.56,24.63h2.55c2.79,0,3.93,1.17,3.93,3.3s-1.17,3.29-3.93,3.29h-2.55V24.63ZM127.17,22v12h6c5,0,7.39-2.24,7.39-6,0-3.54-2.19-6-7.39-6h-6Z"/><path class="cls-2" d="M54.76,28.63c0,3.66-2.28,5.49-6.5,5.49s-6.55-1.83-6.55-5.47V22h3.39v6.71c0,1.82,1,2.73,3.17,2.73s3.1-.89,3.11-2.71V22h3.38v6.68Z"/><path class="cls-2" d="M149.1,18.27a3.13,3.13,0,0,1,3.44,2.46c0.7,2.78-.86,5.51-3.44,7.26V27a5.3,5.3,0,0,0,1.29-1.16,4.54,4.54,0,0,0-1.3-.19V24.39a9.07,9.07,0,0,1,2.15.21,3.11,3.11,0,0,0,.48-1.15,10.66,10.66,0,0,0-2.63,0V22.59a11,11,0,0,1,2.86-.27,2.23,2.23,0,0,0-.06-0.94,11,11,0,0,0-2.8.34V21a11.35,11.35,0,0,1,2.66-.56,1.46,1.46,0,0,0-.4-0.72,11.83,11.83,0,0,0-2.26.48V19.53a6.17,6.17,0,0,1,1.65-.41,3.29,3.29,0,0,0-1.65-.33V18.27Z"/><path class="cls-2" d="M150.81,18c4.67-.86,6.78,1.2,5.52,6.24a14.89,14.89,0,0,1-7.22,9.06V31.09a3.53,3.53,0,0,1,.66.81A4.75,4.75,0,0,0,151,31a9.44,9.44,0,0,0-1.87-1.75s0-.27,0-0.28a6.34,6.34,0,0,0,1.69-1.36,8.06,8.06,0,0,1,2,1.58A6.65,6.65,0,0,0,154,27.6a7.64,7.64,0,0,0-2.07-1.18,4.93,4.93,0,0,0,.92-1.48,9.69,9.69,0,0,1,2.16.74,5.88,5.88,0,0,0,.56-1.64,10.42,10.42,0,0,0-2.21-.46,5.1,5.1,0,0,0,.13-1.28,11.3,11.3,0,0,1,2.39.23,3,3,0,0,0,0-1.14,13.21,13.21,0,0,0-2.5-.11,2.81,2.81,0,0,0-.22-1,11.66,11.66,0,0,1,2.49,0,1.86,1.86,0,0,0-.54-0.91,11.17,11.17,0,0,0-2.28.13,1.92,1.92,0,0,0-.59-0.67,6.9,6.9,0,0,1,1.87-.2,4.12,4.12,0,0,0-2.37-.25A3,3,0,0,0,150.81,18Z"/><path class="cls-2" d="M171.84,38.57V15.82H149.11V17.7c3.25-1,9.72-.45,13.48,2.93a15.31,15.31,0,0,1,5.4,11,14.52,14.52,0,0,1-1.32,6.93h5.17Z"/><path class="cls-2" d="M158.88,20.8a5.05,5.05,0,0,0-1.6-.41,4.46,4.46,0,0,1,.16,1.12,8.76,8.76,0,0,1,1.88.52,4.48,4.48,0,0,1,.18,1.51,7.91,7.91,0,0,0-2.11-.78,6.94,6.94,0,0,1-.29,1.63,9.68,9.68,0,0,1,2.17,1.07,6.66,6.66,0,0,1-.67,2.12,9.89,9.89,0,0,0-2.19-1.37,8.83,8.83,0,0,1-1.14,2.23,9.78,9.78,0,0,1,1.9,1.65,6.52,6.52,0,0,1-1.47,1.84A8.14,8.14,0,0,0,154.12,30,8.16,8.16,0,0,1,152,32.16,10.08,10.08,0,0,1,153.4,34a7.4,7.4,0,0,1-1.7,1.21,8.29,8.29,0,0,0-1-2,6.46,6.46,0,0,1-1.63,1v3.19c4.16-1.51,9.56-5.82,10.85-11.65,0.62-2.84,0-4.56-.59-5.49a4.82,4.82,0,0,0-3.54-2,3.31,3.31,0,0,1,1.06,1A2.55,2.55,0,0,1,158.88,20.8Z"/><path class="cls-2" d="M149.1,38.55V38.28a11.22,11.22,0,0,0,3.51-1.81,9.5,9.5,0,0,1,.53,2A7.61,7.61,0,0,0,154.93,37a6.7,6.7,0,0,0-.73-1.54A13.81,13.81,0,0,0,156.8,33a7.39,7.39,0,0,1,.75,1.66,10.06,10.06,0,0,0,1.83-2.14,6.19,6.19,0,0,0-1.08-1.38,9.73,9.73,0,0,0,1.53-2.78,5.16,5.16,0,0,1,1.23,1.27,8.19,8.19,0,0,0,.88-2.66,4.08,4.08,0,0,0-1.28-1,7.2,7.2,0,0,0,.28-2,4.51,4.51,0,0,1,1.25.89,4.93,4.93,0,0,0-.15-1.8,3.52,3.52,0,0,0-1.2-.71,3.85,3.85,0,0,0-.32-1.15,3.69,3.69,0,0,1,1.09.6,2.59,2.59,0,0,0-1.32-1.25,4.44,4.44,0,0,0-.66-0.91,4.33,4.33,0,0,1,3.13,3.49,12.28,12.28,0,0,1-1.41,7.76c-1.6,3.08-3.56,4.86-7,7.62H149.1Z"/><path class="cls-2" d="M155.62,38.56a11.22,11.22,0,0,0,2.8-2.5,7.53,7.53,0,0,1,.37,1.62,12.59,12.59,0,0,0,2.11-2.43,4.82,4.82,0,0,0-.6-1.26,8.33,8.33,0,0,0,1.79-3.06,3.68,3.68,0,0,1,.75,1.23A10.56,10.56,0,0,0,164,29a3.91,3.91,0,0,0-.75-1.05,6.94,6.94,0,0,0,.32-2.26,4.46,4.46,0,0,1,.84,1.06,3.25,3.25,0,0,0-.89-2.75,4.26,4.26,0,0,0-.36-1.49c1.11,0.95,2.1,2.2,1.82,5a18.65,18.65,0,0,1-5.87,11.08h-3.5Z"/><path class="cls-2" d="M163.74,38.57A5.36,5.36,0,0,0,165,36.7a3.72,3.72,0,0,1,.24,1.26,10.5,10.5,0,0,0,1.16-4.46,14.42,14.42,0,0,0,.59-3.29,13.89,13.89,0,0,1-1.26,8.36h-2Z"/><path class="cls-2" d="M165.93,28.65a2.53,2.53,0,0,0-.34-1.63,10.14,10.14,0,0,0-.14-1.52,5.43,5.43,0,0,1,1,4.28c-0.37,3.21-1.34,6.43-3.8,8.79h-1a5.15,5.15,0,0,0-.17-1.47,11,11,0,0,0,2.28-3.65,4.64,4.64,0,0,1,.46,1.64,12.13,12.13,0,0,0,1.27-4,3.11,3.11,0,0,0-.43-1,8,8,0,0,0,.42-2.21A2.55,2.55,0,0,1,165.93,28.65Z"/><path class="cls-2" d="M173.18,37.16a1.52,1.52,0,1,1,1.52,1.51A1.5,1.5,0,0,1,173.18,37.16Zm2.81,0a1.29,1.29,0,1,0-1.29,1.28A1.29,1.29,0,0,0,176,37.16Zm-0.57.82h-0.28l-0.5-.76h-0.28V38h-0.23V36.32h0.72a0.47,0.47,0,0,1,.59.44,0.45,0.45,0,0,1-.52.45Zm-0.78-1c0.21,0,.57,0,0.57-0.23s-0.22-.2-0.4-0.2h-0.44V37h0.28Z"/><polygon class="cls-3" points="41.71 43.11 176.21 43.11 176.21 43.82 41.71 43.82 41.71 43.11 41.71 43.11"/><path class="cls-4" d="M155.93,51.81a27.7,27.7,0,0,1,5.47-5.67l-1.1,4.41Z"/><path class="cls-5" d="M163.57,53.71a27.69,27.69,0,0,1-7.64-1.9l4.37-1.26Z"/><path class="cls-6" d="M161.4,46.14a27.9,27.9,0,0,1,2.17,7.57l-3.27-3.16Z"/><path class="cls-6" d="M154.38,60.88a28.17,28.17,0,0,1-2.09-3.34,27.69,27.69,0,0,1-1.6-3.62l3.86,2.41Z"/><path class="cls-5" d="M158.56,54.19a26.88,26.88,0,0,1-1.85,3.49,28,28,0,0,1-2.33,3.2l0.16-4.55Z"/><path class="cls-4" d="M150.68,53.92a27.89,27.89,0,0,1,7.87.28l-4,2.14Z"/><path class="cls-5" d="M162.53,65.15a27.09,27.09,0,0,1-3.82,1,27.4,27.4,0,0,1-3.94.41l3.48-2.92Z"/><path class="cls-6" d="M157.47,59.11a27.83,27.83,0,0,1,5.06,6l-4.28-1.55Z"/><path class="cls-4" d="M154.77,66.51a27.86,27.86,0,0,1,2.7-7.41l0.79,4.48Z"/><path class="cls-6" d="M169.11,58.72a27.83,27.83,0,0,1-.27,3.93,27.54,27.54,0,0,1-.83,3.86l-1.7-4.21Z"/><path class="cls-4" d="M161.81,61.67a26.61,26.61,0,0,1,3.54-1.74,27.2,27.2,0,0,1,3.77-1.21l-2.8,3.58Z"/><path class="cls-5" d="M168,66.51a26.4,26.4,0,0,1-3.27-2.2,27,27,0,0,1-2.93-2.65l4.5,0.63Z"/><path class="cls-6" d="M165,50.47a27.19,27.19,0,0,1,3.66,1.47,27.74,27.74,0,0,1,3.42,2l-4.54.32Z"/><path class="cls-4" d="M165.58,58.33a27.31,27.31,0,0,1-.56-3.9,27.86,27.86,0,0,1,0-4l2.54,3.77Z"/><path class="cls-5" d="M172.11,53.92a27.1,27.1,0,0,1-3.1,2.44,27.6,27.6,0,0,1-3.43,2l2-4.09Z"/><path class="cls-3" d="M115.1,55.19h0.65v4.43h-0.45V55.8h0l-2,3.83H112.9l-2-3.84h0v3.84h-0.45V55.19h0.66l2,3.86Z"/><path class="cls-3" d="M48.93,58.18a1.34,1.34,0,0,0,.39,1,2.4,2.4,0,0,0,1.71.51c0.42,0,1.89-.09,1.89-1.3s-1-1.16-1.83-1.25h0c-0.89-.09-1.54-0.19-1.54-0.79A0.7,0.7,0,0,1,50,55.71a2.45,2.45,0,0,1,1-.17,1.61,1.61,0,0,1,1.09.33,0.82,0.82,0,0,1,.2.55h0.45a1.23,1.23,0,0,0-.31-0.86A2.12,2.12,0,0,0,51,55.12a2.31,2.31,0,0,0-1.64.52,1,1,0,0,0-.3.72c0,1,1.06,1.13,1.89,1.2a3.67,3.67,0,0,1,1,.19,0.66,0.66,0,0,1,.43.67,0.7,0.7,0,0,1-.2.52A2,2,0,0,1,51,59.3a1.92,1.92,0,0,1-1.34-.39,1,1,0,0,1-.28-0.73H48.93Zm4.69-3v0.43h1.71v4h0.45v-4H57.5V55.21H53.62Zm6,0-2,4.42h0.5l0.63-1.36H61l0.62,1.36h0.51l-2-4.42H59.65Zm0.2,0.61,0.93,2H58.94Zm3.52-.61v4.42h0.46V57.71h1.79c0.79,0,1,.16,1,0.84a2,2,0,0,0,.15,1l0,0h0.47l-0.07-.14a3.18,3.18,0,0,1-.1-1.13,0.92,0.92,0,0,0-.63-0.9,1.15,1.15,0,0,0,.7-1c0-.82-0.5-1.21-1.53-1.21H63.38Zm2.28,0.43c0.7,0,1,.25,1,0.77a0.88,0.88,0,0,1-1.1.86H63.84V55.64h1.81Zm6.75-.43-2,4.42h0.51l0.62-1.36h2.22l0.63,1.36h0.5l-2-4.42H72.41Zm0.21,0.61,0.92,2H71.7Zm15.87-.61-2,4.42H87l0.62-1.36h2.22l0.63,1.36h0.5l-2-4.42H88.49Zm0.21,0.61,0.92,2H87.78Zm-12.42-.61v4.42h3.18V59.2H76.75v-4H76.28Zm4.17,0v4.42h3.18V59.2H80.91v-4H80.45Zm4.13,0v4.42H85V55.21H84.59Zm11.26,0V58.9c-0.28-.35-3.2-3.69-3.2-3.69H92.19v4.42h0.45V55.94c0.29,0.35,3.2,3.69,3.2,3.69H96.3V55.21H95.85Zm8,0v4.42h3.56V59.2h-3.11V57.55h2.95V57.13h-2.95V55.64h3.07V55.21H103.8Zm-6.06,2.22a2.21,2.21,0,0,0,2.39,2.3,2.14,2.14,0,0,0,2.23-1.78V57.83H101.9v0.08a1.66,1.66,0,0,1-1.76,1.38,1.78,1.78,0,0,1-1.92-1.87,1.82,1.82,0,0,1,1.94-1.87,1.58,1.58,0,0,1,1.67,1.11l0,0.07h0.48l0-.12a2,2,0,0,0-2.14-1.5A2.28,2.28,0,0,0,97.74,57.42Z"/><path class="cls-3" d="M44.16,55.18H43.74l-2,4.42h0.5l0.63-1.37h2.23l0.62,1.37H46.2ZM43,57.81l0.92-2,0.92,2H43Z"/><path class="cls-3" d="M117.17,55.22v4.42h3.57V59.2h-3.11V57.56h2.95V57.14h-2.95V55.65h3.08V55.22h-3.53Z"/><path class="cls-3" d="M126.75,55.19h0.65v4.44h-0.45V55.8h0l-2,3.83h-0.42l-1.95-3.84h0v3.84h-0.45V55.19h0.66l2,3.86Z"/><path class="cls-3" d="M129.29,55.62h2a0.71,0.71,0,0,1,.86.72,0.81,0.81,0,0,1-1,.79h-1.81V55.62Zm-0.45,4h2.45a1.3,1.3,0,0,0,1.46-1.26,1,1,0,0,0-.93-1.08h0a0.93,0.93,0,0,0,.76-1,1.07,1.07,0,0,0-1.23-1.11h-2.51v4.42Zm0.45-2.08h2a0.77,0.77,0,0,1,.93.82,0.87,0.87,0,0,1-1,.85h-1.93V57.55Z"/><path class="cls-3" d="M134.19,55.21v4.42h3.57V59.2h-3.11V57.56h3V57.13h-3V55.64h3.07V55.21h-3.53Z"/><path class="cls-3" d="M143,59.49a3.22,3.22,0,0,1-.1-1.13,0.93,0.93,0,0,0-.62-0.89,1.15,1.15,0,0,0,.7-1c0-.81-0.5-1.21-1.52-1.21h-2.26v4.42h0.46V57.71h1.79c0.79,0,1,.16,1,0.85a1.94,1.94,0,0,0,.14,1l0,0H143Zm-1.6-2.22h-1.75V55.64h1.82c0.7,0,1,.25,1,0.77S142.11,57.27,141.36,57.27Z"/><path class="cls-3" d="M174.84,55.2H175V53.49h0.74V53.31H174.1v0.18h0.74V55.2Z"/><path class="cls-3" d="M178.25,53.31h0.28v1.9h-0.2V53.56h0l-0.84,1.64h-0.18l-0.83-1.64h0V55.2h-0.2v-1.9h0.29L177.41,55Z"/></svg>