<svg id="Layer_1" data-name="Layer 1" xmlns="http://www.w3.org/2000/svg" viewBox="0 0 240.3 76.88"><defs><style>.cls-1{fill:#f2fafe;}.cls-2{fill:#99999a;}.cls-3{fill:#276092;}</style></defs><title>viasat</title><polygon class="cls-1" points="0 15.08 52.85 0 146.46 2.57 212.65 15.68 240.3 37.62 171.24 71.16 87.85 76.88 11.16 56.94 0 15.08"/><rect class="cls-2" x="30.32" y="53.42" width="150.53" height="4.58"/><path class="cls-3" d="M115.29,25.4c-1.52-.81-11-2.56-15.53.76a7.11,7.11,0,0,0-3.27,6.42h7.39c0.31-2.37,2.07-2.69,3.47-2.63,1.89,0.07,3,.91,2.72,1.68s-0.79,1.13-4.17,1.59c-3.93.54-10.53,1.3-12.12,6.07-1,3-.33,4.89.5,5.91,3.19,3.91,9.36,2.86,12.77,1.25l0.19,1.27h9.32l-0.37-.15a2.77,2.77,0,0,1-1.39-2.51,9.21,9.21,0,0,1,.27-1.89S115.78,39.38,117,33a36.86,36.86,0,0,0,.64-4A3.76,3.76,0,0,0,115.29,25.4ZM103.21,43c-1.51-.09-2.77-1.59-1.56-3.08,1-1.2,5.49-1.72,7.19-2.53C108.15,40.08,107.8,43.3,103.21,43Z"/><path class="cls-3" d="M165.09,25.4c-1.52-.81-11-2.56-15.53.76a7.11,7.11,0,0,0-3.27,6.42h7.39c0.31-2.37,2.07-2.69,3.47-2.63,1.89,0.07,3,.91,2.72,1.68s-0.79,1.13-4.17,1.59c-3.93.54-10.53,1.3-12.12,6.07-1,3-.33,4.89.5,5.91,3.19,3.91,9.36,2.86,12.77,1.25L157,47.72h9.32L166,47.56a2.77,2.77,0,0,1-1.39-2.51,9.21,9.21,0,0,1,.27-1.89s0.71-3.79,1.89-10.15a36.86,36.86,0,0,0,.64-4A3.76,3.76,0,0,0,165.09,25.4ZM153,43c-1.51-.09-2.77-1.59-1.56-3.08,1-1.2,5.49-1.72,7.19-2.53C158,40.08,157.6,43.3,153,43Z"/><path class="cls-3" d="M97.17,17.4l-0.06.32H90.65l-0.5,1h6.78c0,0.13-.09.49-0.11,0.58h-7l-0.47.92h7.27c0,0.16-.13.75-0.16,0.86H89l-0.38.75h7.79c0,0.17-.2,1.09-0.22,1.21H88l-0.32.64H96l-4.4,24.1H82.81L86.9,25.16,75.49,47.79H62.79l-5-30.38h9.67c0,0.15,3.13,20.83,3.13,20.83L81.05,17.4H97.17Z"/><path class="cls-3" d="M179.68,48a2.45,2.45,0,1,0-2.55-2.44A2.45,2.45,0,0,0,179.68,48h0Zm-2-2.44a2,2,0,1,1,4,0,2,2,0,1,1-4,0h0Zm1.51,0.17h0.46l0.75,1.25h0.53l-0.81-1.25a0.78,0.78,0,0,0,.76-0.8c0-.57-0.35-0.79-1-0.79h-1.1v2.84h0.47V45.7h0Zm0-.34V44.44h0.58a0.54,0.54,0,0,1,.63.46c0,0.4-.35.45-0.69,0.45h-0.52Z"/><path class="cls-3" d="M173.76,41.71c0,0.49,0,.82,1,0.89a11.42,11.42,0,0,0,1.22,0l0.91,0-1.06,5.17H170.2a7.94,7.94,0,0,1-3.15-.51,2.77,2.77,0,0,1-1.39-2.51,9.2,9.2,0,0,1,.27-1.89l4.42-23.76h7.76l-1.23,6.1H180l-0.86,4.9H176Z"/><path class="cls-3" d="M123.66,19a16.3,16.3,0,0,1,8.46-2.19c11.29,0.26,12.59,7.59,12.5,10.65H136c0-.14.36-3.73-4.13-3.68s-4.83,2.87-2.18,3.46c0.7,0.16,2.2.41,4.12,0.76,5.53,1,7.63,4,8.32,5.46,2.56,5.35-.19,12.61-8.07,14.07a24.82,24.82,0,0,1-9.86-.23,9,9,0,0,1-3.6-1.89c-2.55-2-3.71-5.19-3.68-9.06h8.66l0,1.09a3.14,3.14,0,0,0,2.73,2.45,6.4,6.4,0,0,0,4.58-.7,1.32,1.32,0,0,0-.23-2.34c-3.13-1-9-.65-12.24-5.09C118.61,29.31,118.11,22.61,123.66,19Z"/></svg>