<?xml version="1.0" encoding="UTF-8" standalone="no"?>
<svg
   xmlns:dc="http://purl.org/dc/elements/1.1/"
   xmlns:cc="http://creativecommons.org/ns#"
   xmlns:rdf="http://www.w3.org/1999/02/22-rdf-syntax-ns#"
   xmlns:svg="http://www.w3.org/2000/svg"
   xmlns="http://www.w3.org/2000/svg"
   viewBox="0 0 960 781.33331"
   height="781.33331"
   width="960"
   xml:space="preserve"
   id="svg2"
   version="1.1"><metadata
     id="metadata8"><rdf:RDF><cc:Work
         rdf:about=""><dc:format>image/svg+xml</dc:format><dc:type
           rdf:resource="http://purl.org/dc/dcmitype/StillImage" /></cc:Work></rdf:RDF></metadata><defs
     id="defs6"><clipPath
       id="clipPath18"
       clipPathUnits="userSpaceOnUse"><path
         id="path16"
         d="M 0,586 H 720 V 0 H 0 Z" /></clipPath></defs><g
     transform="matrix(1.3333333,0,0,-1.3333333,0,781.33333)"
     id="g10"><g
       id="g12"><g
         clip-path="url(#clipPath18)"
         id="g14"><g
           transform="translate(350.0625,276.0615)"
           id="g20"><path
             id="path22"
             style="fill:#b5111a;fill-opacity:1;fill-rule:evenodd;stroke:none"
             d="M 0,0 47.218,-81.764 H -155.498 V 0 Z M 66.747,131.743 H -119.09 V 49.971 H 26.581 l 76.055,-131.735 h 94.42 L 114.503,61.221 c 34.985,17.529 59.011,53.713 59.011,95.508 0,58.969 -47.799,106.759 -106.76,106.759 H 66.747 -155.498 V 181.712 H 66.747 c 13.807,0 24.988,-11.185 24.988,-24.983 0,-13.8 -11.181,-24.986 -24.988,-24.986" /></g><g
           transform="translate(523.5762,432.791)"
           id="g24"><path
             id="path26"
             style="fill:#b5111a;fill-opacity:1;fill-rule:evenodd;stroke:none"
             d="m 0,0 c 0,58.968 -47.799,106.759 -106.76,106.759 h -0.007 -222.245 V 24.983 h 222.245 c 13.807,0 24.989,-11.186 24.989,-24.983 z" /></g><g
           transform="translate(416.8096,407.8047)"
           id="g28"><path
             id="path30"
             style="fill:#b5111a;fill-opacity:1;fill-rule:evenodd;stroke:none"
             d="m 0,0 h -185.837 v -81.772 h 145.671 l 14.264,-24.713 h 94.416 l -20.758,35.963 c 34.985,17.528 59.011,53.713 59.011,95.508 H 24.988 C 24.988,11.186 13.807,0 0,0" /></g><g
           transform="translate(350.0625,276.0615)"
           id="g32"><path
             id="path34"
             style="fill:#b5111a;fill-opacity:1;fill-rule:evenodd;stroke:none"
             d="M 0,0 H -155.498 V -81.764 H 47.218 Z" /></g><g
           transform="translate(390.9072,301.3198)"
           id="g36"><path
             id="path38"
             style="fill:#b5111a;fill-opacity:1;fill-rule:evenodd;stroke:none"
             d="m 0,0 61.791,-107.022 h 94.42 L 94.416,0 Z" /></g><g
           transform="translate(416.8096,407.8047)"
           id="g40"><path
             id="path42"
             style="fill:#b5111a;fill-opacity:1;fill-rule:evenodd;stroke:none"
             d="m 0,0 h -185.837 v -81.772 h 145.671 l 14.264,-24.713 h 94.416 l -20.758,35.963 c 34.985,17.528 59.011,53.713 59.011,95.508 H 24.988 C 24.988,11.186 13.807,0 0,0" /></g><g
           transform="translate(524.416,90.123)"
           id="g44"><path
             id="path46"
             style="fill:#231f20;fill-opacity:1;fill-rule:nonzero;stroke:none"
             d="m 0,0 c 0,4.796 -1.673,8.289 -5.033,10.457 -3.354,2.159 -7.541,3.245 -12.549,3.245 -4.389,0 -8.233,-1.139 -11.53,-3.421 -3.284,-2.284 -4.946,-5.485 -4.946,-9.572 v -25.122 c 0,-5.033 1.59,-8.444 4.77,-10.195 3.166,-1.767 7.38,-2.642 12.628,-2.642 4.393,0 8.273,1.027 11.627,3.089 3.36,2.04 5.033,5.285 5.033,9.748 z M 0.18,64.237 H 22.702 V -55.164 H 5.309 l -4.947,9.481 c -2.808,-3.633 -6.55,-6.358 -11.253,-8.162 -4.701,-1.824 -9.251,-2.726 -13.643,-2.726 -10.74,0 -18.802,2.778 -24.171,8.342 -5.361,5.567 -8.061,13.494 -8.061,23.816 V 0.709 c 0,10.069 2.7,17.914 8.061,23.531 5.369,5.626 13.431,8.437 24.171,8.437 4.88,0 9.43,-0.853 13.643,-2.548 4.21,-1.698 7.901,-4.364 11.071,-8.002 z" /></g><g
           transform="translate(421.8242,103.8252)"
           id="g48"><path
             id="path50"
             style="fill:#231f20;fill-opacity:1;fill-rule:nonzero;stroke:none"
             d="m 0,0 c -2.194,0 -4.265,-0.291 -6.224,-0.876 -1.949,-0.585 -3.69,-1.434 -5.213,-2.545 -1.531,-1.118 -2.757,-2.493 -3.679,-4.134 -0.903,-1.642 -1.362,-3.505 -1.362,-5.618 v -7.024 l 30.947,4.214 v 4.74 c 0,4.219 -1.318,7.137 -3.936,8.777 C 7.906,-0.822 4.389,0 0,0 m 4.764,-51.304 c 2.315,0 4.728,0.236 7.22,0.712 2.501,0.458 4.954,1.112 7.329,1.934 2.379,0.822 4.611,1.804 6.677,2.99 2.085,1.157 3.853,2.388 5.313,3.689 l 9.892,-15.472 c -5.504,-4.924 -11.352,-8.346 -17.585,-10.265 -6.214,-1.949 -12.993,-2.908 -20.322,-2.908 -5.983,0 -11.56,0.667 -16.749,2.017 -5.188,1.349 -9.701,3.42 -13.548,6.232 -3.852,2.825 -6.836,6.356 -8.969,10.628 -2.131,4.282 -3.203,9.289 -3.203,15.039 v 23.535 c 0,5.272 1.032,9.889 3.108,13.88 2.083,3.98 4.885,7.317 8.434,10.002 3.531,2.698 7.737,4.744 12.621,6.151 4.892,1.418 10.072,2.115 15.564,2.115 5.008,0 9.767,-0.725 14.287,-2.201 4.507,-1.459 8.48,-3.532 11.893,-6.236 3.422,-2.699 6.14,-5.988 8.15,-9.928 2.02,-3.924 3.026,-8.292 3.026,-13.091 v -14.575 l -54.38,-7.552 v -2.1 c 0,-2.352 0.633,-4.424 1.919,-6.245 1.28,-1.813 2.935,-3.342 4.951,-4.566 2.018,-1.22 4.299,-2.168 6.869,-2.821 2.556,-0.642 5.06,-0.964 7.503,-0.964" /></g><g
           transform="translate(315.0278,102.7676)"
           id="g52"><path
             id="path54"
             style="fill:#231f20;fill-opacity:1;fill-rule:nonzero;stroke:none"
             d="m 0,0 h 24.892 c 3.9,0 7.414,0.889 10.528,2.641 3.119,1.754 4.666,4.507 4.666,8.249 v 8.793 c 0,4.213 -1.464,7.385 -4.392,9.485 -2.929,2.103 -6.588,3.156 -10.984,3.156 H 0 Z m 62.798,10.723 c 0,-7.386 -2.079,-13.354 -6.226,-17.927 -4.16,-4.566 -9.89,-7.849 -17.214,-9.841 L 68.651,-67.809 H 43.392 L 15.748,-19.322 H 0 V -67.809 H -22.709 V 51.66 h 47.601 c 11.475,0 20.663,-2.559 27.55,-7.648 6.897,-5.091 10.356,-13.148 10.356,-24.149 z" /></g><g
           transform="translate(279.4033,118.2646)"
           id="g56"><path
             id="path58"
             style="fill:#231f20;fill-opacity:1;fill-rule:nonzero;stroke:none"
             d="m 0,0 c 0,-2.841 -0.467,-5.372 -1.391,-7.628 -0.923,-2.236 -2.149,-4.185 -3.692,-5.837 -1.539,-1.656 -3.359,-3.103 -5.447,-4.355 -2.093,-1.227 -4.313,-2.27 -6.657,-3.088 2.344,-0.945 4.619,-2.075 6.83,-3.367 2.226,-1.309 4.193,-2.781 5.919,-4.434 1.726,-1.661 3.109,-3.61 4.154,-5.858 1.049,-2.243 1.578,-4.844 1.578,-7.791 v -12.063 c 0,-5.437 -1.112,-10.137 -3.324,-14.089 -2.227,-3.965 -5.239,-7.208 -9.057,-9.753 -3.811,-2.543 -8.249,-4.393 -13.299,-5.574 -5.049,-1.186 -10.342,-1.781 -15.892,-1.781 -5.048,0 -9.848,0.472 -14.404,1.417 -4.562,0.949 -8.75,2.436 -12.559,4.434 -3.818,2.007 -7.152,4.608 -9.981,7.803 -2.831,3.193 -4.986,7.026 -6.463,11.519 l 19.023,7.807 c 0.862,-1.905 2.13,-3.659 3.791,-5.33 1.663,-1.639 3.505,-3.097 5.542,-4.335 2.026,-1.243 4.216,-2.187 6.56,-2.841 2.336,-0.653 4.612,-0.974 6.827,-0.974 2.346,0 4.717,0.18 7.118,0.531 2.406,0.357 4.583,0.971 6.559,1.862 1.961,0.891 3.567,2.103 4.805,3.633 1.225,1.544 1.851,3.436 1.851,5.671 v 12.063 c 0,2.129 -0.653,3.891 -1.947,5.314 -1.295,1.418 -2.952,2.599 -4.987,3.547 -2.031,0.949 -4.216,1.655 -6.561,2.125 -2.335,0.476 -4.617,0.822 -6.838,1.06 h -14.219 v 18.791 h 13.114 c 2.345,0 4.711,0.181 7.117,0.53 2.4,0.362 4.548,0.975 6.462,1.861 1.912,0.895 3.477,2.077 4.715,3.548 1.231,1.476 1.842,3.341 1.842,5.582 v 7.274 c 0,2.126 -0.522,3.95 -1.571,5.495 -1.043,1.529 -2.435,2.742 -4.152,3.627 -1.725,0.891 -3.701,1.545 -5.911,1.95 -2.222,0.417 -4.438,0.624 -6.656,0.624 -4.556,0 -8.646,-0.998 -12.283,-3.019 -3.632,-2.002 -6.365,-4.896 -8.224,-8.677 l -17.358,8.677 c 1.476,3.912 3.603,7.278 6.371,10.113 2.768,2.841 5.976,5.16 9.606,6.996 3.629,1.836 7.539,3.189 11.733,4.081 4.186,0.886 8.492,1.317 12.928,1.317 5.536,0 10.685,-0.61 15.434,-1.847 4.731,-1.237 8.798,-3.13 12.185,-5.68 3.39,-2.543 6.038,-5.784 7.944,-9.748 C -0.953,17.232 0,12.585 0,7.274 Z" /></g></g></g></g></svg>