<?xml version="1.0" encoding="UTF-8" standalone="no"?>
<svg
   xmlns:dc="http://purl.org/dc/elements/1.1/"
   xmlns:cc="http://creativecommons.org/ns#"
   xmlns:rdf="http://www.w3.org/1999/02/22-rdf-syntax-ns#"
   xmlns:svg="http://www.w3.org/2000/svg"
   xmlns="http://www.w3.org/2000/svg"
   viewBox="0 0 787.41333 350.93332"
   height="350.93332"
   width="787.41333"
   xml:space="preserve"
   id="svg2"
   version="1.1"><metadata
     id="metadata8"><rdf:RDF><cc:Work
         rdf:about=""><dc:format>image/svg+xml</dc:format><dc:type
           rdf:resource="http://purl.org/dc/dcmitype/StillImage" /></cc:Work></rdf:RDF></metadata><defs
     id="defs6" /><g
     transform="matrix(1.3333333,0,0,-1.3333333,0,350.93333)"
     id="g10"><g
       transform="scale(0.1)"
       id="g12"><path
         id="path14"
         style="fill:#656263;fill-opacity:1;fill-rule:nonzero;stroke:none"
         d="m 2233.02,1073.73 c 0,-445.289 -360.98,-806.269 -806.27,-806.269 -445.285,0 -806.266,360.98 -806.266,806.269 v 163.42 l 268.739,-122.56 268.737,122.56 268.74,-122.56 268.75,122.56 268.79,-122.56 268.78,122.56 v -163.42" /><path
         id="path16"
         style="fill:#ee2a27;fill-opacity:1;fill-rule:nonzero;stroke:none"
         d="m 713.703,1487.56 c -0.074,0 -0.148,0 -0.172,0 -2.074,0 -3.222,0 -3.222,0 l -58.957,-141.44 15.586,-7.11 222.281,-101.37 117.071,53.39 86.35,233.74 c -1.04,-0.27 -2.35,-0.5 -3.44,-0.73 l 0.25,0.73 C 912.32,1489.02 739.336,1487.6 713.703,1487.56" /><path
         id="path18"
         style="fill:#ee2a27;fill-opacity:1;fill-rule:nonzero;stroke:none"
         d="m 1365.07,2259.98 152.52,-420.62 c -9.68,2 -99.22,19.36 -220.48,19.36 -29.11,0 -56.06,-0.61 -81.44,-1.54 z m -34.02,-668.2 c 307.92,0 522.52,-108.52 599.24,-154.13 l -21.04,-52 c -47.61,28.26 -143.11,79.22 -267.67,110.24 l 49.66,-137.61 4.2,1.92 46.46,-21.18 222.34,-101.39 222.33,101.39 17.18,7.83 -466.29,1285.13 h -234.38 -272.86 -47.77 l -333.911,-815.5 c -41.66,-4.14 -86.488,-6.91 -138.769,-6.91 -307.954,0 -575.321,172.64 -602.965,190.72 L 0,1739.18 c 14.4766,-9.71 291.766,-205.5 693.797,-205.5 247.555,0 399.093,58.1 637.253,58.1" /><path
         id="path20"
         style="fill:#656263;fill-opacity:1;fill-rule:nonzero;stroke:none"
         d="m 2801.45,2493.92 h -186.48 v 127.4 h 516.98 v -127.4 H 2945.47 V 1967.7 h -144.02 v 526.22" /><path
         id="path22"
         style="fill:#656263;fill-opacity:1;fill-rule:nonzero;stroke:none"
         d="m 3260.27,2621.32 h 144.02 V 2377.6 h 279.72 v 243.72 h 144.02 V 1967.7 h -144.02 v 282.5 h -279.72 v -282.5 h -144.02 v 653.62" /><path
         id="path24"
         style="fill:#656263;fill-opacity:1;fill-rule:nonzero;stroke:none"
         d="m 3948.04,2621.32 h 444.05 v -132.94 h -300.04 v -121.86 h 283.43 v -132.94 h -283.43 v -132.94 h 316.66 V 1967.7 h -460.67 v 653.62" /><path
         id="path26"
         style="fill:#656263;fill-opacity:1;fill-rule:nonzero;stroke:none"
         d="m 2801.45,1646.23 h -186.48 v 127.4 h 516.98 v -127.4 h -186.48 v -526.22 h -144.02 v 526.22" /><path
         id="path28"
         style="fill:#656263;fill-opacity:1;fill-rule:nonzero;stroke:none"
         d="m 3247.34,1773.63 h 444.06 v -132.94 h -300.04 v -121.86 h 283.42 v -132.94 h -283.42 v -132.94 h 316.66 v -132.94 h -460.68 v 653.62" /><path
         id="path30"
         style="fill:#656263;fill-opacity:1;fill-rule:nonzero;stroke:none"
         d="m 4269.31,1603.76 c -14.17,17.22 -31.55,30.47 -52.16,39.7 -20.63,9.23 -44.48,13.85 -71.55,13.85 -27.09,0 -52.16,-5.24 -75.24,-15.7 -23.08,-10.47 -43.09,-25.08 -60.01,-43.85 -16.93,-18.78 -30.16,-41.08 -39.7,-66.93 -9.54,-25.85 -14.31,-53.87 -14.31,-84.01 0,-30.79 4.77,-58.94 14.31,-84.47 9.54,-25.55 22.62,-47.71 39.24,-66.47 16.62,-18.78 36.15,-33.4 58.63,-43.86 22.45,-10.47 46.62,-15.69 72.46,-15.69 29.55,0 55.7,6.15 78.48,18.47 22.76,12.3 41.54,29.54 56.31,51.69 l 120.01,-89.55 c -27.69,-38.77 -62.78,-67.39 -105.24,-85.85 -42.46,-18.47 -86.18,-27.7 -131.09,-27.7 -51.09,0 -98.18,8.01 -141.25,24.01 -43.09,15.99 -80.32,38.91 -111.71,68.77 -31.39,29.85 -55.85,66.01 -73.39,108.48 -17.54,42.46 -26.32,89.85 -26.32,142.17 0,52.3 8.78,99.7 26.32,142.17 17.54,42.47 42,78.62 73.39,108.47 31.39,29.85 68.62,52.77 111.71,68.78 43.07,16 90.16,24.01 141.25,24.01 18.46,0 37.69,-1.7 57.7,-5.08 19.99,-3.39 39.7,-8.78 59.08,-16.15 19.39,-7.39 38,-17.24 55.85,-29.55 17.85,-12.32 33.84,-27.39 48.01,-45.24 l -110.78,-90.47" /><path
         id="path32"
         style="fill:#656263;fill-opacity:1;fill-rule:nonzero;stroke:none"
         d="m 4511.18,1773.63 h 144.02 v -243.72 h 279.72 v 243.72 h 144.02 v -653.62 h -144.02 v 282.5 H 4655.2 v -282.5 h -144.02 v 653.62" /><path
         id="path34"
         style="fill:#656263;fill-opacity:1;fill-rule:nonzero;stroke:none"
         d="m 2616.07,942.73 h 200.74 l 285.02,-465.878 h 1.9 V 942.73 h 147.72 V 272.32 h -193.17 l -292.6,477.239 h -1.9 V 272.32 h -147.71 v 670.41" /><path
         id="path36"
         style="fill:#656263;fill-opacity:1;fill-rule:nonzero;stroke:none"
         d="M 3374.53,942.73 H 3830 V 806.379 h -307.74 v -125 h 290.7 V 545.02 h -290.7 V 408.672 h 324.78 V 272.32 h -472.51 v 670.41" /><path
         id="path38"
         style="fill:#656263;fill-opacity:1;fill-rule:nonzero;stroke:none"
         d="m 4334.69,778.922 c -11.99,15.137 -28.25,26.34 -48.76,33.609 -20.52,7.239 -39.94,10.891 -58.24,10.891 -10.74,0 -21.78,-1.281 -33.14,-3.793 -11.37,-2.527 -22.11,-6.481 -32.19,-11.84 -10.11,-5.367 -18.32,-12.469 -24.62,-21.301 -6.32,-8.847 -9.47,-19.578 -9.47,-32.199 0,-20.207 7.57,-35.668 22.72,-46.398 15.15,-10.743 34.24,-19.879 57.29,-27.461 23.04,-7.571 47.82,-15.141 74.33,-22.719 26.52,-7.582 51.29,-18.32 74.33,-32.199 23.04,-13.891 42.14,-32.524 57.29,-55.871 15.15,-23.36 22.73,-54.61 22.73,-93.743 0,-37.25 -6.96,-69.757 -20.83,-97.527 -13.9,-27.781 -32.67,-50.82 -56.35,-69.121 -23.66,-18.32 -51.12,-31.891 -82.38,-40.719 -31.24,-8.84 -64.24,-13.261 -98.95,-13.261 -43.55,0 -83.96,6.628 -121.2,19.89 -37.26,13.25 -71.97,34.711 -104.16,64.391 l 105.1,115.519 c 15.16,-20.211 34.24,-35.84 57.29,-46.871 23.04,-11.051 46.88,-16.57 71.5,-16.57 11.98,0 24.14,1.41 36.45,4.25 12.31,2.851 23.35,7.109 33.14,12.793 9.78,5.68 17.67,12.93 23.67,21.777 6,8.832 9,19.25 9,31.25 0,20.192 -7.74,36.133 -23.2,47.813 -15.48,11.679 -34.89,21.617 -58.24,29.828 -23.35,8.199 -48.61,16.41 -75.74,24.621 -27.16,8.199 -52.41,19.25 -75.76,33.148 -23.36,13.879 -42.77,32.192 -58.24,54.922 -15.47,22.719 -23.19,52.699 -23.19,89.949 0,35.981 7.1,67.551 21.3,94.7 14.21,27.129 33.15,49.851 56.81,68.172 23.68,18.308 50.98,32.039 81.92,41.187 30.92,9.141 62.8,13.731 95.63,13.731 37.88,0 74.48,-5.372 109.84,-16.098 35.35,-10.742 67.23,-28.731 95.64,-53.973 L 4334.69,778.922" /><path
         id="path40"
         style="fill:#656263;fill-opacity:1;fill-rule:nonzero;stroke:none"
         d="M 4733.33,812.059 H 4542.05 V 942.73 h 530.27 V 812.059 H 4881.04 V 272.32 h -147.71 v 539.739" /><path
         id="path42"
         style="fill:#ee2a27;fill-opacity:1;fill-rule:nonzero;stroke:none"
         d="m 5303.81,156.012 -38.79,-94.7815 c 14.74,0.9883 30.77,4.5898 41.76,5.4297 l 33.23,89.3518 h -36.2" /><path
         id="path44"
         style="fill:#ee2a27;fill-opacity:1;fill-rule:nonzero;stroke:none"
         d="m 5891.23,151.289 c -0.82,0.391 -1.89,0.352 -2.79,0.352 h -1.69 v -5.442 h 2.33 c 1.91,0 3.66,0.551 3.66,2.821 0,1.011 -0.56,1.839 -1.51,2.269 m 1.95,-15.238 -3.84,7.09 h -2.59 v -7.09 h -3.61 v 18.66 h 5.09 c 1.51,0 3.07,0.051 4.51,-0.461 2.28,-0.859 3.57,-2.809 3.57,-5.34 0,-2.308 -1.13,-4.121 -3.25,-5.148 l 4.26,-7.711 h -4.14" /><path
         id="path46"
         style="fill:#ee2a27;fill-opacity:1;fill-rule:nonzero;stroke:none"
         d="m 5889.18,131.148 c -7.55,0 -13.69,6.071 -13.69,13.672 0,7.551 6.14,13.719 13.69,13.719 7.6,0 13.71,-6.168 13.71,-13.719 0,-7.601 -6.11,-13.672 -13.71,-13.672 m 0,30.09 c -9.03,0 -16.37,-7.328 -16.37,-16.418 0,-9.05 7.34,-16.41 16.37,-16.41 9.13,0 16.39,7.36 16.39,16.41 0,9.09 -7.26,16.418 -16.39,16.418" /><path
         id="path48"
         style="fill:#ee2a27;fill-opacity:1;fill-rule:nonzero;stroke:none"
         d="m 5251.06,27.1016 c 16.73,-0.8516 35.66,2.8789 42.62,4.1172 L 5283,2.14844 h -42.17 l 10.23,24.95316" /><path
         id="path50"
         style="fill:#ee2a27;fill-opacity:1;fill-rule:nonzero;stroke:none"
         d="m 5779.81,73.25 v 57.398 h 11.28 c 16.93,0 25.87,-12.046 25.87,-28.687 0,-17.9493 -9.89,-28.711 -25.87,-28.711 z m -163.5,0 v 57.398 h 8.21 c 21.32,0 29.06,-13.507 29.06,-28.687 0,-17.8399 -9.88,-28.711 -29.06,-28.711 z m -152.77,40.25 17.12,-45.8203 c -0.92,0.1601 -9.5,1.1719 -17.12,1.1719 -7.32,0 -16.7,-1.0625 -17.54,-1.1719 z m -77.82,-97.8711 c -5.39,3.1719 -16.15,8.8906 -30.16,12.4414 l 9.35,-25.92186 h 57.3 l 12.69,34.04296 c 0.68,0.1484 13.75,2.4375 28.64,2.4375 14.7,0 27.29,-2.3203 28.02,-2.457 l 12.45,-34.02346 h 112.3 V 64.0703 l 47.04,-61.92186 h 116.46 V 47.7617 h 25.79 c 42.81,0 68.83,21.2578 68.83,54.1993 0,31.199 -23.68,54.051 -68.83,54.051 h -81.68 V 8.48828 l -43.87,47.66012 c 6.74,3.0313 30.95,14.961 30.95,45.8126 0,30.699 -24.9,54.051 -75.86,54.051 h -74.79 V 14.0313 l -54.76,141.9807 h -62.64 l -39.33,-96.5003 -37.25,96.5003 h -57.1 l 32.28,-89.3518 c -1.04,0.289 -11.18,2.2304 -24.83,2.2304 -31.04,0 -41.03,-5.5312 -66.17,-5.5312 -34.63,0 -64.8,19.4609 -67.87,21.4297 l -12.04,-29.3789 c 1.65,-1.0586 32.86,-23.1289 78.14,-23.1289 27.93,0 44.9,6.5976 71.76,6.5976 34.76,0 58.91,-12.2891 67.51,-17.3984 l -2.33,-5.8516" /><path
         id="path52"
         style="fill:#ee2a27;fill-opacity:1;fill-rule:nonzero;stroke:none"
         d="m 3416.64,67.8281 c 13.78,0 22.36,8.7735 22.36,22.9024 0,9.3085 -3.57,15.9415 -10.02,19.5075 -3.4,1.801 -7.51,2.871 -17.36,2.871 h -20.4 V 67.8281 Z M 3373.5,128.5 h 38.66 c 13.24,0 18.79,-1.07 23.63,-2.859 12.88,-4.84 21.29,-17.539 21.29,-34.1918 0,-16.1094 -8.95,-29.707 -22.73,-34.1797 v -0.3593 c 0,0 1.44,-1.6094 3.76,-5.7305 l 26.85,-49.03126 h -20.05 l -26.67,50.29296 h -27.02 V 2.14844 H 3373.5 V 128.5" /><path
         id="path54"
         style="fill:#ee2a27;fill-opacity:1;fill-rule:nonzero;stroke:none"
         d="m 3543.36,57.9922 c -0.53,15.5664 -10.2,23.0781 -21.83,23.0781 -13.25,0 -23.98,-8.2305 -26.49,-23.0781 z m -21.47,36.8594 c 25.59,0 39.19,-18.9727 39.19,-42.4102 0,-2.332 -0.54,-7.5195 -0.54,-7.5195 h -66.04 c 0.9,-19.8633 15.04,-29.8906 31.15,-29.8906 15.56,0 26.84,10.5703 26.84,10.5703 l 7.16,-12.711 c 0,0 -13.42,-12.8906 -35.08,-12.8906 -28.45,0 -47.96,20.5781 -47.96,47.4219 0,28.8164 19.51,47.4297 45.28,47.4297" /><path
         id="path56"
         style="fill:#ee2a27;fill-opacity:1;fill-rule:nonzero;stroke:none"
         d="m 3607.63,13.9609 c 14.68,0 24.16,15.3907 24.16,28.8086 v 2.8711 h -4.47 c -13.06,0 -36.69,-0.8906 -36.69,-17.1914 0,-7.3281 5.73,-14.4883 17,-14.4883 z m 20.05,44.7383 h 3.93 v 1.6094 c 0,14.8633 -8.41,19.8711 -19.86,19.8711 -13.96,0 -25.23,-8.7695 -25.23,-8.7695 l -7.16,12.7109 c 0,0 13.06,10.7305 33.82,10.7305 22.91,0 35.79,-12.5196 35.79,-35.4297 V 2.14844 h -16.1 v 8.58986 c 0,4.1211 0.36,7.1601 0.36,7.1601 h -0.36 c 0,0 -7.34,-17.8984 -28.99,-17.8984 -15.58,0 -30.79,9.48047 -30.79,27.5586 0,29.8906 39.37,31.1406 54.59,31.1406" /><path
         id="path58"
         style="fill:#ee2a27;fill-opacity:1;fill-rule:nonzero;stroke:none"
         d="m 3672.08,128.5 h 17.36 V 29.8906 c 0,-10.9218 4.29,-12.8906 9.66,-12.8906 1.61,0 3.05,0.1797 3.05,0.1797 V 1.78906 c 0,0 -2.69,-0.35937 -5.73,-0.35937 -9.85,0 -24.34,2.67969 -24.34,25.42191 V 128.5" /><path
         id="path60"
         style="fill:#ee2a27;fill-opacity:1;fill-rule:nonzero;stroke:none"
         d="m 3809.89,64.25 c 15.22,0 24.52,9.4883 24.52,24.6992 0,15.2108 -9.3,24.1598 -24.34,24.1598 h -25.76 V 64.25 Z m -43.31,64.25 h 46.18 c 23.09,0 39.73,-15.57 39.73,-39.5508 0,-23.9804 -16.64,-40.0898 -39.73,-40.0898 h -28.45 V 2.14844 h -17.73 V 128.5" /><path
         id="path62"
         style="fill:#ee2a27;fill-opacity:1;fill-rule:nonzero;stroke:none"
         d="m 3912.11,15.0313 c 17.18,0 31.14,13.5976 31.14,32.5703 0,18.7968 -13.96,32.2187 -31.14,32.2187 -17.01,0 -31.14,-13.4219 -31.14,-32.2187 0,-18.9727 14.13,-32.5703 31.14,-32.5703 z m 0,79.8203 c 27.02,0 48.86,-19.8633 48.86,-47.25 C 3960.97,20.0508 3939.13,0 3912.11,0 c -27.03,0 -48.86,20.0508 -48.86,47.6016 0,27.3867 21.83,47.25 48.86,47.25" /><path
         id="path64"
         style="fill:#ee2a27;fill-opacity:1;fill-rule:nonzero;stroke:none"
         d="m 3980.85,25.6016 c 0,0 10.2,-10.5703 25.95,-10.5703 7.52,0 15.03,3.9375 15.03,11.2773 0,16.6406 -46.53,13.2422 -46.53,42.7695 0,16.461 14.68,25.7735 32.75,25.7735 19.87,0 29.17,-10.0196 29.17,-10.0196 l -6.97,-13.0703 c 0,0 -8.06,8.0586 -22.38,8.0586 -7.51,0 -14.85,-3.2187 -14.85,-11.0898 0,-16.2891 46.53,-12.711 46.53,-42.4219 C 4039.55,11.2813 4026.66,0 4006.8,0 c -22.19,0 -34.36,13.2383 -34.36,13.2383 l 8.41,12.3633" /><path
         id="path66"
         style="fill:#ee2a27;fill-opacity:1;fill-rule:nonzero;stroke:none"
         d="m 4059.25,25.6016 c 0,0 10.2,-10.5703 25.95,-10.5703 7.52,0 15.03,3.9375 15.03,11.2773 0,16.6406 -46.52,13.2422 -46.52,42.7695 0,16.461 14.67,25.7735 32.75,25.7735 19.86,0 29.17,-10.0196 29.17,-10.0196 l -6.98,-13.0703 c 0,0 -8.06,8.0586 -22.37,8.0586 -7.52,0 -14.86,-3.2187 -14.86,-11.0898 0,-16.2891 46.53,-12.711 46.53,-42.4219 C 4117.95,11.2813 4105.07,0 4085.2,0 c -22.19,0 -34.36,13.2383 -34.36,13.2383 l 8.41,12.3633" /><path
         id="path68"
         style="fill:#ee2a27;fill-opacity:1;fill-rule:nonzero;stroke:none"
         d="m 4136.59,92.7109 h 17.36 V 2.14844 h -17.36 z m -0.18,35.7891 h 17.54 v -17.719 h -17.54 V 128.5" /><path
         id="path70"
         style="fill:#ee2a27;fill-opacity:1;fill-rule:nonzero;stroke:none"
         d="m 4221.78,14.8594 c 14.32,0 26.13,11.8125 26.13,32.3906 0,19.6797 -10.56,32.3906 -25.59,32.3906 -13.61,0 -26.13,-9.4804 -26.13,-32.5703 0,-16.1094 8.41,-32.2109 25.59,-32.2109 z M 4179.36,128.5 h 17.36 V 87.1602 c 0,-4.4688 -0.35,-7.6993 -0.35,-7.6993 h 0.35 c 0,0 7.7,15.3907 29,15.3907 24.34,0 39.73,-19.3321 39.73,-47.4297 C 4265.45,18.6094 4248.08,0 4224.28,0 c -20.22,0 -28.45,15.5703 -28.45,15.5703 h -0.36 c 0,0 0.36,-2.8594 0.36,-6.80077 V 2.14844 h -16.47 V 128.5" /><path
         id="path72"
         style="fill:#ee2a27;fill-opacity:1;fill-rule:nonzero;stroke:none"
         d="m 4284.97,92.7109 h 17.37 V 2.14844 h -17.37 z m -0.18,35.7891 h 17.55 v -17.719 h -17.55 V 128.5" /><path
         id="path74"
         style="fill:#ee2a27;fill-opacity:1;fill-rule:nonzero;stroke:none"
         d="m 4326.68,128.5 h 17.37 V 29.8906 c 0,-10.9218 4.29,-12.8906 9.66,-12.8906 1.61,0 3.04,0.1797 3.04,0.1797 V 1.78906 c 0,0 -2.68,-0.35937 -5.73,-0.35937 -9.84,0 -24.34,2.67969 -24.34,25.42191 V 128.5" /><path
         id="path76"
         style="fill:#ee2a27;fill-opacity:1;fill-rule:nonzero;stroke:none"
         d="m 4373.4,92.7109 h 17.36 V 2.14844 h -17.36 z m -0.18,35.7891 h 17.54 v -17.719 h -17.54 V 128.5" /><path
         id="path78"
         style="fill:#ee2a27;fill-opacity:1;fill-rule:nonzero;stroke:none"
         d="m 4419.94,77.4883 h -11.81 v 13.9609 h 12.35 v 26.1328 h 16.82 V 91.4492 h 21.84 V 77.4883 H 4437.3 V 37.2188 c 0,-18.0704 12.71,-20.3985 19.33,-20.3985 2.51,0 4.11,0.3594 4.11,0.3594 V 1.78906 c 0,0 -2.5,-0.35937 -6.08,-0.35937 -11.63,0 -34.72,3.58203 -34.72,33.83201 v 42.2266" /><path
         id="path80"
         style="fill:#ee2a27;fill-opacity:1;fill-rule:nonzero;stroke:none"
         d="m 4478.47,92.7109 h 17.37 V 2.14844 h -17.37 z m -0.18,35.7891 h 17.55 v -17.719 h -17.55 V 128.5" /><path
         id="path82"
         style="fill:#ee2a27;fill-opacity:1;fill-rule:nonzero;stroke:none"
         d="m 4581.74,57.9922 c -0.54,15.5664 -10.2,23.0781 -21.83,23.0781 -13.25,0 -23.98,-8.2305 -26.49,-23.0781 z m -21.47,36.8594 c 25.59,0 39.19,-18.9727 39.19,-42.4102 0,-2.332 -0.54,-7.5195 -0.54,-7.5195 h -66.04 c 0.9,-19.8633 15.03,-29.8906 31.14,-29.8906 15.57,0 26.85,10.5703 26.85,10.5703 l 7.16,-12.711 c 0,0 -13.42,-12.8906 -35.08,-12.8906 -28.46,0 -47.96,20.5781 -47.96,47.4219 0,28.8164 19.5,47.4297 45.28,47.4297" /><path
         id="path84"
         style="fill:#ee2a27;fill-opacity:1;fill-rule:nonzero;stroke:none"
         d="m 4619.88,25.6016 c 0,0 10.2,-10.5703 25.95,-10.5703 7.52,0 15.03,3.9375 15.03,11.2773 0,16.6406 -46.53,13.2422 -46.53,42.7695 0,16.461 14.68,25.7735 32.75,25.7735 19.87,0 29.17,-10.0196 29.17,-10.0196 l -6.97,-13.0703 c 0,0 -8.06,8.0586 -22.38,8.0586 -7.51,0 -14.85,-3.2187 -14.85,-11.0898 0,-16.2891 46.53,-12.711 46.53,-42.4219 C 4678.58,11.2813 4665.69,0 4645.83,0 c -22.19,0 -34.36,13.2383 -34.36,13.2383 l 8.41,12.3633" /><path
         id="path86"
         style="fill:#ee2a27;fill-opacity:1;fill-rule:nonzero;stroke:none"
         d="m 4746.26,77.4883 h -11.28 v 13.9609 h 11.28 V 95.75 c 0,29.891 22.55,33.641 34,33.641 3.94,0 6.62,-0.539 6.62,-0.539 V 114 c 0,0 -1.79,0.359 -4.47,0.359 -6.63,0 -18.97,-2.14 -18.97,-18.9684 v -3.9414 h 21.47 V 77.4883 h -21.47 V 2.14844 h -17.18 V 77.4883" /><path
         id="path88"
         style="fill:#ee2a27;fill-opacity:1;fill-rule:nonzero;stroke:none"
         d="m 4799.78,92.7109 h 16.82 v -15.75 c 0,-3.7617 -0.36,-6.8007 -0.36,-6.8007 h 0.36 c 4.12,13.2382 14.68,23.6211 28.64,23.6211 2.32,0 4.47,-0.3594 4.47,-0.3594 V 76.2383 c 0,0 -2.33,0.543 -5.01,0.543 -11.1,0 -21.3,-7.8711 -25.41,-21.3008 -1.62,-5.1914 -2.15,-10.7305 -2.15,-16.2891 V 2.14844 h -17.36 V 92.7109" /><path
         id="path90"
         style="fill:#ee2a27;fill-opacity:1;fill-rule:nonzero;stroke:none"
         d="m 4906.82,15.0313 c 17.18,0 31.14,13.5976 31.14,32.5703 0,18.7968 -13.96,32.2187 -31.14,32.2187 -17.01,0 -31.14,-13.4219 -31.14,-32.2187 0,-18.9727 14.13,-32.5703 31.14,-32.5703 z m 0,79.8203 c 27.02,0 48.86,-19.8633 48.86,-47.25 C 4955.68,20.0508 4933.84,0 4906.82,0 c -27.03,0 -48.86,20.0508 -48.86,47.6016 0,27.3867 21.83,47.25 48.86,47.25" /><path
         id="path92"
         style="fill:#ee2a27;fill-opacity:1;fill-rule:nonzero;stroke:none"
         d="m 4974.48,92.7109 h 16.83 v -12 c 0,-3.582 -0.36,-6.6211 -0.36,-6.6211 h 0.36 c 4.29,10.5586 17,20.7618 31.14,20.7618 15.21,0 24.16,-6.9727 27.2,-20.5821 h 0.36 c 5.01,10.9219 17.54,20.5821 32.22,20.5821 20.4,0 29.88,-11.6328 29.88,-34.7227 V 2.14844 h -17.36 V 56.3711 c 0,12.707 -2.5,22.7383 -16.11,22.7383 -12.71,0 -22.19,-10.7383 -25.41,-23.0899 -0.9,-3.7578 -1.25,-7.8789 -1.25,-12.5312 V 2.14844 h -17.36 V 56.3711 c 0,11.8203 -1.79,22.7383 -15.75,22.7383 -13.24,0 -22.55,-10.918 -25.95,-23.8086 -0.89,-3.582 -1.07,-7.6992 -1.07,-11.8125 V 2.14844 h -17.37 V 92.7109" /></g></g></svg>