<?xml version="1.0" encoding="UTF-8" standalone="no"?>
<svg
   xmlns:dc="http://purl.org/dc/elements/1.1/"
   xmlns:cc="http://creativecommons.org/ns#"
   xmlns:rdf="http://www.w3.org/1999/02/22-rdf-syntax-ns#"
   xmlns:svg="http://www.w3.org/2000/svg"
   xmlns="http://www.w3.org/2000/svg"
   viewBox="0 0 1122.52 793.70667"
   height="793.70667"
   width="1122.52"
   xml:space="preserve"
   id="svg2"
   version="1.1"><metadata
     id="metadata8"><rdf:RDF><cc:Work
         rdf:about=""><dc:format>image/svg+xml</dc:format><dc:type
           rdf:resource="http://purl.org/dc/dcmitype/StillImage" /></cc:Work></rdf:RDF></metadata><defs
     id="defs6"><clipPath
       id="clipPath18"
       clipPathUnits="userSpaceOnUse"><path
         id="path16"
         d="M 0,595.28 H 841.89 V 0 H 0 Z" /></clipPath></defs><g
     transform="matrix(1.3333333,0,0,-1.3333333,0,793.70667)"
     id="g10"><g
       id="g12"><g
         clip-path="url(#clipPath18)"
         id="g14"><g
           transform="translate(486.627,266.8232)"
           id="g20"><path
             id="path22"
             style="fill:#006ab4;fill-opacity:1;fill-rule:nonzero;stroke:none"
             d="m 0,0 c 0,0 11.215,-3.11 25.539,-3.11 15.266,0 22.332,1.696 22.332,1.696 v 11.31 c 0,0 -7.633,-1.509 -18.281,-1.509 -9.328,0 -15.078,1.226 -15.078,1.226 v 16.02 H 43.445 V 36.942 H 14.512 v 15.267 c 0,0 5.654,1.037 14.136,1.037 9.52,0 18.094,-1.508 18.094,-1.508 v 11.404 c 0,0 -7.539,1.602 -19.791,1.602 C 10.648,64.744 0,61.82 0,61.82 Z m -206.767,25.729 c -0.378,-0.944 -0.847,-2.735 -1.13,-3.772 -0.283,1.037 -0.754,2.828 -1.13,3.772 l -12.819,32.888 c -2.167,5.466 -5.558,6.127 -11.779,6.127 -2.168,0 -6.598,-0.283 -6.598,-0.283 l -6.596,-66.629 h 14.608 l 3.203,44.67 13.853,-33.832 c 1.038,-2.639 3.111,-3.676 7.258,-3.676 4.145,0 6.219,1.037 7.255,3.676 l 13.853,33.832 3.206,-44.67 h 14.606 l -6.596,66.629 c 0,0 -4.43,0.283 -6.596,0.283 -6.22,0 -9.612,-0.661 -11.781,-6.127 z m -73.13,-13.666 c -3.111,-1.226 -10.651,-3.676 -16.21,-3.676 -6.032,0 -10.556,2.073 -10.556,8.671 0,5.748 3.109,9.046 11.405,9.329 l 15.361,0.565 z m -8.671,52.681 c -13.006,0 -23.184,-3.205 -27.142,-5.184 l 3.11,-10.932 c 0,0 9.991,3.581 19.79,3.581 8.388,0 12.723,-2.355 12.723,-10.648 v -4.713 h -12.723 c -21.581,0 -27.99,-9.896 -27.99,-20.828 0,-14.512 11.31,-19.13 21.582,-19.13 11.968,0 18.944,4.994 19.791,4.994 0.66,0 3.11,-2.638 14.041,-2.638 v 46.178 c 0,13.852 -8.575,19.32 -23.182,19.32 m 174.912,-52.681 c -3.11,-1.226 -10.65,-3.676 -16.209,-3.676 -6.032,0 -10.556,2.073 -10.556,8.671 0,5.748 3.11,9.046 11.403,9.329 l 15.362,0.565 z m -8.672,52.681 c -13.005,0 -23.182,-3.205 -27.141,-5.184 l 3.111,-10.932 c 0,0 9.991,3.581 19.79,3.581 8.388,0 12.722,-2.355 12.722,-10.648 v -4.713 h -12.722 c -21.58,0 -27.991,-9.896 -27.991,-20.828 0,-14.512 11.31,-19.13 21.584,-19.13 11.968,0 18.941,4.994 19.789,4.994 0.661,0 3.111,-2.638 14.042,-2.638 v 46.178 c 0,13.852 -8.575,19.32 -23.184,19.32 M 108.848,14.419 C 105.361,12.724 97.822,9.896 90.943,9.896 c -9.992,0 -11.687,4.523 -11.687,14.889 v 39.394 h -2.168 c -3.297,0 -10.649,-0.566 -12.44,-0.944 V 22.9 c 0,-17.624 4.336,-26.01 22.241,-26.01 13.666,0 21.675,5.276 22.24,5.276 0.189,0 4.902,-2.92 14.33,-2.92 v 63.989 c -1.037,0.189 -8.109,0.944 -11.691,0.944 h -2.92 z m 31.865,-15.173 c 0,0 9.047,-2.356 21.676,-2.356 11.968,0 27.047,4.051 27.047,20.26 0,10.557 -7.823,15.08 -20.545,19.698 -6.879,2.545 -12.723,4.806 -12.723,9.519 0,2.261 1.697,6.69 10.461,6.69 8.199,0 16.588,-3.769 16.588,-3.769 l 3.676,10.837 c -2.454,1.226 -10.463,4.619 -21.582,4.619 -12.063,0 -23.844,-6.409 -23.844,-19.32 0,-13.289 12.062,-17.341 21.486,-20.451 6.41,-2.167 11.781,-4.43 11.781,-8.67 0,-4.145 -2.261,-7.728 -13.099,-7.728 -8.86,0 -18.283,1.979 -18.283,1.979 z M -63.332,52.115 c 2.355,0.471 6.975,1.131 11.592,1.131 10.554,0 18.849,-5.937 18.849,-21.96 0,-15.55 -4.054,-22.899 -20.168,-22.899 -5.183,0 -10.273,0.754 -10.273,0.754 z m 12.252,12.629 c -8.293,0 -19.792,-1.414 -26.859,-3.958 V -1.131 c 5.844,-1.226 16.777,-1.979 24.41,-1.979 26.009,0 36.093,10.178 36.093,34.396 0,20.923 -12.818,33.458 -33.644,33.458" /></g></g></g></g></svg>