<?xml version="1.0" encoding="UTF-8"?>
<!DOCTYPE svg PUBLIC "-//W3C//DTD SVG 1.1//EN" "http://www.w3.org/Graphics/SVG/1.1/DTD/svg11.dtd">
<!-- Creator: CorelDRAW X6 -->
<svg xmlns="http://www.w3.org/2000/svg" xml:space="preserve" width="3.58333in" height="4.11111in" version="1.1" style="shape-rendering:geometricPrecision; text-rendering:geometricPrecision; image-rendering:optimizeQuality; fill-rule:evenodd; clip-rule:evenodd"
viewBox="0 0 3583 4111"
 xmlns:xlink="http://www.w3.org/1999/xlink">
 <defs>
  <style type="text/css">
   <![CDATA[
    .fil0 {fill:#282828;fill-rule:nonzero}
    .fil1 {fill:#29A0DA;fill-rule:nonzero}
   ]]>
  </style>
 </defs>
 <g id="Layer_x0020_1">
  <metadata id="CorelCorpID_0Corel-Layer"/>
  <path class="fil0" d="M1796 2772l0 -71c0,-10 -7,-17 -17,-17l-462 0c-10,0 -17,7 -17,17l0 71c0,10 7,17 17,17l174 0 0 511c0,10 7,17 17,17l80 0c10,0 17,-7 17,-17l0 -511 174 0c10,0 17,-7 17,-17zm583 524c10,11 4,22 -9,22l-101 0c-14,0 -21,-3 -29,-14l-60 -67c-40,54 -97,94 -190,94 -116,0 -207,-70 -207,-189 0,-92 49,-141 124,-182 -36,-42 -53,-86 -53,-125 0,-98 69,-166 173,-166 106,0 171,63 171,155 0,79 -57,124 -117,157l89 96 50 -87c6,-10 13,-14 26,-14l77 0c13,0 20,9 12,22l-89 152 134 145zm-351 -528c-41,0 -65,26 -65,61 0,27 14,51 47,86 56,-32 80,-52 80,-87 0,-33 -21,-59 -62,-59zm-36 465c51,0 85,-25 113,-67l-128 -138c-49,28 -81,55 -81,111 0,55 44,93 97,93zm-616 65c4,10 -2,21 -13,21l-82 0c-12,0 -19,-6 -23,-17l-47 -135 -256 0 -47 135c-4,11 -11,17 -23,17l-78 0c-10,0 -17,-10 -13,-21l215 -598c4,-11 11,-16 23,-16l106 0c12,0 20,5 24,16l215 598zm-202 -235l-91 -262 -92 262 183 0zm1601 -379c10,0 17,7 17,17l0 71c0,10 -7,17 -17,17l-174 0 0 511c0,10 -7,17 -17,17l-80 0c-10,0 -17,-7 -17,-17l0 -511 -174 0c-10,0 -17,-7 -17,-17l0 -71c0,-10 7,-17 17,-17l462 0z"/>
  <path class="fil1" d="M2198 896c-119,-71 -257,-112 -406,-112 -150,0 -292,42 -411,115 -36,22 -56,40 -56,62 0,67 156,139 433,139 274,0 487,-79 487,-155 0,-18 -16,-31 -48,-50zm118 88c3,5 5,11 5,18 0,88 -269,244 -698,244 -315,0 -374,-117 -374,-191 0,-27 10,-54 33,-81 1,-2 0,-2 -1,-1 -41,35 -79,74 -112,116 -16,20 -26,38 -26,48 0,154 386,266 748,266 385,0 557,-126 557,-236 0,-39 -15,-63 -55,-107 -26,-29 -50,-53 -75,-76 -1,-1 -2,0 -1,1zm-1240 253c-23,46 -49,124 -57,164 -3,17 -2,26 4,38 49,103 295,268 868,268 350,0 622,-86 666,-243 8,-29 9,-59 -2,-101 -12,-46 -33,-100 -52,-137 -1,-1 -2,-1 -1,0 7,206 -567,339 -857,339 -314,0 -575,-125 -575,-283 0,-15 3,-30 7,-46 0,-1 -1,-2 -1,0zm557 658c-406,0 -597,-189 -632,-318 0,-2 -2,-1 -2,0 0,43 4,100 12,137 4,18 18,47 40,69 98,102 343,246 767,246 578,0 710,-193 737,-256 19,-45 29,-127 29,-196 0,-17 0,-30 -1,-43 0,-2 -1,-2 -2,0 -29,155 -523,361 -949,361zm213 349c195,0 409,-53 538,-159 35,-29 69,-67 98,-118 17,-30 34,-65 48,-99 1,-2 0,-3 -2,-1 -119,176 -464,285 -821,285 -252,0 -523,-81 -629,-235 -1,-1 -2,-1 -1,1 99,210 399,325 769,325zm-540 -41c134,104 303,167 486,167 200,0 383,-74 522,-197 2,-1 1,-3 -1,-1 -63,42 -241,133 -521,133 -244,0 -398,-54 -485,-103 -2,-1 -2,0 -1,1z"/>
 </g>
</svg>
