<?xml version="1.0" encoding="UTF-8" standalone="no"?>
<svg
   xmlns:dc="http://purl.org/dc/elements/1.1/"
   xmlns:cc="http://creativecommons.org/ns#"
   xmlns:rdf="http://www.w3.org/1999/02/22-rdf-syntax-ns#"
   xmlns:svg="http://www.w3.org/2000/svg"
   xmlns="http://www.w3.org/2000/svg"
   viewBox="0 0 718.1333 215.98666"
   height="215.98666"
   width="718.1333"
   xml:space="preserve"
   id="svg2"
   version="1.1"><metadata
     id="metadata8"><rdf:RDF><cc:Work
         rdf:about=""><dc:format>image/svg+xml</dc:format><dc:type
           rdf:resource="http://purl.org/dc/dcmitype/StillImage" /></cc:Work></rdf:RDF></metadata><defs
     id="defs6" /><g
     transform="matrix(1.3333333,0,0,-1.3333333,0,215.98667)"
     id="g10"><g
       transform="scale(0.1)"
       id="g12"><path
         id="path14"
         style="fill:#231f20;fill-opacity:1;fill-rule:nonzero;stroke:none"
         d="m 1298.28,1619.92 c -116.6,0 -211.56,-95.43 -211.56,-212 0,-116.56 94.96,-211.56 211.56,-211.56 116.52,0 211.52,95 211.52,211.56 0,116.57 -95,212 -211.52,212 z m 3875.74,0 c -116.6,0 -211.56,-95.47 -211.56,-212 0,-116.52 95.04,-211.56 211.56,-211.56 116.53,0 212,94.96 212,211.56 0,116.61 -95.39,212 -212,212 z m -3875.74,-55.28 c 86.84,0 156.72,-69.88 156.72,-156.72 0,-86.83 -69.88,-156.72 -156.72,-156.72 -86.87,0 -156.76,69.89 -156.76,156.72 0,86.84 69.89,156.72 156.76,156.72 z M 0,1140.23 V 24.1797 h 618.711 c 70.16,0 132.031,7.1523 185.199,22.0312 54.211,15.9375 99.41,37.9688 135.578,65.6171 36.133,27.66 63.092,59.934 81.172,97.152 18.05,38.282 27.19,79.692 27.19,124.34 v 3.442 c 0,76.558 -21.37,135.578 -63.901,177.027 -42.539,41.441 -99.969,72.852 -172.269,94.102 60.621,21.289 108.941,51.992 145.078,92.422 36.133,41.445 54.372,95.781 54.372,162.726 v 3.055 c 0,38.273 -6.21,71.867 -18.982,100.578 -12.738,28.707 -29.449,53.208 -49.648,73.398 -32.969,32.97 -75.039,57.7 -126.051,74.69 -49.969,17.03 -113.679,25.47 -191.289,25.47 z m 1111.76,0 V 24.1797 h 373.01 V 1140.23 Z m 443.83,0 V 824.641 h 328.55 V 24.1797 h 373.48 V 824.641 h 328.08 v 315.589 z m 2110.78,0 L 4119.3,15.9688 h 357.03 L 4929.22,1140.23 H 4518.2 L 4301.05,513.789 4084.3,1140.23 Z m 1321.13,0 V 24.1797 h 373.05 V 1140.23 Z M 363.551,857.879 H 525 c 79.73,0 119.609,-25.387 119.609,-76.399 v -3.042 c 0,-51.016 -39.648,-76.836 -118.32,-76.836 v 0.386 H 363.551 V 857.813 Z M 3175.94,1164.41 c -86.14,0 -166.1,-15.35 -240.51,-46.17 -74.41,-29.77 -139.45,-71.64 -194.73,-124.771 -54.22,-52.11 -97.18,-113.586 -129.06,-184.797 -30.86,-70.156 -46.21,-145.859 -46.21,-226.684 v -3.008 c 0,-80.781 15.35,-156.761 46.21,-227.968 30.82,-70.153 73.13,-131.403 127.34,-183.473 C 2794.26,115.43 2858.63,74.6914 2931.99,44.9219 3006.41,15.1484 3086.76,0 3172.89,0 c 86.13,0 166.49,15.1484 240.94,44.9219 74.41,30.8164 138.75,72.2261 192.97,124.3401 55.27,53.16 98.28,114.609 129.1,184.797 31.87,71.211 47.89,147.152 47.89,227.929 v 3.481 c 0,80.781 -15.35,156.054 -46.17,226.203 -30.82,71.25 -74.26,133.133 -129.53,185.238 -54.22,52.07 -118.13,92.85 -192.54,122.62 -73.36,29.76 -153.52,44.88 -239.61,44.88 z m -3.05,-330.281 c 36.13,0 68.44,-6.91 97.15,-20.738 28.71,-13.786 53.2,-32.258 73.4,-55.661 20.19,-23.394 35.54,-50.781 46.21,-81.597 11.68,-29.77 17.69,-61.172 17.69,-94.145 v -3.008 c 0,-32.968 -5.35,-64.371 -15.97,-94.14 -10.67,-29.758 -26.02,-56.442 -46.21,-79.84 -20.2,-22.352 -44.69,-40.16 -73.4,-53.988 -28.71,-13.821 -60.31,-20.703 -95.43,-20.703 -36.13,0 -68.83,6.882 -97.54,20.703 -28.71,13.828 -53.2,32.308 -73.4,55.707 -20.19,23.402 -35.82,50.113 -47.5,79.883 -10.62,30.82 -15.98,62.457 -15.98,95.386 v 3.481 c 0,32.929 5.36,64.336 15.98,94.097 10.63,29.77 25.98,55.825 46.21,78.164 20.2,23.403 44.69,41.875 73.4,55.661 28.67,13.828 60.31,20.738 95.39,20.738 z M 363.551,472.34 h 188.207 c 40.433,0 70.902,-7.578 91.133,-22.461 C 663.09,435 673.09,415.191 673.09,390.738 v -3.008 c 0,-24.449 -10.668,-44.289 -31.961,-59.14 -20.191,-14.918 -50.231,-22.461 -90.66,-22.461 H 363.551 V 472.34" /></g></g></svg>