<?xml version="1.0" encoding="UTF-8"?>
<!DOCTYPE svg PUBLIC "-//W3C//DTD SVG 1.1//EN" "http://www.w3.org/Graphics/SVG/1.1/DTD/svg11.dtd">
<!-- Creator: CorelDRAW X6 -->
<svg xmlns="http://www.w3.org/2000/svg" xml:space="preserve" width="6.09722in" height="2.125in" version="1.1" style="shape-rendering:geometricPrecision; text-rendering:geometricPrecision; image-rendering:optimizeQuality; fill-rule:evenodd; clip-rule:evenodd"
viewBox="0 0 6097 2125"
 xmlns:xlink="http://www.w3.org/1999/xlink">
 <defs>
  <style type="text/css">
   <![CDATA[
    .fil0 {fill:#373435;fill-rule:nonzero}
   ]]>
  </style>
 </defs>
 <g id="Layer_x0020_1">
  <metadata id="CorelCorpID_0Corel-Layer"/>
  <path class="fil0" d="M5674 197c-397,-438 -2955,-44 -4042,194l-25 5c-5,1 -9,6 -8,11 1,5 6,9 11,8l25 -5c901,-160 2775,-383 3178,17 123,122 94,279 -49,464 77,49 132,127 156,224 557,-370 931,-723 754,-919zm-1655 1340c0,0 -1,0 -1,1 -252,178 -551,366 -872,563l-13 7c-4,3 -5,9 -2,13 2,3 5,4 8,4l0 0c2,0 4,-1 5,-2l11 -6c273,-142 586,-311 900,-484 2,-1 3,-2 5,-3 -17,-28 -32,-60 -42,-94z"/>
  <path class="fil0" d="M4049 1413c-9,-263 197,-532 497,-532 200,0 332,134 339,338 10,278 -183,532 -497,532 -200,0 -332,-133 -339,-338zm130 8c5,154 103,281 230,281 247,0 352,-303 344,-505 -5,-155 -105,-281 -232,-281 -212,0 -349,302 -342,505z"/>
  <path class="fil0" d="M1472 1182c-1,24 -5,45 -12,82l-44 247c-4,22 4,39 25,51l-1 10 -252 0 -2 -63c-37,22 -81,41 -121,52 -40,10 -72,15 -121,15 -81,0 -128,-8 -160,-37 -33,-29 -49,-48 -47,-89 1,-23 13,-53 30,-73 17,-21 41,-35 67,-47 26,-12 57,-21 101,-28 45,-7 107,-14 190,-21 44,-4 70,-14 83,-19 17,-7 24,-14 27,-28 5,-25 -3,-40 -37,-47 -91,-18 -261,12 -349,34l48 -129c116,-17 224,-28 339,-28 182,0 240,52 238,118zm-260 162c-11,4 -25,8 -42,12 -17,4 -48,9 -94,17 -31,5 -53,11 -65,20 -12,9 -19,19 -21,32 -2,14 2,24 14,33 12,8 32,13 60,13 21,0 42,-3 62,-10 20,-7 38,-16 51,-27 10,-8 17,-19 22,-32 3,-8 7,-27 12,-57z"/>
  <path class="fil0" d="M2304 964c7,-41 71,-74 143,-74 72,0 124,33 117,74 -8,41 -72,74 -143,74 -72,0 -124,-33 -117,-74zm-101 608l88 -494 242 0 -88 494 -242 0z"/>
  <path class="fil0" d="M3650 1183c-1,24 -5,46 -12,82l-44 248c-4,22 4,39 25,51l-2 9 -252 0 -2 -63c-37,22 -81,41 -121,52 -40,11 -73,15 -121,15 -81,0 -128,-8 -160,-37 -33,-29 -49,-48 -47,-88 1,-23 13,-53 30,-73 17,-21 41,-35 67,-47 26,-12 57,-21 101,-29 45,-7 107,-14 190,-21 43,-4 70,-13 82,-18 18,-7 25,-14 27,-29 4,-25 -3,-40 -37,-47 -91,-18 -261,12 -349,33l47 -129c116,-17 224,-28 339,-28 181,0 239,52 238,118zm-260 162c-11,4 -25,8 -42,12 -17,4 -48,9 -94,16 -31,5 -53,11 -65,20 -12,9 -18,19 -21,32 -3,14 2,25 14,33 12,8 32,12 61,12 21,0 42,-3 62,-10 21,-7 38,-16 51,-27 9,-8 16,-19 21,-32 3,-8 7,-27 13,-57z"/>
  <path class="fil0" d="M703 1395c-79,16 -123,22 -201,22 -115,0 -207,-57 -202,-162 4,-70 86,-218 297,-218 66,0 118,12 188,51l31 -172c-95,-36 -157,-41 -239,-40 -276,3 -541,128 -574,384 -33,259 283,324 424,324 81,0 166,-4 244,-12l32 -177z"/>
  <path class="fil0" d="M2665 1075l17 -101 253 -55 -27 156 124 0 -24 100 -120 0 -73 397c0,0 -243,-2 -244,0l73 -396 -92 0 19 -100 94 0z"/>
  <polygon class="fil0" points="3896,1572 3650,1572 3773,883 4013,890 "/>
  <path class="fil0" d="M1444 1743l118 -662 212 0 -16 85c18,-25 48,-46 88,-63 41,-17 87,-29 137,-29 55,0 90,3 131,24 41,22 70,53 86,94 16,40 19,85 11,135 -14,82 -54,146 -119,193 -65,47 -123,60 -206,60 -29,0 -54,-3 -75,-8 -20,-5 -36,-12 -48,-19 -12,-8 -24,-19 -40,-36l-40 227 -238 0zm440 -549c-32,0 -60,10 -86,29 -25,19 -41,47 -48,85 -8,43 -3,74 14,93 17,19 42,29 75,29 22,0 45,-4 61,-12 21,-11 35,-22 47,-41 13,-19 22,-40 27,-65 7,-39 1,-68 -17,-88 -18,-20 -42,-30 -73,-30z"/>
  <path class="fil0" d="M5850 1559l19 13c-48,98 -147,178 -262,178 -95,0 -172,-63 -176,-181 -8,-212 191,-409 353,-409 70,0 134,30 137,105 6,168 -231,220 -386,223 -5,18 -7,35 -6,62 3,70 45,129 132,129 75,0 151,-61 189,-121zm-21 -304c-1,-40 -21,-67 -63,-67 -99,0 -204,194 -223,272 163,0 289,-97 285,-206z"/>
  <path class="fil0" d="M4881 1249c17,-2 44,-5 55,-5 18,0 34,3 35,21 0,10 -19,85 -23,103l-38 166c-15,68 -32,139 -46,195l97 0 54 -263c166,-173 230,-229 269,-229 18,0 30,9 31,30 1,30 -18,100 -24,119l-56 192c-13,43 -22,82 -21,110 2,42 27,61 65,61 71,0 122,-74 167,-146l-13 -24c-18,29 -60,93 -93,93 -10,0 -20,-7 -21,-25 -1,-22 8,-56 15,-78l62 -225c17,-62 24,-102 24,-123 -2,-42 -26,-62 -64,-62 -64,0 -148,47 -327,253l-3 0 23 -101c12,-55 24,-112 36,-152 -62,22 -151,47 -206,58l1 32z"/>
  <path class="fil0" d="M6023 1064c13,0 24,-1 24,-16 0,-12 -11,-15 -22,-15l-20 0 0 31 18 0zm-18 56l-15 0 0 -99 38 0c23,0 35,9 35,28 0,18 -11,25 -26,27l28 44 -17 0 -26 -43 -17 0 0 43zm18 22c39,0 70,-30 70,-72 0,-41 -31,-71 -70,-71 -40,0 -70,31 -70,71 0,42 31,72 70,72zm-87 -72c0,-49 40,-86 87,-86 47,0 87,36 87,86 0,50 -40,86 -87,86 -47,0 -87,-36 -87,-86z"/>
 </g>
</svg>
