<?xml version="1.0" encoding="UTF-8" standalone="no"?>
<svg
   xmlns:dc="http://purl.org/dc/elements/1.1/"
   xmlns:cc="http://creativecommons.org/ns#"
   xmlns:rdf="http://www.w3.org/1999/02/22-rdf-syntax-ns#"
   xmlns:svg="http://www.w3.org/2000/svg"
   xmlns="http://www.w3.org/2000/svg"
   viewBox="0 0 321.82132 38.419868"
   height="38.419868"
   width="321.82132"
   xml:space="preserve"
   id="svg2"
   version="1.1"><metadata
     id="metadata8"><rdf:RDF><cc:Work
         rdf:about=""><dc:format>image/svg+xml</dc:format><dc:type
           rdf:resource="http://purl.org/dc/dcmitype/StillImage" /></cc:Work></rdf:RDF></metadata><defs
     id="defs6"><clipPath
       id="clipPath30"
       clipPathUnits="userSpaceOnUse"><path
         id="path28"
         d="M 0,28.815 H 241.366 V 0 H 0 Z" /></clipPath></defs><g
     transform="matrix(1.3333333,0,0,-1.3333333,0,38.419867)"
     id="g10"><path
       id="path12"
       style="fill:#173e79;fill-opacity:1;fill-rule:nonzero;stroke:none"
       d="M 0,0.69 H 55.204 V 8.636 H 0 Z" /><path
       id="path14"
       style="fill:#173e79;fill-opacity:1;fill-rule:nonzero;stroke:none"
       d="m 0,20.354 h 11.041 v 7.944 H 0 Z" /><path
       id="path16"
       style="fill:#173e79;fill-opacity:1;fill-rule:nonzero;stroke:none"
       d="m 22.081,20.354 h 11.042 v 7.944 H 22.081 Z" /><path
       id="path18"
       style="fill:#173e79;fill-opacity:1;fill-rule:nonzero;stroke:none"
       d="m 44.163,20.354 h 11.041 v 7.944 H 44.163 Z" /><path
       id="path20"
       style="fill:#173e79;fill-opacity:1;fill-rule:nonzero;stroke:none"
       d="m 0,10.525 h 26.652 v 7.94 H 0 Z" /><path
       id="path22"
       style="fill:#173e79;fill-opacity:1;fill-rule:nonzero;stroke:none"
       d="M 55.204,10.524 H 28.552 v 7.94 h 26.652 z" /><g
       id="g24"><g
         clip-path="url(#clipPath30)"
         id="g26"><g
           transform="translate(96.9611,1.6228)"
           id="g32"><path
             id="path34"
             style="fill:#173e79;fill-opacity:1;fill-rule:nonzero;stroke:none"
             d="M 0,0 C 3.648,0.12 4.459,0.809 4.459,2.309 V 23.302 C 4.459,24.8 3.648,25.53 0,25.652 v 0.891 H 12.766 V 25.652 C 9.119,25.53 8.308,24.8 8.308,23.302 V 2.309 C 8.308,0.809 9.119,0.12 12.766,0 V -0.933 H 0 Z" /></g><g
           transform="translate(118.3167,1.6228)"
           id="g36"><path
             id="path38"
             style="fill:#173e79;fill-opacity:1;fill-rule:nonzero;stroke:none"
             d="M 0,0 C 3.608,0.12 4.702,0.809 4.702,2.309 V 25.411 H 2.676 c -3.405,0 -5.148,-0.022 -7.134,-5.008 l -0.892,0.082 0.243,6.058 h 23.426 l 0.284,-6.058 -0.892,-0.082 c -1.824,4.663 -3.608,5.008 -7.133,5.008 H 8.511 V 2.309 c 0,-1.5 1.094,-2.189 4.7,-2.309 V -0.933 L 0,-0.933 Z" /></g><g
           transform="translate(191.0717,1.6228)"
           id="g40"><path
             id="path42"
             style="fill:#173e79;fill-opacity:1;fill-rule:nonzero;stroke:none"
             d="M 0,0 C 3.526,0.12 4.418,0.809 4.418,2.309 V 23.302 C 4.418,24.8 3.526,25.53 0,25.652 v 0.891 h 22.29 l 0.121,-6.05 -0.892,-0.04 c -1.702,4.903 -3.08,4.915 -7.701,4.915 H 8.269 v -11.47 h 2.47 c 3.202,0 4.62,0.73 5.675,5.069 h 0.81 V 7.699 h -0.81 c -1.055,4.335 -2.473,5.024 -5.675,5.024 H 8.269 V 0.464 h 5.549 c 5.431,0 7.256,-0.145 9.039,5.042 L 23.749,5.464 23.546,-0.933 H 0 Z" /></g><g
           transform="translate(218.9545,1.6228)"
           id="g44"><path
             id="path46"
             style="fill:#173e79;fill-opacity:1;fill-rule:nonzero;stroke:none"
             d="M 0,0 C 3.526,0.12 4.418,0.809 4.418,2.309 V 23.302 C 4.418,24.8 3.526,25.53 0,25.652 v 0.891 H 12.482 V 25.652 C 8.876,25.53 8.267,24.843 8.267,23.302 V 0.464 h 4.053 c 5.35,0 7.255,1.602 9.2,7.519 L 22.412,7.942 22.088,-0.933 H 0 Z" /></g><g
           transform="translate(174.2841,28.1655)"
           id="g48"><path
             id="path50"
             style="fill:#173e79;fill-opacity:1;fill-rule:nonzero;stroke:none"
             d="m 0,0 h -10.998 v -0.931 c 2.944,-0.195 3.744,-0.914 3.744,-2.31 v -20.992 c 0,-1.395 -0.8,-2.083 -3.744,-2.27 v -0.973 H 0.366 c 10.212,0 14.63,6.85 14.63,14.224 C 14.996,-5.551 9.929,0 0,0 m -0.404,-26.12 h -2.999 v 24.988 h 2.957 c 7.377,0 11.024,-3.204 11.024,-12.363 0,-8.996 -2.351,-12.625 -10.982,-12.625" /></g><g
           transform="translate(158.1964,5.3091)"
           id="g52"><path
             id="path54"
             style="fill:#173e79;fill-opacity:1;fill-rule:nonzero;stroke:none"
             d="M 0,0 -8.592,23.506 H -9.97 L -18.4,2.392 c -1.62,-4.012 -2.756,-5.514 -5.471,-6.16 V -4.62 h 9.119 v 0.852 c -3.607,0.607 -4.013,1.498 -2.31,5.916 l 1.418,3.689 h 9.442 l 2.189,-6.323 c 0.811,-2.27 0.244,-3.081 -3.445,-3.282 V -4.62 h 11.42 v 0.973 C 1.519,-3.196 0.851,-2.291 0,0 m -15.197,6.972 4.458,11.468 h 0.161 L -6.607,6.972 Z" /></g><g
           transform="translate(84.3176,27.72)"
           id="g56"><path
             id="path58"
             style="fill:#173e79;fill-opacity:1;fill-rule:nonzero;stroke:none"
             d="m 0,0 c -4.782,0 -9.24,-4.214 -9.24,-13.453 0,-8.796 5.349,-12.442 10.009,-12.442 1.392,0 2.846,0.398 4.06,1.062 1.258,0.689 2.404,1.637 3.217,2.826 0.572,0.832 0.979,1.683 1.348,2.703 l 0.895,-0.272 c -0.454,-1.467 -1.087,-2.895 -2.015,-4.127 -0.891,-1.181 -2.044,-2.166 -3.361,-2.844 -0.373,-0.192 -0.759,-0.362 -1.155,-0.505 -0.44,-0.159 -0.894,-0.284 -1.351,-0.382 -0.885,-0.19 -1.826,-0.286 -2.731,-0.286 -7.822,0 -13.333,5.635 -13.333,14.102 0,8.391 6.199,14.713 14.102,14.713 2.878,0 5.188,-0.769 6.89,-1.702 L 8.753,-0.591 9.047,-3.243 9.605,-7.86 H 8.753 C 6.89,-2.836 4.093,0 0,0" /></g></g></g></g></svg>