<?xml version="1.0" encoding="UTF-8"?>
<!DOCTYPE svg PUBLIC "-//W3C//DTD SVG 1.1//EN" "http://www.w3.org/Graphics/SVG/1.1/DTD/svg11.dtd">
<!-- Creator: CorelDRAW X6 -->
<svg xmlns="http://www.w3.org/2000/svg" xml:space="preserve" width="6.75in" height="2.375in" version="1.1" style="shape-rendering:geometricPrecision; text-rendering:geometricPrecision; image-rendering:optimizeQuality; fill-rule:evenodd; clip-rule:evenodd"
viewBox="0 0 6750 2375"
 xmlns:xlink="http://www.w3.org/1999/xlink">
 <defs>
  <style type="text/css">
   <![CDATA[
    .fil1 {fill:#FEFEFE;fill-rule:nonzero}
    .fil0 {fill:#465798;fill-rule:nonzero}
   ]]>
  </style>
 </defs>
 <g id="Layer_x0020_1">
  <metadata id="CorelCorpID_0Corel-Layer"/>
  <polygon class="fil0" points="0,2375 6754,2375 6754,-1 0,-1 "/>
  <path class="fil1" d="M1096 834c-64,0 -82,28 -82,91l0 103 170 0 -17 167 -153 0 0 507 -204 0 0 -507 -137 0 0 -167 137 0 0 -100c0,-168 68,-258 257,-258 41,0 89,3 119,7l0 157 -91 0z"/>
  <path class="fil1" d="M1402 1389c0,100 37,167 132,167 83,0 126,-61 126,-157l0 -68c0,-96 -42,-157 -126,-157 -95,0 -132,66 -132,167l0 48zm-204 -45c0,-188 89,-330 276,-330 102,0 164,52 194,117l0 -103 195 0 0 673 -195 0 0 -102c-28,65 -92,116 -194,116 -187,0 -276,-141 -276,-330l0 -42z"/>
  <path class="fil1" d="M2288 1014c79,0 154,17 195,45l-45 144c-31,-16 -82,-31 -136,-31 -110,0 -158,64 -158,173l0 40c0,109 48,173 158,173 54,0 105,-16 136,-31l45 144c-41,28 -116,45 -195,45 -239,0 -348,-129 -348,-335l0 -31c0,-207 109,-335 348,-335z"/>
  <path class="fil1" d="M2714 1303l246 0 0 -17c0,-74 -30,-132 -119,-132 -92,0 -127,58 -127,149zm-204 88l0 -59c0,-191 109,-317 331,-317 209,0 301,127 301,314l0 108 -429 0c4,92 45,133 158,133 76,0 157,-16 216,-41l37 140c-54,28 -164,50 -262,50 -258,0 -354,-129 -354,-327z"/>
  <path class="fil1" d="M3694 1339c0,-95 -37,-166 -134,-166 -83,0 -129,59 -129,156l0 71c0,96 45,156 129,156 98,0 134,-71 134,-166l0 -51zm204 47c0,188 -91,330 -277,330 -102,0 -173,-51 -201,-116l0 102 -192 0 0 -1012 204 -18 0 450c30,-59 95,-108 190,-108 187,0 277,141 277,330l0 42z"/>
  <path class="fil1" d="M4432 1334c0,-89 -37,-160 -132,-160 -95,0 -132,71 -132,160l0 62c0,89 37,160 132,160 95,0 132,-71 132,-160l0 -62zm-467 48l0 -34c0,-194 110,-334 335,-334 225,0 335,140 335,334l0 34c0,194 -110,334 -335,334 -225,0 -335,-140 -335,-334z"/>
  <path class="fil1" d="M5171 1334c0,-89 -37,-160 -132,-160 -95,0 -132,71 -132,160l0 62c0,89 37,160 132,160 95,0 132,-71 132,-160l0 -62zm-467 48l0 -34c0,-194 110,-334 335,-334 225,0 335,140 335,334l0 34c0,194 -110,334 -335,334 -225,0 -335,-140 -335,-334z"/>
  <polygon class="fil1" points="5655,1349 5856,1028 6072,1028 5861,1361 6081,1702 5864,1702 5655,1372 5655,1702 5451,1702 5451,690 5655,672 "/>
 </g>
</svg>
