<svg xmlns="http://www.w3.org/2000/svg" viewBox="0 0 645.69 134.73"><defs><style>.cls-1{fill:#231f20;}.cls-2{fill:#00447c;}</style></defs><title>fulcrum-logo</title><g id="Layer_2" data-name="Layer 2"><g id="Layer_1-2" data-name="Layer 1"><path class="cls-1" d="M69.68,39.1l-1.3,4.77H57.82l-8,31.59Q44.6,96.35,39.25,107.77,31.66,123.89,22.91,130q-6.65,4.7-13.3,4.7a10.94,10.94,0,0,1-7.37-2.6A5.76,5.76,0,0,1,0,127.43a5.28,5.28,0,0,1,1.84-4,6.42,6.42,0,0,1,4.52-1.7,4.67,4.67,0,0,1,3.29,1.23A3.73,3.73,0,0,1,11,125.77a4,4,0,0,1-1.52,3q-1.16,1-1.16,1.52a1.18,1.18,0,0,0,.51,1,3.3,3.3,0,0,0,2,.51,13.27,13.27,0,0,0,6.54-2A18.82,18.82,0,0,0,23.49,124a44.28,44.28,0,0,0,5.06-11.17q1-3,5.42-20L46.55,43.87H34l1-4.77q6,0,8.38-.83a10.15,10.15,0,0,0,4.37-3.18,47.9,47.9,0,0,0,5.17-8.78,71.33,71.33,0,0,1,8.17-13.44A39.5,39.5,0,0,1,72.32,3.22,23.29,23.29,0,0,1,83.41,0a13.3,13.3,0,0,1,8.82,2.78q3.32,2.78,3.33,6a5.93,5.93,0,0,1-1.66,4.26,5.65,5.65,0,0,1-4.26,1.73A5.17,5.17,0,0,1,86,13.52a4.09,4.09,0,0,1-1.41-3.11,6.23,6.23,0,0,1,.94-2.86,6.39,6.39,0,0,0,.94-2.28,1.8,1.8,0,0,0-.65-1.52A4.45,4.45,0,0,0,83,3a12.73,12.73,0,0,0-8.17,2.89q-4.84,3.83-8.67,12-2,4.27-7.16,21.18Z"/><path class="cls-1" d="M139.57,39.1,127,82.18q-2.82,9.61-2.82,12.14a3.15,3.15,0,0,0,.47,1.92,1.51,1.51,0,0,0,1.26.61,4.64,4.64,0,0,0,2.71-1.12q1.48-1.12,7.48-8.93l2.17,1.66q-5.71,9-11.71,13.3a13.56,13.56,0,0,1-7.66,2.75,6,6,0,0,1-4.41-1.59,5.57,5.57,0,0,1-1.59-4.12,30.32,30.32,0,0,1,.94-6.5Q115,87,120.41,69,108.13,89.19,99.85,96.86t-15.36,7.66a7.67,7.67,0,0,1-5.64-2.31,7.93,7.93,0,0,1-2.31-5.85q0-5.42,3.18-16.62L86,57.39q2.31-8,2.31-10a2,2,0,0,0-.61-1.48,1.87,1.87,0,0,0-1.34-.61,5.2,5.2,0,0,0-3,1.08q-1.52,1.08-6.87,8l-2.24-1.59q5.42-8.38,11.49-12.36,4.63-3.11,8.53-3.11a5.82,5.82,0,0,1,6.07,6.07q0,3.9-2.89,14L90.64,80.74q-2.82,9.54-2.82,12.07a2.85,2.85,0,0,0,.9,2.2,3.43,3.43,0,0,0,2.42.83q2.39,0,6.22-2.39t10.23-10.59a136.26,136.26,0,0,0,10.55-15.4q4.16-7.19,8.85-22.88l1.59-5.49Z"/><path class="cls-1" d="M187.92,0,163.2,86a45.28,45.28,0,0,0-1.81,7.88,2.52,2.52,0,0,0,.69,1.81,2.25,2.25,0,0,0,1.7.72,5,5,0,0,0,3-1.23A39.42,39.42,0,0,0,174.62,86l2.17,2.24q-6.87,9.69-12.65,13.52a15.08,15.08,0,0,1-8.1,2.75,6.17,6.17,0,0,1-4.59-1.88,6,6,0,0,1-1.84-4.34q0-2.6,2.31-10.7l19.59-67.8q2.39-8.31,2.39-9.54a3.53,3.53,0,0,0-1.37-2.86,6.69,6.69,0,0,0-4.26-1.12,38,38,0,0,0-5.06.51V4.12Z"/><path class="cls-1" d="M236.43,87q-7.52,9-15.18,13.26a33,33,0,0,1-16.19,4.23q-10.26,0-16-5.78t-5.75-15.54a43,43,0,0,1,6.18-21.76,50.15,50.15,0,0,1,16.62-17.38q10.44-6.68,20.49-6.69,7.88,0,11.78,3.29a10.16,10.16,0,0,1,3.9,8.06,11.33,11.33,0,0,1-2.75,7.66,6.22,6.22,0,0,1-5,2.46,5.11,5.11,0,0,1-3.72-1.45,4.84,4.84,0,0,1-1.48-3.61,5.89,5.89,0,0,1,.54-2.53,10.36,10.36,0,0,1,2.24-2.78,11.27,11.27,0,0,0,2.06-2.35,3.36,3.36,0,0,0,.36-1.52,3,3,0,0,0-1.37-2.53,10.37,10.37,0,0,0-5.93-1.45q-7.08,0-14,5a40.64,40.64,0,0,0-11.85,14.17A47,47,0,0,0,195.45,82q0,7.37,4.19,11.67T211.06,98a24,24,0,0,0,11-2.78q5.46-2.78,12.25-10.08Z"/><path class="cls-1" d="M252.7,41.42l24.94-4L267.22,72.5q12.65-21.61,23-30.21,5.85-4.91,9.54-4.92a5,5,0,0,1,3.76,1.41,5.62,5.62,0,0,1,1.37,4.08A18.22,18.22,0,0,1,302.42,52a5.43,5.43,0,0,1-5,3.25,4.09,4.09,0,0,1-2.86-1.09,5.22,5.22,0,0,1-1.48-3.32,2.79,2.79,0,0,0-.65-1.81,1.88,1.88,0,0,0-1.37-.58,4.85,4.85,0,0,0-2.31.58q-1.88,1-5.71,5.64A157.36,157.36,0,0,0,270,73a54.49,54.49,0,0,0-5.2,10.77q-3,8.24-3.47,9.9l-2.31,9.11H248L261.37,57.9q2.31-7.81,2.31-11.13a2.67,2.67,0,0,0-1.08-2.17,6,6,0,0,0-3.83-1.16,42.22,42.22,0,0,0-5.57.65Z"/><path class="cls-1" d="M372.25,39.1,359.67,82.18q-2.82,9.61-2.82,12.14a3.15,3.15,0,0,0,.47,1.92,1.51,1.51,0,0,0,1.26.61,4.64,4.64,0,0,0,2.71-1.12q1.48-1.12,7.48-8.93l2.17,1.66q-5.71,9-11.71,13.3a13.56,13.56,0,0,1-7.66,2.75,6,6,0,0,1-4.41-1.59,5.57,5.57,0,0,1-1.59-4.12,30.29,30.29,0,0,1,.94-6.5Q347.67,87,353.09,69,340.8,89.19,332.53,96.86t-15.36,7.66a7.67,7.67,0,0,1-5.64-2.31,7.93,7.93,0,0,1-2.31-5.85q0-5.42,3.18-16.62l6.29-22.33q2.31-8,2.31-10a2,2,0,0,0-.61-1.48,1.87,1.87,0,0,0-1.34-.61,5.2,5.2,0,0,0-3,1.08q-1.52,1.08-6.87,8l-2.24-1.59q5.42-8.38,11.49-12.36,4.63-3.11,8.53-3.11A5.82,5.82,0,0,1,333,43.44q0,3.9-2.89,14l-6.79,23.35q-2.82,9.54-2.82,12.07a2.85,2.85,0,0,0,.9,2.2,3.43,3.43,0,0,0,2.42.83q2.39,0,6.22-2.39t10.23-10.59a136.28,136.28,0,0,0,10.55-15.4q4.15-7.19,8.85-22.88l1.59-5.49Z"/><path class="cls-1" d="M411.64,37.37,402.24,70a143.6,143.6,0,0,1,10.7-17.28q6.86-9,13.37-13a15.29,15.29,0,0,1,8-2.31,8.27,8.27,0,0,1,6,2.31,7.9,7.9,0,0,1,2.38,5.93,34.79,34.79,0,0,1-1.66,9.25l-5.13,18.36q11.78-22,22.33-30.94,5.85-4.91,11.56-4.92a7.14,7.14,0,0,1,5.46,2.28q2.13,2.28,2.13,7a33.36,33.36,0,0,1-1.3,8.89l-8,28.12q-2.6,9.18-2.6,10.19a2.5,2.5,0,0,0,.65,1.74,1.45,1.45,0,0,0,1.16.51,5.65,5.65,0,0,0,2.53-1.37,37.45,37.45,0,0,0,7.73-8.38L480,87.89a62.76,62.76,0,0,1-6.4,8,34.11,34.11,0,0,1-7.84,6.87,12.52,12.52,0,0,1-6,1.81,5.68,5.68,0,0,1-4.23-1.73,5.86,5.86,0,0,1-1.7-4.26q0-3.47,3-14l6.58-23.2q2.24-8,2.38-8.89A17.14,17.14,0,0,0,466,49.8a4.47,4.47,0,0,0-.8-2.82,2.54,2.54,0,0,0-2-1q-3,0-6.43,3.11-10,9.18-18.65,25.73-5.71,10.92-10.7,28H416.55l12.36-43.73q2-7.08,2-9.47a4.41,4.41,0,0,0-.79-2.89,2.47,2.47,0,0,0-2-.94,9.38,9.38,0,0,0-5.06,1.73Q418.79,50.31,412,59.56a95.62,95.62,0,0,0-10.59,17.71q-1.81,4-8.6,25.51h-10.7l13.37-46.84,1.73-6.07a6.71,6.71,0,0,0,.51-2A3.73,3.73,0,0,0,396.24,45a5.4,5.4,0,0,0-3.69-1.27,40.22,40.22,0,0,0-5.21.87l-.65-2.67Z"/><path class="cls-2" d="M536.27,77.41V69.82l27.4,0v24a48.41,48.41,0,0,1-13,7.57,38.61,38.61,0,0,1-13.77,2.54,36.73,36.73,0,0,1-17.32-4.08A27,27,0,0,1,507.81,88a37.16,37.16,0,0,1-4-17.25,40,40,0,0,1,4-17.63A26.26,26.26,0,0,1,519.15,41a35.61,35.61,0,0,1,17.08-4,33.83,33.83,0,0,1,12.69,2.27,21,21,0,0,1,8.89,6.33,28.13,28.13,0,0,1,4.9,10.59L555,58.3a23.9,23.9,0,0,0-3.62-7.77A14.85,14.85,0,0,0,545.19,46a22.67,22.67,0,0,0-8.91-1.7,26.25,26.25,0,0,0-10.15,1.79,18.94,18.94,0,0,0-6.91,4.7,22.47,22.47,0,0,0-4.08,6.4,33.88,33.88,0,0,0-2.47,13q0,8.65,3,14.47a19.07,19.07,0,0,0,8.67,8.65,26.84,26.84,0,0,0,12.09,2.82A28.71,28.71,0,0,0,547.26,94a28,28,0,0,0,8-4.57v-12Z"/><path class="cls-2" d="M587.79,102.78V45.72H566.47V38.09h51.28v7.63h-21.4v57.06Z"/><path class="cls-1" d="M626.74,50V39.87h-3.87V38.1h9.76v1.77h-3.9V50ZM634,50V38.1h2.93l3,9.54,2.92-9.54h2.87V50h-1.82V40L640.8,50H639l-3.21-10.17V50Z"/></g></g></svg>