<?xml version="1.0" encoding="UTF-8"?>
<!DOCTYPE svg PUBLIC "-//W3C//DTD SVG 1.1//EN" "http://www.w3.org/Graphics/SVG/1.1/DTD/svg11.dtd">
<!-- Creator: CorelDRAW X6 -->
<svg xmlns="http://www.w3.org/2000/svg" xml:space="preserve" width="7.80555in" height="3.55555in" version="1.1" style="shape-rendering:geometricPrecision; text-rendering:geometricPrecision; image-rendering:optimizeQuality; fill-rule:evenodd; clip-rule:evenodd"
viewBox="0 0 7806 3556"
 xmlns:xlink="http://www.w3.org/1999/xlink">
 <defs>
  <style type="text/css">
   <![CDATA[
    .fil3 {fill:#218ACB;fill-rule:nonzero}
    .fil0 {fill:#52AB56;fill-rule:nonzero}
    .fil4 {fill:#96989B;fill-rule:nonzero}
    .fil2 {fill:#F14C3B;fill-rule:nonzero}
    .fil1 {fill:#FBCC3F;fill-rule:nonzero}
   ]]>
  </style>
 </defs>
 <g id="Layer_x0020_1">
  <metadata id="CorelCorpID_0Corel-Layer"/>
  <polygon class="fil0" points="5488,2222 5694,2222 5694,843 5488,843 "/>
  <path class="fil1" d="M3889 2066c-142,0 -265,-117 -265,-284 0,-169 123,-284 265,-284 142,0 265,116 265,284 0,167 -123,284 -265,284zm0 -754c-260,0 -471,197 -471,469 0,270 212,469 471,469 260,0 471,-199 471,-469 0,-272 -212,-469 -471,-469z"/>
  <path class="fil2" d="M2861 2066c-142,0 -265,-117 -265,-284 0,-169 123,-284 265,-284 142,0 265,116 265,284 0,167 -123,284 -265,284zm0 -754c-260,0 -471,197 -471,469 0,270 212,469 471,469 260,0 471,-199 471,-469 0,-272 -212,-469 -471,-469z"/>
  <path class="fil2" d="M6244 1493c82,0 151,41 174,100l-420 174c-5,-181 140,-274 245,-274zm16 572c-105,0 -180,-48 -228,-142l628 -260 -21 -53c-39,-105 -158,-299 -402,-299 -242,0 -443,190 -443,469 0,263 199,469 466,469 215,0 340,-132 391,-208l-160 -107c-53,78 -126,130 -231,130z"/>
  <path class="fil3" d="M899 1522c0,-402 338,-729 740,-729 222,0 380,87 500,201l-140 140c-85,-80 -201,-142 -359,-142 -293,0 -523,236 -523,530 0,293 229,530 523,530 190,0 299,-76 368,-146 57,-57 94,-139 108,-251l-476 0 0 -199 670 0c7,36 11,78 11,124 0,149 -41,334 -172,466 -128,133 -292,204 -508,204 -402,0 -740,-327 -740,-729z"/>
  <path class="fil3" d="M4914 2066c-142,0 -261,-119 -261,-283 0,-165 119,-286 261,-286 140,0 251,121 251,286 0,164 -110,283 -251,283zm236 -725l0 76 -7 0c-46,-55 -135,-105 -247,-105 -235,0 -450,206 -450,471 0,263 215,468 450,468 112,0 201,-50 247,-107l7 0 0 68c0,180 -96,276 -251,276 -126,0 -204,-91 -236,-167l-180 75c52,124 188,277 416,277 242,0 446,-142 446,-489l0 -843 -196 0z"/>
  <path class="fil4" d="M6887 1417l0 -58 1 -22 -1 0 -32 80 -16 0 -32 -80 -1 0 1 22 0 58 -22 0 0 -111 30 0 31 80 1 0 31 -80 30 0 0 111 -22 0zm-175 0l0 -90 -34 0 0 -21 89 0 0 21 -32 0 0 90 -23 0z"/>
 </g>
</svg>
