<svg xmlns="http://www.w3.org/2000/svg" viewBox="0 0 501.71 501.71"><defs><style>.cls-1{fill:#064368;}.cls-2{fill:#010101;opacity:0.37;}.cls-3{fill:#fff;}</style></defs><title>imo</title><g id="Layer_2" data-name="Layer 2"><g id="Layer_1-2" data-name="Layer 1"><ellipse class="cls-1" cx="250.86" cy="250.58" rx="250.85" ry="250.58"/><path class="cls-2" d="M501.56,252.6l-.61-.83-77.36-77.28-78.53-7.59L305.69,192l-36.83-36.79-59.35,46.5-46.55-46.5-46.72,27.07-27.1-27.07L56.77,315.47l186.1,185.9.54.15c2.44.07,4.87.18,7.33.18C388.79,501.71,500.76,390.31,501.56,252.6Z"/><path class="cls-3" d="M57.63,348.51V321.45H62.1v27.07Z"/><path class="cls-3" d="M81,348.51H76.74v-10a20.4,20.4,0,0,0-.26-4,2.74,2.74,0,0,0-.88-1.54,2.36,2.36,0,0,0-1.5-.53,3,3,0,0,0-1.93.69A3.61,3.61,0,0,0,70.94,335a20.13,20.13,0,0,0-.35,4.6v8.9H66.34V328.9h3.95v2.87a7.65,7.65,0,0,1,2.37-2.49,5.35,5.35,0,0,1,2.93-.84,5,5,0,0,1,3.13,1,4.82,4.82,0,0,1,1.77,2.5,14.78,14.78,0,0,1,.5,4.4Z"/><path class="cls-3" d="M92.67,328.9V333H89.76V341a17.6,17.6,0,0,0,.14,3,1,1,0,0,0,1.05.75,4.48,4.48,0,0,0,1.7-.51l.37,4a7.09,7.09,0,0,1-3.35.76,3.94,3.94,0,0,1-2.6-.78A3.68,3.68,0,0,1,85.77,346a22.94,22.94,0,0,1-.25-4.37V333h-2V328.9h2V325l4.25-3v6.91Z"/><path class="cls-3" d="M105,342.28l4.23.87a8.22,8.22,0,0,1-2.64,4.39,6.83,6.83,0,0,1-4.37,1.42,6.68,6.68,0,0,1-5.5-2.38c-1.52-1.85-2.31-4.45-2.31-7.77a12.56,12.56,0,0,1,2.31-7.87,6.16,6.16,0,0,1,5.08-2.5,6.43,6.43,0,0,1,5.41,2.56c1.51,1.94,2.24,4.81,2.24,8.6v.6H98.76a6,6,0,0,0,1.06,3.61,3,3,0,0,0,2.42,1.28C103.61,345.09,104.53,344.15,105,342.28Zm.23-5.27a5.79,5.79,0,0,0-1-3.44,2.74,2.74,0,0,0-2.2-1.16,2.78,2.78,0,0,0-2.28,1.2,5.45,5.45,0,0,0-.92,3.4Z"/><path class="cls-3" d="M112.9,348.51V321.45h4.25v27.07Z"/><path class="cls-3" d="M121.51,348.51V321.45h4.28v27.07Z"/><path class="cls-3" d="M130.14,326.25v-4.8h4.27v4.8Zm0,22.27V328.9h4.27v19.61Z"/><path class="cls-3" d="M138.37,349.79l4.88.72a2.06,2.06,0,0,0,.67,1.54,2.91,2.91,0,0,0,1.78.45A4.86,4.86,0,0,0,148,352a2.29,2.29,0,0,0,.94-1.1,7.86,7.86,0,0,0,.32-2.72v-2.87a7,7,0,0,1-2.15,2.38,4.73,4.73,0,0,1-2.67.81,5.47,5.47,0,0,1-4.49-2.43,12.06,12.06,0,0,1-2.11-7.51q0-5,2-7.57a5.91,5.91,0,0,1,4.8-2.56,4.87,4.87,0,0,1,2.73.81,7.16,7.16,0,0,1,2.19,2.41V328.9h4V346.5a17.8,17.8,0,0,1-.77,6.12,5.74,5.74,0,0,1-2.4,2.86,8.59,8.59,0,0,1-4.48,1,10.94,10.94,0,0,1-4.24-.69,5.28,5.28,0,0,1-2.42-2.1,6.19,6.19,0,0,1-.83-3.22Zm3.8-11.5a8,8,0,0,0,1,4.58,2.9,2.9,0,0,0,2.42,1.45,3.2,3.2,0,0,0,2.62-1.46,7.44,7.44,0,0,0,1.09-4.44,7.9,7.9,0,0,0-1-4.53,3.1,3.1,0,0,0-2.58-1.47,3,3,0,0,0-2.52,1.45A7.63,7.63,0,0,0,142.17,338.3Z"/><path class="cls-3" d="M167.06,342.28l4.23.87a8.36,8.36,0,0,1-2.64,4.39,6.82,6.82,0,0,1-4.37,1.42,6.71,6.71,0,0,1-5.5-2.38c-1.54-1.85-2.29-4.45-2.29-7.77a12.45,12.45,0,0,1,2.29-7.87,6.17,6.17,0,0,1,5.07-2.5,6.42,6.42,0,0,1,5.41,2.56q2.25,2.92,2.26,8.6l0,.6H160.83a5.89,5.89,0,0,0,1,3.61,3,3,0,0,0,2.45,1.28Q166.37,345.09,167.06,342.28Zm.22-5.27a5.71,5.71,0,0,0-1-3.44,2.7,2.7,0,0,0-4.47,0,5.46,5.46,0,0,0-.93,3.4Z"/><path class="cls-3" d="M189.6,348.51h-4.27v-10a20.58,20.58,0,0,0-.25-4,2.87,2.87,0,0,0-.89-1.54,2.34,2.34,0,0,0-1.48-.53,3.07,3.07,0,0,0-1.95.69,3.68,3.68,0,0,0-1.21,1.91,18.57,18.57,0,0,0-.37,4.6v8.9h-4.26V328.9h4v2.87a7.5,7.5,0,0,1,2.39-2.49,5.25,5.25,0,0,1,2.91-.84,5.12,5.12,0,0,1,3.15,1,4.94,4.94,0,0,1,1.77,2.5,14.43,14.43,0,0,1,.5,4.4Z"/><path class="cls-3" d="M201.27,328.9V333h-2.89V341a19.36,19.36,0,0,0,.11,3,1.06,1.06,0,0,0,1.06.75,4.61,4.61,0,0,0,1.71-.51l.36,4a7.1,7.1,0,0,1-3.35.76,3.94,3.94,0,0,1-2.59-.78,3.81,3.81,0,0,1-1.32-2.22,23.54,23.54,0,0,1-.26-4.37V333h-1.95V328.9h1.95V325l4.28-3v6.91Z"/><path class="cls-3" d="M212.84,348.51V321.45h6.7l4,18.47,4-18.47h6.73v27.07h-4.17V327.2l-4.43,21.31H221.4L217,327.2v21.31Z"/><path class="cls-3" d="M248.06,342.28l4.21.87a8.32,8.32,0,0,1-2.64,4.39,6.83,6.83,0,0,1-4.37,1.42,6.68,6.68,0,0,1-5.5-2.38c-1.54-1.85-2.3-4.45-2.3-7.77a12.4,12.4,0,0,1,2.31-7.87,6.13,6.13,0,0,1,5.07-2.5,6.44,6.44,0,0,1,5.41,2.56q2.26,2.92,2.25,8.6l0,.6H241.84a5.71,5.71,0,0,0,1,3.61,3,3,0,0,0,2.44,1.28C246.67,345.09,247.6,344.15,248.06,342.28Zm.21-5.27a5.62,5.62,0,0,0-1-3.44,2.7,2.7,0,0,0-2.19-1.16,2.81,2.81,0,0,0-2.28,1.2,5.41,5.41,0,0,0-.91,3.4Z"/><path class="cls-3" d="M270.7,348.51h-4v-2.89a7,7,0,0,1-2.29,2.49,5.06,5.06,0,0,1-2.73.84,5.8,5.8,0,0,1-4.7-2.68q-2-2.7-2-7.69t2-7.58a5.88,5.88,0,0,1,4.82-2.57,5,5,0,0,1,2.51.68,7.21,7.21,0,0,1,2.15,2.06v-9.73h4.27Zm-11.36-10.24a13.09,13.09,0,0,0,.46,4,4.34,4.34,0,0,0,1.29,2,2.81,2.81,0,0,0,4.33-.86,8.19,8.19,0,0,0,1-4.57,9,9,0,0,0-1-4.89,2.9,2.9,0,0,0-5,0A7.67,7.67,0,0,0,259.34,338.27Z"/><path class="cls-3" d="M274.9,326.25v-4.8h4.26v4.8Zm0,22.27V328.9h4.26v19.61Z"/><path class="cls-3" d="M297.57,334.68l-4.2.93c-.31-2.05-1.27-3.09-2.91-3.09a3,3,0,0,0-2.55,1.34,7.9,7.9,0,0,0-1,4.49q0,3.5,1,4.94a2.94,2.94,0,0,0,2.57,1.45,2.63,2.63,0,0,0,2-.83,5.57,5.57,0,0,0,1.09-2.91l4.2.87c-.85,4.72-3.35,7.08-7.45,7.08a6.43,6.43,0,0,1-5.83-3,13.32,13.32,0,0,1-1.91-7.21c0-3.36.73-5.91,2.16-7.68A7.58,7.58,0,0,1,295,329.94,8.71,8.71,0,0,1,297.57,334.68Z"/><path class="cls-3" d="M304,334.87l-3.87-.85a7.53,7.53,0,0,1,2.32-4.27,7.33,7.33,0,0,1,4.66-1.3,8.9,8.9,0,0,1,4.1.76,4.4,4.4,0,0,1,2,2.07,12.29,12.29,0,0,1,.61,4.73l0,6a25.83,25.83,0,0,0,.2,3.8,12.56,12.56,0,0,0,.77,2.66h-4.22l-.55-2.15a8.49,8.49,0,0,1-2.33,1.95A5.78,5.78,0,0,1,305,349a5.08,5.08,0,0,1-3.86-1.58,5.86,5.86,0,0,1-1.49-4.2,6.47,6.47,0,0,1,.61-2.9,5,5,0,0,1,1.72-2,11.16,11.16,0,0,1,3.54-1.32,19.52,19.52,0,0,0,4.13-1.26,6.79,6.79,0,0,0-.22-2.14,2,2,0,0,0-.86-.84,3.94,3.94,0,0,0-1.74-.32,2.86,2.86,0,0,0-1.8.52A3.71,3.71,0,0,0,304,334.87Zm5.69,4.22a20.88,20.88,0,0,1-2.52.78,5.83,5.83,0,0,0-2.6,1.15,2.23,2.23,0,0,0-.59,1.63,2.82,2.82,0,0,0,.66,1.9,2.17,2.17,0,0,0,1.7.76,3.09,3.09,0,0,0,1.79-.61,3.46,3.46,0,0,0,1.23-1.47,9.58,9.58,0,0,0,.34-3.09Z"/><path class="cls-3" d="M318,348.51V321.45h4.27v27.07Z"/><path class="cls-3" d="M334.39,335.15a19.24,19.24,0,0,1,1.42-8,10.83,10.83,0,0,1,3.76-4.65,9.88,9.88,0,0,1,5.59-1.53,9.61,9.61,0,0,1,7.77,3.63c2,2.42,3,5.87,3,10.36s-1.07,8.05-3.19,10.6a10.27,10.27,0,0,1-15.19,0C335.46,343.07,334.39,339.58,334.39,335.15ZM339,335c0,3.11.58,5.44,1.76,7a5.33,5.33,0,0,0,8.8,0q1.73-2.31,1.73-7.11t-1.68-7a5.48,5.48,0,0,0-8.87,0C339.59,329.45,339,331.79,339,335Z"/><path class="cls-3" d="M359.21,348.51V321.45h4.27v9.73a7.24,7.24,0,0,1,2.14-2.06,5,5,0,0,1,2.51-.68A5.88,5.88,0,0,1,373,331c1.33,1.71,2,4.24,2,7.58s-.67,5.89-2,7.69a5.8,5.8,0,0,1-4.71,2.68,5.06,5.06,0,0,1-2.74-.85,7.29,7.29,0,0,1-2.29-2.48v2.89Zm4.24-10.24a12.75,12.75,0,0,0,.46,3.88,4.56,4.56,0,0,0,1.38,2,3,3,0,0,0,1.85.7,2.86,2.86,0,0,0,2.4-1.48,8.5,8.5,0,0,0,1-4.65,9,9,0,0,0-1-4.85,2.92,2.92,0,0,0-5.07,0A7.56,7.56,0,0,0,363.45,338.27Z"/><path class="cls-3" d="M382.53,328.9v19a22.16,22.16,0,0,1-.44,5.47,4.17,4.17,0,0,1-1.58,2.29,4.89,4.89,0,0,1-2.83.8,9.75,9.75,0,0,1-3-.56l.74-4.43a3.73,3.73,0,0,0,1.06.17,1.53,1.53,0,0,0,1.53-.89,11.19,11.19,0,0,0,.24-3.15V328.9Zm-4.25-2.66v-4.8h4.25v4.8Z"/><path class="cls-3" d="M396.33,342.28l4.25.87a8.32,8.32,0,0,1-2.65,4.39,6.86,6.86,0,0,1-4.36,1.42,6.68,6.68,0,0,1-5.51-2.38c-1.53-1.85-2.31-4.45-2.31-7.77a12.52,12.52,0,0,1,2.32-7.87,6.17,6.17,0,0,1,5.07-2.5,6.48,6.48,0,0,1,5.42,2.56c1.48,1.94,2.24,4.81,2.24,8.6v.6H390.13a5.64,5.64,0,0,0,1,3.61,3,3,0,0,0,2.43,1.28Q395.65,345.09,396.33,342.28Zm.23-5.27a5.72,5.72,0,0,0-1-3.44,2.72,2.72,0,0,0-4.48,0,5.4,5.4,0,0,0-.91,3.4Z"/><path class="cls-3" d="M418.28,334.68l-4.19.93c-.31-2.05-1.29-3.09-2.93-3.09a3,3,0,0,0-2.53,1.34,7.85,7.85,0,0,0-1,4.49c0,2.33.32,4,1,4.94a3,3,0,0,0,2.56,1.45,2.64,2.64,0,0,0,2-.83,5.51,5.51,0,0,0,1.09-2.91l4.2.87c-.86,4.72-3.35,7.08-7.44,7.08a6.46,6.46,0,0,1-5.86-3,13.27,13.27,0,0,1-1.9-7.21c0-3.36.72-5.91,2.17-7.68a7.58,7.58,0,0,1,10.27-1.14A8.61,8.61,0,0,1,418.28,334.68Z"/><path class="cls-3" d="M428.84,328.9V333h-2.9V341a18.87,18.87,0,0,0,.13,3,1,1,0,0,0,1,.75,4.59,4.59,0,0,0,1.72-.51l.37,4a7.2,7.2,0,0,1-3.35.76,4,4,0,0,1-2.61-.78A3.72,3.72,0,0,1,422,346a21.9,21.9,0,0,1-.27-4.37V333h-2V328.9h2V325l4.26-3v6.91Z"/><path class="cls-3" d="M430.33,342.93l4.27-.8c.36,2.05,1.51,3.08,3.42,3.08a3.74,3.74,0,0,0,2.29-.59,1.88,1.88,0,0,0,.75-1.53,1.53,1.53,0,0,0-.32-1,3.2,3.2,0,0,0-1.39-.65c-3.49-.92-5.73-1.8-6.66-2.63a5.45,5.45,0,0,1-1.78-4.32,5.75,5.75,0,0,1,1.74-4.38,7,7,0,0,1,5-1.65,7.85,7.85,0,0,1,4.8,1.24,6.6,6.6,0,0,1,2.31,3.95l-4,.92a2.82,2.82,0,0,0-3-2.38,4.19,4.19,0,0,0-2.24.45,1.42,1.42,0,0,0-.66,1.18,1.28,1.28,0,0,0,.61,1.08,17.35,17.35,0,0,0,3.78,1.34c2.38.67,4,1.48,4.83,2.43a5.43,5.43,0,0,1,1.27,3.78,6.22,6.22,0,0,1-1.94,4.69A7.57,7.57,0,0,1,438,349a8,8,0,0,1-5.08-1.53A7.25,7.25,0,0,1,430.33,342.93Z"/><path class="cls-3" d="M56.89,314.92V154.63H89.25v160.3Zm57.56,0V154.63h48.62L191.82,264l28.44-109.34H269v160.3H239l-.11-126.18L207.27,314.92H176L144.49,188.74l-.11,126.18Zm174.92-79.16q0-24.47,7.33-41.07a75.22,75.22,0,0,1,15-22,62.3,62.3,0,0,1,20.72-14.41Q347.38,152,367,152q35.45,0,56.74,22T445,235q0,38.78-21.12,60.66T367.4,317.57q-35.77,0-56.91-21.8T289.37,235.76Zm33.45-1.11q0,27.17,12.59,41.18t31.94,14q19.35,0,31.78-13.91t12.41-41.72q0-27.48-12.08-41t-32.11-13.53q-20,0-32.28,13.69T322.82,234.66Z"/><path class="cls-3" d="M435.72,154.63a9.37,9.37,0,0,1,4.57,1.2,8.57,8.57,0,0,1,3.44,3.42,9.29,9.29,0,0,1,0,9.28,8.77,8.77,0,0,1-3.44,3.42,9.28,9.28,0,0,1-4.61,1.24,9.42,9.42,0,0,1-4.64-1.24,8.76,8.76,0,0,1-3.43-3.42,9.48,9.48,0,0,1-1.23-4.63,9.29,9.29,0,0,1,1.27-4.66,8.43,8.43,0,0,1,3.45-3.42A9.44,9.44,0,0,1,435.72,154.63Zm0,1.82a7.58,7.58,0,0,0-3.67,1,6.94,6.94,0,0,0-2.77,2.75,7.51,7.51,0,0,0,0,7.48,7.13,7.13,0,0,0,2.77,2.76,7.43,7.43,0,0,0,7.43,0,7,7,0,0,0,2.75-2.76,7.43,7.43,0,0,0,0-7.48,6.87,6.87,0,0,0-2.77-2.75A7.68,7.68,0,0,0,435.72,156.45Zm-4.2,12.42V159h2c1.88,0,2.92,0,3.16,0a4,4,0,0,1,1.55.38,2.55,2.55,0,0,1,.92,1,2.68,2.68,0,0,1,.38,1.4,2.54,2.54,0,0,1-.71,1.82,3.1,3.1,0,0,1-2,.95,2.34,2.34,0,0,1,.69.37,5.88,5.88,0,0,1,.67.76c.07.1.32.5.72,1.2l1.15,2h-2.47l-.82-1.6a7,7,0,0,0-1.38-2,2.22,2.22,0,0,0-1.39-.42h-.52v4Zm2-5.6h.81a9.67,9.67,0,0,0,2.15-.13,1.3,1.3,0,0,0,.67-.47,1.23,1.23,0,0,0,.23-.75,1.17,1.17,0,0,0-.23-.73,1.31,1.31,0,0,0-.67-.46,9.69,9.69,0,0,0-2.15-.14h-.81Z"/></g></g></svg>