<?xml version="1.0" encoding="UTF-8"?>
<!DOCTYPE svg PUBLIC "-//W3C//DTD SVG 1.1//EN" "http://www.w3.org/Graphics/SVG/1.1/DTD/svg11.dtd">
<!-- Creator: CorelDRAW X6 -->
<svg xmlns="http://www.w3.org/2000/svg" xml:space="preserve" width="7.63889in" height="3.5in" version="1.1" style="shape-rendering:geometricPrecision; text-rendering:geometricPrecision; image-rendering:optimizeQuality; fill-rule:evenodd; clip-rule:evenodd"
viewBox="0 0 7639 3500"
 xmlns:xlink="http://www.w3.org/1999/xlink">
 <defs>
  <style type="text/css">
   <![CDATA[
    .fil0 {fill:#45464A;fill-rule:nonzero}
    .fil1 {fill:#CF474F;fill-rule:nonzero}
   ]]>
  </style>
 </defs>
 <g id="Layer_x0020_1">
  <metadata id="CorelCorpID_0Corel-Layer"/>
  <polygon class="fil0" points="73,1768 7647,1768 7647,1732 73,1732 "/>
  <path class="fil1" d="M762 1233c135,0 244,-46 329,-137 85,-91 127,-205 127,-340 0,-135 -42,-249 -127,-340 -85,-91 -195,-137 -331,-137 -135,0 -244,46 -329,137 -85,91 -127,205 -127,340 0,135 42,249 127,340 85,91 195,137 331,137zm29 -1237l-61 0c-203,7 -374,79 -512,218 -145,145 -218,326 -218,543 0,216 73,397 218,542 145,146 326,219 543,219 216,0 397,-73 543,-218 145,-145 218,-326 218,-543 0,-216 -73,-397 -218,-543 -139,-139 -309,-211 -512,-218z"/>
  <polygon class="fil1" points="1748,1517 1748,-4 1850,-4 2803,949 2803,-4 3108,-4 3108,1517 2996,1517 2052,574 2052,1517 "/>
  <polygon class="fil1" points="3419,1517 3419,-4 4000,-4 4537,-4 4537,279 3723,279 3723,604 4333,604 4333,887 3723,887 3723,1233 4535,1233 4535,1517 "/>
  <polygon class="fil1" points="77,3500 77,1978 179,1978 1132,2932 1132,1978 1437,1978 1437,3500 1325,3500 381,2556 381,3500 "/>
  <path class="fil1" d="M2425 3216c135,0 244,-46 329,-137 85,-91 127,-205 127,-340 0,-135 -42,-249 -127,-340 -85,-91 -195,-137 -331,-137 -135,0 -244,46 -329,137 -85,91 -127,205 -127,340 0,135 42,249 127,340 85,91 195,137 331,137zm-544 65c-145,-146 -218,-327 -218,-542 0,-216 73,-397 218,-543 145,-145 326,-218 543,-218 216,0 397,73 543,218 145,145 218,326 218,543 0,216 -73,397 -218,543 -145,145 -326,218 -543,218 -216,0 -397,-73 -543,-219z"/>
  <path class="fil1" d="M3715 2587l426 0c122,-2 185,-58 189,-167 -3,-100 -65,-152 -186,-156l-429 0 0 324zm612 250l379 664 -349 0 -364 -629 -278 0 0 629 -304 0 0 -1522 664 0c355,0 533,146 533,438 0,220 -93,360 -280,420z"/>
  <polygon class="fil1" points="6107,1978 6107,2262 5599,2262 5599,3500 5295,3500 5295,2262 4788,2262 4788,1978 "/>
  <polygon class="fil1" points="6333,3500 6333,1978 6637,1978 6637,2587 7346,2587 7346,1977 7651,1977 7651,3499 7346,3500 7346,2871 6637,2871 6637,3500 "/>
 </g>
</svg>
