<?xml version="1.0" encoding="UTF-8"?>
<!DOCTYPE svg PUBLIC "-//W3C//DTD SVG 1.1//EN" "http://www.w3.org/Graphics/SVG/1.1/DTD/svg11.dtd">
<!-- Creator: CorelDRAW X6 -->
<svg xmlns="http://www.w3.org/2000/svg" xml:space="preserve" width="4.06944in" height="1.36111in" version="1.1" style="shape-rendering:geometricPrecision; text-rendering:geometricPrecision; image-rendering:optimizeQuality; fill-rule:evenodd; clip-rule:evenodd"
viewBox="0 0 4069 1361"
 xmlns:xlink="http://www.w3.org/1999/xlink">
 <defs>
  <style type="text/css">
   <![CDATA[
    .fil0 {fill:#373435;fill-rule:nonzero}
   ]]>
  </style>
 </defs>
 <g id="Layer_x0020_1">
  <metadata id="CorelCorpID_0Corel-Layer"/>
  <path class="fil0" d="M2180 113l-90 0 -7 208 -108 0 0 80 108 0 0 474c0,111 56,157 133,157 42,0 77,-15 102,-29l0 -84c-22,18 -49,30 -76,30 -43,0 -61,-31 -61,-76l0 -471 145 0 0 -80 -145 0 0 -208z"/>
  <polygon class="fil0" points="1751,1019 1848,1019 1848,-10 1751,-10 "/>
  <path class="fil0" d="M2543 414l-2 0 -6 -93 -91 0 0 699 96 0 0 -506c45,-92 103,-115 174,-115l20 0 0 -90 -24 0c-74,0 -115,28 -167,106z"/>
  <path class="fil0" d="M1479 870c-32,42 -75,82 -137,82 -61,0 -100,-41 -100,-105 0,-82 64,-131 145,-168l92 -43 0 234zm96 14l0 -377c0,-124 -69,-201 -190,-201 -143,0 -207,107 -208,218l88 0c-1,-72 44,-138 115,-138 63,0 97,51 97,128l0 38 -119 56c-125,58 -215,106 -215,237 0,116 73,186 174,186 71,0 127,-40 165,-89 13,58 53,89 109,89 21,0 41,-5 58,-12l0 -81c-11,6 -23,11 -36,10 -36,0 -40,-30 -40,-64z"/>
  <path class="fil0" d="M346 866c-23,42 -57,84 -117,84 -76,0 -133,-70 -133,-281 0,-211 66,-282 138,-282 52,0 94,39 111,90l0 389zm12 -460c-21,-52 -68,-99 -141,-99 -103,0 -217,94 -217,363 0,268 101,363 202,363 68,0 118,-43 145,-86l0 415 95 0 0 -1040 -80 0 -4 86z"/>
  <path class="fil0" d="M925 858c-39,57 -86,93 -135,93 -55,0 -82,-50 -82,-113l0 -517 -96 0 0 522c0,129 60,189 148,189 75,0 134,-44 171,-97l2 84 89 0 0 -698 -96 0 0 537z"/>
  <polygon class="fil0" points="2849,157 2945,157 2945,35 2849,35 "/>
  <path class="fil0" d="M3819 607c-62,-32 -116,-62 -116,-127 0,-55 39,-92 95,-92 75,0 109,65 102,136l88 0c6,-126 -68,-216 -190,-216 -111,0 -189,73 -189,179 0,113 89,163 161,201 70,38 136,74 136,150 0,67 -50,114 -111,114 -71,0 -121,-63 -123,-146l-89 0c3,136 81,227 212,227 125,0 204,-83 204,-201 0,-130 -95,-180 -181,-225z"/>
  <polygon class="fil0" points="3902,524 3902,524 3902,524 "/>
  <path class="fil0" d="M3402 553c0,0 0,-1 0,-1l0 0 0 1z"/>
  <polygon class="fil0" points="2848,1019 2945,1019 2945,321 2848,321 "/>
  <path class="fil0" d="M3301 951c-67,0 -129,-64 -129,-281 0,-217 63,-282 130,-282 71,0 103,75 100,164l90 0c6,-149 -59,-245 -187,-245 -143,0 -230,119 -230,363 0,244 85,363 223,363 136,0 197,-116 198,-259l-89 0c4,96 -30,179 -106,179z"/>
  <path class="fil0" d="M4072 1013c-1,3 -3,5 -5,7 -2,2 -4,4 -7,5 -3,1 -6,2 -9,2 -3,0 -6,-1 -9,-2 -3,-1 -5,-3 -7,-5 -2,-2 -4,-5 -5,-7 -1,-3 -2,-6 -2,-9 0,-3 1,-7 2,-9 1,-3 3,-5 5,-7 2,-2 4,-4 7,-5 3,-1 6,-2 9,-2 3,0 6,1 9,2 3,1 5,3 7,5 2,2 4,5 5,7 1,3 2,6 2,9 0,3 -1,7 -2,9zm7 -4l0 -11c0,-2 -1,-4 -2,-6 -1,-4 -4,-7 -6,-9 -3,-3 -6,-4 -9,-6 -4,-1 -7,-2 -11,-2 -4,0 -8,1 -11,2 -4,1 -7,3 -9,6 -3,3 -5,6 -6,9 -1,4 -2,7 -2,12 0,4 1,8 2,12 1,4 4,7 6,9 3,3 6,5 9,6 4,1 7,2 11,2 4,0 8,-1 11,-2 4,-1 7,-3 9,-6 3,-3 5,-6 6,-9 1,-2 1,-4 2,-6z"/>
  <path class="fil0" d="M4056 1001c-1,1 -2,1 -4,1l-6 0 0 -8 6 0c2,0 3,0 4,1 1,1 2,2 2,3 0,1 -1,2 -2,3zm8 3c1,-2 1,-4 1,-6 0,-3 -1,-6 -3,-8 -2,-2 -5,-3 -8,-3l-16 0 0 32 8 0 0 -12 6 0 5 12 9 0 -7 -13c2,-1 3,-2 4,-4z"/>
 </g>
</svg>
