<?xml version="1.0" encoding="UTF-8" standalone="no"?>
<svg
   xmlns:dc="http://purl.org/dc/elements/1.1/"
   xmlns:cc="http://creativecommons.org/ns#"
   xmlns:rdf="http://www.w3.org/1999/02/22-rdf-syntax-ns#"
   xmlns:svg="http://www.w3.org/2000/svg"
   xmlns="http://www.w3.org/2000/svg"
   viewBox="0 0 663.01331 111.49333"
   height="111.49333"
   width="663.01331"
   xml:space="preserve"
   id="svg2"
   version="1.1"><metadata
     id="metadata8"><rdf:RDF><cc:Work
         rdf:about=""><dc:format>image/svg+xml</dc:format><dc:type
           rdf:resource="http://purl.org/dc/dcmitype/StillImage" /></cc:Work></rdf:RDF></metadata><defs
     id="defs6" /><g
     transform="matrix(1.3333333,0,0,-1.3333333,0,111.49333)"
     id="g10"><g
       transform="scale(0.1)"
       id="g12"><path
         id="path14"
         style="fill:#2e2d2d;fill-opacity:1;fill-rule:nonzero;stroke:none"
         d="m 1712.71,237.559 c 23.51,15.988 41.37,38.847 53.6,68.582 12.22,29.738 18.34,64.941 18.34,105.617 v 55.719 c 0,40.429 -6.17,75.457 -18.52,105.082 -12.34,29.617 -30.32,52.421 -53.95,68.406 -23.62,15.988 -51.78,23.98 -84.45,23.98 -31.98,0 -59.72,-7.992 -83.22,-23.98 -23.51,-15.985 -41.56,-38.848 -54.13,-68.582 -12.58,-29.746 -18.87,-64.707 -18.87,-104.906 v -55.719 c 0,-40.442 6.35,-75.528 19.04,-105.266 12.7,-29.734 30.86,-52.652 54.48,-68.758 23.63,-16.101 51.43,-24.148 83.4,-24.148 32.67,0 60.77,7.984 84.28,23.973 z m 89.39,46.015 c -17.28,-36.316 -41.78,-63.769 -73.52,-82.336 l 93.45,-81.453 -29.98,-27.1561 -104.37,90.9731 c -18.82,-5.399 -38.56,-8.106 -59.25,-8.106 -39.73,0 -74.76,9.699 -105.08,29.094 -30.33,19.394 -53.84,46.953 -70.53,82.683 -16.69,35.735 -25.04,77.231 -25.04,124.485 v 55.008 c 0,47.254 8.29,88.742 24.87,124.48 16.57,35.731 39.96,63.301 70.17,82.695 30.2,19.395 65.17,29.09 104.91,29.09 40.2,0 75.4,-9.695 105.61,-29.09 30.21,-19.394 53.54,-46.902 70,-82.519 16.45,-35.617 24.68,-77.168 24.68,-124.656 v -55.008 c 0,-49.141 -8.64,-91.856 -25.92,-128.184" /><path
         id="path16"
         style="fill:#2e2d2d;fill-opacity:1;fill-rule:nonzero;stroke:none"
         d="m 2256.68,348.281 c 0,-37.375 -7.93,-68.996 -23.8,-94.855 -15.87,-25.86 -37.5,-45.313 -64.89,-58.36 -27.39,-13.046 -58.13,-19.57 -92.21,-19.57 -34.8,0 -65.76,6.469 -92.92,19.395 -27.15,12.922 -48.48,32.382 -64,58.363 -15.52,25.973 -23.27,57.652 -23.27,95.027 v 347.696 h 43.01 V 348.281 c 0,-29.148 5.82,-53.945 17.46,-74.402 11.64,-20.453 27.8,-35.852 48.49,-46.195 20.68,-10.348 44.43,-15.516 71.23,-15.516 27.03,0 50.9,5.168 71.58,15.516 20.69,10.343 36.85,25.742 48.49,46.195 11.64,20.457 17.46,45.254 17.46,74.402 v 347.696 h 43.37 V 348.281" /><path
         id="path18"
         style="fill:#2e2d2d;fill-opacity:1;fill-rule:nonzero;stroke:none"
         d="m 2351.74,182.547 v 513.43 h 43.38 v -513.43 h -43.38" /><path
         id="path20"
         style="fill:#2e2d2d;fill-opacity:1;fill-rule:nonzero;stroke:none"
         d="m 2614.31,437.5 -72.28,-70.879 V 182.547 h -43.38 v 513.43 h 43.38 V 419.871 l 69.81,72.637 192.89,203.469 h 54.66 L 2644.28,467.828 2876.31,182.547 h -52.89 L 2614.31,437.5" /><path
         id="path22"
         style="fill:#959595;fill-opacity:1;fill-rule:nonzero;stroke:none"
         d="m 3223.7,559.336 c -10.93,28.324 -26.8,49.773 -47.61,64.352 -20.8,14.574 -45.78,21.863 -74.93,21.863 -27.98,0 -52.42,-7.348 -73.35,-22.039 -20.93,-14.696 -37.02,-36.203 -48.31,-64.532 -11.28,-28.332 -16.93,-62.589 -16.93,-102.789 v -33.507 c 0,-40.426 5.7,-74.871 17.1,-103.321 11.41,-28.445 27.56,-50.008 48.49,-64.707 20.93,-14.687 45.49,-22.027 73.7,-22.027 44.2,0 78.28,16.324 102.27,49.012 23.97,32.664 35.96,79.687 35.96,141.043 v 33.507 c 0,40.43 -5.47,74.809 -16.39,103.145 z m 58.88,-268.527 c -16.8,-37.149 -40.72,-65.653 -71.75,-85.516 -31.04,-19.863 -67.36,-29.797 -108.97,-29.797 -40.44,0 -76.34,9.992 -107.72,29.973 -31.39,19.98 -55.84,48.601 -73.35,85.871 -17.52,37.254 -26.27,81.043 -26.27,131.344 v 32.8 c 0,50.305 8.69,94.153 26.09,131.532 17.39,37.379 41.73,66.054 73,86.039 31.26,19.98 67.11,29.976 107.55,29.976 41.61,0 77.99,-9.996 109.14,-29.976 31.14,-19.985 55.18,-48.606 72.11,-85.864 16.92,-37.265 25.39,-81.168 25.39,-131.707 v -32.8 c 0,-50.77 -8.41,-94.735 -25.22,-131.875" /><path
         id="path24"
         style="fill:#959595;fill-opacity:1;fill-rule:nonzero;stroke:none"
         d="m 3545.33,445.609 c 23.5,0 43.48,4.235 59.94,12.696 16.45,8.461 28.86,19.98 37.21,34.554 8.34,14.579 12.52,30.914 12.52,49.02 0,31.031 -9.17,55.238 -27.51,72.641 -18.34,17.394 -46.32,26.093 -83.93,26.093 H 3442.01 V 445.609 Z m 200.99,-258.832 v -4.23 h -73.35 L 3561.55,390.594 H 3442.01 V 182.547 h -68.42 v 513.43 h 169.97 c 58.07,0 102.62,-13.223 133.65,-39.668 31.03,-26.45 46.55,-64.594 46.55,-114.43 0,-31.738 -8.65,-59.539 -25.92,-83.399 -17.28,-23.863 -41.32,-41.781 -72.11,-53.773 l 120.59,-217.93" /><path
         id="path26"
         style="fill:#959595;fill-opacity:1;fill-rule:nonzero;stroke:none"
         d="m 4086.13,455.484 c 0,39.024 -6.17,72.344 -18.52,99.969 -12.34,27.621 -30.45,48.723 -54.3,63.297 -23.86,14.574 -52.6,21.863 -86.22,21.863 h -76.52 V 237.559 h 70.53 c 35.72,0 65.94,7.578 90.62,22.742 24.68,15.168 43.26,36.672 55.72,64.531 12.46,27.863 18.69,60.832 18.69,98.918 z m -40.38,211.047 c 34.21,-19.629 60.77,-47.664 79.69,-84.101 18.92,-36.438 28.39,-78.989 28.39,-127.649 V 423.75 c 0,-49.141 -9.47,-91.867 -28.39,-128.184 -18.92,-36.32 -45.9,-64.238 -80.92,-83.75 -35.03,-19.511 -76.17,-29.269 -123.42,-29.269 h -107.21 -31.74 v 513.43 h 68.42 76.52 c 44.9,0 84.46,-9.821 118.66,-29.446" /><path
         id="path28"
         style="fill:#959595;fill-opacity:1;fill-rule:nonzero;stroke:none"
         d="m 4546.17,237.559 v -55.012 h -326.19 v 513.43 h 68.41 254.24 V 640.613 H 4288.39 V 475.23 h 221.8 v -55.007 h -221.8 V 237.559 h 257.78" /><path
         id="path30"
         style="fill:#959595;fill-opacity:1;fill-rule:nonzero;stroke:none"
         d="m 4766.07,445.609 c 23.51,0 43.49,4.235 59.94,12.696 16.46,8.461 28.86,19.98 37.21,34.554 8.34,14.579 12.52,30.914 12.52,49.02 0,31.031 -9.17,55.238 -27.51,72.641 -18.34,17.394 -46.32,26.093 -83.93,26.093 H 4662.75 V 445.609 Z m 201,-258.832 v -4.23 h -73.35 L 4782.29,390.594 H 4662.75 V 182.547 h -68.42 v 513.43 h 169.97 c 58.07,0 102.62,-13.223 133.65,-39.668 31.03,-26.45 46.55,-64.594 46.55,-114.43 0,-31.738 -8.64,-59.539 -25.92,-83.399 -17.28,-23.863 -41.32,-41.781 -72.11,-53.773 l 120.6,-217.93" /><path
         id="path32"
         style="fill:#ab1b2c;fill-opacity:1;fill-rule:nonzero;stroke:none"
         d="m 847.961,834.242 c -77.902,0 -150.793,-21.41 -213.145,-58.609 0.207,-0.145 0.438,-0.262 0.653,-0.391 -0.27,-0.164 -0.531,-0.34 -0.797,-0.496 0,0 0.008,-0.004 0.016,-0.008 -50.5,-30.972 -93.918,-72.34 -127.27,-121.144 -45.816,-67.071 -72.617,-148.156 -72.617,-235.508 0,-87.371 26.801,-168.457 72.617,-235.527 54.043,20.515 99.164,59.082 128.051,108.339 -21.891,37.332 -34.489,80.774 -34.489,127.188 0,46.406 12.598,89.824 34.489,127.168 28.886,49.266 74.004,87.82 128.043,108.34 -0.153,0.219 -0.317,0.429 -0.469,0.648 26.523,9.524 55.105,14.742 84.918,14.742 138.797,0 251.339,-112.539 251.339,-251.355 C 1099.3,280.84 989.977,169.637 853.949,166.434 822.281,109.551 779.504,58.8477 729.016,18.3281 766.719,7.09766 806.613,1.01563 847.961,1.01563 c 230.079,0 416.609,186.53137 416.609,416.61337 0,230.094 -186.53,416.613 -416.609,416.613" /><path
         id="path34"
         style="fill:#2e2d2d;fill-opacity:1;fill-rule:nonzero;stroke:none"
         d="m 763.285,182.227 c 0.074,0.097 0.156,0.214 0.227,0.332 45.82,67.07 72.633,148.156 72.633,235.527 0,87.352 -26.813,168.437 -72.633,235.508 -54.039,-20.52 -99.157,-59.074 -128.043,-108.34 21.886,-37.344 34.488,-80.762 34.488,-127.168 0,-46.414 -12.602,-89.856 -34.488,-127.188 -28.887,-49.257 -74.008,-87.824 -128.051,-108.339 -27.773,-10.555 -57.875,-16.379 -89.34,-16.379 -139.117,0 -251.89,112.773 -251.89,251.906 0,139.102 112.773,251.875 251.89,251.875 31.465,0 61.567,-5.82 89.34,-16.367 33.523,49.062 77.211,90.625 128.051,121.648 -63.344,38.645 -137.774,60.91 -217.391,60.91 C 187.168,836.152 0,648.973 0,418.086 0,187.176 187.168,0 418.078,0 c 79.051,0 152.965,21.9922 216.004,60.0977 29.406,-17.7344 61.133,-31.7305 94.785,-41.8829 50.707,40.6719 93.645,91.5822 125.367,148.7192 -31.964,-0.586 -62.636,4.863 -90.949,15.293" /><path
         id="path36"
         style="fill:#ab1b2c;fill-opacity:1;fill-rule:nonzero;stroke:none"
         d="m 1225.36,678.883 c -2.1,1.75 -3.15,4.039 -3.15,6.847 0,1.973 0.54,3.747 1.61,5.321 1.08,1.57 2.6,2.804 4.56,3.707 1.97,0.902 4.23,1.351 6.78,1.351 2.78,0 5.18,-0.535 7.21,-1.601 2.04,-1.067 3.59,-2.481 4.67,-4.246 1.07,-1.762 1.61,-3.657 1.61,-5.684 h -5.11 c 0,2.238 -0.71,4.031 -2.12,5.383 -1.41,1.355 -3.5,2.031 -6.26,2.031 -2.57,0 -4.52,-0.566 -5.84,-1.699 -1.33,-1.137 -2,-2.633 -2,-4.484 0,-1.082 0.31,-2.036 0.92,-2.856 0.61,-0.82 1.57,-1.562 2.85,-2.226 1.3,-0.664 3,-1.293 5.12,-1.883 2.93,-0.821 5.31,-1.77 7.14,-2.832 1.82,-1.067 3.17,-2.321 4.06,-3.762 0.88,-1.441 1.32,-3.148 1.32,-5.121 0,-2.039 -0.55,-3.84 -1.64,-5.383 -1.09,-1.547 -2.64,-2.738 -4.65,-3.578 -2.01,-0.832 -4.35,-1.254 -7.02,-1.254 -2.43,0 -4.75,0.449 -6.96,1.348 -2.2,0.898 -4,2.222 -5.38,3.968 -1.38,1.75 -2.07,3.833 -2.07,6.262 h 5.08 c 0,-1.676 0.42,-3.07 1.27,-4.191 0.85,-1.117 1.98,-1.949 3.38,-2.488 1.41,-0.543 2.97,-0.813 4.68,-0.813 2.6,0 4.62,0.543 6.05,1.621 1.43,1.086 2.15,2.57 2.15,4.457 0,1.242 -0.26,2.274 -0.77,3.102 -0.52,0.832 -1.42,1.582 -2.71,2.258 -1.3,0.671 -3.16,1.355 -5.58,2.054 -4.04,1.172 -7.1,2.633 -9.2,4.391" /><path
         id="path38"
         style="fill:#ab1b2c;fill-opacity:1;fill-rule:nonzero;stroke:none"
         d="m 1293.16,657.438 h -5.05 v 14.906 l 0.47,15.902 -12.5,-30.808 h -3.85 l -12.47,30.785 0.47,-15.879 v -14.906 h -5.05 v 38.144 h 4.35 2.19 l 12.45,-31.18 12.45,31.18 h 6.54 v -38.144" /><path
         id="path40"
         style="fill:#959595;fill-opacity:1;fill-rule:nonzero;stroke:none"
         d="m 4956.95,678.883 c 0.82,0.531 1.22,1.269 1.22,2.211 0,0.855 -0.15,1.527 -0.43,2.015 -0.29,0.489 -0.76,0.844 -1.43,1.067 -0.66,0.215 -1.57,0.328 -2.72,0.328 h -3.41 v -6.449 h 3.75 c 1.2,0.015 2.21,0.293 3.02,0.828 z m 5.08,-9.418 c 0,-1.539 0.14,-2.649 0.44,-3.332 v -0.414 h -4.07 c -0.22,0.59 -0.34,1.847 -0.34,3.769 v 1.414 c 0,1.262 -0.28,2.18 -0.86,2.766 -0.57,0.586 -1.54,0.879 -2.88,0.879 h -4.14 v -8.828 h -3.95 v 22.265 h 7.36 c 2.66,0 4.74,-0.582 6.25,-1.738 1.5,-1.164 2.27,-2.851 2.27,-5.074 0,-2.027 -1.04,-3.59 -3.1,-4.688 2.01,-0.941 3.02,-2.796 3.02,-5.558 z m -0.36,-7.141 c 2.35,1.442 4.21,3.414 5.59,5.918 1.38,2.512 2.07,5.274 2.07,8.297 0,3.016 -0.69,5.774 -2.07,8.262 -1.38,2.488 -3.24,4.453 -5.59,5.883 -2.35,1.429 -4.93,2.148 -7.72,2.148 -2.81,0 -5.39,-0.719 -7.74,-2.148 -2.35,-1.43 -4.21,-3.395 -5.59,-5.883 -1.39,-2.488 -2.07,-5.246 -2.07,-8.262 0,-3.023 0.68,-5.785 2.07,-8.297 1.38,-2.504 3.24,-4.476 5.61,-5.918 2.35,-1.441 4.93,-2.164 7.72,-2.164 2.79,0 5.37,0.723 7.72,2.164 z m 1.61,31.199 c 2.85,-1.718 5.1,-4.074 6.77,-7.074 1.67,-2.992 2.5,-6.297 2.5,-9.91 0,-3.633 -0.83,-6.949 -2.5,-9.949 -1.67,-2.992 -3.92,-5.36 -6.77,-7.098 -2.84,-1.738 -5.96,-2.609 -9.33,-2.609 -3.39,0 -6.5,0.871 -9.34,2.609 -2.84,1.738 -5.09,4.106 -6.75,7.098 -1.67,3 -2.51,6.316 -2.51,9.949 0,3.633 0.84,6.938 2.51,9.926 1.66,2.988 3.91,5.34 6.75,7.058 2.84,1.727 5.95,2.586 9.34,2.586 3.37,0 6.49,-0.859 9.33,-2.586" /></g></g></svg>