<?xml version="1.0" encoding="UTF-8" standalone="no"?>
<svg
   xmlns:dc="http://purl.org/dc/elements/1.1/"
   xmlns:cc="http://creativecommons.org/ns#"
   xmlns:rdf="http://www.w3.org/1999/02/22-rdf-syntax-ns#"
   xmlns:svg="http://www.w3.org/2000/svg"
   xmlns="http://www.w3.org/2000/svg"
   viewBox="0 0 287.44 106.50667"
   height="106.50667"
   width="287.44"
   xml:space="preserve"
   id="svg2"
   version="1.1"><metadata
     id="metadata8"><rdf:RDF><cc:Work
         rdf:about=""><dc:format>image/svg+xml</dc:format><dc:type
           rdf:resource="http://purl.org/dc/dcmitype/StillImage" /></cc:Work></rdf:RDF></metadata><defs
     id="defs6" /><g
     transform="matrix(1.3333333,0,0,-1.3333333,0,106.50667)"
     id="g10"><g
       transform="scale(0.1)"
       id="g12"><path
         id="path14"
         style="fill:#1e59ae;fill-opacity:1;fill-rule:nonzero;stroke:none"
         d="M 464.141,702.227 V 589.277 L 354.668,702.227 H 308.281 V 513.871 h 49.949 v 117.91 l 115.793,-117.91 h 40.04 v 188.356 h -49.922" /><path
         id="path16"
         style="fill:#1e59ae;fill-opacity:1;fill-rule:nonzero;stroke:none"
         d="m 632.859,659.047 v 43.18 h 54.512 V 513.871 h -54.512 v 145.176" /><path
         id="path18"
         style="fill:#1e59ae;fill-opacity:1;fill-rule:nonzero;stroke:none"
         d="m 1120.44,589.277 v -34.39 h 123.35 v -41.016 h -176.67 v 188.356 h 175.89 v -41.266 h -122.57 v -33.398 h 103.82 v -38.286 h -103.82" /><path
         id="path20"
         style="fill:#1e59ae;fill-opacity:1;fill-rule:nonzero;stroke:none"
         d="M 904.762,659.574 V 513.871 h -53.59 v 145.703 h -69.027 v 42.653 h 191.761 v -42.653 h -69.144" /><path
         id="path22"
         style="fill:#1e59ae;fill-opacity:1;fill-rule:nonzero;stroke:none"
         d="M 1346.54,702.227 V 513.871 h 94.82 c 78.06,0.059 116.4,35.371 116.4,94.41 0,55.844 -34.53,93.867 -116.4,93.946 z m 53.49,-42.262 h 40.12 c 44.02,-0.059 61.91,-18.496 61.91,-51.977 0,-34.293 -18.38,-51.773 -61.91,-51.851 h -40.12 v 103.828" /><path
         id="path24"
         style="fill:#1e59ae;fill-opacity:1;fill-rule:nonzero;stroke:none"
         d="m 205.684,596.953 c 0.007,-57.594 -35.86,-86.5 -102.446,-86.5 -66.7458,0 -103.191125,28.77 -103.1794062,86.168 V 702.227 H 53.5195 V 596.504 c 0.0508,-28.727 16.3008,-43.063 49.9025,-42.945 33.226,0.097 48.914,14.101 48.949,42.632 v 106.036 h 53.313 V 596.953" /><path
         id="path26"
         style="fill:#1e59ae;fill-opacity:1;fill-rule:nonzero;stroke:none"
         d="m 1692.18,760.219 c 31.84,1.406 48.71,-16.645 54.24,-38.735 11.02,-43.875 -13.5,-86.832 -54.24,-114.472 l 0.06,15.629 c 4.59,2.461 16.97,12.851 20.37,18.281 -5.21,1.836 -14.63,3.144 -20.47,3.047 v 19.804 c 9.81,0.586 24.65,-1.23 33.91,-3.32 3.95,6.051 6.09,11.168 7.54,18.063 -9.86,1.855 -30.67,1.359 -41.45,-0.215 v 13.867 c 11.12,3.059 35.55,5.371 45.1,4.316 0.72,4.356 0.55,9.883 -0.88,14.817 -9.51,0.75 -33.44,-2.051 -44.18,-5.285 v 11.23 c 9.92,4.219 32.37,8.176 41.9,8.809 -0.86,3.984 -3.34,8.691 -6.23,11.269 -8.91,-0.683 -25.41,-4.14 -35.67,-7.539 v 10.567 c 6.06,2.812 19.16,6.031 26.04,6.488 -3.69,2.492 -15.63,5.969 -26,5.246 l -0.04,8.133" /><path
         id="path28"
         style="fill:#1e59ae;fill-opacity:1;fill-rule:nonzero;stroke:none"
         d="m 1719.12,764.801 c 73.59,13.594 106.9,-18.922 86.92,-98.278 -18.49,-65.253 -57.57,-109.097 -113.82,-142.691 v 34.336 c 3.28,-2.715 7.5,-7.988 10.37,-12.773 6.29,3.125 14.69,9.062 19.03,13.828 -4.5,6.386 -21,22.617 -29.4,27.652 -0.02,-0.078 -0.02,4.219 0,4.453 7.66,4.063 20.94,13.867 26.7,21.469 9.43,-4.047 28.07,-19.32 32.27,-24.848 6.7,6.778 14.63,17.832 17.98,25.199 -7.5,6.504 -22.03,14.922 -32.65,18.672 5.86,6.133 11.8,16.211 14.45,23.379 9.22,-2.051 26.21,-7.011 34.08,-11.601 3.87,6.914 6.82,15.976 8.85,25.816 -7.97,3.203 -24.3,6.172 -34.88,7.285 1.4,4.414 2.4,15.559 2.11,20.149 12.11,0.269 28.77,-1.457 37.65,-3.567 1.27,5.324 1.68,11.602 0.65,18.008 -10.35,1.582 -27.68,2.578 -39.43,1.719 -0.12,4.824 -1.78,12.09 -3.54,15.5 9.36,1.531 28.32,1.707 39.26,0.457 -1.7,5.207 -3.85,10.488 -8.58,14.394 -7.63,0.704 -25.13,-0.117 -35.95,-2.05 -2.05,3.918 -5.51,8.031 -9.22,10.523 7.01,2.129 21.52,3.613 29.43,3.125 -6.42,3.301 -18.63,6.434 -37.42,3.984 -6.95,4.434 -14.86,5.86 -14.86,5.86" /><path
         id="path30"
         style="fill:#1e59ae;fill-opacity:1;fill-rule:nonzero;stroke:none"
         d="M 2050.42,440.422 V 798.766 H 1692.3 v -29.543 c 51.23,16.261 153.19,7.023 212.39,-46.157 48.13,-43.261 81.03,-98.003 85.05,-173.492 2.46,-45.937 -9.43,-86.785 -20.72,-109.152 13.4,0 73.38,0 81.4,0" /><path
         id="path32"
         style="fill:#1e59ae;fill-opacity:1;fill-rule:nonzero;stroke:none"
         d="m 1846.16,720.324 c -6.68,2.957 -16.99,6.004 -25.2,6.414 1.53,-5.039 2.27,-11.211 2.46,-17.664 8.23,-1.066 22.41,-5.031 29.61,-8.183 2.7,-8.313 2.85,-15.578 2.8,-23.782 -8.03,4.582 -22.72,10.442 -33.23,12.344 -0.29,-7.265 -2.01,-17.832 -4.53,-25.719 10.92,-3.496 26.76,-11.582 34.14,-16.875 -1.42,-10.879 -5.21,-23.086 -10.56,-33.379 -8.03,7.149 -24.2,17.227 -34.52,21.602 -3.06,-9.57 -11.78,-27.816 -17.96,-35.199 9.05,-5.488 24.16,-18.844 29.98,-26.07 -6.72,-12.071 -14.57,-21.661 -23.24,-28.965 -4.68,8.457 -16.4,23.808 -24.66,30.332 -6.61,-10.977 -22.45,-26.992 -33.25,-33.848 7.35,-7.168 17.41,-21.289 21.92,-29.394 -6.17,-6.329 -17.39,-14.235 -26.84,-19.075 -3.42,11.106 -9.02,22.668 -15.31,32.219 -6.1,-6.269 -15.82,-11.387 -25.63,-16.426 v -50.187 c 65.57,23.73 150.7,91.652 170.91,183.586 9.85,44.754 -0.06,71.812 -9.35,86.578 -15.26,24.176 -43.19,28.961 -55.83,30.816 5.4,-2.844 12.97,-9.609 16.76,-15.582 20.63,-3.758 28.07,-16.297 31.53,-23.543" /><path
         id="path34"
         style="fill:#1e59ae;fill-opacity:1;fill-rule:nonzero;stroke:none"
         d="m 1692.16,440.656 v 4.239 c 20.84,6.25 45.1,19.464 55.35,28.472 3.62,-8.676 7.23,-22.867 8.32,-31.051 9.32,5.704 20.53,13.282 28.23,22.317 -2.25,7.332 -6.88,17.234 -11.53,24.285 13.4,9.117 30.74,25.617 40.99,38.449 4.18,-6.406 9.2,-17.637 11.76,-26.222 10.15,8.429 22.52,23.449 28.81,33.761 -3.89,7.012 -10.32,15.43 -17.05,21.817 10.04,11.992 20.97,33.004 24.16,43.882 5.76,-3.242 15.72,-14.375 19.37,-20.054 7.17,13.179 11.47,26.871 13.91,41.953 -4.59,5.391 -12.68,11.816 -20.22,15.234 2.42,8.477 4.98,22.754 4.4,32.047 6.44,-2.793 15.19,-9.215 19.65,-13.961 0.97,9.528 0.17,18.942 -2.35,28.317 -4.1,4.152 -13.32,9.601 -18.88,11.211 -0.55,6.222 -3.11,13.984 -5.12,18.164 4.57,-0.977 13.63,-6.582 17.17,-9.532 -3.54,8.555 -13.27,16.985 -20.75,19.746 -2.26,4.083 -6.54,10.606 -10.45,14.375 41.35,-14.003 46.31,-43.378 49.38,-55.046 6.84,-44.442 -2.4,-84.055 -22.25,-122.313 -25.13,-48.555 -56.07,-76.574 -109.75,-120.09 h -83.15" /><path
         id="path36"
         style="fill:#1e59ae;fill-opacity:1;fill-rule:nonzero;stroke:none"
         d="m 1794.8,440.535 c 19.01,12.602 32.04,24 44.19,39.375 3.87,-8.765 5.9,-25.523 5.9,-25.504 8.86,7.465 27.19,27.285 33.32,38.242 -1.84,6.036 -6.06,15.54 -9.44,19.856 12.04,11.914 23.93,33.711 28.21,48.262 4.96,-4.981 9.9,-13.653 11.79,-19.317 7.7,14.082 14.79,31.328 18.15,50.426 -2.62,5.566 -6.99,11.836 -11.84,16.621 3.44,9.828 5.34,24.008 5.02,35.57 3.62,-2.793 10.06,-10.898 13.28,-16.66 -0.07,19.903 -2.07,32.676 -13.98,43.297 -0.22,5.871 -2.03,15.781 -5.65,23.418 17.56,-14.902 33.07,-34.703 28.62,-78.961 -6.7,-66.719 -46.04,-130.324 -92.48,-174.625 h -55.09" /><path
         id="path38"
         style="fill:#1e59ae;fill-opacity:1;fill-rule:nonzero;stroke:none"
         d="m 1922.84,440.402 c 9.78,8.926 14.74,17.832 20.19,29.414 2.31,-5.621 3.46,-12.406 3.73,-19.863 2.85,8.457 18.54,34.219 18.23,70.324 5.42,17.676 8.56,36.817 9.36,51.875 5.47,-25.937 5.47,-83.273 -19.83,-131.75 h -31.68" /><path
         id="path40"
         style="fill:#1e59ae;fill-opacity:1;fill-rule:nonzero;stroke:none"
         d="m 1957.37,596.66 c 1.17,6.973 -0.49,18.207 -5.43,25.629 0.17,5.274 -1.08,18.223 -2.15,23.926 10.39,-14.199 19.13,-30.039 15.77,-67.363 -5.81,-50.508 -21.04,-101.282 -59.83,-138.45 h -15.04 c 0.27,4.336 -0.37,15.547 -2.7,23.098 14.44,14.891 30.12,39.473 35.96,57.48 4.06,-8.281 6.21,-16.015 7.27,-25.91 10.15,18.137 17.93,44.543 20.07,62.493 -1.34,5.644 -3.98,11.25 -6.81,15.429 3.49,8.848 6.46,25.699 6.62,34.899 2.48,-2.52 5.06,-8.145 6.27,-11.231" /><path
         id="path42"
         style="fill:#1e59ae;fill-opacity:1;fill-rule:nonzero;stroke:none"
         d="m 2094.58,465.375 c 3.25,0 8.93,-0.586 8.93,3.563 0,2.695 -3.53,3.179 -6.35,3.179 h -6.97 v -6.742 z m 12.23,-15.695 h -4.41 l -7.82,12.035 h -4.39 V 449.68 h -3.65 v 26.093 h 11.35 c 4.7,0 9.29,-1.269 9.29,-6.894 0,-5.164 -3.61,-7.047 -8.26,-7.164 z m 8.91,12.894 c 0,11.246 -9.34,20.168 -20.28,20.168 -10.93,0 -20.27,-8.922 -20.27,-20.168 0,-11.254 9.34,-20.164 20.27,-20.164 10.94,0 20.28,8.91 20.28,20.164 z m -44.2,0 c 0,13.278 10.55,23.844 23.92,23.844 13.36,0 23.93,-10.566 23.93,-23.844 0,-13.246 -10.57,-23.812 -23.93,-23.812 -13.37,0 -23.92,10.566 -23.92,23.812" /><path
         id="path44"
         style="fill:#231f20;fill-opacity:1;fill-rule:nonzero;stroke:none"
         d="M 0.0585938,368.809 H 2119.37 V 357.578 H 0.0585938 v 11.231 0" /><path
         id="path46"
         style="fill:#d3d2d2;fill-opacity:1;fill-rule:nonzero;stroke:none"
         d="m 1799.69,231.797 c 11.92,16.621 25.24,32.5 39.85,47.656 14.64,15.195 30.19,29.121 46.38,41.66 l -17.34,-69.492 -68.89,-19.824" /><path
         id="path48"
         style="fill:#4f4c4c;fill-opacity:1;fill-rule:nonzero;stroke:none"
         d="m 1920.12,201.816 c -20.33,2.012 -40.78,5.567 -61.21,10.664 -20.49,5.059 -40.27,11.563 -59.24,19.317 l 68.91,19.824 51.54,-49.805" /><path
         id="path50"
         style="fill:#918f90;fill-opacity:1;fill-rule:nonzero;stroke:none"
         d="m 1885.92,321.113 c 8.38,-18.711 15.53,-38.144 21.31,-58.359 5.84,-20.293 10.12,-40.645 12.89,-60.938 l -51.54,49.805 17.34,69.492" /><path
         id="path52"
         style="fill:#918f90;fill-opacity:1;fill-rule:nonzero;stroke:none"
         d="m 1775.32,88.8086 c -12.05,16.5824 -23.11,34.0824 -32.99,52.6754 -9.92,18.672 -18.32,37.715 -25.27,57.032 l 60.8,-38.028 -2.54,-71.6794" /><path
         id="path54"
         style="fill:#4f4c4c;fill-opacity:1;fill-rule:nonzero;stroke:none"
         d="m 1841.12,194.16 c -8.22,-18.711 -17.89,-37.129 -29.08,-54.941 -11.18,-17.871 -23.44,-34.649 -36.72,-50.4104 l 2.54,71.6794 63.26,33.672" /><path
         id="path56"
         style="fill:#d3d2d2;fill-opacity:1;fill-rule:nonzero;stroke:none"
         d="m 1717.09,198.516 c 20.32,2.148 41.06,3.007 62.08,2.226 21.09,-0.762 41.75,-2.949 61.95,-6.582 l -63.26,-33.672 -60.77,38.028" /><path
         id="path58"
         style="fill:#4f4c4c;fill-opacity:1;fill-rule:nonzero;stroke:none"
         d="m 1903.77,21.582 c -19.45,-6.4257 -39.53,-11.5234 -60.25,-15.15622 -20.76,-3.65234 -41.5,-5.781249 -62.01,-6.3867175 l 54.9,46.0351375 67.36,-24.4922" /><path
         id="path60"
         style="fill:#918f90;fill-opacity:1;fill-rule:nonzero;stroke:none"
         d="m 1823.99,116.68 c 15.25,-13.653 29.69,-28.5159 43.22,-44.6487 13.56,-16.1133 25.74,-33.0665 36.56,-50.4493 l -67.36,24.4922 -12.42,70.6058" /><path
         id="path62"
         style="fill:#d3d2d2;fill-opacity:1;fill-rule:nonzero;stroke:none"
         d="m 1781.51,0.0390625 c 4.18,20.0000375 9.84,40.0000375 17.05,59.7461375 7.19,19.8242 15.76,38.8671 25.43,56.9528 l 12.42,-70.6638 -54.9,-46.0351375" /><path
         id="path64"
         style="fill:#918f90;fill-opacity:1;fill-rule:nonzero;stroke:none"
         d="m 2007.47,122.852 c 0.05,-20.43 -1.31,-41.1137 -4.22,-61.9536 C 2000.32,40.0391 1995.9,19.6484 1990.18,0 l -26.84,66.4063 44.13,56.4457" /><path
         id="path66"
         style="fill:#d3d2d2;fill-opacity:1;fill-rule:nonzero;stroke:none"
         d="m 1892.39,76.3086 c 17.67,10.4102 36.27,19.5312 55.74,27.4024 19.63,7.93 39.41,14.297 59.34,19.141 l -44.13,-56.4457 -70.95,9.9023" /><path
         id="path68"
         style="fill:#4f4c4c;fill-opacity:1;fill-rule:nonzero;stroke:none"
         d="M 1990.18,0.0390625 C 1972.43,10.1367 1955.18,21.6602 1938.62,34.6875 1922,47.6172 1906.55,61.582 1892.39,76.3867 l 70.95,-9.9804 26.84,-66.3672375" /><path
         id="path70"
         style="fill:#918f90;fill-opacity:1;fill-rule:nonzero;stroke:none"
         d="m 1943.17,252.813 c 19.43,-6.192 38.71,-13.946 57.62,-23.165 18.96,-9.238 36.97,-19.687 53.9,-31.171 l -71.46,-5.059 -40.06,59.395" /><path
         id="path72"
         style="fill:#d3d2d2;fill-opacity:1;fill-rule:nonzero;stroke:none"
         d="m 1951.82,129.023 c -4.37,19.961 -7.32,40.469 -8.83,61.485 -1.4,21.035 -1.36,41.894 0.18,62.305 l 40.06,-59.395 -31.41,-64.395" /><path
         id="path74"
         style="fill:#4f4c4c;fill-opacity:1;fill-rule:nonzero;stroke:none"
         d="m 2054.67,198.477 c -15.11,-13.789 -31.4,-26.641 -48.84,-38.418 -17.49,-11.778 -35.55,-22.129 -54.01,-31.036 l 31.41,64.395 71.44,5.059" /><path
         id="path76"
         style="fill:#231f20;fill-opacity:1;fill-rule:nonzero;stroke:none"
         d="m 1156.39,178.398 h 10.2 v -69.843 h -7.15 v 60.371 h -0.22 l -30.8,-60.371 h -6.68 L 1091,169.023 h -0.17 v -60.468 h -7.15 v 69.843 h 10.45 l 31.17,-60.761 31.09,60.761" /><path
         id="path78"
         style="fill:#231f20;fill-opacity:1;fill-rule:nonzero;stroke:none"
         d="m 882.813,143.281 c 0,-21.933 15.214,-36.191 37.734,-36.191 20.859,0 33.535,14.18 35.215,28.105 l 0.215,1.7 h -7.539 l -0.215,-1.27 c -2.422,-13.418 -13.008,-21.719 -27.676,-21.719 -21.66,0 -30.313,15.196 -30.313,29.453 0,17.403 12.559,29.512 30.586,29.512 13.672,0 23.555,-6.601 26.368,-17.519 l 0.273,-1.153 H 955 l -0.43,1.895 c -3.437,14.98 -15.761,23.594 -33.75,23.594 -25.566,0 -38.007,-18.848 -38.007,-36.407 z m 95.566,34.942 v -69.629 h 56.171 v 6.758 c 0,0 -46.054,0 -48.945,0 0,2.656 0,23.339 0,25.878 2.872,0 46.465,0 46.465,0 v 6.68 c 0,0 -43.593,0 -46.465,0 0,2.559 0,20.938 0,23.496 2.872,0 48.435,0 48.435,0 v 6.817 z m -125.332,0 c 0,0 0,-50.821 0,-58.145 -4.473,5.469 -50.391,58.145 -50.391,58.145 h -7.265 v -69.629 h 7.148 c 0,0 0,51.172 0,58.105 4.492,-5.469 50.41,-58.105 50.41,-58.105 h 7.246 v 69.629 z m -177.422,0 v -69.629 h 7.148 v 69.629 z m -65.137,0 v -69.629 h 50.117 v 6.758 c 0,0 -40.019,0 -42.871,0 0,2.968 0,62.871 0,62.871 z m -65.703,0 v -69.629 h 50.176 v 6.758 c 0,0 -40.039,0 -42.91,0 0,2.968 0,62.871 0,62.871 z m 195.703,-9.629 c 2.149,-4.805 12.891,-28.321 14.492,-31.817 -3.828,0 -25.273,0 -29.042,0 1.582,3.496 12.324,27.012 14.55,31.817 z m -3.379,9.629 -31.992,-69.629 h 7.969 c 0,0 9.082,19.863 9.805,21.445 1.797,0 33.261,0 35.039,0 0.781,-1.582 9.883,-21.445 9.883,-21.445 h 7.929 l -31.894,69.629 z M 487.07,168.594 c 2.188,-4.805 12.871,-28.321 14.473,-31.817 -3.809,0 -25.215,0 -29.023,0 1.601,3.496 12.363,27.012 14.55,31.817 z m -3.34,9.629 -32.031,-69.629 h 7.969 c 0,0 9.082,19.863 9.844,21.445 1.758,0 33.222,0 35,0 0.801,-1.582 9.922,-21.445 9.922,-21.445 h 7.929 l -31.914,69.629 z m -106.386,-6.817 c 10.996,0 16.367,-3.965 16.367,-12.109 0,-9.16 -5.684,-13.613 -17.363,-13.613 0,0 -24.883,0 -27.598,0 0,2.597 0,23.086 0,25.722 2.715,0 28.594,0 28.594,0 z m -35.879,6.817 v -69.629 h 7.285 c 0,0 0,27.539 0,30.234 2.715,0 28.164,0 28.164,0 12.441,0 15.313,-2.48 15.606,-13.281 0.273,-11.348 0.859,-15.02 2.304,-16.524 l 0.449,-0.429 h 7.481 l -1.172,2.226 c -1.113,2.188 -1.523,6.465 -1.641,17.735 -0.097,6.894 -3.867,11.894 -9.863,14.121 7.774,3.476 10.996,10.586 10.996,16.406 0,12.852 -7.89,19.141 -24.043,19.141 z m -55.527,-9.629 c 2.265,-4.805 13.007,-28.321 14.589,-31.817 -3.769,0 -25.214,0 -29.023,0 1.601,3.496 12.285,27.012 14.434,31.817 z m -3.223,9.629 -31.973,-69.629 h 7.832 c 0,0 9.16,19.863 9.903,21.445 1.816,0 33.281,0 35.078,0 0.742,-1.582 9.804,-21.445 9.804,-21.445 h 8.047 l -32.051,69.629 z m -95.039,0 v -6.817 c 0,0 24.238,0 26.953,0 0,-2.91 0,-62.812 0,-62.812 h 7.168 c 0,0 0,59.902 0,62.812 2.695,0 26.953,0 26.953,0 v 6.817 z m -73.867,-46.797 c 0,-6.856 2.011,-12.031 6.093,-16.016 5.352,-5.41 14.903,-8.105 26.875,-8.105 6.68,0 29.707,1.465 29.707,20.508 0,16.796 -15.351,18.339 -28.847,19.707 v 0 c -13.965,1.367 -24.239,2.949 -24.239,12.421 0,4.707 2.422,8.086 7.364,10.411 5.117,2.343 10.664,2.734 16.386,2.734 4.473,0 12.54,-0.684 17.129,-5.273 2.071,-2.129 3.184,-5.528 3.184,-8.731 l 7.012,-0.215 c 0,5.176 -1.641,10.313 -4.864,13.535 -5.879,5.86 -15.761,7.149 -23.027,7.149 -9.941,0 -19.785,-2.188 -25.801,-8.223 -3.164,-3.164 -4.765,-6.973 -4.765,-11.387 0,-16.367 16.738,-17.773 29.824,-18.886 6.23,-0.645 12.109,-1.114 16.445,-3.047 4.61,-1.973 6.758,-5.391 6.758,-10.488 0,-3.262 -1.094,-5.997 -3.223,-8.125 -5.078,-5.098 -15.683,-5.625 -19.511,-5.625 -9.473,0 -17.09,2.011 -21.153,6.093 -2.89,2.91 -4.375,6.465 -4.414,11.563 h -6.933" /><path
         id="path80"
         style="fill:#231f20;fill-opacity:1;fill-rule:nonzero;stroke:none"
         d="m 20.8203,137.148 c 1.582,3.516 12.3047,27.071 14.4531,31.817 2.2071,-4.746 12.9883,-28.301 14.5704,-31.817 -3.8086,0 -25.254,0 -29.0235,0 z m 17.832,41.465 H 32.0508 L 0,108.984 h 7.89063 c 0,0 9.10157,19.864 9.88277,21.543 1.8164,0 33.2813,0 35.1172,0 0.7227,-1.679 9.7461,-21.543 9.7461,-21.543 h 8.0469 l -32.0313,69.629" /><path
         id="path82"
         style="fill:#231f20;fill-opacity:1;fill-rule:nonzero;stroke:none"
         d="m 1189.09,178.047 v -69.59 h 56.23 v 6.777 c 0,0 -46.12,0 -49.03,0 0,2.618 0,23.301 0,25.86 2.88,0 46.47,0 46.47,0 v 6.719 c 0,0 -43.59,0 -46.47,0 0,2.578 0,20.859 0,23.476 2.88,0 48.46,0 48.46,0 v 6.758 h -55.66" /><path
         id="path84"
         style="fill:#231f20;fill-opacity:1;fill-rule:nonzero;stroke:none"
         d="m 1339.95,178.398 h 10.25 v -69.882 h -7.17 v 60.371 h -0.23 L 1312,108.516 h -6.64 l -30.71,60.449 h -0.21 v -60.449 h -7.17 v 69.882 h 10.47 l 31.13,-60.82 31.08,60.82" /><path
         id="path86"
         style="fill:#231f20;fill-opacity:1;fill-rule:nonzero;stroke:none"
         d="m 1380.06,141.348 h 32.11 c 8.38,0 14.63,-2.813 14.63,-12.891 0,-9.629 -7.05,-13.398 -16.38,-13.398 h -30.36 z m -7.13,-32.793 h 38.64 c 10.7,0 22.95,5.312 22.95,19.902 0,8.867 -5.53,15.586 -14.65,16.973 v 0.215 c 8.28,1.953 11.95,8.261 11.95,15.058 0,9.863 -5.68,17.52 -19.37,17.52 h -39.52 z m 7.13,63.125 h 31.06 c 7.85,0 13.55,-2.754 13.55,-11.309 0,-9.297 -6.29,-12.461 -16.01,-12.461 h -28.6 v 23.77" /><path
         id="path88"
         style="fill:#231f20;fill-opacity:1;fill-rule:nonzero;stroke:none"
         d="m 1457.25,178.145 v -69.629 h 56.21 v 6.797 c 0,0 -46.05,0 -48.98,0 0,2.578 0,23.3 0,25.82 2.87,0 46.5,0 46.5,0 v 6.777 c 0,0 -43.63,0 -46.5,0 0,2.52 0,20.86 0,23.418 2.87,0 48.44,0 48.44,0 v 6.817 h -55.67" /><path
         id="path90"
         style="fill:#231f20;fill-opacity:1;fill-rule:nonzero;stroke:none"
         d="m 1570.22,145.645 c 0,0 -24.96,0 -27.62,0 0,2.519 0,23.066 0,25.722 2.7,0 28.62,0 28.62,0 10.99,0 16.34,-3.984 16.34,-12.148 0,-9.18 -5.64,-13.574 -17.34,-13.574 z m 25.2,-34.903 c -1.12,2.168 -1.51,6.504 -1.65,17.774 -0.09,6.836 -3.88,11.894 -9.84,14.082 7.81,3.554 10.96,10.625 10.96,16.484 0,12.813 -7.81,19.063 -24.03,19.063 h -35.54 v -69.59 h 7.28 c 0,0 0,27.539 0,30.273 2.66,0 28.15,0 28.15,0 12.4,0 15.39,-2.519 15.7,-13.32 0.22,-11.309 0.74,-15.078 2.19,-16.524 l 0.47,-0.429 h 7.5 l -1.19,2.187" /><path
         id="path92"
         style="fill:#231f20;fill-opacity:1;fill-rule:nonzero;stroke:none"
         d="m 2097.78,178.254 h 3.06 v 27.051 h 11.72 v 2.851 h -26.5 v -2.851 h 11.72 v -27.051" /><path
         id="path94"
         style="fill:#231f20;fill-opacity:1;fill-rule:nonzero;stroke:none"
         d="m 2151.47,208.156 h 4.36 v -29.902 h -3.08 v 25.84 h -0.09 l -13.21,-25.84 h -2.82 l -13.16,25.859 h -0.09 v -25.859 h -3.09 v 29.902 h 4.51 l 13.34,-26.015 13.33,26.015" /></g></g></svg>