<svg id="Layer_1" data-name="Layer 1" xmlns="http://www.w3.org/2000/svg" viewBox="0 0 98 42"><defs><style>.cls-1{fill:#333;}.cls-2{fill:#fcee21;}</style></defs><title>LandingPage copy</title><path class="cls-1" d="M37.66,31s-8.47,4-15.18.71S12.21,14.56,12.21,14.56s11.17-1.7,17.88,1.56S37.66,31,37.66,31Z"/><circle class="cls-2" cx="26.28" cy="23.91" r="7.66"/><path class="cls-1" d="M28.15,24a14.7,14.7,0,0,1-1.94,7,14.7,14.7,0,0,1-1.94-7,14.7,14.7,0,0,1,1.94-7A14.7,14.7,0,0,1,28.15,24Z"/><path class="cls-1" d="M57.61,31s8.47,4,15.18.71S83.06,14.56,83.06,14.56s-11.17-1.7-17.88,1.56S57.61,31,57.61,31Z"/><circle class="cls-2" cx="68.99" cy="23.91" r="7.66"/><path class="cls-1" d="M67.12,24a14.7,14.7,0,0,0,1.94,7A14.7,14.7,0,0,0,71,24a14.7,14.7,0,0,0-1.94-7A14.7,14.7,0,0,0,67.12,24Z"/></svg>