<?xml version="1.0" encoding="UTF-8" standalone="no"?>
<svg width="2160px" height="2160px" viewBox="0 0 2160 2160" version="1.1" xmlns="http://www.w3.org/2000/svg" xmlns:xlink="http://www.w3.org/1999/xlink">
    <!-- Generator: Sketch 42 (36781) - http://www.bohemiancoding.com/sketch -->
    <title>dcl_firstfloor copy</title>
    <desc>Created with Sketch.</desc>
    <defs>
        <polygon id="path-1" points="782 181.108891 952 181.108891 952 590.548452 788.910569 590.548452 788.910569 389.298498 782 389.298498"></polygon>
        <mask id="mask-2" maskContentUnits="userSpaceOnUse" maskUnits="objectBoundingBox" x="0" y="0" width="170" height="409.43956" fill="white">
            <use xlink:href="#path-1"></use>
        </mask>
        <path d="M102,275.672328 L255.481481,275.672328 L255.481481,375.589089 L310.790123,375.589089 L310.790123,410.28241 L318.267616,410.28241 L318.267616,429.181045 L326,429.181045 L326,586.524476 L125.998486,586.524476 C112.744488,586.524476 102,575.779148 102,562.519984 L102,275.672328 Z" id="path-3"></path>
        <mask id="mask-4" maskContentUnits="userSpaceOnUse" maskUnits="objectBoundingBox" x="0" y="0" width="224" height="310.852148" fill="white">
            <use xlink:href="#path-3"></use>
        </mask>
        <polygon id="path-5" points="332 236.62612 689.861199 236.62612 689.861199 181.108891 749.274448 181.108891 749.274448 236.62612 749.274448 446.203657 770 446.203657 770 541.970877 749.274448 541.970877 749.274448 590.548452 348.580442 590.548452 348.580442 389.826705 337.293276 389.826705 337.526814 380.970914 332 380.970914"></polygon>
        <mask id="mask-6" maskContentUnits="userSpaceOnUse" maskUnits="objectBoundingBox" x="0" y="0" width="438" height="409.43956" fill="white">
            <use xlink:href="#path-5"></use>
        </mask>
    </defs>
    <g id="New-Maps" stroke="none" stroke-width="1" fill="none" fill-rule="evenodd">
        <g id="dcl_firstfloor-copy">
            <polygon id="Fill-1549" fill="#142442" points="0 2160 2160 2160 2160 0 0 0"></polygon>
            <g id="Group-2" transform="translate(109.000000, 144.000000)" fill="#FFFFFF">
                <path d="M2.41221322,137.90324 L2.41221322,9.05567107 L52.1105611,9.05567107 C98.1275499,9.05567107 124.817403,35.5614566 124.817403,72.7431835 L124.817403,73.1113195 C124.817403,110.293046 97.759414,137.90324 51.3742893,137.90324 L2.41221322,137.90324 Z M38.1213965,106.243551 L52.662765,106.243551 C74.0146478,106.243551 88.1878803,94.4632022 88.1878803,73.6635233 L88.1878803,73.2953874 C88.1878803,52.6797764 74.0146478,40.7153594 52.662765,40.7153594 L38.1213965,40.7153594 L38.1213965,106.243551 Z M215.2551,140.480191 C243.785633,140.480191 260.167681,128.147638 272.316166,111.397454 L245.442244,92.2543868 C237.71139,101.641852 229.796468,107.900163 216.359507,107.900163 C198.320848,107.900163 185.620159,92.8065906 185.620159,73.4794554 L185.620159,73.1113195 C185.620159,54.336388 198.320848,39.0587478 216.359507,39.0587478 C228.69206,39.0587478 237.159186,44.9489223 244.521905,54.1523201 L271.395826,33.3526411 C259.983613,17.522797 243.049361,6.4787197 216.727643,6.4787197 C177.705237,6.4787197 148.806568,35.9295925 148.806568,73.4794554 L148.806568,73.8475913 C148.806568,112.317794 178.441509,140.480191 215.2551,140.480191 Z M297.593806,137.90324 L395.702026,137.90324 L395.702026,106.611687 L333.302989,106.611687 L333.302989,9.05567107 L297.593806,9.05567107 L297.593806,137.90324 Z" id="DCL"></path>
                <path d="M32.91,247.26 C46.86,247.26 54.87,241.23 60.81,233.04 L47.67,223.68 C43.89,228.27 40.02,231.33 33.45,231.33 C24.63,231.33 18.42,223.95 18.42,214.5 L18.42,214.32 C18.42,205.14 24.63,197.67 33.45,197.67 C39.48,197.67 43.62,200.55 47.22,205.05 L60.36,194.88 C54.78,187.14 46.5,181.74 33.63,181.74 C14.55,181.74 0.42,196.14 0.42,214.5 L0.42,214.68 C0.42,233.49 14.91,247.26 32.91,247.26 Z M73.28,246 L90.74,246 L90.74,222.06 L113.15,222.06 L113.15,246 L130.61,246 L130.61,183 L113.15,183 L113.15,206.58 L90.74,206.58 L90.74,183 L73.28,183 L73.28,246 Z M146.77,246 L197.89,246 L197.89,231.15 L164.05,231.15 L164.05,221.16 L194.29,221.16 L194.29,207.39 L164.05,207.39 L164.05,197.85 L197.44,197.85 L197.44,183 L146.77,183 L146.77,246 Z M241.68,247.26 C255.63,247.26 263.64,241.23 269.58,233.04 L256.44,223.68 C252.66,228.27 248.79,231.33 242.22,231.33 C233.4,231.33 227.19,223.95 227.19,214.5 L227.19,214.32 C227.19,205.14 233.4,197.67 242.22,197.67 C248.25,197.67 252.39,200.55 255.99,205.05 L269.13,194.88 C263.55,187.14 255.27,181.74 242.4,181.74 C223.32,181.74 209.19,196.14 209.19,214.5 L209.19,214.68 C209.19,233.49 223.68,247.26 241.68,247.26 Z M282.05,246 L299.51,246 L299.51,229.71 L305.9,222.6 L321.74,246 L342.71,246 L318.05,210.09 L341.9,183 L321.2,183 L299.51,208.56 L299.51,183 L282.05,183 L282.05,246 Z M383.04,246 L400.59,246 L400.59,183 L383.04,183 L383.04,246 Z M417.11,246 L434.39,246 L434.39,211.44 L461.3,246 L476.6,246 L476.6,183 L459.32,183 L459.32,216.3 L433.4,183 L417.11,183 L417.11,246 Z" id="CHECK-IN"></path>
                <path d="M1840.27884,0 C1846.29485,13.5537426 1852.30269,27.1156649 1858.33915,40.6694075 C1863.00964,51.1598571 1867.72103,61.6339472 1872.37925,72.1325765 C1872.915,73.3431702 1874.24417,75.0404554 1873.45076,75.7929867 C1872.56738,76.6314047 1871.05417,75.1222523 1869.90086,74.5251351 C1860.5926,69.7236584 1851.30888,64.8812833 1842.06606,59.9693808 C1840.49969,59.1391425 1839.23187,59.1391425 1837.66549,59.9693808 C1828.11594,65.0326075 1818.51322,70.0099475 1808.92686,75.0118265 C1808.38292,75.2981156 1807.83489,75.5884945 1807.26642,75.8257055 C1806.91879,75.9729399 1806.50164,76.3001274 1806.1581,75.9238617 C1805.84319,75.576225 1806.06813,75.1590609 1806.2358,74.7787054 C1807.68766,71.4577522 1809.1109,68.1286193 1810.57911,64.8158458 C1815.39683,53.936861 1820.21455,43.066056 1825.05272,32.2034307 C1829.19972,22.8990359 1833.37944,13.6069106 1837.5428,4.31069545 C1838.1808,2.87925009 1838.8188,1.43962504 1839.45271,0 L1840.27884,0 Z" id="Fill-1911"></path>
                <polygon id="N" points="1816.56489 138 1830.7013 138 1830.7013 109.727162 1852.71583 138 1865.23245 138 1865.23245 86.4609726 1851.09603 86.4609726 1851.09603 113.70303 1829.89141 86.4609726 1816.56489 86.4609726"></polygon>
            </g>
            <rect id="Rectangle-5" fill="#FF9FB8" x="329" y="1380" width="377" height="94"></rect>
            <g id="Group" transform="translate(160.000000, 712.000000)">
                <polygon id="Path-3" fill="#212E60" points="1174 388.313686 1351 390.642835 1351 624.722278 1265.39216 624.722278 1267.70588 604.924514 1338.27451 606.089088 1338.27451 559.506115 1271.17647 559.506115 1271.17647 566.493561 1221.43137 566.493561 1221.43137 558.34154 1207.54902 558.34154 1207.54902 550.18952 1222.58824 549.024945 1222.58824 543.202074 1268.86275 543.202074 1268.86275 550.18952 1339.43137 550.18952 1340.58824 501.277397 1222.58824 501.277397 1221.43137 488.46708 1174 488.46708"></polygon>
                <polygon id="Path-5" fill="#212E60" points="1699.3949 317.894106 1813 322.552687 1811.84076 642.83017 1745.76433 641.665524 1744.6051 634.677652 1707.50955 632.348361 1707.50955 603.232227 1631 593.915063 1639.11465 563.634283 1648.38854 565.963574"></polygon>
                <path d="M1372.15901,222.324675 L1641.04947,225.818093 L1699,298.015389 L1648.00353,562.350649 C1648.00353,562.350649 1622.5053,562.350649 1579.62191,543.719089 C1536.73852,525.087529 1535.57951,521.594111 1535.57951,521.594111 C1535.57951,521.594111 1374.47703,420.285003 1371,244.449653 L1371,229.31151 L1372.15901,222.324675 Z" id="Path-4" fill="#212E60"></path>
                <g id="Group-4" transform="translate(1.000000, 5.000000)" stroke="#FFFFFF" fill="#212E60">
                    <use id="Rectangle-4" mask="url(#mask-2)" stroke-width="8" xlink:href="#path-1"></use>
                    <polyline id="Path-2" stroke-width="4" points="0 691.147852 47.0554357 691.147852 47.0554357 616.043765 67.954907 616.043765 67.954907 38.4210364 96.8369899 38.4210364 96.8369899 67.755153 202.007264 67.755153 202.007264 95.5398052 96.6839348 95.5398052 96.6839348 238.46303 253.159491 238.46303 253.159491 80.0242307 265.67623 80.0242307 268 0.02997003 0 0.02997003"></polyline>
                    <use id="Rectangle" mask="url(#mask-4)" stroke-width="8" xlink:href="#path-3"></use>
                    <use id="Rectangle-2" mask="url(#mask-6)" stroke-width="8" xlink:href="#path-5"></use>
                    <polyline id="Path-28" stroke-width="4" points="303 79.8960106 303 209.276711 388.787926 209.276711 388.787926 125.620005 416.505835 125.620005 416.505835 209.276723 541 209.276723 541 78.4975025"></polyline>
                    <polyline id="Path-29" stroke-width="4" points="627.715083 81.0684384 627.715083 131.164581 608.337697 131.164581 608.337697 115.776556 571 115.776556 571 209.051375 649.854605 209.051375 649.854605 149.213513 982.595467 149.213513 982.595467 337.037962 1008.81976 337.037962 1008.81976 290.927102 1065 290.927102 1062.68419 76.4855145"></polyline>
                    <path d="M1057.32803,380.295704 L984,380.295704 L984,456.864651 L1051.93171,456.864651 L1051.93171,447.016902 L1112.88207,447.016902 L1112.88207,458.258869 L1075.27133,458.258869 C1075.27133,458.258869 1076.68392,480.378881 1053.18034,480.378881 L993.714026,480.378881 L993.714026,529.110717 L1037.97214,529.110717 L1037.97214,551.314685 L1179,551.314685 L1179,508.179763 L1148.57724,508.179763 L1148.57724,383.044906" id="Path-30" stroke-width="4"></path>
                    <polygon id="Path-32" stroke-width="4" points="299.850767 613.520573 120 613.520573 120 631.543079 120 681.44443 221.107195 681.44443 221.107195 671.642507 250.155694 671.642507 250.155694 688.375478 649.42146 688.375478 649.42146 742.453546 869.019073 742.453546 869.019073 738.278676 812.307372 738.278676 812.307372 700.851185 1062.48113 700.851185 1062.48113 738.306656 922.885447 738.306656 922.885447 742.453546 1153.59759 742.453546 1153.601 685.603033 1138.71831 685.603033 1138.71831 635.552272 1153.59759 635.552272 1153.59759 623.223981 1162 623.223981 1162 588.536464 1088.65554 588.536464 996.018408 588.536464 996.018408 627.40415 846.911368 627.40415 846.911368 616.20684 320.571165 616.20684 320.571165 606.589567 299.804765 606.589567"></polygon>
                    <path d="M0,789.524093 L34.5743735,789.524093 L34.5743735,799.271256 L105.143986,799.271256 L105.143986,776.99174 L159.198428,776.99174 L159.198428,788.135307 L275.024999,788.135307 L275.024999,776.657343 L330.353588,776.657343 L330.353588,792.309229 L376.057037,792.309229 L376.057037,778.332692 L429.76156,778.332692 L429.76156,789.524093 L545.970138,789.524093 L545.970138,776.991378 L599.001924,776.991378 L599.001924,793.714353 L639.900117,793.714353 L639.900117,782.486656 L876.105521,782.486656 L876.105521,795.17054 L917.561675,795.17054 L917.561675,783.613764 L974.227887,783.613764 L974.227887,796.486328 L1099.9988,796.486328 L1099.9988,786.739153 L1153.86136,786.739153 L1153.86136,796.486324 M1199.484,797.639887 L1199.484,785.346735 L1256.27125,785.346735 L1256.27125,799.272053 L1372.22972,799.272053 L1372.22972,783.954273 L1423.62409,783.954273 L1423.62409,799.274161 L1432.99907,799.274161 M1467.6325,799.274161 L1467.6325,786.452228 L1525.75346,786.452228 L1525.75346,802.057039 L1539.68023,802.057039 L1539.68023,789.520982 L1593.31387,789.520982 L1593.31387,799.367611 L1604.42563,799.367611 L1604.42563,928.768724 L1634.78355,928.768724 L1634.78355,799.241952 L1662.70334,799.241952 L1662.70334,786.497821 L1719.04665,786.497821 L1725.60562,792.968799 L1816,794.136571 L1814.8411,1002 L3.47670708,1002 L0,789.520982" id="Path-33" stroke-width="4"></path>
                </g>
                <g id="Group-3" stroke="#FFFFFF">
                    <path d="M1173,389.31968 L1173,489.484839 L1219.90327,489.484839 L1219.90327,504.742696 M1219.90327,525.602272 L1219.90327,547.868593 L1206.09466,547.868593 L1206.09466,558.977593 L1219.9529,558.977593 L1219.9529,579.837169 M1219.9529,602.087383 L1219.9529,625.728272 L1351,625.728272 L1351,389.31968 L1337.09442,389.31968" id="Path-31" stroke-width="4"></path>
                    <path d="M1369.09544,223.71239 C1369.09544,223.71239 1359.41489,405.503062 1535.04772,522.071127 L1519.83543,549.825428 L1565.4723,573.416583 M1577.91872,544.274567 C1577.91872,544.274567 1618.02386,560.927148 1649.83138,565.090293 L1701,298.649003 L1641.53377,222.324675" id="Path-34" stroke-width="4"></path>
                    <polyline id="Path-35" stroke-width="4" points="1638.29565 565.368631 1630 594.318903 1706.04348 602.59041 1789 602.59041"></polyline>
                    <polyline id="Path-36" stroke-width="4" points="1707 604.602398 1707 633.681388 1744 633.681388 1744 644.842158"></polyline>
                    <polyline id="Path-37" stroke-width="4" points="1676.76768 568.386613 1674 447.315235 1698.90909 317.894106 1811 322.068981"></polyline>
                    <path d="M1644.76454,641.824176 L1491,641.824176 L1491,693.301835 L1643.53596,693.301835 L1660,693.301835 L1660,715.709805 M1660,773.950018 L1660,801.777223" id="Path-38" stroke-width="4"></path>
                    <polyline id="Path-39" stroke-width="4" points="1220 501.991009 1339 501.991009 1339 549.272727 1271.19767 549.272727 1271.19767 542.302102 1221.36451 542.302102"></polyline>
                    <polyline id="Path-40" stroke-width="4" points="1221 565.242906 1270.97175 565.242906 1270.97175 558.326673 1339 558.326673 1339 605.356932 1265.38913 605.356932 1265.38913 624.722278"></polyline>
                    <path d="M0,788.871596 L0,1007 L1815.48436,1007 L1815.48436,796.91076 L1722.91309,796.91076 L1722.91309,777.760726 M1722.91309,716.650941 L1722.91309,687.344 L1749.16522,687.344 L1749.16522,647.208004 L1816,647.208004 L1816,220.779956 L1356.64531,220.779956 L1356.64531,355.8133 L1337.43228,355.8133 L1337.43228,384.713701 L1063.78082,384.713701 L1063.78082,80.5044942 L269.249137,80.5044942 L269.249137,0 L0,0 L0,699.984636" id="Path-27" stroke-width="12"></path>
                </g>
            </g>
            <path d="M50.13067,1588 L69.6503563,1588 L69.6503563,1582.32967 L56.7288738,1582.32967 L56.7288738,1578.51508 L68.2757305,1578.51508 L68.2757305,1573.25714 L56.7288738,1573.25714 L56.7288738,1569.61438 L69.4785281,1569.61438 L69.4785281,1563.94405 L50.13067,1563.94405 L50.13067,1588 Z M71.2999073,1588 L78.7916179,1588 L83.43098,1580.74885 L88.0359764,1588 L95.6995152,1588 L87.4517604,1575.6971 L95.3558588,1563.94405 L87.8641482,1563.94405 L83.5684426,1570.71408 L79.3071026,1563.94405 L71.6435638,1563.94405 L79.5476621,1575.76583 L71.2999073,1588 Z M98.3456699,1588 L105.046971,1588 L105.046971,1563.94405 L98.3456699,1563.94405 L98.3456699,1588 Z M115.322299,1588 L121.989234,1588 L121.989234,1569.78621 L129.206019,1569.78621 L129.206019,1563.94405 L108.105513,1563.94405 L108.105513,1569.78621 L115.322299,1569.78621 L115.322299,1588 Z" id="EXIT" fill="#FFFFFF"></path>
            <path d="M362.470872,1465.06915 C374.307927,1465.06915 381.104688,1459.95249 386.144983,1453.00299 L374.99524,1445.06071 C371.78778,1448.95548 368.503952,1451.552 362.92908,1451.552 C355.445007,1451.552 350.175608,1445.28982 350.175608,1437.27117 L350.175608,1437.11843 C350.175608,1429.32888 355.445007,1422.99033 362.92908,1422.99033 C368.045743,1422.99033 371.558676,1425.43411 374.6134,1429.25251 L385.763142,1420.62292 C381.02832,1414.05526 374.002455,1409.47318 363.081817,1409.47318 C346.891779,1409.47318 334.901988,1421.69207 334.901988,1437.27117 L334.901988,1437.4239 C334.901988,1453.38483 347.197252,1465.06915 362.470872,1465.06915 Z M391.338014,1464 L406.153425,1464 L406.153425,1443.68609 L425.169082,1443.68609 L425.169082,1464 L439.984493,1464 L439.984493,1410.54233 L425.169082,1410.54233 L425.169082,1430.55077 L406.153425,1430.55077 L406.153425,1410.54233 L391.338014,1410.54233 L391.338014,1464 Z M448.308616,1464 L491.685697,1464 L491.685697,1451.39926 L462.971291,1451.39926 L462.971291,1442.9224 L488.630973,1442.9224 L488.630973,1431.23809 L462.971291,1431.23809 L462.971291,1423.14307 L491.303857,1423.14307 L491.303857,1410.54233 L448.308616,1410.54233 L448.308616,1464 Z M523.454827,1465.06915 C535.291882,1465.06915 542.088643,1459.95249 547.128938,1453.00299 L535.979195,1445.06071 C532.771735,1448.95548 529.487907,1451.552 523.913035,1451.552 C516.428961,1451.552 511.159563,1445.28982 511.159563,1437.27117 L511.159563,1437.11843 C511.159563,1429.32888 516.428961,1422.99033 523.913035,1422.99033 C529.029698,1422.99033 532.542631,1425.43411 535.597355,1429.25251 L546.747097,1420.62292 C542.012275,1414.05526 534.98641,1409.47318 524.065771,1409.47318 C507.875734,1409.47318 495.885943,1421.69207 495.885943,1437.27117 L495.885943,1437.4239 C495.885943,1453.38483 508.181207,1465.06915 523.454827,1465.06915 Z M552.321968,1464 L567.13738,1464 L567.13738,1450.17737 L572.559515,1444.14429 L586.000301,1464 L603.794068,1464 L582.869208,1433.52913 L603.106755,1410.54233 L585.542092,1410.54233 L567.13738,1432.23087 L567.13738,1410.54233 L552.321968,1410.54233 L552.321968,1464 Z M627.239075,1464 L642.130854,1464 L642.130854,1410.54233 L627.239075,1410.54233 L627.239075,1464 Z M650.760449,1464 L665.423125,1464 L665.423125,1434.67465 L688.257186,1464 L701.239763,1464 L701.239763,1410.54233 L686.577088,1410.54233 L686.577088,1438.79853 L664.583075,1410.54233 L650.760449,1410.54233 L650.760449,1464 Z" id="CHECK-IN" fill="#891738"></path>
            <path d="M2030.5,1478 L75,1478" id="Path-41" stroke="#3B9AAC" stroke-width="20"></path>
            <path d="M1990.13067,1420 L2009.65036,1420 L2009.65036,1414.32967 L1996.72887,1414.32967 L1996.72887,1410.51508 L2008.27573,1410.51508 L2008.27573,1405.25714 L1996.72887,1405.25714 L1996.72887,1401.61438 L2009.47853,1401.61438 L2009.47853,1395.94405 L1990.13067,1395.94405 L1990.13067,1420 Z M2013.05256,1420 L2019.65076,1420 L2019.65076,1406.80359 L2029.92609,1420 L2035.76825,1420 L2035.76825,1395.94405 L2029.17004,1395.94405 L2029.17004,1408.65934 L2019.27274,1395.94405 L2013.05256,1395.94405 L2013.05256,1420 Z M2045.90611,1420 L2052.57305,1420 L2052.57305,1401.78621 L2059.78983,1401.78621 L2059.78983,1395.94405 L2038.68933,1395.94405 L2038.68933,1401.78621 L2045.90611,1401.78621 L2045.90611,1420 Z M2062.71091,1420 L2082.2306,1420 L2082.2306,1414.32967 L2069.30912,1414.32967 L2069.30912,1410.51508 L2080.85597,1410.51508 L2080.85597,1405.25714 L2069.30912,1405.25714 L2069.30912,1401.61438 L2082.05877,1401.61438 L2082.05877,1395.94405 L2062.71091,1395.94405 L2062.71091,1420 Z M2085.6328,1420 L2085.6328,1395.94405 L2097.00783,1395.94405 C2100.68495,1395.94405 2103.22801,1396.90629 2104.84319,1398.55584 C2106.25218,1399.93046 2106.97386,1401.78621 2106.97386,1404.15744 L2106.97386,1404.22617 C2106.97386,1407.90329 2105.01502,1410.34325 2102.02521,1411.61478 L2107.76427,1420 L2100.06637,1420 L2095.22081,1412.71448 L2092.29973,1412.71448 L2092.29973,1420 L2085.6328,1420 Z M2092.29973,1407.49091 L2096.69854,1407.49091 C2098.96667,1407.49091 2100.27256,1406.3912 2100.27256,1404.63856 L2100.27256,1404.56983 C2100.27256,1402.67971 2098.89794,1401.71748 2096.66417,1401.71748 L2092.29973,1401.71748 L2092.29973,1407.49091 Z" id="ENTER" fill="#FFFFFF"></path>
            <polygon id="Triangle" fill="#3B9AAC" transform="translate(79.000000, 1478.500000) rotate(-90.000000) translate(-79.000000, -1478.500000) " points="79 1441 118 1516 40 1516"></polygon>
        </g>
    </g>
</svg>