<?xml version="1.0" encoding="UTF-8" standalone="no"?>
<svg width="2160px" height="2160px" viewBox="0 0 2160 2160" version="1.1" xmlns="http://www.w3.org/2000/svg" xmlns:xlink="http://www.w3.org/1999/xlink">
    <!-- Generator: Sketch 42 (36781) - http://www.bohemiancoding.com/sketch -->
    <title>eceb_secondfloor copy</title>
    <desc>Created with Sketch.</desc>
    <defs></defs>
    <g id="New-Maps" stroke="none" stroke-width="1" fill="none" fill-rule="evenodd">
        <g id="eceb_secondfloor-copy">
            <polygon id="Fill-1549" fill="#142442" points="0 2160 2160 2160 2160 0 0 0"></polygon>
            <g id="ECE_2nd" transform="translate(237.000000, 408.000000)">
                <polygon id="Fill-1031" fill="#212E60" points="61.647779 758.410196 608.646819 758.410196 608.646819 519.548578 61.647779 519.548578"></polygon>
                <polyline id="Fill-1032" fill="#212E60" points="1462.02995 474.429721 1190.00522 474.429721 1190.00522 453.375137 1162.39014 453.375137 1162.39014 368.804721 1184.13091 368.804721 1184.81859 339.117882 1156.50754 339.117882 366.250516 339.117882 366.250516 241.089598 1547.65079 241.089598 1547.65079 473.398324"></polyline>
                <polygon id="Fill-1033" fill="#FFFFFF" points="1362.08787 538.846887 1400.05965 538.846887 1400.05965 516.582794 1362.08787 516.582794"></polygon>
                <polyline id="Fill-1034" fill="#212E60" points="1037.9317 368.803064 1143.73981 368.803064 1143.73981 473.396667 1067.44827 473.396667 1067.44827 455.096618 945.587292 455.096618 945.587292 398.489902 1039.83319 398.489902"></polyline>
                <polyline id="Fill-1035" fill="#142442" points="1157.11444 368.803064 1239.80641 368.803064 1239.80641 427.485 1187.48854 427.485 1187.48854 453.37348 1150.94185 453.37348"></polyline>
                <polyline id="Fill-1036" fill="#212E60" points="648.511798 367.081583 701.509062 367.081583 701.509062 462.007392 666.296309 462.007392 666.296309 473.398324 650.065302 473.398324"></polyline>
                <polyline id="Fill-1037" fill="#212E60" points="943.855653 393.485762 943.855653 371.225811 865.136509 371.225811 865.136509 473.396252 943.855653 473.396252"></polyline>
                <polygon id="Fill-1038" fill="#212E60" points="777.452612 475.807402 865.136509 475.807402 865.136509 371.222083 777.452612 371.222083"></polygon>
                <polygon id="Fill-1039" fill="#212E60" points="701.509062 475.807402 777.452612 475.807402 777.452612 371.222083 701.509062 371.222083"></polygon>
                <polygon id="Fill-1039-Copy" fill="#FFE077" points="375.443116 475.807402 504 475.807402 504 432 538 432 538 475.807402 651.452612 475.807402 651.452612 371.222083 375.443116 371.222083"></polygon>
                <polyline id="Fill-1040" fill="#212E60" points="270.492543 389.861375 270.492543 473.396252 309.847972 473.396252 316.240122 473.396252 316.240122 458.550762 309.330138 458.550762 309.847972 389.861375"></polyline>
                <polyline id="Fill-1041" fill="#212E60" points="369.398951 339.118297 369.398951 370.528272 309.847972 370.528272 309.847972 392.444424 271.706347 392.444424 271.706347 369.836532 261.349655 369.836532 149.841225 369.836532 149.841225 473.050797 3.46388384 473.050797 3.46388384 242.465208 369.398951 242.465208"></polyline>
                <polygon id="Fill-1042" fill="#142442" points="1284.71924 481.076225 1409.68723 481.076225 1409.68723 369.407819 1284.71924 369.407819"></polygon>
                <polygon id="Fill-1043" fill="#142442" points="143.577497 481.689265 268.549628 481.689265 268.549628 370.020858 143.577497 370.020858"></polygon>
                <polygon id="Fill-1044" fill="#212E60" points="608.646819 758.410196 900.361689 758.410196 900.361689 519.548578 608.646819 519.548578"></polygon>
                <polygon id="Fill-1044-Copy" fill="#212E60" points="815.436816 758.410196 900.361689 758.410196 900.361689 637.641471 815.436816 637.641471"></polygon>
                <polygon id="Fill-1044-Copy-2" fill="#212E60" points="815.436816 642.429804 900.361689 642.429804 900.361689 521.661078 815.436816 521.661078"></polygon>
                <polygon id="Fill-1045" fill="#212E60" points="1003.49363 1236.56422 1507.60768 1236.56422 1507.60768 1049.77779 1003.49363 1049.77779"></polygon>
                <polygon id="Fill-1046" fill="#142442" points="1006.0828 1178.57402 1068.22295 1178.57402 1068.22295 1119.54828 1006.0828 1119.54828"></polygon>
                <polygon id="Fill-1047" fill="#B5B7B4" points="1356.39998 537.057475 1485.34079 537.057475 1485.34079 522.06701 1356.39998 522.06701"></polygon>
                <polygon id="Fill-1048" fill="#212E60" points="1337.22767 759.735686 1484.34241 759.735686 1484.34241 522.564069 1337.22767 522.564069"></polygon>
                <polygon id="Fill-1049" fill="#212E60" points="1282.83846 759.735686 1341.68105 759.735686 1341.68105 538.846887 1282.83846 538.846887"></polygon>
                <polygon id="Fill-1050" fill="#212E60" points="81.4870581 1275.39694 144.319037 1275.39694 144.319037 1221.88855 81.4870581 1221.88855"></polygon>
                <polygon id="Fill-1051" fill="#212E60" points="721.530619 1450.74272 758.557864 1450.74272 758.557864 1221.10983 721.530619 1221.10983"></polygon>
                <polygon id="Fill-1051-Copy" fill="#FFE077" points="757.530619 1460.91826 797 1460.91826 797 1429 880 1428 880 1460.91826 918 1460.91826 918 1220.10983 757.530619 1220.10983"></polygon>
                <polygon id="Fill-1052" fill="#212E60" points="1003.49363 1350.9913 1068.74079 1350.9913 1068.74079 1289.20689 1003.49363 1289.20689"></polygon>
                <polygon id="Fill-1053" fill="#B5BADE" points="144.323179 1450.85456 368.371567 1450.85456 368.371567 1216.8227 144.323179 1216.8227"></polygon>
                <polygon id="Fill-1054" fill="#B5BADE" points="368.371567 1450.74272 544.953164 1450.74272 544.953164 1216.71086 368.371567 1216.71086"></polygon>
                <polygon id="Fill-1055" fill="#57C7DF" points="544.692176 1450.74272 721.273773 1450.74272 721.273773 1216.71086 544.692176 1216.71086"></polygon>
                <polygon id="Fill-1056" fill="#212E60" points="1038.97151 1528.0685 1507.60768 1528.0685 1507.60768 1482.84444 1038.97151 1482.84444"></polygon>
                <polygon id="Fill-1057" fill="#212E60" points="1067.8004 1482.84444 1507.60768 1482.84444 1507.60768 1235.26772 1067.8004 1235.26772"></polygon>
                <polygon id="Fill-1058" fill="#212E60" points="1022.39666 1289.20689 1075.73363 1289.20689 1075.73363 1235.27186 1022.39666 1235.27186"></polygon>
                <polygon id="Fill-1059" fill="#212E60" points="949.025713 754.632549 1303.22043 754.632549 1303.22043 538.846887 949.025713 538.846887"></polygon>
                <polygon id="Fill-1060" fill="#212E60" points="982.486114 543.486103 1302.53275 543.486103 1302.53275 518.972819 982.486114 518.972819"></polygon>
                <polygon id="Fill-1061" fill="#212E60" points="1005.31226 759.391887 1325.3589 759.391887 1325.3589 734.878603 1005.31226 734.878603"></polygon>
                <polygon id="Fill-1062" fill="#142442" points="217.325429 540.201373 251.763501 540.201373 251.763501 515.936618 217.325429 515.936618"></polygon>
                <polygon id="Fill-1063" fill="#142442" points="325.035025 540.201373 359.473097 540.201373 359.473097 515.936618 325.035025 515.936618"></polygon>
                <polygon id="Fill-1064" fill="#142442" points="574.208747 538.846887 648.511798 538.846887 648.511798 514.582132 574.208747 514.582132"></polygon>
                <polygon id="Fill-1065" fill="#142442" points="1003.49363 798.568407 1105.4159 798.568407 1105.4159 769.834265 1003.49363 769.834265"></polygon>
                <polygon id="Fill-1066" fill="#57C7DF" points="889.317313 1216.71086 1005.56911 1216.71086 1005.56911 755.24973 889.317313 755.24973"></polygon>
                <path d="M0.880924874,356.89602 L70.4406105,356.89602" id="Stroke-1068" stroke="#FFFFFF" stroke-width="4.14267677"></path>
                <path d="M133.616431,239.012721 L133.616431,338.254657" id="Stroke-1069" stroke="#FFFFFF" stroke-width="4.14267677"></path>
                <path d="M251.162813,338.256314 L251.162813,239.014377" id="Stroke-1070" stroke="#FFFFFF" stroke-width="4.14267677"></path>
                <path d="M367.675597,239.012721 L367.675597,348.610049" id="Stroke-1071" stroke="#FFFFFF" stroke-width="4.14267677"></path>
                <path d="M367.675597,338.256314 L397.710004,338.256314" id="Stroke-1072" stroke="#FFFFFF" stroke-width="4.14267677"></path>
                <path d="M413.762876,338.256314 L437.583268,338.256314" id="Stroke-1073" stroke="#FFFFFF" stroke-width="4.14267677"></path>
                <path d="M454.153975,338.256314 L515.780434,338.256314" id="Stroke-1074" stroke="#FFFFFF" stroke-width="4.14267677"></path>
                <path d="M530.279803,338.256314 L554.618029,338.256314" id="Stroke-1075" stroke="#FFFFFF" stroke-width="4.14267677"></path>
                <path d="M571.706571,338.256314 L632.293218,338.256314" id="Stroke-1076" stroke="#FFFFFF" stroke-width="4.14267677"></path>
                <path d="M648.346091,338.256314 L671.648648,338.256314" id="Stroke-1077" stroke="#FFFFFF" stroke-width="4.14267677"></path>
                <path d="M688.737189,338.256314 L748.288168,338.256314" id="Stroke-1078" stroke="#FFFFFF" stroke-width="4.14267677"></path>
                <path d="M765.894544,338.256314 L788.679266,338.256314" id="Stroke-1079" stroke="#FFFFFF" stroke-width="4.14267677"></path>
                <path d="M806.803477,338.256314 L865.836621,338.256314" id="Stroke-1080" stroke="#FFFFFF" stroke-width="4.14267677"></path>
                <path d="M883.442997,338.256314 L905.709885,338.256314" id="Stroke-1081" stroke="#FFFFFF" stroke-width="4.14267677"></path>
                <path d="M921.244923,338.256314 L983.385074,338.256314" id="Stroke-1082" stroke="#FFFFFF" stroke-width="4.14267677"></path>
                <path d="M998.920112,338.256314 L1022.22267,338.256314" id="Stroke-1083" stroke="#FFFFFF" stroke-width="4.14267677"></path>
                <path d="M1039.82905,338.256314 L1098.86219,338.256314" id="Stroke-1084" stroke="#FFFFFF" stroke-width="4.14267677"></path>
                <path d="M1115.95073,338.256314 L1139.77112,338.256314" id="Stroke-1085" stroke="#FFFFFF" stroke-width="4.14267677"></path>
                <path d="M1156.34183,338.256314 L1186.37624,338.256314" id="Stroke-1086" stroke="#FFFFFF" stroke-width="4.14267677"></path>
                <path d="M1186.37624,239.012721 L1186.37624,349.645588" id="Stroke-1087" stroke="#FFFFFF" stroke-width="4.14267677"></path>
                <path d="M1127.86093,338.256314 L1127.86093,239.014377" id="Stroke-1088" stroke="#FFFFFF" stroke-width="4.14267677"></path>
                <path d="M1069.34562,338.256314 L1069.34562,239.014377" id="Stroke-1089" stroke="#FFFFFF" stroke-width="4.14267677"></path>
                <path d="M1010.57139,338.256314 L1010.57139,239.014377" id="Stroke-1090" stroke="#FFFFFF" stroke-width="4.14267677"></path>
                <path d="M952.314999,338.256314 L952.314999,239.014377" id="Stroke-1091" stroke="#FFFFFF" stroke-width="4.14267677"></path>
                <path d="M894.576441,338.256314 L894.576441,239.014377" id="Stroke-1092" stroke="#FFFFFF" stroke-width="4.14267677"></path>
                <path d="M836.320049,338.256314 L836.320049,239.014377" id="Stroke-1093" stroke="#FFFFFF" stroke-width="4.14267677"></path>
                <path d="M777.286905,338.256314 L777.286905,239.014377" id="Stroke-1094" stroke="#FFFFFF" stroke-width="4.14267677"></path>
                <path d="M718.512679,338.256314 L718.512679,239.014377" id="Stroke-1095" stroke="#FFFFFF" stroke-width="4.14267677"></path>
                <path d="M659.997369,338.256314 L659.997369,239.014377" id="Stroke-1096" stroke="#FFFFFF" stroke-width="4.14267677"></path>
                <path d="M601.999895,338.256314 L601.999895,239.014377" id="Stroke-1097" stroke="#FFFFFF" stroke-width="4.14267677"></path>
                <path d="M542.448916,338.256314 L542.448916,239.014377" id="Stroke-1098" stroke="#FFFFFF" stroke-width="4.14267677"></path>
                <path d="M484.965133,338.256314 L484.965133,239.014377" id="Stroke-1099" stroke="#FFFFFF" stroke-width="4.14267677"></path>
                <path d="M425.673072,338.256314 L425.673072,239.014377" id="Stroke-1100" stroke="#FFFFFF" stroke-width="4.14267677"></path>
                <path d="M1303.92469,239.012721 L1303.92469,338.254657" id="Stroke-1101" stroke="#FFFFFF" stroke-width="4.14267677"></path>
                <path d="M1420.43747,239.012721 L1420.43747,338.254657" id="Stroke-1102" stroke="#FFFFFF" stroke-width="4.14267677"></path>
                <path d="M1483.61329,355.86048 L1550.23582,355.86048" id="Stroke-1103" stroke="#FFFFFF" stroke-width="4.14267677"></path>
                <polyline id="Stroke-1104" stroke="#FFFFFF" stroke-width="4.14267677" points="659.997369 369.84026 309.680194 369.84026 309.680194 390.551044 270.324765 390.551044 270.324765 369.84026 259.450238 369.84026"></polyline>
                <polyline id="Stroke-1105" stroke="#FFFFFF" stroke-width="4.14267677" points="472.108336 431.625086 507.669073 431.625086 558.412721 431.625086"></polyline>
                <path d="M507.669073,369.84026 L507.669073,431.624672" id="Stroke-1106" stroke="#FFFFFF" stroke-width="4.14267677"></path>
                <polyline id="Stroke-1107" stroke="#FFFFFF" stroke-width="4.14267677" points="538.047322 451.300331 538.047322 474.082194 666.122317 474.082194 666.122317 460.280527 679.246317 460.280527"></polyline>
                <polyline id="Stroke-1108" stroke="#FFFFFF" stroke-width="4.14267677" points="649.899595 369.84026 649.899595 400.736608 649.899595 474.081779"></polyline>
                <path d="M649.899595,398.835358 L701.343355,398.835358" id="Stroke-1109" stroke="#FFFFFF" stroke-width="4.14267677"></path>
                <polyline id="Stroke-1110" stroke="#FFFFFF" stroke-width="4.14267677" points="693.745686 369.84026 701.343355 369.84026 701.343355 474.081779"></polyline>
                <path d="M695.817024,460.628054 L701.343355,460.628054" id="Stroke-1111" stroke="#FFFFFF" stroke-width="4.14267677"></path>
                <polyline id="Stroke-1112" stroke="#FFFFFF" stroke-width="4.14267677" points="852.890756 474.082194 943.68166 474.082194 943.68166 391.934939"></polyline>
                <polyline id="Stroke-1113" stroke="#FFFFFF" stroke-width="4.14267677" points="701.343355 371.911338 864.962516 371.911338 943.68166 371.911338"></polyline>
                <path d="M864.962516,474.082194 L864.962516,371.911752" id="Stroke-1114" stroke="#FFFFFF" stroke-width="4.14267677"></path>
                <path d="M777.286905,474.082194 L777.286905,371.911752" id="Stroke-1115" stroke="#FFFFFF" stroke-width="4.14267677"></path>
                <polyline id="Stroke-1116" stroke="#FFFFFF" stroke-width="4.14267677" points="504.214081 451.300331 504.214081 474.082194 375.443116 474.082194 375.443116 457.861507 364.050755 457.861507"></polyline>
                <path d="M270.322693,472.358642 L286.383851,472.358642" id="Stroke-1117" stroke="#FFFFFF" stroke-width="4.14267677"></path>
                <polyline id="Stroke-1118" stroke="#FFFFFF" stroke-width="4.14267677" points="302.606573 472.358642 316.070273 472.358642 316.070273 459.244574 336.783657 459.244574"></polyline>
                <polyline id="Stroke-1119" stroke="#FFFFFF" stroke-width="4.14267677" points="309.678122 390.551044 309.678122 459.244574 316.070273 459.244574"></polyline>
                <polyline id="Stroke-1120" stroke="#FFFFFF" stroke-width="4.14267677" points="270.322693 390.551044 270.322693 468.22477 270.322693 472.358642 275.418186 472.358642"></polyline>
                <path d="M375.443116,457.861093 L375.443116,369.84026" id="Stroke-1121" stroke="#FFFFFF" stroke-width="4.14267677"></path>
                <g id="Group-1548" transform="translate(0.669192, 238.901961)">
                    <path d="M445.976181,188.604993 L445.976181,208.346512 C445.976181,208.814576 445.967896,209.28264 445.789761,209.721708 C445.24707,211.072051 443.726708,211.701659 442.301627,211.167321 C441.257672,210.7821 440.644556,209.908105 440.627985,208.715164 C440.611415,207.762468 440.627985,206.809772 440.627985,205.852934 C440.627985,201.540949 440.627985,197.237248 440.636271,192.925262 C440.636271,190.431684 440.661127,187.942248 440.669412,185.448669 C440.677698,185.262272 440.669412,185.075875 440.6197,184.897762 C440.532704,184.512542 440.238574,184.276439 439.849162,184.251586 C439.39761,184.218449 439.099338,184.396561 438.937773,184.794208 C438.846634,185.013743 438.85492,185.245703 438.85492,185.481806 L438.85492,208.537051 C438.85492,209.266071 438.751353,209.953669 438.250089,210.529429 C437.520978,211.362002 436.568162,211.614674 435.532493,211.386855 C434.471968,211.159037 433.813282,210.446586 433.506724,209.419331 C433.403157,209.087958 433.353445,208.740017 433.353445,208.383792 C433.353445,203.06112 433.320304,197.746733 433.370016,192.424061 C433.444584,184.512542 433.394872,176.609306 433.419728,168.701929 C433.419728,168.105458 433.258164,167.844502 432.802469,167.707811 C432.268064,167.546267 431.679804,167.732664 431.393959,168.14688 C431.315248,168.267002 431.306963,168.403694 431.306963,168.540385 C431.315248,171.37362 431.306963,174.202713 431.315248,177.035949 C431.323533,179.115311 431.356675,181.202958 431.356675,183.282321 C431.36496,184.131463 431.025261,184.802493 430.196725,185.150434 C429.471757,185.456953 428.589367,185.287125 428.030105,184.736218 C427.673835,184.396561 427.520556,183.969919 427.520556,183.485287 C427.528842,178.154331 427.545412,172.810949 427.528842,167.479993 C427.520556,166.059233 427.827114,164.7296 428.589367,163.524233 C429.931594,161.415875 431.849653,160.185654 434.355973,160.127664 C437.57069,160.040679 440.781265,160.06139 443.991839,160.111096 C447.334979,160.17737 450.417131,162.733081 451.22081,165.97639 C451.40723,166.730262 451.485941,167.479993 451.485941,168.250434 C451.477656,173.233449 451.485941,178.224748 451.485941,183.207762 C451.485941,184.243301 451.059246,184.860483 450.160285,185.14215 C448.963051,185.531512 447.827958,184.744502 447.757532,183.501855 C447.740961,183.361022 447.749247,183.216047 447.749247,183.079355 C447.749247,178.2496 447.732676,173.411561 447.765818,168.581806 C447.765818,167.861071 447.123703,167.554551 446.622439,167.674674 C446.179172,167.790654 445.976181,168.014331 445.976181,168.486537 L445.976181,188.604993 Z" id="Fill-1122" fill="#A8770A"></path>
                    <path d="M439.373997,148.291865 C442.141305,148.283581 444.390779,150.541056 444.374208,153.357723 C444.357637,156.124684 442.228302,158.373875 439.365712,158.373875 C436.556977,158.373875 434.382072,156.261375 434.34893,153.366007 C434.315789,150.483066 436.532121,148.333287 439.373997,148.291865" id="Fill-1124" fill="#A8770A"></path>
                    <path d="M606.112594,200.149598 C606.112594,202.875137 606.12088,205.600676 606.112594,208.330358 C606.112594,209.162931 605.797751,209.850529 605.043784,210.277172 C604.260818,210.724525 603.440568,210.741093 602.649317,210.335162 C601.84978,209.92923 601.485224,209.225064 601.476939,208.346926 L601.476939,192.366485 C601.476939,192.213225 601.476939,192.06825 601.460368,191.91499 C601.402371,191.475922 601.095813,191.202539 600.689831,191.219108 C600.221708,191.243961 599.931721,191.533912 599.91515,191.993691 C599.906865,192.117956 599.906865,192.246363 599.906865,192.37477 L599.906865,208.110824 C599.906865,208.901975 599.761871,209.647564 599.082472,210.157049 C598.270507,210.765946 597.39226,210.819794 596.485014,210.418005 C595.586053,210.020358 595.262924,209.233348 595.221497,208.305505 C595.213212,208.152245 595.221497,207.998985 595.221497,207.849868 C595.221497,202.527196 595.213212,197.19624 595.213212,191.873569 C595.213212,191.33923 595.213212,191.33923 594.670521,191.33923 L588.928771,191.33923 C588.522789,191.33923 588.514504,191.330946 588.626356,190.958152 C589.111049,189.350995 589.616456,187.739696 590.101149,186.128397 C590.83026,183.767368 591.546943,181.406338 592.267769,179.049451 C592.876742,177.077784 593.489858,175.101975 594.098832,173.130309 C594.703663,171.146216 595.312636,169.166265 595.909182,167.173887 C596.054175,166.680971 595.851184,166.250186 595.416203,166.096926 C594.964651,165.935382 594.525528,166.154917 594.355678,166.664402 C593.991122,167.741363 593.651423,168.826608 593.303438,169.907711 C592.437618,172.595971 591.571799,175.271804 590.714265,177.960064 C590.341424,179.107441 589.976868,180.254819 589.616456,181.406338 C589.235329,182.603422 588.270086,183.063201 587.130849,182.562 C586.323028,182.205775 585.941901,181.356632 586.215318,180.474353 C586.994141,177.926926 587.785392,175.3795 588.564216,172.827931 C589.48389,169.837294 590.399421,166.842515 591.306668,163.847735 C592.002637,161.528127 594.007693,159.850554 596.393875,159.602025 C596.799857,159.560603 597.205839,159.544034 597.607679,159.544034 C600.229993,159.544034 602.852308,159.53575 605.482908,159.552319 C606.903846,159.552319 608.22536,159.916828 609.364596,160.832245 C610.458262,161.714525 611.112805,162.845333 611.477361,164.187392 C612.421891,167.724794 613.387135,171.258054 614.339951,174.80374 C614.882641,176.775407 615.425332,178.7595 615.951452,180.739451 C616.216583,181.737711 615.483329,182.756681 614.464231,182.843667 C613.449275,182.934794 612.778161,182.495725 612.504745,181.509892 C611.713493,178.751216 610.942956,175.975971 610.168275,173.20901 C609.662868,171.436167 609.153319,169.659181 608.652055,167.886338 C608.531918,167.44727 608.420065,167.012343 608.2875,166.581559 C608.150791,166.138348 607.794521,165.943667 607.376111,166.063789 C606.953558,166.188054 606.742281,166.535995 606.858276,166.979206 C607.438251,169.344377 608.038939,171.705407 608.635485,174.066436 C609.302456,176.688422 609.973569,179.302123 610.636397,181.924108 C611.411078,184.989304 612.189901,188.0545 612.972867,191.119696 C613.064006,191.442784 612.877586,191.413789 612.68288,191.405505 C610.669539,191.405505 608.64377,191.405505 606.630429,191.397221 C606.12088,191.397221 606.12088,191.405505 606.12088,191.898422 L606.12088,200.149598 L606.112594,200.149598 Z" id="Fill-1126" fill="#A8770A"></path>
                    <path d="M596.322206,152.612135 C596.28078,149.870027 598.459828,147.517282 601.372129,147.508998 C604.26786,147.508998 606.500763,149.853458 606.467622,152.69912 C606.43448,155.48265 604.147723,157.789831 601.338988,157.756694 C598.588251,157.731841 596.255924,155.466081 596.322206,152.612135" id="Fill-1128" fill="#A8770A"></path>
                    <path d="M326.914822,178.088056 C326.27685,178.841929 325.676162,179.633081 324.988478,180.345532 C323.758103,181.617174 322.312308,181.977542 320.820945,180.846733 C319.503574,179.836047 319.122447,178.299306 320.004838,176.969674 C322.652008,172.993203 325.684447,169.269404 329.147725,165.984674 C330.871079,164.34438 332.685571,165.491757 334.027798,167.069919 C336.625257,170.118547 339.181288,173.192027 341.753891,176.261365 C342.159873,176.745998 342.532714,177.868522 343.050548,177.562002 C346.406117,175.524061 348.050759,178.199895 350.387229,180.523645 C350.387229,176.857836 350.395514,173.79264 350.378944,170.727444 C350.370658,168.167591 350.461797,165.587027 353.80908,165.255654 C356.211832,165.031978 357.392495,166.99536 357.409066,170.897272 C357.425637,173.879625 357.417351,176.874404 357.417351,180.415949 C358.6063,179.276855 359.401694,178.411145 360.300654,177.682125 C361.584884,176.646586 363.01825,176.601022 364.265196,177.673841 C365.499714,178.750801 365.826985,180.312395 364.820315,181.584037 C361.999152,185.150434 359.13242,188.704404 356.000556,191.993277 C354.256489,193.832395 352.272147,192.892125 350.82221,191.168988 C348.170897,188.020949 345.623151,184.810777 342.992551,181.637885 C342.627995,181.202958 342.499572,179.885752 341.828459,180.440801 C338.742165,182.99237 337.126521,180.076292 334.616058,178.257885 L334.616058,187.349919 C334.616058,188.58014 334.599488,189.802076 334.044369,190.937027 C333.315258,192.407493 332.109739,193.095091 330.523094,192.916978 C328.563608,192.697444 327.552795,191.363669 327.39123,189.553547 C327.059816,185.79661 327.109528,182.035532 326.914822,178.088056" id="Fill-1130" fill="#FFFFFF"></path>
                    <path d="M1197.85172,160.823547 C1197.21374,161.585703 1196.61306,162.368571 1195.92537,163.081022 C1194.695,164.360949 1193.2492,164.721316 1191.75784,163.582223 C1190.44047,162.579821 1190.05934,161.034797 1190.94173,159.713449 C1193.5889,155.728694 1196.62134,152.004895 1200.08462,148.720164 C1201.80797,147.07987 1203.62246,148.235532 1204.96469,149.813694 C1207.56215,152.854037 1210.11818,155.935801 1212.69078,158.996855 C1213.09677,159.489772 1213.46961,160.612297 1213.98744,160.297493 C1217.34301,158.267836 1218.98765,160.935385 1221.32412,163.267419 C1221.32412,159.60161 1221.33241,156.52813 1221.31584,153.462934 C1221.30755,150.903081 1221.39869,148.322517 1224.74597,147.999429 C1227.14873,147.767468 1228.32939,149.73085 1228.34596,153.632762 C1228.36253,156.6234 1228.35424,159.618179 1228.35424,163.151439 C1229.54319,162.02063 1230.33859,161.154919 1231.23755,160.417615 C1232.52178,159.382076 1233.95514,159.336512 1235.20209,160.417615 C1236.43661,161.494576 1236.76388,163.047885 1235.75721,164.319527 C1232.93604,167.885924 1230.06931,171.444037 1226.93745,174.737051 C1225.19338,176.576169 1223.20904,175.627615 1221.7591,173.912762 C1219.10779,170.764723 1216.56004,167.546267 1213.92944,164.381659 C1213.56489,163.938449 1213.43647,162.629527 1212.76535,163.176292 C1209.67906,165.736145 1208.06341,162.811782 1205.55295,161.001659 L1205.55295,170.093694 C1205.55295,171.31563 1205.53638,172.537566 1204.98126,173.680801 C1204.25215,175.142983 1203.04663,175.830581 1201.45999,175.652468 C1199.5005,175.432934 1198.48969,174.107444 1198.32812,172.289037 C1197.99671,168.540385 1198.04642,164.771022 1197.85172,160.823547" id="Fill-1132" fill="#FFFFFF"></path>
                    <path d="M943.012468,161.834647 L957.868107,161.834647" id="Stroke-1134" stroke="#FFFFFF" stroke-width="4.14267677"></path>
                    <path d="M943.012468,215.157047 L971.671506,215.157047" id="Stroke-1136" stroke="#FFFFFF" stroke-width="4.14267677"></path>
                    <polyline id="Stroke-1138" stroke="#FFFFFF" stroke-width="4.14267677" points="988.242213 215.157047 1038.64202 215.157047 1066.60509 215.157047 1066.60509 235.180233 1140.83357 235.180233 1140.83357 130.590772 1094.56816 130.590772 1094.56816 235.180233"></polyline>
                    <polyline id="Stroke-1140" stroke="#FFFFFF" stroke-width="4.14267677" points="1074.55074 133.009377 1039.15985 133.009377 1039.15985 215.156632"></polyline>
                    <polyline id="Stroke-1142" stroke="#FFFFFF" stroke-width="4.14267677" points="1161.54695 130.590772 1240.25781 130.590772 1240.25781 235.180233 1263.73022 235.180233"></polyline>
                    <polyline id="Stroke-1144" stroke="#FFFFFF" stroke-width="4.14267677" points="1187.00163 235.180233 1188.81198 235.180233 1240.25574 235.180233"></polyline>
                    <polyline id="Stroke-1146" stroke="#FFFFFF" stroke-width="4.14267677" points="1189.16204 235.180233 1189.16204 215.157047 1161.54695 215.157047"></polyline>
                    <path d="M1189.16204,130.590772 L1189.16204,147.929841" id="Stroke-1148" stroke="#FFFFFF" stroke-width="4.14267677"></path>
                    <polyline id="Stroke-1150" stroke="#FFFFFF" stroke-width="4.14267677" points="1189.16204 172.012341 1189.16204 190.31239 1189.16204 196.177684"></polyline>
                    <path d="M1240.25781,189.276436 L1189.16204,189.276436" id="Stroke-1152" stroke="#FFFFFF" stroke-width="4.14267677"></path>
                    <path d="M1240.25781,152.337096 L1283.75592,152.337096" id="Stroke-1154" stroke="#FFFFFF" stroke-width="4.14267677"></path>
                    <polyline id="Stroke-1156" stroke="#FFFFFF" stroke-width="4.14267677" points="170.492319 168.209841 238.585497 168.209841 238.585497 160.704252 170.492319 160.704252"></polyline>
                    <path d="M269.653501,195.829743 L177.826928,195.829743" id="Stroke-1158" stroke="#FFFFFF" stroke-width="4.14267677"></path>
                    <path d="M178.864669,195.004211 L178.864669,169.252422" id="Stroke-1160" stroke="#FFFFFF" stroke-width="2.07133838"></path>
                    <path d="M183.871093,195.004211 L183.871093,169.252422" id="Stroke-1162" stroke="#FFFFFF" stroke-width="2.07133838"></path>
                    <path d="M189.393282,169.25325 L189.393282,195.005039" id="Stroke-1164" stroke="#FFFFFF" stroke-width="2.07133838"></path>
                    <path d="M195.089462,169.25325 L195.089462,195.005039" id="Stroke-1166" stroke="#FFFFFF" stroke-width="2.07133838"></path>
                    <path d="M199.923966,195.004211 L199.923966,169.252422" id="Stroke-1168" stroke="#FFFFFF" stroke-width="2.07133838"></path>
                    <path d="M205.446154,168.209841 L205.446154,195.829743" id="Stroke-1170" stroke="#FFFFFF" stroke-width="2.07133838"></path>
                    <path d="M210.798492,169.25325 L210.798492,195.829328" id="Stroke-1172" stroke="#FFFFFF" stroke-width="2.07133838"></path>
                    <path d="M216.320681,169.25325 L216.320681,195.829328" id="Stroke-1174" stroke="#FFFFFF" stroke-width="2.07133838"></path>
                    <path d="M221.499027,169.25325 L221.499027,195.005039" id="Stroke-1176" stroke="#FFFFFF" stroke-width="2.07133838"></path>
                    <path d="M226.851365,169.25325 L226.851365,195.829328" id="Stroke-1178" stroke="#FFFFFF" stroke-width="2.07133838"></path>
                    <path d="M232.547545,169.25325 L232.547545,195.829328" id="Stroke-1180" stroke="#FFFFFF" stroke-width="2.07133838"></path>
                    <path d="M226.851365,160.702181 L226.851365,130.936642" id="Stroke-1182" stroke="#FFFFFF" stroke-width="2.07133838"></path>
                    <path d="M221.499027,130.938299 L221.499027,160.703838" id="Stroke-1184" stroke="#FFFFFF" stroke-width="2.07133838"></path>
                    <path d="M216.320681,130.938299 L216.320681,160.703838" id="Stroke-1186" stroke="#FFFFFF" stroke-width="2.07133838"></path>
                    <path d="M210.798492,130.938299 L210.798492,160.703838" id="Stroke-1188" stroke="#FFFFFF" stroke-width="2.07133838"></path>
                    <path d="M205.446154,130.938299 L205.446154,160.703838" id="Stroke-1190" stroke="#FFFFFF" stroke-width="2.07133838"></path>
                    <path d="M199.923966,130.938299 L199.923966,160.703838" id="Stroke-1192" stroke="#FFFFFF" stroke-width="2.07133838"></path>
                    <path d="M194.227785,130.938299 L194.227785,160.703838" id="Stroke-1194" stroke="#FFFFFF" stroke-width="2.07133838"></path>
                    <path d="M189.393282,130.938299 L189.393282,160.703838" id="Stroke-1196" stroke="#FFFFFF" stroke-width="2.07133838"></path>
                    <path d="M183.871093,130.938299 L183.871093,161.316877" id="Stroke-1198" stroke="#FFFFFF" stroke-width="2.07133838"></path>
                    <path d="M178.864669,131.80401 L178.864669,160.703838" id="Stroke-1200" stroke="#FFFFFF" stroke-width="2.07133838"></path>
                    <path d="M173.34248,131.80401 L173.34248,160.703838" id="Stroke-1202" stroke="#FFFFFF" stroke-width="2.07133838"></path>
                    <polyline id="Stroke-1204" stroke="#FFFFFF" stroke-width="4.14267677" points="1286.34509 130.590772 1408.72391 130.590772 1408.72391 141.981703 1408.72391 198.103787 1371.16226 198.66712 1369.32705 198.691973 1282.4634 198.691973"></polyline>
                    <polyline id="Stroke-1206" stroke="#FFFFFF" stroke-width="4.14267677" points="1381.31886 170.483056 1313.22568 170.483056 1313.22568 162.977468 1381.31886 162.977468"></polyline>
                    <path d="M1367.94422,197.277841 L1367.94422,171.526051" id="Stroke-1208" stroke="#FFFFFF" stroke-width="2.07133838"></path>
                    <path d="M1362.41789,171.52688 L1362.41789,197.278669" id="Stroke-1210" stroke="#FFFFFF" stroke-width="2.07133838"></path>
                    <path d="M1356.72171,171.52688 L1356.72171,197.278669" id="Stroke-1212" stroke="#FFFFFF" stroke-width="2.07133838"></path>
                    <path d="M1351.89135,197.277841 L1351.89135,171.526051" id="Stroke-1214" stroke="#FFFFFF" stroke-width="2.07133838"></path>
                    <path d="M1346.36502,170.483056 L1346.36502,198.102958" id="Stroke-1216" stroke="#FFFFFF" stroke-width="2.07133838"></path>
                    <path d="M1341.01682,171.52688 L1341.01682,198.102958" id="Stroke-1218" stroke="#FFFFFF" stroke-width="2.07133838"></path>
                    <path d="M1335.49049,171.52688 L1335.49049,198.102958" id="Stroke-1220" stroke="#FFFFFF" stroke-width="2.07133838"></path>
                    <path d="M1330.31215,171.52688 L1330.31215,197.278669" id="Stroke-1222" stroke="#FFFFFF" stroke-width="2.07133838"></path>
                    <path d="M1324.96395,162.926934 L1324.96395,130.589115" id="Stroke-1224" stroke="#FFFFFF" stroke-width="2.07133838"></path>
                    <path d="M1330.31215,130.590772 L1330.31215,162.928591" id="Stroke-1226" stroke="#FFFFFF" stroke-width="2.07133838"></path>
                    <path d="M1335.49049,130.590772 L1335.49049,162.928591" id="Stroke-1228" stroke="#FFFFFF" stroke-width="2.07133838"></path>
                    <path d="M1341.01682,130.590772 L1341.01682,162.928591" id="Stroke-1230" stroke="#FFFFFF" stroke-width="2.07133838"></path>
                    <path d="M1346.36502,130.590772 L1346.36502,162.928591" id="Stroke-1232" stroke="#FFFFFF" stroke-width="2.07133838"></path>
                    <path d="M1351.89135,130.590772 L1351.89135,162.928591" id="Stroke-1234" stroke="#FFFFFF" stroke-width="2.07133838"></path>
                    <path d="M1357.58753,130.590772 L1357.58753,162.928591" id="Stroke-1236" stroke="#FFFFFF" stroke-width="2.07133838"></path>
                    <path d="M1362.41789,130.590772 L1362.41789,162.928591" id="Stroke-1238" stroke="#FFFFFF" stroke-width="2.07133838"></path>
                    <path d="M1367.94422,130.590772 L1367.94422,163.591336" id="Stroke-1240" stroke="#FFFFFF" stroke-width="2.07133838"></path>
                    <path d="M1372.94443,131.537255 L1372.94443,162.92652" id="Stroke-1242" stroke="#FFFFFF" stroke-width="2.07133838"></path>
                    <path d="M1378.47077,131.537255 L1378.47077,162.92652" id="Stroke-1244" stroke="#FFFFFF" stroke-width="2.07133838"></path>
                    <polyline id="Stroke-1246" stroke="#FFFFFF" stroke-width="4.14267677" points="1277.37164 235.180233 1283.7555 235.180233 1283.7555 130.590772 1290.30922 130.590772"></polyline>
                    <polyline id="Stroke-1248" stroke="#FFFFFF" stroke-width="4.14267677" points="693.076494 130.7606 700.674163 130.7606 700.674163 235.010404 747.618976 235.010404"></polyline>
                    <polyline id="Stroke-1250" stroke="#FFFFFF" stroke-width="4.14267677" points="700.674163 132.839549 864.293324 132.839549 943.012468 132.839549"></polyline>
                    <path d="M776.617713,235.00999 L776.617713,132.839549" id="Stroke-1252" stroke="#FFFFFF" stroke-width="4.14267677"></path>
                    <path d="M765.832254,235.180233 L836.257759,235.180233" id="Stroke-1254" stroke="#FFFFFF" stroke-width="4.14267677"></path>
                    <polyline id="Stroke-1256" stroke="#FFFFFF" stroke-width="4.14267677" points="93.2521105 282.272828 218.224241 282.272828 218.224241 303.662926 224.943662 303.662926"></polyline>
                    <polygon id="Stroke-1258" stroke="#FFFFFF" stroke-width="12.4280303" points="1549.56663 0.110759804 1549.56663 236.213701 1461.19505 236.213701 1461.19505 283.160907 1486.05111 283.160907 1486.05111 517.880368 1477.94389 517.880368 1477.94389 557.040319 1542.15538 557.040319 1542.15538 774.503554 1469.65854 774.503554 1469.65854 812.818505 1506.94263 812.818505 1506.94263 1289.16654 49.7519331 1289.16654 49.7519331 1232.21189 26.9672109 1232.21189 26.9672109 1034.4239 76.6793321 1034.4239 76.6793321 979.540319 885.541114 979.540319 885.541114 517.880368 65.1129785 517.880368 65.1129785 279.01875 89.9690391 279.01875 89.9690391 234.834363 0.209661616 234.834363 0.209661616 0.110759804"></polygon>
                    <polyline id="Stroke-1260" stroke="#FFFFFF" stroke-width="4.14267677" points="367.706518 979.540733 367.706518 1210.10975 377.371383 1210.10975 355.970314 1210.10975"></polyline>
                    <polyline id="Stroke-1262" stroke="#FFFFFF" stroke-width="4.14267677" points="143.653987 979.540733 143.653987 1210.10975 172.308883 1210.10975"></polyline>
                    <polyline id="Stroke-1264" stroke="#FFFFFF" stroke-width="4.14267677" points="191.29477 1210.10975 334.560961 1210.10975 340.087292 1210.10975"></polyline>
                    <path d="M80.8220088,1036.49539 L143.653987,1036.49539" id="Stroke-1266" stroke="#FFFFFF" stroke-width="4.14267677"></path>
                    <polyline id="Stroke-1268" stroke="#FFFFFF" stroke-width="4.14267677" points="89.526187 1086.56537 89.526187 1154.65 82.0196567 1154.65 82.0196567 1086.56537"></polyline>
                    <path d="M142.037515,1094.93874 L91.5714265,1094.93874" id="Stroke-1270" stroke="#FFFFFF" stroke-width="2.07133838"></path>
                    <path d="M142.037515,1099.93832 L91.5714265,1099.93832" id="Stroke-1272" stroke="#FFFFFF" stroke-width="2.07133838"></path>
                    <path d="M91.5710122,1105.46396 L142.037101,1105.46396" id="Stroke-1274" stroke="#FFFFFF" stroke-width="2.07133838"></path>
                    <path d="M91.5710122,1111.15942 L142.037101,1111.15942" id="Stroke-1276" stroke="#FFFFFF" stroke-width="2.07133838"></path>
                    <path d="M142.037515,1115.98918 L91.5714265,1115.98918" id="Stroke-1278" stroke="#FFFFFF" stroke-width="2.07133838"></path>
                    <path d="M89.526187,1121.51482 L143.654402,1121.51482" id="Stroke-1280" stroke="#FFFFFF" stroke-width="2.07133838"></path>
                    <path d="M91.5710122,1126.86234 L143.652745,1126.86234" id="Stroke-1282" stroke="#FFFFFF" stroke-width="2.07133838"></path>
                    <path d="M91.5710122,1132.38798 L143.652745,1132.38798" id="Stroke-1284" stroke="#FFFFFF" stroke-width="2.07133838"></path>
                    <path d="M91.5710122,1137.56567 L142.037101,1137.56567" id="Stroke-1286" stroke="#FFFFFF" stroke-width="2.07133838"></path>
                    <path d="M91.5710122,1142.9132 L143.652745,1142.9132" id="Stroke-1288" stroke="#FFFFFF" stroke-width="2.07133838"></path>
                    <path d="M91.5710122,1148.60866 L143.652745,1148.60866" id="Stroke-1290" stroke="#FFFFFF" stroke-width="2.07133838"></path>
                    <path d="M81.5482201,1142.9132 L29.039792,1142.9132" id="Stroke-1292" stroke="#FFFFFF" stroke-width="2.07133838"></path>
                    <path d="M29.0385492,1137.56567 L81.5469773,1137.56567" id="Stroke-1294" stroke="#FFFFFF" stroke-width="2.07133838"></path>
                    <path d="M29.0385492,1132.38798 L81.5469773,1132.38798" id="Stroke-1296" stroke="#FFFFFF" stroke-width="2.07133838"></path>
                    <path d="M29.0385492,1126.86234 L81.5469773,1126.86234" id="Stroke-1298" stroke="#FFFFFF" stroke-width="2.07133838"></path>
                    <path d="M29.0385492,1121.51482 L81.5469773,1121.51482" id="Stroke-1300" stroke="#FFFFFF" stroke-width="2.07133838"></path>
                    <path d="M29.0385492,1115.98918 L81.5469773,1115.98918" id="Stroke-1302" stroke="#FFFFFF" stroke-width="2.07133838"></path>
                    <path d="M29.0385492,1110.29371 L81.5469773,1110.29371" id="Stroke-1304" stroke="#FFFFFF" stroke-width="2.07133838"></path>
                    <path d="M29.0385492,1105.46396 L81.5469773,1105.46396" id="Stroke-1306" stroke="#FFFFFF" stroke-width="2.07133838"></path>
                    <path d="M29.0385492,1099.93832 L82.6323586,1099.93832" id="Stroke-1308" stroke="#FFFFFF" stroke-width="2.07133838"></path>
                    <path d="M30.5738253,1094.93874 L81.5494629,1094.93874" id="Stroke-1310" stroke="#FFFFFF" stroke-width="2.07133838"></path>
                    <path d="M30.5738253,1089.4131 L81.5494629,1089.4131" id="Stroke-1312" stroke="#FFFFFF" stroke-width="2.07133838"></path>
                    <polyline id="Stroke-1314" stroke="#FFFFFF" stroke-width="4.14267677" points="1004.64307 858.641529 1004.64307 812.816848 1068.07988 812.816848 1068.07988 996.368245"></polyline>
                    <path d="M1004.64307,880.128968 L1068.07988,880.128968" id="Stroke-1316" stroke="#FFFFFF" stroke-width="4.14267677"></path>
                    <path d="M1068.07781,940.449127 L1004.641,940.449127" id="Stroke-1318" stroke="#FFFFFF" stroke-width="4.14267677"></path>
                    <path d="M1020.80075,907.603066 C1020.16278,908.356939 1019.56209,909.148091 1018.87441,909.860542 C1017.64403,911.132184 1016.19824,911.492551 1014.70688,910.361743 C1013.3895,909.351056 1013.00838,907.814316 1013.89077,906.484684 C1016.53794,902.508213 1019.57038,898.784414 1023.03366,895.499684 C1024.75701,893.85939 1026.5715,895.006767 1027.91373,896.584929 C1030.51119,899.633556 1033.06722,902.707037 1035.63982,905.776375 C1036.05409,906.261007 1036.41864,907.383532 1036.93648,907.077012 C1040.30033,905.039071 1041.94498,907.714904 1044.27316,910.038654 C1044.27316,906.372846 1044.28144,903.30765 1044.27316,900.242453 C1044.26487,897.6826 1044.34773,895.102037 1047.69501,894.770664 C1050.09776,894.546988 1051.27843,896.51037 1051.30328,900.412282 C1051.31157,903.394635 1051.30328,906.389414 1051.30328,909.930958 C1052.49223,908.791865 1053.28762,907.926154 1054.19487,907.197135 C1055.47081,906.161596 1056.90418,906.116032 1058.15113,907.18885 C1059.38564,908.265811 1059.7212,909.827404 1058.70625,911.099047 C1055.88508,914.665444 1053.01835,918.219414 1049.88649,921.508287 C1048.14242,923.347404 1046.15808,922.407135 1044.70814,920.683998 C1042.06511,917.535958 1039.50908,914.325787 1036.88677,911.152895 C1036.51393,910.717968 1036.39379,909.400762 1035.72267,909.955811 C1032.6281,912.50738 1031.01245,909.591301 1028.50199,907.772895 L1028.50199,916.864929 C1028.50199,918.09515 1028.4937,919.317086 1027.9303,920.452037 C1027.20119,921.922502 1026.00395,922.6101 1024.40902,922.431988 C1022.44954,922.212453 1021.43873,920.878679 1021.27716,919.068556 C1020.94575,915.31162 1020.99546,911.550542 1020.80075,907.603066" id="Fill-1320" fill="#FFFFFF"></path>
                    <polyline id="Stroke-1322" stroke="#FFFFFF" stroke-width="4.14267677" points="1024.5797 1050.30534 1068.07781 1050.30534 1068.07781 1243.94289 1004.64514 1243.94289 1004.64514 1230.14122 1004.64514 1135.95686"></polyline>
                    <path d="M1068.07781,1110.01867 L1004.641,1110.01867" id="Stroke-1324" stroke="#FFFFFF" stroke-width="4.14267677"></path>
                    <path d="M1040.89149,1264.31402 L1040.89149,1289.16696" id="Stroke-1326" stroke="#FFFFFF" stroke-width="4.14267677"></path>
                    <polyline id="Stroke-1328" stroke="#FFFFFF" stroke-width="4.14267677" points="1039.68556 1140.73691 1039.68556 1213.61402 1033.47154 1213.61402 1033.47154 1176.81095 1033.47154 1140.73691"></polyline>
                    <path d="M1032.77599,1170.59772 L1004.64307,1170.59772" id="Stroke-1330" stroke="#FFFFFF" stroke-width="2.07133838"></path>
                    <path d="M1004.64307,1176.29318 L1032.77599,1176.29318" id="Stroke-1332" stroke="#FFFFFF" stroke-width="2.07133838"></path>
                    <path d="M1033.47154,1180.95311 L1004.64266,1180.95311" id="Stroke-1334" stroke="#FFFFFF" stroke-width="2.07133838"></path>
                    <path d="M1004.64307,1186.30063 L1032.77599,1186.30063" id="Stroke-1336" stroke="#FFFFFF" stroke-width="2.07133838"></path>
                    <polyline id="Stroke-1338" stroke="#FFFFFF" stroke-width="2.07133838" points="1040.55138 1170.59772 1067.13079 1170.59772 1067.13079 1165.42002 1040.55138 1165.42002 1040.55138 1159.72456 1067.13079 1159.72456 1067.13079 1154.36875 1040.55138 1154.36875 1040.55138 1148.67328"></polyline>
                    <polyline id="Stroke-1340" stroke="#FFFFFF" stroke-width="4.14267677" points="885.541114 979.540733 917.986558 979.540733 917.986558 1221.85691 873.887764 1221.85691"></polyline>
                    <polyline id="Stroke-1342" stroke="#FFFFFF" stroke-width="4.14267677" points="800.098405 1221.85691 757.892814 1221.85691 757.892814 982.129581"></polyline>
                    <polyline id="Stroke-1344" stroke="#FFFFFF" stroke-width="4.14267677" points="797.250315 1200.88724 797.250315 1189.23535 784.043461 1189.23535 877.514677 1189.23535 877.514677 1200.88724 877.514677 1189.23535 891.235223 1189.23535"></polyline>
                    <path d="M802.501158,1101.41873 L802.501158,1121.16025 C802.501158,1121.62831 802.492872,1122.09637 802.314737,1122.53544 C801.763761,1123.88579 800.251684,1124.51539 798.826604,1123.98106 C797.774364,1123.59584 797.169533,1122.72184 797.144677,1121.5289 C797.128106,1120.5762 797.144677,1119.62351 797.144677,1118.66667 C797.152962,1114.35468 797.144677,1110.05098 797.152962,1105.739 C797.161247,1103.24542 797.186104,1100.75598 797.194389,1098.2624 C797.194389,1098.07601 797.186104,1097.88961 797.144677,1097.7115 C797.057681,1097.32628 796.763551,1097.09017 796.374139,1097.06532 C795.922587,1097.03218 795.616029,1097.2103 795.454465,1097.60794 C795.363326,1097.82748 795.371611,1098.05944 795.371611,1098.29554 C795.371611,1105.98338 795.371611,1113.66709 795.379896,1121.35079 C795.379896,1122.07981 795.268044,1122.7674 794.775066,1123.34316 C794.037669,1124.17574 793.093139,1124.42841 792.049184,1124.20059 C790.996944,1123.97277 790.329973,1123.26032 790.023415,1122.23307 C789.928134,1121.90169 789.870136,1121.55375 789.870136,1121.19753 C789.878422,1115.87486 789.84528,1110.56047 789.894992,1105.2378 C789.961275,1097.32628 789.911563,1089.42304 789.936419,1081.51566 C789.944705,1080.91919 789.78314,1080.65824 789.327446,1080.52155 C788.784755,1080.36 788.196495,1080.5464 787.918936,1080.96062 C787.831939,1081.08074 787.831939,1081.21743 787.831939,1081.35412 C787.831939,1084.18736 787.831939,1087.01645 787.840225,1089.84968 C787.84851,1091.92905 787.881652,1094.01669 787.881652,1096.09606 C787.881652,1096.9452 787.541952,1097.61623 786.721702,1097.96417 C785.996734,1098.27069 785.114343,1098.10086 784.546797,1097.54995 C784.198812,1097.2103 784.045533,1096.78365 784.045533,1096.29902 C784.045533,1090.96807 784.062104,1085.62468 784.053818,1080.29373 C784.045533,1078.87297 784.343806,1077.54334 785.106058,1076.33797 C786.448285,1074.22961 788.366345,1072.99939 790.872664,1072.9414 C794.087381,1072.85441 797.306241,1072.87512 800.516816,1072.92483 C803.85167,1072.99111 806.942107,1075.54682 807.737501,1078.79012 C807.923922,1079.544 808.010918,1080.29373 808.010918,1081.06417 C808.002633,1086.04718 808.002633,1091.03848 808.002633,1096.0215 C808.002633,1097.05704 807.584222,1097.67422 806.676976,1097.95588 C805.488028,1098.34525 804.344649,1097.55824 804.274223,1096.31559 C804.265938,1096.17476 804.274223,1096.02978 804.274223,1095.89309 C804.265938,1091.06334 804.257653,1086.2253 804.282509,1081.39554 C804.290794,1080.67481 803.640394,1080.36829 803.147415,1080.48841 C802.695864,1080.60439 802.501158,1080.82807 802.501158,1081.30027 L802.501158,1101.41873 Z" id="Fill-1346" fill="#A8770A"></path>
                    <path d="M795.890689,1061.1056 C798.657997,1061.09732 800.90747,1063.35479 800.890899,1066.17146 C800.874329,1068.93842 798.744993,1071.18761 795.882403,1071.18761 C793.073668,1071.18761 790.898763,1069.07511 790.865622,1066.17974 C790.840766,1063.2968 793.048812,1061.14702 795.890689,1061.1056" id="Fill-1348" fill="#A8770A"></path>
                    <path d="M883.841788,1113.74827 C883.841788,1116.47381 883.850073,1119.19935 883.841788,1121.92903 C883.841788,1122.76161 883.526944,1123.4492 882.772977,1123.87585 C881.990011,1124.3232 881.169761,1124.33977 880.37851,1123.93384 C879.578973,1123.5279 879.214418,1122.82374 879.206132,1121.9456 L879.206132,1105.96516 C879.206132,1105.8119 879.206132,1105.66692 879.189562,1105.51366 C879.131564,1105.0746 878.825006,1104.80121 878.419024,1104.81778 C877.950901,1104.84263 877.660914,1105.13259 877.644343,1105.59237 C877.636058,1105.71663 877.636058,1105.84504 877.636058,1105.97344 L877.636058,1121.7095 C877.636058,1122.50065 877.491064,1123.24624 876.811665,1123.75572 C875.999701,1124.36462 875.121453,1124.41847 874.214207,1124.01668 C873.315246,1123.61903 872.992117,1122.83202 872.95069,1121.90418 C872.942405,1121.75092 872.95069,1121.59766 872.95069,1121.44854 C872.95069,1116.12587 872.942405,1110.79491 872.942405,1105.47224 C872.942405,1104.9379 872.942405,1104.9379 872.399714,1104.9379 L866.657964,1104.9379 C866.251982,1104.9379 866.243697,1104.92962 866.355549,1104.55683 C866.840242,1102.94967 867.345649,1101.33837 867.830342,1099.72707 C868.559453,1097.36604 869.276136,1095.00501 869.996962,1092.64813 C870.605935,1090.67646 871.219052,1088.70065 871.828025,1086.72898 C872.432856,1084.74489 873.041829,1082.76494 873.638375,1080.77256 C873.783368,1080.27964 873.580377,1079.84886 873.145396,1079.6956 C872.693844,1079.53406 872.254721,1079.75359 872.084871,1080.26308 C871.720315,1081.34004 871.380616,1082.42528 871.032631,1083.50638 C870.166812,1086.19464 869.300992,1088.87048 868.443458,1091.55874 C868.070617,1092.70612 867.706062,1093.85349 867.345649,1095.00501 C866.964522,1096.2021 865.999279,1096.66188 864.860043,1096.16067 C864.052221,1095.80445 863.671094,1094.95531 863.944511,1094.07303 C864.723334,1091.5256 865.514586,1088.97817 866.293409,1086.42661 C867.213083,1083.43597 868.128615,1080.44119 869.035861,1077.44641 C869.731831,1075.1268 871.736886,1073.44923 874.123068,1073.2007 C874.52905,1073.15928 874.935033,1073.14271 875.336872,1073.14271 C877.959187,1073.14271 880.581501,1073.13442 883.212101,1073.15099 C884.633039,1073.15099 885.954553,1073.5155 887.093789,1074.43092 C888.187456,1075.3132 888.841998,1076.44401 889.206554,1077.78607 C890.151084,1081.32347 891.116328,1084.85673 892.069144,1088.40241 C892.611834,1090.37408 893.154525,1092.35817 893.680645,1094.33813 C893.945776,1095.33638 893.212522,1096.35536 892.193424,1096.44234 C891.178468,1096.53347 890.507355,1096.0944 890.233938,1095.10857 C889.442687,1092.34989 888.672149,1089.57464 887.897468,1086.80768 C887.392062,1085.03484 886.882512,1083.25786 886.381248,1081.48501 C886.261111,1081.04594 886.149259,1080.61102 886.016693,1080.18023 C885.879985,1079.73702 885.523714,1079.54234 885.105304,1079.66246 C884.682751,1079.78673 884.471474,1080.13467 884.587469,1080.57788 C885.167444,1082.94305 885.768132,1085.30408 886.364678,1087.66511 C887.031649,1090.2871 887.702762,1092.9008 888.365591,1095.52278 C889.140271,1098.58798 889.919094,1101.65317 890.70206,1104.71837 C890.793199,1105.04146 890.606779,1105.01246 890.412073,1105.00418 C888.398732,1105.00418 886.372963,1105.00418 884.359622,1104.99589 C883.850073,1104.99589 883.850073,1105.00418 883.850073,1105.4971 L883.850073,1113.74827 L883.841788,1113.74827 Z" id="Fill-1350" fill="#A8770A"></path>
                    <path d="M874.0514,1066.21039 C874.009973,1063.46829 876.189021,1061.11554 879.101323,1061.10726 C881.997054,1061.10726 884.229956,1063.45172 884.196815,1066.29738 C884.163674,1069.08091 881.876916,1071.38809 879.068181,1071.35495 C876.317444,1071.3301 873.985117,1069.06434 874.0514,1066.21039" id="Fill-1352" fill="#A8770A"></path>
                    <path d="M837.641414,1189.23742 L837.641414,982.129581 L837.641414,1189.23742 Z" id="Stroke-1354" stroke="#FFFFFF" stroke-width="4.14267677"></path>
                    <polyline id="Stroke-1356" stroke="#FFFFFF" stroke-width="4.14267677" points="720.869712 1208.91267 720.869712 982.129581 720.869712 1147.12826 757.896957 1147.12826"></polyline>
                    <path d="M737.78799,1210.10975 L708.959102,1210.10975" id="Stroke-1358" stroke="#FFFFFF" stroke-width="4.14267677"></path>
                    <path d="M690.317471,1210.10975 L571.733348,1210.10975" id="Stroke-1360" stroke="#FFFFFF" stroke-width="4.14267677"></path>
                    <polyline id="Stroke-1362" stroke="#FFFFFF" stroke-width="4.14267677" points="544.288115 979.540733 544.288115 1210.10975 556.198311 1210.10975 531.860085 1210.10975"></polyline>
                    <path d="M515.289378,1210.10975 L395.665443,1210.10975" id="Stroke-1364" stroke="#FFFFFF" stroke-width="4.14267677"></path>
                    <polyline id="Stroke-1366" stroke="#FFFFFF" stroke-width="4.14267677" points="143.653987 1210.10975 143.653987 1225.30318 30.5754823 1225.30318"></polyline>
                    <path d="M1004.63893,1118.69939 L1004.63893,1102.81836" id="Stroke-1368" stroke="#FFFFFF" stroke-width="4.14267677"></path>
                    <polyline id="Stroke-1370" stroke="#FFFFFF" stroke-width="4.14267677" points="1004.63893 1087.28527 1004.63893 1050.3041 1028.79488 1050.3041"></polyline>
                    <path d="M1022.9247,1050.30534 L1022.9247,1041.38313" id="Stroke-1372" stroke="#FFFFFF" stroke-width="4.14267677"></path>
                    <path d="M1022.9247,1008.24464 L1022.9247,998.924784" id="Stroke-1374" stroke="#FFFFFF" stroke-width="4.14267677"></path>
                    <polyline id="Stroke-1376" stroke="#FFFFFF" stroke-width="4.14267677" points="1068.07367 994.086745 1068.07367 998.924784 1004.641 998.924784 1004.641 922.514417"></polyline>
                    <path d="M1004.64307,901.567944 L1004.64307,873.956326" id="Stroke-1378" stroke="#FFFFFF" stroke-width="4.14267677"></path>
                    <path d="M1004.99064,1190.83091 L1033.12356,1190.83091" id="Stroke-1380" stroke="#FFFFFF" stroke-width="2.07133838"></path>
                    <path d="M1039.77463,1176.29318 L1067.90754,1176.29318" id="Stroke-1382" stroke="#FFFFFF" stroke-width="2.07133838"></path>
                    <path d="M1004.64307,1197.38422 L1032.77599,1197.38422" id="Stroke-1384" stroke="#FFFFFF" stroke-width="2.07133838"></path>
                    <path d="M1040.55138,1248.99135 L1040.55138,1244.79949" id="Stroke-1386" stroke="#FFFFFF" stroke-width="4.14267677"></path>
                    <polyline id="Stroke-1388" stroke="#FFFFFF" stroke-width="4.14267677" points="1099.04639 1289.16696 1099.04639 1193.421 1143.84115 1193.421"></polyline>
                    <path d="M1159.89195,1193.41976 L1213.22892,1193.41976" id="Stroke-1390" stroke="#FFFFFF" stroke-width="4.14267677"></path>
                    <path d="M1186.56044,1193.41976 L1186.56044,1289.16572" id="Stroke-1392" stroke="#FFFFFF" stroke-width="4.14267677"></path>
                    <path d="M1228.50504,1193.41976 L1300.74089,1193.41976" id="Stroke-1394" stroke="#FFFFFF" stroke-width="4.14267677"></path>
                    <path d="M1274.59232,1193.41976 L1274.59232,1289.16572" id="Stroke-1396" stroke="#FFFFFF" stroke-width="4.14267677"></path>
                    <path d="M1316.79584,1193.41976 L1374.01863,1193.41976" id="Stroke-1398" stroke="#FFFFFF" stroke-width="4.14267677"></path>
                    <path d="M1362.10636,1193.41976 L1362.10636,1289.16572" id="Stroke-1400" stroke="#FFFFFF" stroke-width="4.14267677"></path>
                    <polyline id="Stroke-1402" stroke="#FFFFFF" stroke-width="4.14267677" points="1389.03376 1193.41976 1426.57884 1193.41976 1420.87852 1193.41976 1420.87852 1289.16572"></polyline>
                    <path d="M1441.59397,1193.41976 L1506.94056,1193.41976" id="Stroke-1404" stroke="#FFFFFF" stroke-width="4.14267677"></path>
                    <polyline id="Stroke-1406" stroke="#FFFFFF" stroke-width="4.14267677" points="1449.87933 1193.41976 1449.87933 1164.42466 1441.59397 1164.42466"></polyline>
                    <polyline id="Stroke-1408" stroke="#FFFFFF" stroke-width="4.14267677" points="1426.57677 1164.42466 1420.10591 1164.42466 1420.10591 1064.49513"></polyline>
                    <path d="M1420.10384,1076.14494 L1505.80339,1076.14494" id="Stroke-1410" stroke="#FFFFFF" stroke-width="4.14267677"></path>
                    <polyline id="Stroke-1412" stroke="#FFFFFF" stroke-width="4.14267677" points="1099.22038 1037.57111 1099.22038 1047.9265 1303.24721 1047.9265 1303.24721 1018.2438"></polyline>
                    <path d="M1303.24721,1001.67518 L1303.24721,957.834588" id="Stroke-1414" stroke="#FFFFFF" stroke-width="4.14267677"></path>
                    <path d="M1303.24721,940.449127 L1303.24721,921.241946" id="Stroke-1416" stroke="#FFFFFF" stroke-width="4.14267677"></path>
                    <polyline id="Stroke-1418" stroke="#FFFFFF" stroke-width="4.14267677" points="1215.90302 1047.9265 1215.90302 932.633706 1303.24721 932.633706"></polyline>
                    <polyline id="Stroke-1420" stroke="#FFFFFF" stroke-width="4.14267677" points="1215.90302 932.63412 1099.22038 932.63412 1099.22038 942.649855"></polyline>
                    <path d="M1215.90302,985.438336 L1303.24721,985.438336" id="Stroke-1422" stroke="#FFFFFF" stroke-width="4.14267677"></path>
                    <path d="M1332.59808,957.834588 L1391.97506,957.834588" id="Stroke-1424" stroke="#FFFFFF" stroke-width="4.14267677"></path>
                    <path d="M1099.22038,1114.45989 L1316.79791,1114.45989" id="Stroke-1426" stroke="#FFFFFF" stroke-width="4.14267677"></path>
                    <path d="M1099.22038,1124.88819 L1099.22038,1105.21294" id="Stroke-1428" stroke="#FFFFFF" stroke-width="4.14267677"></path>
                    <path d="M1332.9502,1114.45989 L1395.09036,1114.45989" id="Stroke-1430" stroke="#FFFFFF" stroke-width="4.14267677"></path>
                    <path d="M1412.34875,1114.45989 L1420.10384,1114.45989" id="Stroke-1432" stroke="#FFFFFF" stroke-width="4.14267677"></path>
                    <path d="M1420.10384,1049.30211 L1420.10384,987.169757" id="Stroke-1434" stroke="#FFFFFF" stroke-width="4.14267677"></path>
                    <path d="M1420.10384,1018.23593 L1505.80339,1018.23593" id="Stroke-1436" stroke="#FFFFFF" stroke-width="4.14267677"></path>
                    <polyline id="Stroke-1438" stroke="#FFFFFF" stroke-width="4.14267677" points="1420.10384 971.636669 1420.10384 930.844708 1424.78092 930.844708"></polyline>
                    <path d="M1420.10384,959.210199 L1505.80339,959.210199" id="Stroke-1440" stroke="#FFFFFF" stroke-width="4.14267677"></path>
                    <path d="M1505.80546,901.567944 L1442.38937,901.567944" id="Stroke-1442" stroke="#FFFFFF" stroke-width="4.14267677"></path>
                    <polyline id="Stroke-1444" stroke="#FFFFFF" stroke-width="4.14267677" points="1449.29687 901.567944 1449.29687 930.844708 1442.39103 930.844708"></polyline>
                    <path d="M1424.78051,901.567944 L1389.57604,901.567944" id="Stroke-1446" stroke="#FFFFFF" stroke-width="4.14267677"></path>
                    <path d="M1420.10384,901.567944 L1420.10384,813.199169" id="Stroke-1448" stroke="#FFFFFF" stroke-width="4.14267677"></path>
                    <path d="M1373.67272,901.567944 L1349.50848,901.567944" id="Stroke-1450" stroke="#FFFFFF" stroke-width="4.14267677"></path>
                    <path d="M1334.31729,901.567944 L1272.86896,901.567944" id="Stroke-1452" stroke="#FFFFFF" stroke-width="4.14267677"></path>
                    <path d="M1256.99008,901.567944 L1233.51353,901.567944" id="Stroke-1454" stroke="#FFFFFF" stroke-width="4.14267677"></path>
                    <path d="M1217.29081,901.567944 L1155.49865,901.567944" id="Stroke-1456" stroke="#FFFFFF" stroke-width="4.14267677"></path>
                    <path d="M1139.61562,901.567944 L1115.79523,901.567944" id="Stroke-1458" stroke="#FFFFFF" stroke-width="4.14267677"></path>
                    <path d="M1100.95202,901.567944 L1068.07574,901.567944" id="Stroke-1460" stroke="#FFFFFF" stroke-width="4.14267677"></path>
                    <path d="M1361.58853,901.567944 L1361.58853,813.199169" id="Stroke-1462" stroke="#FFFFFF" stroke-width="4.14267677"></path>
                    <path d="M1303.59105,901.567944 L1303.59105,813.199169" id="Stroke-1464" stroke="#FFFFFF" stroke-width="4.14267677"></path>
                    <path d="M1245.25388,901.567944 L1245.25388,813.199169" id="Stroke-1466" stroke="#FFFFFF" stroke-width="4.14267677"></path>
                    <path d="M1186.39473,901.567944 L1186.39473,814.58265" id="Stroke-1468" stroke="#FFFFFF" stroke-width="4.14267677"></path>
                    <path d="M1127.70543,901.567944 L1127.70543,814.58265" id="Stroke-1470" stroke="#FFFFFF" stroke-width="4.14267677"></path>
                    <path d="M1068.07781,812.818919 L1468.26867,812.818919" id="Stroke-1472" stroke="#FFFFFF" stroke-width="4.14267677"></path>
                    <polyline id="Stroke-1474" stroke="#FFFFFF" stroke-width="4.14267677" points="1004.64307 812.818919 1004.64307 559.66686 1104.74671 559.66686"></polyline>
                    <polyline id="Stroke-1476" stroke="#FFFFFF" stroke-width="4.14267677" points="948.356521 280.590284 948.356521 515.541706 1004.64307 515.541706 1004.64307 520.835382 1477.94389 520.835382"></polyline>
                    <polyline id="Stroke-1478" stroke="#FFFFFF" stroke-width="4.14267677" points="1104.74257 530.93189 1004.64307 530.93189 1004.64307 520.833311"></polyline>
                    <polyline id="Stroke-1480" stroke="#FFFFFF" stroke-width="4.14267677" points="1457.55819 283.00889 1335.00539 283.00889 1335.00539 301.648596 1329.4832 301.648596"></polyline>
                    <polyline id="Stroke-1482" stroke="#FFFFFF" stroke-width="4.14267677" points="1308.42556 301.648596 1302.21154 301.648596 1302.21154 280.58987 1302.21154 313.039527"></polyline>
                    <path d="M1302.21154,329.608154 L1302.21154,479.0696" id="Stroke-1484" stroke="#FFFFFF" stroke-width="4.14267677"></path>
                    <path d="M1302.21154,499.780385 L1302.21154,520.834968" id="Stroke-1486" stroke="#FFFFFF" stroke-width="4.14267677"></path>
                    <path d="M1214.50362,520.835382 L1214.50362,499.780799" id="Stroke-1488" stroke="#FFFFFF" stroke-width="4.14267677"></path>
                    <polyline id="Stroke-1490" stroke="#FFFFFF" stroke-width="4.14267677" points="1214.50362 479.0696 1214.50362 283.00889 1282.1701 283.00889 1155.47048 283.00889"></polyline>
                    <polyline id="Stroke-1492" stroke="#FFFFFF" stroke-width="4.14267677" points="1302.21154 402.088029 1122.66793 402.088029 1122.66793 475.959255 1122.66793 328.220946"></polyline>
                    <polyline id="Stroke-1494" stroke="#FFFFFF" stroke-width="4.14267677" points="1133.71728 520.835382 1133.71728 499.780799 1122.66876 499.780799 1122.66876 495.638642"></polyline>
                    <polyline id="Stroke-1496" stroke="#FFFFFF" stroke-width="4.14267677" points="1122.66876 313.039527 1122.66876 300.2734 1136.82429 300.2734 1136.82429 283.00889 981.81775 283.00889 981.81775 301.308939 975.603735 301.308939"></polyline>
                    <path d="M954.546509,300.960998 L948.35735,300.960998" id="Stroke-1498" stroke="#FFFFFF" stroke-width="4.14267677"></path>
                    <polyline id="Stroke-1500" stroke="#FFFFFF" stroke-width="2.07133838" points="1098.01486 530.93189 1098.01486 559.666032 1092.31868 559.666032 1092.31868 530.93189 1086.10467 530.93189 1086.10467 559.666032 1080.23449 559.666032 1080.23449 530.93189 1074.36432 530.93189 1074.36432 559.666032 1068.3243 559.666032 1068.3243 530.93189 1062.80211 530.93189 1062.80211 559.666032 1057.44977 559.666032 1057.44977 530.93189 1051.5796 530.93189 1051.5796 559.666032 1045.36558 559.666032 1045.36558 530.93189 1039.6694 530.93189 1039.6694 559.666032 1033.80337 559.666032 1033.80337 530.93189 1027.9332 530.93189 1027.9332 559.666032 1021.71918 559.666032 1021.71918 530.93189"></polyline>
                    <path d="M1103.7069,530.93189 L1103.7069,559.666032" id="Stroke-1502" stroke="#FFFFFF" stroke-width="2.07133838"></path>
                    <path d="M1408.72391,198.69363 L1408.72391,208.879194" id="Stroke-1504" stroke="#FFFFFF" stroke-width="4.14267677"></path>
                    <polyline id="Stroke-1506" stroke="#FFFFFF" stroke-width="4.14267677" points="1408.72391 224.412282 1408.72391 233.475321 1457.55778 233.475321"></polyline>
                    <path d="M1372.94858,233.47325 L1346.36916,233.47325" id="Stroke-1508" stroke="#FFFFFF" stroke-width="4.14267677"></path>
                    <polyline id="Stroke-1510" stroke="#FFFFFF" stroke-width="4.14267677" points="1356.72586 233.47325 1356.72586 218.714745 1371.16723 218.714745 1371.16723 198.666706"></polyline>
                    <path d="M1283.75592,235.180233 L1326.89361,235.180233" id="Stroke-1512" stroke="#FFFFFF" stroke-width="4.14267677"></path>
                    <polyline id="Stroke-1514" stroke="#FFFFFF" stroke-width="4.14267677" points="261.364005 130.936642 141.570221 130.936642 141.570221 195.831814 181.961319 195.831814"></polyline>
                    <path d="M180.581808,195.829743 L180.581808,220.343027" id="Stroke-1516" stroke="#FFFFFF" stroke-width="4.14267677"></path>
                    <polyline id="Stroke-1518" stroke="#FFFFFF" stroke-width="4.14267677" points="180.581808 229.50465 180.581808 233.456267 204.538908 233.456267"></polyline>
                    <path d="M145.366984,195.829743 L145.366984,208.086385" id="Stroke-1520" stroke="#FFFFFF" stroke-width="4.14267677"></path>
                    <polyline id="Stroke-1522" stroke="#FFFFFF" stroke-width="4.14267677" points="145.366984 223.789301 145.366984 233.457096 93.2521105 233.457096"></polyline>
                    <polyline id="Stroke-1524" stroke="#FFFFFF" stroke-width="4.14267677" points="900.023912 377.583029 900.023912 283.009304 647.324771 283.009304"></polyline>
                    <polyline id="Stroke-1526" stroke="#FFFFFF" stroke-width="4.14267677" points="900.023912 392.772319 900.023912 402.092172 900.023912 397.432245 813.031842 397.432245 813.031842 283.009304 813.031842 517.882025"></polyline>
                    <path d="M900.023912,517.882439 L888.635693,517.882439 L900.023912,517.882439 Z" id="Stroke-1528" stroke="#FFFFFF" stroke-width="4.14267677"></path>
                    <polyline id="Stroke-1530" stroke="#FFFFFF" stroke-width="4.14267677" points="900.023912 416.94139 900.023912 517.88161 888.635693 517.88161"></polyline>
                    <polyline id="Stroke-1532" stroke="#FFFFFF" stroke-width="4.14267677" points="606.585688 517.882439 606.585688 283.009718 606.585688 281.626238"></polyline>
                    <polyline id="Stroke-1534" stroke="#FFFFFF" stroke-width="4.14267677" points="625.486651 301.301069 606.587759 301.301069 600.112756 301.301069"></polyline>
                    <path d="M649.22626,283.00889 L649.22626,303.371733" id="Stroke-1536" stroke="#FFFFFF" stroke-width="4.14267677"></path>
                    <path d="M606.585688,330.296167 L578.883609,330.296167" id="Stroke-1538" stroke="#FFFFFF" stroke-width="4.14267677"></path>
                    <polyline id="Stroke-1540" stroke="#FFFFFF" stroke-width="4.14267677" points="564.900003 330.296167 539.526108 330.296167 539.526108 517.882025"></polyline>
                    <polyline id="Stroke-1542" stroke="#FFFFFF" stroke-width="4.14267677" points="578.881537 301.301069 573.703191 301.301069 573.703191 283.009304 359.837503 283.009304 359.837503 303.662098"></polyline>
                    <polyline id="Stroke-1544" stroke="#FFFFFF" stroke-width="4.14267677" points="324.365833 303.735828 324.365833 283.008475 251.094309 283.008475 251.094309 301.623328 251.094309 305.260142"></polyline>
                    <path d="M251.092238,338.321596 L251.092238,517.884096" id="Stroke-1546" stroke="#FFFFFF" stroke-width="4.14267677"></path>
                </g>
                <path d="M551.425631,954.06191 C564.267929,954.06191 571.641894,948.510723 577.110227,940.971052 L565.013611,932.354284 C561.533763,936.579814 557.971061,939.396835 551.922753,939.396835 C543.803106,939.396835 538.086212,932.602845 538.086212,923.903223 L538.086212,923.737516 C538.086212,915.286456 543.803106,908.409612 551.922753,908.409612 C557.473939,908.409612 561.285202,911.060925 564.599343,915.203602 L576.69596,905.841153 C571.55904,898.715749 563.936515,893.744537 552.08846,893.744537 C534.52351,893.744537 521.515505,907.001102 521.515505,923.903223 L521.515505,924.06893 C521.515505,941.385319 534.854924,954.06191 551.425631,954.06191 Z M581.584318,952.901961 L627.485177,952.901961 L627.485177,939.811102 L603.540505,939.811102 L613.482929,932.851405 C622.099697,926.63739 626.905202,921.831885 626.905202,912.552289 L626.905202,912.386582 C626.905202,901.449915 618.205581,893.910244 605.52899,893.910244 C594.260909,893.910244 588.129747,898.301481 581.915732,906.338274 L592.769545,915.369309 C597.32649,910.149537 600.392071,907.912491 604.286187,907.912491 C608.180303,907.912491 610.748763,910.149537 610.748763,913.795092 C610.748763,917.274941 608.677424,920.009107 603.291944,924.234638 L581.584318,940.805345 L581.584318,952.901961 Z M660.709444,954.06191 C644.138737,954.06191 633.947753,940.47393 633.947753,924.06893 L633.947753,923.903223 C633.947753,907.498223 644.387298,893.744537 660.875152,893.744537 C677.363005,893.744537 687.636843,907.332516 687.636843,923.737516 L687.636843,923.903223 C687.636843,940.308223 677.280152,954.06191 660.709444,954.06191 Z M660.875152,939.811102 C667.337727,939.811102 671.480404,933.265673 671.480404,924.06893 L671.480404,923.903223 C671.480404,914.706481 667.089167,907.995345 660.709444,907.995345 C654.329722,907.995345 650.104192,914.45792 650.104192,923.737516 L650.104192,923.903223 C650.104192,933.182819 654.412576,939.811102 660.875152,939.811102 Z M721.192525,954.06191 C704.621818,954.06191 694.430833,940.47393 694.430833,924.06893 L694.430833,923.903223 C694.430833,907.498223 704.870379,893.744537 721.358232,893.744537 C737.846086,893.744537 748.119924,907.332516 748.119924,923.737516 L748.119924,923.903223 C748.119924,940.308223 737.763232,954.06191 721.192525,954.06191 Z M721.358232,939.811102 C727.820808,939.811102 731.963485,933.265673 731.963485,924.06893 L731.963485,923.903223 C731.963485,914.706481 727.572247,907.995345 721.192525,907.995345 C714.812803,907.995345 710.587273,914.45792 710.587273,923.737516 L710.587273,923.903223 C710.587273,933.182819 714.895657,939.811102 721.358232,939.811102 Z M781.675606,954.06191 C765.104899,954.06191 754.913914,940.47393 754.913914,924.06893 L754.913914,923.903223 C754.913914,907.498223 765.35346,893.744537 781.841313,893.744537 C798.329167,893.744537 808.603005,907.332516 808.603005,923.737516 L808.603005,923.903223 C808.603005,940.308223 798.246313,954.06191 781.675606,954.06191 Z M781.841313,939.811102 C788.303889,939.811102 792.446566,933.265673 792.446566,924.06893 L792.446566,923.903223 C792.446566,914.706481 788.055328,907.995345 781.675606,907.995345 C775.295884,907.995345 771.070354,914.45792 771.070354,923.737516 L771.070354,923.903223 C771.070354,933.182819 775.378737,939.811102 781.841313,939.811102 Z M5.17227273,1032.90196 L21.2458586,1032.90196 L21.2458586,1012.18858 L48.6703788,1012.18858 L48.6703788,998.849158 L21.2458586,998.849158 L21.2458586,988.989587 L51.5702525,988.989587 L51.5702525,974.904486 L5.17227273,974.904486 L5.17227273,1032.90196 Z M84.9602273,1033.97906 C101.448081,1033.97906 112.136187,1025.77656 112.136187,1007.05166 L112.136187,974.904486 L95.8140404,974.904486 L95.8140404,1007.54878 C95.8140404,1015.66843 91.5885101,1019.47969 85.1259343,1019.47969 C78.6633586,1019.47969 74.4378283,1015.50272 74.4378283,1007.13451 L74.4378283,974.904486 L58.1156818,974.904486 L58.1156818,1007.46593 C58.1156818,1025.61085 68.4723737,1033.97906 84.9602273,1033.97906 Z M121.664343,1032.90196 L165.825278,1032.90196 L165.825278,1018.81686 L137.737929,1018.81686 L137.737929,974.904486 L121.664343,974.904486 L121.664343,1032.90196 Z M200.623763,1034.06191 C213.466061,1034.06191 220.840025,1028.51072 226.308359,1020.97105 L214.211742,1012.35428 C210.731894,1016.57981 207.169192,1019.39683 201.120884,1019.39683 C193.001237,1019.39683 187.284343,1012.60284 187.284343,1003.90322 L187.284343,1003.73752 C187.284343,995.286456 193.001237,988.409612 201.120884,988.409612 C206.672071,988.409612 210.483333,991.060925 213.797475,995.203602 L225.894091,985.841153 C220.757172,978.715749 213.134646,973.744537 201.286591,973.744537 C183.721641,973.744537 170.713636,987.001102 170.713636,1003.90322 L170.713636,1004.06893 C170.713636,1021.38532 184.053056,1034.06191 200.623763,1034.06191 Z M233.185202,1032.90196 L233.185202,974.904486 L260.609722,974.904486 C269.475051,974.904486 275.606212,977.224385 279.500328,981.201355 C282.897323,984.515496 284.637247,988.989587 284.637247,994.706481 L284.637247,994.872188 C284.637247,1003.73752 279.914596,1009.62012 272.706338,1012.6857 L286.542879,1032.90196 L267.983687,1032.90196 L256.301338,1015.33701 L249.258788,1015.33701 L249.258788,1032.90196 L233.185202,1032.90196 Z M249.258788,1002.74327 L259.86404,1002.74327 C265.332374,1002.74327 268.480808,1000.09196 268.480808,995.86643 L268.480808,995.700723 C268.480808,991.143779 265.166667,988.82388 259.781187,988.82388 L249.258788,988.82388 L249.258788,1002.74327 Z M318.855758,1033.97906 C335.343611,1033.97906 346.031717,1025.77656 346.031717,1007.05166 L346.031717,974.904486 L329.709571,974.904486 L329.709571,1007.54878 C329.709571,1015.66843 325.48404,1019.47969 319.021465,1019.47969 C312.558889,1019.47969 308.333359,1015.50272 308.333359,1007.13451 L308.333359,974.904486 L292.011212,974.904486 L292.011212,1007.46593 C292.011212,1025.61085 302.367904,1033.97906 318.855758,1033.97906 Z M355.559874,1032.90196 L371.302045,1032.90196 L371.302045,999.760547 L386.049975,1022.29671 L386.381389,1022.29671 L401.212172,999.59484 L401.212172,1032.90196 L417.202904,1032.90196 L417.202904,974.904486 L400.217929,974.904486 L386.381389,997.357794 L372.544848,974.904486 L355.559874,974.904486 L355.559874,1032.90196 Z M450.427172,1032.90196 L494.588106,1032.90196 L494.588106,1018.81686 L466.500758,1018.81686 L466.500758,974.904486 L450.427172,974.904486 L450.427172,1032.90196 Z M530.629394,1034.06191 C512.73303,1034.06191 499.476465,1020.72249 499.476465,1004.06893 L499.476465,1003.90322 C499.476465,987.249663 512.898737,973.744537 530.795101,973.744537 C548.691465,973.744537 561.94803,987.083956 561.94803,1003.73752 L561.94803,1003.90322 C561.94803,1020.55678 548.525758,1034.06191 530.629394,1034.06191 Z M530.795101,1019.56254 C539.660429,1019.56254 545.54303,1012.43714 545.54303,1004.06893 L545.54303,1003.90322 C545.54303,995.535016 539.494722,988.243905 530.629394,988.243905 C521.846919,988.243905 515.964318,995.369309 515.964318,1003.73752 L515.964318,1003.90322 C515.964318,1012.27143 522.012626,1019.56254 530.795101,1019.56254 Z M596.415101,1033.97906 C612.902955,1033.97906 623.591061,1025.77656 623.591061,1007.05166 L623.591061,974.904486 L607.268914,974.904486 L607.268914,1007.54878 C607.268914,1015.66843 603.043384,1019.47969 596.580808,1019.47969 C590.118232,1019.47969 585.892702,1015.50272 585.892702,1007.13451 L585.892702,974.904486 L569.570556,974.904486 L569.570556,1007.46593 C569.570556,1025.61085 579.927247,1033.97906 596.415101,1033.97906 Z M633.119217,1032.90196 L649.027096,1032.90196 L649.027096,1001.0862 L673.800303,1032.90196 L687.885404,1032.90196 L687.885404,974.904486 L671.977525,974.904486 L671.977525,1005.56029 L648.115707,974.904486 L633.119217,974.904486 L633.119217,1032.90196 Z M727.737955,1034.06191 C738.260354,1034.06191 746.794268,1030.16779 752.925429,1025.11373 L752.925429,999.014865 L726.246591,999.014865 L726.246591,1010.78007 L737.680379,1010.78007 L737.680379,1017.82262 C735.277626,1019.39683 732.294899,1020.22537 728.400783,1020.22537 C719.20404,1020.22537 712.658611,1013.51423 712.658611,1004.15178 L712.658611,1003.98608 C712.658611,995.120749 719.121187,988.078198 727.489394,988.078198 C733.206288,988.078198 737.348965,990.066683 741.491641,993.546531 L750.936944,982.195597 C744.805783,976.892971 737.597525,973.744537 727.40654,973.744537 C709.427323,973.744537 696.170758,987.001102 696.170758,1003.90322 L696.170758,1004.06893 C696.170758,1021.63388 709.675884,1034.06191 727.737955,1034.06191 Z M761.873611,1032.90196 L808.934419,1032.90196 L808.934419,1019.23113 L777.78149,1019.23113 L777.78149,1010.03439 L805.620278,1010.03439 L805.620278,997.357794 L777.78149,997.357794 L777.78149,988.575319 L808.520152,988.575319 L808.520152,974.904486 L761.873611,974.904486 L761.873611,1032.90196 Z" id="C2000-Fulcrum-Lounge" fill="#57C7DF"></path>
                <path d="M1550.95126,586.548578 L1596.85212,586.548578 L1596.85212,573.45772 L1572.90745,573.45772 L1582.84987,566.498023 C1591.46664,560.284008 1596.27215,555.478503 1596.27215,546.198907 L1596.27215,546.0332 C1596.27215,535.096533 1587.57253,527.556861 1574.89593,527.556861 C1563.62785,527.556861 1557.49669,531.948099 1551.28268,539.984892 L1562.13649,549.015927 C1566.69343,543.796154 1569.75902,541.559109 1573.65313,541.559109 C1577.54725,541.559109 1580.11571,543.796154 1580.11571,547.44171 C1580.11571,550.921558 1578.04437,553.655725 1572.65889,557.881255 L1550.95126,574.451962 L1550.95126,586.548578 Z M1628.83359,587.708528 C1612.26288,587.708528 1602.07189,574.120548 1602.07189,557.715548 L1602.07189,557.549841 C1602.07189,541.144841 1612.51144,527.391154 1628.99929,527.391154 C1645.48715,527.391154 1655.76098,540.979134 1655.76098,557.384134 L1655.76098,557.549841 C1655.76098,573.954841 1645.40429,587.708528 1628.83359,587.708528 Z M1628.99929,573.45772 C1635.46187,573.45772 1639.60455,566.912291 1639.60455,557.715548 L1639.60455,557.549841 C1639.60455,548.353099 1635.21331,541.641962 1628.83359,541.641962 C1622.45386,541.641962 1618.22833,548.104538 1618.22833,557.384134 L1618.22833,557.549841 C1618.22833,566.829437 1622.53672,573.45772 1628.99929,573.45772 Z M1670.1775,586.548578 L1686.00253,586.548578 L1686.00253,528.136836 L1674.32018,528.136836 L1657.3352,532.942341 L1660.40078,545.370371 L1670.1775,543.133326 L1670.1775,586.548578 Z M1718.64682,587.708528 C1710.44432,587.708528 1705.05884,585.222922 1700.91616,581.080245 C1696.60778,576.771861 1693.79076,570.226432 1693.79076,559.372619 L1693.79076,559.206912 C1693.79076,541.144841 1702.57323,527.391154 1720.71816,527.391154 C1728.8378,527.391154 1734.47184,529.6282 1740.02303,533.770876 L1732.48336,545.121811 C1728.92066,542.470498 1725.60652,540.730573 1720.96672,540.730573 C1714.17273,540.730573 1710.77573,545.784639 1710.03005,553.07575 C1713.09563,550.755851 1716.82404,548.601659 1722.54093,548.601659 C1732.73192,548.601659 1741.6801,555.064235 1741.6801,566.66373 L1741.6801,566.829437 C1741.6801,579.837442 1731.32341,587.708528 1718.64682,587.708528 Z M1717.98399,575.197644 C1723.03806,575.197644 1726.02078,571.966356 1726.02078,567.740826 L1726.02078,567.575119 C1726.02078,563.432442 1722.87235,560.118301 1717.81828,560.118301 C1712.76422,560.118301 1709.78149,563.349589 1709.78149,567.492265 L1709.78149,567.657972 C1709.78149,571.883503 1712.92992,575.197644 1717.98399,575.197644 Z" id="2016" fill="#CFD3EB"></path>
                <path d="M636.805922,60 L682.70678,60 L682.70678,46.9091414 L658.762109,46.9091414 L668.704533,39.9494444 C677.321301,33.7354293 682.126806,28.9299242 682.126806,19.6503283 L682.126806,19.4846212 C682.126806,8.54795455 673.427184,1.00828283 660.750594,1.00828283 C649.482513,1.00828283 643.351351,5.3995202 637.137336,13.4363131 L647.991149,22.4673485 C652.548094,17.2475758 655.613674,15.0105303 659.507791,15.0105303 C663.401907,15.0105303 665.970366,17.2475758 665.970366,20.8931313 C665.970366,24.3729798 663.899028,27.1071465 658.513548,31.3326768 L636.805922,47.9033838 L636.805922,60 Z M714.688245,61.1599495 C698.117538,61.1599495 687.926553,47.5719697 687.926553,31.1669697 L687.926553,31.0012626 C687.926553,14.5962626 698.366099,0.842575758 714.853952,0.842575758 C731.341806,0.842575758 741.615644,14.4305556 741.615644,30.8355556 L741.615644,31.0012626 C741.615644,47.4062626 731.258952,61.1599495 714.688245,61.1599495 Z M714.853952,46.9091414 C721.316528,46.9091414 725.459205,40.3637121 725.459205,31.1669697 L725.459205,31.0012626 C725.459205,21.8045202 721.067967,15.0933838 714.688245,15.0933838 C708.308523,15.0933838 704.082992,21.5559596 704.082992,30.8355556 L704.082992,31.0012626 C704.082992,40.2808586 708.391376,46.9091414 714.853952,46.9091414 Z M768.294482,61.1599495 C781.219634,61.1599495 790.664937,53.6202778 790.664937,41.8550758 L790.664937,41.6893687 C790.664937,31.829798 783.953801,27.19 775.668447,25.3672222 L789.504987,13.5191667 L789.504987,2.00252525 L747.581098,2.00252525 L747.581098,15.0105303 L769.785846,15.0105303 L756.446427,27.0242929 L758.766326,35.3925 L765.560316,35.3925 C771.608624,35.3925 775.005619,37.6295455 775.005619,41.3579545 L775.005619,41.5236616 C775.005619,45.0863636 772.105745,47.4062626 767.548801,47.4062626 C762.246174,47.4062626 757.854937,45.0035101 753.71226,40.7779798 L743.604129,50.8861111 C749.238169,57.1001263 757.109255,61.1599495 768.294482,61.1599495 Z M820.575063,61.1599495 C812.372563,61.1599495 806.987083,58.6743434 802.844407,54.5316667 C798.536023,50.2232828 795.719002,43.6778535 795.719002,32.8240404 L795.719002,32.6583333 C795.719002,14.5962626 804.501477,0.842575758 822.646401,0.842575758 C830.766048,0.842575758 836.400088,3.07962121 841.951275,7.22229798 L834.411603,18.5732323 C830.848901,15.9219192 827.53476,14.1819949 822.894962,14.1819949 C816.100972,14.1819949 812.703977,19.2360606 811.958295,26.5271717 C815.023876,24.2072727 818.752285,22.0530808 824.469179,22.0530808 C834.660164,22.0530808 843.608346,28.5156566 843.608346,40.1151515 L843.608346,40.2808586 C843.608346,53.2888636 833.251654,61.1599495 820.575063,61.1599495 Z M819.912235,48.6490657 C824.9663,48.6490657 827.949028,45.4177778 827.949028,41.1922475 L827.949028,41.0265404 C827.949028,36.8838636 824.800593,33.5697222 819.746528,33.5697222 C814.692462,33.5697222 811.709735,36.8010101 811.709735,40.9436869 L811.709735,41.1093939 C811.709735,45.3349242 814.858169,48.6490657 819.912235,48.6490657 Z" id="2036" fill="#CFD3EB"></path>
                <path d="M574.092753,1149.61019 L619.993611,1149.61019 L619.993611,1136.51934 L596.048939,1136.51934 L605.991364,1129.55964 C614.608131,1123.34562 619.413636,1118.54012 619.413636,1109.26052 L619.413636,1109.09481 C619.413636,1098.15815 610.714015,1090.61848 598.037424,1090.61848 C586.769343,1090.61848 580.638182,1095.00971 574.424167,1103.04651 L585.27798,1112.07754 C589.834924,1106.85777 592.900505,1104.62072 596.794621,1104.62072 C600.688737,1104.62072 603.257197,1106.85777 603.257197,1110.50333 C603.257197,1113.98317 601.185859,1116.71734 595.800379,1120.94287 L574.092753,1137.51358 L574.092753,1149.61019 Z M651.975076,1150.77014 C635.404369,1150.77014 625.213384,1137.18216 625.213384,1120.77716 L625.213384,1120.61146 C625.213384,1104.20646 635.652929,1090.45277 652.140783,1090.45277 C668.628636,1090.45277 678.902475,1104.04075 678.902475,1120.44575 L678.902475,1120.61146 C678.902475,1137.01646 668.545783,1150.77014 651.975076,1150.77014 Z M652.140783,1136.51934 C658.603359,1136.51934 662.746035,1129.97391 662.746035,1120.77716 L662.746035,1120.61146 C662.746035,1111.41471 658.354798,1104.70358 651.975076,1104.70358 C645.595353,1104.70358 641.369823,1111.16615 641.369823,1120.44575 L641.369823,1120.61146 C641.369823,1129.89105 645.678207,1136.51934 652.140783,1136.51934 Z M693.31899,1149.61019 L709.144015,1149.61019 L709.144015,1091.19845 L697.461667,1091.19845 L680.476692,1096.00396 L683.542273,1108.43199 L693.31899,1106.19494 L693.31899,1149.61019 Z M739.71697,1150.77014 C752.642121,1150.77014 762.087424,1143.23047 762.087424,1131.46527 L762.087424,1131.29956 C762.087424,1121.43999 755.376288,1116.80019 747.090934,1114.97742 L760.927475,1103.12936 L760.927475,1091.61272 L719.003586,1091.61272 L719.003586,1104.62072 L741.208333,1104.62072 L727.868914,1116.63449 L730.188813,1125.00269 L736.982803,1125.00269 C743.031111,1125.00269 746.428106,1127.23974 746.428106,1130.96815 L746.428106,1131.13386 C746.428106,1134.69656 743.528232,1137.01646 738.971288,1137.01646 C733.668661,1137.01646 729.277424,1134.6137 725.134747,1130.38817 L715.026616,1140.4963 C720.660656,1146.71032 728.531742,1150.77014 739.71697,1150.77014 Z" id="2013" fill="#57C7DF"></path>
                <path d="M308.961439,1149.61019 L354.862298,1149.61019 L354.862298,1136.51934 L330.917626,1136.51934 L340.860051,1129.55964 C349.476818,1123.34562 354.282323,1118.54012 354.282323,1109.26052 L354.282323,1109.09481 C354.282323,1098.15815 345.582702,1090.61848 332.906111,1090.61848 C321.63803,1090.61848 315.506869,1095.00971 309.292854,1103.04651 L320.146667,1112.07754 C324.703611,1106.85777 327.769192,1104.62072 331.663308,1104.62072 C335.557424,1104.62072 338.125884,1106.85777 338.125884,1110.50333 C338.125884,1113.98317 336.054545,1116.71734 330.669066,1120.94287 L308.961439,1137.51358 L308.961439,1149.61019 Z M386.843763,1150.77014 C370.273056,1150.77014 360.082071,1137.18216 360.082071,1120.77716 L360.082071,1120.61146 C360.082071,1104.20646 370.521616,1090.45277 387.00947,1090.45277 C403.497323,1090.45277 413.771162,1104.04075 413.771162,1120.44575 L413.771162,1120.61146 C413.771162,1137.01646 403.41447,1150.77014 386.843763,1150.77014 Z M387.00947,1136.51934 C393.472045,1136.51934 397.614722,1129.97391 397.614722,1120.77716 L397.614722,1120.61146 C397.614722,1111.41471 393.223485,1104.70358 386.843763,1104.70358 C380.46404,1104.70358 376.23851,1111.16615 376.23851,1120.44575 L376.23851,1120.61146 C376.23851,1129.89105 380.546894,1136.51934 387.00947,1136.51934 Z M428.187677,1149.61019 L444.012702,1149.61019 L444.012702,1091.19845 L432.330353,1091.19845 L415.345379,1096.00396 L418.410959,1108.43199 L428.187677,1106.19494 L428.187677,1149.61019 Z M473.50856,1150.77014 C487.593661,1150.77014 497.453232,1143.06476 497.453232,1130.13961 L497.453232,1129.97391 C497.453232,1117.38017 488.007929,1111.58042 477.568384,1111.58042 C473.674268,1111.58042 470.940101,1112.40896 468.288788,1113.65176 L468.785909,1104.86928 L494.884773,1104.86928 L494.884773,1091.61272 L456.109318,1091.61272 L454.452247,1121.02572 L463.980404,1126.32835 C466.714571,1124.67128 469.697298,1123.42848 473.26,1123.42848 C478.314066,1123.42848 481.793914,1125.99694 481.793914,1130.13961 L481.793914,1130.30532 C481.793914,1134.448 478.562626,1137.09931 473.26,1137.09931 C468.371641,1137.09931 463.89755,1134.77941 459.174899,1130.80244 L449.978156,1141.5734 C456.026464,1147.20744 463.234722,1150.77014 473.50856,1150.77014 Z" id="2015" fill="#CFD3EB"></path>
                <path d="M162.760162,1360.85908 L208.661021,1360.85908 L208.661021,1347.76822 L184.716349,1347.76822 L194.658773,1340.80853 C203.275541,1334.59451 208.081046,1329.78901 208.081046,1320.50941 L208.081046,1320.3437 C208.081046,1309.40704 199.381425,1301.86737 186.704834,1301.86737 C175.436753,1301.86737 169.305592,1306.2586 163.091576,1314.2954 L173.94539,1323.32643 C178.502334,1318.10666 181.567915,1315.86961 185.462031,1315.86961 C189.356147,1315.86961 191.924607,1318.10666 191.924607,1321.75221 C191.924607,1325.23206 189.853268,1327.96623 184.467789,1332.19176 L162.760162,1348.76247 L162.760162,1360.85908 Z M240.642485,1362.01903 C224.071778,1362.01903 213.880794,1348.43105 213.880794,1332.02605 L213.880794,1331.86034 C213.880794,1315.45534 224.320339,1301.70166 240.808193,1301.70166 C257.296046,1301.70166 267.569884,1315.28964 267.569884,1331.69464 L267.569884,1331.86034 C267.569884,1348.26534 257.213193,1362.01903 240.642485,1362.01903 Z M240.808193,1347.76822 C247.270768,1347.76822 251.413445,1341.22279 251.413445,1332.02605 L251.413445,1331.86034 C251.413445,1322.6636 247.022208,1315.95247 240.642485,1315.95247 C234.262763,1315.95247 230.037233,1322.41504 230.037233,1331.69464 L230.037233,1331.86034 C230.037233,1341.13994 234.345617,1347.76822 240.808193,1347.76822 Z M281.9864,1360.85908 L297.811425,1360.85908 L297.811425,1302.44734 L286.129076,1302.44734 L269.144102,1307.25284 L272.209682,1319.68088 L281.9864,1317.44383 L281.9864,1360.85908 Z M307.339581,1360.85908 L325.070238,1360.85908 L350.67198,1314.95822 L350.67198,1302.86161 L306.013925,1302.86161 L306.013925,1316.36673 L332.85847,1316.36673 L307.339581,1360.85908 Z" id="2017" fill="#122442"></path>
                <path d="M418.079545,1176.17157 L418.079545,1267.29902" id="Path-22" stroke="#B5BADE" stroke-width="8.28535354"></path>
                <path d="M650.069444,1172.02941 L650.069444,1263.15686" id="Path-22-Copy-2" stroke="#57C7DF" stroke-width="8.28535354"></path>
                <path d="M820,960.779412 L952.484848,960.779412" id="Path-22-Copy" stroke="#57C7DF" stroke-width="8.28535354"></path>
                <path d="M857,561.411765 L1535.02358,561.411765" id="Path-22-Copy-4" stroke="#B5BADE" stroke-width="8.28535354"></path>
                <path d="M739.142677,434.367647 L739.142677,74" id="Path-22-Copy-5" stroke="#B5BADE" stroke-width="8.28535354"></path>
            </g>
            <g id="Group" transform="translate(101.000000, 143.000000)" fill="#FFFFFF">
                <path d="M61.0309009,140.112055 C92.3224532,140.112055 113.122132,124.466279 113.122132,98.1445613 L113.122132,97.7764254 C113.122132,73.6635233 94.7153367,64.0919897 65.0803959,57.6496112 C47.2258042,53.6001162 42.8081733,51.0231648 42.8081733,45.1329903 L42.8081733,44.7648544 C42.8081733,40.1631555 47.0417363,36.4817964 55.6929302,36.4817964 C67.1051434,36.4817964 79.9899002,40.8994273 91.7702494,49.1824853 L109.624841,23.9651754 C95.6356764,12.7370302 78.5173566,6.84685561 56.61327,6.84685561 C25.6898535,6.84685561 6.73085411,24.1492434 6.73085411,48.0780776 L6.73085411,48.4462135 C6.73085411,74.951999 27.898669,82.6828531 55.3247943,88.9411636 C72.81125,92.9906586 77.044813,95.9357459 77.044813,101.273717 L77.044813,101.641852 C77.044813,107.163891 71.8909102,110.477114 62.3193766,110.477114 C47.4098722,110.477114 33.2366397,105.139144 20.5359507,95.0154061 L0.656611596,118.760172 C16.4864557,132.933405 38.2064744,140.112055 61.0309009,140.112055 Z M140.42452,137.90324 L244.975118,137.90324 L244.975118,107.532027 L175.765567,107.532027 L175.765567,87.100484 L237.6124,87.100484 L237.6124,58.9380869 L175.765567,58.9380869 L175.765567,39.4268837 L244.054779,39.4268837 L244.054779,9.05567107 L140.42452,9.05567107 L140.42452,137.90324 Z M334.308407,140.480191 C362.83894,140.480191 379.220988,128.147638 391.369473,111.397454 L364.495552,92.2543868 C356.764698,101.641852 348.849776,107.900163 335.412815,107.900163 C317.374155,107.900163 304.673466,92.8065906 304.673466,73.4794554 L304.673466,73.1113195 C304.673466,54.336388 317.374155,39.0587478 335.412815,39.0587478 C347.745368,39.0587478 356.212494,44.9489223 363.575212,54.1523201 L390.449133,33.3526411 C379.03692,17.522797 362.102668,6.4787197 335.780951,6.4787197 C296.758544,6.4787197 267.859875,35.9295925 267.859875,73.4794554 L267.859875,73.8475913 C267.859875,112.317794 297.494816,140.480191 334.308407,140.480191 Z M477.757675,140.480191 C437.998996,140.480191 408.548123,110.84525 408.548123,73.8475913 L408.548123,73.4794554 C408.548123,36.4817964 438.367132,6.4787197 478.12581,6.4787197 C517.884489,6.4787197 547.335362,36.1136605 547.335362,73.1113195 L547.335362,73.4794554 C547.335362,110.477114 517.516353,140.480191 477.757675,140.480191 Z M478.12581,108.268299 C497.821082,108.268299 510.889906,92.4384547 510.889906,73.8475913 L510.889906,73.4794554 C510.889906,54.8885919 497.452946,38.6906118 477.757675,38.6906118 C458.246471,38.6906118 445.177647,54.520456 445.177647,73.1113195 L445.177647,73.4794554 C445.177647,92.0703188 458.614607,108.268299 478.12581,108.268299 Z M575.926225,137.90324 L611.267272,137.90324 L611.267272,67.2211449 L666.303591,137.90324 L697.595143,137.90324 L697.595143,9.05567107 L662.254096,9.05567107 L662.254096,77.1608145 L609.242525,9.05567107 L575.926225,9.05567107 L575.926225,137.90324 Z M730.41957,137.90324 L730.41957,9.05567107 L780.117918,9.05567107 C826.134906,9.05567107 852.82476,35.5614566 852.82476,72.7431835 L852.82476,73.1113195 C852.82476,110.293046 825.766771,137.90324 779.381646,137.90324 L730.41957,137.90324 Z M766.128753,106.243551 L780.670122,106.243551 C802.022004,106.243551 816.195237,94.4632022 816.195237,73.6635233 L816.195237,73.2953874 C816.195237,52.6797764 802.022004,40.7153594 780.670122,40.7153594 L766.128753,40.7153594 L766.128753,106.243551 Z M942.218379,137.90324 L977.927562,137.90324 L977.927562,91.8862509 L1038.85406,91.8862509 L1038.85406,62.2513101 L977.927562,62.2513101 L977.927562,40.3472234 L1045.29643,40.3472234 L1045.29643,9.05567107 L942.218379,9.05567107 L942.218379,137.90324 Z M1071.49441,137.90324 L1169.60263,137.90324 L1169.60263,106.611687 L1107.2036,106.611687 L1107.2036,9.05567107 L1071.49441,9.05567107 L1071.49441,137.90324 Z M1252.30948,140.480191 C1212.5508,140.480191 1183.09993,110.84525 1183.09993,73.8475913 L1183.09993,73.4794554 C1183.09993,36.4817964 1212.91893,6.4787197 1252.67761,6.4787197 C1292.43629,6.4787197 1321.88716,36.1136605 1321.88716,73.1113195 L1321.88716,73.4794554 C1321.88716,110.477114 1292.06815,140.480191 1252.30948,140.480191 Z M1252.67761,108.268299 C1272.37288,108.268299 1285.44171,92.4384547 1285.44171,73.8475913 L1285.44171,73.4794554 C1285.44171,54.8885919 1272.00475,38.6906118 1252.30948,38.6906118 C1232.79827,38.6906118 1219.72945,54.520456 1219.72945,73.1113195 L1219.72945,73.4794554 C1219.72945,92.0703188 1233.16641,108.268299 1252.67761,108.268299 Z M1415.26995,140.480191 C1375.51127,140.480191 1346.0604,110.84525 1346.0604,73.8475913 L1346.0604,73.4794554 C1346.0604,36.4817964 1375.8794,6.4787197 1415.63808,6.4787197 C1455.39676,6.4787197 1484.84763,36.1136605 1484.84763,73.1113195 L1484.84763,73.4794554 C1484.84763,110.477114 1455.02863,140.480191 1415.26995,140.480191 Z M1415.63808,108.268299 C1435.33335,108.268299 1448.40218,92.4384547 1448.40218,73.8475913 L1448.40218,73.4794554 C1448.40218,54.8885919 1434.96522,38.6906118 1415.26995,38.6906118 C1395.75874,38.6906118 1382.68992,54.520456 1382.68992,73.1113195 L1382.68992,73.4794554 C1382.68992,92.0703188 1396.12688,108.268299 1415.63808,108.268299 Z M1513.4385,137.90324 L1513.4385,9.05567107 L1574.36499,9.05567107 C1594.06026,9.05567107 1607.68129,14.2095738 1616.33248,23.0448357 C1623.87927,30.4075539 1627.7447,40.3472234 1627.7447,53.0479123 L1627.7447,53.4160483 C1627.7447,73.1113195 1617.25282,86.1801443 1601.23891,92.9906586 L1631.97826,137.90324 L1590.74704,137.90324 L1564.79346,98.8808332 L1549.14768,98.8808332 L1549.14768,137.90324 L1513.4385,137.90324 Z M1549.14768,70.902504 L1572.70838,70.902504 C1584.85686,70.902504 1591.85145,65.0123294 1591.85145,55.6248637 L1591.85145,55.2567278 C1591.85145,45.1329903 1584.48873,39.9790875 1572.52431,39.9790875 L1549.14768,39.9790875 L1549.14768,70.902504 Z" id="SECOND-FLOOR"></path>
                <path d="M1848.27884,0 C1854.29485,13.5537426 1860.30269,27.1156649 1866.33915,40.6694075 C1871.00964,51.1598571 1875.72103,61.6339472 1880.37925,72.1325765 C1880.915,73.3431702 1882.24417,75.0404554 1881.45076,75.7929867 C1880.56738,76.6314047 1879.05417,75.1222523 1877.90086,74.5251351 C1868.5926,69.7236584 1859.30888,64.8812833 1850.06606,59.9693808 C1848.49969,59.1391425 1847.23187,59.1391425 1845.66549,59.9693808 C1836.11594,65.0326075 1826.51322,70.0099475 1816.92686,75.0118265 C1816.38292,75.2981156 1815.83489,75.5884945 1815.26642,75.8257055 C1814.91879,75.9729399 1814.50164,76.3001274 1814.1581,75.9238617 C1813.84319,75.576225 1814.06813,75.1590609 1814.2358,74.7787054 C1815.68766,71.4577522 1817.1109,68.1286193 1818.57911,64.8158458 C1823.39683,53.936861 1828.21455,43.066056 1833.05272,32.2034307 C1837.19972,22.8990359 1841.37944,13.6069106 1845.5428,4.31069545 C1846.1808,2.87925009 1846.8188,1.43962504 1847.45271,0 L1848.27884,0 Z" id="Fill-1911"></path>
                <polygon id="N" points="1824.56489 138 1838.7013 138 1838.7013 109.727162 1860.71583 138 1873.23245 138 1873.23245 86.4609726 1859.09603 86.4609726 1859.09603 113.70303 1837.89141 86.4609726 1824.56489 86.4609726"></polygon>
            </g>
        </g>
    </g>
</svg>