<?xml version="1.0" encoding="UTF-8" standalone="no"?>
<svg width="2160px" height="2160px" viewBox="0 0 2160 2160" version="1.1" xmlns="http://www.w3.org/2000/svg" xmlns:xlink="http://www.w3.org/1999/xlink">
    <!-- Generator: Sketch 42 (36781) - http://www.bohemiancoding.com/sketch -->
    <title>eceb_fourthfloor copy</title>
    <desc>Created with Sketch.</desc>
    <defs></defs>
    <g id="New-Maps" stroke="none" stroke-width="1" fill="none" fill-rule="evenodd">
        <g id="eceb_fourthfloor-copy">
            <polygon id="Fill-1549" fill="#142442" points="0 2160 2160 2160 2160 0 0 0"></polygon>
            <g id="ECE_4th" transform="translate(234.000000, 647.000000)">
                <polyline id="Fill-320" fill="#212E60" points="1461.86424 236.366262 1189.83123 236.366262 1189.83123 215.311679 1162.21615 215.311679 1162.21615 130.741262 1183.95691 130.741262 1184.6446 101.054424 1156.34183 101.054424 366.080667 101.054424 366.080667 3.02613971 1547.4768 3.02613971 1547.4768 235.330723"></polyline>
                <polyline id="Fill-321" fill="#212E60" points="1363.47567 300.225895 1327.57523 300.225895 1324.89492 300.225895 1324.89492 283.313468 1220.03548 283.313468 1220.03548 300.225895 1187.66875 300.225895 1187.66875 283.313468 1120.09341 283.313468 1120.09341 300.225895 1089.71102 300.225895 1089.71102 283.313468 985.804398 283.313468 985.804398 300.225895 952.654698 300.225895 952.654698 283.313468 837.347433 283.313468 837.347433 300.225895 804.993128 300.225895 804.993128 283.313468 711.004077 283.313468 711.004077 301.953174 668.802629 301.953174 668.802629 283.313468 601.736835 283.313468 601.736835 301.953174 571.184593 301.953174 571.184593 283.313468 469.689013 283.313468 469.689013 300.917635 440.172441 300.917635 440.172441 283.313468 367.157763 283.313468 367.157763 300.569694 334.708176 300.569694 334.708176 283.313468 334.708176 281.370797 201.322269 281.370797 193.687316 281.370797 193.687316 338.582267 193.687316 517.084375 1361.92216 517.084375"></polyline>
                <polyline id="Fill-322" fill="#212E60" points="63.0169337 281.369968 154.590804 281.369968 193.685244 281.369968 193.685244 522.1784 67.1596105 522.1784 67.1596105 283.31264"></polyline>
                <polygon id="Fill-323" fill="#142442" points="154.849721 300.14098 192.821496 300.14098 192.821496 277.876887 154.849721 277.876887"></polygon>
                <polyline id="Fill-324" fill="#8088C3" points="1493.27402 282.012831 1401.70429 282.012831 1362.60985 282.012831 1362.60985 522.821262 1489.13134 522.821262 1489.13134 283.955502"></polyline>
                <polygon id="Fill-325" fill="#142442" points="1361.92216 300.783015 1399.89394 300.783015 1399.89394 278.518922 1361.92216 278.518922"></polygon>
                <polyline id="Fill-326" fill="#212E60" points="1037.75771 130.739191 1143.5741 130.739191 1143.5741 235.332794 1067.27428 235.332794 1067.27428 217.032745 945.413299 217.032745 945.413299 160.426029 1039.6592 160.426029"></polyline>
                <polyline id="Fill-327" fill="#142442" points="1156.94873 130.739191 1239.63242 130.739191 1239.63242 189.421127 1187.32284 189.421127 1187.32284 215.309608 1150.77614 215.309608"></polyline>
                <polyline id="Fill-328" fill="#212E60" points="648.346091 129.018125 701.343355 129.018125 701.343355 223.943934 666.122317 223.943934 666.122317 235.334865 649.899595 235.334865"></polyline>
                <polyline id="Fill-329" fill="#212E60" points="943.68166 155.422304 943.68166 133.162353 864.962516 133.162353 864.962516 235.332794 943.68166 235.332794"></polyline>
                <polygon id="Fill-330" fill="#212E60" points="777.286905 237.747672 864.962516 237.747672 864.962516 133.162353 777.286905 133.162353"></polygon>
                <polygon id="Fill-331" fill="#212E60" points="701.343355 237.747672 777.286905 237.747672 777.286905 133.162353 701.343355 133.162353"></polygon>
                <polygon id="Fill-331-Copy" fill="#FFE077" points="376.518111 235.332794 503 235.332794 503 193 539 193 539 235.332794 650.286905 235.332794 650.286905 133.162353 376.518111 133.162353"></polygon>
                <polyline id="Fill-332" fill="#212E60" points="270.324765 151.797917 270.324765 235.332794 309.680194 235.332794 316.068201 235.332794 316.068201 220.491446 309.162359 220.491446 309.680194 151.797917"></polyline>
                <polyline id="Fill-333" fill="#212E60" points="369.229101 99.6792279 369.229101 131.089203 309.678122 131.089203 309.678122 153.005355 271.532355 153.005355 271.532355 130.397463 261.175663 130.397463 149.671375 130.397463 149.671375 233.607586 3.29403409 233.607586 3.29403409 3.02613971 369.229101 3.02613971"></polyline>
                <polygon id="Fill-334" fill="#142442" points="1284.55353 243.012353 1409.52152 243.012353 1409.52152 131.343946 1284.55353 131.343946"></polygon>
                <polygon id="Fill-335" fill="#142442" points="143.41179 243.625392 268.379778 243.625392 268.379778 131.956985 143.41179 131.956985"></polygon>
                <polygon id="Stroke-336" stroke="#FFFFFF" stroke-width="12.4280303" points="1550.23582 0.263321078 1550.23582 236.366262 1461.86424 236.366262 1461.86424 283.309326 1486.7203 283.309326 1486.7203 518.032929 65.7821705 518.032929 65.7821705 279.167169 90.6382311 279.167169 90.6382311 234.986924 0.878853535 234.986924 0.878853535 0.263321078"></polygon>
                <path d="M0.880924874,118.142892 L70.4406105,118.142892" id="Stroke-337" stroke="#FFFFFF" stroke-width="4.14267677"></path>
                <path d="M133.616431,0.263321078 L133.616431,99.5011152" id="Stroke-338" stroke="#FFFFFF" stroke-width="4.14267677"></path>
                <path d="M251.164884,99.5031863 L251.164884,0.265392157" id="Stroke-339" stroke="#FFFFFF" stroke-width="4.14267677"></path>
                <path d="M367.675597,0.263321078 L367.675597,109.856507" id="Stroke-340" stroke="#FFFFFF" stroke-width="4.14267677"></path>
                <path d="M367.675597,99.5031863 L397.710004,99.5031863" id="Stroke-341" stroke="#FFFFFF" stroke-width="4.14267677"></path>
                <path d="M413.762876,99.5031863 L437.583268,99.5031863" id="Stroke-342" stroke="#FFFFFF" stroke-width="4.14267677"></path>
                <path d="M454.153975,99.5031863 L515.776292,99.5031863" id="Stroke-343" stroke="#FFFFFF" stroke-width="4.14267677"></path>
                <path d="M530.27566,99.5031863 L554.613886,99.5031863" id="Stroke-344" stroke="#FFFFFF" stroke-width="4.14267677"></path>
                <path d="M571.702428,99.5031863 L632.293218,99.5031863" id="Stroke-345" stroke="#FFFFFF" stroke-width="4.14267677"></path>
                <path d="M648.346091,99.5031863 L671.648648,99.5031863" id="Stroke-346" stroke="#FFFFFF" stroke-width="4.14267677"></path>
                <path d="M688.737189,99.5031863 L748.288168,99.5031863" id="Stroke-347" stroke="#FFFFFF" stroke-width="4.14267677"></path>
                <path d="M765.894544,99.5031863 L788.679266,99.5031863" id="Stroke-348" stroke="#FFFFFF" stroke-width="4.14267677"></path>
                <path d="M806.803477,99.5031863 L865.836621,99.5031863" id="Stroke-349" stroke="#FFFFFF" stroke-width="4.14267677"></path>
                <path d="M883.442997,99.5031863 L905.709885,99.5031863" id="Stroke-350" stroke="#FFFFFF" stroke-width="4.14267677"></path>
                <path d="M921.244923,99.5031863 L983.385074,99.5031863" id="Stroke-351" stroke="#FFFFFF" stroke-width="4.14267677"></path>
                <path d="M998.920112,99.5031863 L1022.22267,99.5031863" id="Stroke-352" stroke="#FFFFFF" stroke-width="4.14267677"></path>
                <path d="M1039.82905,99.5031863 L1098.86219,99.5031863" id="Stroke-353" stroke="#FFFFFF" stroke-width="4.14267677"></path>
                <path d="M1115.95073,99.5031863 L1139.77112,99.5031863" id="Stroke-354" stroke="#FFFFFF" stroke-width="4.14267677"></path>
                <path d="M1156.34183,99.5031863 L1186.37624,99.5031863" id="Stroke-355" stroke="#FFFFFF" stroke-width="4.14267677"></path>
                <path d="M1186.37624,0.263321078 L1186.37624,110.892047" id="Stroke-356" stroke="#FFFFFF" stroke-width="4.14267677"></path>
                <path d="M1127.86093,99.5031863 L1127.86093,0.265392157" id="Stroke-357" stroke="#FFFFFF" stroke-width="4.14267677"></path>
                <path d="M1069.34562,99.5031863 L1069.34562,0.265392157" id="Stroke-358" stroke="#FFFFFF" stroke-width="4.14267677"></path>
                <path d="M1010.57139,99.5031863 L1010.57139,0.265392157" id="Stroke-359" stroke="#FFFFFF" stroke-width="4.14267677"></path>
                <path d="M952.314999,99.5031863 L952.314999,0.265392157" id="Stroke-360" stroke="#FFFFFF" stroke-width="4.14267677"></path>
                <path d="M894.576441,99.5031863 L894.576441,0.265392157" id="Stroke-361" stroke="#FFFFFF" stroke-width="4.14267677"></path>
                <path d="M836.320049,99.5031863 L836.320049,0.265392157" id="Stroke-362" stroke="#FFFFFF" stroke-width="4.14267677"></path>
                <path d="M777.286905,99.5031863 L777.286905,0.265392157" id="Stroke-363" stroke="#FFFFFF" stroke-width="4.14267677"></path>
                <path d="M718.512679,99.5031863 L718.512679,0.265392157" id="Stroke-364" stroke="#FFFFFF" stroke-width="4.14267677"></path>
                <path d="M659.997369,99.5031863 L659.997369,0.265392157" id="Stroke-365" stroke="#FFFFFF" stroke-width="4.14267677"></path>
                <path d="M601.995752,99.5031863 L601.995752,0.265392157" id="Stroke-366" stroke="#FFFFFF" stroke-width="4.14267677"></path>
                <path d="M542.444773,99.5031863 L542.444773,0.265392157" id="Stroke-367" stroke="#FFFFFF" stroke-width="4.14267677"></path>
                <path d="M484.965133,99.5031863 L484.965133,0.265392157" id="Stroke-368" stroke="#FFFFFF" stroke-width="4.14267677"></path>
                <path d="M425.673072,99.5031863 L425.673072,0.265392157" id="Stroke-369" stroke="#FFFFFF" stroke-width="4.14267677"></path>
                <path d="M1303.92469,0.263321078 L1303.92469,99.5011152" id="Stroke-370" stroke="#FFFFFF" stroke-width="4.14267677"></path>
                <path d="M1420.43747,0.263321078 L1420.43747,99.5011152" id="Stroke-371" stroke="#FFFFFF" stroke-width="4.14267677"></path>
                <path d="M1483.61329,117.107353 L1550.23582,117.107353" id="Stroke-372" stroke="#FFFFFF" stroke-width="4.14267677"></path>
                <polyline id="Stroke-373" stroke="#FFFFFF" stroke-width="4.14267677" points="1461.86424 283.311397 1398.68842 283.311397 1398.68842 301.951103 1394.02791 301.951103"></polyline>
                <path d="M1361.92216,283.311397 L1361.92216,518.030858" id="Stroke-374" stroke="#FFFFFF" stroke-width="4.14267677"></path>
                <polyline id="Stroke-375" stroke="#FFFFFF" stroke-width="4.14267677" points="1330.33425 301.951103 1324.89906 301.951103 1324.89906 283.311397 1220.03548 283.311397 1220.03548 301.951103 1214.08246 301.951103"></polyline>
                <polyline id="Stroke-376" stroke="#FFFFFF" stroke-width="4.14267677" points="1187.67082 306.869914 1187.67082 283.313468 1120.09548 283.313468 1120.09548 301.953174 1128.11984 301.953174 1128.11984 306.869914"></polyline>
                <path d="M1128.37876,329.134007 L1128.37876,518.032929" id="Stroke-377" stroke="#FFFFFF" stroke-width="4.14267677"></path>
                <path d="M1186.63515,518.030858 L1186.63515,329.131936" id="Stroke-378" stroke="#FFFFFF" stroke-width="4.14267677"></path>
                <polyline id="Stroke-379" stroke="#FFFFFF" stroke-width="4.14267677" points="1095.23735 301.951103 1089.71102 301.951103 1089.71102 283.311397 985.804398 283.311397 985.804398 301.951103 980.278067 301.951103"></polyline>
                <path d="M952.654698,518.030858 L952.654698,283.311397" id="Stroke-380" stroke="#FFFFFF" stroke-width="4.14267677"></path>
                <polyline id="Stroke-381" stroke="#FFFFFF" stroke-width="4.14267677" points="931.59333 283.311397 864.962516 283.311397 837.347433 283.311397 837.347433 301.951103 831.133418 301.951103"></polyline>
                <polyline id="Stroke-382" stroke="#FFFFFF" stroke-width="4.14267677" points="952.654698 431.047635 864.962516 431.047635 864.962516 283.309326"></polyline>
                <polyline id="Stroke-383" stroke="#FFFFFF" stroke-width="4.14267677" points="804.991056 301.951103 804.991056 283.311397 711.006148 283.311397 711.006148 302.986642"></polyline>
                <polyline id="Stroke-384" stroke="#FFFFFF" stroke-width="4.14267677" points="668.800557 302.986642 668.800557 283.311397 601.738906 283.311397 601.738906 518.030858"></polyline>
                <path d="M426.449824,518.030858 L426.449824,329.649706" id="Stroke-385" stroke="#FFFFFF" stroke-width="4.14267677"></path>
                <polyline id="Stroke-386" stroke="#FFFFFF" stroke-width="4.14267677" points="573.773766 302.468873 569.113255 302.468873 569.113255 283.311397 469.689013 283.311397 469.689013 302.468873 464.253821 302.468873"></polyline>
                <polyline id="Stroke-387" stroke="#FFFFFF" stroke-width="4.14267677" points="440.172441 302.468873 440.172441 283.311397 367.157763 283.311397 367.157763 306.867843"></polyline>
                <path d="M367.157763,329.651777 L367.157763,518.032929" id="Stroke-388" stroke="#FFFFFF" stroke-width="4.14267677"></path>
                <polyline id="Stroke-389" stroke="#FFFFFF" stroke-width="4.14267677" points="339.886521 302.468873 334.708176 302.468873 334.708176 283.311397 242.533617 283.311397 242.533617 302.468873"></polyline>
                <path d="M191.783756,518.030858 L191.783756,331.294142" id="Stroke-390" stroke="#FFFFFF" stroke-width="4.14267677"></path>
                <path d="M202.832275,283.311397 L182.810718,283.311397" id="Stroke-391" stroke="#FFFFFF" stroke-width="4.14267677"></path>
                <polyline id="Stroke-392" stroke="#FFFFFF" stroke-width="4.14267677" points="157.260759 302.468873 153.118082 302.468873 153.118082 283.311397 90.9779306 283.311397 90.9779306 280.548578"></polyline>
                <path d="M191.783756,314.636458 L191.783756,283.313468" id="Stroke-393" stroke="#FFFFFF" stroke-width="4.14267677"></path>
                <polyline id="Stroke-394" stroke="#FFFFFF" stroke-width="4.14267677" points="659.997369 131.087132 309.680194 131.087132 309.680194 151.797917 270.324765 151.797917 270.324765 131.087132 259.450238 131.087132"></polyline>
                <polyline id="Stroke-395" stroke="#FFFFFF" stroke-width="4.14267677" points="472.108336 192.875686 507.669073 192.875686 558.416864 192.875686"></polyline>
                <path d="M507.669073,131.087132 L507.669073,192.875686" id="Stroke-396" stroke="#FFFFFF" stroke-width="4.14267677"></path>
                <polyline id="Stroke-397" stroke="#FFFFFF" stroke-width="4.14267677" points="538.043179 212.550931 538.043179 235.332794 666.122317 235.332794 666.122317 221.526985 679.246317 221.526985"></polyline>
                <polyline id="Stroke-398" stroke="#FFFFFF" stroke-width="4.14267677" points="649.899595 131.087132 649.899595 161.98348 649.899595 235.332794"></polyline>
                <path d="M649.899595,160.084301 L701.343355,160.084301" id="Stroke-399" stroke="#FFFFFF" stroke-width="4.14267677"></path>
                <polyline id="Stroke-400" stroke="#FFFFFF" stroke-width="4.14267677" points="693.745686 131.087132 701.343355 131.087132 701.343355 235.332794 748.288168 235.332794"></polyline>
                <path d="M695.817024,221.872855 L701.343355,221.872855" id="Stroke-401" stroke="#FFFFFF" stroke-width="4.14267677"></path>
                <path d="M765.894544,235.332794 L836.320049,235.332794" id="Stroke-402" stroke="#FFFFFF" stroke-width="4.14267677"></path>
                <polyline id="Stroke-403" stroke="#FFFFFF" stroke-width="4.14267677" points="852.890756 235.332794 943.68166 235.332794 943.68166 153.181397"></polyline>
                <polyline id="Stroke-404" stroke="#FFFFFF" stroke-width="4.14267677" points="701.343355 133.162353 864.962516 133.162353 943.68166 133.162353"></polyline>
                <path d="M864.962516,235.332794 L864.962516,133.162353" id="Stroke-405" stroke="#FFFFFF" stroke-width="4.14267677"></path>
                <path d="M777.286905,235.332794 L777.286905,133.162353" id="Stroke-406" stroke="#FFFFFF" stroke-width="4.14267677"></path>
                <polyline id="Stroke-407" stroke="#FFFFFF" stroke-width="4.14267677" points="504.214081 212.550931 504.214081 235.332794 375.443116 235.332794 375.443116 219.107966 364.050755 219.107966"></polyline>
                <path d="M223.895715,233.609657 L286.379708,233.609657" id="Stroke-408" stroke="#FFFFFF" stroke-width="4.14267677"></path>
                <polyline id="Stroke-409" stroke="#FFFFFF" stroke-width="4.14267677" points="302.606573 233.609657 316.070273 233.609657 316.070273 220.491446 336.783657 220.491446"></polyline>
                <polyline id="Stroke-410" stroke="#FFFFFF" stroke-width="4.14267677" points="309.680194 151.797917 309.680194 220.491446 316.068201 220.491446"></polyline>
                <path d="M270.324765,151.797917 L270.324765,233.609657" id="Stroke-411" stroke="#FFFFFF" stroke-width="4.14267677"></path>
                <path d="M94.7809078,233.609657 L204.561842,233.609657" id="Stroke-412" stroke="#FFFFFF" stroke-width="4.14267677"></path>
                <path d="M375.443116,219.110037 L375.443116,131.089203" id="Stroke-413" stroke="#FFFFFF" stroke-width="4.14267677"></path>
                <g id="Group-452" transform="translate(319.655303, 130.450980)">
                    <path d="M126.99007,58.3049167 L126.99007,78.0464363 C126.99007,78.5145 126.981785,78.9784216 126.80365,79.4216324 C126.260959,80.7719755 124.740597,81.4015833 123.315516,80.8672451 C122.271561,80.4820245 121.658445,79.6080294 121.641874,78.4150882 C121.625304,77.4623922 121.641874,76.5096961 121.641874,75.5528578 C121.641874,71.2408725 121.641874,66.9371716 121.65016,62.6251863 C121.65016,60.1316078 121.675016,57.6421716 121.683301,55.1485931 C121.691586,54.9621961 121.683301,54.775799 121.633589,54.5935441 C121.546593,54.2124657 121.252463,53.9763627 120.863051,53.9473676 C120.411499,53.9183725 120.113227,54.0964853 119.951662,54.4941324 C119.860523,54.7136667 119.868809,54.9456275 119.868809,55.1817304 L119.868809,78.2369755 C119.868809,78.9659951 119.765242,79.6535931 119.263978,80.2252108 C118.534867,81.0619265 117.582051,81.314598 116.546382,81.0867794 C115.485857,80.8589608 114.827171,80.1423676 114.520613,79.1192549 C114.417046,78.7878824 114.367334,78.4399412 114.367334,78.0837157 C114.367334,72.7610441 114.334193,67.4425147 114.383905,62.1239853 C114.458473,54.2124657 114.408761,46.3092304 114.433617,38.3977108 C114.433617,37.8053824 114.272052,37.5444265 113.816358,37.4077353 C113.281953,37.242049 112.693693,37.4325882 112.407848,37.8468039 C112.329137,37.9669265 112.320852,38.1036176 112.320852,38.2403088 C112.329137,41.0735441 112.320852,43.9026373 112.329137,46.7358725 C112.337422,48.8152353 112.370564,50.8987402 112.370564,52.9822451 C112.378849,53.8272451 112.03915,54.4982745 111.210614,54.8503578 C110.485646,55.1568775 109.603256,54.987049 109.043994,54.4361422 C108.687724,54.0923431 108.534445,53.6698431 108.534445,53.1852108 C108.54273,47.8501127 108.559301,42.5108725 108.54273,37.1799167 C108.534445,35.7550147 108.841003,34.4253824 109.603256,33.2241569 C110.945483,31.115799 112.863542,29.8855784 115.369862,29.8234461 C118.584579,29.7406029 121.795153,29.7571716 125.005728,29.8110196 C128.348868,29.873152 131.43102,32.4330049 132.234699,35.6721716 C132.421119,36.4260441 132.49983,37.1757745 132.49983,37.9503578 C132.491545,42.9333725 132.49983,47.9205294 132.49983,52.9035441 C132.49983,53.9432255 132.073134,54.5562647 131.174174,54.8420735 C129.97694,55.2272941 128.841847,54.4444265 128.771421,53.2017794 C128.75485,53.0568039 128.763136,52.9159706 128.763136,52.7792794 C128.763136,47.9453824 128.746565,43.1114853 128.779706,38.2817304 C128.779706,37.5568529 128.137592,37.2544755 127.636328,37.374598 C127.193061,37.4864363 126.99007,37.7142549 126.99007,38.1823186 L126.99007,58.3049167 Z" id="Fill-414" fill="#A8770A"></path>
                    <path d="M120.387886,17.9917892 C123.155194,17.9835049 125.404668,20.2409804 125.388097,23.0535049 C125.371526,25.8246078 123.24219,28.073799 120.379601,28.073799 C117.570866,28.073799 115.395961,25.961299 115.362819,23.0659314 C115.329678,20.1829902 117.54601,18.0332108 120.387886,17.9917892" id="Fill-416" fill="#A8770A"></path>
                    <path d="M287.126483,70.8453799 C287.126483,73.5750613 287.134769,76.3006005 287.126483,79.0302819 C287.126483,79.8628554 286.815783,80.5463113 286.061815,80.9729534 C285.278849,81.4203064 284.458599,81.436875 283.667348,81.0309436 C282.867812,80.6250123 282.503256,79.9208456 282.494971,79.0427083 L282.494971,63.0664093 C282.494971,62.9131495 282.494971,62.7640319 282.4784,62.6149142 C282.420403,62.1717034 282.113844,61.9024632 281.707862,61.9190319 C281.23974,61.9397426 280.949752,62.2296936 280.933182,62.689473 C280.924896,62.8178799 280.924896,62.9462868 280.924896,63.0746936 L280.924896,78.8066054 C280.924896,79.5977574 280.779903,80.3433456 280.100504,80.856973 C279.288539,81.4617279 278.410291,81.5197181 277.503045,81.1137868 C276.604084,80.7161397 276.280956,79.9291299 276.239529,79.0012868 C276.231243,78.8521691 276.239529,78.6989093 276.239529,78.5456495 C276.239529,73.2229779 276.231243,67.8961642 276.231243,62.5693505 C276.231243,62.0391544 276.231243,62.0391544 275.688553,62.0391544 C273.778779,62.0350123 271.860719,62.0391544 269.946803,62.0350123 C269.54082,62.0350123 269.532535,62.0308701 269.644387,61.6539338 C270.129081,60.046777 270.634487,58.4396201 271.11918,56.8283211 C271.848291,54.4672917 272.564974,52.1062623 273.2858,49.7452328 C273.894774,47.7735662 274.50789,45.8018995 275.116863,43.8302328 C275.721694,41.8461397 276.330668,39.8620466 276.927213,37.8738113 C277.072207,37.3767525 276.869216,36.9459681 276.434235,36.7927083 C275.982683,36.6353064 275.543559,36.8506985 275.373709,37.364326 C275.009154,38.4412868 274.669454,39.5223897 274.321469,40.6076348 C273.45565,43.2917525 272.589831,45.9717279 271.732296,48.6558456 C271.359456,49.803223 270.9949,50.9506005 270.634487,52.1021201 C270.253361,53.3033456 269.288117,53.7589828 268.148881,53.261924 C267.341059,52.9056985 266.959933,52.0524142 267.233349,51.174277 C268.012173,48.6268505 268.803424,46.079424 269.582247,43.5278554 C270.501921,40.5372181 271.417453,37.5424387 272.324699,34.5435172 C273.020669,32.2239093 275.025724,30.5463358 277.411906,30.2978064 C277.817889,30.2563848 278.223871,30.2398162 278.625711,30.2398162 C281.248025,30.2439583 283.870339,30.235674 286.500939,30.2481005 C287.917735,30.2522426 289.239248,30.6167525 290.378485,31.5321691 C291.472151,32.4103064 292.126694,33.5452574 292.49125,34.883174 C293.43578,38.4247181 294.401024,41.9579779 295.353839,45.4995221 C295.89653,47.4753309 296.439221,49.459424 296.965341,51.439375 C297.230472,52.4334926 296.497218,53.4566054 295.47812,53.5394485 C294.463164,53.630576 293.79205,53.1915074 293.518634,52.2098162 C292.727382,49.4469975 291.956844,46.6758946 291.182164,43.9047917 C290.676757,42.1319485 290.167208,40.3591054 289.665944,38.5862623 C289.545807,38.1471936 289.433954,37.7122672 289.301389,37.2773407 C289.16468,36.8341299 288.80841,36.6435907 288.39,36.7637132 C287.967447,36.8879779 287.75617,37.2359191 287.872165,37.6791299 C288.45214,40.0401593 289.052828,42.4053309 289.649373,44.7622181 C290.316344,47.3842034 290.987458,50.0020466 291.650286,52.6198897 C292.424967,55.6892279 293.20379,58.754424 293.986756,61.8196201 C294.077895,62.1427083 293.891474,62.1095711 293.696769,62.1054289 C291.683428,62.1054289 289.657659,62.1012868 287.644318,62.0971446 C287.134769,62.0971446 287.134769,62.1012868 287.134769,62.5983456 L287.134769,70.8453799 L287.126483,70.8453799 Z" id="Fill-418" fill="#A8770A"></path>
                    <path d="M277.340238,23.3116446 C277.298811,20.5695368 279.477859,18.2126495 282.390161,18.2085074 C285.285892,18.2085074 287.514652,20.5529681 287.481511,23.3986299 C287.448369,26.1821593 285.165754,28.4851985 282.35702,28.4562034 C279.606282,28.4272083 277.273955,26.1614485 277.340238,23.3116446" id="Fill-420" fill="#A8770A"></path>
                    <path d="M7.92871124,47.7854951 C7.29073902,48.5435098 6.69005088,49.3305196 6.00236654,50.0429706 C4.77199154,51.3187549 3.32205467,51.6791225 1.83483371,50.5441716 C0.513319823,49.5376275 0.136336237,47.9967451 1.01872639,46.6712549 C3.66175417,42.6906422 6.69833624,38.9668431 10.161614,35.6821127 C11.8849676,34.0418186 13.69946,35.1933382 15.0416872,36.7715 C17.6391456,39.8159853 20.1951771,42.8936078 22.7677794,45.9588039 C23.1737617,46.4475784 23.5466027,47.5701029 24.0644372,47.2594412 C27.4200054,45.2256422 29.0646481,47.8973333 31.4011178,50.2252255 C31.4011178,46.5594167 31.4094032,43.4900784 31.3928324,40.4248824 C31.3845471,37.8650294 31.475686,35.2844657 34.8229688,34.9572353 C37.2257213,34.7294167 38.4063842,36.692799 38.4229549,40.5947108 C38.4395256,43.5812059 38.4312403,46.5759853 38.4312403,50.1133873 C39.6201885,48.9784363 40.4155824,48.1127255 41.3145433,47.3795637 C42.5987731,46.3440245 44.0321393,46.2984608 45.279085,47.3754216 C46.5136027,48.4523824 46.8408741,50.0098333 45.8342037,51.2814755 C43.0130408,54.8478725 40.1463085,58.4018431 37.0144448,61.6948578 C35.2703779,63.5339755 33.2860357,62.5895637 31.8360989,60.8705686 C29.1847857,57.7225294 26.6370395,54.5082157 24.0064398,51.3394657 C23.6418842,50.9003971 23.5134612,49.5873333 22.8423476,50.1382402 C19.7560534,52.693951 18.1404095,49.7737304 15.6299473,47.9594657 L15.6299473,57.0515 C15.6299473,58.2775784 15.6133766,59.4995147 15.058258,60.6386078 C14.3291468,62.1049314 13.1236279,62.7925294 11.5369827,62.6144167 C9.57749659,62.3948824 8.56668346,61.06525 8.40511907,59.2509853 C8.07370492,55.4981912 8.12341705,51.7329706 7.92871124,47.7854951" id="Fill-422" fill="#FFFFFF"></path>
                    <path d="M878.865604,30.5251275 C878.227632,31.2831422 877.626944,32.070152 876.93926,32.7826029 C875.708885,34.0583873 874.26309,34.4187549 872.771727,33.2838039 C871.454356,32.2772598 871.073229,30.7363775 871.955619,29.4108873 C874.60279,25.4302745 877.635229,21.7064755 881.098507,18.4217451 C882.821861,16.781451 884.636353,17.9329706 885.97858,19.5111324 C888.576039,22.5556176 891.13207,25.6332402 893.704672,28.6984363 C894.110655,29.1872108 894.483496,30.3097353 895.00133,29.9990735 C898.356898,27.9652745 900.001541,30.6369657 902.338011,32.9648578 C902.338011,29.299049 902.346296,26.2297108 902.329726,23.1645147 C902.32144,20.6046618 902.412579,18.024098 905.759862,17.6968676 C908.162614,17.469049 909.343277,19.4324314 909.359848,23.3343431 C909.376419,26.3208382 909.368133,29.3156176 909.368133,32.8530196 C910.557082,31.7180686 911.352476,30.8523578 912.251436,30.1191961 C913.535666,29.0836569 914.969032,29.0380931 916.215978,30.1150539 C917.450496,31.1920147 917.777767,32.7494657 916.771097,34.0211078 C913.949934,37.5875049 911.083202,41.1414755 907.951338,44.4344902 C906.207271,46.2736078 904.222929,45.3291961 902.772992,43.610201 C900.121679,40.4621618 897.573933,37.247848 894.943333,34.079098 C894.578777,33.6400294 894.450354,32.3269657 893.779241,32.8778725 C890.692946,35.4335833 889.077303,32.5133627 886.56684,30.699098 L886.56684,39.7911324 C886.56684,41.0172108 886.55027,42.2391471 885.995151,43.3782402 C885.26604,44.8445637 884.060521,45.5321618 882.473876,45.354049 C880.51439,45.1345147 879.503577,43.8048824 879.342012,41.9906176 C879.010598,38.2378235 879.06031,34.4726029 878.865604,30.5251275" id="Fill-424" fill="#FFFFFF"></path>
                    <path d="M624.026357,31.5304289 L638.881996,31.5304289" id="Stroke-426" stroke="#FFFFFF" stroke-width="4.14267677"></path>
                    <path d="M624.026357,84.8586275 L652.685395,84.8586275" id="Stroke-428" stroke="#FFFFFF" stroke-width="4.14267677"></path>
                    <polyline id="Stroke-430" stroke="#FFFFFF" stroke-width="4.14267677" points="669.256102 84.8586275 719.655908 84.8586275 747.618976 84.8586275 747.618976 104.881814 821.847458 104.881814 821.847458 0.288210784 775.582044 0.288210784 775.582044 104.881814"></polyline>
                    <polyline id="Stroke-432" stroke="#FFFFFF" stroke-width="4.14267677" points="755.56463 2.71137255 720.173742 2.71137255 720.173742 84.8586275"></polyline>
                    <polyline id="Stroke-434" stroke="#FFFFFF" stroke-width="4.14267677" points="842.560842 0.288210784 921.271701 0.288210784 921.271701 104.881814 944.744107 104.881814"></polyline>
                    <polyline id="Stroke-436" stroke="#FFFFFF" stroke-width="4.14267677" points="868.01552 104.881814 869.825869 104.881814 921.269629 104.881814"></polyline>
                    <polyline id="Stroke-438" stroke="#FFFFFF" stroke-width="4.14267677" points="870.175926 104.881814 870.175926 84.8586275 842.560842 84.8586275"></polyline>
                    <path d="M870.175926,0.288210784 L870.175926,17.6231373" id="Stroke-440" stroke="#FFFFFF" stroke-width="4.14267677"></path>
                    <polyline id="Stroke-442" stroke="#FFFFFF" stroke-width="4.14267677" points="870.175926 41.7139216 870.175926 60.0098284 870.175926 65.8751225"></polyline>
                    <path d="M921.271701,58.9722181 L870.175926,58.9722181" id="Stroke-444" stroke="#FFFFFF" stroke-width="4.14267677"></path>
                    <path d="M921.271701,22.0366054 L964.769807,22.0366054" id="Stroke-446" stroke="#FFFFFF" stroke-width="4.14267677"></path>
                    <polyline id="Stroke-448" stroke="#FFFFFF" stroke-width="4.14267677" points="971.323521 0.288210784 964.769807 0.288210784 964.769807 104.881814 1006.88426 104.881814"></polyline>
                    <path d="M1026.21399,104.881814 L1138.41425,104.881814" id="Stroke-450" stroke="#FFFFFF" stroke-width="4.14267677"></path>
                </g>
                <path d="M1332.8536,663 L1332.8536,651.731919 L1304.76625,651.731919 L1302.11494,640.380985 L1332.19077,604.588258 L1348.43006,604.588258 L1348.43006,639.718157 L1355.80403,639.718157 L1355.80403,651.731919 L1348.43006,651.731919 L1348.43006,663 L1332.8536,663 Z M1319.01706,639.80101 L1332.8536,639.80101 L1332.8536,623.147449 L1319.01706,639.80101 Z M1388.28261,664.159949 C1371.71191,664.159949 1361.52092,650.57197 1361.52092,634.16697 L1361.52092,634.001263 C1361.52092,617.596263 1371.96047,603.842576 1388.44832,603.842576 C1404.93617,603.842576 1415.21001,617.430556 1415.21001,633.835556 L1415.21001,634.001263 C1415.21001,650.406263 1404.85332,664.159949 1388.28261,664.159949 Z M1388.44832,649.909141 C1394.9109,649.909141 1399.05357,643.363712 1399.05357,634.16697 L1399.05357,634.001263 C1399.05357,624.80452 1394.66234,618.093384 1388.28261,618.093384 C1381.90289,618.093384 1377.67736,624.55596 1377.67736,633.835556 L1377.67736,634.001263 C1377.67736,643.280859 1381.98574,649.909141 1388.44832,649.909141 Z M1423.74393,663 L1441.47458,663 L1467.07633,617.099141 L1467.07633,605.002525 L1422.41827,605.002525 L1422.41827,618.507652 L1449.26282,618.507652 L1423.74393,663 Z M1499.63777,664.159949 C1483.06706,664.159949 1472.87607,650.57197 1472.87607,634.16697 L1472.87607,634.001263 C1472.87607,617.596263 1483.31562,603.842576 1499.80347,603.842576 C1516.29133,603.842576 1526.56516,617.430556 1526.56516,633.835556 L1526.56516,634.001263 C1526.56516,650.406263 1516.20847,664.159949 1499.63777,664.159949 Z M1499.80347,649.909141 C1506.26605,649.909141 1510.40872,643.363712 1510.40872,634.16697 L1510.40872,634.001263 C1510.40872,624.80452 1506.01749,618.093384 1499.63777,618.093384 C1493.25804,618.093384 1489.03251,624.55596 1489.03251,633.835556 L1489.03251,634.001263 C1489.03251,643.280859 1493.3409,649.909141 1499.80347,649.909141 Z M1161.67819,765.036807 C1175.7633,765.036807 1185.12574,757.994257 1185.12574,746.146201 L1185.12574,745.980494 C1185.12574,735.126681 1176.84039,730.818297 1163.50097,727.918423 C1155.46418,726.095646 1153.47569,724.935696 1153.47569,722.284383 L1153.47569,722.118676 C1153.47569,720.047338 1155.38133,718.390267 1159.27544,718.390267 C1164.41236,718.390267 1170.21211,720.378752 1175.51473,724.107161 L1183.55153,712.756226 C1177.25466,707.702161 1169.54928,705.050848 1159.68971,705.050848 C1145.77032,705.050848 1137.2364,712.83908 1137.2364,723.61004 L1137.2364,723.775747 C1137.2364,735.706656 1146.76456,739.186504 1159.10973,742.003524 C1166.98082,743.826302 1168.88645,745.151959 1168.88645,747.554711 L1168.88645,747.720418 C1168.88645,750.206024 1166.56655,751.697388 1162.25817,751.697388 C1155.54703,751.697388 1149.16731,749.294635 1143.45042,744.737691 L1134.50223,755.425797 C1141.62764,761.805519 1151.40436,765.036807 1161.67819,765.036807 Z M1192.91398,764.042565 L1237.07491,764.042565 L1237.07491,749.957464 L1208.98756,749.957464 L1208.98756,706.04509 L1192.91398,706.04509 L1192.91398,764.042565 Z M1243.95176,764.042565 L1291.01256,764.042565 L1291.01256,750.371731 L1259.85963,750.371731 L1259.85963,741.174989 L1287.69842,741.174989 L1287.69842,728.498398 L1259.85963,728.498398 L1259.85963,719.715923 L1290.5983,719.715923 L1290.5983,706.04509 L1243.95176,706.04509 L1243.95176,764.042565 Z M1299.21506,764.042565 L1346.27587,764.042565 L1346.27587,750.371731 L1315.12294,750.371731 L1315.12294,741.174989 L1342.96173,741.174989 L1342.96173,728.498398 L1315.12294,728.498398 L1315.12294,719.715923 L1345.8616,719.715923 L1345.8616,706.04509 L1299.21506,706.04509 L1299.21506,764.042565 Z M1354.47837,764.042565 L1354.47837,706.04509 L1379.33443,706.04509 C1393.99951,706.04509 1403.44481,713.584762 1403.44481,726.42706 L1403.44481,726.592767 C1403.44481,740.2636 1392.92241,747.471858 1378.5059,747.471858 L1370.55196,747.471858 L1370.55196,764.042565 L1354.47837,764.042565 Z M1370.55196,734.87812 L1378.17448,734.87812 C1383.89138,734.87812 1387.37122,731.895393 1387.37122,727.338449 L1387.37122,727.172742 C1387.37122,722.201529 1383.89138,719.550216 1378.09163,719.550216 L1370.55196,719.550216 L1370.55196,734.87812 Z M1433.18923,764.042565 L1433.18923,706.04509 L1460.61375,706.04509 C1469.47908,706.04509 1475.61024,708.364989 1479.50436,712.341959 C1482.90135,715.6561 1484.64128,720.130191 1484.64128,725.847085 L1484.64128,726.012792 C1484.64128,734.87812 1479.91862,740.760721 1472.71037,743.826302 L1486.54691,764.042565 L1467.98771,764.042565 L1456.30537,746.477615 L1449.26282,746.477615 L1449.26282,764.042565 L1433.18923,764.042565 Z M1449.26282,733.883878 L1459.86807,733.883878 C1465.3364,733.883878 1468.48484,731.232565 1468.48484,727.007034 L1468.48484,726.841327 C1468.48484,722.284383 1465.17069,719.964484 1459.78521,719.964484 L1449.26282,719.964484 L1449.26282,733.883878 Z M1521.92537,765.202514 C1504.029,765.202514 1490.77244,751.863095 1490.77244,735.209534 L1490.77244,735.043827 C1490.77244,718.390267 1504.19471,704.885141 1522.09107,704.885141 C1539.98744,704.885141 1553.244,718.22456 1553.244,734.87812 L1553.244,735.043827 C1553.244,751.697388 1539.82173,765.202514 1521.92537,765.202514 Z M1522.09107,750.703146 C1530.9564,750.703146 1536.839,743.577742 1536.839,735.209534 L1536.839,735.043827 C1536.839,726.67562 1530.79069,719.384509 1521.92537,719.384509 C1513.14289,719.384509 1507.26029,726.509913 1507.26029,734.87812 L1507.26029,735.043827 C1507.26029,743.412034 1513.3086,750.703146 1522.09107,750.703146 Z M1590.77665,765.202514 C1572.88029,765.202514 1559.62372,751.863095 1559.62372,735.209534 L1559.62372,735.043827 C1559.62372,718.390267 1573.046,704.885141 1590.94236,704.885141 C1608.83872,704.885141 1622.09529,718.22456 1622.09529,734.87812 L1622.09529,735.043827 C1622.09529,751.697388 1608.67302,765.202514 1590.77665,765.202514 Z M1590.94236,750.703146 C1599.80769,750.703146 1605.69029,743.577742 1605.69029,735.209534 L1605.69029,735.043827 C1605.69029,726.67562 1599.64198,719.384509 1590.77665,719.384509 C1581.99418,719.384509 1576.11158,726.509913 1576.11158,734.87812 L1576.11158,735.043827 C1576.11158,743.412034 1582.15989,750.703146 1590.94236,750.703146 Z M1630.4635,764.042565 L1646.20567,764.042565 L1646.20567,730.901151 L1660.9536,753.437312 L1661.28501,753.437312 L1676.1158,730.735444 L1676.1158,764.042565 L1692.10653,764.042565 L1692.10653,706.04509 L1675.12155,706.04509 L1661.28501,728.498398 L1647.44847,706.04509 L1630.4635,706.04509 L1630.4635,764.042565 Z" id="4070-SLEEP-ROOM" fill="#8088C3"></path>
                <g id="Group-557" transform="translate(141.520202, 129.450980)" stroke="#FFFFFF">
                    <path d="M1267.8729,2.69198775 L1267.8729,105.8814" id="Stroke-453" stroke-width="4.14267677"></path>
                    <polyline id="Stroke-455" stroke-width="4.14267677" points="1145.49408 0.948553922 1267.8729 0.948553922 1267.8729 12.3394853"></polyline>
                    <polyline id="Stroke-457" stroke-width="4.14267677" points="1240.46785 40.8449804 1172.37467 40.8449804 1172.37467 33.3393922 1240.46785 33.3393922"></polyline>
                    <path d="M1227.09321,67.6397647 L1227.09321,41.8838333" id="Stroke-459" stroke-width="2.07133838"></path>
                    <path d="M1221.56688,41.8846618 L1221.56688,67.6405931" id="Stroke-461" stroke-width="2.07133838"></path>
                    <path d="M1215.8707,41.8846618 L1215.8707,67.6405931" id="Stroke-463" stroke-width="2.07133838"></path>
                    <path d="M1211.04034,67.6397647 L1211.04034,41.8838333" id="Stroke-465" stroke-width="2.07133838"></path>
                    <path d="M1205.51401,40.8449804 L1205.51401,68.4648824" id="Stroke-467" stroke-width="2.07133838"></path>
                    <path d="M1200.16581,41.8846618 L1200.16581,68.4648824" id="Stroke-469" stroke-width="2.07133838"></path>
                    <path d="M1194.63948,41.8846618 L1194.63948,68.4648824" id="Stroke-471" stroke-width="2.07133838"></path>
                    <path d="M1189.46114,41.8846618 L1189.46114,67.6405931" id="Stroke-473" stroke-width="2.07133838"></path>
                    <path d="M1184.11294,33.2847157 L1184.11294,0.946897059" id="Stroke-475" stroke-width="2.07133838"></path>
                    <path d="M1189.46114,0.948553922 L1189.46114,33.2863725" id="Stroke-477" stroke-width="2.07133838"></path>
                    <path d="M1194.63948,0.948553922 L1194.63948,33.2863725" id="Stroke-479" stroke-width="2.07133838"></path>
                    <path d="M1200.16581,0.948553922 L1200.16581,33.2863725" id="Stroke-481" stroke-width="2.07133838"></path>
                    <path d="M1205.51401,0.948553922 L1205.51401,33.2863725" id="Stroke-483" stroke-width="2.07133838"></path>
                    <path d="M1211.04034,0.948553922 L1211.04034,33.2863725" id="Stroke-485" stroke-width="2.07133838"></path>
                    <path d="M1216.73652,0.948553922 L1216.73652,33.2863725" id="Stroke-487" stroke-width="2.07133838"></path>
                    <path d="M1221.56688,0.948553922 L1221.56688,33.2863725" id="Stroke-489" stroke-width="2.07133838"></path>
                    <path d="M1227.09321,0.948553922 L1227.09321,33.9532598" id="Stroke-491" stroke-width="2.07133838"></path>
                    <path d="M1232.09342,1.89296569 L1232.09342,33.2863725" id="Stroke-493" stroke-width="2.07133838"></path>
                    <path d="M1237.61976,1.89296569 L1237.61976,33.2863725" id="Stroke-495" stroke-width="2.07133838"></path>
                    <path d="M1228.47687,69.0555539 L1141.60908,69.0555539" id="Stroke-497" stroke-width="4.14267677"></path>
                    <polyline id="Stroke-499" stroke-width="4.14267677" points="1204.34909 69.0555539 1204.34909 105.883471 1212.46459 105.883471"></polyline>
                    <polyline id="Stroke-501" stroke-width="4.14267677" points="1136.52063 105.542157 1142.90449 105.542157 1142.90449 0.948553922 1149.45821 0.948553922"></polyline>
                    <polyline id="Stroke-503" stroke-width="4.14267677" points="128.584172 22.3469363 128.584172 100.020662 128.584172 104.158676 133.679665 104.158676"></polyline>
                    <polyline id="Stroke-505" stroke-width="4.14267677" points="128.584172 102.16837 128.584172 1.63408088 0.853019318 1.63408088 0.853019318 98.1214828 0.853019318 106.049571"></polyline>
                    <polyline id="Stroke-507" stroke-width="4.14267677" points="29.4209183 38.9076936 97.5140963 38.9076936 97.5140963 31.4021054 29.4209183 31.4021054"></polyline>
                    <path d="M128.584172,66.5271814 L36.7575989,66.5271814" id="Stroke-509" stroke-width="4.14267677"></path>
                    <path d="M37.7932681,65.7020637 L37.7932681,39.9502745" id="Stroke-511" stroke-width="2.07133838"></path>
                    <path d="M42.7996929,65.7020637 L42.7996929,39.9502745" id="Stroke-513" stroke-width="2.07133838"></path>
                    <path d="M48.3218811,39.9511029 L48.3218811,65.7028922" id="Stroke-515" stroke-width="2.07133838"></path>
                    <path d="M54.0180616,39.9511029 L54.0180616,65.7028922" id="Stroke-517" stroke-width="2.07133838"></path>
                    <path d="M58.8525654,65.7020637 L58.8525654,39.9502745" id="Stroke-519" stroke-width="2.07133838"></path>
                    <path d="M64.3747535,38.9076936 L64.3747535,66.5275956" id="Stroke-521" stroke-width="2.07133838"></path>
                    <path d="M69.7270919,39.9511029 L69.7270919,66.5271814" id="Stroke-523" stroke-width="2.07133838"></path>
                    <path d="M75.2492801,39.9511029 L75.2492801,66.5271814" id="Stroke-525" stroke-width="2.07133838"></path>
                    <path d="M80.427626,39.9511029 L80.427626,65.7028922" id="Stroke-527" stroke-width="2.07133838"></path>
                    <path d="M85.7799644,39.9511029 L85.7799644,66.5271814" id="Stroke-529" stroke-width="2.07133838"></path>
                    <path d="M91.4761449,39.9511029 L91.4761449,66.5271814" id="Stroke-531" stroke-width="2.07133838"></path>
                    <path d="M85.7799644,31.4000343 L85.7799644,1.6344951" id="Stroke-533" stroke-width="2.07133838"></path>
                    <path d="M80.427626,1.63615196 L80.427626,31.4016912" id="Stroke-535" stroke-width="2.07133838"></path>
                    <path d="M75.2492801,1.63615196 L75.2492801,31.4016912" id="Stroke-537" stroke-width="2.07133838"></path>
                    <path d="M69.7270919,1.63615196 L69.7270919,31.4016912" id="Stroke-539" stroke-width="2.07133838"></path>
                    <path d="M64.3747535,1.63615196 L64.3747535,31.4016912" id="Stroke-541" stroke-width="2.07133838"></path>
                    <path d="M58.8525654,1.63615196 L58.8525654,31.4016912" id="Stroke-543" stroke-width="2.07133838"></path>
                    <path d="M53.1563848,1.63615196 L53.1563848,31.4016912" id="Stroke-545" stroke-width="2.07133838"></path>
                    <path d="M48.3218811,1.63615196 L48.3218811,31.4016912" id="Stroke-547" stroke-width="2.07133838"></path>
                    <path d="M42.7996929,1.63615196 L42.7996929,32.0147304" id="Stroke-549" stroke-width="2.07133838"></path>
                    <path d="M37.7932681,2.5060049 L37.7932681,31.4016912" id="Stroke-551" stroke-width="2.07133838"></path>
                    <path d="M32.2706657,2.5060049 L32.2706657,31.4016912" id="Stroke-553" stroke-width="2.07133838"></path>
                    <path d="M58.1607384,67.3928922 L58.1607384,105.364044" id="Stroke-555" stroke-width="4.14267677"></path>
                </g>
                <path d="M1408,586 L1408,403.142157" id="Path-24" stroke="#8088C3" stroke-width="8.28535354"></path>
            </g>
            <g id="Group" transform="translate(111.000000, 143.000000)" fill="#FFFFFF">
                <path d="M0.412213217,137.90324 L36.1213965,137.90324 L36.1213965,91.8862509 L97.0478897,91.8862509 L97.0478897,62.2513101 L36.1213965,62.2513101 L36.1213965,40.3472234 L103.490268,40.3472234 L103.490268,9.05567107 L0.412213217,9.05567107 L0.412213217,137.90324 Z M194.480168,140.480191 C154.72149,140.480191 125.270617,110.84525 125.270617,73.8475913 L125.270617,73.4794554 C125.270617,36.4817964 155.089626,6.4787197 194.848304,6.4787197 C234.606983,6.4787197 264.057855,36.1136605 264.057855,73.1113195 L264.057855,73.4794554 C264.057855,110.477114 234.238847,140.480191 194.480168,140.480191 Z M194.848304,108.268299 C214.543575,108.268299 227.6124,92.4384547 227.6124,73.8475913 L227.6124,73.4794554 C227.6124,54.8885919 214.17544,38.6906118 194.480168,38.6906118 C174.968965,38.6906118 161.90014,54.520456 161.90014,73.1113195 L161.90014,73.4794554 C161.90014,92.0703188 175.337101,108.268299 194.848304,108.268299 Z M350.630125,140.296123 C387.259648,140.296123 411.004414,122.073396 411.004414,80.4740377 L411.004414,9.05567107 L374.743027,9.05567107 L374.743027,81.5784454 C374.743027,99.617105 365.355561,108.084231 350.998261,108.084231 C336.64096,108.084231 327.253494,99.2489691 327.253494,80.6581056 L327.253494,9.05567107 L290.992107,9.05567107 L290.992107,81.3943774 C290.992107,121.70526 314.000602,140.296123 350.630125,140.296123 Z M442.172229,137.90324 L442.172229,9.05567107 L503.098722,9.05567107 C522.793993,9.05567107 536.415022,14.2095738 545.066216,23.0448357 C552.613002,30.4075539 556.478429,40.3472234 556.478429,53.0479123 L556.478429,53.4160483 C556.478429,73.1113195 545.986555,86.1801443 529.972643,92.9906586 L560.711992,137.90324 L519.48077,137.90324 L493.527188,98.8808332 L477.881412,98.8808332 L477.881412,137.90324 L442.172229,137.90324 Z M477.881412,70.902504 L501.44211,70.902504 C513.590595,70.902504 520.585178,65.0123294 520.585178,55.6248637 L520.585178,55.2567278 C520.585178,45.1329903 513.222459,39.9790875 501.258042,39.9790875 L477.881412,39.9790875 L477.881412,70.902504 Z M615.992709,137.90324 L651.701892,137.90324 L651.701892,40.3472234 L690.356163,40.3472234 L690.356163,9.05567107 L577.338438,9.05567107 L577.338438,40.3472234 L615.992709,40.3472234 L615.992709,137.90324 Z M716.001939,137.90324 L751.711122,137.90324 L751.711122,88.9411636 L797.544043,88.9411636 L797.544043,137.90324 L833.253226,137.90324 L833.253226,9.05567107 L797.544043,9.05567107 L797.544043,57.2814753 L751.711122,57.2814753 L751.711122,9.05567107 L716.001939,9.05567107 L716.001939,137.90324 Z M927.064476,137.90324 L962.77366,137.90324 L962.77366,91.8862509 L1023.70015,91.8862509 L1023.70015,62.2513101 L962.77366,62.2513101 L962.77366,40.3472234 L1030.14253,40.3472234 L1030.14253,9.05567107 L927.064476,9.05567107 L927.064476,137.90324 Z M1056.34051,137.90324 L1154.44873,137.90324 L1154.44873,106.611687 L1092.04969,106.611687 L1092.04969,9.05567107 L1056.34051,9.05567107 L1056.34051,137.90324 Z M1237.15557,140.480191 C1197.3969,140.480191 1167.94602,110.84525 1167.94602,73.8475913 L1167.94602,73.4794554 C1167.94602,36.4817964 1197.76503,6.4787197 1237.52371,6.4787197 C1277.28239,6.4787197 1306.73326,36.1136605 1306.73326,73.1113195 L1306.73326,73.4794554 C1306.73326,110.477114 1276.91425,140.480191 1237.15557,140.480191 Z M1237.52371,108.268299 C1257.21898,108.268299 1270.28781,92.4384547 1270.28781,73.8475913 L1270.28781,73.4794554 C1270.28781,54.8885919 1256.85084,38.6906118 1237.15557,38.6906118 C1217.64437,38.6906118 1204.57555,54.520456 1204.57555,73.1113195 L1204.57555,73.4794554 C1204.57555,92.0703188 1218.01251,108.268299 1237.52371,108.268299 Z M1400.11604,140.480191 C1360.35737,140.480191 1330.90649,110.84525 1330.90649,73.8475913 L1330.90649,73.4794554 C1330.90649,36.4817964 1360.7255,6.4787197 1400.48418,6.4787197 C1440.24286,6.4787197 1469.69373,36.1136605 1469.69373,73.1113195 L1469.69373,73.4794554 C1469.69373,110.477114 1439.87472,140.480191 1400.11604,140.480191 Z M1400.48418,108.268299 C1420.17945,108.268299 1433.24828,92.4384547 1433.24828,73.8475913 L1433.24828,73.4794554 C1433.24828,54.8885919 1419.81132,38.6906118 1400.11604,38.6906118 C1380.60484,38.6906118 1367.53602,54.520456 1367.53602,73.1113195 L1367.53602,73.4794554 C1367.53602,92.0703188 1380.97298,108.268299 1400.48418,108.268299 Z M1498.28459,137.90324 L1498.28459,9.05567107 L1559.21109,9.05567107 C1578.90636,9.05567107 1592.52739,14.2095738 1601.17858,23.0448357 C1608.72537,30.4075539 1612.59079,40.3472234 1612.59079,53.0479123 L1612.59079,53.4160483 C1612.59079,73.1113195 1602.09892,86.1801443 1586.08501,92.9906586 L1616.82436,137.90324 L1575.59314,137.90324 L1549.63955,98.8808332 L1533.99378,98.8808332 L1533.99378,137.90324 L1498.28459,137.90324 Z M1533.99378,70.902504 L1557.55448,70.902504 C1569.70296,70.902504 1576.69754,65.0123294 1576.69754,55.6248637 L1576.69754,55.2567278 C1576.69754,45.1329903 1569.33483,39.9790875 1557.37041,39.9790875 L1533.99378,39.9790875 L1533.99378,70.902504 Z" id="FOURTH-FLOOR"></path>
                <path d="M1838.27884,0 C1844.29485,13.5537426 1850.30269,27.1156649 1856.33915,40.6694075 C1861.00964,51.1598571 1865.72103,61.6339472 1870.37925,72.1325765 C1870.915,73.3431702 1872.24417,75.0404554 1871.45076,75.7929867 C1870.56738,76.6314047 1869.05417,75.1222523 1867.90086,74.5251351 C1858.5926,69.7236584 1849.30888,64.8812833 1840.06606,59.9693808 C1838.49969,59.1391425 1837.23187,59.1391425 1835.66549,59.9693808 C1826.11594,65.0326075 1816.51322,70.0099475 1806.92686,75.0118265 C1806.38292,75.2981156 1805.83489,75.5884945 1805.26642,75.8257055 C1804.91879,75.9729399 1804.50164,76.3001274 1804.1581,75.9238617 C1803.84319,75.576225 1804.06813,75.1590609 1804.2358,74.7787054 C1805.68766,71.4577522 1807.1109,68.1286193 1808.57911,64.8158458 C1813.39683,53.936861 1818.21455,43.066056 1823.05272,32.2034307 C1827.19972,22.8990359 1831.37944,13.6069106 1835.5428,4.31069545 C1836.1808,2.87925009 1836.8188,1.43962504 1837.45271,0 L1838.27884,0 Z" id="Fill-1911"></path>
                <polygon id="N" points="1814.56489 138 1828.7013 138 1828.7013 109.727162 1850.71583 138 1863.23245 138 1863.23245 86.4609726 1849.09603 86.4609726 1849.09603 113.70303 1827.89141 86.4609726 1814.56489 86.4609726"></polygon>
            </g>
        </g>
    </g>
</svg>