<?xml version="1.0" encoding="UTF-8" standalone="no"?>
<svg width="2160px" height="2160px" viewBox="0 0 2160 2160" version="1.1" xmlns="http://www.w3.org/2000/svg" xmlns:xlink="http://www.w3.org/1999/xlink">
    <!-- Generator: Sketch 42 (36781) - http://www.bohemiancoding.com/sketch -->
    <title>eceb_thirdfloor copy</title>
    <desc>Created with Sketch.</desc>
    <defs></defs>
    <g id="New-Maps" stroke="none" stroke-width="1" fill="none" fill-rule="evenodd">
        <g id="eceb_thirdfloor-copy">
            <polygon id="Fill-1549" fill="#142442" points="0 2160 2160 2160 2160 0 0 0"></polygon>
            <g id="ECE_3rd" transform="translate(235.000000, 646.000000)">
                <polyline id="Fill-558" fill="#212E60" points="1462.03409 236.429721 1190.00936 236.429721 1190.00936 215.375137 1162.39428 215.375137 1162.39428 130.804721 1184.13505 130.804721 1184.82273 101.117882 1156.51168 101.117882 366.254659 101.117882 366.254659 3.08959804 1547.65493 3.08959804 1547.65493 235.398324"></polyline>
                <polygon id="Fill-559" fill="#FFFFFF" points="155.019571 300.200711 192.991346 300.200711 192.991346 277.936618 155.019571 277.936618"></polygon>
                <polygon id="Fill-560" fill="#FFFFFF" points="1362.09201 300.846887 1400.06379 300.846887 1400.06379 278.582794 1362.09201 278.582794"></polygon>
                <polyline id="Fill-561" fill="#212E60" points="1037.93584 130.803064 1143.74395 130.803064 1143.74395 235.396667 1067.45241 235.396667 1067.45241 217.096618 945.591434 217.096618 945.591434 160.489902 1039.83733 160.489902"></polyline>
                <polyline id="Fill-562" fill="#142442" points="1157.11858 130.803064 1239.81055 130.803064 1239.81055 189.485 1187.49269 189.485 1187.49269 215.37348 1150.94599 215.37348"></polyline>
                <polyline id="Fill-563" fill="#212E60" points="648.515941 129.081583 701.513205 129.081583 701.513205 224.007392 666.300452 224.007392 666.300452 235.398324 650.069444 235.398324"></polyline>
                <polyline id="Fill-564" fill="#212E60" points="943.859795 155.485762 943.859795 133.225811 865.140652 133.225811 865.140652 235.396252 943.859795 235.396252"></polyline>
                <polygon id="Fill-565" fill="#212E60" points="777.456755 237.807402 865.140652 237.807402 865.140652 133.222083 777.456755 133.222083"></polygon>
                <polygon id="Fill-566" fill="#212E60" points="701.513205 237.807402 777.456755 237.807402 777.456755 133.222083 701.513205 133.222083"></polygon>
                <polygon id="Fill-566-Copy" fill="#FFE077" points="375.445188 237.807402 504 237.807402 504 195 539 195 539 237.807402 651.456755 237.807402 651.456755 133.222083 375.445188 133.222083"></polygon>
                <polyline id="Fill-567" fill="#212E60" points="270.496686 151.861375 270.496686 235.396252 309.852115 235.396252 316.240122 235.396252 316.240122 220.550762 309.33428 220.550762 309.852115 151.861375"></polyline>
                <polyline id="Fill-568" fill="#212E60" points="369.403093 101.118297 369.403093 132.528272 309.852115 132.528272 309.852115 154.444424 271.706347 154.444424 271.706347 131.836532 261.349655 131.836532 149.841225 131.836532 149.841225 235.050797 3.46802652 235.050797 3.46802652 4.46520833 369.403093 4.46520833"></polyline>
                <polygon id="Fill-569" fill="#142442" points="1284.72338 243.076225 1409.69137 243.076225 1409.69137 131.407819 1284.72338 131.407819"></polygon>
                <polygon id="Fill-570" fill="#142442" points="143.58164 243.689265 268.549628 243.689265 268.549628 132.020858 143.58164 132.020858"></polygon>
                <polygon id="Fill-571" fill="#142442" points="66.0390164 237.123946 178.500263 237.123946 178.500263 218.48424 66.0390164 218.48424"></polygon>
                <polygon id="Fill-572" fill="#142442" points="1371.8853 236.668309 1484.34241 236.668309 1484.34241 218.028603 1371.8853 218.028603"></polygon>
                <polygon id="Fill-573" fill="#212E60" points="61.6519217 520.410196 900.361689 520.410196 900.361689 281.548578 61.6519217 281.548578"></polygon>
                <polygon id="Fill-573-Copy" fill="#8088C3" points="483.411629 520.410196 604.06709 520.410196 604.06709 345.843137 517.503788 345.843137 517.503788 281.548578 483.411629 281.548578"></polygon>
                <polygon id="Fill-574" fill="#142442" points="219.189634 298.361593 282.411024 298.361593 282.411024 273.371961 219.189634 273.371961"></polygon>
                <polygon id="Fill-575" fill="#142442" points="453.358581 298.361593 516.579971 298.361593 516.579971 273.371961 453.358581 273.371961"></polygon>
                <polygon id="Fill-576" fill="#142442" points="602.436947 298.361593 631.095985 298.361593 631.095985 273.371961 602.436947 273.371961"></polygon>
                <polygon id="Fill-577" fill="#142442" points="728.618739 304.471275 768.831702 304.471275 768.831702 279.481642 728.618739 279.481642"></polygon>
                <polygon id="Fill-578" fill="#212E60" points="948.217891 764.606912 1307.85609 764.606912 1307.85609 284.655196 948.217891 284.655196"></polygon>
                <polygon id="Fill-578-Copy" fill="#212E60" points="1101.6295 764.606912 1307.85609 764.606912 1307.85609 515.872961 1101.6295 515.872961"></polygon>
                <polygon id="Fill-579" fill="#142442" points="923.573107 432.981691 963.794356 432.981691 963.794356 370.174167 923.573107 370.174167"></polygon>
                <polygon id="Fill-580" fill="#142442" points="1293.74613 432.381078 1333.9591 432.381078 1333.9591 369.573554 1293.74613 369.573554"></polygon>
                <polygon id="Fill-581" fill="#142442" points="1045.79036 772.033799 1101.6295 772.033799 1101.6295 749.260221 1045.79036 749.260221"></polygon>
                <polygon id="Fill-583-Copy" fill="#FFA473" points="919.343434 979.593137 919.343434 1150.0279 1006.33965 1150.0279 1006.33965 1050.0098 1033.14277 1050.0098 1033.14277 760.665152 887.502821 760.665152 887.502821 979.593137"></polygon>
                <polygon id="Fill-582" fill="#142442" points="1293.74199 555.871201 1313.85054 555.871201 1313.85054 518.339118 1293.74199 518.339118"></polygon>
                <polygon id="Fill-583" fill="#212E60" points="1003.49777 998.564216 1507.61182 998.564216 1507.61182 811.777794 1003.49777 811.777794"></polygon>
                <polygon id="Fill-584" fill="#142442" points="1006.08694 940.57402 1068.22709 940.57402 1068.22709 881.548284 1006.08694 881.548284"></polygon>
                <polygon id="Fill-585" fill="#212E60" points="1374.01049 813.380809 1472.39907 813.380809 1472.39907 524.038725 1374.01049 524.038725"></polygon>
                <polygon id="Fill-586" fill="#212E60" points="1357.69663 769.929583 1542.82457 769.929583 1542.82457 562.569069 1357.69663 562.569069"></polygon>
                <polygon id="Fill-587" fill="#212E60" points="1358.99329 516.027794 1487.93411 516.027794 1487.93411 499.430172 1358.99329 499.430172"></polygon>
                <polygon id="Fill-588" fill="#212E60" points="1356.40412 299.057475 1485.34493 299.057475 1485.34493 284.06701 1356.40412 284.06701"></polygon>
                <polygon id="Fill-589" fill="#212E60" points="1374.01049 526.180221 1487.93411 526.180221 1487.93411 293.353725 1374.01049 293.353725"></polygon>
                <polygon id="Fill-590" fill="#212E60" points="1358.99329 469.921446 1384.88502 469.921446 1384.88502 329.357353 1358.99329 329.357353"></polygon>
                <polygon id="Fill-591" fill="#B5B7B4" points="81.4912008 1037.39694 144.323179 1037.39694 144.323179 983.888554 81.4912008 983.888554"></polygon>
                <polygon id="Fill-591-Copy" fill="#212E60" points="81.4912008 1037.39694 144.323179 1037.39694 144.323179 983.888554 81.4912008 983.888554"></polygon>
                <polygon id="Fill-592" fill="#212E60" points="721.534761 1212.74272 758.562006 1212.74272 758.562006 983.109828 721.534761 983.109828"></polygon>
                <polygon id="Fill-592-Copy" fill="#FFE077" points="757.534761 1222.91826 797 1222.91826 797 1191 879 1191 879 1222.91826 918 1222.91826 918 982.109828 757.534761 982.109828"></polygon>
                <polygon id="Fill-593" fill="#212E60" points="1003.49777 1112.9913 1068.74493 1112.9913 1068.74493 1051.20689 1003.49777 1051.20689"></polygon>
                <polygon id="Fill-594" fill="#B5BADE" points="144.323179 1212.85456 368.37571 1212.85456 368.37571 978.822696 144.323179 978.822696"></polygon>
                <polygon id="Fill-595" fill="#B5BADE" points="368.371567 1212.74272 544.953164 1212.74272 544.953164 978.710858 368.371567 978.710858"></polygon>
                <polygon id="Fill-596" fill="#B5BADE" points="544.696318 1212.74272 721.277915 1212.74272 721.277915 978.710858 544.696318 978.710858"></polygon>
                <polygon id="Fill-597" fill="#B5BADE" points="1038.97151 1290.0685 1507.61182 1290.0685 1507.61182 1244.84444 1038.97151 1244.84444"></polygon>
                <polygon id="Fill-598" fill="#B5BADE" points="1067.8004 1254.01103 1507.61182 1254.01103 1507.61182 997.271863 1067.8004 997.271863"></polygon>
                <polygon id="Fill-599" fill="#B5BADE" points="1022.4008 1051.20689 1075.73777 1051.20689 1075.73777 997.271863 1022.4008 997.271863"></polygon>
                <path d="M0.880924874,118.89602 L70.4406105,118.89602" id="Stroke-600" stroke="#FFFFFF" stroke-width="4.14267677"></path>
                <path d="M133.616431,1.01479167 L133.616431,100.256728" id="Stroke-601" stroke="#FFFFFF" stroke-width="4.14267677"></path>
                <path d="M251.164884,100.256314 L251.164884,1.01437745" id="Stroke-602" stroke="#FFFFFF" stroke-width="4.14267677"></path>
                <path d="M367.677669,1.01479167 L367.677669,110.61212" id="Stroke-603" stroke="#FFFFFF" stroke-width="4.14267677"></path>
                <path d="M367.677669,100.256314 L397.712075,100.256314" id="Stroke-604" stroke="#FFFFFF" stroke-width="4.14267677"></path>
                <path d="M413.764948,100.256314 L437.585339,100.256314" id="Stroke-605" stroke="#FFFFFF" stroke-width="4.14267677"></path>
                <path d="M454.156046,100.256314 L515.778363,100.256314" id="Stroke-606" stroke="#FFFFFF" stroke-width="4.14267677"></path>
                <path d="M530.277732,100.256314 L554.615958,100.256314" id="Stroke-607" stroke="#FFFFFF" stroke-width="4.14267677"></path>
                <path d="M571.704499,100.256314 L632.291147,100.256314" id="Stroke-608" stroke="#FFFFFF" stroke-width="4.14267677"></path>
                <path d="M648.346091,100.256314 L671.648648,100.256314" id="Stroke-609" stroke="#FFFFFF" stroke-width="4.14267677"></path>
                <path d="M688.737189,100.256314 L748.288168,100.256314" id="Stroke-610" stroke="#FFFFFF" stroke-width="4.14267677"></path>
                <path d="M765.894544,100.256314 L788.679266,100.256314" id="Stroke-611" stroke="#FFFFFF" stroke-width="4.14267677"></path>
                <path d="M806.803477,100.256314 L865.836621,100.256314" id="Stroke-612" stroke="#FFFFFF" stroke-width="4.14267677"></path>
                <path d="M883.442997,100.256314 L905.709885,100.256314" id="Stroke-613" stroke="#FFFFFF" stroke-width="4.14267677"></path>
                <path d="M921.244923,100.256314 L983.385074,100.256314" id="Stroke-614" stroke="#FFFFFF" stroke-width="4.14267677"></path>
                <path d="M998.920112,100.256314 L1022.22267,100.256314" id="Stroke-615" stroke="#FFFFFF" stroke-width="4.14267677"></path>
                <path d="M1039.82905,100.256314 L1098.86219,100.256314" id="Stroke-616" stroke="#FFFFFF" stroke-width="4.14267677"></path>
                <path d="M1115.95073,100.256314 L1139.77112,100.256314" id="Stroke-617" stroke="#FFFFFF" stroke-width="4.14267677"></path>
                <path d="M1156.34183,100.256314 L1186.37624,100.256314" id="Stroke-618" stroke="#FFFFFF" stroke-width="4.14267677"></path>
                <path d="M1186.37624,1.01479167 L1186.37624,111.647659" id="Stroke-619" stroke="#FFFFFF" stroke-width="4.14267677"></path>
                <path d="M1127.86093,100.256314 L1127.86093,1.01437745" id="Stroke-620" stroke="#FFFFFF" stroke-width="4.14267677"></path>
                <path d="M1069.34562,100.256314 L1069.34562,1.01437745" id="Stroke-621" stroke="#FFFFFF" stroke-width="4.14267677"></path>
                <path d="M1010.57139,100.256314 L1010.57139,1.01437745" id="Stroke-622" stroke="#FFFFFF" stroke-width="4.14267677"></path>
                <path d="M952.314999,100.256314 L952.314999,1.01437745" id="Stroke-623" stroke="#FFFFFF" stroke-width="4.14267677"></path>
                <path d="M894.576441,100.256314 L894.576441,1.01437745" id="Stroke-624" stroke="#FFFFFF" stroke-width="4.14267677"></path>
                <path d="M836.320049,100.256314 L836.320049,1.01437745" id="Stroke-625" stroke="#FFFFFF" stroke-width="4.14267677"></path>
                <path d="M777.286905,100.256314 L777.286905,1.01437745" id="Stroke-626" stroke="#FFFFFF" stroke-width="4.14267677"></path>
                <path d="M718.512679,100.256314 L718.512679,1.01437745" id="Stroke-627" stroke="#FFFFFF" stroke-width="4.14267677"></path>
                <path d="M659.997369,100.256314 L659.997369,1.01437745" id="Stroke-628" stroke="#FFFFFF" stroke-width="4.14267677"></path>
                <path d="M601.997823,100.256314 L601.997823,1.01437745" id="Stroke-629" stroke="#FFFFFF" stroke-width="4.14267677"></path>
                <path d="M542.446845,100.256314 L542.446845,1.01437745" id="Stroke-630" stroke="#FFFFFF" stroke-width="4.14267677"></path>
                <path d="M484.967205,100.256314 L484.967205,1.01437745" id="Stroke-631" stroke="#FFFFFF" stroke-width="4.14267677"></path>
                <path d="M425.675143,100.256314 L425.675143,1.01437745" id="Stroke-632" stroke="#FFFFFF" stroke-width="4.14267677"></path>
                <path d="M1303.92469,1.01479167 L1303.92469,100.256728" id="Stroke-633" stroke="#FFFFFF" stroke-width="4.14267677"></path>
                <path d="M1420.43747,1.01479167 L1420.43747,100.256728" id="Stroke-634" stroke="#FFFFFF" stroke-width="4.14267677"></path>
                <path d="M1483.61329,117.86048 L1550.23582,117.86048" id="Stroke-635" stroke="#FFFFFF" stroke-width="4.14267677"></path>
                <polyline id="Stroke-636" stroke="#FFFFFF" stroke-width="4.14267677" points="659.997369 131.84026 309.680194 131.84026 309.680194 152.551044 270.324765 152.551044 270.324765 131.84026 259.450238 131.84026"></polyline>
                <polyline id="Stroke-637" stroke="#FFFFFF" stroke-width="4.14267677" points="472.108336 193.628814 507.664931 193.628814 558.412721 193.628814"></polyline>
                <path d="M507.667002,131.84026 L507.667002,193.628814" id="Stroke-638" stroke="#FFFFFF" stroke-width="4.14267677"></path>
                <polyline id="Stroke-639" stroke="#FFFFFF" stroke-width="4.14267677" points="538.045251 213.304059 538.045251 236.085922 666.124388 236.085922 666.124388 222.280113 679.244246 222.280113"></polyline>
                <polyline id="Stroke-640" stroke="#FFFFFF" stroke-width="4.14267677" points="649.899595 131.84026 649.899595 162.736608 649.899595 236.085922"></polyline>
                <path d="M649.899595,160.835358 L701.343355,160.835358" id="Stroke-641" stroke="#FFFFFF" stroke-width="4.14267677"></path>
                <polyline id="Stroke-642" stroke="#FFFFFF" stroke-width="4.14267677" points="693.745686 131.84026 701.343355 131.84026 701.343355 236.085922"></polyline>
                <path d="M695.817024,222.628054 L701.343355,222.628054" id="Stroke-643" stroke="#FFFFFF" stroke-width="4.14267677"></path>
                <polyline id="Stroke-644" stroke="#FFFFFF" stroke-width="4.14267677" points="852.890756 236.085922 943.68166 236.085922 943.68166 153.934525"></polyline>
                <polyline id="Stroke-645" stroke="#FFFFFF" stroke-width="4.14267677" points="701.343355 133.91548 864.962516 133.91548 943.68166 133.91548"></polyline>
                <path d="M864.962516,236.085922 L864.962516,133.91548" id="Stroke-646" stroke="#FFFFFF" stroke-width="4.14267677"></path>
                <path d="M777.286905,236.085922 L777.286905,133.91548" id="Stroke-647" stroke="#FFFFFF" stroke-width="4.14267677"></path>
                <polyline id="Stroke-648" stroke="#FFFFFF" stroke-width="4.14267677" points="504.216152 213.304059 504.216152 236.085922 375.445188 236.085922 375.445188 219.861093 364.052826 219.861093"></polyline>
                <path d="M270.324765,234.362784 L286.38178,234.362784" id="Stroke-649" stroke="#FFFFFF" stroke-width="4.14267677"></path>
                <polyline id="Stroke-650" stroke="#FFFFFF" stroke-width="4.14267677" points="302.606573 234.362784 316.070273 234.362784 316.070273 221.244574 336.783657 221.244574"></polyline>
                <polyline id="Stroke-651" stroke="#FFFFFF" stroke-width="4.14267677" points="309.680194 152.551044 309.680194 221.244574 316.068201 221.244574"></polyline>
                <polyline id="Stroke-652" stroke="#FFFFFF" stroke-width="4.14267677" points="270.324765 152.551044 270.324765 230.22477 270.324765 234.362784 275.420257 234.362784"></polyline>
                <path d="M375.445188,219.861093 L375.445188,131.84026" id="Stroke-653" stroke="#FFFFFF" stroke-width="4.14267677"></path>
                <g id="Group-1014" transform="translate(0.669192, 0.901961)">
                    <path d="M445.978253,188.604993 L445.978253,208.346512 C445.978253,208.814576 445.969967,209.28264 445.791832,209.721708 C445.244999,211.072051 443.728779,211.701659 442.303698,211.167321 C441.255601,210.7821 440.646628,209.908105 440.625914,208.715164 C440.609343,207.762468 440.625914,206.809772 440.625914,205.852934 C440.630057,201.540949 440.625914,197.237248 440.634199,192.925262 C440.638342,190.431684 440.663198,187.942248 440.671484,185.448669 C440.675626,185.262272 440.667341,185.075875 440.621771,184.897762 C440.534775,184.512542 440.240645,184.276439 439.851234,184.251586 C439.399682,184.218449 439.097266,184.396561 438.935702,184.794208 C438.844563,185.013743 438.852848,185.245703 438.852848,185.481806 C438.852848,193.16965 438.852848,200.85335 438.856991,208.537051 C438.856991,209.266071 438.749282,209.953669 438.25216,210.529429 C437.518907,211.362002 436.570234,211.614674 435.530422,211.386855 C434.474039,211.159037 433.811211,210.446586 433.504653,209.419331 C433.405229,209.087958 433.351374,208.740017 433.351374,208.383792 C433.355516,203.06112 433.322375,197.746733 433.372087,192.424061 C433.442513,184.512542 433.392801,176.609306 433.417657,168.701929 C433.421799,168.105458 433.260235,167.844502 432.80454,167.707811 C432.265992,167.546267 431.677732,167.732664 431.39603,168.14688 C431.313177,168.267002 431.309034,168.403694 431.309034,168.540385 C431.313177,171.37362 431.309034,174.202713 431.317319,177.035949 C431.325605,179.115311 431.358746,181.202958 431.358746,183.282321 C431.362889,184.131463 431.023189,184.802493 430.198797,185.150434 C429.473828,185.456953 428.591438,185.287125 428.028034,184.736218 C427.675907,184.396561 427.522628,183.969919 427.522628,183.485287 C427.52677,178.154331 427.543341,172.810949 427.530913,167.479993 C427.522628,166.059233 427.825043,164.7296 428.587295,163.524233 C429.929523,161.415875 431.847582,160.185654 434.353902,160.127664 C437.568619,160.040679 440.783336,160.06139 443.99391,160.111096 C447.332908,160.17737 450.419202,162.733081 451.218739,165.97639 C451.405159,166.730262 451.488013,167.479993 451.488013,168.250434 C451.479727,173.233449 451.48387,178.224748 451.48387,183.207762 C451.48387,184.243301 451.061317,184.860483 450.158213,185.14215 C448.965122,185.531512 447.825886,184.744502 447.755461,183.501855 C447.743033,183.361022 447.751318,183.216047 447.751318,183.079355 C447.747176,178.2496 447.734747,173.411561 447.763746,168.581806 C447.767889,167.861071 447.121631,167.554551 446.62451,167.674674 C446.177101,167.790654 445.978253,168.014331 445.978253,168.486537 L445.978253,188.604993 Z" id="Fill-654" fill="#A8770A"></path>
                    <path d="M439.371926,148.291865 C442.139234,148.283581 444.388707,150.541056 444.372137,153.357723 C444.355566,156.124684 442.22623,158.373875 439.363641,158.373875 C436.554906,158.373875 434.38,156.261375 434.346859,153.366007 C434.31786,150.483066 436.53005,148.333287 439.371926,148.291865" id="Fill-656" fill="#A8770A"></path>
                    <path d="M606.114666,201.149598 C606.114666,203.875137 606.122951,206.600676 606.114666,209.330358 C606.114666,210.162931 605.799822,210.850529 605.045855,211.277172 C604.262889,211.724525 603.442639,211.741093 602.651388,211.335162 C601.851851,210.92923 601.487296,210.225064 601.47901,209.346926 L601.47901,193.366485 C601.47901,193.213225 601.47901,193.06825 601.46244,192.91499 C601.404442,192.475922 601.097884,192.202539 600.691902,192.219108 C600.223779,192.243961 599.933792,192.533912 599.917221,192.993691 C599.908936,193.117956 599.908936,193.246363 599.908936,193.37477 L599.908936,209.110824 C599.908936,209.901975 599.763942,210.647564 599.084543,211.157049 C598.272579,211.765946 597.394331,211.819794 596.487085,211.418005 C595.588124,211.020358 595.264995,210.233348 595.223569,209.305505 C595.215283,209.152245 595.223569,208.998985 595.223569,208.849868 C595.223569,203.527196 595.215283,198.19624 595.215283,192.873569 C595.215283,192.33923 595.215283,192.33923 594.672593,192.33923 L588.930843,192.33923 C588.52486,192.33923 588.516575,192.330946 588.628427,191.958152 C589.11312,190.350995 589.618527,188.739696 590.10322,187.128397 C590.832331,184.767368 591.549014,182.406338 592.26984,180.049451 C592.878814,178.077784 593.49193,176.101975 594.100903,174.130309 C594.705734,172.146216 595.314707,170.166265 595.911253,168.173887 C596.056247,167.680971 595.853255,167.250186 595.418274,167.096926 C594.966723,166.935382 594.527599,167.154917 594.357749,167.664402 C593.993194,168.741363 593.653494,169.826608 593.305509,170.907711 C592.43969,173.595971 591.57387,176.271804 590.716336,178.960064 C590.343495,180.107441 589.97894,181.254819 589.618527,182.406338 C589.237401,183.603422 588.272157,184.063201 587.132921,183.562 C586.325099,183.205775 585.943973,182.356632 586.217389,181.474353 C586.996213,178.926926 587.787464,176.3795 588.566287,173.827931 C589.485961,170.837294 590.401493,167.842515 591.308739,164.847735 C592.004709,162.528127 594.009764,160.850554 596.395946,160.602025 C596.801928,160.560603 597.207911,160.544034 597.60975,160.544034 C600.232065,160.544034 602.854379,160.53575 605.484979,160.552319 C606.905917,160.552319 608.223288,160.916828 609.366667,161.832245 C610.456191,162.714525 611.114877,163.845333 611.47529,165.187392 C612.423963,168.724794 613.385064,172.258054 614.342022,175.80374 C614.884713,177.775407 615.427403,179.7595 615.953523,181.739451 C616.218654,182.737711 615.481258,183.756681 614.462159,183.843667 C613.451346,183.934794 612.780233,183.495725 612.502673,182.509892 C611.711422,179.751216 610.945027,176.975971 610.166204,174.20901 C609.66494,172.436167 609.155391,170.659181 608.654127,168.886338 C608.529846,168.44727 608.417994,168.012343 608.289571,167.581559 C608.152863,167.138348 607.796593,166.943667 607.378182,167.063789 C606.955629,167.188054 606.744353,167.535995 606.860348,167.979206 C607.440322,170.344377 608.036868,172.705407 608.637556,175.066436 C609.300384,177.688422 609.971498,180.302123 610.634326,182.924108 C611.413149,185.989304 612.18783,189.0545 612.974939,192.119696 C613.061935,192.442784 612.875514,192.413789 612.680808,192.405505 C610.667468,192.405505 608.645841,192.405505 606.6325,192.397221 C606.122951,192.397221 606.122951,192.405505 606.122951,192.898422 L606.122951,201.149598 L606.114666,201.149598 Z" id="Fill-658" fill="#A8770A"></path>
                    <path d="M596.324278,153.612135 C596.282851,150.870027 598.461899,148.517282 601.374201,148.508998 C604.269932,148.508998 606.502835,150.853458 606.469693,153.69912 C606.436552,156.48265 604.149794,158.789831 601.341059,158.756694 C598.590322,158.731841 596.257995,156.466081 596.324278,153.612135" id="Fill-660" fill="#A8770A"></path>
                    <path d="M326.912751,178.088056 C326.274779,178.846071 325.674091,179.633081 324.986406,180.345532 C323.756031,181.621316 322.310237,181.981684 320.818873,180.846733 C319.501502,179.840189 319.120376,178.299306 320.002766,176.973816 C322.649937,172.993203 325.682376,169.269404 329.145654,165.984674 C330.869007,164.34438 332.6835,165.4959 334.025727,167.074061 C336.623185,170.118547 339.179217,173.196169 341.751819,176.261365 C342.161944,176.75014 342.530642,177.872664 343.048477,177.562002 C346.408188,175.528203 348.052831,178.199895 350.385158,180.527787 C350.385158,176.861978 350.393443,173.79264 350.381015,170.727444 C350.37273,168.167591 350.459726,165.587027 353.807009,165.259797 C356.209761,165.031978 357.390424,166.99536 357.411137,170.897272 C357.423565,173.883767 357.41528,176.878547 357.41528,180.415949 C358.604228,179.280998 359.399622,178.415287 360.302726,177.682125 C361.582813,176.646586 363.016179,176.601022 364.263125,177.677983 C365.497642,178.754944 365.829057,180.312395 364.818243,181.584037 C361.997081,185.150434 359.130348,188.704404 355.998485,191.997419 C354.254418,193.836537 352.270076,192.892125 350.820139,191.17313 C348.172968,188.025091 345.621079,184.810777 342.994622,181.642027 C342.625924,181.202958 342.501644,179.889895 341.83053,180.440801 C338.740093,182.996512 337.124449,180.076292 334.613987,178.262027 L334.613987,187.354061 C334.613987,188.58014 334.601559,189.802076 334.042298,190.941169 C333.313187,192.407493 332.11181,193.095091 330.521022,192.916978 C328.561536,192.697444 327.550723,191.367811 327.389159,189.553547 C327.057745,185.800752 327.107457,182.035532 326.912751,178.088056" id="Fill-662" fill="#FFFFFF"></path>
                    <path d="M1197.85172,160.827689 C1197.21374,161.585703 1196.61306,162.372713 1195.92537,163.085164 C1194.695,164.360949 1193.2492,164.721316 1191.75784,163.586365 C1190.44047,162.579821 1190.05934,161.038939 1190.94173,159.713449 C1193.5889,155.732836 1196.62134,152.009037 1200.08462,148.724306 C1201.80797,147.084012 1203.62246,148.235532 1204.96469,149.813694 C1207.56215,152.858179 1210.11818,155.935801 1212.69078,159.000998 C1213.09677,159.489772 1213.46961,160.612297 1213.98744,160.301635 C1217.34301,158.267836 1218.98765,160.939527 1221.32412,163.267419 C1221.32412,159.60161 1221.33241,156.532272 1221.31584,153.467076 C1221.30755,150.907223 1221.39869,148.326659 1224.74597,147.999429 C1227.14873,147.77161 1228.32939,149.734993 1228.34596,153.636904 C1228.36253,156.6234 1228.35424,159.618179 1228.35424,163.155581 C1229.54319,162.02063 1230.33859,161.154919 1231.23755,160.421757 C1232.52178,159.386218 1233.95514,159.340654 1235.20209,160.417615 C1236.43661,161.494576 1236.76388,163.052027 1235.75721,164.323669 C1232.93604,167.890066 1230.06931,171.444037 1226.93745,174.737051 C1225.19338,176.576169 1223.20904,175.631757 1221.7591,173.912762 C1219.10779,170.764723 1216.56004,167.550409 1213.92944,164.381659 C1213.56489,163.942591 1213.43647,162.629527 1212.76535,163.180434 C1209.67906,165.736145 1208.06341,162.815924 1205.55295,161.001659 L1205.55295,170.093694 C1205.55295,171.319772 1205.53638,172.541708 1204.98126,173.680801 C1204.25215,175.147125 1203.04663,175.834723 1201.45999,175.65661 C1199.5005,175.437076 1198.48969,174.107444 1198.32812,172.293179 C1197.99671,168.540385 1198.04642,164.775164 1197.85172,160.827689" id="Fill-664" fill="#FFFFFF"></path>
                    <path d="M943.012468,161.834647 L957.868107,161.834647" id="Stroke-666" stroke="#FFFFFF" stroke-width="4.14267677"></path>
                    <path d="M943.012468,215.161189 L971.671506,215.161189" id="Stroke-668" stroke="#FFFFFF" stroke-width="4.14267677"></path>
                    <polyline id="Stroke-670" stroke="#FFFFFF" stroke-width="4.14267677" points="988.242213 215.161189 1038.64202 215.161189 1066.60509 215.161189 1066.60509 235.184375 1140.83357 235.184375 1140.83357 130.590772 1094.56816 130.590772 1094.56816 235.184375"></polyline>
                    <polyline id="Stroke-672" stroke="#FFFFFF" stroke-width="4.14267677" points="1074.55074 133.01352 1039.15985 133.01352 1039.15985 215.160775"></polyline>
                    <polyline id="Stroke-674" stroke="#FFFFFF" stroke-width="4.14267677" points="1161.54695 130.590772 1240.25781 130.590772 1240.25781 235.184375 1263.73022 235.184375"></polyline>
                    <polyline id="Stroke-676" stroke="#FFFFFF" stroke-width="4.14267677" points="1187.00163 235.183961 1188.81198 235.183961 1240.25574 235.183961"></polyline>
                    <polyline id="Stroke-678" stroke="#FFFFFF" stroke-width="4.14267677" points="1189.16204 235.183961 1189.16204 215.160775 1161.54695 215.160775"></polyline>
                    <path d="M1189.16204,130.590772 L1189.16204,147.929841" id="Stroke-680" stroke="#FFFFFF" stroke-width="4.14267677"></path>
                    <polyline id="Stroke-682" stroke="#FFFFFF" stroke-width="4.14267677" points="1189.16204 172.016069 1189.16204 190.311975 1189.16204 196.17727"></polyline>
                    <path d="M1240.25781,189.276436 L1189.16204,189.276436" id="Stroke-684" stroke="#FFFFFF" stroke-width="4.14267677"></path>
                    <path d="M1240.25781,152.337096 L1283.75592,152.337096" id="Stroke-686" stroke="#FFFFFF" stroke-width="4.14267677"></path>
                    <path d="M1408.72391,217.705301 L1419.76828,217.705301" id="Stroke-688" stroke="#FFFFFF" stroke-width="4.14267677"></path>
                    <polyline id="Stroke-690" stroke="#FFFFFF" stroke-width="4.14267677" points="1435.99929 217.705301 1485.71141 217.705301 1485.71141 235.185203"></polyline>
                    <polyline id="Stroke-692" stroke="#FFFFFF" stroke-width="4.14267677" points="65.8027342 234.836434 65.8027342 217.232267 114.305194 217.232267"></polyline>
                    <path d="M130.186145,217.232267 L141.922348,217.232267" id="Stroke-694" stroke="#FFFFFF" stroke-width="4.14267677"></path>
                    <polyline id="Stroke-696" stroke="#FFFFFF" stroke-width="4.14267677" points="269.655573 233.796752 269.655573 130.938713 141.92442 130.938713 141.92442 229.654596 141.92442 237.769081"></polyline>
                    <polyline id="Stroke-698" stroke="#FFFFFF" stroke-width="4.14267677" points="170.492319 168.209841 238.585497 168.209841 238.585497 160.704252 170.492319 160.704252"></polyline>
                    <path d="M269.655573,195.829743 L177.828999,195.829743" id="Stroke-700" stroke="#FFFFFF" stroke-width="4.14267677"></path>
                    <path d="M178.864669,195.004211 L178.864669,169.252422" id="Stroke-702" stroke="#FFFFFF" stroke-width="2.07133838"></path>
                    <path d="M183.871093,195.004211 L183.871093,169.252422" id="Stroke-704" stroke="#FFFFFF" stroke-width="2.07133838"></path>
                    <path d="M189.393282,169.25325 L189.393282,195.005039" id="Stroke-706" stroke="#FFFFFF" stroke-width="2.07133838"></path>
                    <path d="M195.089462,169.25325 L195.089462,195.005039" id="Stroke-708" stroke="#FFFFFF" stroke-width="2.07133838"></path>
                    <path d="M199.923966,195.004211 L199.923966,169.252422" id="Stroke-710" stroke="#FFFFFF" stroke-width="2.07133838"></path>
                    <path d="M205.446154,168.209841 L205.446154,195.829743" id="Stroke-712" stroke="#FFFFFF" stroke-width="2.07133838"></path>
                    <path d="M210.798492,169.25325 L210.798492,195.829328" id="Stroke-714" stroke="#FFFFFF" stroke-width="2.07133838"></path>
                    <path d="M216.320681,169.25325 L216.320681,195.829328" id="Stroke-716" stroke="#FFFFFF" stroke-width="2.07133838"></path>
                    <path d="M221.499027,169.25325 L221.499027,195.005039" id="Stroke-718" stroke="#FFFFFF" stroke-width="2.07133838"></path>
                    <path d="M226.851365,169.25325 L226.851365,195.829328" id="Stroke-720" stroke="#FFFFFF" stroke-width="2.07133838"></path>
                    <path d="M232.547545,169.25325 L232.547545,195.829328" id="Stroke-722" stroke="#FFFFFF" stroke-width="2.07133838"></path>
                    <path d="M226.851365,160.702181 L226.851365,130.936642" id="Stroke-724" stroke="#FFFFFF" stroke-width="2.07133838"></path>
                    <path d="M221.499027,130.938299 L221.499027,160.703838" id="Stroke-726" stroke="#FFFFFF" stroke-width="2.07133838"></path>
                    <path d="M216.320681,130.938299 L216.320681,160.703838" id="Stroke-728" stroke="#FFFFFF" stroke-width="2.07133838"></path>
                    <path d="M210.798492,130.938299 L210.798492,160.703838" id="Stroke-730" stroke="#FFFFFF" stroke-width="2.07133838"></path>
                    <path d="M205.446154,130.938299 L205.446154,160.703838" id="Stroke-732" stroke="#FFFFFF" stroke-width="2.07133838"></path>
                    <path d="M199.923966,130.938299 L199.923966,160.703838" id="Stroke-734" stroke="#FFFFFF" stroke-width="2.07133838"></path>
                    <path d="M194.227785,130.938299 L194.227785,160.703838" id="Stroke-736" stroke="#FFFFFF" stroke-width="2.07133838"></path>
                    <path d="M189.393282,130.938299 L189.393282,160.703838" id="Stroke-738" stroke="#FFFFFF" stroke-width="2.07133838"></path>
                    <path d="M183.871093,130.938299 L183.871093,161.316877" id="Stroke-740" stroke="#FFFFFF" stroke-width="2.07133838"></path>
                    <path d="M178.864669,131.808152 L178.864669,160.703838" id="Stroke-742" stroke="#FFFFFF" stroke-width="2.07133838"></path>
                    <path d="M173.34248,131.808152 L173.34248,160.703838" id="Stroke-744" stroke="#FFFFFF" stroke-width="2.07133838"></path>
                    <polyline id="Stroke-746" stroke="#FFFFFF" stroke-width="4.14267677" points="199.232139 196.695039 199.232139 236.73727 164.711213 236.73727"></polyline>
                    <polyline id="Stroke-748" stroke="#FFFFFF" stroke-width="4.14267677" points="146.587003 236.73727 141.922348 236.73727 141.922348 232.595113"></polyline>
                    <path d="M1408.72391,132.334206 L1408.72391,238.286436" id="Stroke-750" stroke="#FFFFFF" stroke-width="4.14267677"></path>
                    <polyline id="Stroke-752" stroke="#FFFFFF" stroke-width="4.14267677" points="1286.34509 130.590772 1408.72391 130.590772 1408.72391 141.981703"></polyline>
                    <polyline id="Stroke-754" stroke="#FFFFFF" stroke-width="4.14267677" points="1381.31886 170.487199 1313.22568 170.487199 1313.22568 162.98161 1381.31886 162.98161"></polyline>
                    <path d="M1367.94422,197.281983 L1367.94422,171.526051" id="Stroke-756" stroke="#FFFFFF" stroke-width="2.07133838"></path>
                    <path d="M1362.41789,171.52688 L1362.41789,197.282811" id="Stroke-758" stroke="#FFFFFF" stroke-width="2.07133838"></path>
                    <path d="M1356.72171,171.52688 L1356.72171,197.282811" id="Stroke-760" stroke="#FFFFFF" stroke-width="2.07133838"></path>
                    <path d="M1351.89135,197.281983 L1351.89135,171.526051" id="Stroke-762" stroke="#FFFFFF" stroke-width="2.07133838"></path>
                    <path d="M1346.36502,170.487199 L1346.36502,198.1071" id="Stroke-764" stroke="#FFFFFF" stroke-width="2.07133838"></path>
                    <path d="M1341.01682,171.52688 L1341.01682,198.1071" id="Stroke-766" stroke="#FFFFFF" stroke-width="2.07133838"></path>
                    <path d="M1335.49049,171.52688 L1335.49049,198.1071" id="Stroke-768" stroke="#FFFFFF" stroke-width="2.07133838"></path>
                    <path d="M1330.31215,171.52688 L1330.31215,197.282811" id="Stroke-770" stroke="#FFFFFF" stroke-width="2.07133838"></path>
                    <path d="M1324.96395,162.926934 L1324.96395,130.589115" id="Stroke-772" stroke="#FFFFFF" stroke-width="2.07133838"></path>
                    <path d="M1330.31215,130.590772 L1330.31215,162.928591" id="Stroke-774" stroke="#FFFFFF" stroke-width="2.07133838"></path>
                    <path d="M1335.49049,130.590772 L1335.49049,162.928591" id="Stroke-776" stroke="#FFFFFF" stroke-width="2.07133838"></path>
                    <path d="M1341.01682,130.590772 L1341.01682,162.928591" id="Stroke-778" stroke="#FFFFFF" stroke-width="2.07133838"></path>
                    <path d="M1346.36502,130.590772 L1346.36502,162.928591" id="Stroke-780" stroke="#FFFFFF" stroke-width="2.07133838"></path>
                    <path d="M1351.89135,130.590772 L1351.89135,162.928591" id="Stroke-782" stroke="#FFFFFF" stroke-width="2.07133838"></path>
                    <path d="M1357.58753,130.590772 L1357.58753,162.928591" id="Stroke-784" stroke="#FFFFFF" stroke-width="2.07133838"></path>
                    <path d="M1362.41789,130.590772 L1362.41789,162.928591" id="Stroke-786" stroke="#FFFFFF" stroke-width="2.07133838"></path>
                    <path d="M1367.94422,130.590772 L1367.94422,163.595478" id="Stroke-788" stroke="#FFFFFF" stroke-width="2.07133838"></path>
                    <path d="M1372.94443,131.537255 L1372.94443,162.92652" id="Stroke-790" stroke="#FFFFFF" stroke-width="2.07133838"></path>
                    <path d="M1378.47077,131.537255 L1378.47077,162.92652" id="Stroke-792" stroke="#FFFFFF" stroke-width="2.07133838"></path>
                    <path d="M1369.32788,198.697358 L1282.46009,198.697358" id="Stroke-794" stroke="#FFFFFF" stroke-width="4.14267677"></path>
                    <polyline id="Stroke-796" stroke="#FFFFFF" stroke-width="4.14267677" points="1345.2001 198.1071 1345.2001 236.902542 1385.76933 236.902542"></polyline>
                    <polyline id="Stroke-798" stroke="#FFFFFF" stroke-width="4.14267677" points="1404.41138 236.90337 1408.72391 236.90337 1408.72391 230.690135"></polyline>
                    <polyline id="Stroke-800" stroke="#FFFFFF" stroke-width="4.14267677" points="1277.37164 235.183961 1283.7555 235.183961 1283.7555 130.590358 1290.30922 130.590358"></polyline>
                    <polyline id="Stroke-802" stroke="#FFFFFF" stroke-width="4.14267677" points="693.076494 130.764743 700.674163 130.764743 700.674163 235.010404 747.618976 235.010404"></polyline>
                    <polyline id="Stroke-804" stroke="#FFFFFF" stroke-width="4.14267677" points="700.674163 132.839549 864.293324 132.839549 943.012468 132.839549"></polyline>
                    <path d="M776.617713,235.00999 L776.617713,132.839549" id="Stroke-806" stroke="#FFFFFF" stroke-width="4.14267677"></path>
                    <path d="M765.832254,235.183961 L836.257759,235.183961" id="Stroke-808" stroke="#FFFFFF" stroke-width="4.14267677"></path>
                    <polyline id="Stroke-810" stroke="#FFFFFF" stroke-width="4.14267677" points="93.2521105 282.272828 218.224241 282.272828 218.224241 303.667069"></polyline>
                    <path d="M251.363583,297.457975 L251.363583,517.882853" id="Stroke-812" stroke="#FFFFFF" stroke-width="4.14267677"></path>
                    <polyline id="Stroke-814" stroke="#FFFFFF" stroke-width="4.14267677" points="283.125486 327.492755 283.125486 344.405181 451.595722 344.405181 451.595722 327.492755"></polyline>
                    <polyline id="Stroke-816" stroke="#FFFFFF" stroke-width="4.14267677" points="451.595722 303.667069 451.595722 282.272828 283.125486 282.272828 283.125486 303.667069"></polyline>
                    <path d="M367.360604,344.405181 L367.360604,517.882853" id="Stroke-818" stroke="#FFFFFF" stroke-width="4.14267677"></path>
                    <path d="M485.080979,297.457975 L485.080979,517.882853" id="Stroke-820" stroke="#FFFFFF" stroke-width="4.14267677"></path>
                    <polyline id="Stroke-822" stroke="#FFFFFF" stroke-width="4.14267677" points="581.739984 282.272828 517.876479 282.272828 517.876479 344.405181 601.765684 344.405181"></polyline>
                    <path d="M601.765684,279.862093 L601.765684,416.205328" id="Stroke-824" stroke="#FFFFFF" stroke-width="4.14267677"></path>
                    <path d="M601.765684,431.143603 L601.765684,517.880368" id="Stroke-826" stroke="#FFFFFF" stroke-width="4.14267677"></path>
                    <polyline id="Stroke-828" stroke="#FFFFFF" stroke-width="4.14267677" points="630.426379 282.272828 729.154651 282.272828 729.154651 303.667069"></polyline>
                    <polyline id="Stroke-830" stroke="#FFFFFF" stroke-width="4.14267677" points="623.864379 299.872853 632.497717 299.872853 632.497717 282.272828 639.059717 282.272828"></polyline>
                    <polyline id="Stroke-832" stroke="#FFFFFF" stroke-width="4.14267677" points="768.16251 303.667069 768.16251 282.272828 899.692497 282.272828 899.692497 344.405181 777.831518 344.405181 777.831518 327.136529 777.831518 517.882853"></polyline>
                    <polyline id="Stroke-834" stroke="#FFFFFF" stroke-width="4.14267677" points="879.674669 374.771748 899.692083 374.771748 899.692083 517.883267"></polyline>
                    <polyline id="Stroke-836" stroke="#FFFFFF" stroke-width="4.14267677" points="1375.41264 498.530696 1358.3241 498.530696 1358.3241 515.128319"></polyline>
                    <polyline id="Stroke-838" stroke="#FFFFFF" stroke-width="4.14267677" points="1375.41264 478.855451 1375.41264 467.982289 1358.3241 467.982289 1358.3241 329.220034 1375.41264 329.220034 1375.41264 316.793564"></polyline>
                    <polygon id="Stroke-840" stroke="#FFFFFF" stroke-width="12.4280303" points="1549.56663 0.112830882 1549.56663 236.215772 1461.19505 236.215772 1461.19505 283.162978 1486.05111 283.162978 1486.05111 517.882439 1477.94389 517.882439 1477.94389 557.038248 1542.15538 557.038248 1542.15538 774.505625 1469.65854 774.505625 1469.65854 812.820576 1506.94263 812.820576 1506.94263 1289.16862 49.7519331 1289.16862 49.7519331 1232.21396 26.9672109 1232.21396 26.9672109 1034.42597 76.6793321 1034.42597 76.6793321 979.54239 885.541114 979.54239 885.541114 517.882439 65.1129785 517.882439 65.1129785 279.020821 89.9690391 279.020821 89.9690391 234.836434 0.209661616 234.836434 0.209661616 0.112830882"></polygon>
                    <polyline id="Stroke-842" stroke="#FFFFFF" stroke-width="4.14267677" points="1375.41264 298.153858 1355.73493 298.153858 1355.73493 283.163392 1461.19505 283.163392"></polyline>
                    <polyline id="Stroke-844" stroke="#FFFFFF" stroke-width="4.14267677" points="1308.61198 515.273294 1308.61198 432.152632 1291.52344 432.152632 1291.52344 428.631799"></polyline>
                    <polyline id="Stroke-846" stroke="#FFFFFF" stroke-width="4.14267677" points="1291.52344 406.367706 1291.52344 400.67224 1182.77817 400.67224"></polyline>
                    <path d="M1127.36987,515.273294 L1127.36987,426.560721" id="Stroke-848" stroke="#FFFFFF" stroke-width="4.14267677"></path>
                    <path d="M1162.06479,400.67224 L1094.74629,400.67224" id="Stroke-850" stroke="#FFFFFF" stroke-width="4.14267677"></path>
                    <path d="M1291.52344,400.67224 L1291.52344,394.976775" id="Stroke-852" stroke="#FFFFFF" stroke-width="4.14267677"></path>
                    <polyline id="Stroke-854" stroke="#FFFFFF" stroke-width="4.14267677" points="1291.52344 373.748221 1291.52344 368.83148 1308.61198 368.83148 1308.61198 283.163392 948.97378 283.163392 948.97378 367.534985 966.062322 367.534985 966.062322 373.748221"></polyline>
                    <path d="M965.805476,395.753429 L965.805476,407.14436" id="Stroke-856" stroke="#FFFFFF" stroke-width="4.14267677"></path>
                    <path d="M1073.77399,400.67224 L965.807547,400.67224" id="Stroke-858" stroke="#FFFFFF" stroke-width="4.14267677"></path>
                    <polyline id="Stroke-860" stroke="#FFFFFF" stroke-width="4.14267677" points="965.805476 427.59626 965.805476 433.291725 948.977923 433.291725 948.977923 540.987804"></polyline>
                    <path d="M1127.36987,374.771748 L1127.36987,283.163806" id="Stroke-862" stroke="#FFFFFF" stroke-width="4.14267677"></path>
                    <path d="M948.975852,561.698588 L948.975852,648.166113" id="Stroke-864" stroke="#FFFFFF" stroke-width="4.14267677"></path>
                    <path d="M948.975852,586.551529 L1100.96238,586.551529" id="Stroke-866" stroke="#FFFFFF" stroke-width="4.14267677"></path>
                    <polyline id="Stroke-868" stroke="#FFFFFF" stroke-width="4.14267677" points="1100.96031 520.438978 1100.96031 709.263341 1063.15838 709.263341"></polyline>
                    <polyline id="Stroke-870" stroke="#FFFFFF" stroke-width="4.14267677" points="1042.96283 586.551529 1042.96283 763.110966 948.977923 763.110966 948.977923 713.405083"></polyline>
                    <polyline id="Stroke-872" stroke="#FFFFFF" stroke-width="4.14267677" points="948.975852 695.802988 948.975852 674.831248 948.975852 664.219042"></polyline>
                    <path d="M1042.96283,674.831248 L948.977923,674.831248" id="Stroke-874" stroke="#FFFFFF" stroke-width="4.14267677"></path>
                    <polyline id="Stroke-876" stroke="#FFFFFF" stroke-width="4.14267677" points="1291.52344 540.987804 1291.52344 554.967583 1308.61198 554.967583 1308.61198 763.110966 1100.96031 763.110966 1100.96031 728.246431"></polyline>
                    <path d="M1100.96031,746.884066 L1063.15838,746.884066" id="Stroke-878" stroke="#FFFFFF" stroke-width="4.14267677"></path>
                    <path d="M1047.10551,709.264998 L1042.96283,709.264998" id="Stroke-880" stroke="#FFFFFF" stroke-width="4.14267677"></path>
                    <path d="M1047.10551,746.884066 L1042.96283,746.884066" id="Stroke-882" stroke="#FFFFFF" stroke-width="4.14267677"></path>
                    <polyline id="Stroke-884" stroke="#FFFFFF" stroke-width="4.14267677" points="1376.18939 787.965978 1376.18939 766.219654 1357.02951 766.219654 1357.02951 563.771738 1375.41471 563.771738 1375.41471 540.989875"></polyline>
                    <polyline id="Stroke-886" stroke="#FFFFFF" stroke-width="4.14267677" points="367.706518 979.540733 367.706518 1210.10975 377.371383 1210.10975 355.970314 1210.10975"></polyline>
                    <polyline id="Stroke-888" stroke="#FFFFFF" stroke-width="4.14267677" points="143.653987 979.540733 143.653987 1210.10975 172.308883 1210.10975"></polyline>
                    <polyline id="Stroke-890" stroke="#FFFFFF" stroke-width="4.14267677" points="191.29477 1210.10975 334.560961 1210.10975 340.087292 1210.10975"></polyline>
                    <path d="M80.8220088,1036.49539 L143.653987,1036.49539" id="Stroke-892" stroke="#FFFFFF" stroke-width="4.14267677"></path>
                    <polyline id="Stroke-894" stroke="#FFFFFF" stroke-width="4.14267677" points="89.526187 1086.56537 89.526187 1154.65 82.0196567 1154.65 82.0196567 1086.56537"></polyline>
                    <path d="M142.037515,1094.93874 L91.5714265,1094.93874" id="Stroke-896" stroke="#FFFFFF" stroke-width="2.07133838"></path>
                    <path d="M142.037515,1099.93832 L91.5714265,1099.93832" id="Stroke-898" stroke="#FFFFFF" stroke-width="2.07133838"></path>
                    <path d="M91.5710122,1105.46396 L142.037101,1105.46396" id="Stroke-900" stroke="#FFFFFF" stroke-width="2.07133838"></path>
                    <path d="M91.5710122,1111.15942 L142.037101,1111.15942" id="Stroke-902" stroke="#FFFFFF" stroke-width="2.07133838"></path>
                    <path d="M142.037515,1115.98918 L91.5714265,1115.98918" id="Stroke-904" stroke="#FFFFFF" stroke-width="2.07133838"></path>
                    <path d="M89.526187,1121.51482 L143.654402,1121.51482" id="Stroke-906" stroke="#FFFFFF" stroke-width="2.07133838"></path>
                    <path d="M91.5710122,1126.86234 L143.652745,1126.86234" id="Stroke-908" stroke="#FFFFFF" stroke-width="2.07133838"></path>
                    <path d="M91.5710122,1132.38798 L143.652745,1132.38798" id="Stroke-910" stroke="#FFFFFF" stroke-width="2.07133838"></path>
                    <path d="M91.5710122,1137.56567 L142.037101,1137.56567" id="Stroke-912" stroke="#FFFFFF" stroke-width="2.07133838"></path>
                    <path d="M91.5710122,1142.9132 L143.652745,1142.9132" id="Stroke-914" stroke="#FFFFFF" stroke-width="2.07133838"></path>
                    <path d="M91.5710122,1148.60866 L143.652745,1148.60866" id="Stroke-916" stroke="#FFFFFF" stroke-width="2.07133838"></path>
                    <path d="M81.5482201,1142.9132 L29.039792,1142.9132" id="Stroke-918" stroke="#FFFFFF" stroke-width="2.07133838"></path>
                    <path d="M29.0385492,1137.56567 L81.5469773,1137.56567" id="Stroke-920" stroke="#FFFFFF" stroke-width="2.07133838"></path>
                    <path d="M29.0385492,1132.38798 L81.5469773,1132.38798" id="Stroke-922" stroke="#FFFFFF" stroke-width="2.07133838"></path>
                    <path d="M29.0385492,1126.86234 L81.5469773,1126.86234" id="Stroke-924" stroke="#FFFFFF" stroke-width="2.07133838"></path>
                    <path d="M29.0385492,1121.51482 L81.5469773,1121.51482" id="Stroke-926" stroke="#FFFFFF" stroke-width="2.07133838"></path>
                    <path d="M29.0385492,1115.98918 L81.5469773,1115.98918" id="Stroke-928" stroke="#FFFFFF" stroke-width="2.07133838"></path>
                    <path d="M29.0385492,1110.29371 L81.5469773,1110.29371" id="Stroke-930" stroke="#FFFFFF" stroke-width="2.07133838"></path>
                    <path d="M29.0385492,1105.46396 L81.5469773,1105.46396" id="Stroke-932" stroke="#FFFFFF" stroke-width="2.07133838"></path>
                    <path d="M29.0385492,1099.93832 L82.6323586,1099.93832" id="Stroke-934" stroke="#FFFFFF" stroke-width="2.07133838"></path>
                    <path d="M30.5738253,1094.93874 L81.5494629,1094.93874" id="Stroke-936" stroke="#FFFFFF" stroke-width="2.07133838"></path>
                    <path d="M30.5738253,1089.4131 L81.5494629,1089.4131" id="Stroke-938" stroke="#FFFFFF" stroke-width="2.07133838"></path>
                    <polyline id="Stroke-940" stroke="#FFFFFF" stroke-width="4.14267677" points="1376.18939 805.052375 1376.18939 812.818919 1345.38031 812.818919 1453.08576 812.818919"></polyline>
                    <path d="M1441.69547,517.882439 L1441.69547,812.820576" id="Stroke-942" stroke="#FFFFFF" stroke-width="4.14267677"></path>
                    <polyline id="Stroke-944" stroke="#FFFFFF" stroke-width="4.14267677" points="1004.64307 872.621309 1004.64307 997.660598 1506.94263 997.660598 1326.03193 997.660598 1326.03193 981.953539 1326.03193 812.816848 1087.49661 812.816848"></polyline>
                    <path d="M1024.5797,997.662669 L1024.5797,1007.24348" id="Stroke-946" stroke="#FFFFFF" stroke-width="4.14267677"></path>
                    <path d="M1119.86127,997.662669 L1119.86127,1007.24348" id="Stroke-948" stroke="#FFFFFF" stroke-width="4.14267677"></path>
                    <polyline id="Stroke-950" stroke="#FFFFFF" stroke-width="4.14267677" points="1004.64307 858.641529 1004.64307 812.816848 1068.07988 812.816848 1068.07988 996.368245"></polyline>
                    <path d="M1004.64307,880.128968 L1068.07988,880.128968" id="Stroke-952" stroke="#FFFFFF" stroke-width="4.14267677"></path>
                    <path d="M1068.07781,940.449127 L1004.641,940.449127" id="Stroke-954" stroke="#FFFFFF" stroke-width="4.14267677"></path>
                    <path d="M1020.80075,907.603066 C1020.16278,908.356939 1019.56209,909.148091 1018.87441,909.860542 C1017.64403,911.132184 1016.19824,911.492551 1014.70688,910.361743 C1013.3895,909.351056 1013.00838,907.814316 1013.89077,906.484684 C1016.53794,902.508213 1019.57038,898.784414 1023.03366,895.499684 C1024.75701,893.85939 1026.5715,895.006767 1027.91373,896.584929 C1030.51119,899.633556 1033.06722,902.707037 1035.63982,905.776375 C1036.05409,906.261007 1036.41864,907.383532 1036.93648,907.077012 C1040.30033,905.039071 1041.94498,907.714904 1044.27316,910.038654 C1044.27316,906.372846 1044.28144,903.30765 1044.27316,900.242453 C1044.26487,897.6826 1044.34773,895.102037 1047.69501,894.770664 C1050.09776,894.546988 1051.27843,896.51037 1051.30328,900.412282 C1051.31157,903.394635 1051.30328,906.389414 1051.30328,909.930958 C1052.49223,908.791865 1053.28762,907.926154 1054.19487,907.197135 C1055.47081,906.161596 1056.90418,906.116032 1058.15113,907.18885 C1059.38564,908.265811 1059.7212,909.827404 1058.70625,911.099047 C1055.88508,914.665444 1053.01835,918.219414 1049.88649,921.508287 C1048.14242,923.347404 1046.15808,922.407135 1044.70814,920.683998 C1042.06511,917.535958 1039.50908,914.325787 1036.88677,911.152895 C1036.51393,910.717968 1036.39379,909.400762 1035.72267,909.955811 C1032.6281,912.50738 1031.01245,909.591301 1028.50199,907.772895 L1028.50199,916.864929 C1028.50199,918.09515 1028.4937,919.317086 1027.9303,920.452037 C1027.20119,921.922502 1026.00395,922.6101 1024.40902,922.431988 C1022.44954,922.212453 1021.43873,920.878679 1021.27716,919.068556 C1020.94575,915.31162 1020.99546,911.550542 1020.80075,907.603066" id="Fill-956" fill="#FFFFFF"></path>
                    <polyline id="Stroke-958" stroke="#FFFFFF" stroke-width="4.14267677" points="1119.25437 1040.63755 1119.25437 1232.56024 1113.72804 1232.56024"></polyline>
                    <polyline id="Stroke-960" stroke="#FFFFFF" stroke-width="4.14267677" points="1104.755 1232.56024 1089.21996 1232.56024 1098.54098 1232.56024 1098.54098 1211.15358 1119.25437 1211.15358"></polyline>
                    <path d="M1119.25437,1054.79502 L1089.21996,1054.79502" id="Stroke-962" stroke="#FFFFFF" stroke-width="4.14267677"></path>
                    <polyline id="Stroke-964" stroke="#FFFFFF" stroke-width="4.14267677" points="1024.5797 1040.63755 1024.5797 1050.30534 1004.64514 1050.30534 1004.64514 1087.23681"></polyline>
                    <polyline id="Stroke-966" stroke="#FFFFFF" stroke-width="4.14267677" points="1024.5797 1050.30534 1068.07781 1050.30534 1068.07781 1243.94289 1004.64514 1243.94289 1004.64514 1230.14122"></polyline>
                    <polyline id="Stroke-968" stroke="#FFFFFF" stroke-width="4.14267677" points="1004.64307 1212.87671 1004.64307 1110.35833 1004.64307 1101.73436"></polyline>
                    <path d="M1068.07781,1110.01867 L1004.641,1110.01867" id="Stroke-970" stroke="#FFFFFF" stroke-width="4.14267677"></path>
                    <path d="M1040.89149,1264.31402 L1040.89149,1289.16696" id="Stroke-972" stroke="#FFFFFF" stroke-width="4.14267677"></path>
                    <polyline id="Stroke-974" stroke="#FFFFFF" stroke-width="4.14267677" points="1033.47154 1166.79522 1033.47154 1193.37958 1039.68556 1193.37958 1039.68556 1140.73691"></polyline>
                    <path d="M1032.77599,1170.59772 L1004.64307,1170.59772" id="Stroke-976" stroke="#FFFFFF" stroke-width="2.07133838"></path>
                    <path d="M1004.64307,1176.29318 L1032.77599,1176.29318" id="Stroke-978" stroke="#FFFFFF" stroke-width="2.07133838"></path>
                    <path d="M1033.47154,1180.95311 L1004.64266,1180.95311" id="Stroke-980" stroke="#FFFFFF" stroke-width="2.07133838"></path>
                    <path d="M1004.64307,1186.30063 L1032.77599,1186.30063" id="Stroke-982" stroke="#FFFFFF" stroke-width="2.07133838"></path>
                    <polyline id="Stroke-984" stroke="#FFFFFF" stroke-width="2.07133838" points="1040.55138 1170.59772 1067.13079 1170.59772 1067.13079 1165.42002 1040.55138 1165.42002 1040.55138 1159.72456 1067.13079 1159.72456 1067.13079 1154.36875 1040.55138 1154.36875 1040.55138 1148.67328 1067.13079 1148.67328"></polyline>
                    <polyline id="Stroke-986" stroke="#FFFFFF" stroke-width="4.14267677" points="885.541114 979.540733 917.986558 979.540733 917.986558 1221.85691 873.887764 1221.85691"></polyline>
                    <polyline id="Stroke-988" stroke="#FFFFFF" stroke-width="4.14267677" points="800.098405 1221.85691 757.892814 1221.85691 757.892814 982.129581"></polyline>
                    <polyline id="Stroke-990" stroke="#FFFFFF" stroke-width="4.14267677" points="797.250315 1200.88724 797.250315 1189.23535 784.043461 1189.23535 877.514677 1189.23535 877.514677 1200.88724 877.514677 1189.23535 891.235223 1189.23535"></polyline>
                    <path d="M802.501158,1101.41873 L802.501158,1121.16025 C802.501158,1121.62831 802.492872,1122.09637 802.314737,1122.53544 C801.763761,1123.88579 800.251684,1124.51539 798.826604,1123.98106 C797.774364,1123.59584 797.169533,1122.72184 797.144677,1121.5289 C797.128106,1120.5762 797.144677,1119.62351 797.144677,1118.66667 C797.152962,1114.35468 797.144677,1110.05098 797.152962,1105.739 C797.161247,1103.24542 797.186104,1100.75598 797.194389,1098.2624 C797.194389,1098.07601 797.186104,1097.88961 797.144677,1097.7115 C797.057681,1097.32628 796.763551,1097.09017 796.374139,1097.06532 C795.922587,1097.03218 795.616029,1097.2103 795.454465,1097.60794 C795.363326,1097.82748 795.371611,1098.05944 795.371611,1098.29554 C795.371611,1105.98338 795.371611,1113.66709 795.379896,1121.35079 C795.379896,1122.07981 795.268044,1122.7674 794.775066,1123.34316 C794.037669,1124.17574 793.093139,1124.42841 792.049184,1124.20059 C790.996944,1123.97277 790.329973,1123.26032 790.023415,1122.23307 C789.928134,1121.90169 789.870136,1121.55375 789.870136,1121.19753 C789.878422,1115.87486 789.84528,1110.56047 789.894992,1105.2378 C789.961275,1097.32628 789.911563,1089.42304 789.936419,1081.51566 C789.944705,1080.91919 789.78314,1080.65824 789.327446,1080.52155 C788.784755,1080.36 788.196495,1080.5464 787.918936,1080.96062 C787.831939,1081.08074 787.831939,1081.21743 787.831939,1081.35412 C787.831939,1084.18736 787.831939,1087.01645 787.840225,1089.84968 C787.84851,1091.92905 787.881652,1094.01669 787.881652,1096.09606 C787.881652,1096.9452 787.541952,1097.61623 786.721702,1097.96417 C785.996734,1098.27069 785.114343,1098.10086 784.546797,1097.54995 C784.198812,1097.2103 784.045533,1096.78365 784.045533,1096.29902 C784.045533,1090.96807 784.062104,1085.62468 784.053818,1080.29373 C784.045533,1078.87297 784.343806,1077.54334 785.106058,1076.33797 C786.448285,1074.22961 788.366345,1072.99939 790.872664,1072.9414 C794.087381,1072.85441 797.306241,1072.87513 800.516816,1072.92483 C803.85167,1072.99111 806.942107,1075.54682 807.737501,1078.79012 C807.923922,1079.544 808.010918,1080.29373 808.010918,1081.06417 C808.002633,1086.04718 808.002633,1091.03848 808.002633,1096.0215 C808.002633,1097.05704 807.584222,1097.67422 806.676976,1097.95588 C805.488028,1098.34525 804.344649,1097.55824 804.274223,1096.31559 C804.265938,1096.17476 804.274223,1096.02978 804.274223,1095.89309 C804.265938,1091.06334 804.257653,1086.2253 804.282509,1081.39554 C804.290794,1080.67481 803.640394,1080.36829 803.147415,1080.48841 C802.695864,1080.60439 802.501158,1080.82807 802.501158,1081.30027 L802.501158,1101.41873 Z" id="Fill-992" fill="#A8770A"></path>
                    <path d="M795.890689,1061.1056 C798.657997,1061.09732 800.90747,1063.35479 800.890899,1066.17146 C800.874329,1068.93842 798.744993,1071.18761 795.882403,1071.18761 C793.073668,1071.18761 790.898763,1069.07511 790.865622,1066.17974 C790.840766,1063.2968 793.048812,1061.14702 795.890689,1061.1056" id="Fill-994" fill="#A8770A"></path>
                    <path d="M883.841788,1113.74827 C883.841788,1116.47381 883.850073,1119.19935 883.841788,1121.92903 C883.841788,1122.76161 883.526944,1123.4492 882.772977,1123.87585 C881.990011,1124.3232 881.169761,1124.33977 880.37851,1123.93384 C879.578973,1123.5279 879.214418,1122.82374 879.206132,1121.9456 L879.206132,1105.96516 C879.206132,1105.8119 879.206132,1105.66692 879.189562,1105.51366 C879.131564,1105.0746 878.825006,1104.80121 878.419024,1104.81778 C877.950901,1104.84263 877.660914,1105.13259 877.644343,1105.59237 C877.636058,1105.71663 877.636058,1105.84504 877.636058,1105.97344 L877.636058,1121.7095 C877.636058,1122.50065 877.491064,1123.24624 876.811665,1123.75572 C875.999701,1124.36462 875.121453,1124.41847 874.214207,1124.01668 C873.315246,1123.61903 872.992117,1122.83202 872.95069,1121.90418 C872.942405,1121.75092 872.95069,1121.59766 872.95069,1121.44854 C872.95069,1116.12587 872.942405,1110.79491 872.942405,1105.47224 C872.942405,1104.9379 872.942405,1104.9379 872.399714,1104.9379 L866.657964,1104.9379 C866.251982,1104.9379 866.243697,1104.92962 866.355549,1104.55683 C866.840242,1102.94967 867.345649,1101.33837 867.830342,1099.72707 C868.559453,1097.36604 869.276136,1095.00501 869.996962,1092.64812 C870.605935,1090.67646 871.219052,1088.70065 871.828025,1086.72898 C872.432856,1084.74489 873.041829,1082.76494 873.638375,1080.77256 C873.783368,1080.27964 873.580377,1079.84886 873.145396,1079.6956 C872.693844,1079.53406 872.254721,1079.75359 872.084871,1080.26308 C871.720315,1081.34004 871.380616,1082.42528 871.032631,1083.50638 C870.166812,1086.19464 869.300992,1088.87048 868.443458,1091.55874 C868.070617,1092.70612 867.706062,1093.85349 867.345649,1095.00501 C866.964522,1096.2021 865.999279,1096.66188 864.860043,1096.16067 C864.052221,1095.80445 863.671094,1094.95531 863.944511,1094.07303 C864.723334,1091.5256 865.514586,1088.97817 866.293409,1086.42661 C867.213083,1083.43597 868.128615,1080.44119 869.035861,1077.44641 C869.731831,1075.1268 871.736886,1073.44923 874.123068,1073.2007 C874.52905,1073.15928 874.935033,1073.14271 875.336872,1073.14271 C877.959187,1073.14271 880.581501,1073.13442 883.212101,1073.15099 C884.633039,1073.15099 885.954553,1073.5155 887.093789,1074.43092 C888.187456,1075.3132 888.841998,1076.44401 889.206554,1077.78607 C890.151084,1081.32347 891.116328,1084.85673 892.069144,1088.40241 C892.611834,1090.37408 893.154525,1092.35817 893.680645,1094.33812 C893.945776,1095.33638 893.212522,1096.35536 892.193424,1096.44234 C891.178468,1096.53347 890.507355,1096.0944 890.233938,1095.10857 C889.442687,1092.34989 888.672149,1089.57464 887.897468,1086.80768 C887.392062,1085.03484 886.882512,1083.25786 886.381248,1081.48501 C886.261111,1081.04594 886.149259,1080.61102 886.016693,1080.18023 C885.879985,1079.73702 885.523714,1079.54234 885.105304,1079.66246 C884.682751,1079.78673 884.471474,1080.13467 884.587469,1080.57788 C885.167444,1082.94305 885.768132,1085.30408 886.364678,1087.66511 C887.031649,1090.2871 887.702762,1092.9008 888.365591,1095.52278 C889.140271,1098.58798 889.919094,1101.65317 890.70206,1104.71837 C890.793199,1105.04146 890.606779,1105.01246 890.412073,1105.00418 C888.398732,1105.00418 886.372963,1105.00418 884.359622,1104.99589 C883.850073,1104.99589 883.850073,1105.00418 883.850073,1105.4971 L883.850073,1113.74827 L883.841788,1113.74827 Z" id="Fill-996" fill="#A8770A"></path>
                    <path d="M874.0514,1066.21039 C874.009973,1063.46829 876.189021,1061.11554 879.101323,1061.10726 C881.997054,1061.10726 884.229956,1063.45172 884.196815,1066.29738 C884.163674,1069.08091 881.876916,1071.38809 879.068181,1071.35495 C876.317444,1071.3301 873.985117,1069.06434 874.0514,1066.21039" id="Fill-998" fill="#A8770A"></path>
                    <path d="M837.641414,1189.23742 L837.641414,982.129581 L837.641414,1189.23742 Z" id="Stroke-1000" stroke="#FFFFFF" stroke-width="4.14267677"></path>
                    <polyline id="Stroke-1002" stroke="#FFFFFF" stroke-width="4.14267677" points="720.869712 1208.91267 720.869712 982.129581 720.869712 1147.12826 757.896957 1147.12826"></polyline>
                    <path d="M737.78799,1210.10975 L708.959102,1210.10975" id="Stroke-1004" stroke="#FFFFFF" stroke-width="4.14267677"></path>
                    <path d="M690.317471,1210.10975 L571.733348,1210.10975" id="Stroke-1006" stroke="#FFFFFF" stroke-width="4.14267677"></path>
                    <polyline id="Stroke-1008" stroke="#FFFFFF" stroke-width="4.14267677" points="544.286044 979.540733 544.286044 1210.10975 556.196239 1210.10975 531.858013 1210.10975"></polyline>
                    <path d="M515.287306,1210.10975 L395.667515,1210.10975" id="Stroke-1010" stroke="#FFFFFF" stroke-width="4.14267677"></path>
                    <polyline id="Stroke-1012" stroke="#FFFFFF" stroke-width="4.14267677" points="143.653987 1210.10975 143.653987 1225.30318 30.5754823 1225.30318"></polyline>
                </g>
                <path d="M1227.22717,1172.4256 C1240.15232,1172.4256 1249.59763,1164.88592 1249.59763,1153.12072 L1249.59763,1152.95501 C1249.59763,1143.09544 1242.88649,1138.45565 1234.60114,1136.63287 L1248.43768,1124.78481 L1248.43768,1113.26817 L1206.51379,1113.26817 L1206.51379,1126.27618 L1228.71854,1126.27618 L1215.37912,1138.28994 L1217.69902,1146.65815 L1224.49301,1146.65815 C1230.54131,1146.65815 1233.93831,1148.89519 1233.93831,1152.6236 L1233.93831,1152.78931 C1233.93831,1156.35201 1231.03843,1158.67191 1226.48149,1158.67191 C1221.17886,1158.67191 1216.78763,1156.26916 1212.64495,1152.04363 L1202.53682,1162.15176 C1208.17086,1168.36577 1216.04194,1172.4256 1227.22717,1172.4256 Z M1281.41338,1172.4256 C1264.84268,1172.4256 1254.65169,1158.83762 1254.65169,1142.43262 L1254.65169,1142.26691 C1254.65169,1125.86191 1265.09124,1112.10822 1281.57909,1112.10822 C1298.06694,1112.10822 1308.34078,1125.6962 1308.34078,1142.1012 L1308.34078,1142.26691 C1308.34078,1158.67191 1297.98409,1172.4256 1281.41338,1172.4256 Z M1281.57909,1158.17479 C1288.04167,1158.17479 1292.18434,1151.62936 1292.18434,1142.43262 L1292.18434,1142.26691 C1292.18434,1133.07017 1287.79311,1126.35903 1281.41338,1126.35903 C1275.03366,1126.35903 1270.80813,1132.82161 1270.80813,1142.1012 L1270.80813,1142.26691 C1270.80813,1151.5465 1275.11652,1158.17479 1281.57909,1158.17479 Z M1340.65366,1172.4256 C1324.08295,1172.4256 1313.89197,1158.83762 1313.89197,1142.43262 L1313.89197,1142.26691 C1313.89197,1125.86191 1324.33152,1112.10822 1340.81937,1112.10822 C1357.30722,1112.10822 1367.58106,1125.6962 1367.58106,1142.1012 L1367.58106,1142.26691 C1367.58106,1158.67191 1357.22437,1172.4256 1340.65366,1172.4256 Z M1340.81937,1158.17479 C1347.28194,1158.17479 1351.42462,1151.62936 1351.42462,1142.43262 L1351.42462,1142.26691 C1351.42462,1133.07017 1347.03338,1126.35903 1340.65366,1126.35903 C1334.27394,1126.35903 1330.04841,1132.82161 1330.04841,1142.1012 L1330.04841,1142.26691 C1330.04841,1151.5465 1334.35679,1158.17479 1340.81937,1158.17479 Z M1371.64088,1171.26565 L1417.54174,1171.26565 L1417.54174,1158.17479 L1393.59707,1158.17479 L1403.53949,1151.21509 C1412.15626,1145.00108 1416.96177,1140.19557 1416.96177,1130.91597 L1416.96177,1130.75027 C1416.96177,1119.8136 1408.26215,1112.27393 1395.58556,1112.27393 C1384.31747,1112.27393 1378.18631,1116.66517 1371.9723,1124.70196 L1382.82611,1133.73299 C1387.38306,1128.51322 1390.44864,1126.27618 1394.34275,1126.27618 C1398.23687,1126.27618 1400.80533,1128.51322 1400.80533,1132.15878 C1400.80533,1135.63863 1398.73399,1138.37279 1393.34851,1142.59832 L1371.64088,1159.16903 L1371.64088,1171.26565 Z" id="3002" fill="#122442"></path>
                <path d="M593.397626,1409.82635 C606.322778,1409.82635 615.768081,1402.28668 615.768081,1390.52148 L615.768081,1390.35577 C615.768081,1380.4962 609.056944,1375.8564 600.771591,1374.03362 L614.608131,1362.18557 L614.608131,1350.66893 L572.684242,1350.66893 L572.684242,1363.67693 L594.88899,1363.67693 L581.549571,1375.69069 L583.86947,1384.0589 L590.66346,1384.0589 C596.711768,1384.0589 600.108763,1386.29595 600.108763,1390.02436 L600.108763,1390.19006 C600.108763,1393.75277 597.208889,1396.07266 592.651944,1396.07266 C587.349318,1396.07266 582.958081,1393.66991 578.815404,1389.44438 L568.707273,1399.55251 C574.341313,1405.76653 582.212399,1409.82635 593.397626,1409.82635 Z M647.583838,1409.82635 C631.013131,1409.82635 620.822146,1396.23837 620.822146,1379.83337 L620.822146,1379.66766 C620.822146,1363.26266 631.261692,1349.50898 647.749545,1349.50898 C664.237399,1349.50898 674.511237,1363.09696 674.511237,1379.50196 L674.511237,1379.66766 C674.511237,1396.07266 664.154545,1409.82635 647.583838,1409.82635 Z M647.749545,1395.57554 C654.212121,1395.57554 658.354798,1389.03011 658.354798,1379.83337 L658.354798,1379.66766 C658.354798,1370.47092 653.963561,1363.75979 647.583838,1363.75979 C641.204116,1363.75979 636.978586,1370.22236 636.978586,1379.50196 L636.978586,1379.66766 C636.978586,1388.94726 641.28697,1395.57554 647.749545,1395.57554 Z M688.927752,1408.6664 L704.752778,1408.6664 L704.752778,1350.25466 L693.070429,1350.25466 L676.085454,1355.06016 L679.151035,1367.48819 L688.927752,1365.25115 L688.927752,1408.6664 Z M735.325732,1409.82635 C748.250884,1409.82635 757.696187,1402.28668 757.696187,1390.52148 L757.696187,1390.35577 C757.696187,1380.4962 750.98505,1375.8564 742.699697,1374.03362 L756.536237,1362.18557 L756.536237,1350.66893 L714.612348,1350.66893 L714.612348,1363.67693 L736.817096,1363.67693 L723.477677,1375.69069 L725.797576,1384.0589 L732.591566,1384.0589 C738.639874,1384.0589 742.036869,1386.29595 742.036869,1390.02436 L742.036869,1390.19006 C742.036869,1393.75277 739.136995,1396.07266 734.58005,1396.07266 C729.277424,1396.07266 724.886187,1393.66991 720.74351,1389.44438 L710.635379,1399.55251 C716.269419,1405.76653 724.140505,1409.82635 735.325732,1409.82635 Z" id="3013" fill="#CFD3EC"></path>
                <path d="M1678.77894,411.5718 C1691.70409,411.5718 1701.14939,404.032128 1701.14939,392.266926 L1701.14939,392.101219 C1701.14939,382.241648 1694.43826,377.60185 1686.1529,375.779073 L1699.98944,363.931017 L1699.98944,352.414376 L1658.06556,352.414376 L1658.06556,365.422381 L1680.2703,365.422381 L1666.93088,377.436143 L1669.25078,385.80435 L1676.04477,385.80435 C1682.09308,385.80435 1685.49008,388.041396 1685.49008,391.769805 L1685.49008,391.935512 C1685.49008,395.498214 1682.5902,397.818113 1678.03326,397.818113 C1672.73063,397.818113 1668.33939,395.41536 1664.19672,391.18983 L1654.08859,401.297961 C1659.72263,407.511977 1667.59371,411.5718 1678.77894,411.5718 Z M1732.96515,411.5718 C1716.39444,411.5718 1706.20346,397.98382 1706.20346,381.57882 L1706.20346,381.413113 C1706.20346,365.008113 1716.64301,351.254426 1733.13086,351.254426 C1749.61871,351.254426 1759.89255,364.842406 1759.89255,381.247406 L1759.89255,381.413113 C1759.89255,397.818113 1749.53586,411.5718 1732.96515,411.5718 Z M1733.13086,397.320992 C1739.59343,397.320992 1743.73611,390.775562 1743.73611,381.57882 L1743.73611,381.413113 C1743.73611,372.216371 1739.34487,365.505234 1732.96515,365.505234 C1726.58543,365.505234 1722.3599,371.96781 1722.3599,381.247406 L1722.3599,381.413113 C1722.3599,390.692709 1726.66828,397.320992 1733.13086,397.320992 Z M1765.11232,410.41185 L1782.84298,410.41185 L1808.44472,364.510992 L1808.44472,352.414376 L1763.78667,352.414376 L1763.78667,365.919502 L1790.63121,365.919502 L1765.11232,410.41185 Z M1838.10629,411.5718 C1821.53558,411.5718 1811.3446,397.98382 1811.3446,381.57882 L1811.3446,381.413113 C1811.3446,365.008113 1821.78414,351.254426 1838.27199,351.254426 C1854.75985,351.254426 1865.03369,364.842406 1865.03369,381.247406 L1865.03369,381.413113 C1865.03369,397.818113 1854.67699,411.5718 1838.10629,411.5718 Z M1838.27199,397.320992 C1844.73457,397.320992 1848.87725,390.775562 1848.87725,381.57882 L1848.87725,381.413113 C1848.87725,372.216371 1844.48601,365.505234 1838.10629,365.505234 C1831.72657,365.505234 1827.50104,371.96781 1827.50104,381.247406 L1827.50104,381.413113 C1827.50104,390.692709 1831.80942,397.320992 1838.27199,397.320992 Z" id="3070" fill="#B5BADE"></path>
                <path d="M213.622311,632.159949 C226.547462,632.159949 235.992765,624.620278 235.992765,612.855076 L235.992765,612.689369 C235.992765,602.829798 229.281629,598.19 220.996275,596.367222 L234.832816,584.519167 L234.832816,573.002525 L192.908927,573.002525 L192.908927,586.01053 L215.113674,586.01053 L201.774255,598.024293 L204.094154,606.3925 L210.888144,606.3925 C216.936452,606.3925 220.333447,608.629545 220.333447,612.357955 L220.333447,612.523662 C220.333447,616.086364 217.433573,618.406263 212.876629,618.406263 C207.574003,618.406263 203.182765,616.00351 199.040088,611.77798 L188.931957,621.886111 C194.565997,628.100126 202.437083,632.159949 213.622311,632.159949 Z M269.051326,632.159949 C252.480619,632.159949 242.289634,618.57197 242.289634,602.16697 L242.289634,602.001263 C242.289634,585.596263 252.729179,571.842576 269.217033,571.842576 C285.704886,571.842576 295.978725,585.430556 295.978725,601.835556 L295.978725,602.001263 C295.978725,618.406263 285.622033,632.159949 269.051326,632.159949 Z M269.217033,617.909141 C275.679609,617.909141 279.822285,611.363712 279.822285,602.16697 L279.822285,602.001263 C279.822285,592.80452 275.431048,586.093384 269.051326,586.093384 C262.671604,586.093384 258.446073,592.55596 258.446073,601.835556 L258.446073,602.001263 C258.446073,611.280859 262.754457,617.909141 269.217033,617.909141 Z M302.109886,631 L348.010745,631 L348.010745,617.909141 L324.066073,617.909141 L334.008497,610.949444 C342.625265,604.735429 347.43077,599.929924 347.43077,590.650328 L347.43077,590.484621 C347.43077,579.547955 338.731149,572.008283 326.054558,572.008283 C314.786477,572.008283 308.655316,576.39952 302.441301,584.436313 L313.295114,593.467348 C317.852058,588.247576 320.917639,586.01053 324.811755,586.01053 C328.705871,586.01053 331.274331,588.247576 331.274331,591.893131 C331.274331,595.37298 329.202992,598.107146 323.817513,602.332677 L302.109886,618.903384 L302.109886,631 Z M381.235013,632.159949 C364.664306,632.159949 354.473321,618.57197 354.473321,602.16697 L354.473321,602.001263 C354.473321,585.596263 364.912866,571.842576 381.40072,571.842576 C397.888573,571.842576 408.162412,585.430556 408.162412,601.835556 L408.162412,602.001263 C408.162412,618.406263 397.80572,632.159949 381.235013,632.159949 Z M381.40072,617.909141 C387.863295,617.909141 392.005972,611.363712 392.005972,602.16697 L392.005972,602.001263 C392.005972,592.80452 387.614735,586.093384 381.235013,586.093384 C374.85529,586.093384 370.62976,592.55596 370.62976,601.835556 L370.62976,602.001263 C370.62976,611.280859 374.938144,617.909141 381.40072,617.909141 Z" id="3020" fill="#8088C3"></path>
                <path d="M45.6781944,733.994242 C59.7632955,733.994242 69.1257449,726.951692 69.1257449,715.103636 L69.1257449,714.937929 C69.1257449,704.084116 60.8403914,699.775732 47.5009722,696.875859 C39.4641793,695.053081 37.4756944,693.893131 37.4756944,691.241818 L37.4756944,691.076111 C37.4756944,689.004773 39.3813258,687.347702 43.2754419,687.347702 C48.4123611,687.347702 54.2121086,689.336187 59.5147348,693.064596 L67.5515278,681.713662 C61.2546591,676.659596 53.5492803,674.008283 43.6897096,674.008283 C29.7703157,674.008283 21.2364015,681.796515 21.2364015,692.567475 L21.2364015,692.733182 C21.2364015,704.664091 30.7645581,708.143939 43.1097348,710.96096 C50.9808207,712.783737 52.886452,714.109394 52.886452,716.512146 L52.886452,716.677854 C52.886452,719.16346 50.566553,720.654823 46.2581692,720.654823 C39.5470328,720.654823 33.1673106,718.252071 27.4504167,713.695126 L18.5022348,724.383232 C25.6276389,730.762955 35.4043561,733.994242 45.6781944,733.994242 Z M76.9139773,733 L121.074912,733 L121.074912,718.914899 L92.9875631,718.914899 L92.9875631,675.002525 L76.9139773,675.002525 L76.9139773,733 Z M127.951755,733 L175.012563,733 L175.012563,719.329167 L143.859634,719.329167 L143.859634,710.132424 L171.698422,710.132424 L171.698422,697.455833 L143.859634,697.455833 L143.859634,688.673359 L174.598295,688.673359 L174.598295,675.002525 L127.951755,675.002525 L127.951755,733 Z M183.215063,733 L230.275871,733 L230.275871,719.329167 L199.122942,719.329167 L199.122942,710.132424 L226.96173,710.132424 L226.96173,697.455833 L199.122942,697.455833 L199.122942,688.673359 L229.861604,688.673359 L229.861604,675.002525 L183.215063,675.002525 L183.215063,733 Z M238.478371,733 L238.478371,675.002525 L263.334432,675.002525 C277.999508,675.002525 287.444811,682.542197 287.444811,695.384495 L287.444811,695.550202 C287.444811,709.221035 276.922412,716.429293 262.505896,716.429293 L254.551957,716.429293 L254.551957,733 L238.478371,733 Z M254.551957,703.835556 L262.174482,703.835556 C267.891376,703.835556 271.371225,700.852828 271.371225,696.295884 L271.371225,696.130177 C271.371225,691.158965 267.891376,688.507652 262.091629,688.507652 L254.551957,688.507652 L254.551957,703.835556 Z M317.18923,733 L317.18923,675.002525 L344.61375,675.002525 C353.479078,675.002525 359.61024,677.322424 363.504356,681.299394 C366.901351,684.613535 368.641275,689.087626 368.641275,694.80452 L368.641275,694.970227 C368.641275,703.835556 363.918624,709.718157 356.710366,712.783737 L370.546907,733 L351.987715,733 L340.305366,715.435051 L333.262816,715.435051 L333.262816,733 L317.18923,733 Z M333.262816,702.841313 L343.868068,702.841313 C349.336402,702.841313 352.484836,700.19 352.484836,695.96447 L352.484836,695.798763 C352.484836,691.241818 349.170694,688.921919 343.785215,688.921919 L333.262816,688.921919 L333.262816,702.841313 Z M405.925366,734.159949 C388.029003,734.159949 374.772437,720.82053 374.772437,704.16697 L374.772437,704.001263 C374.772437,687.347702 388.19471,673.842576 406.091073,673.842576 C423.987437,673.842576 437.244003,687.181995 437.244003,703.835556 L437.244003,704.001263 C437.244003,720.654823 423.82173,734.159949 405.925366,734.159949 Z M406.091073,719.660581 C414.956402,719.660581 420.839003,712.535177 420.839003,704.16697 L420.839003,704.001263 C420.839003,695.633056 414.790694,688.341944 405.925366,688.341944 C397.142891,688.341944 391.26029,695.467348 391.26029,703.835556 L391.26029,704.001263 C391.26029,712.36947 397.308598,719.660581 406.091073,719.660581 Z M474.776654,734.159949 C456.88029,734.159949 443.623725,720.82053 443.623725,704.16697 L443.623725,704.001263 C443.623725,687.347702 457.045997,673.842576 474.942361,673.842576 C492.838725,673.842576 506.09529,687.181995 506.09529,703.835556 L506.09529,704.001263 C506.09529,720.654823 492.673018,734.159949 474.776654,734.159949 Z M474.942361,719.660581 C483.807689,719.660581 489.69029,712.535177 489.69029,704.16697 L489.69029,704.001263 C489.69029,695.633056 483.641982,688.341944 474.776654,688.341944 C465.994179,688.341944 460.111578,695.467348 460.111578,703.835556 L460.111578,704.001263 C460.111578,712.36947 466.159886,719.660581 474.942361,719.660581 Z M514.463497,733 L530.205669,733 L530.205669,699.858586 L544.953598,722.394747 L545.285013,722.394747 L560.115795,699.692879 L560.115795,733 L576.106528,733 L576.106528,675.002525 L559.121553,675.002525 L545.285013,697.455833 L531.448472,675.002525 L514.463497,675.002525 L514.463497,733 Z" id="SLEEP-ROOM" fill="#8088C3"></path>
                <path d="M550.499217,838.211712 C563.341515,838.211712 570.71548,832.660525 576.183813,825.120853 L564.087197,816.504086 C560.607349,820.729616 557.044647,823.546636 550.996339,823.546636 C542.876692,823.546636 537.159798,816.752646 537.159798,808.053025 L537.159798,807.887318 C537.159798,799.436257 542.876692,792.559414 550.996339,792.559414 C556.547525,792.559414 560.358788,795.210727 563.67293,799.353404 L575.769546,789.990954 C570.632627,782.86555 563.010101,777.894338 551.162046,777.894338 C533.597096,777.894338 520.589091,791.150904 520.589091,808.053025 L520.589091,808.218732 C520.589091,825.535121 533.92851,838.211712 550.499217,838.211712 Z M602.862652,838.211712 C615.787803,838.211712 625.233106,830.67204 625.233106,818.906838 L625.233106,818.741131 C625.233106,808.88156 618.52197,804.241762 610.236616,802.418985 L624.073157,790.570929 L624.073157,779.054288 L582.149268,779.054288 L582.149268,792.062293 L604.354015,792.062293 L591.014596,804.076055 L593.334495,812.444262 L600.128485,812.444262 C606.176793,812.444262 609.573788,814.681308 609.573788,818.409717 L609.573788,818.575424 C609.573788,822.138126 606.673914,824.458025 602.11697,824.458025 C596.814344,824.458025 592.423106,822.055273 588.280429,817.829742 L578.172298,827.937874 C583.806339,834.151889 591.677424,838.211712 602.862652,838.211712 Z M657.048864,838.211712 C640.478157,838.211712 630.287172,824.623732 630.287172,808.218732 L630.287172,808.053025 C630.287172,791.648025 640.726717,777.894338 657.214571,777.894338 C673.702424,777.894338 683.976263,791.482318 683.976263,807.887318 L683.976263,808.053025 C683.976263,824.458025 673.619571,838.211712 657.048864,838.211712 Z M657.214571,823.960904 C663.677147,823.960904 667.819823,817.415475 667.819823,808.218732 L667.819823,808.053025 C667.819823,798.856283 663.428586,792.145146 657.048864,792.145146 C650.669142,792.145146 646.443611,798.607722 646.443611,807.887318 L646.443611,808.053025 C646.443611,817.332621 650.751995,823.960904 657.214571,823.960904 Z M716.289142,838.211712 C699.718434,838.211712 689.52745,824.623732 689.52745,808.218732 L689.52745,808.053025 C689.52745,791.648025 699.966995,777.894338 716.454849,777.894338 C732.942702,777.894338 743.216541,791.482318 743.216541,807.887318 L743.216541,808.053025 C743.216541,824.458025 732.859849,838.211712 716.289142,838.211712 Z M716.454849,823.960904 C722.917424,823.960904 727.060101,817.415475 727.060101,808.218732 L727.060101,808.053025 C727.060101,798.856283 722.668864,792.145146 716.289142,792.145146 C709.909419,792.145146 705.683889,798.607722 705.683889,807.887318 L705.683889,808.053025 C705.683889,817.332621 709.992273,823.960904 716.454849,823.960904 Z M747.276364,837.051762 L793.177222,837.051762 L793.177222,823.960904 L769.232551,823.960904 L779.174975,817.001207 C787.791742,810.787192 792.597248,805.981687 792.597248,796.702091 L792.597248,796.536384 C792.597248,785.599717 783.897626,778.060045 771.221035,778.060045 C759.952955,778.060045 753.821793,782.451283 747.607778,790.488076 L758.461591,799.519111 C763.018535,794.299338 766.084116,792.062293 769.978232,792.062293 C773.872349,792.062293 776.440808,794.299338 776.440808,797.944894 C776.440808,801.424742 774.36947,804.158909 768.98399,808.384439 L747.276364,824.955146 L747.276364,837.051762 Z" id="C3002" fill="#FFAE7E"></path>
                <path d="M533.791591,915.752329 L549.865177,915.752329 L549.865177,895.038945 L577.289697,895.038945 L577.289697,881.699526 L549.865177,881.699526 L549.865177,871.839955 L580.189571,871.839955 L580.189571,857.754854 L533.791591,857.754854 L533.791591,915.752329 Z M620.787803,916.912278 C602.891439,916.912278 589.634874,903.572859 589.634874,886.919298 L589.634874,886.753591 C589.634874,870.100031 603.057146,856.594905 620.95351,856.594905 C638.849874,856.594905 652.106439,869.934324 652.106439,886.587884 L652.106439,886.753591 C652.106439,903.407152 638.684167,916.912278 620.787803,916.912278 Z M620.95351,902.41291 C629.818838,902.41291 635.701439,895.287506 635.701439,886.919298 L635.701439,886.753591 C635.701439,878.385384 629.653131,871.094273 620.787803,871.094273 C612.005328,871.094273 606.122727,878.219677 606.122727,886.587884 L606.122727,886.753591 C606.122727,895.121798 612.171035,902.41291 620.95351,902.41291 Z M693.781768,916.912278 C675.885404,916.912278 662.628838,903.572859 662.628838,886.919298 L662.628838,886.753591 C662.628838,870.100031 676.051111,856.594905 693.947475,856.594905 C711.843838,856.594905 725.100404,869.934324 725.100404,886.587884 L725.100404,886.753591 C725.100404,903.407152 711.678131,916.912278 693.781768,916.912278 Z M693.947475,902.41291 C702.812803,902.41291 708.695404,895.287506 708.695404,886.919298 L708.695404,886.753591 C708.695404,878.385384 702.647096,871.094273 693.781768,871.094273 C684.999293,871.094273 679.116692,878.219677 679.116692,886.587884 L679.116692,886.753591 C679.116692,895.121798 685.165,902.41291 693.947475,902.41291 Z M737.611288,915.752329 L737.611288,857.754854 L759.981742,857.754854 C780.695126,857.754854 792.708889,869.685763 792.708889,886.422177 L792.708889,886.587884 C792.708889,903.324298 780.529419,915.752329 759.650328,915.752329 L737.611288,915.752329 Z M753.684874,901.501521 L760.230303,901.501521 C769.841313,901.501521 776.221035,896.198894 776.221035,886.836445 L776.221035,886.670738 C776.221035,877.391142 769.841313,872.005662 760.230303,872.005662 L753.684874,872.005662 L753.684874,901.501521 Z" id="FOOD" fill="#FFAE7E"></path>
                <path d="M348.979697,1409.82635 C361.904848,1409.82635 371.350152,1402.28668 371.350152,1390.52148 L371.350152,1390.35577 C371.350152,1380.4962 364.639015,1375.8564 356.353662,1374.03362 L370.190202,1362.18557 L370.190202,1350.66893 L328.266313,1350.66893 L328.266313,1363.67693 L350.471061,1363.67693 L337.131641,1375.69069 L339.45154,1384.0589 L346.24553,1384.0589 C352.293838,1384.0589 355.690833,1386.29595 355.690833,1390.02436 L355.690833,1390.19006 C355.690833,1393.75277 352.79096,1396.07266 348.234015,1396.07266 C342.931389,1396.07266 338.540152,1393.66991 334.397475,1389.44438 L324.289343,1399.55251 C329.923384,1405.76653 337.79447,1409.82635 348.979697,1409.82635 Z M403.165909,1409.82635 C386.595202,1409.82635 376.404217,1396.23837 376.404217,1379.83337 L376.404217,1379.66766 C376.404217,1363.26266 386.843763,1349.50898 403.331616,1349.50898 C419.81947,1349.50898 430.093308,1363.09696 430.093308,1379.50196 L430.093308,1379.66766 C430.093308,1396.07266 419.736616,1409.82635 403.165909,1409.82635 Z M403.331616,1395.57554 C409.794192,1395.57554 413.936869,1389.03011 413.936869,1379.83337 L413.936869,1379.66766 C413.936869,1370.47092 409.545631,1363.75979 403.165909,1363.75979 C396.786187,1363.75979 392.560657,1370.22236 392.560657,1379.50196 L392.560657,1379.66766 C392.560657,1388.94726 396.86904,1395.57554 403.331616,1395.57554 Z M444.509823,1408.6664 L460.334848,1408.6664 L460.334848,1350.25466 L448.6525,1350.25466 L431.667525,1355.06016 L434.733106,1367.48819 L444.509823,1365.25115 L444.509823,1408.6664 Z M489.830707,1409.82635 C503.915808,1409.82635 513.775379,1402.12097 513.775379,1389.19582 L513.775379,1389.03011 C513.775379,1376.43638 504.330076,1370.63663 493.89053,1370.63663 C489.996414,1370.63663 487.262247,1371.46516 484.610934,1372.70797 L485.108055,1363.92549 L511.206919,1363.92549 L511.206919,1350.66893 L472.431464,1350.66893 L470.774394,1380.08193 L480.30255,1385.38456 C483.036717,1383.72749 486.019444,1382.48468 489.582146,1382.48468 C494.636212,1382.48468 498.11606,1385.05314 498.11606,1389.19582 L498.11606,1389.36153 C498.11606,1393.50421 494.884773,1396.15552 489.582146,1396.15552 C484.693788,1396.15552 480.219697,1393.83562 475.497045,1389.85865 L466.300303,1400.62961 C472.348611,1406.26365 479.556869,1409.82635 489.830707,1409.82635 Z" id="3015" fill="#CFD3EC"></path>
                <path d="M187.415303,1124.01903 C200.340455,1124.01903 209.785758,1116.47936 209.785758,1104.71416 L209.785758,1104.54845 C209.785758,1094.68888 203.074621,1090.04908 194.789268,1088.2263 L208.625808,1076.37825 L208.625808,1064.86161 L166.701919,1064.86161 L166.701919,1077.86961 L188.906667,1077.86961 L175.567247,1089.88338 L177.887146,1098.25158 L184.681136,1098.25158 C190.729444,1098.25158 194.126439,1100.48863 194.126439,1104.21704 L194.126439,1104.38274 C194.126439,1107.94545 191.226566,1110.26534 186.669621,1110.26534 C181.366995,1110.26534 176.975758,1107.86259 172.833081,1103.63706 L162.724949,1113.74519 C168.35899,1119.95921 176.230076,1124.01903 187.415303,1124.01903 Z M241.601515,1124.01903 C225.030808,1124.01903 214.839823,1110.43105 214.839823,1094.02605 L214.839823,1093.86034 C214.839823,1077.45534 225.279369,1063.70166 241.767222,1063.70166 C258.255076,1063.70166 268.528914,1077.28964 268.528914,1093.69464 L268.528914,1093.86034 C268.528914,1110.26534 258.172222,1124.01903 241.601515,1124.01903 Z M241.767222,1109.76822 C248.229798,1109.76822 252.372475,1103.22279 252.372475,1094.02605 L252.372475,1093.86034 C252.372475,1084.6636 247.981237,1077.95247 241.601515,1077.95247 C235.221793,1077.95247 230.996263,1084.41504 230.996263,1093.69464 L230.996263,1093.86034 C230.996263,1103.13994 235.304646,1109.76822 241.767222,1109.76822 Z M282.945429,1122.85908 L298.770454,1122.85908 L298.770454,1064.44734 L287.088106,1064.44734 L270.103131,1069.25284 L273.168712,1081.68088 L282.945429,1079.44383 L282.945429,1122.85908 Z M308.298611,1122.85908 L326.029268,1122.85908 L351.63101,1076.95822 L351.63101,1064.86161 L306.972954,1064.86161 L306.972954,1078.36673 L333.8175,1078.36673 L308.298611,1122.85908 Z" id="3017" fill="#122442"></path>
                <g id="Group-1029" transform="translate(890.344697, 508.387255)" stroke="#FFFFFF" stroke-width="4.14267677">
                    <path d="M59.3003466,7.788 L90.1094337,7.788" id="Stroke-1015"></path>
                    <polyline id="Stroke-1017" points="10.0169924 5.71692157 10.0169924 10.3975588 5.01678157 10.3975588 10.0169924 10.3975588 0.00828535354 10.3975588"></polyline>
                    <polyline id="Stroke-1019" points="418.936473 0.721066176 418.936473 7.78758578 111.860558 7.78758578"></polyline>
                    <path d="M211.284801,26.0797647 L211.284801,6.40451961" id="Stroke-1021"></path>
                    <path d="M401.847932,15.1863064 L401.847932,7.78841422" id="Stroke-1023"></path>
                    <polyline id="Stroke-1025" points="485.737136 17.7913088 485.737136 6.40451961 468.648595 6.40451961 485.737136 6.40451961 585.857348 6.40451961"></polyline>
                    <polyline id="Stroke-1027" points="468.648595 0.721066176 468.648595 6.40410539 481.602745 6.40410539 552.019965 6.40410539 552.019965 20.2057721"></polyline>
                </g>
                <path d="M824.061869,813.906863 L931.771465,813.906863" id="Path-23" stroke="#FFAE7E" stroke-width="8.28535354"></path>
                <path d="M1412.32197,382.244412 L1623.59848,382.244412" id="Path-23-Copy-7" stroke="#CFD3EC" stroke-width="8.28535354"></path>
                <polyline id="Path-23-Copy-5" stroke="#8088C3" stroke-width="8.28535354" points="427.683 605.22549 510.187927 605.22549 510.187927 402.917934"></polyline>
                <path d="M418.079545,1041.72549 L418.079545,1331.67647" id="Path-23-Copy" stroke="#B5BADE" stroke-width="8.28535354"></path>
                <path d="M637.641414,1041.72549 L637.641414,1331.67647" id="Path-23-Copy-2" stroke="#B5BADE" stroke-width="8.28535354"></path>
            </g>
            <g id="Group" transform="translate(104.000000, 143.000000)" fill="#FFFFFF">
                <path d="M38.8878335,137.90324 L74.5970168,137.90324 L74.5970168,40.3472234 L113.251287,40.3472234 L113.251287,9.05567107 L0.233562968,9.05567107 L0.233562968,40.3472234 L38.8878335,40.3472234 L38.8878335,137.90324 Z M138.897064,137.90324 L174.606247,137.90324 L174.606247,88.9411636 L220.439168,88.9411636 L220.439168,137.90324 L256.148351,137.90324 L256.148351,9.05567107 L220.439168,9.05567107 L220.439168,57.2814753 L174.606247,57.2814753 L174.606247,9.05567107 L138.897064,9.05567107 L138.897064,137.90324 Z M289.709049,137.90324 L325.6023,137.90324 L325.6023,9.05567107 L289.709049,9.05567107 L289.709049,137.90324 Z M359.162999,137.90324 L359.162999,9.05567107 L420.089492,9.05567107 C439.784763,9.05567107 453.405792,14.2095738 462.056986,23.0448357 C469.603772,30.4075539 473.469199,40.3472234 473.469199,53.0479123 L473.469199,53.4160483 C473.469199,73.1113195 462.977325,86.1801443 446.963413,92.9906586 L477.702762,137.90324 L436.47154,137.90324 L410.517958,98.8808332 L394.872182,98.8808332 L394.872182,137.90324 L359.162999,137.90324 Z M394.872182,70.902504 L418.43288,70.902504 C430.581365,70.902504 437.575948,65.0123294 437.575948,55.6248637 L437.575948,55.2567278 C437.575948,45.1329903 430.213229,39.9790875 418.248812,39.9790875 L394.872182,39.9790875 L394.872182,70.902504 Z M501.507858,137.90324 L501.507858,9.05567107 L551.206206,9.05567107 C597.223195,9.05567107 623.913049,35.5614566 623.913049,72.7431835 L623.913049,73.1113195 C623.913049,110.293046 596.855059,137.90324 550.469935,137.90324 L501.507858,137.90324 Z M537.217042,106.243551 L551.75841,106.243551 C573.110293,106.243551 587.283526,94.4632022 587.283526,73.6635233 L587.283526,73.2953874 C587.283526,52.6797764 573.110293,40.7153594 551.75841,40.7153594 L537.217042,40.7153594 L537.217042,106.243551 Z M713.306668,137.90324 L749.015851,137.90324 L749.015851,91.8862509 L809.942344,91.8862509 L809.942344,62.2513101 L749.015851,62.2513101 L749.015851,40.3472234 L816.384723,40.3472234 L816.384723,9.05567107 L713.306668,9.05567107 L713.306668,137.90324 Z M842.582703,137.90324 L940.690923,137.90324 L940.690923,106.611687 L878.291886,106.611687 L878.291886,9.05567107 L842.582703,9.05567107 L842.582703,137.90324 Z M1023.39776,140.480191 C983.639087,140.480191 954.188214,110.84525 954.188214,73.8475913 L954.188214,73.4794554 C954.188214,36.4817964 984.007223,6.4787197 1023.7659,6.4787197 C1063.52458,6.4787197 1092.97545,36.1136605 1092.97545,73.1113195 L1092.97545,73.4794554 C1092.97545,110.477114 1063.15644,140.480191 1023.39776,140.480191 Z M1023.7659,108.268299 C1043.46117,108.268299 1056.53,92.4384547 1056.53,73.8475913 L1056.53,73.4794554 C1056.53,54.8885919 1043.09304,38.6906118 1023.39776,38.6906118 C1003.88656,38.6906118 990.817737,54.520456 990.817737,73.1113195 L990.817737,73.4794554 C990.817737,92.0703188 1004.2547,108.268299 1023.7659,108.268299 Z M1186.35824,140.480191 C1146.59956,140.480191 1117.14868,110.84525 1117.14868,73.8475913 L1117.14868,73.4794554 C1117.14868,36.4817964 1146.96769,6.4787197 1186.72637,6.4787197 C1226.48505,6.4787197 1255.93592,36.1136605 1255.93592,73.1113195 L1255.93592,73.4794554 C1255.93592,110.477114 1226.11691,140.480191 1186.35824,140.480191 Z M1186.72637,108.268299 C1206.42164,108.268299 1219.49047,92.4384547 1219.49047,73.8475913 L1219.49047,73.4794554 C1219.49047,54.8885919 1206.05351,38.6906118 1186.35824,38.6906118 C1166.84703,38.6906118 1153.77821,54.520456 1153.77821,73.1113195 L1153.77821,73.4794554 C1153.77821,92.0703188 1167.21517,108.268299 1186.72637,108.268299 Z M1284.52679,137.90324 L1284.52679,9.05567107 L1345.45328,9.05567107 C1365.14855,9.05567107 1378.76958,14.2095738 1387.42077,23.0448357 C1394.96756,30.4075539 1398.83299,40.3472234 1398.83299,53.0479123 L1398.83299,53.4160483 C1398.83299,73.1113195 1388.34111,86.1801443 1372.3272,92.9906586 L1403.06655,137.90324 L1361.83533,137.90324 L1335.88175,98.8808332 L1320.23597,98.8808332 L1320.23597,137.90324 L1284.52679,137.90324 Z M1320.23597,70.902504 L1343.79667,70.902504 C1355.94515,70.902504 1362.93974,65.0123294 1362.93974,55.6248637 L1362.93974,55.2567278 C1362.93974,45.1329903 1355.57702,39.9790875 1343.6126,39.9790875 L1320.23597,39.9790875 L1320.23597,70.902504 Z" id="THIRD-FLOOR"></path>
                <path d="M1845.27884,0 C1851.29485,13.5537426 1857.30269,27.1156649 1863.33915,40.6694075 C1868.00964,51.1598571 1872.72103,61.6339472 1877.37925,72.1325765 C1877.915,73.3431702 1879.24417,75.0404554 1878.45076,75.7929867 C1877.56738,76.6314047 1876.05417,75.1222523 1874.90086,74.5251351 C1865.5926,69.7236584 1856.30888,64.8812833 1847.06606,59.9693808 C1845.49969,59.1391425 1844.23187,59.1391425 1842.66549,59.9693808 C1833.11594,65.0326075 1823.51322,70.0099475 1813.92686,75.0118265 C1813.38292,75.2981156 1812.83489,75.5884945 1812.26642,75.8257055 C1811.91879,75.9729399 1811.50164,76.3001274 1811.1581,75.9238617 C1810.84319,75.576225 1811.06813,75.1590609 1811.2358,74.7787054 C1812.68766,71.4577522 1814.1109,68.1286193 1815.57911,64.8158458 C1820.39683,53.936861 1825.21455,43.066056 1830.05272,32.2034307 C1834.19972,22.8990359 1838.37944,13.6069106 1842.5428,4.31069545 C1843.1808,2.87925009 1843.8188,1.43962504 1844.45271,0 L1845.27884,0 Z" id="Fill-1911"></path>
                <polygon id="N" points="1821.56489 138 1835.7013 138 1835.7013 109.727162 1857.71583 138 1870.23245 138 1870.23245 86.4609726 1856.09603 86.4609726 1856.09603 113.70303 1834.89141 86.4609726 1821.56489 86.4609726"></polygon>
            </g>
        </g>
    </g>
</svg>