<?xml version="1.0" encoding="UTF-8" standalone="no"?>
<svg width="2160px" height="2160px" viewBox="0 0 2160 2160" version="1.1" xmlns="http://www.w3.org/2000/svg" xmlns:xlink="http://www.w3.org/1999/xlink">
    <!-- Generator: Sketch 42 (36781) - http://www.bohemiancoding.com/sketch -->
    <title>kenney_gym_annex copy</title>
    <desc>Created with Sketch.</desc>
    <defs>
        <polygon id="path-1" points="329 271.971521 329 41.9977579 232.979216 41.9977579 232.979216 20.9999897 111.98347 20.9999897 111.98347 42.0245888 0.960122522 42.0245888 0.960122522 272.02009 111.162364 272.02009 111.162364 286.12026 227.102736 286.12026 227.102736 271.971521"></polygon>
        <polygon id="path-2" points="632.44769 1502.82032 632.44769 1168.37668 612.383293 1168.37668 612.383293 1098.18903 582.286785 1098.18903 582.286785 1049.34829 512.541323 1049.34829 512.541323 1093.19269 456.72925 1093.19269 456.72925 1033 112 1033 112 1278.87182 230.976236 1278.87182 230.976236 1359.02838 306.864008 1359.02838 306.864008 1334.60005 374.955289 1334.60005 374.955289 1365.81476 397.527681 1365.81476 397.527681 1523.15365 371.174167 1523.15365 371.174167 1553.00837 611.794112 1553.00837 611.794112 1502.82032"></polygon>
        <polygon id="path-3" points="932 1432 932 1270.62411 941.7002 1270.62411 941.7002 1228.97843 932 1228.97843 932 1065.86761 1331.11674 1065.86761 1337.17494 1091.02837 1355.3948 1091.02837 1366.67376 1065 1572.31435 1065 1553.2104 1106.64539 1532.36964 1106.64539 1532.36964 1120.5272 1506.35934 1182.99527 1522.84397 1202.95035 1522.84397 1432"></polygon>
        <polygon id="path-4" points="932 1629.41645 932 1994.01069 1588.42675 1994.01069 1588.42675 1916.84988 1565.83761 1916.84988 1565.83761 1857.17377 1597 1857.17377 1597 1697.80766 1435.98999 1697.80766 1435.98999 1755.8521 1320.71575 1755.8521 1320.71575 1648.34836 1028.11311 1648.34836 1028.11311 1629.41645"></polygon>
        <polygon id="path-5" points="519.307868 903.008375 519.307868 668.440599 503.274036 668.440599 503.274036 652.775685 508.639283 652.775685 508.639283 568.57095 525.08657 568.57095 525.08657 498.400845 48.7106623 498.400845 48.7106623 576.830941 80.9626965 576.830941 80.9626965 592.537131 71.0457629 592.537131 71.0457629 667.643622 305.497405 667.643622 305.497405 800.55176 75.9455679 800.55176 75.9455679 821.187491 33 821.187491 33 888.964787 71.0780439 888.964787 71.0780439 903.008375"></polygon>
        <polygon id="path-6" points="1756 1063.76187 1756 1363.96832 1775.79459 1363.96832 1775.79459 1399.92806 1794.65 1408.90469 1787.45931 1469.12679 1838.76394 1469.12679 1838.76394 1515 2352.87871 1515 2352.87871 1462.80568 2438.25918 1462.80568 2438.25918 1323.51251 2465.18263 1315.42561 2457.99193 1286.66282 2438.21751 1293.85351 2438.21751 1186.89188 2407.64382 1186.89188 2407.64382 1214.7699 2374.38829 1214.7699 2334.85122 1144.64652 2236.87795 1196.77909 2246.76516 1209.36281 2191.93609 1248.01281 2198.22795 1302.84189 2091.26631 1336.9977 2091.26631 1353.17678 1942.91458 1353.17678 1942.91458 1196.77908 1957.58942 1196.77908 1967.22676 1101.50233 1948.35118 1097.90698 1953.74421 1052.06628 1921.38606 1047.5721 1923.18374 1028.69651 1890.82559 1026 1890.82559 1063.76187"></polygon>
    </defs>
    <g id="New-Maps" stroke="none" stroke-width="1" fill="none" fill-rule="evenodd">
        <g id="kenney_gym_annex-copy">
            <polygon id="Fill-1549" fill="#142442" points="0 2160 2160 2160 2160 0 0 0"></polygon>
            <path d="M634.16663,463 C600.470513,521.196562 580,599.803778 580,686 C580,807.549564 623.31985,922.574103 688,978.474457 L688,1447.48161 C688,1496.45643 722.412409,1537.06769 767,1542.40539 L767,2068 L787,2068 L787,1542.40569 C831.594319,1537.0697 866,1496.46475 866,1447.48161 L866,978.705232 C932.393202,923.403206 977,808.547824 977,686 C977,599.803778 956.529487,521.196562 922.83337,463 L899.444941,463 C934.681526,518.408775 957,597.64241 957,686 C957,807.58836 911.208865,920.668826 846.045488,968.966085 L846.070625,969 L846,969 L846,1447.48161 C846,1489.36232 814.928865,1523 777,1523 C739.079687,1523 708,1489.3539 708,1447.48161 L708,969.202237 L708.098206,969.074605 C644.549877,920.177255 600,806.717091 600,686 C600,597.64241 622.318474,518.408775 657.555059,463 L634.16663,463 Z" id="Combined-Shape" fill="#4C5B94" fill-rule="nonzero"></path>
            <path d="M701,1251 L945,1251" id="Path-65" stroke="#4C5B94" stroke-width="20"></path>
            <g id="Group" transform="translate(-103.000000, 1703.000000)">
                <polygon id="Path-58-Copy" fill="#B5BADE" points="768 263 768 46.9166827 642.996639 46.9166827 642.996639 0.956609629 548.979638 0.956609629 548.979638 42.047714 339.96263 42.047714 339.96263 172.000005 448.074023 172.000005 448.074023 263"></polygon>
                <polygon id="Path-58" stroke="#FFFFFF" stroke-width="12" points="768 263 768 46.9166827 642.996639 46.9166827 642.996639 0.956609629 548.979638 0.956609629 548.979638 42.047714 339.96263 42.047714 339.96263 172.000005 448.074023 172.000005 448.074023 263"></polygon>
                <g id="Path-59" fill="#212E60">
                    <use xlink:href="#path-1"></use>
                    <use stroke="#FFFFFF" stroke-width="12" xlink:href="#path-1"></use>
                </g>
            </g>
            <path d="M482,2031.5 L482,1901.8185" id="Path-56" stroke="#B5BADE" stroke-width="7.637"></path>
            <g id="Path-60" fill="#212E60">
                <use xlink:href="#path-2"></use>
                <use stroke="#8088C3" stroke-width="12" xlink:href="#path-2"></use>
            </g>
            <g id="Path-61" fill="#212E60">
                <use xlink:href="#path-3"></use>
                <use stroke="#8088C3" stroke-width="12" xlink:href="#path-3"></use>
            </g>
            <g id="Path-62" fill="#212E60">
                <use xlink:href="#path-4"></use>
                <use stroke="#8088C3" stroke-width="12" xlink:href="#path-4"></use>
            </g>
            <g id="Path-63" fill="#212E60">
                <use xlink:href="#path-5"></use>
                <use stroke="#8088C3" stroke-width="12" xlink:href="#path-5"></use>
            </g>
            <path d="M180.734822,607 L224.111903,607 L224.111903,594.399264 L195.397497,594.399264 L195.397497,585.922404 L221.057179,585.922404 L221.057179,574.238085 L195.397497,574.238085 L195.397497,566.143067 L223.730062,566.143067 L223.730062,553.54233 L180.734822,553.54233 L180.734822,607 Z M257.408395,608.069153 C269.24545,608.069153 276.042211,602.952491 281.082506,596.002994 L269.932763,588.060711 C266.725303,591.955484 263.441474,594.552 257.866603,594.552 C250.382529,594.552 245.11313,588.289816 245.11313,580.271165 L245.11313,580.118429 C245.11313,572.328883 250.382529,565.99033 257.866603,565.99033 C262.983266,565.99033 266.496198,568.43411 269.550922,572.252515 L280.700665,563.622919 C275.965843,557.055263 268.939978,552.473177 258.019339,552.473177 C241.829302,552.473177 229.83951,564.692073 229.83951,580.271165 L229.83951,580.423901 C229.83951,596.384834 242.134775,608.069153 257.408395,608.069153 Z M287.421058,607 L330.798139,607 L330.798139,594.399264 L302.083733,594.399264 L302.083733,585.922404 L327.743415,585.922404 L327.743415,574.238085 L302.083733,574.238085 L302.083733,566.143067 L330.416298,566.143067 L330.416298,553.54233 L287.421058,553.54233 L287.421058,607 Z M338.358581,607 L338.358581,553.54233 L365.774728,553.54233 C372.495121,553.54233 377.229943,555.222428 380.361036,558.35352 C382.499342,560.491827 383.7976,563.317447 383.7976,566.983116 L383.7976,567.135852 C383.7976,573.321668 380.284667,576.987337 375.549845,579.049275 C382.041134,581.187582 386.165011,584.853251 386.165011,592.108221 L386.165011,592.260957 C386.165011,601.425129 378.680937,607 365.927465,607 L338.358581,607 Z M352.792151,574.84903 L362.10906,574.84903 C366.614778,574.84903 369.134925,573.321668 369.134925,570.190576 L369.134925,570.03784 C369.134925,567.135852 366.843882,565.455754 362.414532,565.455754 L352.792151,565.455754 L352.792151,574.84903 Z M352.792151,595.086576 L364.247366,595.086576 C368.753084,595.086576 371.3496,593.33011 371.3496,590.199018 L371.3496,590.046282 C371.3496,587.144294 369.058557,585.235092 364.09463,585.235092 L352.792151,585.235092 L352.792151,595.086576 Z" id="ECEB" fill="#FFFFFF"></path>
            <path d="M1138.73482,1881 L1138.73482,1827.54233 L1159.35421,1827.54233 C1178.44623,1827.54233 1189.51961,1838.53934 1189.51961,1853.96569 L1189.51961,1854.11843 C1189.51961,1869.54479 1178.2935,1881 1159.04874,1881 L1138.73482,1881 Z M1153.55023,1867.86469 L1159.58331,1867.86469 C1168.44201,1867.86469 1174.32236,1862.97713 1174.32236,1854.34753 L1174.32236,1854.1948 C1174.32236,1845.64157 1168.44201,1840.67764 1159.58331,1840.67764 L1153.55023,1840.67764 L1153.55023,1867.86469 Z M1222.89247,1882.06915 C1234.72952,1882.06915 1241.52628,1876.95249 1246.56658,1870.00299 L1235.41684,1862.06071 C1232.20938,1865.95548 1228.92555,1868.552 1223.35068,1868.552 C1215.8666,1868.552 1210.5972,1862.28982 1210.5972,1854.27117 L1210.5972,1854.11843 C1210.5972,1846.32888 1215.8666,1839.99033 1223.35068,1839.99033 C1228.46734,1839.99033 1231.98027,1842.43411 1235.035,1846.25251 L1246.18474,1837.62292 C1241.44992,1831.05526 1234.42405,1826.47318 1223.50341,1826.47318 C1207.31338,1826.47318 1195.32358,1838.69207 1195.32358,1854.27117 L1195.32358,1854.4239 C1195.32358,1870.38483 1207.61885,1882.06915 1222.89247,1882.06915 Z M1252.90513,1881 L1293.60933,1881 L1293.60933,1868.01742 L1267.72054,1868.01742 L1267.72054,1827.54233 L1252.90513,1827.54233 L1252.90513,1881 Z" id="DCL" fill="#FFFFFF"></path>
            <path d="M229.734822,2110 L244.550234,2110 L244.550234,2096.17737 L249.972369,2090.14429 L263.413154,2110 L281.206922,2110 L260.282062,2079.52913 L280.519609,2056.54233 L262.954946,2056.54233 L244.550234,2078.23087 L244.550234,2056.54233 L229.734822,2056.54233 L229.734822,2110 Z M285.483535,2110 L328.860616,2110 L328.860616,2097.39926 L300.14621,2097.39926 L300.14621,2088.9224 L325.805892,2088.9224 L325.805892,2077.23809 L300.14621,2077.23809 L300.14621,2069.14307 L328.478775,2069.14307 L328.478775,2056.54233 L285.483535,2056.54233 L285.483535,2110 Z M336.421058,2110 L351.083733,2110 L351.083733,2080.67465 L373.917795,2110 L386.900372,2110 L386.900372,2056.54233 L372.237697,2056.54233 L372.237697,2084.79853 L350.243684,2056.54233 L336.421058,2056.54233 L336.421058,2110 Z M396.370016,2110 L411.032692,2110 L411.032692,2080.67465 L433.866753,2110 L446.84933,2110 L446.84933,2056.54233 L432.186655,2056.54233 L432.186655,2084.79853 L410.192642,2056.54233 L396.370016,2056.54233 L396.370016,2110 Z M456.318975,2110 L499.696056,2110 L499.696056,2097.39926 L470.98165,2097.39926 L470.98165,2088.9224 L496.641332,2088.9224 L496.641332,2077.23809 L470.98165,2077.23809 L470.98165,2069.14307 L499.314215,2069.14307 L499.314215,2056.54233 L456.318975,2056.54233 L456.318975,2110 Z M522.682854,2110 L537.574633,2110 L537.574633,2089.76245 L557.888548,2056.54233 L541.31667,2056.54233 L530.243296,2076.0162 L519.246289,2056.54233 L502.368939,2056.54233 L522.682854,2089.99156 L522.682854,2110 Z M610.888009,2111.06915 C620.586758,2111.06915 628.452672,2107.47985 634.103912,2102.8214 L634.103912,2078.76545 L609.513383,2078.76545 L609.513383,2089.60972 L620.052181,2089.60972 L620.052181,2096.10101 C617.837506,2097.552 615.088255,2098.31568 611.498954,2098.31568 C603.022095,2098.31568 596.989015,2092.12986 596.989015,2083.50027 L596.989015,2083.34753 C596.989015,2075.17615 602.945727,2068.68486 610.658905,2068.68486 C615.928304,2068.68486 619.746709,2070.51769 623.565114,2073.72515 L632.271077,2063.26272 C626.619838,2058.37516 619.975813,2055.47318 610.582537,2055.47318 C594.010659,2055.47318 581.791763,2067.69207 581.791763,2083.27117 L581.791763,2083.4239 C581.791763,2099.61394 594.239763,2111.06915 610.888009,2111.06915 Z M657.778023,2110 L672.669802,2110 L672.669802,2089.76245 L692.983717,2056.54233 L676.411839,2056.54233 L665.338464,2076.0162 L654.341458,2056.54233 L637.464108,2056.54233 L657.778023,2089.99156 L657.778023,2110 Z M697.565803,2110 L712.075742,2110 L712.075742,2079.45276 L725.669263,2100.22488 L725.974736,2100.22488 L739.644626,2079.30002 L739.644626,2110 L754.383669,2110 L754.383669,2056.54233 L738.728209,2056.54233 L725.974736,2077.23809 L713.221263,2056.54233 L697.565803,2056.54233 L697.565803,2110 Z" id="KENNEY-GYM" fill="#B5BADE"></path>
            <g id="Group-2" transform="translate(111.000000, 144.000000)" fill="#FFFFFF">
                <path d="M0.412213217,137.90324 L36.1213965,137.90324 L36.1213965,104.58694 L49.1902213,90.0455713 L81.5861814,137.90324 L124.474015,137.90324 L74.0393953,64.4601256 L122.817403,9.05567107 L80.4817737,9.05567107 L36.1213965,61.3309703 L36.1213965,9.05567107 L0.412213217,9.05567107 L0.412213217,137.90324 Z M144.78182,137.90324 L249.332419,137.90324 L249.332419,107.532027 L180.122868,107.532027 L180.122868,87.100484 L241.969701,87.100484 L241.969701,58.9380869 L180.122868,58.9380869 L180.122868,39.4268837 L248.412079,39.4268837 L248.412079,9.05567107 L144.78182,9.05567107 L144.78182,137.90324 Z M277.555147,137.90324 L312.896194,137.90324 L312.896194,67.2211449 L367.932512,137.90324 L399.224065,137.90324 L399.224065,9.05567107 L363.883017,9.05567107 L363.883017,77.1608145 L310.871446,9.05567107 L277.555147,9.05567107 L277.555147,137.90324 Z M432.048491,137.90324 L467.389539,137.90324 L467.389539,67.2211449 L522.425857,137.90324 L553.71741,137.90324 L553.71741,9.05567107 L518.376362,9.05567107 L518.376362,77.1608145 L465.364791,9.05567107 L432.048491,9.05567107 L432.048491,137.90324 Z M586.541836,137.90324 L691.092435,137.90324 L691.092435,107.532027 L621.882883,107.532027 L621.882883,87.100484 L683.729716,87.100484 L683.729716,58.9380869 L621.882883,58.9380869 L621.882883,39.4268837 L690.172095,39.4268837 L690.172095,9.05567107 L586.541836,9.05567107 L586.541836,137.90324 Z M756.496889,137.90324 L792.39014,137.90324 L792.39014,89.1252315 L841.352216,9.05567107 L801.40947,9.05567107 L774.719617,55.9929996 L748.213831,9.05567107 L707.534813,9.05567107 L756.496889,89.6774354 L756.496889,137.90324 Z M989.095377,140.480191 C1012.47201,140.480191 1031.43101,131.828997 1045.05204,120.600852 L1045.05204,62.619446 L985.782154,62.619446 L985.782154,88.7570956 L1011.18353,88.7570956 L1011.18353,104.402872 C1005.84556,107.900163 999.219115,109.740843 990.567921,109.740843 C970.136378,109.740843 955.595009,94.8313382 955.595009,74.0316592 L955.595009,73.6635233 C955.595009,53.9682521 969.95231,38.3224759 988.543173,38.3224759 C1001.24386,38.3224759 1010.44726,42.7401069 1019.65066,50.470961 L1040.6344,25.2536511 C1027.01338,13.473302 1010.99946,6.4787197 988.359105,6.4787197 C948.416359,6.4787197 918.965486,35.9295925 918.965486,73.4794554 L918.965486,73.8475913 C918.965486,112.869998 948.968563,140.480191 989.095377,140.480191 Z M1106.59106,137.90324 L1142.48431,137.90324 L1142.48431,89.1252315 L1191.44639,9.05567107 L1151.50364,9.05567107 L1124.81379,55.9929996 L1098.308,9.05567107 L1057.62899,9.05567107 L1106.59106,89.6774354 L1106.59106,137.90324 Z M1212.49047,137.90324 L1247.46338,137.90324 L1247.46338,64.2760576 L1280.22748,114.342541 L1280.96375,114.342541 L1313.91191,63.9079217 L1313.91191,137.90324 L1349.43703,137.90324 L1349.43703,9.05567107 L1311.7031,9.05567107 L1280.96375,58.9380869 L1250.2244,9.05567107 L1212.49047,9.05567107 L1212.49047,137.90324 Z" id="KENNEY-GYM"></path>
                <path d="M0.58,246 L17.86,246 L17.86,211.44 L44.77,246 L60.07,246 L60.07,183 L42.79,183 L42.79,216.3 L16.87,183 L0.58,183 L0.58,246 Z M76.23,246 L127.35,246 L127.35,231.15 L93.51,231.15 L93.51,221.16 L123.75,221.16 L123.75,207.39 L93.51,207.39 L93.51,197.85 L126.9,197.85 L126.9,183 L76.23,183 L76.23,246 Z M141.26,246 L141.26,183 L171.05,183 C180.68,183 187.34,185.52 191.57,189.84 C195.26,193.44 197.15,198.3 197.15,204.51 L197.15,204.69 C197.15,214.32 192.02,220.71 184.19,224.04 L199.22,246 L179.06,246 L166.37,226.92 L158.72,226.92 L158.72,246 L141.26,246 Z M158.72,213.24 L170.24,213.24 C176.18,213.24 179.6,210.36 179.6,205.77 L179.6,205.59 C179.6,200.64 176,198.12 170.15,198.12 L158.72,198.12 L158.72,213.24 Z M210.97,246 L228.43,246 L228.43,223.5 L258.22,223.5 L258.22,209.01 L228.43,209.01 L228.43,198.3 L261.37,198.3 L261.37,183 L210.97,183 L210.97,246 Z M321.05,246.45 L299.99,183 L318.44,183 L329.42,219.45 L341.57,182.82 L356.6,182.82 L368.75,219.45 L379.73,183 L397.82,183 L376.76,246.45 L361.55,246.45 L348.86,210.18 L336.26,246.45 L321.05,246.45 Z M396.61,246 L423.43,182.55 L440.26,182.55 L467.08,246 L448.36,246 L443.77,234.75 L419.47,234.75 L414.97,246 L396.61,246 Z M424.6,221.16 L438.73,221.16 L431.71,203.25 L424.6,221.16 Z M478.2,246 L478.2,183 L507.99,183 C517.62,183 524.28,185.52 528.51,189.84 C532.2,193.44 534.09,198.3 534.09,204.51 L534.09,204.69 C534.09,214.32 528.96,220.71 521.13,224.04 L536.16,246 L516,246 L503.31,226.92 L495.66,226.92 L495.66,246 L478.2,246 Z M495.66,213.24 L507.18,213.24 C513.12,213.24 516.54,210.36 516.54,205.77 L516.54,205.59 C516.54,200.64 512.94,198.12 507.09,198.12 L495.66,198.12 L495.66,213.24 Z" id="NERF-WAR"></path>
                <path d="M1838.27884,0 C1844.29485,13.5537426 1850.30269,27.1156649 1856.33915,40.6694075 C1861.00964,51.1598571 1865.72103,61.6339472 1870.37925,72.1325765 C1870.915,73.3431702 1872.24417,75.0404554 1871.45076,75.7929867 C1870.56738,76.6314047 1869.05417,75.1222523 1867.90086,74.5251351 C1858.5926,69.7236584 1849.30888,64.8812833 1840.06606,59.9693808 C1838.49969,59.1391425 1837.23187,59.1391425 1835.66549,59.9693808 C1826.11594,65.0326075 1816.51322,70.0099475 1806.92686,75.0118265 C1806.38292,75.2981156 1805.83489,75.5884945 1805.26642,75.8257055 C1804.91879,75.9729399 1804.50164,76.3001274 1804.1581,75.9238617 C1803.84319,75.576225 1804.06813,75.1590609 1804.2358,74.7787054 C1805.68766,71.4577522 1807.1109,68.1286193 1808.57911,64.8158458 C1813.39683,53.936861 1818.21455,43.066056 1823.05272,32.2034307 C1827.19972,22.8990359 1831.37944,13.6069106 1835.5428,4.31069545 C1836.1808,2.87925009 1836.8188,1.43962504 1837.45271,0 L1838.27884,0 Z" id="Fill-1911"></path>
                <polygon id="N" points="1814.56489 138 1828.7013 138 1828.7013 109.727162 1850.71583 138 1863.23245 138 1863.23245 86.4609726 1849.09603 86.4609726 1849.09603 113.70303 1827.89141 86.4609726 1814.56489 86.4609726"></polygon>
            </g>
            <path d="M56,1002 L1432.58127,1002" id="Path-66" stroke="#4C5B94" stroke-width="20"></path>
            <path d="M33,1584 L1409.58127,1584" id="Path-66-Copy-2" stroke="#4C5B94" stroke-width="20"></path>
            <path d="M1234,1001 L1670,1001" id="Path-66-Copy" stroke="#4C5B94" stroke-width="50" stroke-linecap="round"></path>
            <path d="M1041,1584 L2130.04591,1584" id="Path-66-Copy-3" stroke="#4C5B94" stroke-width="50" stroke-linecap="round"></path>
            <path d="M1672,739 L1672,2077.43677" id="Path-66-Copy-4" stroke="#4C5B94" stroke-width="50" stroke-linecap="round"></path>
            <path d="M492,1636 L492,1782.49232" id="Path-67" stroke="#3B9AAC" stroke-width="20"></path>
            <polygon id="Triangle" fill="#3B9AAC" transform="translate(492.000000, 1803.500000) scale(-1, 1) rotate(-180.000000) translate(-492.000000, -1803.500000) " points="492 1766 529 1841 455 1841"></polygon>
            <g id="Path-69" fill="#212E60">
                <use xlink:href="#path-6"></use>
                <use stroke="#8088C3" stroke-width="12" xlink:href="#path-6"></use>
            </g>
            <path d="M1881.73605,1460.91642 C1894.71863,1460.91642 1903.34822,1454.42513 1903.34822,1443.50449 L1903.34822,1443.35175 C1903.34822,1433.34753 1895.71141,1429.37639 1883.41615,1426.70351 C1876.00844,1425.02341 1874.17561,1423.95426 1874.17561,1421.51048 L1874.17561,1421.35774 C1874.17561,1419.44854 1875.93207,1417.92118 1879.52137,1417.92118 C1884.2562,1417.92118 1889.60196,1419.75401 1894.48952,1423.19058 L1901.89723,1412.72815 C1896.09325,1408.06969 1888.99102,1405.62591 1879.90322,1405.62591 C1867.07337,1405.62591 1859.20746,1412.80451 1859.20746,1422.73237 L1859.20746,1422.8851 C1859.20746,1433.88211 1867.98979,1437.08957 1879.36864,1439.68609 C1886.62361,1441.36618 1888.38007,1442.58807 1888.38007,1444.80275 L1888.38007,1444.95548 C1888.38007,1447.24653 1886.24177,1448.62115 1882.27063,1448.62115 C1876.08481,1448.62115 1870.20447,1446.40648 1864.93507,1442.20623 L1856.68731,1452.05772 C1863.25497,1457.93806 1872.26641,1460.91642 1881.73605,1460.91642 Z M1910.8323,1460 L1925.72408,1460 L1925.72408,1406.54233 L1910.8323,1406.54233 L1910.8323,1460 Z M1935.49919,1460 L1978.87627,1460 L1978.87627,1447.39926 L1950.16187,1447.39926 L1950.16187,1438.9224 L1975.82155,1438.9224 L1975.82155,1427.23809 L1950.16187,1427.23809 L1950.16187,1419.14307 L1978.49443,1419.14307 L1978.49443,1406.54233 L1935.49919,1406.54233 L1935.49919,1460 Z M1986.43671,1460 L1986.43671,1406.54233 L2013.85286,1406.54233 C2020.57326,1406.54233 2025.30808,1408.22243 2028.43917,1411.35352 C2030.57748,1413.49183 2031.87573,1416.31745 2031.87573,1419.98312 L2031.87573,1420.13585 C2031.87573,1426.32167 2028.3628,1429.98734 2023.62798,1432.04928 C2030.11927,1434.18758 2034.24315,1437.85325 2034.24315,1445.10822 L2034.24315,1445.26096 C2034.24315,1454.42513 2026.75907,1460 2014.0056,1460 L1986.43671,1460 Z M2000.87029,1427.84903 L2010.18719,1427.84903 C2014.69291,1427.84903 2017.21306,1426.32167 2017.21306,1423.19058 L2017.21306,1423.03784 C2017.21306,1420.13585 2014.92202,1418.45575 2010.49267,1418.45575 L2000.87029,1418.45575 L2000.87029,1427.84903 Z M2000.87029,1448.08658 L2012.3255,1448.08658 C2016.83122,1448.08658 2019.42773,1446.33011 2019.42773,1443.19902 L2019.42773,1443.04628 C2019.42773,1440.14429 2017.13669,1438.23509 2012.17276,1438.23509 L2000.87029,1438.23509 L2000.87029,1448.08658 Z M2041.03991,1460 L2084.41699,1460 L2084.41699,1447.39926 L2055.70258,1447.39926 L2055.70258,1438.9224 L2081.36226,1438.9224 L2081.36226,1427.23809 L2055.70258,1427.23809 L2055.70258,1419.14307 L2084.03515,1419.14307 L2084.03515,1406.54233 L2041.03991,1406.54233 L2041.03991,1460 Z M2091.97743,1460 L2132.68163,1460 L2132.68163,1447.01742 L2106.79284,1447.01742 L2106.79284,1406.54233 L2091.97743,1406.54233 L2091.97743,1460 Z" id="SIEBEL" fill="#FFFFFF"></path>
        </g>
    </g>
</svg>