<?xml version="1.0" encoding="UTF-8" standalone="no"?>
<svg width="2160px" height="2160px" viewBox="0 0 2160 2160" version="1.1" xmlns="http://www.w3.org/2000/svg" xmlns:xlink="http://www.w3.org/1999/xlink">
    <!-- Generator: Sketch 42 (36781) - http://www.bohemiancoding.com/sketch -->
    <title>siebel_basement copy</title>
    <desc>Created with Sketch.</desc>
    <defs></defs>
    <g id="New-Maps" stroke="none" stroke-width="1" fill="none" fill-rule="evenodd">
        <g id="siebel_basement-copy">
            <text id="SECOND-FLOOR" font-family="GothamBlack" font-size="184.067955" font-weight="700" fill="#0A0B09">
                <tspan x="100" y="305.90324">SECOND F</tspan>
                <tspan x="1081.0822" y="305.90324" letter-spacing="-7.38112528">L</tspan>
                <tspan x="1179.72422" y="305.90324">OOR</tspan>
            </text>
            <path d="M1949.27884,168 C1955.29485,181.553743 1961.30269,195.115665 1967.33915,208.669408 C1972.00964,219.159857 1976.72103,229.633947 1981.37925,240.132576 C1981.915,241.34317 1983.24417,243.040455 1982.45076,243.792987 C1981.56738,244.631405 1980.05417,243.122252 1978.90086,242.525135 C1969.5926,237.723658 1960.30888,232.881283 1951.06606,227.969381 C1949.49969,227.139142 1948.23187,227.139142 1946.66549,227.969381 C1937.11594,233.032607 1927.51322,238.009947 1917.92686,243.011827 C1917.38292,243.298116 1916.83489,243.588495 1916.26642,243.825705 C1915.91879,243.97294 1915.50164,244.300127 1915.1581,243.923862 C1914.84319,243.576225 1915.06813,243.159061 1915.2358,242.778705 C1916.68766,239.457752 1918.1109,236.128619 1919.57911,232.815846 C1924.39683,221.936861 1929.21455,211.066056 1934.05272,200.203431 C1938.19972,190.899036 1942.37944,181.606911 1946.5428,172.310695 C1947.1808,170.87925 1947.8188,169.439625 1948.45271,168 L1949.27884,168 Z" id="Fill-1911" fill="#1A1918"></path>
            <text id="N" font-family="GothamBlack" font-size="73.627182" font-weight="700" fill="#1A1918">
                <tspan x="1921" y="306">N</tspan>
            </text>
            <polygon id="Fill-1549" fill="#142442" points="0 2160 2160 2160 2160 0 0 0"></polygon>
            <g id="Group-2" transform="translate(111.000000, 143.000000)" fill="#FFFFFF">
                <path d="M0.412213217,137.90324 L0.412213217,9.05567107 L66.4926091,9.05567107 C82.6905892,9.05567107 94.1028024,13.1051661 101.649589,20.6519522 C106.803491,25.805855 109.932647,32.6163693 109.932647,41.4516312 L109.932647,41.8197671 C109.932647,56.7292714 101.465521,65.5645333 90.0533074,70.5343681 C105.699084,75.6882708 115.638753,84.5235327 115.638753,102.009988 L115.638753,102.378124 C115.638753,124.466279 97.6000935,137.90324 66.860745,137.90324 L0.412213217,137.90324 Z M35.2010567,60.4106305 L57.6573473,60.4106305 C68.5173566,60.4106305 74.5915991,56.7292714 74.5915991,49.1824853 L74.5915991,48.8143494 C74.5915991,41.8197671 69.0695605,37.7702721 58.3936191,37.7702721 L35.2010567,37.7702721 L35.2010567,60.4106305 Z M35.2010567,109.188639 L62.81125,109.188639 C73.6712594,109.188639 79.9295698,104.955076 79.9295698,97.4082895 L79.9295698,97.0401536 C79.9295698,90.0455713 74.4075312,85.4438724 62.4431141,85.4438724 L35.2010567,85.4438724 L35.2010567,109.188639 Z M131.712996,137.90324 L186.565246,8.1353313 L220.985954,8.1353313 L275.838204,137.90324 L237.55207,137.90324 L228.164604,114.894745 L178.466256,114.894745 L169.262858,137.90324 L131.712996,137.90324 Z M188.95813,87.100484 L217.856799,87.100484 L203.499498,50.470961 L188.95813,87.100484 Z M347.132834,140.112055 C378.424386,140.112055 399.224065,124.466279 399.224065,98.1445613 L399.224065,97.7764254 C399.224065,73.6635233 380.817269,64.0919897 351.182329,57.6496112 C333.327737,53.6001162 328.910106,51.0231648 328.910106,45.1329903 L328.910106,44.7648544 C328.910106,40.1631555 333.143669,36.4817964 341.794863,36.4817964 C353.207076,36.4817964 366.091833,40.8994273 377.872182,49.1824853 L395.726774,23.9651754 C381.737609,12.7370302 364.619289,6.84685561 342.715203,6.84685561 C311.791786,6.84685561 292.832787,24.1492434 292.832787,48.0780776 L292.832787,48.4462135 C292.832787,74.951999 314.000602,82.6828531 341.426727,88.9411636 C358.913183,92.9906586 363.146746,95.9357459 363.146746,101.273717 L363.146746,101.641852 C363.146746,107.163891 357.992843,110.477114 348.421309,110.477114 C333.511805,110.477114 319.338572,105.139144 306.637883,95.0154061 L286.758544,118.760172 C302.588388,132.933405 324.308407,140.112055 347.132834,140.112055 Z M426.526453,137.90324 L531.077051,137.90324 L531.077051,107.532027 L461.8675,107.532027 L461.8675,87.100484 L523.714333,87.100484 L523.714333,58.9380869 L461.8675,58.9380869 L461.8675,39.4268837 L530.156711,39.4268837 L530.156711,9.05567107 L426.526453,9.05567107 L426.526453,137.90324 Z M559.299779,137.90324 L594.27269,137.90324 L594.27269,64.2760576 L627.036786,114.342541 L627.773058,114.342541 L660.721222,63.9079217 L660.721222,137.90324 L696.246337,137.90324 L696.246337,9.05567107 L658.512406,9.05567107 L627.773058,58.9380869 L597.033709,9.05567107 L559.299779,9.05567107 L559.299779,137.90324 Z M729.070764,137.90324 L833.621362,137.90324 L833.621362,107.532027 L764.411811,107.532027 L764.411811,87.100484 L826.258644,87.100484 L826.258644,58.9380869 L764.411811,58.9380869 L764.411811,39.4268837 L832.701022,39.4268837 L832.701022,9.05567107 L729.070764,9.05567107 L729.070764,137.90324 Z M861.84409,137.90324 L897.185137,137.90324 L897.185137,67.2211449 L952.221456,137.90324 L983.513008,137.90324 L983.513008,9.05567107 L948.171961,9.05567107 L948.171961,77.1608145 L895.16039,9.05567107 L861.84409,9.05567107 L861.84409,137.90324 Z M1047.81305,137.90324 L1083.52224,137.90324 L1083.52224,40.3472234 L1122.17651,40.3472234 L1122.17651,9.05567107 L1009.15878,9.05567107 L1009.15878,40.3472234 L1047.81305,40.3472234 L1047.81305,137.90324 Z" id="BASEMENT"></path>
                <path d="M1838.27884,0 C1844.29485,13.5537426 1850.30269,27.1156649 1856.33915,40.6694075 C1861.00964,51.1598571 1865.72103,61.6339472 1870.37925,72.1325765 C1870.915,73.3431702 1872.24417,75.0404554 1871.45076,75.7929867 C1870.56738,76.6314047 1869.05417,75.1222523 1867.90086,74.5251351 C1858.5926,69.7236584 1849.30888,64.8812833 1840.06606,59.9693808 C1838.49969,59.1391425 1837.23187,59.1391425 1835.66549,59.9693808 C1826.11594,65.0326075 1816.51322,70.0099475 1806.92686,75.0118265 C1806.38292,75.2981156 1805.83489,75.5884945 1805.26642,75.8257055 C1804.91879,75.9729399 1804.50164,76.3001274 1804.1581,75.9238617 C1803.84319,75.576225 1804.06813,75.1590609 1804.2358,74.7787054 C1805.68766,71.4577522 1807.1109,68.1286193 1808.57911,64.8158458 C1813.39683,53.936861 1818.21455,43.066056 1823.05272,32.2034307 C1827.19972,22.8990359 1831.37944,13.6069106 1835.5428,4.31069545 C1836.1808,2.87925009 1836.8188,1.43962504 1837.45271,0 L1838.27884,0 Z" id="Fill-1911"></path>
                <polygon id="N" points="1814.56489 138 1828.7013 138 1828.7013 109.727162 1850.71583 138 1863.23245 138 1863.23245 86.4609726 1849.09603 86.4609726 1849.09603 113.70303 1827.89141 86.4609726 1814.56489 86.4609726"></polygon>
            </g>
            <g id="Group-5" transform="translate(169.000000, 637.000000)">
                <rect id="Rectangle" fill="#3B9AAC" x="1269.41982" y="515.469095" width="302.494881" height="392.910067"></rect>
                <path d="M1196.89942,1071.41375 L1177.53614,1013.07566 L1194.4997,1013.07566 L1204.59508,1046.58903 L1215.7662,1012.91016 L1229.5853,1012.91016 L1240.75642,1046.58903 L1250.8518,1013.07566 L1267.48436,1013.07566 L1248.12108,1071.41375 L1234.13649,1071.41375 L1222.46888,1038.06588 L1210.88401,1071.41375 L1196.89942,1071.41375 Z M1298.43251,1072.15849 C1280.55871,1072.15849 1267.31887,1058.83589 1267.31887,1042.20333 L1267.31887,1042.03783 C1267.31887,1025.40527 1280.72421,1011.91718 1298.59801,1011.91718 C1316.4718,1011.91718 1329.71165,1025.23977 1329.71165,1041.87233 L1329.71165,1042.03783 C1329.71165,1058.67039 1316.30631,1072.15849 1298.43251,1072.15849 Z M1298.59801,1057.6774 C1307.45216,1057.6774 1313.32734,1050.56098 1313.32734,1042.20333 L1313.32734,1042.03783 C1313.32734,1033.68018 1307.28666,1026.39826 1298.43251,1026.39826 C1289.66111,1026.39826 1283.78593,1033.51468 1283.78593,1041.87233 L1283.78593,1042.03783 C1283.78593,1050.39549 1289.82661,1057.6774 1298.59801,1057.6774 Z M1336.82807,1071 L1336.82807,1013.07566 L1364.21801,1013.07566 C1373.07216,1013.07566 1379.19559,1015.39264 1383.08479,1019.36459 C1386.4775,1022.67455 1388.21523,1027.143 1388.21523,1032.85269 L1388.21523,1033.01818 C1388.21523,1041.87233 1383.49854,1047.74752 1376.29937,1050.80923 L1390.11846,1071 L1371.58267,1071 L1359.91506,1053.4572 L1352.88139,1053.4572 L1352.88139,1071 L1336.82807,1071 Z M1352.88139,1040.87934 L1363.47327,1040.87934 C1368.9347,1040.87934 1372.07917,1038.23137 1372.07917,1034.01117 L1372.07917,1033.84567 C1372.07917,1029.29448 1368.76921,1026.9775 1363.39052,1026.9775 L1352.88139,1026.9775 L1352.88139,1040.87934 Z M1395.0834,1071 L1395.0834,1013.07566 L1411.13672,1013.07566 L1411.13672,1036.57639 L1431.07924,1013.07566 L1450.11153,1013.07566 L1428.18303,1037.98313 L1450.85627,1071 L1431.57574,1071 L1417.0119,1049.48525 L1411.13672,1056.02242 L1411.13672,1071 L1395.0834,1071 Z M1476.17748,1071.99299 C1465.9166,1071.99299 1456.15221,1068.76578 1449.03579,1062.3941 L1457.97269,1051.71947 C1463.68237,1056.27067 1470.05405,1058.67039 1476.75672,1058.67039 C1481.05967,1058.67039 1483.37665,1057.18091 1483.37665,1054.69844 L1483.37665,1054.53294 C1483.37665,1052.13322 1481.47342,1050.80923 1473.61226,1048.98875 C1461.28265,1046.17528 1451.76651,1042.69982 1451.76651,1030.78396 L1451.76651,1030.61846 C1451.76651,1019.86108 1460.28966,1012.08267 1474.1915,1012.08267 C1484.03864,1012.08267 1491.7343,1014.73064 1498.02323,1019.77834 L1489.99657,1031.11496 C1484.70063,1027.39125 1478.9082,1025.40527 1473.77776,1025.40527 C1469.88855,1025.40527 1467.98532,1027.06025 1467.98532,1029.12898 L1467.98532,1029.29448 C1467.98532,1031.94245 1469.9713,1033.10093 1477.99796,1034.92141 C1491.32055,1037.81763 1499.59546,1042.12058 1499.59546,1052.96071 L1499.59546,1053.1262 C1499.59546,1064.95932 1490.24482,1071.99299 1476.17748,1071.99299 Z M1506.13264,1071 L1522.18595,1071 L1522.18595,1048.98875 L1542.79047,1048.98875 L1542.79047,1071 L1558.84378,1071 L1558.84378,1013.07566 L1542.79047,1013.07566 L1542.79047,1034.75591 L1522.18595,1034.75591 L1522.18595,1013.07566 L1506.13264,1013.07566 L1506.13264,1071 Z M1596.9911,1072.15849 C1579.1173,1072.15849 1565.87745,1058.83589 1565.87745,1042.20333 L1565.87745,1042.03783 C1565.87745,1025.40527 1579.2828,1011.91718 1597.1566,1011.91718 C1615.03039,1011.91718 1628.27024,1025.23977 1628.27024,1041.87233 L1628.27024,1042.03783 C1628.27024,1058.67039 1614.86489,1072.15849 1596.9911,1072.15849 Z M1597.1566,1057.6774 C1606.01074,1057.6774 1611.88593,1050.56098 1611.88593,1042.20333 L1611.88593,1042.03783 C1611.88593,1033.68018 1605.84525,1026.39826 1596.9911,1026.39826 C1588.2197,1026.39826 1582.34451,1033.51468 1582.34451,1041.87233 L1582.34451,1042.03783 C1582.34451,1050.39549 1588.3852,1057.6774 1597.1566,1057.6774 Z M1635.38666,1071 L1635.38666,1013.07566 L1660.21137,1013.07566 C1674.85796,1013.07566 1684.29135,1020.60583 1684.29135,1033.43193 L1684.29135,1033.59743 C1684.29135,1047.25102 1673.78222,1054.45019 1659.38388,1054.45019 L1651.43997,1054.45019 L1651.43997,1071 L1635.38666,1071 Z M1651.43997,1041.87233 L1659.05289,1041.87233 C1664.76257,1041.87233 1668.23803,1038.89337 1668.23803,1034.34217 L1668.23803,1034.17667 C1668.23803,1029.21173 1664.76257,1026.56376 1658.97014,1026.56376 L1651.43997,1026.56376 L1651.43997,1041.87233 Z" id="WORKSHOP" fill="#3B9AAC"></path>
                <rect id="Rectangle-Copy-3" fill="#212E60" x="833.355775" y="617.625713" width="436.06405" height="298.611651"></rect>
                <rect id="Rectangle-Copy-4" fill="#212E60" x="970.853448" y="480.107189" width="157.140198" height="74.6529128"></rect>
                <polygon id="Rectangle-Copy-6" fill="#212E60" points="589.788468 444.745283 919.782884 444.745283 919.782884 558.689203 593.716973 558.689203 530.860894 558.689203 530.860894 505.786669 589.788468 505.786669"></polygon>
                <rect id="Rectangle-Copy-5" fill="#212E60" x="1269.41982" y="417.241578" width="306.423386" height="98.2275169"></rect>
                <polygon id="Rectangle-Copy-2" fill="#FFA473" points="1041.56654 303.297659 1461.91657 181.495538 1485.4876 366.16327 1041.56654 366.16327"></polygon>
                <rect id="Rectangle-Copy" fill="#B5BADE" x="530.860894" y="558.689203" width="302.494881" height="349.68996"></rect>
                <rect id="Rectangle-Copy-7" fill="#FFE077" x="358.860894" y="503.689203" width="172" height="239.837129"></rect>
                <path d="M1345.16397,738.886219 C1329.44997,738.886219 1319.78586,726.000739 1319.78586,710.443877 L1319.78586,710.286737 C1319.78586,694.729876 1329.68568,681.687255 1345.32111,681.687255 C1360.95654,681.687255 1370.69922,694.572736 1370.69922,710.129597 L1370.69922,710.286737 C1370.69922,725.843599 1360.87797,738.886219 1345.16397,738.886219 Z M1345.32111,725.372178 C1351.44957,725.372178 1355.37807,719.165148 1355.37807,710.443877 L1355.37807,710.286737 C1355.37807,701.565467 1351.21386,695.201296 1345.16397,695.201296 C1339.11408,695.201296 1335.10701,701.329757 1335.10701,710.129597 L1335.10701,710.286737 C1335.10701,719.086578 1339.19265,725.372178 1345.32111,725.372178 Z M1375.72771,737.786239 L1419.25549,737.786239 L1419.25549,725.372178 L1396.54876,725.372178 L1405.97716,718.772298 C1414.14844,712.879548 1418.7055,708.322487 1418.7055,699.522647 L1418.7055,699.365507 C1418.7055,688.994266 1410.45565,681.844395 1398.43444,681.844395 C1387.74892,681.844395 1381.93474,686.008606 1376.04199,693.629896 L1386.33466,702.194027 C1390.65601,697.244117 1393.5631,695.122726 1397.25589,695.122726 C1400.94868,695.122726 1403.38435,697.244117 1403.38435,700.701197 C1403.38435,704.001137 1401.4201,706.593947 1396.31305,710.601017 L1375.72771,726.315019 L1375.72771,737.786239 Z M1424.75539,737.786239 L1468.28317,737.786239 L1468.28317,725.372178 L1445.57644,725.372178 L1455.00484,718.772298 C1463.17612,712.879548 1467.73318,708.322487 1467.73318,699.522647 L1467.73318,699.365507 C1467.73318,688.994266 1459.48333,681.844395 1447.46212,681.844395 C1436.7766,681.844395 1430.96242,686.008606 1425.06967,693.629896 L1435.36234,702.194027 C1439.68369,697.244117 1442.59078,695.122726 1446.28357,695.122726 C1449.97636,695.122726 1452.41203,697.244117 1452.41203,700.701197 C1452.41203,704.001137 1450.44778,706.593947 1445.34073,710.601017 L1424.75539,726.315019 L1424.75539,737.786239 Z M1500.18259,737.786239 L1500.18259,727.100719 L1473.54736,727.100719 L1471.03312,716.336628 L1499.55403,682.394385 L1514.95375,682.394385 L1514.95375,715.708068 L1521.94649,715.708068 L1521.94649,727.100719 L1514.95375,727.100719 L1514.95375,737.786239 L1500.18259,737.786239 Z M1487.0614,715.786638 L1500.18259,715.786638 L1500.18259,699.994067 L1487.0614,715.786638 Z" id="0224" fill="#FFFFFF"></path>
                <path d="M1089.8116,94.5071765 C1074.0976,94.5071765 1064.43349,81.6216956 1064.43349,66.0648345 L1064.43349,65.9076945 C1064.43349,50.3508334 1074.33331,37.3082125 1089.96874,37.3082125 C1105.60417,37.3082125 1115.34686,50.1936934 1115.34686,65.7505545 L1115.34686,65.9076945 C1115.34686,81.4645556 1105.5256,94.5071765 1089.8116,94.5071765 Z M1089.96874,80.9931355 C1096.0972,80.9931355 1100.0257,74.7861051 1100.0257,66.0648345 L1100.0257,65.9076945 C1100.0257,57.1864239 1095.86149,50.8222534 1089.8116,50.8222534 C1083.76171,50.8222534 1079.75464,56.9507139 1079.75464,65.7505545 L1079.75464,65.9076945 C1079.75464,74.7075351 1083.84028,80.9931355 1089.96874,80.9931355 Z M1120.37534,93.4071964 L1163.90312,93.4071964 L1163.90312,80.9931355 L1141.19639,80.9931355 L1150.62479,74.3932551 C1158.79607,68.5005047 1163.35313,63.9434443 1163.35313,55.1436037 L1163.35313,54.9864637 C1163.35313,44.615223 1155.10328,37.4653525 1143.08207,37.4653525 C1132.39655,37.4653525 1126.58237,41.6295628 1120.68962,49.2508533 L1130.98229,57.8149839 C1135.30364,52.8650736 1138.21073,50.7436834 1141.90352,50.7436834 C1145.59631,50.7436834 1148.03198,52.8650736 1148.03198,56.3221538 C1148.03198,59.622094 1146.06773,62.2149042 1140.96068,66.2219745 L1120.37534,81.9359756 L1120.37534,93.4071964 Z M1195.40969,94.5071765 C1179.69569,94.5071765 1170.03158,81.6216956 1170.03158,66.0648345 L1170.03158,65.9076945 C1170.03158,50.3508334 1179.9314,37.3082125 1195.56683,37.3082125 C1211.20226,37.3082125 1220.94494,50.1936934 1220.94494,65.7505545 L1220.94494,65.9076945 C1220.94494,81.4645556 1211.12369,94.5071765 1195.40969,94.5071765 Z M1195.56683,80.9931355 C1201.69529,80.9931355 1205.62379,74.7861051 1205.62379,66.0648345 L1205.62379,65.9076945 C1205.62379,57.1864239 1201.45958,50.8222534 1195.40969,50.8222534 C1189.3598,50.8222534 1185.35273,56.9507139 1185.35273,65.7505545 L1185.35273,65.9076945 C1185.35273,74.7075351 1189.43837,80.9931355 1195.56683,80.9931355 Z M1252.76579,94.5071765 C1237.05179,94.5071765 1227.38768,81.6216956 1227.38768,66.0648345 L1227.38768,65.9076945 C1227.38768,50.3508334 1237.2875,37.3082125 1252.92293,37.3082125 C1268.55837,37.3082125 1278.30105,50.1936934 1278.30105,65.7505545 L1278.30105,65.9076945 C1278.30105,81.4645556 1268.4798,94.5071765 1252.76579,94.5071765 Z M1252.92293,80.9931355 C1259.05139,80.9931355 1262.9799,74.7861051 1262.9799,66.0648345 L1262.9799,65.9076945 C1262.9799,57.1864239 1258.81568,50.8222534 1252.76579,50.8222534 C1246.7159,50.8222534 1242.70883,56.9507139 1242.70883,65.7505545 L1242.70883,65.9076945 C1242.70883,74.7075351 1246.79447,80.9931355 1252.92293,80.9931355 Z M1286.39376,93.4071964 L1301.63634,93.4071964 L1301.63634,72.5075749 L1321.20027,72.5075749 L1321.20027,93.4071964 L1336.44285,93.4071964 L1336.44285,38.4081926 L1321.20027,38.4081926 L1321.20027,58.993534 L1301.63634,58.993534 L1301.63634,38.4081926 L1286.39376,38.4081926 L1286.39376,93.4071964 Z" id="0200H" fill="#FFAE7E"></path>
                <path d="M1092.60802,157.988838 L1104.80208,157.988838 L1104.80208,142.274837 L1125.60742,142.274837 L1125.60742,132.15502 L1104.80208,132.15502 L1104.80208,124.675156 L1127.80738,124.675156 L1127.80738,113.989635 L1092.60802,113.989635 L1092.60802,157.988838 Z M1159.39252,158.868822 C1145.81563,158.868822 1135.75867,148.749005 1135.75867,136.114949 L1135.75867,135.989237 C1135.75867,123.35518 1145.94134,113.109651 1159.51824,113.109651 C1173.09513,113.109651 1183.15209,123.229468 1183.15209,135.863525 L1183.15209,135.989237 C1183.15209,148.623293 1172.96942,158.868822 1159.39252,158.868822 Z M1159.51824,147.869021 C1166.24383,147.869021 1170.70661,142.463405 1170.70661,136.114949 L1170.70661,135.989237 C1170.70661,129.64078 1166.11812,124.109452 1159.39252,124.109452 C1152.72979,124.109452 1148.26701,129.515068 1148.26701,135.863525 L1148.26701,135.989237 C1148.26701,142.337693 1152.8555,147.869021 1159.51824,147.869021 Z M1215.55436,158.868822 C1201.97747,158.868822 1191.92051,148.749005 1191.92051,136.114949 L1191.92051,135.989237 C1191.92051,123.35518 1202.10318,113.109651 1215.68008,113.109651 C1229.25697,113.109651 1239.31393,123.229468 1239.31393,135.863525 L1239.31393,135.989237 C1239.31393,148.623293 1229.13126,158.868822 1215.55436,158.868822 Z M1215.68008,147.869021 C1222.40567,147.869021 1226.86845,142.463405 1226.86845,136.114949 L1226.86845,135.989237 C1226.86845,129.64078 1222.27996,124.109452 1215.55436,124.109452 C1208.89163,124.109452 1204.42885,129.515068 1204.42885,135.863525 L1204.42885,135.989237 C1204.42885,142.337693 1209.01734,147.869021 1215.68008,147.869021 Z M1249.59089,157.988838 L1249.59089,113.989635 L1266.56201,113.989635 C1282.27601,113.989635 1291.39013,123.0409 1291.39013,135.737812 L1291.39013,135.863525 C1291.39013,148.560437 1282.1503,157.988838 1266.31059,157.988838 L1249.59089,157.988838 Z M1261.78496,147.177605 L1266.75058,147.177605 C1274.04188,147.177605 1278.88179,143.154821 1278.88179,136.052093 L1278.88179,135.926381 C1278.88179,128.886508 1274.04188,124.800868 1266.75058,124.800868 L1261.78496,124.800868 L1261.78496,147.177605 Z" id="FOOD" fill="#FFAE7E"></path>
                <path d="M614.460321,766.390203 C598.74632,766.390203 589.082209,753.504722 589.082209,737.947861 L589.082209,737.790721 C589.082209,722.23386 598.98203,709.191239 614.617461,709.191239 C630.252892,709.191239 639.995573,722.07672 639.995573,737.633581 L639.995573,737.790721 C639.995573,753.347582 630.174322,766.390203 614.460321,766.390203 Z M614.617461,752.876162 C620.745922,752.876162 624.674422,746.669132 624.674422,737.947861 L624.674422,737.790721 C624.674422,729.06945 620.510211,722.70528 614.460321,722.70528 C608.410431,722.70528 604.40336,728.83374 604.40336,737.633581 L604.40336,737.790721 C604.40336,746.590562 608.489001,752.876162 614.617461,752.876162 Z M645.024053,765.290223 L688.551836,765.290223 L688.551836,752.876162 L665.845105,752.876162 L675.273505,746.276282 C683.444786,740.383531 688.001846,735.826471 688.001846,727.02663 L688.001846,726.86949 C688.001846,716.498249 679.751996,709.348379 667.730785,709.348379 C657.045264,709.348379 651.231084,713.512589 645.338333,721.13388 L655.631004,729.69801 C659.952354,724.7481 662.859444,722.62671 666.552235,722.62671 C670.245025,722.62671 672.680695,724.7481 672.680695,728.20518 C672.680695,731.505121 670.716445,734.097931 665.609395,738.105001 L645.024053,753.819002 L645.024053,765.290223 Z M704.265837,765.290223 L719.272708,765.290223 L719.272708,709.898369 L708.194338,709.898369 L692.087486,714.455429 L694.994577,726.24093 L704.265837,724.11954 L704.265837,765.290223 Z M751.407841,766.390203 C743.62941,766.390203 738.52236,764.033103 734.593859,760.104603 C730.508219,756.018962 727.836839,749.811932 727.836839,739.519261 L727.836839,739.362121 C727.836839,722.23386 736.165259,709.191239 753.372091,709.191239 C761.071951,709.191239 766.414712,711.312629 771.678902,715.241129 L764.529031,726.00522 C761.150521,723.49098 758.007721,721.84101 753.607801,721.84101 C747.16506,721.84101 743.94369,726.63378 743.23656,733.547941 C746.14365,731.347981 749.6793,729.30516 755.100631,729.30516 C764.764741,729.30516 773.250302,735.433621 773.250302,746.433422 L773.250302,746.590562 C773.250302,758.926052 763.429051,766.390203 751.407841,766.390203 Z M750.779281,754.526132 C755.572051,754.526132 758.400571,751.461902 758.400571,747.454832 L758.400571,747.297692 C758.400571,743.369191 755.414911,740.226391 750.62214,740.226391 C745.82937,740.226391 743.00085,743.290621 743.00085,747.219122 L743.00085,747.376262 C743.00085,751.383332 745.98651,754.526132 750.779281,754.526132 Z" id="0216" fill="#122442"></path>
                <polyline id="Path-3" stroke="#FFFFFF" stroke-width="11.7855008" points="1579.77172 914.272814 530.831467 914.272814 530.831467 743.356932 358.006676 743.356932 358.006676 503.681793 409.07724 503.681793"></polyline>
                <polyline id="Path" stroke="#FFFFFF" stroke-width="3.92850027" points="471.933319 503.681793 538.717904 503.681793 589.788468 503.681793 589.788468 444.745283 919.876407 444.745283 919.876407 558.760187 589.693275 558.760187 530.831467 558.760187 530.831467 739.427834"></polyline>
                <path d="M310.012829,527.706832 C309.407839,528.425857 308.838206,529.172386 308.186074,529.848192 C307.01538,531.058355 305.644332,531.400187 304.233998,530.323613 C302.984734,529.368842 302.623311,527.907216 303.460083,526.649904 C305.966469,522.874038 308.846063,519.341777 312.126365,516.226 C313.764551,514.670076 315.485237,515.762366 316.758072,517.259353 C319.217316,520.147242 321.641204,523.066564 324.084734,525.974099 C324.469727,526.437732 324.823293,527.502519 325.314356,527.207836 C328.500373,525.278648 330.056061,527.812918 332.26781,530.021072 C332.26781,526.543818 332.275667,523.632355 332.26781,520.72482 C332.259953,518.296636 332.338523,515.848806 335.516683,515.538407 C337.795216,515.322307 338.91484,517.1847 338.934483,520.885913 C338.946268,523.718795 338.938411,526.559535 338.938411,529.914987 C340.065892,528.838413 340.816236,528.017231 341.672651,527.32178 C342.886559,526.339505 344.245821,526.296285 345.428301,527.317851 C346.598996,528.339417 346.913276,529.816759 345.958649,531.022993 C343.279409,534.405949 340.560884,537.777117 337.594862,540.900752 C335.940962,542.645273 334.055279,541.749438 332.684231,540.118861 C330.169988,537.132744 327.750029,534.083762 325.259357,531.078 C324.90972,530.661516 324.791865,529.415991 324.155447,529.938561 C321.228711,532.362816 319.692665,529.5928 317.31592,527.871854 C317.31592,531.109433 317.31592,533.804796 317.311991,536.49623 C317.311991,537.659244 317.304134,538.818329 316.769858,539.898831 C316.082369,541.289733 314.939174,541.941964 313.430628,541.773012 C311.576374,541.56477 310.617819,540.303529 310.464607,538.582583 C310.150327,535.022817 310.197469,531.451265 310.012829,527.706832" id="Fill-1376" fill="#1A1918"></path>
                <path d="M1434,989.239475 L1434,820" id="Path-2" stroke="#3B9AAC" stroke-width="8"></path>
                <path d="M358.006676,554.760102 L291.106647,554.760102" id="Path-9" stroke="#FFFFFF" stroke-width="3.92850027"></path>
                <path d="M442.469532,570.476505 L442.469532,739.427834" id="Path-4" stroke="#FFFFFF" stroke-width="11.7855008"></path>
                <path d="M491.435989,640.018443 L491.435989,658.744537 C491.435989,659.188525 491.428132,659.624656 491.259207,660.048999 C490.740644,661.329885 489.302811,661.927109 487.951406,661.420255 C486.957494,661.054848 486.380004,660.225808 486.360361,659.094227 C486.344647,658.190534 486.360361,657.286841 486.360361,656.379218 C486.36429,652.289025 486.360361,648.206689 486.368218,644.116495 C486.372147,641.751177 486.395718,639.389787 486.403575,637.024469 C486.407503,636.847659 486.399646,636.67085 486.356433,636.497969 C486.273934,636.136492 485.99501,635.912533 485.625731,635.8811 C485.197524,635.857526 484.910743,636.026477 484.757531,636.403671 C484.671104,636.611913 484.678961,636.831943 484.678961,637.055901 C484.678961,644.348312 484.678961,651.636794 484.682889,658.925276 C484.682889,659.616797 484.580748,660.269028 484.109328,660.807315 C483.413982,661.604922 482.514355,661.844598 481.5283,661.628497 C480.526531,661.412396 479.89797,660.728733 479.607261,659.762174 C479.512977,659.447846 479.461906,659.117802 479.461906,658.779899 C479.465835,653.731005 479.434407,648.68211 479.481549,643.641074 C479.548333,636.136492 479.501191,628.639768 479.524762,621.131256 C479.528691,620.573324 479.375479,620.325791 478.943344,620.19613 C478.432638,620.035037 477.87479,620.219705 477.607652,620.612615 C477.529082,620.726559 477.525153,620.856219 477.525153,620.98588 C477.529082,623.673384 477.525153,626.35696 477.53301,629.044465 C477.540867,631.016874 477.572295,632.989282 477.572295,634.969549 C477.576224,635.767156 477.254087,636.403671 476.472314,636.741573 C475.784826,637.032327 474.948054,636.871234 474.413777,636.348663 C474.079855,636.018619 473.9345,635.62178 473.9345,635.162075 C473.938428,630.097464 473.954142,625.036782 473.942357,619.98003 C473.9345,618.62449 474.221281,617.363249 474.944126,616.227739 C476.216961,614.227826 478.035859,613.060884 480.412605,612.998018 C483.461124,612.923365 486.509644,612.935152 489.554236,612.99016 C492.720611,613.045167 495.647347,615.47728 496.405548,618.545908 C496.582331,619.261004 496.660901,619.972172 496.660901,620.710843 C496.653044,625.437551 496.656973,630.164259 496.656973,634.890967 C496.656973,635.8811 496.256265,636.458678 495.399851,636.733715 C494.268441,637.095192 493.188103,636.356521 493.121318,635.177791 C493.109533,635.036344 493.11739,634.906683 493.11739,634.777023 C493.113461,630.187833 493.101676,625.606502 493.129175,621.025171 C493.133104,620.333649 492.520257,620.050754 492.048836,620.164698 C491.624558,620.266854 491.435989,620.486884 491.435989,620.926943 L491.435989,640.018443 Z" id="Fill-1413" fill="#A8770A"></path>
                <path d="M485.17081,601.778864 C487.795051,601.771006 489.928229,603.912366 489.912515,606.576296 C489.896801,609.208793 487.87755,611.342295 485.162953,611.342295 C482.499426,611.342295 480.436961,609.338454 480.405533,606.592012 C480.378034,603.857358 482.475855,601.818155 485.17081,601.778864" id="Fill-1414" fill="#A8770A"></path>
                <path d="M404.993166,651.705946 C404.993166,654.299153 405.001023,656.884501 404.993166,659.473778 C404.985309,660.263527 404.686743,660.9079 403.979612,661.312597 C403.237125,661.73694 402.459281,661.752657 401.701079,661.367605 C400.942878,660.982553 400.597169,660.314606 400.597169,659.481636 C400.589312,654.428813 400.589312,649.379919 400.589312,644.331024 C400.589312,644.185647 400.597169,644.040271 400.581455,643.902752 C400.518599,643.478409 400.22789,643.226947 399.842896,643.242663 C399.406832,643.25838 399.131837,643.533417 399.108266,643.969547 L399.108266,644.338882 L399.108266,659.257678 C399.108266,660.008136 398.970768,660.715374 398.326494,661.206512 C397.556507,661.78016 396.715807,661.835168 395.863321,661.450116 C395.010835,661.068993 394.704412,660.322464 394.665127,659.442345 C394.65727,659.304827 394.65727,659.155521 394.65727,659.010144 L394.65727,643.855603 C394.65727,643.356607 394.65727,643.356607 394.142636,643.356607 C392.323738,643.348749 390.512697,643.356607 388.697728,643.348749 C388.312734,643.348749 388.304877,643.348749 388.410947,642.987272 C388.870582,641.462781 389.342003,639.942219 389.809495,638.413799 C390.493055,636.174211 391.172686,633.934624 391.864103,631.691107 C392.441593,629.820855 393.023012,627.954533 393.600502,626.084281 C394.174064,624.202241 394.743697,622.316273 395.309402,620.434234 C395.454756,619.958813 395.26226,619.550186 394.849767,619.404809 C394.42156,619.259433 394.005138,619.459817 393.836212,619.950954 C393.498361,620.972521 393.176224,621.998016 392.846229,623.02744 C392.025172,625.569568 391.204114,628.115626 390.383057,630.657754 C390.037348,631.746115 389.687711,632.834476 389.342003,633.926766 C388.988437,635.070134 388.065239,635.498406 386.992757,635.030843 C386.226698,634.69294 385.865276,633.879616 386.1167,633.050576 C386.863116,630.634179 387.613461,628.213853 388.352019,625.797456 C389.216291,622.960646 390.092347,620.119906 390.95269,617.271308 C391.612679,615.071011 393.514075,613.479726 395.776894,613.24398 C396.161887,613.204689 396.546881,613.188972 396.927946,613.188972 C399.414689,613.19683 401.901433,613.188972 404.388177,613.19683 C405.743511,613.204689 406.996704,613.550449 408.077043,614.418781 C409.114168,615.247821 409.734872,616.328324 410.072723,617.593494 C410.97628,620.956804 411.891621,624.308327 412.795177,627.663779 C413.301954,629.541889 413.816589,631.423928 414.323366,633.302039 C414.570862,634.241094 413.879445,635.215511 412.905175,635.290164 C411.950549,635.376604 411.314131,634.960119 411.05485,634.032851 C410.304505,631.408212 409.573803,628.783573 408.831316,626.151075 L407.40134,621.110039 C407.287413,620.693555 407.181344,620.280999 407.055632,619.864514 C406.925991,619.444101 406.588139,619.267291 406.19136,619.381235 C405.790653,619.499108 405.590299,619.829152 405.69244,620.249566 C406.250288,622.489154 406.819921,624.73267 407.377769,626.964399 C408.010258,629.45152 408.646676,631.938641 409.275237,634.417903 C410.017724,637.333296 410.756283,640.24083 411.498771,643.148365 C411.577341,643.454835 411.400558,643.419473 411.223775,643.419473 C409.306665,643.419473 407.393483,643.411615 405.476373,643.411615 C405.001023,643.411615 404.993166,643.411615 404.993166,643.887036 L404.993166,651.705946 Z" id="Fill-1415" fill="#A8770A"></path>
                <path d="M395.701467,606.621088 C395.662182,604.020023 397.728575,601.780436 400.498171,601.780436 C403.236339,601.780436 405.353803,604.004306 405.322375,606.703599 C405.290947,609.343954 403.130269,611.524605 400.466743,611.501031 C397.858216,611.469598 395.63861,609.32038 395.701467,606.621088" id="Fill-1416" fill="#A8770A"></path>
                <path d="M530.860894,505.646343 L530.860894,564.582854" id="Path-4-Copy-18" stroke="#FFFFFF" stroke-width="3.92850027"></path>
                <polyline id="Path-4-Copy-19" stroke="#FFFFFF" stroke-width="11.7855008" points="172.679441 460.407157 218.54475 460.407157 218.54475 495.823592 218.54475 560.653753"></polyline>
                <path d="M972.817701,619.564244 L972.817701,916.237364" id="Path-4-Copy-2" stroke="#FFFFFF" stroke-width="3.92850027"></path>
                <path d="M835.320028,615.635143 L835.320028,912.308263" id="Path-4-Copy-7" stroke="#FFFFFF" stroke-width="7.85700054"></path>
                <path d="M1412.81026,415.251009 L1412.81026,513.478525" id="Path-4-Copy-5" stroke="#FFFFFF" stroke-width="3.92850027"></path>
                <polyline id="Path-4-Copy-16" stroke="#FFFFFF" stroke-width="7.85700054" points="1803.7077 368.1018 1626.91378 368.1018 1626.91378 594.085268"></polyline>
                <path d="M1269.41982,521.336727 L1269.41982,588.157458" id="Path-4-Copy-8" stroke="#FFFFFF" stroke-width="3.92850027"></path>
                <path d="M1267.45557,513.495872 L1577.80746,513.495872" id="Path-4-Copy-6" stroke="#FFFFFF" stroke-width="3.92850027"></path>
                <path d="M847.105542,408.388092 L1157.45743,408.388092" id="Path-4-Copy-9" stroke="#FFFFFF" stroke-width="5.89275041"></path>
                <path d="M354.078171,503.681793 L338.364151,503.681793 M314.793121,503.681793 L291.222103,503.681793 L291.222103,755.183523 L220.509003,755.183523 L220.509003,558.689203 L0.512725202,594.051109 L0.512725202,413.312453 L122.296379,413.312453 L271.545305,413.312453 L271.545305,437.11061 L471.889325,437.11061 L471.889325,401.688845 L633.001995,401.688845 L633.001995,354.445997 L721.393384,354.445997 L721.393384,322.943162 L1029.78102,224.715645" id="Path-4-Copy-17" stroke="#FFFFFF" stroke-width="11.7855008"></path>
                <path d="M770.499696,370.09237 L1053.35205,370.09237" id="Stroke-1667-Copy" stroke="#FFFFFF" stroke-width="3.92850027"></path>
                <polyline id="Stroke-1920-Copy" stroke="#FFFFFF" stroke-width="3.92850027" points="771.590151 370.09237 766.571191 353.500196 970.853448 291.510357"></polyline>
                <path d="M962.996438,295.439457 L949.969537,252.009869" id="Stroke-1922-Copy" stroke="#FFFFFF" stroke-width="1.96425014"></path>
                <path d="M943.353914,256.148451 L955.139429,295.439457" id="Stroke-1924-Copy" stroke="#FFFFFF" stroke-width="1.96425014"></path>
                <path d="M939.425409,256.148451 L951.210924,295.439457" id="Stroke-1926-Copy" stroke="#FFFFFF" stroke-width="1.96425014"></path>
                <path d="M935.496904,256.148451 L948.41092,299.201698" id="Stroke-1928-Copy" stroke="#FFFFFF" stroke-width="1.96425014"></path>
                <path d="M923.711389,260.077551 L936.625405,303.130799" id="Stroke-1930-Copy" stroke="#FFFFFF" stroke-width="1.96425014"></path>
                <path d="M919.782884,260.077551 L932.358247,302.001783" id="Stroke-1932-Copy" stroke="#FFFFFF" stroke-width="1.96425014"></path>
                <path d="M915.854379,260.077551 L927.639894,303.297659" id="Stroke-1934-Copy" stroke="#FFFFFF" stroke-width="1.96425014"></path>
                <path d="M904.068864,267.935753 L915.854379,307.226759" id="Stroke-1936-Copy" stroke="#FFFFFF" stroke-width="1.96425014"></path>
                <path d="M900.140359,267.935753 L912.151298,307.978286" id="Stroke-1938-Copy" stroke="#FFFFFF" stroke-width="1.96425014"></path>
                <path d="M896.211854,267.935753 L907.997369,311.15586" id="Stroke-1940-Copy" stroke="#FFFFFF" stroke-width="1.96425014"></path>
                <path d="M888.354844,271.864853 L900.140359,311.15586" id="Stroke-1942-Copy" stroke="#FFFFFF" stroke-width="1.96425014"></path>
                <path d="M884.426339,271.864853 L896.888817,313.412744" id="Stroke-1944-Copy" stroke="#FFFFFF" stroke-width="1.96425014"></path>
                <path d="M876.569329,271.864853 L888.354844,315.084961" id="Stroke-1946-Copy" stroke="#FFFFFF" stroke-width="1.96425014"></path>
                <path d="M841.212785,287.581256 L852.9983,330.801363" id="Stroke-1948-Copy" stroke="#FFFFFF" stroke-width="1.96425014"></path>
                <path d="M825.498765,291.510357 L837.28428,334.730464" id="Stroke-1950-Copy" stroke="#FFFFFF" stroke-width="1.96425014"></path>
                <path d="M821.57026,291.510357 L833.355775,334.730464" id="Stroke-1952-Copy" stroke="#FFFFFF" stroke-width="1.96425014"></path>
                <path d="M817.641755,291.510357 L829.42727,334.730464" id="Stroke-1954-Copy" stroke="#FFFFFF" stroke-width="1.96425014"></path>
                <path d="M809.784745,295.439457 L821.57026,338.659565" id="Stroke-1956-Copy" stroke="#FFFFFF" stroke-width="1.96425014"></path>
                <path d="M801.927735,295.439457 L813.71325,338.659565" id="Stroke-1958-Copy" stroke="#FFFFFF" stroke-width="1.96425014"></path>
                <path d="M797.99923,295.439457 L809.784745,338.659565" id="Stroke-1960-Copy" stroke="#FFFFFF" stroke-width="1.96425014"></path>
                <path d="M790.142221,299.368558 L801.927735,342.588665" id="Stroke-1962-Copy" stroke="#FFFFFF" stroke-width="1.96425014"></path>
                <path d="M786.213716,299.368558 L797.99923,342.588665" id="Stroke-1964-Copy" stroke="#FFFFFF" stroke-width="1.96425014"></path>
                <path d="M778.356706,303.297659 L790.142221,346.517766" id="Stroke-1966-Copy" stroke="#FFFFFF" stroke-width="1.96425014"></path>
                <path d="M770.499696,307.226759 L782.285211,350.446867" id="Stroke-1968-Copy" stroke="#FFFFFF" stroke-width="1.96425014"></path>
                <path d="M1112.27963,369.116586 L1571.91471,369.103605" id="Path-4-Copy-11" stroke="#FFFFFF" stroke-width="5.89275041"></path>
                <path d="M1477.63059,330.801363 L1705.48387,299.368558" id="Path-4-Copy-15" stroke="#FFFFFF" stroke-width="7.85700054"></path>
                <path d="M1479.59484,326.854917 L1438.34554,0.756906762" id="Path-4-Copy-13" stroke="#FFFFFF" stroke-width="7.85700054"></path>
                <path d="M1418.70301,197.211941 L1402.98899,43.9770142" id="Path-4-Copy-14" stroke="#FFFFFF" stroke-width="7.85700054"></path>
                <polyline id="Path-4-Copy-12" stroke="#FFFFFF" stroke-width="7.85700054" points="1033.70953 252.21935 1035.67378 303.280312 1422.63152 193.28284"></polyline>
                <path d="M1122.10089,619.564244 L1122.10089,916.237364" id="Path-4-Copy-3" stroke="#FFFFFF" stroke-width="3.92850027"></path>
                <polyline id="Path-4-Copy-4" stroke="#FFFFFF" stroke-width="3.92850027" points="1127.99365 519.473721 1127.99365 554.760118 970.804332 554.760118 970.804332 480.107152 1127.93967 480.107152 1127.93967 519.473721 1269.41982 519.473721 1269.41982 417.232041 1573.87896 417.232041 1573.87896 619.564244 1573.87896 916.237364"></polyline>
                <path d="M835.320028,582.263807 L835.227953,617.625713 L849.069795,617.625713 M872.965958,617.625713 L998.41451,617.625713 M1022.24999,617.625713 L1143.77118,617.625713 L1167.2787,617.625713 L1269.41982,617.625713 L1269.41982,916.237364" id="Path-4-Copy" stroke="#FFFFFF" stroke-width="3.92850027"></path>
                <path d="M1117.38668,409.383377 L1117.38668,370.09237" id="Path-5" stroke="#FFFFFF" stroke-width="2.35710002"></path>
                <path d="M1525.9512,366.16327 L1525.9512,326.872263" id="Path-5-Copy-6" stroke="#FFFFFF" stroke-width="2.35710002"></path>
                <path d="M1137.02921,409.383377 L1137.02921,370.09237" id="Path-5-Copy-3" stroke="#FFFFFF" stroke-width="2.35710002"></path>
                <path d="M1545.59372,366.16327 L1545.59372,326.872263" id="Path-5-Copy-7" stroke="#FFFFFF" stroke-width="2.35710002"></path>
                <path d="M1125.24369,409.383377 L1125.24369,370.09237" id="Path-5-Copy" stroke="#FFFFFF" stroke-width="2.35710002"></path>
                <path d="M1533.80821,366.16327 L1533.80821,326.872263" id="Path-5-Copy-8" stroke="#FFFFFF" stroke-width="2.35710002"></path>
                <path d="M1144.88622,409.383377 L1144.88622,370.09237" id="Path-5-Copy-4" stroke="#FFFFFF" stroke-width="2.35710002"></path>
                <path d="M1553.45073,366.16327 L1553.45073,326.872263" id="Path-5-Copy-9" stroke="#FFFFFF" stroke-width="2.35710002"></path>
                <path d="M1133.1007,409.383377 L1133.1007,370.09237" id="Path-5-Copy-2" stroke="#FFFFFF" stroke-width="2.35710002"></path>
                <path d="M1541.66522,366.16327 L1541.66522,326.872263" id="Path-5-Copy-10" stroke="#FFFFFF" stroke-width="2.35710002"></path>
                <path d="M1152.74323,409.383377 L1152.74323,370.09237" id="Path-5-Copy-5" stroke="#FFFFFF" stroke-width="2.35710002"></path>
                <path d="M1561.30774,366.16327 L1564.0577,322.943162" id="Path-5-Copy-11" stroke="#FFFFFF" stroke-width="2.35710002"></path>
                <polygon id="Path-6" stroke="#FFFFFF" stroke-width="3.92850027" points="126.224884 448.674384 51.5832896 448.674384 51.5832896 542.9728 67.2973094 542.9728 67.2973094 464.390786 122.296379 464.390786"></polygon>
                <path d="M111.689415,448.674384 L111.689415,413.312478" id="Path-7" stroke="#FFFFFF" stroke-width="2.35710002"></path>
                <path d="M119.546425,448.674384 L119.546425,413.312478" id="Path-7-Copy-9" stroke="#FFFFFF" stroke-width="2.35710002"></path>
                <path d="M95.9753955,448.674384 L95.9753955,413.312478" id="Path-7-Copy" stroke="#FFFFFF" stroke-width="2.35710002"></path>
                <path d="M99.9039004,448.674384 L99.9039004,413.312478" id="Path-7-Copy-2" stroke="#FFFFFF" stroke-width="2.35710002"></path>
                <path d="M80.2613757,448.674384 L80.2613757,413.312478" id="Path-7-Copy-3" stroke="#FFFFFF" stroke-width="2.35710002"></path>
                <path d="M88.1183856,448.674384 L88.1183856,413.312478" id="Path-7-Copy-4" stroke="#FFFFFF" stroke-width="2.35710002"></path>
                <path d="M68.4758608,448.674384 L68.4758608,413.312478" id="Path-7-Copy-5" stroke="#FFFFFF" stroke-width="2.35710002"></path>
                <path d="M76.3328707,448.674384 L76.3328707,413.312478" id="Path-7-Copy-8" stroke="#FFFFFF" stroke-width="2.35710002"></path>
                <path d="M64.5473558,448.674384 L64.5473558,413.312478" id="Path-7-Copy-7" stroke="#FFFFFF" stroke-width="2.35710002"></path>
                <path d="M56.6903459,448.674384 L56.6903459,413.312478" id="Path-7-Copy-6" stroke="#FFFFFF" stroke-width="2.35710002"></path>
                <path d="M51.5832896,453.782215 L0.512725202,453.782215" id="Path-8" stroke="#FFFFFF" stroke-width="2.35710002"></path>
                <path d="M51.5832896,461.640416 L0.512725202,461.640416" id="Path-8-Copy" stroke="#FFFFFF" stroke-width="2.35710002"></path>
                <path d="M51.5832896,469.498617 L0.512725202,469.498617" id="Path-8-Copy-2" stroke="#FFFFFF" stroke-width="2.35710002"></path>
                <path d="M51.5832896,481.285919 L0.512725202,481.285919" id="Path-8-Copy-3" stroke="#FFFFFF" stroke-width="2.35710002"></path>
                <path d="M51.5832896,489.144121 L0.512725202,489.144121" id="Path-8-Copy-4" stroke="#FFFFFF" stroke-width="2.35710002"></path>
                <path d="M51.5832896,500.931423 L0.512725202,500.931423" id="Path-8-Copy-5" stroke="#FFFFFF" stroke-width="2.35710002"></path>
                <path d="M51.5832896,508.789624 L0.512725202,508.789624" id="Path-8-Copy-6" stroke="#FFFFFF" stroke-width="2.35710002"></path>
                <path d="M51.5832896,520.576926 L0.512725202,520.576926" id="Path-8-Copy-7" stroke="#FFFFFF" stroke-width="2.35710002"></path>
                <path d="M51.5832896,532.364228 L0.512725202,532.364228" id="Path-8-Copy-8" stroke="#FFFFFF" stroke-width="2.35710002"></path>
                <path d="M51.5832896,544.15153 L0.512725202,544.15153" id="Path-8-Copy-9" stroke="#FFFFFF" stroke-width="2.35710002"></path>
                <path d="M1575.84321,916.237364 L1575.84321,415.277028" id="Path-26" stroke="#FFFFFF" stroke-width="7.85700054"></path>
                <path d="M1214.42076,173.637336 L1214.42076,299.368558" id="Path-18" stroke="#FFAE7E" stroke-width="7.85700054"></path>
            </g>
        </g>
    </g>
</svg>