<?xml version="1.0" encoding="UTF-8" standalone="no"?>
<svg width="2160px" height="2160px" viewBox="0 0 2160 2160" version="1.1" xmlns="http://www.w3.org/2000/svg" xmlns:xlink="http://www.w3.org/1999/xlink">
    <!-- Generator: Sketch 42 (36781) - http://www.bohemiancoding.com/sketch -->
    <title>siebel_thirdfloor copy</title>
    <desc>Created with Sketch.</desc>
    <defs></defs>
    <g id="New-Maps" stroke="none" stroke-width="1" fill="none" fill-rule="evenodd">
        <g id="siebel_thirdfloor-copy">
            <polygon id="Fill-1549" fill="#142442" points="0 2160 2160 2160 2160 0 0 0"></polygon>
            <g id="Siebel_3rd" transform="translate(147.000000, 474.000000)">
                <polygon id="Fill-1354" fill="#212E60" points="755.719089 972.431739 868.659113 972.431739 868.659113 882.888889 755.719089 882.888889"></polygon>
                <polygon id="Fill-1355" fill="#212E60" points="1366.21293 1055.37119 1440.23116 1055.37119 1440.23116 895.294118 1366.21293 895.294118"></polygon>
                <polygon id="Fill-1356" fill="#212E60" points="1544.89052 1069.45208 1712.69901 1069.45208 1712.69901 895.294118 1544.89052 895.294118"></polygon>
                <polygon id="Fill-1357" fill="#212E60" points="1208.20074 1304.90714 1608.36034 1304.90714 1608.36034 1211.63127 1208.20074 1211.63127"></polygon>
                <polygon id="Fill-1358" fill="#212E60" points="1432.57278 1180.77469 1502.72365 1180.77469 1502.72365 1085.50254 1432.57278 1085.50254"></polygon>
                <polygon id="Fill-1359" fill="#212E60" points="1741.58399 1126.70698 1835.82094 1126.70698 1835.82094 896.561359 1741.58399 896.561359"></polygon>
                <polygon id="Fill-1360" fill="#212E60" points="1715.46687 1187.77888 1835.82094 1187.77888 1835.82094 1096.81992 1715.46687 1096.81992"></polygon>
                <polygon id="Fill-1361" fill="#212E60" points="1546.95591 1185.62609 1715.6234 1185.62609 1715.6234 1094.73584 1546.95591 1094.73584"></polygon>
                <polygon id="Fill-1362" fill="#212E60" points="1252.6468 1180.77469 1433.20653 1180.77469 1433.20653 1009.48329 1252.6468 1009.48329"></polygon>
                <polygon id="Fill-1363" fill="#212E60" points="15.4757389 792.071163 285.977463 792.071163 285.977463 222.285647 15.4757389 222.285647"></polygon>
                <polygon id="Fill-1364" fill="#212E60" points="1436.50123 947.277752 1508.60677 947.277752 1508.60677 895.294118 1436.50123 895.294118"></polygon>
                <polygon id="Fill-1365" fill="#212E60" points="240.12266 1303.88418 756.032143 1303.88418 756.032143 1210.97856 240.12266 1210.97856"></polygon>
                <polygon id="Fill-1366" fill="#212E60" points="336.508227 788.261804 336.508227 222.285647 429.431872 222.285647 429.431872 788.269438"></polygon>
                <polygon id="Fill-1367" fill="#212E60" points="42.7534483 1185.62609 132.31367 1185.62609 132.31367 926.314824 42.7534483 926.314824"></polygon>
                <polygon id="Fill-1368" fill="#212E60" points="14.0211823 164.339869 119.665517 164.339869 119.665517 101.993098 14.0211823 101.993098"></polygon>
                <polygon id="Fill-1369" fill="#212E60" points="17.9229064 228.51498 198.96367 228.51498 198.96367 158.694536 17.9229064 158.694536"></polygon>
                <polygon id="Fill-1370" fill="#212E60" points="118.68436 191.535948 302.202833 191.535948 302.202833 105.645961 118.68436 105.645961"></polygon>
                <polygon id="Fill-1371" fill="#212E60" points="128.255419 289.495268 266.625369 289.495268 266.625369 222.289464 128.255419 222.289464"></polygon>
                <polygon id="Fill-1372" fill="#212E60" points="15.5635468 900.626458 133.271921 900.626458 133.271921 781.265255 15.5635468 781.265255"></polygon>
                <polygon id="Fill-1373" fill="#212E60" points="168.559236 905.989333 301.22931 905.989333 301.22931 786.628131 168.559236 786.628131"></polygon>
                <polygon id="Fill-1374" fill="#212E60" points="131.08436 821.339869 301.225493 821.339869 301.225493 728.02583 131.08436 728.02583"></polygon>
                <polygon id="Fill-1375" fill="#212E60" points="128.812808 896.515556 249.999138 896.515556 249.999138 762.813908 128.812808 762.813908"></polygon>
                <polygon id="Fill-1376" fill="#212E60" points="169.353325 734.026144 302.023399 734.026144 302.023399 479.081516 169.353325 479.081516"></polygon>
                <polygon id="Fill-1377" fill="#212E60" points="167.765148 754.798222 302.027217 754.798222 302.027217 673.824523 167.765148 673.824523"></polygon>
                <polygon id="Fill-1378" fill="#212E60" points="259.409852 572.464261 302.023399 572.464261 302.023399 509.376993 259.409852 509.376993"></polygon>
                <polygon id="Fill-1379" fill="#212E60" points="259.409852 451.301438 302.023399 451.301438 302.023399 379.206065 259.409852 379.206065"></polygon>
                <polygon id="Fill-1380" fill="#212E60" points="259.409852 386.836235 302.023399 386.836235 302.023399 323.699346 259.409852 323.699346"></polygon>
                <polygon id="Fill-1381" fill="#212E60" points="115.821059 1185.62609 306.959729 1185.62609 306.959729 1095.55268 115.821059 1095.55268"></polygon>
                <g id="Group-1403" transform="translate(132.000000, 49.000000)">
                    <path d="M0.311761084,907.843137 C0.311761084,907.843137 65.3735837,883.666301 143.320259,884.941176 L142.717057,893.288941 L148.48947,935.115556 L4.60671182,953.723399 L0.319396552,954.921935 L0.311761084,907.843137 Z" id="Fill-1382" fill="#212E60"></path>
                    <polygon id="Fill-1384" fill="#212E60" points="624.284113 1250.72366 735.387808 1250.72366 735.387808 1161.97856 624.284113 1161.97856"></polygon>
                    <polygon id="Fill-1386" fill="#212E60" points="396.30431 923.431739 624.032143 923.431739 624.032143 835.430954 396.30431 835.430954"></polygon>
                    <polygon id="Fill-1387" fill="#212E60" points="201.199015 1134.38933 267.054926 1134.38933 267.054926 993.733124 201.199015 993.733124"></polygon>
                    <polygon id="Fill-1396" fill="#FFE077" points="266.241021 1132.42445 396.234994 1132.42445 396.234994 963.054441 355 963.054441 355 999 300 999 300 963.054441 266.241021 963.054441"></polygon>
                    <polygon id="Fill-1388" fill="#212E60" points="311.279557 1037.73161 350.73202 1037.73161 350.73202 998.496732 311.279557 998.496732"></polygon>
                    <polygon id="Fill-1389" fill="#212E60" points="397.579433 1131.93501 554.20197 1131.93501 554.20197 962.563556 397.579433 962.563556"></polygon>
                    <polygon id="Fill-1390" fill="#212E60" points="588.561576 1130.82044 773.244458 1130.82044 773.244458 962.712418 588.561576 962.712418"></polygon>
                    <polygon id="Fill-1391" fill="#212E60" points="849.759483 1253.63984 1083.8133 1253.63984 1083.8133 1163.22672 849.759483 1163.22672"></polygon>
                    <polyline id="Fill-1392" fill="#B5BADE" points="207.580357 739.261804 312.411515 739.261804 312.411515 856.947346 230.490579 869.031948"></polyline>
                    <polyline id="Fill-1393" fill="#212E60" points="307.864975 0.0269699346 283.935419 154.622839 394.279384 169.574003 416.601675 15.6193882"></polyline>
                    <polygon id="Fill-1394" fill="#212E60" points="30.2828818 280.58515 168.652833 280.58515 168.652833 206.890458 30.2828818 206.890458"></polygon>
                    <polygon id="Fill-1395" fill="#212E60" points="549.322906 1134.07634 599.59101 1134.07634 599.59101 979.732392 549.322906 979.732392"></polygon>
                    <polygon id="Fill-1396" fill="#212E60" points="1352.2649 1131.77469 1382.06232 1131.77469 1382.06232 1072.2525 1352.2649 1072.2525"></polygon>
                    <path d="M1180.94027,868.081516 C1180.94027,868.081516 1103.29138,950.784314 930.871059,944.581699 C907.327094,943.734327 888.570567,943.119791 873.692857,942.692288 C872.383374,943.642719 870.676847,944.119843 868.687808,943.722876 C867.076724,943.402248 865.473276,944.703843 863.91564,944.917595 C861.735714,945.21532 859.574877,945.555033 857.364409,945.455791 C853.493227,945.29166 849.656404,944.761098 845.781404,944.661856 C844.361207,944.63132 843.204433,944.196183 842.28436,943.53966 C842.101108,943.547294 841.910222,943.551111 841.72697,943.566379 C841.475,943.948078 841.150493,944.345046 841.345197,943.864105 C841.242118,944.116026 841.116133,944.345046 841.001601,944.581699 L841.009236,944.581699 L840.997783,944.585516 C840.375493,945.822222 839.505049,946.868078 838.428448,947.558954 L827.883867,996.824889 L816.193966,1057.5418 L816.193966,1132.80528 L884.913177,1132.80528 L1122.3266,1131.77469 L1234.23584,985.614379 L1235.6484,868.081516 L1180.94027,868.081516 Z" id="Fill-1397" fill="#212E60"></path>
                    <polygon id="Fill-1398" fill="#212E60" points="1187.22999 866.333333 1230.96213 866.333333 1230.96213 886.372549 1206.79587 890.189542"></polygon>
                    <polyline id="Fill-1399" fill="#212E60" points="1577.78723 747.920654 1617.44203 737.225438 1612.9791 724.129333 1660.62824 712.781412 1623.31371 572.487817 1500.93243 619.131477 1543.55743 774.673961 1582.36469 763.513072"></polyline>
                    <polyline id="Fill-1400" fill="#B5BADE" points="1481.99341 558.094316 1543.55819 774.674342 1421.87937 809.668539 1364.80807 604.39063"></polyline>
                    <polyline id="Fill-1401" fill="#B5BADE" points="1354.31541 571.099576 1235.64878 617.052361 1290.50962 811.814452 1412.8909 774.671289"></polyline>
                    <polyline id="Fill-1402" fill="#B5BADE" points="1150.96151 780.212418 1160.74637 814.565359 1281.32568 779.055869 1234.21484 615.364105 1103.29329 670.237203 1137.35893 779.975765 1151.91595 776.158771"></polyline>
                </g>
                <path d="M535.128079,848.338154 C547.039409,848.338154 555.743842,841.389878 555.743842,830.547514 L555.743842,830.394804 C555.743842,821.308597 549.559113,817.032735 541.923645,815.352932 L554.674877,804.434213 L554.674877,793.820913 L516.039409,793.820913 L516.039409,805.808597 L536.502463,805.808597 L524.20936,816.880026 L526.347291,824.591849 L532.608374,824.591849 C538.182266,824.591849 541.312808,826.653425 541.312808,830.089386 L541.312808,830.242095 C541.312808,833.525346 538.640394,835.663277 534.440887,835.663277 C529.554187,835.663277 525.507389,833.448991 521.689655,829.554903 L512.374384,838.870174 C517.566502,844.596775 524.820197,848.338154 535.128079,848.338154 Z M569.716749,847.269188 L584.300493,847.269188 L584.300493,793.439139 L573.534483,793.439139 L557.881773,797.867711 L560.706897,809.320913 L569.716749,807.259336 L569.716749,847.269188 Z M616.140394,848.338154 C600.869458,848.338154 591.477832,835.815986 591.477832,820.69776 L591.477832,820.545051 C591.477832,805.426824 601.098522,792.751947 616.293103,792.751947 C631.487685,792.751947 640.955665,805.274115 640.955665,820.392341 L640.955665,820.545051 C640.955665,835.663277 631.41133,848.338154 616.140394,848.338154 Z M616.293103,835.205149 C622.248768,835.205149 626.066502,829.173129 626.066502,820.69776 L626.066502,820.545051 C626.066502,812.069681 622.019704,805.884952 616.140394,805.884952 C610.261084,805.884952 606.366995,811.840617 606.366995,820.392341 L606.366995,820.545051 C606.366995,829.096775 610.337438,835.205149 616.293103,835.205149 Z M644.697044,847.269188 L686.997537,847.269188 L686.997537,835.205149 L664.931034,835.205149 L674.093596,828.791356 C682.034483,823.064755 686.463054,818.636184 686.463054,810.084459 L686.463054,809.93175 C686.463054,799.852932 678.445813,792.904656 666.763547,792.904656 C656.37931,792.904656 650.729064,796.951454 645.002463,804.357858 L655.004926,812.680519 C659.204433,807.870174 662.029557,805.808597 665.618226,805.808597 C669.206896,805.808597 671.573891,807.870174 671.573891,811.22978 C671.573891,814.436676 669.665024,816.956381 664.70197,820.850469 L644.697044,836.121405 L644.697044,847.269188 Z" id="3102" fill="#CFD3EC"></path>
                <path d="M1512.12808,504.068966 C1524.03941,504.068966 1532.74384,497.12069 1532.74384,486.278325 L1532.74384,486.125616 C1532.74384,477.039409 1526.55911,472.763547 1518.92365,471.083744 L1531.67488,460.165025 L1531.67488,449.551724 L1493.03941,449.551724 L1493.03941,461.539409 L1513.50246,461.539409 L1501.20936,472.610837 L1503.34729,480.32266 L1509.60837,480.32266 C1515.18227,480.32266 1518.31281,482.384236 1518.31281,485.820197 L1518.31281,485.972906 C1518.31281,489.256158 1515.64039,491.394089 1511.44089,491.394089 C1506.55419,491.394089 1502.50739,489.179803 1498.68966,485.285714 L1489.37438,494.600985 C1494.5665,500.327586 1501.8202,504.068966 1512.12808,504.068966 Z M1563.97291,503 L1563.97291,492.615764 L1538.08867,492.615764 L1535.64532,482.155172 L1563.36207,449.169951 L1578.32759,449.169951 L1578.32759,481.544335 L1585.12315,481.544335 L1585.12315,492.615764 L1578.32759,492.615764 L1578.32759,503 L1563.97291,503 Z M1551.22167,481.62069 L1563.97291,481.62069 L1563.97291,466.273399 L1551.22167,481.62069 Z M1613.90887,504.068966 C1598.63793,504.068966 1589.24631,491.546798 1589.24631,476.428571 L1589.24631,476.275862 C1589.24631,461.157635 1598.86699,448.482759 1614.06158,448.482759 C1629.25616,448.482759 1638.72414,461.004926 1638.72414,476.123153 L1638.72414,476.275862 C1638.72414,491.394089 1629.1798,504.068966 1613.90887,504.068966 Z M1614.06158,490.935961 C1620.01724,490.935961 1623.83498,484.903941 1623.83498,476.428571 L1623.83498,476.275862 C1623.83498,467.800493 1619.78818,461.615764 1613.90887,461.615764 C1608.02956,461.615764 1604.13547,467.571429 1604.13547,476.123153 L1604.13547,476.275862 C1604.13547,484.827586 1608.10591,490.935961 1614.06158,490.935961 Z M1663.84483,504.068966 C1676.82512,504.068966 1685.91133,496.96798 1685.91133,485.05665 L1685.91133,484.903941 C1685.91133,473.29803 1677.2069,467.953202 1667.58621,467.953202 C1663.99754,467.953202 1661.47783,468.716749 1659.03448,469.862069 L1659.49261,461.768473 L1683.54433,461.768473 L1683.54433,449.551724 L1647.81034,449.551724 L1646.28325,476.657635 L1655.06404,481.544335 C1657.58374,480.017241 1660.33251,478.871921 1663.61576,478.871921 C1668.2734,478.871921 1671.4803,481.238916 1671.4803,485.05665 L1671.4803,485.20936 C1671.4803,489.027094 1668.50246,491.470443 1663.61576,491.470443 C1659.11084,491.470443 1654.98768,489.332512 1650.63547,485.667488 L1642.1601,495.593596 C1647.73399,500.785714 1654.37685,504.068966 1663.84483,504.068966 Z" id="3405" fill="#CFD3EC"></path>
                <path d="M1206.12808,655.397926 C1218.03941,655.397926 1226.74384,648.44965 1226.74384,637.607285 L1226.74384,637.454576 C1226.74384,628.368369 1220.55911,624.092507 1212.92365,622.412704 L1225.67488,611.493985 L1225.67488,600.880684 L1187.03941,600.880684 L1187.03941,612.868369 L1207.50246,612.868369 L1195.20936,623.939798 L1197.34729,631.65162 L1203.60837,631.65162 C1209.18227,631.65162 1212.31281,633.713197 1212.31281,637.149157 L1212.31281,637.301867 C1212.31281,640.585118 1209.64039,642.723049 1205.44089,642.723049 C1200.55419,642.723049 1196.50739,640.508763 1192.68966,636.614674 L1183.37438,645.929945 C1188.5665,651.656546 1195.8202,655.397926 1206.12808,655.397926 Z M1257.97291,654.32896 L1257.97291,643.944724 L1232.08867,643.944724 L1229.64532,633.484133 L1257.36207,600.498911 L1272.32759,600.498911 L1272.32759,632.873295 L1279.12315,632.873295 L1279.12315,643.944724 L1272.32759,643.944724 L1272.32759,654.32896 L1257.97291,654.32896 Z M1245.22167,632.94965 L1257.97291,632.94965 L1257.97291,617.602359 L1245.22167,632.94965 Z M1307.90887,655.397926 C1292.63793,655.397926 1283.24631,642.875758 1283.24631,627.757532 L1283.24631,627.604822 C1283.24631,612.486596 1292.86699,599.811719 1308.06158,599.811719 C1323.25616,599.811719 1332.72414,612.333886 1332.72414,627.452113 L1332.72414,627.604822 C1332.72414,642.723049 1323.1798,655.397926 1307.90887,655.397926 Z M1308.06158,642.264921 C1314.01724,642.264921 1317.83498,636.232901 1317.83498,627.757532 L1317.83498,627.604822 C1317.83498,619.129453 1313.78818,612.944724 1307.90887,612.944724 C1302.02956,612.944724 1298.13547,618.900389 1298.13547,627.452113 L1298.13547,627.604822 C1298.13547,636.156546 1302.10591,642.264921 1308.06158,642.264921 Z M1346.00985,654.32896 L1360.5936,654.32896 L1360.5936,600.498911 L1349.82759,600.498911 L1334.17488,604.927482 L1337,616.380684 L1346.00985,614.319108 L1346.00985,654.32896 Z" id="3401" fill="#CFD3EC"></path>
                <path d="M1344.96441,577.068966 C1356.87574,577.068966 1365.58017,570.12069 1365.58017,559.278325 L1365.58017,559.125616 C1365.58017,550.039409 1359.39544,545.763547 1351.75998,544.083744 L1364.51121,533.165025 L1364.51121,522.551724 L1325.87574,522.551724 L1325.87574,534.539409 L1346.33879,534.539409 L1334.04569,545.610837 L1336.18362,553.32266 L1342.4447,553.32266 C1348.0186,553.32266 1351.14914,555.384236 1351.14914,558.820197 L1351.14914,558.972906 C1351.14914,562.256158 1348.47672,564.394089 1344.27722,564.394089 C1339.39052,564.394089 1335.34372,562.179803 1331.52599,558.285714 L1322.21071,567.600985 C1327.40283,573.327586 1334.65653,577.068966 1344.96441,577.068966 Z M1396.80924,576 L1396.80924,565.615764 L1370.925,565.615764 L1368.48165,555.155172 L1396.1984,522.169951 L1411.16392,522.169951 L1411.16392,554.544335 L1417.95948,554.544335 L1417.95948,565.615764 L1411.16392,565.615764 L1411.16392,576 L1396.80924,576 Z M1384.058,554.62069 L1396.80924,554.62069 L1396.80924,539.273399 L1384.058,554.62069 Z M1446.7452,577.068966 C1431.47426,577.068966 1422.08264,564.546798 1422.08264,549.428571 L1422.08264,549.275862 C1422.08264,534.157635 1431.70333,521.482759 1446.89791,521.482759 C1462.09249,521.482759 1471.56047,534.004926 1471.56047,549.123153 L1471.56047,549.275862 C1471.56047,564.394089 1462.01613,577.068966 1446.7452,577.068966 Z M1446.89791,563.935961 C1452.85357,563.935961 1456.67131,557.903941 1456.67131,549.428571 L1456.67131,549.275862 C1456.67131,540.800493 1452.62451,534.615764 1446.7452,534.615764 C1440.86589,534.615764 1436.9718,540.571429 1436.9718,549.123153 L1436.9718,549.275862 C1436.9718,557.827586 1440.94224,563.935961 1446.89791,563.935961 Z M1496.14667,577.068966 C1508.058,577.068966 1516.76244,570.12069 1516.76244,559.278325 L1516.76244,559.125616 C1516.76244,550.039409 1510.57771,545.763547 1502.94224,544.083744 L1515.69347,533.165025 L1515.69347,522.551724 L1477.058,522.551724 L1477.058,534.539409 L1497.52106,534.539409 L1485.22796,545.610837 L1487.36589,553.32266 L1493.62697,553.32266 C1499.20086,553.32266 1502.3314,555.384236 1502.3314,558.820197 L1502.3314,558.972906 C1502.3314,562.256158 1499.65899,564.394089 1495.45948,564.394089 C1490.57278,564.394089 1486.52599,562.179803 1482.70825,558.285714 L1473.39298,567.600985 C1478.5851,573.327586 1485.83879,577.068966 1496.14667,577.068966 Z" id="3403" fill="#CFD3EC"></path>
                <g id="Group-1414" transform="translate(344.605911, 1005.555556)">
                    <path d="M159.479249,135.263613 L159.479249,153.455404 C159.479249,153.886724 159.471613,154.31041 159.307451,154.722646 C158.799692,155.966986 157.406219,156.547169 156.092919,156.054776 C155.123214,155.699796 154.565825,154.89441 154.542919,153.795116 C154.527648,152.917208 154.542919,152.039299 154.542919,151.157574 C154.550554,147.184084 154.542919,143.218227 154.550554,139.244737 C154.55819,136.946907 154.581096,134.652894 154.588732,132.355064 C154.588732,132.183299 154.581096,132.011535 154.542919,131.843587 C154.462746,131.492424 154.191687,131.274855 153.83282,131.244319 C153.416687,131.221417 153.134175,131.385548 152.985283,131.751979 C152.901293,131.95428 152.908929,132.168031 152.908929,132.3856 C152.908929,139.46994 152.908929,146.550463 152.916564,153.630986 C152.916564,154.302776 152.813485,154.936397 152.359175,155.459325 C151.679618,156.234175 150.809175,156.467012 149.847106,156.257077 C148.877401,156.047142 148.262746,155.382986 147.980234,154.444005 C147.892426,154.138646 147.838978,153.818018 147.838978,153.489757 C147.846613,148.58492 147.816071,143.680084 147.861884,138.782881 C147.922968,131.492424 147.877155,124.2096 147.900062,116.915325 C147.907697,116.373312 147.758805,116.132842 147.338855,116.006881 C146.838732,115.850384 146.296613,116.029783 146.040825,116.411482 C145.960653,116.522175 145.960653,116.648136 145.960653,116.774097 C145.960653,119.38492 145.960653,121.991927 145.968288,124.60275 C145.975924,126.518881 146.006466,128.435012 146.006466,130.358776 C146.006466,131.133626 145.693411,131.751979 144.9375,132.080241 C144.269397,132.362698 143.456219,132.206201 142.93319,131.698541 C142.6125,131.377914 142.471244,130.992397 142.471244,130.545809 C142.471244,125.625705 142.486515,120.709417 142.478879,115.796946 C142.471244,114.480084 142.746121,113.254829 143.448584,112.151718 C144.68553,110.208868 146.45314,109.075221 148.762869,109.014149 C151.725431,108.941626 154.69181,108.953077 157.650554,109.006515 C160.72383,109.059953 163.57186,111.422672 164.304865,114.403744 C164.476663,115.098437 164.556835,115.789312 164.556835,116.506907 C164.5492,121.09875 164.5492,125.690593 164.5492,130.282437 C164.5492,131.244319 164.163608,131.805417 163.327525,132.072607 C162.231835,132.42377 161.17814,131.706175 161.113239,130.561077 C161.105603,130.423665 161.113239,130.297705 161.113239,130.171744 C161.105603,125.713495 161.097968,121.262881 161.120874,116.812267 C161.12851,116.140476 160.529126,115.865652 160.074815,115.976345 C159.658682,116.075587 159.479249,116.289339 159.479249,116.716842 L159.479249,135.263613 Z" id="Fill-1404" fill="#A8770A"></path>
                    <path d="M153.387291,98.1151059 C155.937537,98.1074719 158.010567,100.187733 157.995296,102.775655 C157.980025,105.333041 156.017709,107.405668 153.379655,107.405668 C150.791232,107.405668 148.786921,105.459001 148.756379,102.790923 C148.733473,100.134295 150.768325,98.1532758 153.387291,98.1151059" id="Fill-1406" fill="#A8770A"></path>
                    <path d="M89.4742118,146.617642 C89.4742118,149.136858 89.4818473,151.648439 89.4742118,154.163838 C89.4665764,154.931054 89.1764286,155.557041 88.4892365,155.950191 C87.7676847,156.362426 87.0117734,156.377694 86.2749507,156.003629 C85.5381281,155.629563 85.2021675,154.980675 85.2021675,154.171472 C85.194532,149.262818 85.194532,144.357982 85.194532,139.453145 C85.194532,139.311916 85.2021675,139.170688 85.1868966,139.037093 C85.1258128,138.624858 84.8433005,138.38057 84.4691626,138.395838 C84.0453941,138.411106 83.7781527,138.678295 83.7552463,139.101982 L83.7552463,139.460779 L83.7552463,153.953903 C83.7552463,154.682949 83.6216256,155.370008 82.9955172,155.847132 C82.2472414,156.404413 81.4302463,156.457851 80.601798,156.083786 C79.7733498,155.713537 79.4755665,154.988308 79.4373892,154.133302 C79.4297537,153.999707 79.4297537,153.854661 79.4297537,153.713433 L79.4297537,138.991289 C79.4297537,138.506531 79.4297537,138.506531 78.9296305,138.506531 C77.1620197,138.498897 75.4020443,138.506531 73.6382512,138.498897 C73.2641133,138.498897 73.2564778,138.498897 73.3595567,138.147733 C73.8062315,136.66674 74.2643596,135.189563 74.71867,133.704753 C75.3829557,131.529067 76.0434236,129.35338 76.7153448,127.173877 C77.2765517,125.356988 77.8415764,123.543916 78.4027833,121.727027 C78.9601724,119.898688 79.5137438,118.066531 80.0634975,116.238191 C80.2047537,115.776335 80.0176847,115.379367 79.6168227,115.238139 C79.2006897,115.09691 78.7960099,115.291576 78.6318473,115.768701 C78.3035222,116.761119 77.990468,117.757354 77.6697783,118.757407 C76.8718719,121.227001 76.0739655,123.700413 75.2760591,126.170008 C74.9400985,127.227315 74.6003202,128.284622 74.2643596,129.345746 C73.9207635,130.456492 73.0235961,130.872544 71.9813547,130.418322 C71.2368966,130.09006 70.885665,129.299942 71.13,128.494557 C71.8553695,126.147106 72.5845567,123.795838 73.3022906,121.448387 C74.1421921,118.692518 74.9935468,115.932831 75.8296305,113.165511 C76.4710099,111.027995 78.3187931,109.482112 80.5178079,109.253093 C80.8919458,109.214923 81.2660837,109.199655 81.6364039,109.199655 C84.0530296,109.207289 86.4696552,109.199655 88.8862808,109.207289 C90.203399,109.214923 91.4212562,109.550818 92.471133,110.394374 C93.4790148,111.199759 94.0822167,112.249433 94.4105419,113.478505 C95.2886207,116.745851 96.1781527,120.001746 97.0562315,123.261459 C97.5487192,125.085982 98.0488424,126.914322 98.54133,128.738844 C98.7818473,129.651106 98.1099261,130.59772 97.1631281,130.670243 C96.2354187,130.754217 95.6169458,130.349616 95.3649754,129.448805 C94.6357882,126.899054 93.9256897,124.349302 93.2041379,121.791916 L91.8144828,116.894714 C91.7037685,116.490112 91.6006897,116.089328 91.4785222,115.684727 C91.3525369,115.276308 91.0242118,115.104544 90.6386207,115.215237 C90.2492118,115.329746 90.0545074,115.650374 90.1537685,116.058792 C90.6958867,118.234478 91.2494581,120.413982 91.7915764,122.582034 C92.4062315,124.998191 93.0247044,127.414348 93.6355419,129.822871 C94.3570936,132.65508 95.0748276,135.479655 95.7963793,138.30423 C95.872734,138.601956 95.700936,138.567603 95.5291379,138.567603 C93.6660837,138.567603 91.8068473,138.559969 89.9437931,138.559969 C89.4818473,138.559969 89.4742118,138.559969 89.4742118,139.021825 L89.4742118,146.617642 Z" id="Fill-1408" fill="#A8770A"></path>
                    <path d="M80.4445074,102.819169 C80.40633,100.292319 82.4144581,98.1166327 85.1059606,98.1166327 C87.7669212,98.1166327 89.8246798,100.277051 89.7941379,102.899325 C89.7635961,105.464345 87.6638424,107.582776 85.0754187,107.559875 C82.5404433,107.529339 80.3834236,105.441443 80.4445074,102.819169" id="Fill-1410" fill="#A8770A"></path>
                    <path d="M7.79974138,12.299932 C7.21181034,12.9946248 6.65060345,13.7236706 6.02449507,14.3801935 C4.88299261,15.5520105 3.55060345,15.8840889 2.18385468,14.8420497 C0.969815271,13.9107033 0.618583744,12.4945987 1.42412562,11.2693438 C3.86365764,7.60503007 6.65823892,4.17355294 9.84986453,1.14667712 C11.4456773,-0.364852288 13.1178448,0.692454902 14.3547906,2.14672941 C16.7408744,4.9560366 19.0964163,7.78824575 21.4672291,10.6166379 C21.8490025,11.0632261 22.1925985,12.0976314 22.6698153,11.8151739 C25.7621798,9.93721307 27.2778202,12.4029908 29.4233867,14.5443242 C29.4233867,11.166285 29.4310222,8.3417098 29.4233867,5.51713464 C29.4157512,3.15823268 29.4921059,0.780245752 32.5844704,0.474886275 C34.7911207,0.268768627 35.8868103,2.07802353 35.9020813,5.67363137 C35.9173522,8.42186667 35.9020813,11.1815529 35.9020813,14.4450824 C36.9977709,13.3954092 37.7307759,12.5976575 38.5668596,11.9258667 C39.7427217,10.9716183 41.0636576,10.9296314 42.2127956,11.9182327 C43.354298,12.910651 43.6597167,14.3496575 42.7243719,15.5214745 C40.1244951,18.8079059 37.4826232,22.0828863 34.600234,25.1135791 C32.9967857,26.8083242 31.1604557,25.9418667 29.8280665,24.3539974 C27.3885345,21.4530824 25.0329926,18.4949124 22.616367,15.5710954 C22.2727709,15.1703111 22.1620567,13.9565072 21.5435837,14.4679843 C18.6955542,16.8192523 17.2028202,14.1320889 14.8892734,12.4564288 C14.8892734,15.6016314 14.8969089,18.2200889 14.8892734,20.8347294 C14.8892734,21.9683765 14.8816379,23.0943895 14.3624261,24.1402458 C13.6981404,25.4952784 12.5871798,26.1288993 11.1173522,25.9647686 C9.31156404,25.762468 8.38767241,24.5333961 8.23878079,22.8653699 C7.9257266,19.4033569 7.97917488,15.9375268 7.79974138,12.299932" id="Fill-1412" fill="#FFFFFF"></path>
                </g>
                <g id="Group-2010" transform="translate(0.009852, 0.836601)">
                    <polyline id="Stroke-1416" stroke="#FFFFFF" stroke-width="11.453202" points="13.4283621 900.17919 13.4283621 102.900863 300.87319 102.900863"></polyline>
                    <path d="M421.801059,177.015425 L424.66436,161.430641" id="Stroke-1418" stroke="#FFFFFF" stroke-width="3.81773399"></path>
                    <polyline id="Stroke-1420" stroke="#FFFFFF" stroke-width="3.81773399" points="441.337167 48.1903686 424.791108 161.429114 364.661798 152.840878 366.249975 143.615205"></polyline>
                    <path d="M231.458768,189.029412 L250.784138,189.029412" id="Stroke-1422" stroke="#FFFFFF" stroke-width="3.81773399"></path>
                    <path d="M348.115739,153.157689 L364.661798,153.157689" id="Stroke-1424" stroke="#FFFFFF" stroke-width="3.81773399"></path>
                    <path d="M367.845788,127.392983 L368.800222,117.854316" id="Stroke-1426" stroke="#FFFFFF" stroke-width="3.81773399"></path>
                    <path d="M168.206933,846.901595 L168.206933,905.668026" id="Stroke-1428" stroke="#FFFFFF" stroke-width="3.81773399"></path>
                    <path d="M240.790456,1212.05084 L275.818165,1212.05084" id="Stroke-1430" stroke="#FFFFFF" stroke-width="3.81773399"></path>
                    <path d="M292.042771,1212.05084 L310.654224,1212.05084" id="Stroke-1432" stroke="#FFFFFF" stroke-width="3.81773399"></path>
                    <path d="M301.348498,1212.05084 L301.348498,1306.12446" id="Stroke-1434" stroke="#FFFFFF" stroke-width="3.81773399"></path>
                    <path d="M359.449828,1212.05084 L359.449828,1304.93356" id="Stroke-1436" stroke="#FFFFFF" stroke-width="3.81773399"></path>
                    <polyline id="Stroke-1438" stroke="#FFFFFF" stroke-width="3.81773399" points="408.245049 1212.05084 417.312167 1212.05084 417.312167 1304.93356"></polyline>
                    <polyline id="Stroke-1440" stroke="#FFFFFF" stroke-width="3.81773399" points="529.219495 1012.16176 529.219495 1182.55235 334.751761 1182.55235 334.751761 1170.14712"></polyline>
                    <path d="M334.75367,1154.16232 L334.75367,1137.22632" id="Stroke-1442" stroke="#FFFFFF" stroke-width="3.81773399"></path>
                    <path d="M334.75367,1140.56428 L398.700714,1140.56428" id="Stroke-1444" stroke="#FFFFFF" stroke-width="3.81773399"></path>
                    <path d="M334.75367,1120.53995 L334.75367,1095.18366" id="Stroke-1446" stroke="#FFFFFF" stroke-width="3.81773399"></path>
                    <polyline id="Stroke-1448" stroke="#FFFFFF" stroke-width="3.81773399" points="334.75367 1078.53813 334.75367 1039.17348 334.75367 998.858395 362.668941 998.858395"></polyline>
                    <path d="M334.75367,1040.60676 L398.700714,1040.60676" id="Stroke-1450" stroke="#FFFFFF" stroke-width="3.81773399"></path>
                    <path d="M398.700714,998.142708 L398.700714,1182.55311" id="Stroke-1452" stroke="#FFFFFF" stroke-width="3.81773399"></path>
                    <polyline id="Stroke-1454" stroke="#FFFFFF" stroke-width="3.81773399" points="463.124975 1182.55121 463.124975 1085.8973 444.754039 1085.88966 444.754039 1048.47931"></polyline>
                    <path d="M423.277377,1048.47931 L452.864815,1048.47931" id="Stroke-1456" stroke="#FFFFFF" stroke-width="3.81773399"></path>
                    <path d="M467.897143,1048.47931 L503.352438,1048.47931" id="Stroke-1458" stroke="#FFFFFF" stroke-width="3.81773399"></path>
                    <path d="M480.543387,1048.47931 L480.543387,1085.8973" id="Stroke-1460" stroke="#FFFFFF" stroke-width="3.81773399"></path>
                    <path d="M442.925345,1085.89615 L482.377808,1085.89615" id="Stroke-1462" stroke="#FFFFFF" stroke-width="3.81773399"></path>
                    <path d="M178.672106,189.029412 L216.188978,189.029412" id="Stroke-1464" stroke="#FFFFFF" stroke-width="3.81773399"></path>
                    <path d="M180.635185,102.900863 L180.635185,189.027503" id="Stroke-1466" stroke="#FFFFFF" stroke-width="3.81773399"></path>
                    <path d="M241.003103,102.900863 L241.003103,189.027503" id="Stroke-1468" stroke="#FFFFFF" stroke-width="3.81773399"></path>
                    <polyline id="Stroke-1470" stroke="#FFFFFF" stroke-width="3.81773399" points="301.848239 117.853935 301.848239 189.029412 265.102549 189.029412"></polyline>
                    <path d="M380.566478,998.858395 L400.292709,998.858395" id="Stroke-1472" stroke="#FFFFFF" stroke-width="3.81773399"></path>
                    <polyline id="Stroke-1474" stroke="#FFFFFF" stroke-width="3.81773399" points="552.267537 1012.66522 519.801527 1012.66522 486.529975 1012.66522 486.529975 1029.72337"></polyline>
                    <polyline id="Stroke-1476" stroke="#FFFFFF" stroke-width="3.81773399" points="432.844236 1029.72222 432.844236 1012.16024 398.702241 1012.16024"></polyline>
                    <path d="M1742.88438,946.788497 L1742.88438,989.092235" id="Stroke-1478" stroke="#FFFFFF" stroke-width="3.81773399"></path>
                    <path d="M1742.88438,1003.40596 L1742.88438,1022.49093" id="Stroke-1480" stroke="#FFFFFF" stroke-width="3.81773399"></path>
                    <polyline id="Stroke-1482" stroke="#FFFFFF" stroke-width="3.81773399" points="1742.88438 1036.80465 1742.88438 1072.90196 1742.88438 1069.56591 1833.55557 1069.56591 1833.55557 1012.94844 1742.88438 1012.94844"></polyline>
                    <path d="M1500.47317,1066.70698 L1500.47317,1103.3005" id="Stroke-1484" stroke="#FFFFFF" stroke-width="3.81773399"></path>
                    <polyline id="Stroke-1486" stroke="#FFFFFF" stroke-width="3.81773399" points="1715.53376 1186.94227 1659.22982 1186.94227 1659.22982 1095.98332 1668.4611 1095.98332 1627.73351 1095.98332"></polyline>
                    <polyline id="Stroke-1488" stroke="#FFFFFF" stroke-width="3.81773399" points="1659.22943 1186.94227 1602.28411 1186.94227 1602.28411 1095.98332 1612.46219 1095.98332 1592.73978 1095.98332"></polyline>
                    <polyline id="Stroke-1490" stroke="#FFFFFF" stroke-width="3.81773399" points="1578.11022 1095.98294 1545.97254 1095.98294 1545.97254 1183.46461 1590.19717 1183.46461"></polyline>
                    <polyline id="Stroke-1492" stroke="#FFFFFF" stroke-width="3.81773399" points="1432.85002 1174.85004 1432.85002 1122.28622 1514.64116 1122.28622 1432.85002 1122.28622 1432.85002 1055.48884"></polyline>
                    <path d="M1594.32796,1212.69935 L1571.24212,1212.69935" id="Stroke-1494" stroke="#FFFFFF" stroke-width="3.81773399"></path>
                    <polyline id="Stroke-1496" stroke="#FFFFFF" stroke-width="3.81773399" points="1555.25612 1212.69935 1536.40797 1212.69935 1545.83014 1212.69935 1545.83014 1303.04758 1490.11794 1303.04758 1490.11794 1212.69935 1521.61043 1212.69935 1457.9039 1212.69935"></polyline>
                    <polyline id="Stroke-1498" stroke="#FFFFFF" stroke-width="3.81773399" points="1442.87158 1212.69935 1424.02342 1212.69935 1433.44559 1212.69935 1433.44559 1303.04758 1376.77897 1303.04758 1376.77897 1212.69935 1408.74867 1212.69935 1344.56493 1212.69935 1376.77897 1212.69935 1376.77897 1303.04758 1320.70409 1303.04758 1320.70409 1212.69935 1330.24842 1212.69935 1310.68254 1212.69935 1320.70409 1212.69935 1320.70409 1303.04758 1263.67478 1303.04758 1263.67478 1212.69935 1254.37096 1212.69935 1296.12552 1212.69935 1263.67478 1212.69935 1263.67478 1303.04758 1207.84042 1303.04758 1207.84042 1212.69935"></polyline>
                    <path d="M356.250948,1212.05084 L392.519421,1212.05084" id="Stroke-1500" stroke="#FFFFFF" stroke-width="3.81773399"></path>
                    <path d="M417.312167,1212.05084 L426.402192,1212.05084" id="Stroke-1502" stroke="#FFFFFF" stroke-width="3.81773399"></path>
                    <polygon id="Fill-1374" fill="#FFE077" points="1440.99015 1016.45328 1489.99015 1016.45328 1489.99015 944.433179 1440.99015 944.433179"></polygon>
                    <polyline id="Stroke-1504" stroke="#FFFFFF" stroke-width="3.81773399" points="440.956921 1212.05084 505.617882 1212.05084 472.930443 1212.05084 472.930443 1303.58234 529.639064 1303.58234 529.639064 1212.05084 519.30064 1212.05084 538.706182 1212.05084 529.639064 1212.05084 529.639064 1303.58234 585.95064 1303.58234 585.95064 1212.05084 554.137463 1212.05084 618.244852 1212.05084 585.95064 1212.05084 585.95064 1303.58234 642.10569 1303.58234 642.10569 1212.05084 632.561355 1212.05084 652.127241 1212.05084"></polyline>
                    <path d="M667.15766,1212.05084 L731.581921,1212.05084" id="Stroke-1506" stroke="#FFFFFF" stroke-width="3.81773399"></path>
                    <polyline id="Stroke-1508" stroke="#FFFFFF" stroke-width="3.81773399" points="745.898424 1212.05084 755.442759 1212.05084 755.442759 1234.17032 755.442759 1303.58234 699.367882 1303.58234 699.367882 1212.05084"></polyline>
                    <polyline id="Stroke-1510" stroke="#FFFFFF" stroke-width="3.81773399" points="1366.20346 966.19371 1440.99015 966.19371 1440.99015 944.562808 1506.82587 944.562808 1506.82587 918.481292"></polyline>
                    <path d="M1406.61036,896.216769 L1451.46873,896.216769" id="Stroke-1512" stroke="#FFFFFF" stroke-width="3.81773399"></path>
                    <polyline id="Stroke-1514" stroke="#FFFFFF" stroke-width="3.81773399" points="1465.78523 896.216769 1506.82587 896.216769 1506.82587 903.526311"></polyline>
                    <path d="M1479.46074,896.216769 L1479.46074,944.562808" id="Stroke-1516" stroke="#FFFFFF" stroke-width="3.81773399"></path>
                    <polyline id="Stroke-1518" stroke="#FFFFFF" stroke-width="3.81773399" points="1432.85002 1055.48693 1439.87466 1055.48693 1439.87466 966.192183"></polyline>
                    <polyline id="Stroke-1520" stroke="#FFFFFF" stroke-width="3.81773399" points="1439.87389 1018.50217 1500.95764 1018.50217 1500.95764 1034.88471"></polyline>
                    <path d="M1500.47317,1066.70698 L1500.47317,1059.31346" id="Stroke-1522" stroke="#FFFFFF" stroke-width="3.81773399"></path>
                    <path d="M1500.47317,1084.66593 L1432.84964,1084.66593" id="Stroke-1524" stroke="#FFFFFF" stroke-width="3.81773399"></path>
                    <path d="M1456.07712,1044.30428 C1455.48919,1045.00279 1454.93562,1045.72802 1454.30187,1046.38454 C1453.16037,1047.56018 1451.82798,1047.89226 1450.46123,1046.8464 C1449.24719,1045.91887 1448.89596,1044.49895 1449.70914,1043.27751 C1452.14103,1039.60938 1454.94325,1036.1779 1458.12724,1033.15103 C1459.72305,1031.6395 1461.39522,1032.70062 1462.63217,1034.1549 C1465.01825,1036.96039 1467.38143,1039.79641 1469.75224,1042.62099 C1470.12638,1043.07139 1470.46998,1044.1058 1470.94719,1043.81952 C1474.03956,1041.94538 1475.5552,1044.40734 1477.70076,1046.55249 C1477.70076,1043.17445 1477.7084,1040.34606 1477.70076,1037.52148 C1477.69313,1035.16258 1477.76948,1032.7846 1480.86185,1032.48305 C1483.07613,1032.27312 1484.16419,1034.08237 1484.17946,1037.67798 C1484.19473,1040.43003 1484.18709,1043.18972 1484.18709,1046.44943 C1485.28278,1045.40358 1486.01579,1044.60582 1486.84424,1043.93022 C1488.0201,1042.97597 1489.34867,1042.93398 1490.49017,1043.9264 C1491.63167,1044.91882 1491.93709,1046.35401 1491.00938,1047.52582 C1488.40187,1050.81226 1485.76,1054.08724 1482.88143,1057.12175 C1481.27416,1058.81649 1479.43783,1057.94622 1478.10544,1056.36216 C1475.66591,1053.46125 1473.31037,1050.49926 1470.89374,1047.57926 C1470.55778,1047.17466 1470.43943,1045.96467 1469.82096,1046.47233 C1466.97675,1048.82742 1465.48783,1046.13644 1463.17429,1044.4646 C1463.17429,1047.6098 1463.17429,1050.22826 1463.16665,1052.8429 C1463.16665,1053.97273 1463.15901,1055.09874 1462.6398,1056.14841 C1461.97552,1057.49963 1460.86456,1058.13325 1459.39473,1057.96912 C1457.59658,1057.76682 1456.66505,1056.54156 1456.51616,1054.86972 C1456.21074,1051.41152 1456.25655,1047.94188 1456.07712,1044.30428" id="Fill-1526" fill="#FFFFFF"></path>
                    <path d="M1490.59325,1018.50217 L1490.59325,1005.15033" id="Stroke-1528" stroke="#FFFFFF" stroke-width="3.81773399"></path>
                    <path d="M1490.59325,989.882353 L1490.59325,962.686275" id="Stroke-1530" stroke="#FFFFFF" stroke-width="3.81773399"></path>
                    <path d="M1490.59325,948.32789 L1490.59325,944.564335" id="Stroke-1532" stroke="#FFFFFF" stroke-width="3.81773399"></path>
                    <path d="M1490.59325,977.074431 L1439.87466,977.074431" id="Stroke-1534" stroke="#FFFFFF" stroke-width="3.81773399"></path>
                    <path d="M1468.93181,964.911582 L1468.93181,973.541804 C1468.93181,973.751739 1468.93181,973.950222 1468.85164,974.144889 C1468.61112,974.74034 1467.94683,975.011346 1467.32836,974.77851 C1466.86642,974.610562 1466.60681,974.228863 1466.59154,973.709752 C1466.5839,973.289882 1466.59154,972.87383 1466.59154,972.461595 C1466.59917,970.568366 1466.59154,968.686588 1466.59917,966.800993 C1466.59917,965.71315 1466.61445,964.625307 1466.61445,963.533647 C1466.61445,963.449673 1466.61445,963.369516 1466.59154,963.289359 C1466.55336,963.117595 1466.42738,963.018353 1466.25558,963.003085 C1466.05324,962.991634 1465.91962,963.075608 1465.8509,963.243556 C1465.8089,963.33898 1465.81654,963.442039 1465.81654,963.548915 C1465.81654,966.907869 1465.81654,970.266824 1465.82417,973.625778 C1465.82417,973.946405 1465.77073,974.247948 1465.55312,974.496052 C1465.23243,974.862484 1464.81629,974.973176 1464.36198,974.873935 C1463.90004,974.774693 1463.60607,974.461699 1463.47245,974.015111 C1463.43809,973.870065 1463.41518,973.717386 1463.41518,973.564706 C1463.41518,971.23634 1463.39991,968.907974 1463.42282,966.579608 C1463.44954,963.117595 1463.43046,959.667033 1463.43809,956.208837 C1463.44573,955.945464 1463.36937,955.830954 1463.17467,955.773699 C1462.93797,955.697359 1462.68218,955.781333 1462.55619,955.964549 C1462.51802,956.017987 1462.51802,956.075242 1462.51802,956.136314 L1462.51802,959.850248 C1462.52565,960.76251 1462.54092,961.670954 1462.54092,962.587033 C1462.54092,962.949647 1462.3844,963.243556 1462.03317,963.400052 C1461.71248,963.537464 1461.32688,963.461124 1461.07873,963.220654 C1460.92984,963.071791 1460.8573,962.884758 1460.8573,962.674824 C1460.8573,960.338824 1460.86494,958.006641 1460.86494,955.674458 C1460.8573,955.044654 1460.99092,954.468288 1461.32688,953.941542 C1461.90718,953.021647 1462.7509,952.479634 1463.84659,952.452915 C1465.25533,952.418562 1466.65644,952.426196 1468.06518,952.449098 C1469.51974,952.472 1470.87885,953.598013 1471.22245,955.010301 C1471.30262,955.342379 1471.34844,955.666824 1471.34844,956.010353 C1471.3408,958.186039 1471.3408,960.369359 1471.3408,962.548863 C1471.3408,963.003085 1471.15373,963.266458 1470.7605,963.400052 C1470.23748,963.560366 1469.73735,963.224471 1469.70681,962.678641 L1469.70681,962.495425 C1469.70681,960.38081 1469.69917,958.266196 1469.71445,956.155399 C1469.72208,955.834771 1469.43193,955.704993 1469.21432,955.758431 C1469.01962,955.804235 1468.93181,955.903477 1468.93181,956.109595 L1468.93181,964.911582 Z" id="Fill-1536" fill="#A8770A"></path>
                    <path d="M1466.04637,947.280507 C1467.25277,947.27669 1468.23775,948.265292 1468.23011,949.494363 C1468.22248,950.70435 1467.29095,951.689135 1466.03873,951.689135 C1464.80942,951.689135 1463.85499,950.761605 1463.83972,949.501997 C1463.83972,948.238573 1464.80179,947.299592 1466.04637,947.280507" id="Fill-1538" fill="#A8770A"></path>
                    <path d="M1468.37289,1007.87146 C1468.37289,1009.06618 1468.38053,1010.2609 1468.37289,1011.4518 C1468.37289,1011.81823 1468.23164,1012.11214 1467.91095,1012.30299 C1467.56735,1012.49766 1467.20085,1012.50147 1466.86107,1012.32971 C1466.50984,1012.15031 1466.34568,1011.84495 1466.34568,1011.45944 L1466.34568,1004.47434 C1466.34568,1004.40945 1466.34568,1004.33693 1466.33804,1004.27585 C1466.31514,1004.08119 1466.18151,1003.96668 1466.00208,1003.97431 C1465.79974,1003.97813 1465.67376,1004.10791 1465.65849,1004.30639 L1465.65849,1004.47815 L1465.65849,1011.35256 C1465.65849,1011.70372 1465.58977,1012.02435 1465.29962,1012.25337 C1464.94457,1012.52056 1464.55516,1012.54346 1464.15812,1012.36788 C1463.76489,1012.1923 1463.63127,1011.84495 1463.60836,1011.44035 L1463.60836,1011.24568 L1463.60836,1004.25295 C1463.60836,1004.02012 1463.60836,1004.02012 1463.36784,1004.02012 L1460.85578,1004.02012 C1460.67634,1004.02012 1460.67634,1004.02012 1460.72979,1003.85217 C1460.93977,1003.15366 1461.15356,1002.45133 1461.37117,1001.74519 C1461.68422,1000.71078 1461.99728,999.680193 1462.31797,998.645788 C1462.58521,997.783148 1462.85627,996.924324 1463.11587,996.061684 C1463.38312,995.191409 1463.64654,994.321135 1463.90615,993.458494 C1463.97486,993.233292 1463.89087,993.046259 1463.68853,992.98137 C1463.49765,992.916481 1463.30294,993.000455 1463.22659,993.229475 C1463.07006,993.702782 1462.92117,994.176089 1462.77228,994.649396 C1462.39432,995.82503 1462.01255,996.99303 1461.63841,998.168664 C1461.47425,998.672507 1461.31009,999.17635 1461.15356,999.680193 C1460.9894,1000.20312 1460.57326,1000.40161 1460.07314,1000.18022 C1459.71427,1000.02754 1459.55011,999.657292 1459.67228,999.267958 C1460.00824,998.157213 1460.35565,997.042651 1460.69925,995.928089 C1461.09629,994.615043 1461.49716,993.309631 1461.90183,992.000403 C1462.20725,990.981265 1463.0777,990.248403 1464.12376,990.13771 C1464.30319,990.122442 1464.47881,990.118625 1464.65824,990.118625 C1465.79974,990.122442 1466.94888,990.118625 1468.09038,990.122442 C1468.72413,990.122442 1469.29679,990.282756 1469.79691,990.679723 C1470.27413,991.065239 1470.55664,991.565265 1470.71317,992.145448 C1471.13312,993.695148 1471.55688,995.24103 1471.97302,996.790729 C1472.2059,997.65337 1472.4426,998.523644 1472.67548,999.390102 C1472.79383,999.825239 1472.47314,1000.26801 1472.02647,1000.31 C1471.58743,1000.34435 1471.28964,1000.15732 1471.16748,999.725997 C1470.82006,998.51601 1470.4841,997.306024 1470.1405,996.088403 C1469.92289,995.31737 1469.7091,994.54252 1469.48385,993.767671 C1469.43041,993.573004 1469.38841,993.385971 1469.32733,993.191305 C1469.26624,993.000455 1469.10972,992.916481 1468.92647,992.973736 C1468.74703,993.023357 1468.65541,993.17222 1468.69358,993.370703 C1468.95319,994.405108 1469.22425,995.43188 1469.47622,996.466285 C1469.76637,997.611383 1470.05651,998.756481 1470.35048,999.901579 C1470.69026,1001.24898 1471.02622,1002.58874 1471.37745,1003.92851 C1471.41563,1004.06974 1471.33164,1004.05447 1471.24383,1004.05447 C1470.36193,1004.05447 1469.47622,1004.05065 1468.59814,1004.05065 C1468.38053,1004.05065 1468.37289,1004.05065 1468.37289,1004.26822 L1468.37289,1007.87146 Z" id="Fill-1540" fill="#A8770A"></path>
                    <path d="M1464.0852,987.086787 C1464.06993,985.888251 1465.02436,984.853846 1466.29948,984.853846 C1467.56697,984.853846 1468.53667,985.880617 1468.5214,987.124957 C1468.51377,988.338761 1467.51352,989.346447 1466.28421,989.334996 C1465.08544,989.323545 1464.06229,988.331127 1464.0852,987.086787" id="Fill-1542" fill="#A8770A"></path>
                    <polyline id="Stroke-1544" stroke="#FFFFFF" stroke-width="3.81773399" points="291.863719 1012.62018 306.596355 1012.62018 306.596355 1094.28476 131.957931 1094.28476 131.957931 932.803033 131.957931 925.478222 123.394754 925.478222"></polyline>
                    <path d="M306.597882,1171.18954 L306.597882,1090.34562" id="Stroke-1546" stroke="#FFFFFF" stroke-width="3.81773399"></path>
                    <path d="M131.959076,956.006536 C131.959076,956.006536 178.489618,943.837961 181.830135,944.078431" id="Stroke-1548" stroke="#FFFFFF" stroke-width="3.81773399"></path>
                    <path d="M220.482783,937.875817 C220.482783,937.875817 281.990296,933.82217 289.293621,935.490196" id="Stroke-1550" stroke="#FFFFFF" stroke-width="3.81773399"></path>
                    <path d="M196.860554,941.454248 L206.37053,940.263346" id="Stroke-1552" stroke="#FFFFFF" stroke-width="3.81773399"></path>
                    <path d="M201.615924,940.261438 L208.835259,992.794719" id="Stroke-1554" stroke="#FFFFFF" stroke-width="3.81773399"></path>
                    <path d="M131.959076,1012.30719 L131.959076,1036.55273" id="Stroke-1556" stroke="#FFFFFF" stroke-width="3.81773399"></path>
                    <polyline id="Stroke-1558" stroke="#FFFFFF" stroke-width="3.81773399" points="857.326626 969.843137 868.302611 969.843137 868.302611 882.052288 811.991034 882.052288 811.991034 969.843137 842.532906 969.843137 780.494729 969.843137"></polyline>
                    <polyline id="Stroke-1560" stroke="#FFFFFF" stroke-width="3.81773399" points="766.500443 969.843137 744.227783 969.843137 755.364113 969.843137 755.364113 882.052288 811.992562 882.052288 699.010542 882.052288 699.010542 969.843137 729.911281 969.843137 668.510665 969.843137"></polyline>
                    <path d="M699.011687,882.052288 L467.897525,882.052288" id="Stroke-1562" stroke="#FFFFFF" stroke-width="3.81773399"></path>
                    <polyline id="Stroke-1564" stroke="#FFFFFF" stroke-width="3.81773399" points="455.672377 882.052288 444.753658 882.052288 444.753658 905.110745 390.454027 912.103477"></polyline>
                    <polyline id="Stroke-1566" stroke="#FFFFFF" stroke-width="3.81773399" points="642.342389 883.15578 642.342389 970.94663 653.558892 970.94663 631.923793 970.94663"></polyline>
                    <polyline id="Stroke-1568" stroke="#FFFFFF" stroke-width="3.81773399" points="616.975074 969.843137 586.433202 969.843137 586.433202 965.537569 586.433202 969.843137 554.936897 969.843137"></polyline>
                    <polyline id="Stroke-1570" stroke="#FFFFFF" stroke-width="3.81773399" points="540.620394 969.843137 529.22064 969.843137 529.22064 882.052288 585.955985 882.052288 585.955985 951.223843"></polyline>
                    <polyline id="Stroke-1572" stroke="#FFFFFF" stroke-width="3.81773399" points="375.182709 914.336418 362.137512 917.199163 337.639113 786.470954 337.639113 776.607843"></polyline>
                    <polyline id="Stroke-1574" stroke="#FFFFFF" stroke-width="3.81773399" points="337.639495 761.977307 337.639495 729.53668 340.819667 729.53668"></polyline>
                    <polyline id="Stroke-1576" stroke="#FFFFFF" stroke-width="3.81773399" points="356.411293 729.53668 429.265111 729.53668 429.265111 787.42902 337.639495 787.42902"></polyline>
                    <path d="M337.639495,729.53668 L337.639495,697.412863" id="Stroke-1578" stroke="#FFFFFF" stroke-width="3.81773399"></path>
                    <polyline id="Stroke-1580" stroke="#FFFFFF" stroke-width="3.81773399" points="429.265111 781.386719 444.536047 781.386719 444.536047 882.052288"></polyline>
                    <polyline id="Stroke-1582" stroke="#FFFFFF" stroke-width="3.81773399" points="337.639495 684.358745 337.639495 663.052288 337.639495 673.705516 429.265111 673.705516 429.265111 737.48366"></polyline>
                    <polyline id="Stroke-1584" stroke="#FFFFFF" stroke-width="11.453202" points="355.139606 117.853935 301.847857 117.853935 301.847857 106.089961 301.847857 102.902771 281.327537 102.902771"></polyline>
                    <polyline id="Stroke-1586" stroke="#FFFFFF" stroke-width="3.81773399" points="419.08665 192.607843 417.811527 202.787765 412.084926 202.787765 424.66436 204.379451"></polyline>
                    <path d="M428.944421,278.169569 L356.090603,278.169569" id="Stroke-1588" stroke="#FFFFFF" stroke-width="3.81773399"></path>
                    <polyline id="Stroke-1590" stroke="#FFFFFF" stroke-width="3.81773399" points="341.457229 278.169569 337.639495 278.169569 337.639495 310.614013 337.639495 245.412131"></polyline>
                    <polyline id="Stroke-1592" stroke="#FFFFFF" stroke-width="3.81773399" points="337.639495 230.777778 337.639495 222.494902 427.673116 222.494902"></polyline>
                    <path d="M131.959076,1048.56863 L131.959076,1001.8868" id="Stroke-1594" stroke="#FFFFFF" stroke-width="3.81773399"></path>
                    <path d="M273.453842,935.206975 C273.453842,935.206975 278.22601,967.605616 280.134877,983.278191" id="Stroke-1596" stroke="#FFFFFF" stroke-width="3.81773399"></path>
                    <polyline id="Stroke-1598" stroke="#FFFFFF" stroke-width="3.81773399" points="337.639495 649.215686 337.639495 584.567268 337.639495 616.889569 427.592943 616.889569"></polyline>
                    <polyline id="Stroke-1600" stroke="#FFFFFF" stroke-width="3.81773399" points="337.639495 569.453882 337.639495 550.449072 337.639495 561.499268 429.265111 561.499268"></polyline>
                    <polyline id="Stroke-1602" stroke="#FFFFFF" stroke-width="3.81773399" points="337.639495 535.898693 337.639495 472.204523 337.639495 504.049699 429.265111 504.049699 429.265111 447.630719 337.639495 447.630719 337.639495 458.127451 337.639495 438.088235"></polyline>
                    <polyline id="Stroke-1604" stroke="#FFFFFF" stroke-width="3.81773399" points="337.639495 423.058824 337.639495 358.887529 337.639495 390.973176 428.944421 390.973176 428.944421 334.79085 337.639495 334.79085 337.639495 344.810458 337.639495 324.526954"></polyline>
                    <polyline id="Stroke-1606" stroke="#FFFFFF" stroke-width="3.81773399" points="907.911601 881.098039 925.091404 881.098039 1011.6318 881.098039"></polyline>
                    <path d="M1417.60887,842.130353 L1366.20308,663.529412" id="Stroke-1608" stroke="#FFFFFF" stroke-width="3.81773399"></path>
                    <path d="M1676.33479,822.609485 L1632.32777,670.193119" id="Stroke-1610" stroke="#FFFFFF" stroke-width="3.81773399"></path>
                    <polyline id="Stroke-1612" stroke="#FFFFFF" stroke-width="3.81773399" points="1827.85111 754.734562 1744.80776 771.437725 1751.79421 808.817542"></polyline>
                    <polyline id="Stroke-1614" stroke="#FFFFFF" stroke-width="3.81773399" points="1754.76975 824.700434 1756.58318 834.414682 1820.58749 819.623833"></polyline>
                    <path d="M985.697931,900.183007 C985.697931,900.183007 1105.47933,799.03268 1254.13426,840.542484" id="Stroke-1616" stroke="#FFFFFF" stroke-width="3.81773399"></path>
                    <path d="M1001.364,888.609119 L1044.8709,956.005773" id="Stroke-1618" stroke="#FFFFFF" stroke-width="3.81773399"></path>
                    <path d="M1203.27135,831.447352 L1203.27135,932.628214" id="Stroke-1620" stroke="#FFFFFF" stroke-width="3.81773399"></path>
                    <path d="M1032.94239,956.006536 C1032.94239,956.006536 1130.77182,971.27451 1217.14805,926.424837" id="Stroke-1622" stroke="#FFFFFF" stroke-width="3.81773399"></path>
                    <path d="M1023.12203,922.309736 C1023.12203,922.309736 1092.5208,865.352559 1203.27326,872.509422" id="Stroke-1624" stroke="#FFFFFF" stroke-width="3.81773399"></path>
                    <polyline id="Stroke-1626" stroke="#FFFFFF" stroke-width="11.453202" points="1820.20075 896.213333 1833.55518 896.213333 1833.55518 1186.94227 1594.32834 1186.94227 1594.32834 1213.67268 1608.00346 1213.67268 1608.00346 1303.04758 1072.87932 1303.04758 238.379938 1303.04758 238.379938 1213.01616 0.725997537 1213.01616 0.725997537 894.457516 13.4275985 894.457516"></polyline>
                    <polyline id="Stroke-1628" stroke="#FFFFFF" stroke-width="11.453202" points="350.06202 117.934092 369.15069 117.934092 385.063005 0.244732026 449.323103 8.51233987 444.234064 52.4841046 536.497241 62.5876863 548.248227 63.7824052 526.300074 217.73702 428.944039 204.060732 428.944039 782.808549 444.058448 782.808549 444.058448 881.096131 540.933448 881.096131 907.913128 881.096131 893.596626 833.860837 1241.48764 735.096131 1235.28382 718.396784 1485.82261 617.723582 1496.7986 652.553647 1615.14835 605.795477 1633.44675 669.096497 1754.97286 619.475582 1794.42532 759.429464"></polyline>
                    <polyline id="Stroke-1630" stroke="#FFFFFF" stroke-width="11.453202" points="1823.5489 831.954248 1823.5489 896.213333 1833.55518 896.213333"></polyline>
                    <polyline id="Stroke-1632" stroke="#FFFFFF" stroke-width="11.453202" points="1891.76074 740.897961 1794.42379 761.460105 1790.8084 746.596732"></polyline>
                    <polyline id="Stroke-1634" stroke="#FFFFFF" stroke-width="11.453202" points="1871.74016 745.125281 1893.69977 740.422745 1897.50223 757.393098 1907.06183 800.063268 1823.5489 819.625359 1823.5489 842.763974"></polyline>
                    <path d="M1007.45596,896.179744 C1007.45596,896.179744 1103.42998,831.531325 1205.58872,841.069992" id="Stroke-1636" stroke="#FFFFFF" stroke-width="3.81773399"></path>
                    <path d="M1172.22249,840.110018 L1173.89084,873.607953" id="Stroke-1638" stroke="#FFFFFF" stroke-width="1.908867"></path>
                    <path d="M1167.68129,840.706614 L1168.83043,874.13966" id="Stroke-1640" stroke="#FFFFFF" stroke-width="1.908867"></path>
                    <path d="M1161.96958,841.165035 L1163.61884,874.498839" id="Stroke-1642" stroke="#FFFFFF" stroke-width="1.908867"></path>
                    <path d="M1156.62361,841.709339 L1159.11277,874.886646" id="Stroke-1644" stroke="#FFFFFF" stroke-width="1.908867"></path>
                    <path d="M1012.8172,892.779948 L1031.23395,919.74319" id="Stroke-1646" stroke="#FFFFFF" stroke-width="1.908867"></path>
                    <path d="M1017.6936,889.861475 L1035.26281,917.019383" id="Stroke-1648" stroke="#FFFFFF" stroke-width="1.908867"></path>
                    <path d="M1022.02596,887.364016 L1038.91562,913.357741" id="Stroke-1650" stroke="#FFFFFF" stroke-width="1.908867"></path>
                    <path d="M1027.37232,884.397067 L1043.7084,911.749642" id="Stroke-1652" stroke="#FFFFFF" stroke-width="1.908867"></path>
                    <path d="M1031.82379,882.007629 L1047.95372,909.291498" id="Stroke-1654" stroke="#FFFFFF" stroke-width="1.908867"></path>
                    <path d="M1036.56618,879.547576 L1052.16544,906.965041" id="Stroke-1656" stroke="#FFFFFF" stroke-width="1.908867"></path>
                    <path d="M1041.2639,877.184094 L1056.2676,904.796225" id="Stroke-1658" stroke="#FFFFFF" stroke-width="1.908867"></path>
                    <path d="M1060.07655,901.905234 L1045.9853,874.888554" id="Stroke-1660" stroke="#FFFFFF" stroke-width="1.908867"></path>
                    <path d="M1064.52803,899.679927 L1051.34539,872.369339" id="Stroke-1662" stroke="#FFFFFF" stroke-width="1.908867"></path>
                    <path d="M1069.45672,898.073354 L1056.26645,870.140596" id="Stroke-1664" stroke="#FFFFFF" stroke-width="1.908867"></path>
                    <path d="M1073.75167,895.650327 L1061.5082,868.145072" id="Stroke-1666" stroke="#FFFFFF" stroke-width="1.908867"></path>
                    <path d="M1065.88523,866.005265 L1077.47969,893.254782" id="Stroke-1668" stroke="#FFFFFF" stroke-width="1.908867"></path>
                    <path d="M1070.94068,863.947524 L1081.87849,890.990923" id="Stroke-1670" stroke="#FFFFFF" stroke-width="1.908867"></path>
                    <path d="M1075.80982,862.046661 L1087.01105,889.250374" id="Stroke-1672" stroke="#FFFFFF" stroke-width="1.908867"></path>
                    <path d="M1095.11457,855.232565 L1098.07331,885.848669" id="Stroke-1674" stroke="#FFFFFF" stroke-width="1.908867"></path>
                    <path d="M1150.92679,842.402505 L1154.29784,873.610243" id="Stroke-1676" stroke="#FFFFFF" stroke-width="1.908867"></path>
                    <path d="M1145.75185,843.140711 L1149.64594,874.138515" id="Stroke-1678" stroke="#FFFFFF" stroke-width="1.908867"></path>
                    <path d="M1139.98058,844.072439 L1144.8711,874.887027" id="Stroke-1680" stroke="#FFFFFF" stroke-width="1.908867"></path>
                    <path d="M1134.4105,845.09005 L1139.98058,875.648899" id="Stroke-1682" stroke="#FFFFFF" stroke-width="1.908867"></path>
                    <path d="M1128.90762,846.196978 L1135.14198,876.801631" id="Stroke-1684" stroke="#FFFFFF" stroke-width="1.908867"></path>
                    <path d="M1123.7178,847.341694 L1130.31866,877.473041" id="Stroke-1686" stroke="#FFFFFF" stroke-width="1.908867"></path>
                    <path d="M1118.28211,848.634892 L1125.58925,878.628826" id="Stroke-1688" stroke="#FFFFFF" stroke-width="1.908867"></path>
                    <path d="M1112.4509,850.129626 L1121.01789,879.631169" id="Stroke-1690" stroke="#FFFFFF" stroke-width="1.908867"></path>
                    <path d="M1108.11128,851.315184 L1115.8651,880.847263" id="Stroke-1692" stroke="#FFFFFF" stroke-width="1.908867"></path>
                    <polyline id="Stroke-1694" stroke="#FFFFFF" stroke-width="1.908867" points="1809.27707 821.226588 1803.707 795.778693 1873.22411 780.827529 1871.86882 772.556105 1802.11882 787.526353"></polyline>
                    <path d="M1809.27707,794.858034 L1814.84714,820.305929" id="Stroke-1696" stroke="#FFFFFF" stroke-width="1.908867"></path>
                    <path d="M1813.25858,792.774337 L1818.82866,818.222233" id="Stroke-1698" stroke="#FFFFFF" stroke-width="1.908867"></path>
                    <path d="M1818.82866,791.853297 L1824.39873,817.301192" id="Stroke-1700" stroke="#FFFFFF" stroke-width="1.908867"></path>
                    <path d="M1823.1385,791.219676 L1828.70857,816.667571" id="Stroke-1702" stroke="#FFFFFF" stroke-width="1.908867"></path>
                    <path d="M1827.47086,790.50399 L1833.04094,815.951885" id="Stroke-1704" stroke="#FFFFFF" stroke-width="1.908867"></path>
                    <path d="M1832.36978,789.098954 L1837.93985,814.54685" id="Stroke-1706" stroke="#FFFFFF" stroke-width="1.908867"></path>
                    <path d="M1836.96289,788.126003 L1842.53297,813.573898" id="Stroke-1708" stroke="#FFFFFF" stroke-width="1.908867"></path>
                    <path d="M1842.53297,787.525971 L1848.10304,812.973867" id="Stroke-1710" stroke="#FFFFFF" stroke-width="1.908867"></path>
                    <path d="M1848.10304,786.604931 L1853.67312,812.052826" id="Stroke-1712" stroke="#FFFFFF" stroke-width="1.908867"></path>
                    <path d="M1852.08494,784.521234 L1857.65501,809.969129" id="Stroke-1714" stroke="#FFFFFF" stroke-width="1.908867"></path>
                    <path d="M1857.65501,783.600575 L1863.22509,809.048471" id="Stroke-1716" stroke="#FFFFFF" stroke-width="1.908867"></path>
                    <path d="M1861.96485,782.966954 L1867.53493,808.41485" id="Stroke-1718" stroke="#FFFFFF" stroke-width="1.908867"></path>
                    <path d="M1866.29683,782.251268 L1871.86691,807.699163" id="Stroke-1720" stroke="#FFFFFF" stroke-width="1.908867"></path>
                    <path d="M1802.11882,760.94481 L1807.39111,786.392706" id="Stroke-1722" stroke="#FFFFFF" stroke-width="1.908867"></path>
                    <path d="M1806.74171,759.196627 L1812.06745,785.388837" id="Stroke-1724" stroke="#FFFFFF" stroke-width="1.908867"></path>
                    <path d="M1810.85036,757.769072 L1816.81366,784.373516" id="Stroke-1726" stroke="#FFFFFF" stroke-width="1.908867"></path>
                    <path d="M1816.04744,756.725124 L1821.61751,782.966954" id="Stroke-1728" stroke="#FFFFFF" stroke-width="1.908867"></path>
                    <path d="M1820.50655,757.519059 L1825.77884,782.966954" id="Stroke-1730" stroke="#FFFFFF" stroke-width="1.908867"></path>
                    <path d="M1825.13708,755.770876 L1830.45518,781.963085" id="Stroke-1732" stroke="#FFFFFF" stroke-width="1.908867"></path>
                    <path d="M1829.24534,754.34332 L1835.20865,780.947765" id="Stroke-1734" stroke="#FFFFFF" stroke-width="1.908867"></path>
                    <path d="M1834.43517,753.299754 L1840.00525,779.541584" id="Stroke-1736" stroke="#FFFFFF" stroke-width="1.908867"></path>
                    <path d="M1839.75175,752.043582 L1845.02404,777.491477" id="Stroke-1738" stroke="#FFFFFF" stroke-width="1.908867"></path>
                    <path d="M1844.37464,750.295017 L1849.70038,776.487226" id="Stroke-1740" stroke="#FFFFFF" stroke-width="1.908867"></path>
                    <path d="M1848.48329,748.867461 L1854.44659,775.471906" id="Stroke-1742" stroke="#FFFFFF" stroke-width="1.908867"></path>
                    <path d="M1853.68037,747.823895 L1859.25044,774.065725" id="Stroke-1744" stroke="#FFFFFF" stroke-width="1.908867"></path>
                    <path d="M1858.13948,748.61783 L1863.41177,774.065725" id="Stroke-1746" stroke="#FFFFFF" stroke-width="1.908867"></path>
                    <path d="M1862.77001,746.869647 L1868.08812,773.061856" id="Stroke-1748" stroke="#FFFFFF" stroke-width="1.908867"></path>
                    <polyline id="Stroke-1750" stroke="#FFFFFF" stroke-width="1.908867" points="407.182574 107.89578 414.329372 37.1668915 406.037254 35.9111007 398.837007 106.872826"></polyline>
                    <path d="M408.02133,102.313809 L433.955197,104.836842" id="Stroke-1752" stroke="#FFFFFF" stroke-width="1.908867"></path>
                    <path d="M407.260837,97.885715 L433.194704,100.412565" id="Stroke-1754" stroke="#FFFFFF" stroke-width="1.908867"></path>
                    <path d="M408.095776,92.3018353 L434.029643,94.828685" id="Stroke-1756" stroke="#FFFFFF" stroke-width="1.908867"></path>
                    <path d="M408.819236,88.0115346 L434.753103,90.5383843" id="Stroke-1758" stroke="#FFFFFF" stroke-width="1.908867"></path>
                    <path d="M409.471687,83.6651242 L435.401736,86.1919739" id="Stroke-1760" stroke="#FFFFFF" stroke-width="1.908867"></path>
                    <path d="M409.639286,78.5770719 L437.199507,81.1039216" id="Stroke-1762" stroke="#FFFFFF" stroke-width="1.908867"></path>
                    <path d="M410.124138,73.9046902 L437.199507,76.4315399" id="Stroke-1764" stroke="#FFFFFF" stroke-width="1.908867"></path>
                    <path d="M411.264877,68.4196706 L437.198744,70.9465203" id="Stroke-1766" stroke="#FFFFFF" stroke-width="1.908867"></path>
                    <path d="M412.103633,62.8376993 L438.033682,65.364549" id="Stroke-1768" stroke="#FFFFFF" stroke-width="1.908867"></path>
                    <path d="M411.346958,58.4092235 L440.300653,60.9360732" id="Stroke-1770" stroke="#FFFFFF" stroke-width="1.908867"></path>
                    <path d="M412.182278,52.8272523 L440.299889,55.350285" id="Stroke-1772" stroke="#FFFFFF" stroke-width="1.908867"></path>
                    <path d="M412.905357,48.5350431 L440.301416,51.0618928" id="Stroke-1774" stroke="#FFFFFF" stroke-width="1.908867"></path>
                    <path d="M413.55399,44.1924497 L440.934778,46.7154824" id="Stroke-1776" stroke="#FFFFFF" stroke-width="1.908867"></path>
                    <path d="M373.501379,100.407221 L399.343621,103.216528" id="Stroke-1778" stroke="#FFFFFF" stroke-width="1.908867"></path>
                    <path d="M373.258953,95.4684131 L399.826564,98.4609359" id="Stroke-1780" stroke="#FFFFFF" stroke-width="1.908867"></path>
                    <path d="M373.1658,91.1200941 L400.317525,93.6240418" id="Stroke-1782" stroke="#FFFFFF" stroke-width="1.908867"></path>
                    <path d="M373.76633,85.8606588 L400.456108,88.6317961" id="Stroke-1784" stroke="#FFFFFF" stroke-width="1.908867"></path>
                    <path d="M375.898534,81.8573961 L401.736958,84.6667033" id="Stroke-1786" stroke="#FFFFFF" stroke-width="1.908867"></path>
                    <path d="M375.652672,76.9182065 L402.220283,79.9107294" id="Stroke-1788" stroke="#FFFFFF" stroke-width="1.908867"></path>
                    <path d="M375.563337,72.5702693 L402.711244,75.074217" id="Stroke-1790" stroke="#FFFFFF" stroke-width="1.908867"></path>
                    <path d="M376.167303,67.3104523 L402.853264,70.0815895" id="Stroke-1792" stroke="#FFFFFF" stroke-width="1.908867"></path>
                    <path d="M376.59947,61.8666562 L402.44553,64.6797804" id="Stroke-1794" stroke="#FFFFFF" stroke-width="1.908867"></path>
                    <path d="M376.360862,56.9274667 L402.924655,59.9199895" id="Stroke-1796" stroke="#FFFFFF" stroke-width="1.908867"></path>
                    <path d="M376.263892,52.5829647 L403.415616,55.0869124" id="Stroke-1798" stroke="#FFFFFF" stroke-width="1.908867"></path>
                    <path d="M376.868239,47.3178039 L403.5542,50.0889412" id="Stroke-1800" stroke="#FFFFFF" stroke-width="1.908867"></path>
                    <path d="M378.997007,43.3164497 L404.839249,46.1257569" id="Stroke-1802" stroke="#FFFFFF" stroke-width="1.908867"></path>
                    <path d="M378.754581,38.3776418 L405.318374,41.3701647" id="Stroke-1804" stroke="#FFFFFF" stroke-width="1.908867"></path>
                    <path d="M414.38931,40.1109386 L442.537463,42.6339712" id="Stroke-1806" stroke="#FFFFFF" stroke-width="1.908867"></path>
                    <path d="M235.634224,1020.91031 L238.489889,1048.35449" id="Stroke-1808" stroke="#FFFFFF" stroke-width="1.908867"></path>
                    <path d="M230.66468,1022.46459 L233.344729,1049.13011" id="Stroke-1810" stroke="#FFFFFF" stroke-width="1.908867"></path>
                    <path d="M225.717278,1022.39779 L228.614938,1048.40297" id="Stroke-1812" stroke="#FFFFFF" stroke-width="1.908867"></path>
                    <path d="M221.079113,1023.86619 L224.652512,1049.41333" id="Stroke-1814" stroke="#FFFFFF" stroke-width="1.908867"></path>
                    <path d="M216.314581,1024.12346 L218.941182,1050.34238" id="Stroke-1816" stroke="#FFFFFF" stroke-width="1.908867"></path>
                    <path d="M211.903953,1025.40215 L214.232771,1051.40351" id="Stroke-1818" stroke="#FFFFFF" stroke-width="1.908867"></path>
                    <path d="M201.554458,1026.59496 L203.997808,1052.31768" id="Stroke-1820" stroke="#FFFFFF" stroke-width="1.908867"></path>
                    <polygon id="Stroke-1822" stroke="#FFFFFF" stroke-width="3.81773399" points="169.241539 1032.17502 265.79585 1017.96054 264.841416 1009.3723 168.603978 1023.7471"></polygon>
                    <path d="M206.576305,1025.46551 L209.351798,1052.92115" id="Stroke-1824" stroke="#FFFFFF" stroke-width="1.908867"></path>
                    <path d="M201.567438,1027.02361 L204.251305,1053.68912" id="Stroke-1826" stroke="#FFFFFF" stroke-width="1.908867"></path>
                    <path d="M196.621946,1026.95643 L199.515788,1052.96161" id="Stroke-1828" stroke="#FFFFFF" stroke-width="1.908867"></path>
                    <path d="M192.108621,1028.4065 L195.426232,1053.99181" id="Stroke-1830" stroke="#FFFFFF" stroke-width="1.908867"></path>
                    <path d="M186.814569,1028.73057 L190.25053,1054.85407" id="Stroke-1832" stroke="#FFFFFF" stroke-width="1.908867"></path>
                    <path d="M182.271847,1028.96913 L185.673448,1054.85216" id="Stroke-1834" stroke="#FFFFFF" stroke-width="1.908867"></path>
                    <path d="M147.906515,1061.53305 C197.433978,1054.58612 246.961441,1047.63537 296.485086,1040.68844 C294.732746,1028.76034 292.988042,1016.83224 291.235702,1004.90413" id="Stroke-1836" stroke="#FFFFFF" stroke-width="3.81773399"></path>
                    <polyline id="Stroke-1838" stroke="#FFFFFF" stroke-width="3.81773399" points="155.296121 1060.55246 147.16053 1062.30446 140.517672 1002.04558"></polyline>
                    <polyline id="Stroke-1840" stroke="#FFFFFF" stroke-width="3.81773399" points="197.429015 208.515163 197.429015 222.49681 127.530123 222.49681 127.530123 245.414039"></polyline>
                    <path d="M197.429015,222.495284 L306.009187,222.495284" id="Stroke-1842" stroke="#FFFFFF" stroke-width="3.81773399"></path>
                    <path d="M283.475394,235.867739 L283.475394,222.49681" id="Stroke-1844" stroke="#FFFFFF" stroke-width="3.81773399"></path>
                    <polyline id="Stroke-1846" stroke="#FFFFFF" stroke-width="3.81773399" points="127.53165 260.676288 127.53165 350.692444 300.872044 350.692444 300.872044 254.950797 283.474631 254.950797 281.833005 254.950797"></polyline>
                    <polyline id="Stroke-1848" stroke="#FFFFFF" stroke-width="3.81773399" points="300.871281 369.620915 300.871281 447.869281 127.530887 447.869281 127.530887 539.477124"></polyline>
                    <path d="M127.53165,447.869281 L123.713916,447.869281" id="Stroke-1850" stroke="#FFFFFF" stroke-width="3.81773399"></path>
                    <path d="M108.759852,447.869281 L13.4272167,447.869281" id="Stroke-1852" stroke="#FFFFFF" stroke-width="3.81773399"></path>
                    <polyline id="Stroke-1854" stroke="#FFFFFF" stroke-width="3.81773399" points="127.53165 554.267974 127.53165 577.486745 300.872044 577.486745 300.872044 479.519791 282.149877 479.519791"></polyline>
                    <path d="M283.106219,447.869281 L283.106219,461.068444" id="Stroke-1856" stroke="#FFFFFF" stroke-width="3.81773399"></path>
                    <path d="M300.871281,581.305647 L300.871281,577.488654" id="Stroke-1858" stroke="#FFFFFF" stroke-width="3.81773399"></path>
                    <polyline id="Stroke-1860" stroke="#FFFFFF" stroke-width="3.81773399" points="300.871281 595.300654 300.871281 674.503268 127.530887 674.503268 123.71697 674.503268"></polyline>
                    <polyline id="Stroke-1862" stroke="#FFFFFF" stroke-width="3.81773399" points="127.53165 674.503268 127.53165 789.971137 137.713547 789.971137 138.984852 789.971137"></polyline>
                    <polyline id="Stroke-1864" stroke="#FFFFFF" stroke-width="3.81773399" points="156.166564 789.971137 300.870135 789.971137 300.870135 705.997281 281.197352 705.997281"></polyline>
                    <path d="M283.106219,687.864654 L283.106219,674.505176" id="Stroke-1866" stroke="#FFFFFF" stroke-width="3.81773399"></path>
                    <path d="M109.397414,674.503268 L13.4272167,674.503268" id="Stroke-1868" stroke="#FFFFFF" stroke-width="3.81773399"></path>
                    <polyline id="Stroke-1870" stroke="#FFFFFF" stroke-width="3.81773399" points="168.206933 789.971137 168.206933 848.813908 299.460628 848.813908 299.460628 903.671739 168.206933 903.671739"></polyline>
                    <path d="M299.462155,834.496366 L299.462155,848.813908" id="Stroke-1872" stroke="#FFFFFF" stroke-width="3.81773399"></path>
                    <path d="M299.462155,805.235294 L299.462155,789.971137" id="Stroke-1874" stroke="#FFFFFF" stroke-width="3.81773399"></path>
                    <path d="M168.206933,894.457516 L163.480579,894.457516" id="Stroke-1876" stroke="#FFFFFF" stroke-width="3.81773399"></path>
                    <polyline id="Stroke-1878" stroke="#FFFFFF" stroke-width="3.81773399" points="145.345197 894.457516 131.960222 894.457516 131.960222 900.17919 15.5422414 900.17919 11.7245074 900.17919"></polyline>
                    <path d="M45.4503695,971.282144 L45.4503695,1014.54395" id="Stroke-1880" stroke="#FFFFFF" stroke-width="3.81773399"></path>
                    <path d="M45.4503695,1028.4065 L45.4503695,1070.52321" id="Stroke-1882" stroke="#FFFFFF" stroke-width="3.81773399"></path>
                    <polyline id="Stroke-1884" stroke="#FFFFFF" stroke-width="3.81773399" points="45.4503695 1084.2037 45.4503695 1183.12872 76.629803 1183.12872"></polyline>
                    <polyline id="Stroke-1886" stroke="#FFFFFF" stroke-width="3.81773399" points="128.801047 925.478222 131.958313 925.478222 45.4484606 925.478222 45.4484606 957.289046"></polyline>
                    <polyline id="Stroke-1888" stroke="#FFFFFF" stroke-width="3.81773399" points="45.4503695 1039.45861 131.960222 1039.45861 131.960222 983.276282 45.4503695 983.276282"></polyline>
                    <path d="M131.959076,1094.28323 L45.4492241,1094.28323" id="Stroke-1890" stroke="#FFFFFF" stroke-width="3.81773399"></path>
                    <polyline id="Stroke-1892" stroke="#FFFFFF" stroke-width="3.81773399" points="101.601601 1094.28323 101.601601 1182.55121 91.1028325 1182.55121 140.515764 1182.55121"></polyline>
                    <path d="M155.296121,1182.55121 L244.291318,1182.55121" id="Stroke-1894" stroke="#FFFFFF" stroke-width="3.81773399"></path>
                    <polyline id="Stroke-1896" stroke="#FFFFFF" stroke-width="3.81773399" points="258.303929 1183.12872 306.598264 1183.12872 306.598264 1161.04359"></polyline>
                    <path d="M199.792574,1094.28323 L199.792574,1182.55121" id="Stroke-1898" stroke="#FFFFFF" stroke-width="3.81773399"></path>
                    <path d="M323.82617,1212.05084 L359.449446,1212.05084" id="Stroke-1900" stroke="#FFFFFF" stroke-width="3.81773399"></path>
                    <path d="M130.84048,1001.88489 L288.176933,983.277046" id="Stroke-1902" stroke="#FFFFFF" stroke-width="3.81773399"></path>
                    <path d="M580.965825,1012.16176 L609.59883,1012.16176" id="Stroke-1904" stroke="#FFFFFF" stroke-width="3.81773399"></path>
                    <path d="M755.442759,1212.05084 L766.365296,1212.05084" id="Stroke-1906" stroke="#FFFFFF" stroke-width="3.81773399"></path>
                    <path d="M780.364163,1212.05084 L844.948768,1212.05084" id="Stroke-1908" stroke="#FFFFFF" stroke-width="3.81773399"></path>
                    <polyline id="Stroke-1910" stroke="#FFFFFF" stroke-width="3.81773399" points="858.310837 1212.05084 868.492734 1212.05084 868.492734 1303.04796"></polyline>
                    <path d="M812.656466,1212.05084 L812.656466,1303.04796" id="Stroke-1912" stroke="#FFFFFF" stroke-width="3.81773399"></path>
                    <path d="M981.749631,1212.05084 L981.749631,1303.04796 L981.749631,1212.05084 Z" id="Stroke-1914" stroke="#FFFFFF" stroke-width="3.81773399"></path>
                    <polyline id="Stroke-1916" stroke="#FFFFFF" stroke-width="3.81773399" points="990.656404 1212.05084 981.749631 1212.05084 981.749631 1224.15453"></polyline>
                    <polyline id="Stroke-1918" stroke="#FFFFFF" stroke-width="3.81773399" points="1240.39729 836.72549 1269.34717 828.137255 1242.62685 737.16685"></polyline>
                    <path d="M1262.35308,1212.69935 L1231.81121,1212.69935" id="Stroke-1920" stroke="#FFFFFF" stroke-width="3.81773399"></path>
                    <path d="M1218.13227,1212.69935 L1197.77229,1212.69935" id="Stroke-1922" stroke="#FFFFFF" stroke-width="3.81773399"></path>
                    <polyline id="Stroke-1924" stroke="#FFFFFF" stroke-width="3.81773399" points="1182.81823 1212.69935 1150.68818 1212.69935 1118.55431 1212.69935"></polyline>
                    <path d="M1150.68818,1303.0472 L1150.68818,1212.69896" id="Stroke-1926" stroke="#FFFFFF" stroke-width="3.81773399"></path>
                    <polyline id="Stroke-1928" stroke="#FFFFFF" stroke-width="3.81773399" points="1094.37278 1303.0472 1094.37278 1212.69896 1104.23781 1212.69896 1085.46601 1212.69896"></polyline>
                    <polyline id="Stroke-1930" stroke="#FFFFFF" stroke-width="3.81773399" points="1070.82882 1212.69935 1005.28978 1212.69935 1038.05739 1212.69935 1038.05739 1303.04758"></polyline>
                    <path d="M1662.57759,1095.98294 L1692.64224,1095.98294" id="Stroke-1932" stroke="#FFFFFF" stroke-width="3.81773399"></path>
                    <polyline id="Stroke-1934" stroke="#FFFFFF" stroke-width="3.81773399" points="1706.48153 1095.98294 1742.88362 1095.98294 1742.88362 1087.69243"></polyline>
                    <path d="M1716.50308,1095.98294 L1716.50308,1186.94189" id="Stroke-1936" stroke="#FFFFFF" stroke-width="3.81773399"></path>
                    <polyline id="Stroke-1938" stroke="#FFFFFF" stroke-width="3.81773399" points="1742.88438 910.527059 1742.88438 896.213333 1833.55557 896.213333"></polyline>
                    <path d="M1742.88438,924.523974 L1742.88438,951.880366" id="Stroke-1940" stroke="#FFFFFF" stroke-width="3.81773399"></path>
                    <path d="M1833.55557,956.33098 L1761.84325,956.33098" id="Stroke-1942" stroke="#FFFFFF" stroke-width="3.81773399"></path>
                    <path d="M1747.20911,956.33098 L1742.88362,956.33098" id="Stroke-1944" stroke="#FFFFFF" stroke-width="3.81773399"></path>
                    <polyline id="Stroke-1946" stroke="#FFFFFF" stroke-width="3.81773399" points="1545.97254 1058.04393 1545.97254 1066.70851 1545.97254 1067.98338 1713.16638 1067.98338 1713.16638 1058.04393"></polyline>
                    <polyline id="Stroke-1948" stroke="#FFFFFF" stroke-width="3.81773399" points="1713.16638 1042.9252 1713.16638 896.215242 1545.97254 896.215242 1545.97254 1042.9252"></polyline>
                    <polyline id="Stroke-1950" stroke="#FFFFFF" stroke-width="3.81773399" points="1509.23067 1122.28431 1514.64039 1122.28431 1514.64039 1178.98193 1453.87352 1178.98193"></polyline>
                    <polyline id="Stroke-1952" stroke="#FFFFFF" stroke-width="3.81773399" points="1439.87389 1178.98384 1432.84926 1178.98384 1432.84926 1170.71624"></polyline>
                    <path d="M1432.85002,1178.98384 L1427.15015,1178.98384" id="Stroke-1954" stroke="#FFFFFF" stroke-width="3.81773399"></path>
                    <polyline id="Stroke-1956" stroke="#FFFFFF" stroke-width="3.81773399" points="1412.83288 1178.98384 1366.20308 1178.98384 1361.29347 1178.98384 1366.20308 1178.98384 1366.20308 1109.0069 1432.84926 1109.0069"></polyline>
                    <path d="M1500.47317,1118.54939 L1500.47317,1122.28622" id="Stroke-1958" stroke="#FFFFFF" stroke-width="3.81773399"></path>
                    <polyline id="Stroke-1960" stroke="#FFFFFF" stroke-width="3.81773399" points="1437.96502 1055.48693 1366.20308 1055.48693 1366.20308 896.215242 1392.92722 896.215242"></polyline>
                    <path d="M1747.08236,783.600575 L1739.64924,785.390745" id="Stroke-1962" stroke="#FFFFFF" stroke-width="3.81773399"></path>
                    <polyline id="Stroke-1964" stroke="#FFFFFF" stroke-width="3.81773399" points="1725.80881 790.50399 1709.58344 794.859179 1696.22137 749.887362 1714.3556 811.676852 1536.83097 862.72914"></polyline>
                    <path d="M1496.02894,654.941176 L1549,840.065359" id="Stroke-1966" stroke="#FFFFFF" stroke-width="3.81773399"></path>
                    <path d="M1544.49622,824.320261 L1405.20238,865.032314" id="Stroke-1968" stroke="#FFFFFF" stroke-width="3.81773399"></path>
                    <path d="M1413.31773,827.227665 L1276.98645,865.363247" id="Stroke-1970" stroke="#FFFFFF" stroke-width="3.81773399"></path>
                    <polyline id="Stroke-1972" stroke="#FFFFFF" stroke-width="3.81773399" points="1289.39791 844.676288 1283.67131 824.320261 1269.34717 828.137255"></polyline>
                    <path d="M1366.20346,916.244915 L1359.69804,916.244915" id="Stroke-1974" stroke="#FFFFFF" stroke-width="3.81773399"></path>
                    <path d="M1329.94988,916.244915 L1312.93042,916.244915 C1312.93042,916.244915 1222.87389,1001.81046 1062.86121,992.745098 L1062.86121,1178.98384 L1012.81835,1178.98384" id="Stroke-1976" stroke="#FFFFFF" stroke-width="3.81773399"></path>
                    <path d="M1062.86159,1178.98384 L1348.09213,1178.98384" id="Stroke-1978" stroke="#FFFFFF" stroke-width="3.81773399"></path>
                    <path d="M1222.58374,1178.98384 L1222.58374,1109.0069" id="Stroke-1980" stroke="#FFFFFF" stroke-width="3.81773399"></path>
                    <polyline id="Stroke-1982" stroke="#FFFFFF" stroke-width="3.81773399" points="1222.58374 1094.37255 1222.58374 1085.00183 1062.86121 1085.00183"></polyline>
                    <polyline id="Stroke-1984" stroke="#FFFFFF" stroke-width="3.81773399" points="1062.86159 1112.02614 948.184495 1112.02614 948.184495 1178.98384 997.815037 1178.98384"></polyline>
                    <polyline id="Stroke-1986" stroke="#FFFFFF" stroke-width="3.81773399" points="1062.86159 992.745098 972.999766 992.745098 966.127845 1026.62092"></polyline>
                    <path d="M948.184113,1112.02614 L950.570197,1102.48366" id="Stroke-1988" stroke="#FFFFFF" stroke-width="3.81773399"></path>
                    <polyline id="Stroke-1990" stroke="#FFFFFF" stroke-width="3.81773399" points="953.433498 1089.68719 960.89335 1050.35307 962.500616 1041.8908"></polyline>
                    <path d="M1062.86159,1050.47712 L960.893732,1050.47712" id="Stroke-1992" stroke="#FFFFFF" stroke-width="3.81773399"></path>
                    <path d="M529.219495,1178.98384 L690.644741,1178.98384" id="Stroke-1994" stroke="#FFFFFF" stroke-width="3.81773399"></path>
                    <polyline id="Stroke-1996" stroke="#FFFFFF" stroke-width="3.81773399" points="709.098522 1178.98384 903.165394 1178.98384 903.165394 1102.48366"></polyline>
                    <polyline id="Stroke-1998" stroke="#FFFFFF" stroke-width="3.81773399" points="903.165394 1089.68719 903.165394 1009.68301 815.357512 1009.68301 815.357512 1012.66408 720.551724 1012.66408 720.551724 1030.75663 709.098522 1030.75663"></polyline>
                    <path d="M815.995074,1178.98384 L815.995074,1009.68492" id="Stroke-2000" stroke="#FFFFFF" stroke-width="3.81773399"></path>
                    <path d="M686.192118,1178.98384 L686.192118,1104.8731" id="Stroke-2002" stroke="#FFFFFF" stroke-width="3.81773399"></path>
                    <polyline id="Stroke-2004" stroke="#FFFFFF" stroke-width="3.81773399" points="686.192118 1087.05919 686.192118 1029.72413 686.192118 1009.68492 624.470813 1009.68492"></polyline>
                    <path d="M690.645505,1029.72222 L686.190209,1029.72222" id="Stroke-2006" stroke="#FFFFFF" stroke-width="3.81773399"></path>
                    <path d="M599.655542,1012.16176 L599.655542,1178.98346" id="Stroke-2008" stroke="#FFFFFF" stroke-width="3.81773399"></path>
                </g>
                <path d="M1279.40887,666.5 L1279.40887,766.5" id="Path-13" stroke="#B5BADE" stroke-width="7.63546798"></path>
                <path d="M399.871921,819.788877 L500.5,819.788877" id="Path-13-Copy-4" stroke="#B5BADE" stroke-width="7.63546798"></path>
                <path d="M1424.02956,589.5 L1424.02956,740.5" id="Path-13-Copy" stroke="#B5BADE" stroke-width="7.63546798"></path>
                <path d="M1580.47566,515.5 L1580.47566,694.660012" id="Path-13-Copy-2" stroke="#B5BADE" stroke-width="7.63546798"></path>
            </g>
            <g id="Group-2" transform="translate(104.000000, 143.000000)" fill="#FFFFFF">
                <path d="M38.8878335,137.90324 L74.5970168,137.90324 L74.5970168,40.3472234 L113.251287,40.3472234 L113.251287,9.05567107 L0.233562968,9.05567107 L0.233562968,40.3472234 L38.8878335,40.3472234 L38.8878335,137.90324 Z M138.897064,137.90324 L174.606247,137.90324 L174.606247,88.9411636 L220.439168,88.9411636 L220.439168,137.90324 L256.148351,137.90324 L256.148351,9.05567107 L220.439168,9.05567107 L220.439168,57.2814753 L174.606247,57.2814753 L174.606247,9.05567107 L138.897064,9.05567107 L138.897064,137.90324 Z M289.709049,137.90324 L325.6023,137.90324 L325.6023,9.05567107 L289.709049,9.05567107 L289.709049,137.90324 Z M359.162999,137.90324 L359.162999,9.05567107 L420.089492,9.05567107 C439.784763,9.05567107 453.405792,14.2095738 462.056986,23.0448357 C469.603772,30.4075539 473.469199,40.3472234 473.469199,53.0479123 L473.469199,53.4160483 C473.469199,73.1113195 462.977325,86.1801443 446.963413,92.9906586 L477.702762,137.90324 L436.47154,137.90324 L410.517958,98.8808332 L394.872182,98.8808332 L394.872182,137.90324 L359.162999,137.90324 Z M394.872182,70.902504 L418.43288,70.902504 C430.581365,70.902504 437.575948,65.0123294 437.575948,55.6248637 L437.575948,55.2567278 C437.575948,45.1329903 430.213229,39.9790875 418.248812,39.9790875 L394.872182,39.9790875 L394.872182,70.902504 Z M501.507858,137.90324 L501.507858,9.05567107 L551.206206,9.05567107 C597.223195,9.05567107 623.913049,35.5614566 623.913049,72.7431835 L623.913049,73.1113195 C623.913049,110.293046 596.855059,137.90324 550.469935,137.90324 L501.507858,137.90324 Z M537.217042,106.243551 L551.75841,106.243551 C573.110293,106.243551 587.283526,94.4632022 587.283526,73.6635233 L587.283526,73.2953874 C587.283526,52.6797764 573.110293,40.7153594 551.75841,40.7153594 L537.217042,40.7153594 L537.217042,106.243551 Z M713.306668,137.90324 L749.015851,137.90324 L749.015851,91.8862509 L809.942344,91.8862509 L809.942344,62.2513101 L749.015851,62.2513101 L749.015851,40.3472234 L816.384723,40.3472234 L816.384723,9.05567107 L713.306668,9.05567107 L713.306668,137.90324 Z M842.582703,137.90324 L940.690923,137.90324 L940.690923,106.611687 L878.291886,106.611687 L878.291886,9.05567107 L842.582703,9.05567107 L842.582703,137.90324 Z M1023.39776,140.480191 C983.639087,140.480191 954.188214,110.84525 954.188214,73.8475913 L954.188214,73.4794554 C954.188214,36.4817964 984.007223,6.4787197 1023.7659,6.4787197 C1063.52458,6.4787197 1092.97545,36.1136605 1092.97545,73.1113195 L1092.97545,73.4794554 C1092.97545,110.477114 1063.15644,140.480191 1023.39776,140.480191 Z M1023.7659,108.268299 C1043.46117,108.268299 1056.53,92.4384547 1056.53,73.8475913 L1056.53,73.4794554 C1056.53,54.8885919 1043.09304,38.6906118 1023.39776,38.6906118 C1003.88656,38.6906118 990.817737,54.520456 990.817737,73.1113195 L990.817737,73.4794554 C990.817737,92.0703188 1004.2547,108.268299 1023.7659,108.268299 Z M1186.35824,140.480191 C1146.59956,140.480191 1117.14868,110.84525 1117.14868,73.8475913 L1117.14868,73.4794554 C1117.14868,36.4817964 1146.96769,6.4787197 1186.72637,6.4787197 C1226.48505,6.4787197 1255.93592,36.1136605 1255.93592,73.1113195 L1255.93592,73.4794554 C1255.93592,110.477114 1226.11691,140.480191 1186.35824,140.480191 Z M1186.72637,108.268299 C1206.42164,108.268299 1219.49047,92.4384547 1219.49047,73.8475913 L1219.49047,73.4794554 C1219.49047,54.8885919 1206.05351,38.6906118 1186.35824,38.6906118 C1166.84703,38.6906118 1153.77821,54.520456 1153.77821,73.1113195 L1153.77821,73.4794554 C1153.77821,92.0703188 1167.21517,108.268299 1186.72637,108.268299 Z M1284.52679,137.90324 L1284.52679,9.05567107 L1345.45328,9.05567107 C1365.14855,9.05567107 1378.76958,14.2095738 1387.42077,23.0448357 C1394.96756,30.4075539 1398.83299,40.3472234 1398.83299,53.0479123 L1398.83299,53.4160483 C1398.83299,73.1113195 1388.34111,86.1801443 1372.3272,92.9906586 L1403.06655,137.90324 L1361.83533,137.90324 L1335.88175,98.8808332 L1320.23597,98.8808332 L1320.23597,137.90324 L1284.52679,137.90324 Z M1320.23597,70.902504 L1343.79667,70.902504 C1355.94515,70.902504 1362.93974,65.0123294 1362.93974,55.6248637 L1362.93974,55.2567278 C1362.93974,45.1329903 1355.57702,39.9790875 1343.6126,39.9790875 L1320.23597,39.9790875 L1320.23597,70.902504 Z" id="THIRD-FLOOR"></path>
                <path d="M1845.27884,0 C1851.29485,13.5537426 1857.30269,27.1156649 1863.33915,40.6694075 C1868.00964,51.1598571 1872.72103,61.6339472 1877.37925,72.1325765 C1877.915,73.3431702 1879.24417,75.0404554 1878.45076,75.7929867 C1877.56738,76.6314047 1876.05417,75.1222523 1874.90086,74.5251351 C1865.5926,69.7236584 1856.30888,64.8812833 1847.06606,59.9693808 C1845.49969,59.1391425 1844.23187,59.1391425 1842.66549,59.9693808 C1833.11594,65.0326075 1823.51322,70.0099475 1813.92686,75.0118265 C1813.38292,75.2981156 1812.83489,75.5884945 1812.26642,75.8257055 C1811.91879,75.9729399 1811.50164,76.3001274 1811.1581,75.9238617 C1810.84319,75.576225 1811.06813,75.1590609 1811.2358,74.7787054 C1812.68766,71.4577522 1814.1109,68.1286193 1815.57911,64.8158458 C1820.39683,53.936861 1825.21455,43.066056 1830.05272,32.2034307 C1834.19972,22.8990359 1838.37944,13.6069106 1842.5428,4.31069545 C1843.1808,2.87925009 1843.8188,1.43962504 1844.45271,0 L1845.27884,0 Z" id="Fill-1911"></path>
                <polygon id="N" points="1821.56489 138 1835.7013 138 1835.7013 109.727162 1857.71583 138 1870.23245 138 1870.23245 86.4609726 1856.09603 86.4609726 1856.09603 113.70303 1834.89141 86.4609726 1821.56489 86.4609726"></polygon>
            </g>
        </g>
    </g>
</svg>