<?xml version="1.0" encoding="UTF-8" standalone="no"?>
<svg width="2160px" height="2160px" viewBox="0 0 2160 2160" version="1.1" xmlns="http://www.w3.org/2000/svg" xmlns:xlink="http://www.w3.org/1999/xlink">
    <!-- Generator: Sketch 42 (36781) - http://www.bohemiancoding.com/sketch -->
    <title>siebel_careerfair copy</title>
    <desc>Created with Sketch.</desc>
    <defs></defs>
    <g id="New-Maps" stroke="none" stroke-width="1" fill="none" fill-rule="evenodd">
        <g id="siebel_careerfair-copy">
            <polygon id="Fill-1549" fill="#142442" points="0 2160 2160 2160 2160 0 0 0"></polygon>
            <g id="Siebel_1st-WITH-TABLE-LEGEND-Copy" transform="translate(-3420.000000, -2938.000000)">
                <polyline id="Fill-1320" fill="#57C7DF" points="3997.35666 3940.09831 4106.95426 3940.09831 4106.95426 4309.88784 3542.10505 4309.88784 3542.10505 3889.48073 3995.91784 3889.48073"></polyline>
                <polyline id="Fill-1321" fill="#B5BADE" points="4238.51408 3889.48073 4238.51408 4309.88784 4853.41322 4309.88784 4853.41322 3940.09831 4750.89634 3940.09831 4746.71839 3889.48073"></polyline>
                <path d="M3554,3453 L3536,3890.41757 L3997.277,3890.41757 L3997.277,3943.41422 L4106.09987,3943.41422 L5421.12243,3950.96884 L5421.12243,3530.76082 C5421.12243,3530.76082 5207.71473,3515.08242 5084.1629,3548.8115 C4960.61107,3582.54057 4745.32317,3661.24174 4623.65154,3661.24174 C4421.47582,3661.24174 4309.15598,3526.32545 4309.15598,3526.32545 L4174.37217,3447.62428 L3554,3453 Z" id="Fill-1321-Copy" fill="#B5BADE"></path>
                <polygon id="Fill-1322" fill="#B5BADE" points="4743.30338 4308.45788 5471.17236 4308.45788 5471.17236 3933.80937 4743.30338 3933.80937"></polygon>
                <polyline id="Fill-1323" fill="#212E60" points="5472.58601 3939.52919 5686.74271 3940.21559 5686.74271 4135.25241 5871.5718 4138.31305 5871.5718 4251.89418 5866.24256 4311.31779 5471.17236 4309.21361"></polyline>
                <polyline id="Fill-1324" fill="#3B9AAC" points="6375.52318 3154.02126 6221.07127 3142.2323 6208.65534 3139.98464 6196.01468 3242.0508 5760.87288 3198.71595 5750.08619 3273.16963 5348.39436 3212.76381 5123.67165 3184.66808 5095.1094 2994.56115 5150.8631 2984.13202 5108.21073 2693.93686 5054.83909 2703.29836 5043.60296 2574.05801 6052.05732 1996.21879 6264.13937 2478.06052 6410.68105 2400.1005"></polyline>
                <polygon id="Fill-1333" fill="#212E60" points="2676.95626 4674.52666 3675.09487 4674.52666 3675.09487 4480.05262 2676.95626 4480.05262"></polygon>
                <polygon id="Fill-1334" fill="#212E60" points="3677.95486 4664.51696 5338.18254 4664.51696 5338.18254 4391.39534 3677.95486 4391.39534"></polygon>
                <polygon id="Fill-1335" fill="#212E60" points="5338.18254 4668.80683 6197.61134 4668.80683 6197.61134 4395.68521 5338.18254 4395.68521"></polygon>
                <polygon id="Fill-1336" fill="#212E60" points="4006.8544 4664.51696 4338.61394 4664.51696 4338.61394 4391.39534 4006.8544 4391.39534"></polygon>
                <polygon id="Fill-1343" fill="#212E60" points="3341.90533 4218.37064 3542.10505 4218.37064 3542.10505 3886.62082 3341.90533 3886.62082"></polygon>
                <polygon id="Fill-1345" fill="#212E60" points="5476.89235 3677.84722 5871.5718 3677.84722 5871.5718 3461.92384 5476.89235 3461.92384"></polygon>
                <polygon id="Fill-1346" fill="#212E60" points="5411.11244 3940.95915 5475.46235 3940.95915 5475.46235 3521.982 5411.11244 3521.982"></polygon>
                <polygon id="Fill-1347" fill="#212E60" points="5476.89235 3940.95915 5687.10206 3940.95915 5687.10206 3669.26748 5476.89235 3669.26748"></polygon>
                <polygon id="Fill-1354" fill="#212E60" points="3431.99521 4478.62266 3675.09487 4478.62266 3675.09487 4391.39534 3431.99521 4391.39534"></polygon>
                <g id="Group-1372" transform="translate(2671.236269, 2326.538657)"></g>
                <g id="Group-1380" transform="translate(1451.447973, 3786.523886)"></g>
                <g id="Group-2012" transform="translate(410.409427, 829.374567)" stroke="#FFFFFF">
                    <polyline id="Stroke-1385" stroke-width="12.46" points="4443.41907 3111.10422 4443.41907 3480.46391 5061.40034 3480.46391 5061.40034 3111.10422 4550.16129 3111.10422"></polyline>
                    <polyline id="Stroke-1387" stroke-width="12.46" points="4443.41907 3480.46391 3828.2468 3480.46391 3828.2468 3060.54548 4336.67685 3060.54548 4336.67685 3111.10422"></polyline>
                    <polyline id="Stroke-1389" stroke-width="12.46" points="3696.22353 3111.10422 3696.22353 3480.46391 3131.61336 3480.46391 3131.61336 3060.54548 3586.6723 3060.54548 3586.6723 3111.10422"></polyline>
                    <path d="M2993.50579,3382.62713 L3131.61898,3382.62713" id="Stroke-1391" stroke-width="5.46031927"></path>
                    <path d="M2993.50579,3060 L3131.61898,3060" id="Stroke-1395" stroke-width="12"></path>
                    <path d="M5008,3111.10422 L5008,3049.3102" id="Stroke-1421" stroke-width="12"></path>
                    <polyline id="Stroke-1423" stroke-width="12" points="5008.02923 3002.96469 5008.02923 2692.59019 5061.40034 2692.59019"></polyline>
                    <polyline id="Stroke-1425" stroke-width="12" points="5142.86151 2637.81822 5061.40034 2637.81822 5061.40034 3111.10422 5276.31176 3111.10422"></polyline>
                    <path d="M5456.07689,2842 L5061.40034,2842" id="Stroke-1435" stroke-width="12"></path>
                    <polyline id="Stroke-1441" stroke-width="5.46031927" points="5061.40034 3480.46391 5456.07689 3480.46391 5456.07689 3411.67032"></polyline>
                    <polyline id="Stroke-1501" stroke-width="16.3809578" points="5772.07881 3672.86801 5772.07881 3841.38592 5276.31176 3841.38592 1737.87458 3841.38592 1737.87458 3567.99795 1782.81867 3567.99795 1782.81867 3493.1036 1324.01814 3493.1036 1385.83874 3099.28471"></polyline>
                    <polyline id="Stroke-1515" stroke-width="16.3809578" points="2838.07788 2597.09035 2985.07877 2597.09035 2985.07877 2519.37594 3672.3526 2335.05001 3722.9147 2508.84849 4602.13351 2247.15644 4523.48135 1752.56837 5208.87877 1376.18662 5149.88964 1254.69959 5604.00476 1018.53409"></polyline>
                    <path d="M2993.97208,3650.39746 L3264.33327,3650.39746" id="Stroke-1567" stroke-width="5.46031927"></path>
                    <path d="M3021.35989,3562.62187 L3021.35989,3653.2119" id="Stroke-1569" stroke-width="5.46031927"></path>
                    <path d="M3264.33889,3562.62187 L3264.33889,3836.00984" id="Stroke-1571" stroke-width="5.46031927"></path>
                    <path d="M3267.14789,3567.99795 L3279.78842,3567.99795" id="Stroke-1573" stroke-width="5.46031927"></path>
                    <path d="M3328.24377,3567.99795 L3491.16611,3567.99795" id="Stroke-1575" stroke-width="5.46031927"></path>
                    <path d="M3431.47473,3567.99795 L3431.47473,3841.38592" id="Stroke-1577" stroke-width="5.46031927"></path>
                    <path d="M3538.21695,3567.99795 L3740.46537,3567.99795" id="Stroke-1579" stroke-width="5.46031927"></path>
                    <path d="M3597.20607,3841.38704 L3597.20607,3542.25905" id="Stroke-1581" stroke-width="5.46031927"></path>
                    <path d="M3597.20607,3500.12565 L3597.20607,3480.46391" id="Stroke-1583" stroke-width="5.46031927"></path>
                    <path d="M3786.81397,3567.99795 L4038.91662,3567.99795" id="Stroke-1585" stroke-width="5.46031927"></path>
                    <path d="M3929.37101,3567.99795 L3929.37101,3841.38592" id="Stroke-1587" stroke-width="5.46031927"></path>
                    <polyline id="Stroke-1589" stroke-width="5.46031927" points="4095.8046 3841.38704 4095.8046 3567.99907 4083.87195 3567.99907 4109.14176 3567.99907"></polyline>
                    <path d="M4154.09147,3567.99795 L4522.7791,3567.99795" id="Stroke-1591" stroke-width="5.46031927"></path>
                    <path d="M4261.53594,3567.99795 L4261.53594,3841.38592" id="Stroke-1593" stroke-width="5.46031927"></path>
                    <path d="M4567.01532,3567.99795 L4621.79094,3567.99795" id="Stroke-1595" stroke-width="5.46031927"></path>
                    <path d="M4594.40313,3567.99795 L4594.40313,3841.38592" id="Stroke-1597" stroke-width="5.46031927"></path>
                    <path d="M4668.84178,3567.99795 L5186.40672,3567.99795" id="Stroke-1599" stroke-width="5.46031927"></path>
                    <path d="M4927.622,3571.04832 L4927.622,3841.39153" id="Stroke-1601" stroke-width="5.46031927"></path>
                    <polyline id="Stroke-1651" stroke-width="12.46" points="5798.06211 2309.1864 5787.53396 2413.1127 5350.27288 2369.57601 5339.4863 2444.00971 4937.79847 2383.62011 4909.70841 2549.34042 4640.75173 2583.74284 4626.7067 2476.31113"></polyline>
                    <path d="M4626.7067,2455.73934 L4606.8077,2326.53367" id="Stroke-1653" stroke-width="5.46031927"></path>
                    <path d="M4600.26272,2280.6488 L4594.63347,2249.38103" id="Stroke-1655" stroke-width="5.46031927"></path>
                    <polyline id="Stroke-1657" stroke-width="5.46031927" points="4937.80409 2383.62011 4713.08363 2355.53192 4684.52165 2165.47599 4740.70177 2157.98206 4697.62286 1864.93236 4644.25175 1874.29134 4633.01572 1745.08567 5641.46004 1167.40149 5853.53998 1649.11395 5981.34974 1588.72434"></polyline>
                    <polyline id="Stroke-1667" stroke-width="12.46" points="3146.08649 2623.15057 3768.28127 2623.15057 3724.74168 2494.34937"></polyline>
                    <path d="M3937.87443,2653.76108 C3937.87443,2653.76108 4240.46054,2398.21473 4632.86741,2457.78416" id="Stroke-1722" stroke-width="12.46"></path>
                    <path d="M3983.98258,2619.69348 L4112.0283,2818.07474" id="Stroke-1724" stroke-width="5.46031927"></path>
                    <path d="M4578,2451.43848 L4578,2749.26317" id="Stroke-1726" stroke-width="12.46"></path>
                    <path d="M4076.92022,2818.07699 C4076.92022,2818.07699 4364.84331,2863.01809 4619.05834,2731.0036" id="Stroke-1728" stroke-width="12.46"></path>
                    <path d="M4048.00768,2718.89085 C4048.00768,2718.89085 4252.26735,2551.23806 4578.21314,2572.30421" id="Stroke-1730" stroke-width="12.46"></path>
                    <path d="M3999.75009,2640.08999 C3999.75009,2640.08999 4282.20124,2449.79813 4582.86598,2477.87508" id="Stroke-1732" stroke-width="12"></path>
                    <path d="M4484.66539,2475.04941 L4489.57553,2573.65019" id="Stroke-1734" stroke-width="2.73015963"></path>
                    <path d="M4471.30126,2476.80548 L4474.69454,2575.21527" id="Stroke-1736" stroke-width="4.73"></path>
                    <path d="M4454.49105,2478.15484 L4459.34501,2576.2725" id="Stroke-1738" stroke-width="4.73"></path>
                    <path d="M4438.75612,2479.75699 L4446.08201,2577.41401" id="Stroke-1740" stroke-width="4.73"></path>
                    <path d="M4015.52883,2630.08386 L4069.73141,2709.44985" id="Stroke-1742" stroke-width="4.73"></path>
                    <path d="M4029.86937,2621.49224 L4081.57755,2701.43123" id="Stroke-1744" stroke-width="4.73"></path>
                    <path d="M4042.63125,2614.141 L4092.33941,2690.65323" id="Stroke-1746" stroke-width="4.73"></path>
                    <path d="M4058.35494,2605.40782 L4106.43388,2685.91981" id="Stroke-1748" stroke-width="4.73"></path>
                    <path d="M4071.46738,2598.37454 L4118.93957,2678.68429" id="Stroke-1750" stroke-width="4.73"></path>
                    <path d="M4085.41353,2591.1334 L4131.32392,2671.83639" id="Stroke-1752" stroke-width="4.73"></path>
                    <path d="M4099.25069,2584.17652 L4143.39703,2665.45251" id="Stroke-1754" stroke-width="4.73"></path>
                    <path d="M4154.60721,2656.94291 L4113.13504,2577.41963" id="Stroke-1756" stroke-width="4.73"></path>
                    <path d="M4167.70841,2650.39274 L4128.92166,2570.00434" id="Stroke-1758" stroke-width="4.73"></path>
                    <path d="M4182.22535,2645.66382 L4143.39365,2563.44407" id="Stroke-1760" stroke-width="4.73"></path>
                    <path d="M4194.86588,2638.53166 L4158.82071,2557.57026" id="Stroke-1762" stroke-width="4.73"></path>
                    <path d="M4171.71405,2551.27177 L4205.82662,2631.4804" id="Stroke-1764" stroke-width="4.73"></path>
                    <path d="M4186.59279,2545.21483 L4218.77276,2624.81676" id="Stroke-1766" stroke-width="4.73"></path>
                    <path d="M4200.91198,2539.61966 L4233.87847,2619.69348" id="Stroke-1768" stroke-width="4.73"></path>
                    <path d="M4257.72806,2519.56245 L4266.44721,2609.6806" id="Stroke-1770" stroke-width="4.73"></path>
                    <path d="M4422.00096,2481.79732 L4431.91113,2573.65693" id="Stroke-1772" stroke-width="4.73"></path>
                    <path d="M4406.7593,2483.97022 L4418.22004,2575.21189" id="Stroke-1774" stroke-width="4.73"></path>
                    <path d="M4389.78504,2486.71275 L4404.16715,2577.41513" id="Stroke-1776" stroke-width="4.73"></path>
                    <path d="M4373.39168,2489.70807 L4389.78504,2579.65769" id="Stroke-1778" stroke-width="4.73"></path>
                    <path d="M4357.19607,2492.96743 L4375.5445,2583.05187" id="Stroke-1780" stroke-width="4.73"></path>
                    <path d="M4341.91059,2496.33576 L4361.33767,2585.02703" id="Stroke-1782" stroke-width="4.73"></path>
                    <path d="M4325.91274,2500.14228 L4347.42972,2588.42907" id="Stroke-1784" stroke-width="4.73"></path>
                    <path d="M4308.76207,2504.54201 L4333.96447,2591.37946" id="Stroke-1786" stroke-width="4.73"></path>
                    <path d="M4295.99009,2508.03169 L4318.79921,2594.95902" id="Stroke-1788" stroke-width="4.73"></path>
                    <path d="M3999.75009,2644.11672 C3990.10958,2650.62194 3937.87331,2695.66416 3937.87331,2695.66416" id="Stroke-1790" stroke-width="12"></path>
                    <path d="M4060.58192,2709.45434 L3993.94106,2762.58596" id="Stroke-1792" stroke-width="12"></path>
                    <path d="M3989.2489,2653.76108 L4042.63125,2726.08255" id="Stroke-1794" stroke-width="4.73"></path>
                    <path d="M3975.52185,2663.62453 L4031.85927,2736.01341" id="Stroke-1796" stroke-width="4.73"></path>
                    <path d="M3962.82739,2674.33287 L4018.29964,2743.18264" id="Stroke-1798" stroke-width="4.73"></path>
                    <path d="M3951.73294,2683.78061 L4007.89059,2751.47315" id="Stroke-1800" stroke-width="4.73"></path>
                    <path d="M3940.73849,2695.66304 L3996.89614,2763.35558" id="Stroke-1802" stroke-width="4.73"></path>
                    <path d="M3894.68653,2695.66304 C3894.68653,2695.66304 3948.0464,2640.73378 3959.75434,2636.83514" id="Stroke-1804" stroke-width="12.46"></path>
                    <polyline id="Stroke-1920" stroke-width="12.46" points="3157.2888 2627.99297 3146.08649 2592.65803 3602.04431 2460.64354"></polyline>
                    <path d="M3566.41488,2462.51983 L3539.3473,2370.76133" id="Stroke-1922" stroke-width="2.73015963"></path>
                    <path d="M3528.11127,2381.99661 L3556.6283,2475.33928" id="Stroke-1924" stroke-width="2.73015963"></path>
                    <path d="M3516.87525,2381.99661 L3543.77429,2474.31687" id="Stroke-1926" stroke-width="2.73015963"></path>
                    <path d="M3505.63923,2393.23188 L3531.39219,2484.99038" id="Stroke-1928" stroke-width="2.73015963"></path>
                    <path d="M3494.4032,2393.23188 L3520.39213,2486.38356" id="Stroke-1930" stroke-width="2.73015963"></path>
                    <path d="M3471.93116,2393.23188 L3498.50435,2485.93415" id="Stroke-1932" stroke-width="2.73015963"></path>
                    <path d="M3460.69513,2393.23188 L3489.90879,2488.25985" id="Stroke-1934" stroke-width="2.73015963"></path>
                    <path d="M3449.45911,2404.46716 L3478.09973,2495.28189" id="Stroke-1936" stroke-width="2.73015963"></path>
                    <path d="M3438.22309,2404.46716 L3465.38056,2497.29301" id="Stroke-1938" stroke-width="2.73015963"></path>
                    <path d="M3415.75104,2404.46716 L3444.77369,2501.21412" id="Stroke-1940" stroke-width="2.73015963"></path>
                    <path d="M3404.51502,2415.70244 L3431.20057,2508.69681" id="Stroke-1942" stroke-width="2.73015963"></path>
                    <path d="M3393.279,2415.70244 L3419.72859,2508.8204" id="Stroke-1944" stroke-width="2.73015963"></path>
                    <path d="M3382.04297,2426.93771 L3407.86335,2521.29156" id="Stroke-1946" stroke-width="2.73015963"></path>
                    <path d="M3292.15479,2449.40826 L3319.67181,2544.51487" id="Stroke-1948" stroke-width="2.73015963"></path>
                    <path d="M3280.91876,2449.40826 L3308.71669,2546.39116" id="Stroke-1950" stroke-width="2.73015963"></path>
                    <path d="M3258.44672,2460.64354 L3286.39071,2556.90738" id="Stroke-1952" stroke-width="2.73015963"></path>
                    <path d="M3247.21069,2460.64354 L3276.63784,2558.51403" id="Stroke-1954" stroke-width="2.73015963"></path>
                    <path d="M3235.97467,2460.64354 L3264.53664,2557.55903" id="Stroke-1956" stroke-width="2.73015963"></path>
                    <path d="M3224.73865,2460.64354 L3251.66016,2556.82874" id="Stroke-1958" stroke-width="2.73015963"></path>
                    <path d="M3202.2666,2471.87882 L3230.70498,2566.04166" id="Stroke-1960" stroke-width="2.73015963"></path>
                    <path d="M3191.03058,2471.87882 L3220.05323,2569.32236" id="Stroke-1962" stroke-width="2.73015963"></path>
                    <path d="M3179.79456,2471.87882 L3206.48011,2569.40101" id="Stroke-1964" stroke-width="2.73015963"></path>
                    <path d="M3168.55853,2483.11409 L3196.41263,2580.36664" id="Stroke-1966" stroke-width="2.73015963"></path>
                    <path d="M3146.08649,2483.11409 L3174.99677,2580.68123" id="Stroke-1968" stroke-width="2.73015963"></path>
                </g>
                <text id="1214" font-family="Gotham-Black, Gotham" font-size="109.206385" font-weight="normal" letter-spacing="-1.63809577" fill="#0F4753">
                    <tspan x="3709.41465" y="4194.53173">1214</tspan>
                </text>
                <text id="1302" font-family="Gotham-Black, Gotham" font-size="109.206385" font-weight="normal" letter-spacing="-1.63809577" fill="#122442">
                    <tspan x="4425.84358" y="4194.53173">1302</tspan>
                </text>
                <text id="1304" font-family="Gotham-Black, Gotham" font-size="109.206385" font-weight="normal" letter-spacing="-1.63809577" fill="#122442">
                    <tspan x="5087.93262" y="4205.97137">1304</tspan>
                </text>
            </g>
            <g id="Group-8" transform="translate(136.000000, 473.000000)">
                <polygon id="Fill-2054-Copy-3" fill="#57C7DF" points="1554 516.890018 1692 516.890018 1692 402 1554 402"></polygon>
                <polygon id="Fill-2054-Copy-4" fill="#57C7DF" points="1392 516.890018 1530 516.890018 1530 402 1392 402"></polygon>
                <polygon id="Fill-2054-Copy-5" fill="#57C7DF" transform="translate(1375.666824, 61.117559) rotate(-3.000000) translate(-1375.666824, -61.117559) " points="1306.66682 118.562568 1444.66682 118.562568 1444.66682 3.67255049 1306.66682 3.67255049"></polygon>
                <polygon id="Fill-2054-Copy-6" fill="#57C7DF" transform="translate(1154.881230, 92.311677) rotate(-19.000000) translate(-1154.881230, -92.311677) " points="1085.88123 149.756686 1223.88123 149.756686 1223.88123 34.8666681 1085.88123 34.8666681"></polygon>
                <polygon id="Fill-2054-Copy-7" fill="#57C7DF" transform="translate(965.372831, 181.216256) rotate(-35.000000) translate(-965.372831, -181.216256) " points="896.372831 238.661265 1034.37283 238.661265 1034.37283 123.771248 896.372831 123.771248"></polygon>
                <polygon id="Fill-2054-Copy-8" fill="#57C7DF" points="1040 466.890018 1178 466.890018 1178 352 1040 352"></polygon>
                <polygon id="Fill-2054-Copy-10" fill="#57C7DF" points="477 169.794153 615 169.794153 615 54.9041353 477 54.9041353"></polygon>
                <polygon id="Fill-2054-Copy-12" fill="#57C7DF" points="155 169.794153 293 169.794153 293 54.9041353 155 54.9041353"></polygon>
                <polygon id="Fill-2054-Copy-14" fill="#57C7DF" points="302 464.890018 440 464.890018 440 350 302 350"></polygon>
                <polygon id="Fill-2054-Copy-9" fill="#57C7DF" points="742 466.890018 880 466.890018 880 352 742 352"></polygon>
                <polygon id="Fill-2054-Copy-17" fill="#57C7DF" points="151 463.890018 289 463.890018 289 349 151 349"></polygon>
                <polygon id="Fill-2054-Copy-11" fill="#57C7DF" points="316 169.794153 454 169.794153 454 54.9041353 316 54.9041353"></polygon>
                <polygon id="Fill-2054-Copy-18" fill="#57C7DF" points="456 463.890018 594 463.890018 594 349 456 349"></polygon>
                <polygon id="Fill-2054-Copy-13" fill="#57C7DF" points="5 169.794153 143 169.794153 143 54.9041353 5 54.9041353"></polygon>
                <polygon id="Fill-2054-Copy-16" fill="#57C7DF" points="0 463.890018 138 463.890018 138 349 0 349"></polygon>
                <polygon id="Fill-2054-Copy-2" fill="#57C7DF" points="1715 427.387328 1853 427.387328 1853 118 1715 118"></polygon>
                <text id="8" font-family="Gotham-Black, Gotham" font-size="76" font-weight="normal" fill="#0F4753">
                    <tspan x="1595.06" y="484">8</tspan>
                </text>
                <text id="7" font-family="Gotham-Black, Gotham" font-size="76" font-weight="normal" fill="#0F4753">
                    <tspan x="1440.168" y="484">7</tspan>
                </text>
                <text id="10" font-family="Gotham-Black, Gotham" font-size="76" font-weight="normal" fill="#0F4753">
                    <tspan x="1333.1024" y="86.4305638">10</tspan>
                </text>
                <text id="6" font-family="Gotham-Black, Gotham" font-size="76" font-weight="normal" fill="#0F4753">
                    <tspan x="1084.344" y="435">6</tspan>
                </text>
                <text id="4" font-family="Gotham-Black, Gotham" font-size="76" font-weight="normal" fill="#0F4753">
                    <tspan x="785.318" y="435">4</tspan>
                </text>
                <text id="5" font-family="Gotham-Black, Gotham" font-size="76" font-weight="normal" fill="#0F4753">
                    <tspan x="196.06" y="432">5</tspan>
                </text>
                <text id="1" font-family="Gotham-Black, Gotham" font-size="76" font-weight="normal" fill="#0F4753">
                    <tspan x="53.464" y="431">1</tspan>
                </text>
                <text id="3" font-family="Gotham-Black, Gotham" font-size="76" font-weight="normal" fill="#0F4753">
                    <tspan x="501.402" y="431">3</tspan>
                </text>
                <text id="2" font-family="Gotham-Black, Gotham" font-size="76" font-weight="normal" fill="#0F4753">
                    <tspan x="347.288" y="432">2</tspan>
                </text>
                <text id="17" font-family="Gotham-Black, Gotham" font-size="76" font-weight="normal" fill="#0F4753">
                    <tspan x="199.632" y="574">17</tspan>
                </text>
                <text id="16" font-family="Gotham-Black, Gotham" font-size="76" font-weight="normal" fill="#0F4753">
                    <tspan x="32.308" y="136.841649">16</tspan>
                </text>
                <text id="15" font-family="Gotham-Black, Gotham" font-size="76" font-weight="normal" fill="#0F4753">
                    <tspan x="184.024" y="136.841649">15</tspan>
                </text>
                <text id="14" font-family="Gotham-Black, Gotham" font-size="76" font-weight="normal" fill="#0F4753">
                    <tspan x="342.782" y="136.841649">14</tspan>
                </text>
                <text id="13" font-family="Gotham-Black, Gotham" font-size="76" font-weight="normal" fill="#0F4753">
                    <tspan x="507.866" y="136.841649">13</tspan>
                </text>
                <text id="11" font-family="Gotham-Black, Gotham" font-size="76" font-weight="normal" fill="#0F4753">
                    <tspan x="1125.7681" y="119.238634">11</tspan>
                </text>
                <text id="12" font-family="Gotham-Black, Gotham" font-size="76" font-weight="normal" fill="#0F4753">
                    <tspan x="923.745904" y="203.143602">12</tspan>
                </text>
                <text id="9" font-family="Gotham-Black, Gotham" font-size="76" font-weight="normal" fill="#0F4753">
                    <tspan x="1759.344" y="291">9</tspan>
                </text>
            </g>
            <rect id="Rectangle" fill="#142442" x="0" y="0" width="2160" height="454"></rect>
            <rect id="Rectangle-Copy" fill="#142442" x="0" y="1080" width="2160" height="1080"></rect>
            <g id="Group-4" transform="translate(199.000000, 1138.000000)" font-weight="400" font-family="Gotham-Medium, Gotham" line-spacing="106" letter-spacing="4.44444656" fill="#FFFFFF" font-size="80">
                <g id="Group-3">
                    <text id="Facebook-Akuna-Micro">
                        <tspan x="130" y="64">Facebook</tspan>
                        <tspan x="130" y="170">Akuna</tspan>
                        <tspan x="130" y="276">Microsoft</tspan>
                        <tspan x="130" y="382">John Deere</tspan>
                        <tspan x="130" y="488">Capital One</tspan>
                        <tspan x="130" y="594">Citadel</tspan>
                        <tspan x="130" y="700">BP</tspan>
                        <tspan x="130" y="806">OneNorth</tspan>
                        <tspan x="130" y="912">Fulcrum</tspan>
                    </text>
                    <text id="1.-2.-3.-4.-5.-6.-7.">
                        <tspan x="33.4666603" y="64">1. </tspan>
                        <tspan x="20.5511069" y="170">2.</tspan>
                        <tspan x="20.1511069" y="276">3.</tspan>
                        <tspan x="15.1111069" y="382">4.</tspan>
                        <tspan x="19.8311069" y="488">5.</tspan>
                        <tspan x="17.1111069" y="594">6.</tspan>
                        <tspan x="24.4266603" y="700">7. </tspan>
                        <tspan x="19.1911069" y="806">8.</tspan>
                        <tspan x="17.9111069" y="912">9.</tspan>
                    </text>
                </g>
                <g id="Group" transform="translate(748.000000, 0.000000)">
                    <text id="AT&amp;T-Bitovi-IMO-a16z">
                        <tspan x="182" y="64">AT&amp;T</tspan>
                        <tspan x="182" y="170">Bitovi</tspan>
                        <tspan x="182" y="276">IMO</tspan>
                        <tspan x="182" y="382">a16z</tspan>
                        <tspan x="182" y="488">AARP</tspan>
                        <tspan x="182" y="594">1517</tspan>
                        <tspan x="182" y="700">BMO Harris Bank</tspan>
                        <tspan x="182" y="806">Microsoft Quarry</tspan>
                    </text>
                    <text id="10.-11.-12.-13.-14.">
                        <tspan x="0.702213745" y="64"> 10.</tspan>
                        <tspan x="53.7866603" y="170">11.</tspan>
                        <tspan x="36.4266603" y="276">12.</tspan>
                        <tspan x="36.0266603" y="382">13.</tspan>
                        <tspan x="30.9866603" y="488">14.</tspan>
                        <tspan x="35.7066603" y="594">15.</tspan>
                        <tspan x="32.9866603" y="700">16.</tspan>
                        <tspan x="44.7466603" y="806">17.</tspan>
                    </text>
                </g>
            </g>
            <g id="Group-2" transform="translate(100.000000, 109.000000)" fill="#FFFFFF">
                <text id="COMPANY-EXPO" font-family="GothamBlack" font-size="184.067955" font-weight="700" letter-spacing="10">
                    <tspan x="0" y="172">COMPANY EXPO</tspan>
                </text>
                <text id="C1300A" font-family="GothamBlack" font-size="90" font-weight="700" letter-spacing="5">
                    <tspan x="419" y="266">C1300</tspan>
                    <tspan x="734.97" y="266">A</tspan>
                </text>
                <text id="SIEBEL" font-family="GothamBlack" font-size="90" font-weight="700" letter-spacing="5">
                    <tspan x="6" y="266">SIEBE</tspan>
                    <tspan x="303.52" y="266">L</tspan>
                </text>
                <path d="M1849.27884,34 C1855.29485,47.5537426 1861.30269,61.1156649 1867.33915,74.6694075 C1872.00964,85.1598571 1876.72103,95.6339472 1881.37925,106.132576 C1881.915,107.34317 1883.24417,109.040455 1882.45076,109.792987 C1881.56738,110.631405 1880.05417,109.122252 1878.90086,108.525135 C1869.5926,103.723658 1860.30888,98.8812833 1851.06606,93.9693808 C1849.49969,93.1391425 1848.23187,93.1391425 1846.66549,93.9693808 C1837.11594,99.0326075 1827.51322,104.009947 1817.92686,109.011827 C1817.38292,109.298116 1816.83489,109.588495 1816.26642,109.825705 C1815.91879,109.97294 1815.50164,110.300127 1815.1581,109.923862 C1814.84319,109.576225 1815.06813,109.159061 1815.2358,108.778705 C1816.68766,105.457752 1818.1109,102.128619 1819.57911,98.8158458 C1824.39683,87.936861 1829.21455,77.066056 1834.05272,66.2034307 C1838.19972,56.8990359 1842.37944,47.6069106 1846.5428,38.3106954 C1847.1808,36.8792501 1847.8188,35.439625 1848.45271,34 L1849.27884,34 Z" id="Fill-1911"></path>
                <text id="N" font-family="GothamBlack" font-size="73.627182" font-weight="700">
                    <tspan x="1821" y="172">N</tspan>
                </text>
            </g>
        </g>
    </g>
</svg>