<?xml version="1.0" encoding="UTF-8" standalone="no"?>
<svg width="2160px" height="2160px" viewBox="0 0 2160 2160" version="1.1" xmlns="http://www.w3.org/2000/svg" xmlns:xlink="http://www.w3.org/1999/xlink">
    <!-- Generator: Sketch 42 (36781) - http://www.bohemiancoding.com/sketch -->
    <title>union_firstfloor copy</title>
    <desc>Created with Sketch.</desc>
    <defs></defs>
    <g id="New-Maps" stroke="none" stroke-width="1" fill="none" fill-rule="evenodd">
        <g id="union_firstfloor-copy">
            <polygon id="Fill-1549" fill="#142442" points="0 2160 2160 2160 2160 0 0 0"></polygon>
            <polygon id="Rectangle-2-Copy-6" fill="#212E60" points="490 1550 778 1550 778 1753 677 1753 677 1873 778 1873 778 2092 490 2092"></polygon>
            <rect id="Rectangle-4" fill="#4C5B94" x="780" y="1981" width="630" height="114"></rect>
            <polygon id="Rectangle-2-Copy-7" fill="#212E60" points="944 1753 1243 1753 1243 1838.39483 1243 1888.87454 1243 1981 944 1981"></polygon>
            <polygon id="Rectangle-2-Copy-8" fill="#B5BADE" points="942 1276 1242 1276 1242 1455.02952 1242 1560.85978 1242 1754 946 1754 946 1663 892 1663 892 1562 892 1480 892 1393 942 1393"></polygon>
            <rect id="Rectangle-2-Copy" fill="#212E60" x="779" y="745" width="200" height="99"></rect>
            <polygon id="Rectangle-2-Copy-3" fill="#212E60" points="1210 748 1410 748 1410 847 1275 847 1275 865 1210 865 1210 847"></polygon>
            <path d="M929,742 L929,609.996154 L710,481 L727,462 C727,462 1056,745 1463,465 L1477,482 L1260,610 L1260,742" id="Path-44" fill="#4C5B94"></path>
            <g id="Group-2" transform="translate(109.000000, 144.000000)" fill="#FFFFFF">
                <path d="M3.14848504,137.90324 L39.0417363,137.90324 L39.0417363,9.05567107 L3.14848504,9.05567107 L3.14848504,137.90324 Z M72.6024345,137.90324 L170.710655,137.90324 L170.710655,106.611687 L108.311618,106.611687 L108.311618,9.05567107 L72.6024345,9.05567107 L72.6024345,137.90324 Z M195.988295,137.90324 L294.096515,137.90324 L294.096515,106.611687 L231.697478,106.611687 L231.697478,9.05567107 L195.988295,9.05567107 L195.988295,137.90324 Z M320.110427,137.90324 L356.003678,137.90324 L356.003678,9.05567107 L320.110427,9.05567107 L320.110427,137.90324 Z M389.564377,137.90324 L424.905424,137.90324 L424.905424,67.2211449 L479.941743,137.90324 L511.233295,137.90324 L511.233295,9.05567107 L475.892248,9.05567107 L475.892248,77.1608145 L422.880676,9.05567107 L389.564377,9.05567107 L389.564377,137.90324 Z M544.793993,137.90324 L580.687244,137.90324 L580.687244,9.05567107 L544.793993,9.05567107 L544.793993,137.90324 Z M733.216172,140.296123 C769.845695,140.296123 793.590461,122.073396 793.590461,80.4740377 L793.590461,9.05567107 L757.329074,9.05567107 L757.329074,81.5784454 C757.329074,99.617105 747.941608,108.084231 733.584308,108.084231 C719.227007,108.084231 709.839542,99.2489691 709.839542,80.6581056 L709.839542,9.05567107 L673.578155,9.05567107 L673.578155,81.3943774 C673.578155,121.70526 696.586649,140.296123 733.216172,140.296123 Z M824.758276,137.90324 L860.099324,137.90324 L860.099324,67.2211449 L915.135642,137.90324 L946.427195,137.90324 L946.427195,9.05567107 L911.086147,9.05567107 L911.086147,77.1608145 L858.074576,9.05567107 L824.758276,9.05567107 L824.758276,137.90324 Z M979.987893,137.90324 L1015.88114,137.90324 L1015.88114,9.05567107 L979.987893,9.05567107 L979.987893,137.90324 Z M1114.23376,140.480191 C1074.47508,140.480191 1045.02421,110.84525 1045.02421,73.8475913 L1045.02421,73.4794554 C1045.02421,36.4817964 1074.84322,6.4787197 1114.6019,6.4787197 C1154.36058,6.4787197 1183.81145,36.1136605 1183.81145,73.1113195 L1183.81145,73.4794554 C1183.81145,110.477114 1153.99244,140.480191 1114.23376,140.480191 Z M1114.6019,108.268299 C1134.29717,108.268299 1147.36599,92.4384547 1147.36599,73.8475913 L1147.36599,73.4794554 C1147.36599,54.8885919 1133.92903,38.6906118 1114.23376,38.6906118 C1094.72256,38.6906118 1081.65373,54.520456 1081.65373,73.1113195 L1081.65373,73.4794554 C1081.65373,92.0703188 1095.0907,108.268299 1114.6019,108.268299 Z M1212.40231,137.90324 L1247.74336,137.90324 L1247.74336,67.2211449 L1302.77968,137.90324 L1334.07123,137.90324 L1334.07123,9.05567107 L1298.73018,9.05567107 L1298.73018,77.1608145 L1245.71861,9.05567107 L1212.40231,9.05567107 L1212.40231,137.90324 Z" id="ILLINI-UNION"></path>
                <path d="M34.26,247.26 C14.82,247.26 0.42,232.77 0.42,214.68 L0.42,214.5 C0.42,196.41 15,181.74 34.44,181.74 C53.88,181.74 68.28,196.23 68.28,214.32 L68.28,214.5 C68.28,232.59 53.7,247.26 34.26,247.26 Z M34.44,231.51 C44.07,231.51 50.46,223.77 50.46,214.68 L50.46,214.5 C50.46,205.41 43.89,197.49 34.26,197.49 C24.72,197.49 18.33,205.23 18.33,214.32 L18.33,214.5 C18.33,223.59 24.9,231.51 34.44,231.51 Z M82.37,246 L82.37,183 L109.37,183 C125.3,183 135.56,191.19 135.56,205.14 L135.56,205.32 C135.56,220.17 124.13,228 108.47,228 L99.83,228 L99.83,246 L82.37,246 Z M99.83,214.32 L108.11,214.32 C114.32,214.32 118.1,211.08 118.1,206.13 L118.1,205.95 C118.1,200.55 114.32,197.67 108.02,197.67 L99.83,197.67 L99.83,214.32 Z M147.94,246 L199.06,246 L199.06,231.15 L165.22,231.15 L165.22,221.16 L195.46,221.16 L195.46,207.39 L165.22,207.39 L165.22,197.85 L198.61,197.85 L198.61,183 L147.94,183 L147.94,246 Z M212.97,246 L230.25,246 L230.25,211.44 L257.16,246 L272.46,246 L272.46,183 L255.18,183 L255.18,216.3 L229.26,183 L212.97,183 L212.97,246 Z M309.55,257.52 L323.41,257.52 L363.28,174.18 L349.42,174.18 L309.55,257.52 Z M431.96,247.26 C445.91,247.26 453.92,241.23 459.86,233.04 L446.72,223.68 C442.94,228.27 439.07,231.33 432.5,231.33 C423.68,231.33 417.47,223.95 417.47,214.5 L417.47,214.32 C417.47,205.14 423.68,197.67 432.5,197.67 C438.53,197.67 442.67,200.55 446.27,205.05 L459.41,194.88 C453.83,187.14 445.55,181.74 432.68,181.74 C413.6,181.74 399.47,196.14 399.47,214.5 L399.47,214.68 C399.47,233.49 413.96,247.26 431.96,247.26 Z M472.33,246 L520.3,246 L520.3,230.7 L489.79,230.7 L489.79,183 L472.33,183 L472.33,246 Z M560.85,247.26 C541.41,247.26 527.01,232.77 527.01,214.68 L527.01,214.5 C527.01,196.41 541.59,181.74 561.03,181.74 C580.47,181.74 594.87,196.23 594.87,214.32 L594.87,214.5 C594.87,232.59 580.29,247.26 560.85,247.26 Z M561.03,231.51 C570.66,231.51 577.05,223.77 577.05,214.68 L577.05,214.5 C577.05,205.41 570.48,197.49 560.85,197.49 C551.31,197.49 544.92,205.23 544.92,214.32 L544.92,214.5 C544.92,223.59 551.49,231.51 561.03,231.51 Z M633.26,247.08 C648.56,247.08 658.73,239.43 658.73,226.56 L658.73,226.38 C658.73,214.59 649.73,209.91 635.24,206.76 C626.51,204.78 624.35,203.52 624.35,200.64 L624.35,200.46 C624.35,198.21 626.42,196.41 630.65,196.41 C636.23,196.41 642.53,198.57 648.29,202.62 L657.02,190.29 C650.18,184.8 641.81,181.92 631.1,181.92 C615.98,181.92 606.71,190.38 606.71,202.08 L606.71,202.26 C606.71,215.22 617.06,219 630.47,222.06 C639.02,224.04 641.09,225.48 641.09,228.09 L641.09,228.27 C641.09,230.97 638.57,232.59 633.89,232.59 C626.6,232.59 619.67,229.98 613.46,225.03 L603.74,236.64 C611.48,243.57 622.1,247.08 633.26,247.08 Z M672.55,246 L690.1,246 L690.1,183 L672.55,183 L672.55,246 Z M706.62,246 L723.9,246 L723.9,211.44 L750.81,246 L766.11,246 L766.11,183 L748.83,183 L748.83,216.3 L722.91,183 L706.62,183 L706.62,246 Z M814.4,247.26 C825.83,247.26 835.1,243.03 841.76,237.54 L841.76,209.19 L812.78,209.19 L812.78,221.97 L825.2,221.97 L825.2,229.62 C822.59,231.33 819.35,232.23 815.12,232.23 C805.13,232.23 798.02,224.94 798.02,214.77 L798.02,214.59 C798.02,204.96 805.04,197.31 814.13,197.31 C820.34,197.31 824.84,199.47 829.34,203.25 L839.6,190.92 C832.94,185.16 825.11,181.74 814.04,181.74 C794.51,181.74 780.11,196.14 780.11,214.5 L780.11,214.68 C780.11,233.76 794.78,247.26 814.4,247.26 Z M916.74,247.26 C930.69,247.26 938.7,241.23 944.64,233.04 L931.5,223.68 C927.72,228.27 923.85,231.33 917.28,231.33 C908.46,231.33 902.25,223.95 902.25,214.5 L902.25,214.32 C902.25,205.14 908.46,197.67 917.28,197.67 C923.31,197.67 927.45,200.55 931.05,205.05 L944.19,194.88 C938.61,187.14 930.33,181.74 917.46,181.74 C898.38,181.74 884.25,196.14 884.25,214.5 L884.25,214.68 C884.25,233.49 898.74,247.26 916.74,247.26 Z M957.11,246 L1008.23,246 L1008.23,231.15 L974.39,231.15 L974.39,221.16 L1004.63,221.16 L1004.63,207.39 L974.39,207.39 L974.39,197.85 L1007.78,197.85 L1007.78,183 L957.11,183 L957.11,246 Z M1022.14,246 L1022.14,183 L1051.93,183 C1061.56,183 1068.22,185.52 1072.45,189.84 C1076.14,193.44 1078.03,198.3 1078.03,204.51 L1078.03,204.69 C1078.03,214.32 1072.9,220.71 1065.07,224.04 L1080.1,246 L1059.94,246 L1047.25,226.92 L1039.6,226.92 L1039.6,246 L1022.14,246 Z M1039.6,213.24 L1051.12,213.24 C1057.06,213.24 1060.48,210.36 1060.48,205.77 L1060.48,205.59 C1060.48,200.64 1056.88,198.12 1051.03,198.12 L1039.6,198.12 L1039.6,213.24 Z M1091.85,246 L1142.97,246 L1142.97,231.15 L1109.13,231.15 L1109.13,221.16 L1139.37,221.16 L1139.37,207.39 L1109.13,207.39 L1109.13,197.85 L1142.52,197.85 L1142.52,183 L1091.85,183 L1091.85,246 Z M1156.88,246 L1173.98,246 L1173.98,210 L1190,234.48 L1190.36,234.48 L1206.47,209.82 L1206.47,246 L1223.84,246 L1223.84,183 L1205.39,183 L1190.36,207.39 L1175.33,183 L1156.88,183 L1156.88,246 Z M1271.68,247.26 C1252.24,247.26 1237.84,232.77 1237.84,214.68 L1237.84,214.5 C1237.84,196.41 1252.42,181.74 1271.86,181.74 C1291.3,181.74 1305.7,196.23 1305.7,214.32 L1305.7,214.5 C1305.7,232.59 1291.12,247.26 1271.68,247.26 Z M1271.86,231.51 C1281.49,231.51 1287.88,223.77 1287.88,214.68 L1287.88,214.5 C1287.88,205.41 1281.31,197.49 1271.68,197.49 C1262.14,197.49 1255.75,205.23 1255.75,214.32 L1255.75,214.5 C1255.75,223.59 1262.32,231.51 1271.86,231.51 Z M1319.79,246 L1337.07,246 L1337.07,211.44 L1363.98,246 L1379.28,246 L1379.28,183 L1362,183 L1362,216.3 L1336.08,183 L1319.79,183 L1319.79,246 Z M1413.62,246 L1431.17,246 L1431.17,222.15 L1455.11,183 L1435.58,183 L1422.53,205.95 L1409.57,183 L1389.68,183 L1413.62,222.42 L1413.62,246 Z" id="OPEN-/-CLOSING-CEREM"></path>
                <path d="M1840.27884,0 C1846.29485,13.5537426 1852.30269,27.1156649 1858.33915,40.6694075 C1863.00964,51.1598571 1867.72103,61.6339472 1872.37925,72.1325765 C1872.915,73.3431702 1874.24417,75.0404554 1873.45076,75.7929867 C1872.56738,76.6314047 1871.05417,75.1222523 1869.90086,74.5251351 C1860.5926,69.7236584 1851.30888,64.8812833 1842.06606,59.9693808 C1840.49969,59.1391425 1839.23187,59.1391425 1837.66549,59.9693808 C1828.11594,65.0326075 1818.51322,70.0099475 1808.92686,75.0118265 C1808.38292,75.2981156 1807.83489,75.5884945 1807.26642,75.8257055 C1806.91879,75.9729399 1806.50164,76.3001274 1806.1581,75.9238617 C1805.84319,75.576225 1806.06813,75.1590609 1806.2358,74.7787054 C1807.68766,71.4577522 1809.1109,68.1286193 1810.57911,64.8158458 C1815.39683,53.936861 1820.21455,43.066056 1825.05272,32.2034307 C1829.19972,22.8990359 1833.37944,13.6069106 1837.5428,4.31069545 C1838.1808,2.87925009 1838.8188,1.43962504 1839.45271,0 L1840.27884,0 Z" id="Fill-1911"></path>
                <text id="N" font-family="GothamBlack" font-size="73.627182" font-weight="700">
                    <tspan x="1812" y="138">N</tspan>
                </text>
            </g>
            <rect id="Rectangle-2" fill="#212E60" x="486" y="610" width="290" height="548"></rect>
            <rect id="Rectangle-2-Copy-2" fill="#212E60" x="1402" y="610" width="290" height="548"></rect>
            <polygon id="Rectangle-2-Copy-5" fill="#212E60" points="836 955 1006.99611 955 1006.99611 1043 1259.51362 1043 1259.51362 947 1326.12257 947 1329 1043 1347 1044 1347 1273 836 1273"></polygon>
            <rect id="Rectangle-2-Copy-4" fill="#212E60" x="1240" y="1275" width="106" height="478"></rect>
            <path d="M979,808 L979,745.96775 L778.977982,745.96775 L778.977982,609.996159 L486.993124,609.996159 L486.993124,1157.04488 L780.007135,1157.04488 L780,1546 L483.957773,1546 L483.957773,2092 L781.001683,2092 L781.001683,1979.99552 L871,1979.99552 M905,1979.99552 L1278,1979.99552 M1307,1979.99552 L1407.00717,1979.99552 L1407.00717,1159 L1692.08595,1159 L1692.08595,609.999993 L1402.99827,609.999993 L1402.99827,746 L1209.98964,746 L1209.98964,806.000001" id="Path-42" stroke="#FFFFFF" stroke-width="12"></path>
            <path d="M979,745 L1002,745 M1034,745 L1073,745 M1114,745 L1150,745 M1187,745 L1210.00866,745" id="Path-43" stroke="#FFFFFF" stroke-width="4"></path>
            <polyline id="Path-45" stroke="#FFFFFF" stroke-width="4" points="980.113527 807 980.113527 845.209946 777 845.209946 777 1155.00721"></polyline>
            <polyline id="Path-45-Copy" stroke="#FFFFFF" stroke-width="4" points="1210.11353 806 1210.11353 865 1275 865 1275 849 1403 849 1403 1155.00163"></polyline>
            <path d="M927,750 L927,844.021274" id="Path-46" stroke="#FFFFFF" stroke-width="4"></path>
            <path d="M778,750 L778,844.021274" id="Path-46-Copy" stroke="#FFFFFF" stroke-width="4"></path>
            <path d="M682,807 L682,946" id="Path-46-Copy-2" stroke="#FFFFFF" stroke-width="4"></path>
            <path d="M485,808 L776,808" id="Path-46-Copy-3" stroke="#FFFFFF" stroke-width="4"></path>
            <polyline id="Path-50" fill="#FFE077" points="1279 1752 1279 1661 1321.0119 1661 1321.0119 1753.00531"></polyline>
            <path d="M486,946 L777,946" id="Path-46-Copy-4" stroke="#FFFFFF" stroke-width="4"></path>
            <path d="M683,865 L779,865" id="Path-46-Copy-5" stroke="#FFFFFF" stroke-width="4"></path>
            <path d="M1240,1753.00939 L1347.10854,1753.00939 L1347.10854,1274 M1347.10854,1227 L1347.10854,1043.02068 L1329.00678,1043.02068 L1329.00678,946.953382 L1262.00787,946.953382 L1262.00787,1043 L1194.30529,1043" id="Path-47" stroke="#FFFFFF" stroke-width="4"></path>
            <polygon id="Rectangle" fill="#FFE077" points="836 1274 942 1274 942 1392 891 1392 891 1480 836 1480"></polygon>
            <path d="M1061,1043 L1008,1043 L1008,955 L836.973686,955 L836.973686,1225 M836.973686,1273 L836.973686,1480.00872 L891.083713,1480.00872 L891.083713,1391.99523 L942.039078,1391.99523 L942.039078,1275 L1240,1275 L1240,1753.00939 L945.98479,1753.00939 L945.98479,1661.99467 L890.855084,1661.99467 L890.855084,1560.98296 L836.973686,1560.98296 L836.973686,1753.00939 L945.98479,1753.00939" id="Path" stroke="#FFFFFF" stroke-width="4"></path>
            <path d="M1530.61639,1449.06915 C1514.12088,1449.06915 1501.90199,1436.77389 1501.90199,1421.4239 L1501.90199,1421.27117 C1501.90199,1405.92118 1514.27362,1393.47318 1530.76913,1393.47318 C1547.26464,1393.47318 1559.48354,1405.76844 1559.48354,1421.11843 L1559.48354,1421.27117 C1559.48354,1436.62115 1547.1119,1449.06915 1530.61639,1449.06915 Z M1530.76913,1435.70474 C1538.94052,1435.70474 1544.36265,1429.13708 1544.36265,1421.4239 L1544.36265,1421.27117 C1544.36265,1413.55799 1538.78778,1406.83759 1530.61639,1406.83759 C1522.52137,1406.83759 1517.09924,1413.40525 1517.09924,1421.11843 L1517.09924,1421.27117 C1517.09924,1428.98434 1522.67411,1435.70474 1530.76913,1435.70474 Z M1567.19671,1448 L1567.19671,1394.54233 L1590.10714,1394.54233 C1603.6243,1394.54233 1612.33026,1401.49183 1612.33026,1413.32888 L1612.33026,1413.48162 C1612.33026,1426.08236 1602.63151,1432.72638 1589.34346,1432.72638 L1582.01212,1432.72638 L1582.01212,1448 L1567.19671,1448 Z M1582.01212,1421.11843 L1589.03799,1421.11843 C1594.30739,1421.11843 1597.51485,1418.36918 1597.51485,1414.16893 L1597.51485,1414.0162 C1597.51485,1409.43411 1594.30739,1406.99033 1588.96162,1406.99033 L1582.01212,1406.99033 L1582.01212,1421.11843 Z M1618.59244,1448 L1661.96953,1448 L1661.96953,1435.39926 L1633.25512,1435.39926 L1633.25512,1426.9224 L1658.9148,1426.9224 L1658.9148,1415.23809 L1633.25512,1415.23809 L1633.25512,1407.14307 L1661.58768,1407.14307 L1661.58768,1394.54233 L1618.59244,1394.54233 L1618.59244,1448 Z M1669.52997,1448 L1684.19264,1448 L1684.19264,1418.67465 L1707.0267,1448 L1720.00928,1448 L1720.00928,1394.54233 L1705.34661,1394.54233 L1705.34661,1422.79853 L1683.35259,1394.54233 L1669.52997,1394.54233 L1669.52997,1448 Z M1729.7844,1448 L1744.67618,1448 L1744.67618,1394.54233 L1729.7844,1394.54233 L1729.7844,1448 Z M1754.45129,1448 L1769.11397,1448 L1769.11397,1418.67465 L1791.94803,1448 L1804.93061,1448 L1804.93061,1394.54233 L1790.26793,1394.54233 L1790.26793,1422.79853 L1768.27392,1394.54233 L1754.45129,1394.54233 L1754.45129,1448 Z M1841.66366,1449.06915 C1851.36241,1449.06915 1859.22833,1445.47985 1864.87957,1440.8214 L1864.87957,1416.76545 L1840.28904,1416.76545 L1840.28904,1427.60972 L1850.82784,1427.60972 L1850.82784,1434.10101 C1848.61316,1435.552 1845.86391,1436.31568 1842.27461,1436.31568 C1833.79775,1436.31568 1827.76467,1430.12986 1827.76467,1421.50027 L1827.76467,1421.34753 C1827.76467,1413.17615 1833.72138,1406.68486 1841.43456,1406.68486 C1846.70396,1406.68486 1850.52236,1408.51769 1854.34077,1411.72515 L1863.04673,1401.26272 C1857.39549,1396.37516 1850.75147,1393.47318 1841.35819,1393.47318 C1824.78631,1393.47318 1812.56742,1405.69207 1812.56742,1421.27117 L1812.56742,1421.4239 C1812.56742,1437.61394 1825.01542,1449.06915 1841.66366,1449.06915 Z M1931.62529,1449.06915 L1926.12678,1443.49428 C1921.62107,1446.93085 1916.42803,1448.91642 1910.24222,1448.91642 C1899.32158,1448.91642 1891.15019,1443.18881 1891.15019,1433.49006 L1891.15019,1433.33732 C1891.15019,1426.6933 1894.73949,1421.65301 1901.99446,1418.36918 C1899.55068,1414.85624 1898.48153,1411.57242 1898.48153,1408.13585 L1898.48153,1407.98312 C1898.48153,1400.19357 1904.82008,1393.47318 1915.28251,1393.47318 C1924.98126,1393.47318 1931.16708,1399.42989 1931.16708,1407.21943 L1931.16708,1407.37217 C1931.16708,1413.93983 1926.96683,1418.36918 1920.70465,1421.27117 L1926.66136,1427.07514 C1928.41783,1424.55499 1930.09792,1421.65301 1931.70165,1418.59828 L1941.47677,1423.48584 C1939.2621,1427.53335 1936.97105,1431.35175 1934.45091,1434.78832 L1941.62951,1441.89055 L1931.62529,1449.06915 Z M1913.75515,1414.62714 C1917.57356,1412.94704 1919.40639,1410.8851 1919.40639,1408.05948 L1919.40639,1407.90675 C1919.40639,1405.31023 1917.72629,1403.63013 1915.28251,1403.63013 C1912.76237,1403.63013 1911.0059,1405.53934 1911.0059,1408.36496 L1911.0059,1408.51769 C1911.0059,1410.57963 1911.92232,1412.3361 1913.75515,1414.62714 Z M1912.22779,1437.99578 C1914.3661,1437.99578 1916.5044,1437.07936 1918.56634,1435.70474 L1909.78401,1426.76967 C1907.11113,1428.3734 1905.9656,1430.43534 1905.9656,1432.57364 L1905.9656,1432.72638 C1905.9656,1435.85747 1908.56212,1437.99578 1912.22779,1437.99578 Z M1529.47087,1535.06915 C1541.30793,1535.06915 1548.10469,1529.95249 1553.14498,1523.00299 L1541.99524,1515.06071 C1538.78778,1518.95548 1535.50395,1521.552 1529.92908,1521.552 C1522.44501,1521.552 1517.17561,1515.28982 1517.17561,1507.27117 L1517.17561,1507.11843 C1517.17561,1499.32888 1522.44501,1492.99033 1529.92908,1492.99033 C1535.04574,1492.99033 1538.55868,1495.43411 1541.6134,1499.25251 L1552.76314,1490.62292 C1548.02832,1484.05526 1541.00245,1479.47318 1530.08182,1479.47318 C1513.89178,1479.47318 1501.90199,1491.69207 1501.90199,1507.27117 L1501.90199,1507.4239 C1501.90199,1523.38483 1514.19725,1535.06915 1529.47087,1535.06915 Z M1559.48354,1534 L1600.18773,1534 L1600.18773,1521.01742 L1574.29895,1521.01742 L1574.29895,1480.54233 L1559.48354,1480.54233 L1559.48354,1534 Z M1633.40786,1535.06915 C1616.91235,1535.06915 1604.69345,1522.77389 1604.69345,1507.4239 L1604.69345,1507.27117 C1604.69345,1491.92118 1617.06508,1479.47318 1633.56059,1479.47318 C1650.0561,1479.47318 1662.275,1491.76844 1662.275,1507.11843 L1662.275,1507.27117 C1662.275,1522.62115 1649.90337,1535.06915 1633.40786,1535.06915 Z M1633.56059,1521.70474 C1641.73198,1521.70474 1647.15411,1515.13708 1647.15411,1507.4239 L1647.15411,1507.27117 C1647.15411,1499.55799 1641.57924,1492.83759 1633.40786,1492.83759 C1625.31284,1492.83759 1619.8907,1499.40525 1619.8907,1507.11843 L1619.8907,1507.27117 C1619.8907,1514.98434 1625.46557,1521.70474 1633.56059,1521.70474 Z M1690.9894,1534.91642 C1703.97198,1534.91642 1712.60158,1528.42513 1712.60158,1517.50449 L1712.60158,1517.35175 C1712.60158,1507.34753 1704.96477,1503.37639 1692.6695,1500.70351 C1685.2618,1499.02341 1683.42896,1497.95426 1683.42896,1495.51048 L1683.42896,1495.35774 C1683.42896,1493.44854 1685.18543,1491.92118 1688.77473,1491.92118 C1693.50955,1491.92118 1698.85532,1493.75401 1703.74288,1497.19058 L1711.15058,1486.72815 C1705.34661,1482.06969 1698.24437,1479.62591 1689.15657,1479.62591 C1676.32673,1479.62591 1668.46081,1486.80451 1668.46081,1496.73237 L1668.46081,1496.8851 C1668.46081,1507.88211 1677.24315,1511.08957 1688.62199,1513.68609 C1695.87696,1515.36618 1697.63343,1516.58807 1697.63343,1518.80275 L1697.63343,1518.95548 C1697.63343,1521.24653 1695.49512,1522.62115 1691.52398,1522.62115 C1685.33816,1522.62115 1679.45782,1520.40648 1674.18842,1516.20623 L1665.94067,1526.05772 C1672.50832,1531.93806 1681.51976,1534.91642 1690.9894,1534.91642 Z M1720.08565,1534 L1734.97743,1534 L1734.97743,1480.54233 L1720.08565,1480.54233 L1720.08565,1534 Z M1744.75255,1534 L1759.41522,1534 L1759.41522,1504.67465 L1782.24928,1534 L1795.23186,1534 L1795.23186,1480.54233 L1780.56918,1480.54233 L1780.56918,1508.79853 L1758.57517,1480.54233 L1744.75255,1480.54233 L1744.75255,1534 Z M1831.96492,1535.06915 C1841.66366,1535.06915 1849.52958,1531.47985 1855.18082,1526.8214 L1855.18082,1502.76545 L1830.59029,1502.76545 L1830.59029,1513.60972 L1841.12909,1513.60972 L1841.12909,1520.10101 C1838.91441,1521.552 1836.16516,1522.31568 1832.57586,1522.31568 C1824.099,1522.31568 1818.06592,1516.12986 1818.06592,1507.50027 L1818.06592,1507.34753 C1818.06592,1499.17615 1824.02263,1492.68486 1831.73581,1492.68486 C1837.00521,1492.68486 1840.82362,1494.51769 1844.64202,1497.72515 L1853.34798,1487.26272 C1847.69674,1482.37516 1841.05272,1479.47318 1831.65944,1479.47318 C1815.08757,1479.47318 1802.86867,1491.69207 1802.86867,1507.27117 L1802.86867,1507.4239 C1802.86867,1523.61394 1815.31667,1535.06915 1831.96492,1535.06915 Z M1529.47087,1621.06915 C1541.30793,1621.06915 1548.10469,1615.95249 1553.14498,1609.00299 L1541.99524,1601.06071 C1538.78778,1604.95548 1535.50395,1607.552 1529.92908,1607.552 C1522.44501,1607.552 1517.17561,1601.28982 1517.17561,1593.27117 L1517.17561,1593.11843 C1517.17561,1585.32888 1522.44501,1578.99033 1529.92908,1578.99033 C1535.04574,1578.99033 1538.55868,1581.43411 1541.6134,1585.25251 L1552.76314,1576.62292 C1548.02832,1570.05526 1541.00245,1565.47318 1530.08182,1565.47318 C1513.89178,1565.47318 1501.90199,1577.69207 1501.90199,1593.27117 L1501.90199,1593.4239 C1501.90199,1609.38483 1514.19725,1621.06915 1529.47087,1621.06915 Z M1559.48354,1620 L1602.86062,1620 L1602.86062,1607.39926 L1574.14621,1607.39926 L1574.14621,1598.9224 L1599.80589,1598.9224 L1599.80589,1587.23809 L1574.14621,1587.23809 L1574.14621,1579.14307 L1602.47878,1579.14307 L1602.47878,1566.54233 L1559.48354,1566.54233 L1559.48354,1620 Z M1610.42106,1620 L1610.42106,1566.54233 L1635.6989,1566.54233 C1643.87029,1566.54233 1649.52153,1568.68064 1653.11083,1572.34631 C1656.24192,1575.40103 1657.84565,1579.52491 1657.84565,1584.79431 L1657.84565,1584.94704 C1657.84565,1593.11843 1653.49267,1598.54056 1646.84864,1601.36618 L1659.60211,1620 L1642.49566,1620 L1631.72776,1603.80996 L1625.23647,1603.80996 L1625.23647,1620 L1610.42106,1620 Z M1625.23647,1592.20201 L1635.01159,1592.20201 C1640.05188,1592.20201 1642.95387,1589.75823 1642.95387,1585.86346 L1642.95387,1585.71072 C1642.95387,1581.51048 1639.89914,1579.37217 1634.93522,1579.37217 L1625.23647,1579.37217 L1625.23647,1592.20201 Z M1665.32972,1620 L1708.7068,1620 L1708.7068,1607.39926 L1679.9924,1607.39926 L1679.9924,1598.9224 L1705.65208,1598.9224 L1705.65208,1587.23809 L1679.9924,1587.23809 L1679.9924,1579.14307 L1708.32496,1579.14307 L1708.32496,1566.54233 L1665.32972,1566.54233 L1665.32972,1620 Z M1716.26724,1620 L1730.77718,1620 L1730.77718,1589.45276 L1744.37071,1610.22488 L1744.67618,1610.22488 L1758.34607,1589.30002 L1758.34607,1620 L1773.08511,1620 L1773.08511,1566.54233 L1757.42965,1566.54233 L1744.67618,1587.23809 L1731.9227,1566.54233 L1716.26724,1566.54233 L1716.26724,1620 Z M1809.43633,1621.06915 C1792.94082,1621.06915 1780.72192,1608.77389 1780.72192,1593.4239 L1780.72192,1593.27117 C1780.72192,1577.92118 1793.09355,1565.47318 1809.58906,1565.47318 C1826.08457,1565.47318 1838.30347,1577.76844 1838.30347,1593.11843 L1838.30347,1593.27117 C1838.30347,1608.62115 1825.93184,1621.06915 1809.43633,1621.06915 Z M1809.58906,1607.70474 C1817.76045,1607.70474 1823.18258,1601.13708 1823.18258,1593.4239 L1823.18258,1593.27117 C1823.18258,1585.55799 1817.60771,1578.83759 1809.43633,1578.83759 C1801.34131,1578.83759 1795.91917,1585.40525 1795.91917,1593.11843 L1795.91917,1593.27117 C1795.91917,1600.98434 1801.49404,1607.70474 1809.58906,1607.70474 Z M1846.01665,1620 L1860.67932,1620 L1860.67932,1590.67465 L1883.51338,1620 L1896.49596,1620 L1896.49596,1566.54233 L1881.83329,1566.54233 L1881.83329,1594.79853 L1859.83927,1566.54233 L1846.01665,1566.54233 L1846.01665,1620 Z M1921.39196,1620 L1936.28374,1620 L1936.28374,1599.76245 L1956.59766,1566.54233 L1940.02578,1566.54233 L1928.9524,1586.0162 L1917.9554,1566.54233 L1901.07805,1566.54233 L1921.39196,1599.99156 L1921.39196,1620 Z" id="OPENING-&amp;-CLOSING-CE" fill="#B5BADE"></path>
            <path d="M871.01319,1319.30988 L871.01319,1337.50946 C871.01319,1337.94096 871.005552,1338.36865 870.84134,1338.77724 C870.337245,1340.02211 868.939529,1340.60254 867.625828,1340.10994 C866.659647,1339.75481 866.098269,1338.94908 866.079174,1337.84931 C866.063899,1336.97103 866.079174,1336.09274 866.079174,1335.21064 C866.082993,1331.23545 866.079174,1327.2679 866.086812,1323.29271 C866.090631,1320.99389 866.113544,1318.6989 866.121182,1316.40008 C866.125001,1316.22824 866.117363,1316.05641 866.075355,1315.88839 C865.995158,1315.53707 865.724017,1315.31941 865.36504,1315.29268 C864.94878,1315.26595 864.670001,1315.43015 864.521064,1315.79674 C864.437048,1315.99913 864.444686,1316.21297 864.444686,1316.43063 C864.444686,1323.518 864.444686,1330.60156 864.448505,1337.68511 C864.448505,1338.35719 864.349213,1338.99108 863.890946,1339.51805 C863.215001,1340.28942 862.340473,1340.52235 861.38193,1340.31233 C860.408111,1340.1023 859.797087,1339.44168 859.514489,1338.49848 C859.422835,1338.19299 859.373189,1337.87222 859.373189,1337.54382 C859.377008,1332.63689 859.346457,1327.73377 859.392284,1322.83065 C859.457205,1315.53707 859.411378,1308.25113 859.434292,1300.95755 C859.438111,1300.41149 859.289174,1300.17092 858.869095,1300.0449 C858.372638,1299.89216 857.830355,1300.06781 857.57067,1300.44968 C857.494292,1300.56042 857.490473,1300.68643 857.490473,1300.81245 C857.494292,1303.42439 857.490473,1306.03251 857.498111,1308.64445 C857.505748,1310.5614 857.536299,1312.48217 857.536299,1314.40294 C857.540118,1315.18194 857.226969,1315.80056 856.467008,1316.12514 C855.798701,1316.40772 854.985276,1316.25116 854.465906,1315.74328 C854.141299,1315.42633 854,1315.03683 854,1314.59005 C854.003819,1309.67166 854.019094,1304.74945 854.007638,1299.83488 C854,1298.52127 854.27878,1297.29549 854.981457,1296.18809 C856.21878,1294.24441 857.986929,1293.11027 860.297363,1293.05299 C863.260827,1292.97662 866.224292,1292.9919 869.183938,1293.04154 C872.26197,1293.09882 875.107049,1295.45873 875.844096,1298.4449 C876.015947,1299.13989 876.092325,1299.83106 876.092325,1300.54514 C876.084687,1305.13895 876.088506,1309.73658 876.088506,1314.33039 C876.088506,1315.28886 875.698978,1315.85402 874.866458,1316.1175 C873.766616,1316.47264 872.716419,1315.75092 872.651498,1314.60533 C872.640041,1314.47168 872.647679,1314.34184 872.647679,1314.21583 C872.64386,1309.75949 872.632403,1305.30315 872.659135,1300.85063 C872.662954,1300.18237 872.067206,1299.90361 871.608938,1300.01435 C871.196497,1300.11746 871.01319,1300.32748 871.01319,1300.75898 L871.01319,1319.30988 Z M865.632583,1283.00002 C868.183607,1282.99238 870.257268,1285.07354 870.241993,1287.66638 C870.226717,1290.22105 868.263804,1292.29456 865.624945,1292.29456 C863.035732,1292.29456 861.030811,1290.34706 861.00026,1287.67784 C860.973528,1285.02007 863.012819,1283.03821 865.632583,1283.00002 Z" id="Combined-Shape" fill="#A8770A"></path>
            <path d="M1303.97593,1691.10408 L1303.97593,1701.18084 C1303.97593,1701.41975 1303.97145,1701.65655 1303.87516,1701.88278 C1303.57958,1702.57205 1302.76001,1702.89342 1301.9897,1702.62067 C1301.42317,1702.42404 1301.094,1701.97793 1301.0828,1701.36901 C1301.07384,1700.88272 1301.0828,1700.39643 1301.0828,1699.90803 C1301.08504,1697.70704 1301.0828,1695.51028 1301.08728,1693.30929 C1301.08952,1692.03649 1301.10295,1690.76579 1301.10743,1689.49298 C1301.10967,1689.39784 1301.10519,1689.3027 1301.08056,1689.20967 C1301.03354,1689.01515 1300.87455,1688.89464 1300.66406,1688.87984 C1300.41998,1688.86504 1300.25651,1688.95595 1300.16918,1689.15892 C1300.11991,1689.27098 1300.12439,1689.38938 1300.12439,1689.5099 C1300.12439,1693.43404 1300.12439,1697.35607 1300.12663,1701.27809 C1300.12663,1701.65021 1300.06841,1702.00118 1299.7997,1702.29296 C1299.40335,1702.72005 1298.89056,1702.84902 1298.3285,1702.73273 C1297.75749,1702.61645 1297.39921,1702.25067 1297.2335,1701.72844 C1297.17976,1701.5593 1297.15065,1701.38169 1297.15065,1701.19986 C1297.15289,1698.48299 1297.13497,1695.76823 1297.16184,1693.05346 C1297.19991,1689.01515 1297.17304,1684.98107 1297.18648,1680.94275 C1297.18872,1680.64041 1297.10138,1680.50721 1296.85506,1680.43743 C1296.56396,1680.35286 1296.24598,1680.45012 1296.09371,1680.66155 C1296.04893,1680.72286 1296.04669,1680.79264 1296.04669,1680.86241 C1296.04893,1682.30859 1296.04669,1683.75266 1296.05117,1685.19884 C1296.05565,1686.26022 1296.07356,1687.32371 1296.07356,1688.3872 C1296.0758,1688.81852 1295.89218,1689.16104 1295.44657,1689.34075 C1295.05469,1689.49721 1294.57773,1689.41052 1294.27319,1689.12932 C1294.08285,1688.95384 1294,1688.73818 1294,1688.4908 C1294.00224,1685.76758 1294.0112,1683.04225 1294.00448,1680.32115 C1294,1679.59383 1294.16347,1678.91514 1294.57549,1678.30199 C1295.30101,1677.22581 1296.33779,1676.59786 1297.69255,1676.56615 C1299.43022,1676.52386 1301.16789,1676.53232 1302.90332,1676.55981 C1304.70817,1676.59152 1306.37642,1677.89816 1306.8086,1679.55154 C1306.90937,1679.93634 1306.95415,1680.31903 1306.95415,1680.71441 C1306.94968,1683.25791 1306.95192,1685.80353 1306.95192,1688.34703 C1306.95192,1688.87772 1306.72351,1689.19064 1306.23535,1689.33652 C1305.59044,1689.53315 1304.97464,1689.13355 1304.93658,1688.49926 C1304.92986,1688.42526 1304.93434,1688.35337 1304.93434,1688.2836 C1304.9321,1685.81621 1304.92538,1683.34883 1304.94105,1680.88355 C1304.94329,1680.51355 1304.59397,1680.3592 1304.32526,1680.42052 C1304.08342,1680.47761 1303.97593,1680.59389 1303.97593,1680.83281 L1303.97593,1691.10408 Z M1300.82093,1671.00001 C1302.31676,1670.99578 1303.53269,1672.14808 1303.52373,1673.58369 C1303.51477,1674.99815 1302.36379,1676.14622 1300.81646,1676.14622 C1299.29823,1676.14622 1298.12262,1675.06793 1298.1047,1673.59003 C1298.08903,1672.11848 1299.2848,1671.02115 1300.82093,1671.00001 Z" id="Combined-Shape-Copy" fill="#A8770A"></path>
            <path d="M869.424998,1398.434 C869.424998,1400.95048 869.432635,1403.46314 869.424998,1405.97961 C869.421179,1406.74716 869.130942,1407.37723 868.439722,1407.77055 C867.71795,1408.18296 866.961808,1408.19824 866.22858,1407.82401 C865.491533,1407.44978 865.15547,1406.80062 865.151651,1405.99107 C865.147832,1401.08031 865.147832,1396.16956 865.147832,1391.26262 C865.147832,1391.12133 865.151651,1390.98386 865.136375,1390.84639 C865.079092,1390.4378 864.796493,1390.18959 864.422241,1390.20486 C863.994525,1390.22396 863.727202,1390.49126 863.708107,1390.91513 C863.704288,1391.0335 863.704288,1391.15188 863.704288,1391.27026 L863.704288,1405.77341 C863.704288,1406.50276 863.570627,1407.19012 862.944328,1407.66363 C862.195824,1408.22115 861.382398,1408.27461 860.549879,1407.90038 C859.721178,1407.53379 859.423304,1406.80825 859.385115,1405.95288 C859.377477,1405.81541 859.381296,1405.67412 859.381296,1405.53283 C859.381296,1400.6259 859.377477,1395.71514 859.377477,1390.80439 C859.377477,1390.3156 859.377477,1390.3156 858.877201,1390.3156 C857.112871,1390.31178 855.34854,1390.3156 853.584209,1390.31178 C853.209957,1390.31178 853.202319,1390.30797 853.305429,1389.96047 C853.75224,1388.47884 854.214327,1386.99722 854.664957,1385.51177 C855.333264,1383.33515 855.993933,1381.15853 856.662241,1378.98192 C857.223619,1377.16425 857.788816,1375.34658 858.350194,1373.52892 C858.907753,1371.69979 859.465312,1369.87067 860.015233,1368.03773 C860.152713,1367.5795 859.965587,1367.18236 859.564603,1367.04107 C859.148343,1366.89596 858.74354,1367.09453 858.583146,1367.56804 C858.250902,1368.56088 857.937753,1369.55754 857.616965,1370.55802 C856.818815,1373.0325 856.020666,1375.50315 855.226335,1377.97762 C854.886453,1379.03538 854.546571,1380.09314 854.214327,1381.15472 C853.866807,1382.26212 852.973185,1382.68217 851.926807,1382.22393 C851.182122,1381.89553 850.830783,1381.10889 851.079012,1380.29934 C851.800784,1377.95089 852.530193,1375.60243 853.248146,1373.25016 C854.092122,1370.49311 854.939918,1367.73224 855.776256,1364.96755 C856.417831,1362.82912 858.266178,1361.28258 860.465863,1361.05346 C860.840115,1361.01527 861.214367,1361 861.5848,1361 C864.002162,1361.00382 866.419525,1360.99618 868.840706,1361.00764 C870.154407,1361.01146 871.372635,1361.3475 872.422832,1362.19141 C873.431021,1363.00096 874.034407,1364.04726 874.366651,1365.28068 C875.241179,1368.54561 876.130982,1371.8029 877.009329,1375.06782 C877.505786,1376.88931 878.006061,1378.71843 878.49488,1380.54374 C878.735471,1381.46021 878.063345,1382.40341 877.120077,1382.47978 C876.188266,1382.56379 875.569604,1382.15901 875.317557,1381.254 C874.588148,1378.70698 873.877833,1376.15231 873.15988,1373.59765 C872.693974,1371.96328 872.228069,1370.32891 871.765982,1368.69453 C871.655234,1368.28976 871.552124,1367.8888 871.429919,1367.48785 C871.303895,1367.07925 870.97547,1366.9036 870.589761,1367.01434 C870.200234,1367.1289 870.00547,1367.44966 870.10858,1367.85825 C870.647045,1370.03487 871.200785,1372.21531 871.746887,1374.38811 C872.36173,1376.8053 872.980391,1379.21867 873.591415,1381.63204 C874.309368,1384.46165 875.027321,1387.28743 875.749092,1390.11322 C875.829289,1390.41107 875.657439,1390.38052 875.48177,1390.3767 C873.621966,1390.3767 871.758344,1390.37288 869.898541,1390.36906 C869.432635,1390.36906 869.428816,1390.37288 869.428816,1390.83112 L869.428816,1398.434 L869.424998,1398.434 Z M860.001269,1354.70455 C859.96308,1352.17662 861.97182,1350.00382 864.660325,1350 C867.325915,1350 869.384301,1352.16134 869.35375,1354.78474 C869.323199,1357.35086 867.218986,1359.47401 864.629773,1359.44728 C862.094025,1359.42055 859.940167,1357.33176 860.001269,1354.70455 Z" id="Combined-Shape" fill="#A8770A"></path>
            <path d="M1302.80376,1735.81698 C1302.80376,1737.2103 1302.80824,1738.60151 1302.80376,1739.99483 C1302.80153,1740.41981 1302.63134,1740.76867 1302.22603,1740.98644 C1301.80281,1741.21478 1301.35944,1741.22324 1300.9295,1741.01604 C1300.49732,1740.80884 1300.30026,1740.44941 1300.29803,1740.00118 C1300.29579,1737.28219 1300.29579,1734.5632 1300.29579,1731.84632 C1300.29579,1731.76809 1300.29803,1731.69198 1300.28907,1731.61586 C1300.25548,1731.38963 1300.08977,1731.2522 1299.87033,1731.26066 C1299.61953,1731.27123 1299.46278,1731.41923 1299.45158,1731.65392 C1299.44934,1731.71946 1299.44934,1731.785 1299.44934,1731.85055 L1299.44934,1739.88066 C1299.44934,1740.28449 1299.37097,1740.66507 1299.00373,1740.92724 C1298.56483,1741.23593 1298.08787,1741.26553 1297.59971,1741.05833 C1297.11379,1740.85535 1296.93913,1740.45364 1296.91673,1739.98003 C1296.91226,1739.90392 1296.91449,1739.82569 1296.91449,1739.74746 C1296.91449,1737.03058 1296.91226,1734.31159 1296.91226,1731.5926 C1296.91226,1731.32197 1296.91226,1731.32197 1296.61891,1731.32197 C1295.58437,1731.31986 1294.54983,1731.32197 1293.51529,1731.31986 C1293.29584,1731.31986 1293.29136,1731.31774 1293.35182,1731.12534 C1293.61382,1730.30499 1293.88477,1729.48465 1294.149,1728.66218 C1294.54087,1727.45703 1294.92827,1726.25188 1295.32014,1725.04673 C1295.64931,1724.04032 1295.98072,1723.03391 1296.30989,1722.02751 C1296.63683,1721.01476 1296.96376,1720.00201 1297.28621,1718.98714 C1297.36683,1718.73343 1297.2571,1718.51354 1297.02198,1718.43531 C1296.7779,1718.35497 1296.54054,1718.46491 1296.44649,1718.72708 C1296.25167,1719.2768 1296.06805,1719.82864 1295.87995,1720.38258 C1295.41195,1721.75265 1294.94394,1723.1206 1294.47817,1724.49067 C1294.27888,1725.07633 1294.07958,1725.66199 1293.88477,1726.24977 C1293.68099,1726.86291 1293.15701,1727.09549 1292.54345,1726.84177 C1292.10679,1726.65994 1291.90078,1726.22439 1292.04633,1725.77616 C1292.46955,1724.47587 1292.89725,1723.17557 1293.31823,1721.87316 C1293.81311,1720.34664 1294.31023,1718.818 1294.80063,1717.28725 C1295.17682,1716.10324 1296.26063,1715.24695 1297.55045,1715.12009 C1297.76989,1715.09895 1297.98934,1715.09049 1298.20655,1715.09049 C1299.62401,1715.0926 1301.04146,1715.08837 1302.46116,1715.09472 C1303.23146,1715.09683 1303.94579,1715.28289 1304.56159,1715.75015 C1305.15275,1716.19838 1305.50656,1716.7777 1305.70137,1717.46062 C1306.21417,1719.26835 1306.73592,1721.07184 1307.25095,1722.87957 C1307.54205,1723.88809 1307.8354,1724.90084 1308.12202,1725.91148 C1308.2631,1726.41891 1307.86898,1726.94114 1307.31589,1726.98343 C1306.7695,1727.02994 1306.40674,1726.80583 1306.25895,1726.30474 C1305.83125,1724.8945 1305.41475,1723.48003 1304.99377,1722.06557 C1304.72058,1721.16064 1304.44739,1720.25572 1304.17643,1719.3508 C1304.1115,1719.12669 1304.05104,1718.90469 1303.97938,1718.68268 C1303.90548,1718.45645 1303.71291,1718.3592 1303.48674,1718.42051 C1303.25834,1718.48394 1303.14413,1718.66154 1303.20459,1718.88777 C1303.52033,1720.09292 1303.84502,1721.30019 1304.16524,1722.50323 C1304.52576,1723.84158 1304.88852,1725.17782 1305.2468,1726.51405 C1305.66779,1728.08075 1306.08877,1729.64533 1306.51199,1731.20991 C1306.55901,1731.37483 1306.45825,1731.35792 1306.35524,1731.3558 C1305.26472,1731.3558 1304.17196,1731.35369 1303.08143,1731.35157 C1302.80824,1731.35157 1302.806,1731.35369 1302.806,1731.6074 L1302.806,1735.81698 L1302.80376,1735.81698 Z M1297.27802,1711.60482 C1297.25563,1710.20515 1298.43349,1709.00211 1300.00993,1709 C1301.57294,1709 1302.7799,1710.19669 1302.76199,1711.64922 C1302.74407,1713.07003 1301.51024,1714.24558 1299.99202,1714.23078 C1298.50514,1714.21598 1297.2422,1713.05946 1297.27802,1711.60482 Z" id="Combined-Shape-Copy-2" fill="#A8770A"></path>
            <path d="M837,1275 L942.004762,1275" id="Path-48" stroke="#FFFFFF" stroke-width="4"></path>
            <path d="M1349,1275 L1239.99537,1275" id="Path-49" stroke="#FFFFFF" stroke-width="4"></path>
            <polyline id="Path-51" stroke="#FFFFFF" stroke-width="4" points="1279 1753 1279 1659.99462 1322.1049 1659.99462 1322.1049 1752.00006"></polyline>
            <path d="M779,1550 L779,1753.06157 L676.609104,1753.06157 L676.609104,1873.08035 L778.075736,1873.08035 L778.075736,1861.99974 L868,1861.99974 M901,1861.99974 L944.243922,1861.99974 L944.243922,1975.01364" id="Path-52" stroke="#FFFFFF" stroke-width="4"></path>
            <path d="M1242,1981 L1242,1862 L1281,1862 M1312,1862 L1404.01235,1862" id="Path-53" stroke="#FFFFFF" stroke-width="4"></path>
            <path d="M778,1874 L778,1981.00467" id="Path-54" stroke="#FFFFFF" stroke-width="4"></path>
            <path d="M944,1864.00446 L944,1798.29416 M944,1773.12239 L944,1752" id="Path-55" stroke="#FFFFFF" stroke-width="4"></path>
            <path d="M1242,1864.00446 L1242,1799.71482 M1242,1776.75497 L1242,1752" id="Path-55-Copy" stroke="#FFFFFF" stroke-width="4"></path>
            <path d="M1483,1505.8185 L1153.90275,1505.8185" id="Path-56" stroke="#B5BADE" stroke-width="7.637"></path>
            <polyline id="Path-57" stroke="#3B9AAC" stroke-width="20" points="1095 711 1095 900.118375 809.512412 900.118375 809.512412 1520.40866 923.32473 1520.40866"></polyline>
            <polygon id="Triangle" fill="#3B9AAC" transform="translate(959.500000, 1520.000000) scale(-1, 1) rotate(-90.000000) translate(-959.500000, -1520.000000) " points="959.5 1482.5 997.75 1557.5 921.25 1557.5"></polygon>
        </g>
    </g>
</svg>